<svg width="276" height="60" viewBox="0 0 276 60" fill="none" xmlns="http://www.w3.org/2000/svg">
<path d="M261.968 13.2438C261.571 13.5897 261.076 13.8209 260.547 13.9082C260.017 13.9956 259.476 13.9351 258.992 13.7344C258.508 13.5337 258.103 13.2019 257.828 12.7808C257.553 12.3598 257.42 11.8686 257.447 11.3692C257.473 10.8698 257.658 10.3848 257.977 9.97544C258.296 9.56611 258.736 9.25089 259.24 9.06963C259.745 8.88838 260.291 8.84924 260.81 8.95718C261.33 9.06512 261.799 9.31528 262.158 9.67602C262.639 10.1593 262.889 10.8065 262.854 11.4755C262.818 12.1445 262.499 12.7805 261.968 13.2438Z" fill="white"/>
<path d="M262.374 12.4014C262.117 12.3653 262.526 9.69936 263.727 6.6168C264.928 3.53424 265.988 1.10647 266.217 1.15781C266.445 1.20915 265.807 3.82372 264.611 6.87645C263.414 9.92919 262.63 12.4375 262.374 12.4014Z" fill="white"/>
<path d="M273.734 5.15288C273.775 5.35712 271.515 5.65854 269.051 4.61126C267.987 4.19185 267.08 3.49887 266.431 2.61112C265.937 1.89847 265.951 1.33629 266.061 1.31455C266.171 1.29282 266.409 1.7088 266.958 2.22727C267.679 2.89829 268.529 3.43666 269.466 3.81558C271.662 4.77103 273.753 4.8791 273.734 5.15288Z" fill="white"/>
<path d="M269.972 16.8133C269.575 17.1602 269.081 17.3925 268.55 17.4805C268.02 17.5686 267.478 17.5085 266.994 17.308C266.509 17.1074 266.103 16.7753 265.828 16.3538C265.552 15.9323 265.42 15.4404 265.447 14.9405C265.474 14.4406 265.659 13.9552 265.979 13.5457C266.299 13.1363 266.74 12.8213 267.245 12.6408C267.75 12.4602 268.298 12.4222 268.817 12.5315C269.337 12.6408 269.805 12.8925 270.164 13.2547C270.641 13.7378 270.889 14.3832 270.853 15.0499C270.818 15.7166 270.501 16.3505 269.972 16.8133Z" fill="white"/>
<path d="M269.891 16.3966C269.634 16.3605 270.045 13.7039 271.244 10.612C272.444 7.52018 273.495 5.1037 273.734 5.15306C273.972 5.20242 273.324 7.81895 272.13 10.881C270.935 13.943 270.137 16.4347 269.891 16.3966Z" fill="white"/>
<path d="M273.177 6.81512C273.221 7.03793 271.109 7.45492 268.757 6.54965C266.405 5.64438 265.247 3.99213 265.452 3.87439C265.658 3.75664 267.017 4.95435 269.138 5.74132C271.259 6.52829 273.168 6.55656 273.177 6.81512Z" fill="white"/>
<path d="M239.979 53.1549C239.638 53.572 239.179 53.8668 238.66 54.0021C238.14 54.1373 237.582 54.107 237.058 53.9149C236.534 53.7228 236.066 53.3775 235.714 52.9227C235.361 52.4679 235.141 51.9241 235.079 51.3599C235.018 50.7957 235.119 50.2365 235.369 49.7529C235.619 49.2694 236.007 48.8833 236.485 48.6434C236.962 48.4035 237.507 48.3205 238.051 48.4051C238.595 48.4896 239.113 48.7378 239.54 49.1183C239.823 49.3711 240.06 49.6761 240.235 50.0158C240.411 50.3555 240.522 50.7234 240.563 51.0982C240.604 51.4731 240.573 51.8477 240.473 52.2006C240.373 52.5535 240.205 52.8777 239.979 53.1549Z" fill="white"/>
<path d="M4.00526 57.9968C3.73068 58.2659 3.38144 58.4388 3.00168 58.4935C2.62192 58.5483 2.2287 58.4826 1.87172 58.3046C1.51474 58.1266 1.21003 57.8444 0.996105 57.4936C0.782184 57.1428 0.668658 56.7393 0.66988 56.3339C0.671101 55.9285 0.787014 55.5396 1.00297 55.2162C1.21892 54.8928 1.52521 54.6496 1.88313 54.5171C2.24104 54.3847 2.63451 54.3691 3.0138 54.4722C3.39308 54.5754 3.74114 54.7927 4.01399 55.0966C4.19528 55.2986 4.33887 55.5338 4.43655 55.7889C4.53423 56.044 4.5841 56.3139 4.58328 56.5833C4.58247 56.8526 4.531 57.1161 4.43182 57.3586C4.33264 57.6012 4.18769 57.818 4.00526 57.9968Z" fill="white"/>
<path d="M240.252 52.2239C240.096 49.9925 240.268 47.7721 240.762 45.6391C241.078 43.4731 241.54 41.3424 242.144 39.2619C242.321 39.2965 242.028 42.2494 241.326 45.8143C240.624 49.3792 240.404 52.1964 240.252 52.2239Z" fill="white"/>
<path d="M4.27371 57.3577C4.33959 55.7613 4.63778 54.1987 5.15803 52.7239C5.55419 51.2114 6.05099 49.7355 6.64487 48.3067C6.76803 48.3453 6.32548 50.4181 5.54422 52.893C4.76296 55.3678 4.38348 57.3502 4.27371 57.3577Z" fill="white"/>
<path d="M247.999 40.426C247.068 40.945 245.978 41.1251 244.894 40.9395C243.809 40.7538 242.789 40.2124 241.986 39.3965C242.086 39.2448 243.297 40.0495 244.955 40.3231C246.612 40.5968 247.937 40.2439 247.999 40.426Z" fill="white"/>
<path d="M10.7091 49.5975C10.0065 49.8919 9.21855 49.9333 8.46357 49.7155C7.70859 49.4977 7.02727 49.0324 6.52187 48.3895C6.60489 48.2898 7.40107 48.9571 8.55603 49.2828C9.71099 49.6086 10.6789 49.4632 10.7091 49.5975Z" fill="white"/>
<path d="M247.317 43.2531C247.409 43.4044 246.106 44.1465 244.33 43.6986C243.8 43.6236 243.285 43.42 242.83 43.1047C242.374 42.7894 241.991 42.3713 241.711 41.8849C241.86 41.7941 242.861 42.727 244.425 43.0837C245.989 43.4403 247.254 43.071 247.317 43.2531Z" fill="white"/>
<path d="M10.0007 51.5503C10.0541 51.665 9.07002 52.0884 7.84499 51.6295C7.47424 51.5342 7.12534 51.3489 6.82704 51.0889C6.52874 50.829 6.28957 50.5018 6.12925 50.1343C6.24228 50.0816 6.87891 50.8233 7.96076 51.2005C9.04261 51.5778 9.97056 51.4161 10.0007 51.5503Z" fill="white"/>
</svg>
