<svg width="24" height="24" viewBox="0 0 24 24" fill="none" xmlns="http://www.w3.org/2000/svg">
<g clip-path="url(#clip0_333_1687)">
<path d="M12.22 21.75C13.32 21.75 14.22 20.85 14.22 19.75H10.22C10.22 20.85 11.12 21.75 12.22 21.75ZM18.22 15.75V10.75C18.22 7.68 16.59 5.11 13.72 4.43V3.75C13.72 2.92 13.05 2.25 12.22 2.25C11.39 2.25 10.72 2.92 10.72 3.75V4.43C7.86 5.11 6.22 7.67 6.22 10.75V15.75L4.22 17.75V18.75H20.22V17.75L18.22 15.75ZM16.22 16.75H8.22V10.75C8.22 8.27 9.73 6.25 12.22 6.25C14.71 6.25 16.22 8.27 16.22 10.75V16.75ZM7.8 3.83L6.37 2.4C3.97 4.23 2.39 7.05 2.25 10.25H4.25C4.4 7.6 5.76 5.28 7.8 3.83ZM20.19 10.25H22.19C22.04 7.05 20.46 4.23 18.07 2.4L16.65 3.83C18.67 5.28 20.04 7.6 20.19 10.25Z" fill="#381E3E"/>
<mask id="mask0_333_1687" style="mask-type:alpha" maskUnits="userSpaceOnUse" x="9" y="19" width="8" height="4">
<path d="M8.99998 22.5L9 19.5L14.5 19.5L16.3327 21.6227L8.99998 22.5Z" fill="#D9D9D9"/>
</mask>
<g mask="url(#mask0_333_1687)">
<path d="M12.22 21.75C13.32 21.75 14.22 20.85 14.22 19.75H10.22C10.22 20.85 11.12 21.75 12.22 21.75ZM18.22 15.75V10.75C18.22 7.68 16.59 5.11 13.72 4.43V3.75C13.72 2.92 13.05 2.25 12.22 2.25C11.39 2.25 10.72 2.92 10.72 3.75V4.43C7.86 5.11 6.22 7.67 6.22 10.75V15.75L4.22 17.75V18.75H20.22V17.75L18.22 15.75ZM16.22 16.75H8.22V10.75C8.22 8.27 9.73 6.25 12.22 6.25C14.71 6.25 16.22 8.27 16.22 10.75V16.75ZM7.8 3.83L6.37 2.4C3.97 4.23 2.39 7.05 2.25 10.25H4.25C4.4 7.6 5.76 5.28 7.8 3.83ZM20.19 10.25H22.19C22.04 7.05 20.46 4.23 18.07 2.4L16.65 3.83C18.67 5.28 20.04 7.6 20.19 10.25Z" fill="#CEAB5E"/>
</g>
<mask id="mask1_333_1687" style="mask-type:alpha" maskUnits="userSpaceOnUse" x="14" y="-1" width="10" height="13">
<path d="M14 -1L22 3.5L24 9L20 12L14 -1Z" fill="#D9D9D9"/>
</mask>
<g mask="url(#mask1_333_1687)">
<path d="M12.22 21.75C13.32 21.75 14.22 20.85 14.22 19.75H10.22C10.22 20.85 11.12 21.75 12.22 21.75ZM18.22 15.75V10.75C18.22 7.68 16.59 5.11 13.72 4.43V3.75C13.72 2.92 13.05 2.25 12.22 2.25C11.39 2.25 10.72 2.92 10.72 3.75V4.43C7.86 5.11 6.22 7.67 6.22 10.75V15.75L4.22 17.75V18.75H20.22V17.75L18.22 15.75ZM16.22 16.75H8.22V10.75C8.22 8.27 9.73 6.25 12.22 6.25C14.71 6.25 16.22 8.27 16.22 10.75V16.75ZM7.8 3.83L6.37 2.4C3.97 4.23 2.39 7.05 2.25 10.25H4.25C4.4 7.6 5.76 5.28 7.8 3.83ZM20.19 10.25H22.19C22.04 7.05 20.46 4.23 18.07 2.4L16.65 3.83C18.67 5.28 20.04 7.6 20.19 10.25Z" fill="#CEAB5E"/>
</g>
<mask id="mask2_333_1687" style="mask-type:alpha" maskUnits="userSpaceOnUse" x="-4" y="-7" width="13" height="20">
<path d="M8.08691 -6.31799L8.1763 4.47036L3.01955 11.9322L-3.24006 12.2558L8.08691 -6.31799Z" fill="#D9D9D9"/>
</mask>
<g mask="url(#mask2_333_1687)">
<path d="M12.22 21.75C13.32 21.75 14.22 20.85 14.22 19.75H10.22C10.22 20.85 11.12 21.75 12.22 21.75ZM18.22 15.75V10.75C18.22 7.68 16.59 5.11 13.72 4.43V3.75C13.72 2.92 13.05 2.25 12.22 2.25C11.39 2.25 10.72 2.92 10.72 3.75V4.43C7.86 5.11 6.22 7.67 6.22 10.75V15.75L4.22 17.75V18.75H20.22V17.75L18.22 15.75ZM16.22 16.75H8.22V10.75C8.22 8.27 9.73 6.25 12.22 6.25C14.71 6.25 16.22 8.27 16.22 10.75V16.75ZM7.8 3.83L6.37 2.4C3.97 4.23 2.39 7.05 2.25 10.25H4.25C4.4 7.6 5.76 5.28 7.8 3.83ZM20.19 10.25H22.19C22.04 7.05 20.46 4.23 18.07 2.4L16.65 3.83C18.67 5.28 20.04 7.6 20.19 10.25Z" fill="#CEAB5E"/>
</g>
</g>
<defs>
<clipPath id="clip0_333_1687">
<rect width="24" height="24" fill="white"/>
</clipPath>
</defs>
</svg>
