<svg width="15" height="15" viewBox="0 0 15 15" fill="none" xmlns="http://www.w3.org/2000/svg">
<path fill-rule="evenodd" clip-rule="evenodd" d="M2.35714 0C1.05533 0 0 1.1915 0 2.66129C0 4.13108 1.05533 5.32258 2.35714 5.32258C3.65896 5.32258 4.71429 4.13108 4.71429 2.66129C4.71429 1.1915 3.65896 0 2.35714 0ZM1.28571 2.66129C1.28571 1.9932 1.76541 1.45161 2.35714 1.45161C2.94888 1.45161 3.42857 1.9932 3.42857 2.66129C3.42857 3.32938 2.94888 3.87097 2.35714 3.87097C1.76541 3.87097 1.28571 3.32938 1.28571 2.66129Z" fill="#EDEBF5"/>
<path d="M7.5 1.93548C7.14496 1.93548 6.85714 2.26044 6.85714 2.66129C6.85714 3.06214 7.14496 3.3871 7.5 3.3871L14.3571 3.3871C14.7122 3.3871 15 3.06214 15 2.66129C15 2.26044 14.7122 1.93548 14.3571 1.93548L7.5 1.93548Z" fill="#EDEBF5"/>
<path fill-rule="evenodd" clip-rule="evenodd" d="M12.6429 9.67742C11.341 9.67742 10.2857 10.8689 10.2857 12.3387C10.2857 13.8085 11.341 15 12.6429 15C13.9447 15 15 13.8085 15 12.3387C15 10.8689 13.9447 9.67742 12.6429 9.67742ZM11.5714 12.3387C11.5714 11.6706 12.0511 11.129 12.6429 11.129C13.2346 11.129 13.7143 11.6706 13.7143 12.3387C13.7143 13.0068 13.2346 13.5484 12.6429 13.5484C12.0511 13.5484 11.5714 13.0068 11.5714 12.3387Z" fill="#EDEBF5"/>
<path d="M0.642857 11.6129C0.287817 11.6129 0 11.9379 0 12.3387C0 12.7396 0.287817 13.0645 0.642857 13.0645L7.5 13.0645C7.85504 13.0645 8.14286 12.7396 8.14286 12.3387C8.14286 11.9379 7.85504 11.6129 7.5 11.6129L0.642857 11.6129Z" fill="#EDEBF5"/>
</svg>
