<svg width="20" height="20" viewBox="0 0 20 20" fill="none" xmlns="http://www.w3.org/2000/svg">
<path fill-rule="evenodd" clip-rule="evenodd" d="M3.14286 0.5578C1.40711 0.5578 0 2.08136 0 3.96076C0 5.84017 1.40711 7.36372 3.14286 7.36372C4.87861 7.36372 6.28571 5.84017 6.28571 3.96076C6.28571 2.08136 4.87861 0.5578 3.14286 0.5578ZM1.71429 3.96076C1.71429 3.10649 2.35388 2.41396 3.14286 2.41396C3.93184 2.41396 4.57143 3.10649 4.57143 3.96076C4.57143 4.81504 3.93184 5.50756 3.14286 5.50756C2.35388 5.50756 1.71429 4.81504 1.71429 3.96076Z" fill="#381E3E"/>
<path d="M10 3.03268C9.52661 3.03268 9.14286 3.4482 9.14286 3.96076C9.14286 4.47333 9.52661 4.88884 10 4.88884L19.1429 4.88884C19.6162 4.88884 20 4.47333 20 3.96076C20 3.4482 19.6162 3.03268 19.1429 3.03268L10 3.03268Z" fill="#381E3E"/>
<path fill-rule="evenodd" clip-rule="evenodd" d="M16.8571 12.9322C15.1214 12.9322 13.7143 14.4558 13.7143 16.3352C13.7143 18.2146 15.1214 19.7381 16.8571 19.7381C18.5929 19.7381 20 18.2146 20 16.3352C20 14.4558 18.5929 12.9322 16.8571 12.9322ZM15.4286 16.3352C15.4286 15.4809 16.0682 14.7884 16.8571 14.7884C17.6461 14.7884 18.2857 15.4809 18.2857 16.3352C18.2857 17.1894 17.6461 17.882 16.8571 17.882C16.0682 17.882 15.4286 17.1894 15.4286 16.3352Z" fill="#381E3E"/>
<path d="M0.857143 15.4071C0.383756 15.4071 0 15.8226 0 16.3352C0 16.8477 0.383756 17.2632 0.857143 17.2632L10 17.2632C10.4734 17.2632 10.8571 16.8477 10.8571 16.3352C10.8571 15.8226 10.4734 15.4071 10 15.4071L0.857143 15.4071Z" fill="#381E3E"/>
</svg>
