<svg width="68" height="67" viewBox="0 0 68 67" fill="none" xmlns="http://www.w3.org/2000/svg">
<g filter="url(#filter0_d_640_888)">
<ellipse cx="34" cy="29.0323" rx="30" ry="29.0323" fill="white" fill-opacity="0.84"/>
<path d="M34.5365 37.903C39.9149 37.903 44.2751 33.6835 44.2751 28.4785C44.2751 23.2736 39.9149 19.0541 34.5365 19.0541C29.158 19.0541 24.7979 23.2736 24.7979 28.4785C24.7979 33.6835 29.158 37.903 34.5365 37.903Z" fill="#A0616A"/>
<path d="M26.4756 40.0132L28.5057 34.9926L38.9944 33.4646L40.1213 44.5784L29.5198 44.7967L26.4756 40.0132Z" fill="#A0616A"/>
<path d="M44.3692 30.2173C44.2428 30.7073 43.9873 31.8741 43.5883 31.8798C43.2624 31.8844 42.9503 26.8227 43.276 25.9855C43.65 25.0236 42.6671 23.8069 41.9266 23.1823C40.5953 22.0593 37.6401 24.4707 34.6351 23.3783C34.5555 23.3494 34.5714 23.3527 33.6224 22.9863C30.7025 21.8589 30.5491 21.8263 30.3818 21.8102C28.9663 21.6747 27.2389 22.7956 26.5335 24.1623C25.8002 25.583 26.4129 26.8015 25.7233 30.2386C25.643 30.6392 25.5168 31.2102 25.3182 31.2186C24.9553 31.2339 24.6009 29.3579 24.5081 28.8665C24.1192 26.8079 23.7443 24.8231 24.5081 22.5943C24.5914 22.3512 25.1049 21.4489 26.1284 19.6542C27.603 17.0687 28.3446 15.7711 28.5589 15.538C30.096 13.8652 32.8938 12.3393 35.2428 12.9899C36.43 13.3187 36.2171 13.8474 37.6733 14.3619C40.2682 15.2788 42.5234 14.1575 42.9393 14.95C43.1597 15.3697 42.5432 15.7158 42.5343 16.518C42.5189 17.8945 44.3178 18.2922 45.3698 19.6542C45.9354 20.3863 46.9034 20.3942 44.3692 30.2173L44.3692 30.2173V30.2173Z" fill="#2F2E41"/>
<path d="M56.4346 48.3078C56.042 48.7346 55.6349 49.1526 55.2131 49.5608C49.547 55.0441 42.0131 58.0641 33.9999 58.0641C27.074 58.0641 20.5067 55.8081 15.1936 51.6552C15.1902 51.6531 15.1879 51.6509 15.1846 51.6476C14.4797 51.0976 13.7973 50.5125 13.1387 49.8948C13.1511 49.7987 13.1646 49.7038 13.1793 49.6099C13.2717 48.9769 13.3744 48.3733 13.4894 47.8177C14.4311 43.2643 26.8225 38.4838 27.1451 38.3593C27.1496 38.3582 27.1518 38.3572 27.1518 38.3572C27.1518 38.3572 28.7466 44.0458 35.58 43.9726C40.2345 43.9235 39.3323 38.3572 39.3323 38.3572C39.3323 38.3572 39.3887 38.3681 39.4947 38.3899C40.839 38.6661 50.1729 40.6503 53.8552 43.3582C54.9774 44.1833 55.7826 45.9405 56.3612 48.036C56.386 48.1256 56.4097 48.2172 56.4346 48.3078Z" fill="#CEAB5E"/>
<path d="M55.2132 8.50341C49.547 3.02011 42.0132 0 34 0C25.9868 0 18.453 3.02011 12.7868 8.50341C7.1207 13.9868 4 21.2776 4 29.0323C4 36.1103 6.59963 42.8019 11.3635 48.0855C11.8181 48.5909 12.2929 49.0831 12.7868 49.5612C12.903 49.6736 13.0203 49.786 13.1387 49.8951C13.7974 50.5129 14.4797 51.098 15.1846 51.6479C15.188 51.6513 15.1902 51.6535 15.1936 51.6556C20.5068 55.8085 27.0741 58.0645 34 58.0645C42.0132 58.0645 49.547 55.0445 55.2132 49.5612C55.635 49.153 56.0421 48.735 56.4346 48.3082C61.3259 42.9907 64 36.2107 64 29.0323C64 21.2776 60.8793 13.9868 55.2132 8.50341ZM56.3613 48.0364C55.4737 49.0133 54.5195 49.9322 53.5045 50.7847C51.5793 52.4055 49.4365 53.7894 47.1256 54.8918C46.3147 55.2792 45.4835 55.6317 44.6331 55.9472C41.3297 57.174 37.7444 57.8462 34 57.8462C30.3865 57.8462 26.9218 57.2198 23.7154 56.0738C22.3992 55.6044 21.1271 55.0468 19.9056 54.4082C19.7263 54.3144 19.5481 54.2194 19.3711 54.1223C18.4395 53.6115 17.5384 53.0538 16.6733 52.4513C15.4338 51.5912 14.2654 50.6406 13.1793 49.6102C12.5703 49.0329 11.9884 48.4315 11.4323 47.8062C6.94249 42.7593 4.22556 36.1976 4.22556 29.0323C4.22556 13.1443 17.5823 0.218288 34 0.218288C50.4177 0.218288 63.7744 13.1443 63.7744 29.0323C63.7744 36.3078 60.9741 42.9612 56.3613 48.0364Z" fill="white"/>
</g>
<defs>
<filter id="filter0_d_640_888" x="0" y="0" width="68" height="66.0646" filterUnits="userSpaceOnUse" color-interpolation-filters="sRGB">
<feFlood flood-opacity="0" result="BackgroundImageFix"/>
<feColorMatrix in="SourceAlpha" type="matrix" values="0 0 0 0 0 0 0 0 0 0 0 0 0 0 0 0 0 0 127 0" result="hardAlpha"/>
<feOffset dy="4"/>
<feGaussianBlur stdDeviation="2"/>
<feComposite in2="hardAlpha" operator="out"/>
<feColorMatrix type="matrix" values="0 0 0 0 0 0 0 0 0 0 0 0 0 0 0 0 0 0 0.25 0"/>
<feBlend mode="normal" in2="BackgroundImageFix" result="effect1_dropShadow_640_888"/>
<feBlend mode="normal" in="SourceGraphic" in2="effect1_dropShadow_640_888" result="shape"/>
</filter>
</defs>
</svg>
