<svg width="219" height="233" viewBox="0 0 219 233" fill="none" xmlns="http://www.w3.org/2000/svg">
<path d="M107.838 170.919C144.346 170.919 173.943 141.123 173.943 104.368C173.943 67.6129 144.346 37.8169 107.838 37.8169C71.3287 37.8169 41.7324 67.6129 41.7324 104.368C41.7324 141.123 71.3287 170.919 107.838 170.919Z" fill="#381E3E"/>
<g opacity="0.3">
<path d="M83.342 134.39C83.6897 131.497 85.966 128.558 84.654 125.941C83.1977 123.022 78.9599 123.494 75.9817 122.188C71.8226 120.358 70.5303 115.189 67.8145 111.542C65.3741 108.262 59.6866 104.686 55.3505 105.67C52.2148 106.385 51.1389 108.255 50.8109 110.558L50.4173 110.492C49.2562 110.367 47.8917 110.308 47.2554 109.344C46.5141 108.222 47.2554 106.563 46.4813 105.46C46.0041 104.959 45.4451 104.542 44.8282 104.227C44.2641 103.834 43.7852 103.079 44.1263 102.469C44.4674 101.859 45.1431 101.852 45.5105 101.387C45.6551 101.199 45.7336 100.968 45.7336 100.731C45.7336 100.493 45.6551 100.263 45.5105 100.075C44.3165 98.6643 42.9914 101.544 42.3289 102.22C42.1604 102.397 41.9831 102.566 41.7975 102.725C41.791 102.847 41.791 102.97 41.7975 103.092C41.7975 103.486 41.7975 103.886 41.7975 104.286C41.7975 104.686 41.7975 105.08 41.7975 105.48C41.7975 105.88 41.7975 106.136 41.7975 106.444C41.7975 106.753 41.7975 107.1 41.7975 107.415C42.5101 107.679 43.1938 108.015 43.8377 108.419C45.1497 109.16 46.5535 110.144 46.6388 111.627C46.6163 111.869 46.6641 112.113 46.7765 112.329C46.9382 112.504 47.1568 112.615 47.3932 112.644C48.4957 112.904 49.6202 113.06 50.7519 113.109C50.7519 114.421 50.8634 115.832 50.8437 117.15C50.8109 119.066 50.1877 120.955 50.3911 122.851C50.6994 125.527 52.5625 127.725 54.1828 129.877C60.3492 138.116 63.6751 147.589 67.3028 157.258C67.9588 157.79 68.9297 158.498 69.6185 158.99C70.1629 159.384 70.6615 159.725 71.2191 160.099C71.7767 160.473 72.2753 160.794 72.846 161.148C73.2396 161.404 73.3249 161.47 73.7381 161.712C73.7841 161.791 73.6857 161.594 73.7381 161.712C72.2818 158.524 72.2818 154.103 75.4044 152.528C76.0356 152.303 76.6319 151.989 77.1756 151.597C78.5663 150.285 77.4249 147.563 78.8156 146.244C79.6028 145.509 80.8229 145.588 81.7938 145.122C83.5453 144.315 84.1095 142.078 83.9717 140.156C83.834 138.234 83.1255 136.306 83.342 134.39Z" fill="black"/>
</g>
<g opacity="0.3">
<path d="M45.8253 85.6755C47.0586 84.6194 49.1906 84.4947 50.1418 85.8133C50.7978 86.7514 50.6666 88.0437 50.4895 89.1917C50.2468 90.7398 50.0106 92.288 49.7547 93.8362C49.6415 94.2963 49.6643 94.7794 49.8204 95.2269C50.2796 96.2109 51.8933 96.0206 52.51 95.1416C53.1266 94.2626 53.061 93.0621 52.897 91.9928C52.733 90.9235 52.51 89.7886 52.897 88.785C53.9466 86.2922 57.6595 86.6726 59.8112 85.0523C61.1232 84.0486 61.7464 82.3627 62.5402 80.8867C63.334 79.4107 64.6656 77.9347 66.3384 78.0134C66.9026 78.0134 67.4602 78.243 68.0244 78.2233C69.6775 78.1709 70.6484 75.7502 69.4676 74.5825C69.1935 74.3612 68.9469 74.1079 68.7328 73.8282C68.6172 73.5363 68.6064 73.2133 68.7021 72.9143C68.7977 72.6153 68.9941 72.3587 69.2576 72.1882C69.7895 71.8608 70.3927 71.6672 71.0157 71.624C72.4261 71.3878 73.8365 71.1714 75.2469 70.968C76.8082 70.7253 78.8024 69.9184 78.586 68.344C78.3957 66.9926 76.5655 66.376 76.2965 65.064C76.2735 64.7305 76.2141 64.4006 76.1194 64.08C75.6864 63.2272 74.4007 63.5683 73.5741 64.0275C73.4685 63.7305 73.2957 63.4618 73.0691 63.2425C72.8426 63.0233 72.5685 62.8593 72.2681 62.7634C71.9678 62.6675 71.6493 62.6423 71.3376 62.6898C71.026 62.7372 70.7294 62.856 70.4712 63.037C69.6315 63.693 69.5266 64.9394 69.238 65.9758C68.5426 68.4883 66.5484 70.3907 64.646 72.1553C64.0687 72.8182 63.2813 73.2629 62.4156 73.4149C61.5496 73.4542 60.6378 72.5227 61.038 71.7618C61.3069 71.237 62.0613 70.9352 61.9892 70.3448C61.8842 69.6166 60.605 69.6888 60.3557 68.9672C60.8608 66.8942 63.2356 66.0414 65.0527 64.9328C67.2823 63.5728 68.9774 61.4887 69.8546 59.0288C69.9496 58.8422 70.004 58.6375 70.0141 58.4283C70.0243 58.2191 69.9901 58.0102 69.9136 57.8152C69.6447 57.2969 68.9428 57.2117 68.3458 57.2117C66.942 57.2117 65.197 57.3822 64.6853 58.6877C64.4164 59.3896 64.6131 60.1833 64.4426 60.9115C63.9571 63.0894 60.9723 63.3322 59.1552 64.6245C58.5141 65.2093 57.8275 65.7424 57.102 66.2186C56.2101 66.5368 55.2672 66.6881 54.3205 66.6646C54.1565 66.6646 53.7301 66.6646 53.5595 66.6646C52.9823 67.465 52.5296 68.1931 51.9983 69.0197C51.4669 69.8462 50.929 70.7778 50.4304 71.6437C48.1048 75.7052 46.2223 80.0048 44.8151 84.4685C44.3034 86.0363 43.8573 87.7485 43.4637 89.3294C43.0701 90.9104 42.8077 92.4782 42.5256 94.1314C43.0819 92.7954 43.4825 91.3999 43.7195 89.9723C44.0869 88.3848 44.5986 86.712 45.8253 85.6755Z" fill="black"/>
</g>
<g opacity="0.3">
<path d="M101.375 55.7751C101.999 54.9551 101.815 53.8071 102.222 52.8296C102.878 51.2552 104.983 50.6911 105.712 49.1429C105.987 48.5459 106.059 47.8309 106.545 47.3717C107.03 46.9125 107.555 46.9322 107.988 46.5976C108.965 45.8498 108.559 44.1507 107.522 43.4947C104.931 41.8351 100.162 43.7506 97.9248 45.3709C95.045 47.457 92.2242 49.9629 88.3931 49.7202C87.337 49.648 86.2415 49.3594 85.2509 49.7202C84.2603 50.081 83.6502 51.5832 84.503 52.2064C84.9754 52.5541 85.651 52.4623 86.1824 52.705C87.173 53.1642 87.2714 54.5943 86.7859 55.5717C86.3005 56.5491 85.4346 57.2773 84.8638 58.1957C84.312 59.1052 84.0639 60.1666 84.1554 61.2264C84.1639 61.5983 84.2479 61.9645 84.4024 62.3028C84.5569 62.6411 84.7786 62.9445 85.0541 63.1944C86.2414 64.1456 88.0586 63.3322 89.0688 62.1907C90.079 61.0493 90.7744 59.5667 92.0799 58.7861C92.7547 58.4285 93.4804 58.1763 94.2315 58.0383L99.2237 56.8509C100.042 56.7459 100.8 56.3667 101.375 55.7751Z" fill="black"/>
</g>
<g opacity="0.3">
<path d="M173.922 104.221C173.922 103.269 173.883 102.325 173.837 101.387C173.791 100.449 173.745 99.4974 173.653 98.5659C173.581 97.8115 173.516 97.0571 173.411 96.3158C173.306 95.5745 173.201 94.6299 173.076 93.8558C172.716 91.613 172.23 89.3922 171.62 87.204C171.371 86.3446 170.964 85.4262 170.675 84.58C170.387 83.7337 170.105 82.8941 169.79 82.0544C169.455 81.3984 169.101 80.8145 168.714 80.2045C165.04 74.3923 159.707 69.8331 155.666 64.2702C154.354 62.4597 153.324 60.9902 150.995 60.6097C147.545 60.0718 145.793 62.0398 143.346 58.7664C142.69 57.8873 141.542 57.0739 140.565 57.5921L141.352 59.6848C141.417 59.831 141.444 59.9912 141.431 60.1505C141.378 60.6425 140.65 60.7737 140.23 60.5048C139.856 60.1696 139.544 59.7696 139.312 59.324C139.025 58.9538 138.664 58.6473 138.251 58.4242C137.839 58.201 137.385 58.0661 136.918 58.0278C136.451 57.9895 135.982 58.0489 135.539 58.202C135.096 58.3551 134.69 58.5987 134.346 58.9173C134.315 58.5849 134.197 58.2665 134.004 57.9945C133.81 57.7226 133.548 57.5068 133.244 57.3691C133.194 57.6846 133.077 57.9859 132.903 58.2534C132.728 58.5208 132.499 58.7484 132.23 58.9211C131.961 59.0939 131.659 59.208 131.343 59.2559C131.027 59.3039 130.705 59.2846 130.397 59.1993C130.2 58.5433 131.341 58.4449 131.742 57.8873C132.142 57.3297 131.663 56.6606 131.197 56.2342C129.931 55.1349 128.321 54.5109 126.645 54.4696C125.588 54.4696 124.447 54.6467 123.529 54.1022C122.997 53.7873 122.617 53.2625 122.072 52.9608C120.911 52.3048 119.448 52.9083 118.287 53.5577C116.686 54.4433 115.007 55.5651 114.469 57.3101C113.931 59.055 115.165 61.4035 116.982 61.1805C117.431 61.0382 117.903 60.9847 118.372 61.023C118.679 61.1596 118.937 61.3853 119.114 61.6708C119.291 61.9563 119.377 62.2883 119.363 62.6237C119.322 63.2942 119.427 63.9657 119.671 64.5917C119.986 65.1821 120.937 65.4707 121.298 64.9197C122.157 64.0997 122.053 62.7286 121.836 61.5675C121.62 60.4064 121.383 59.1009 122.072 58.1497C122.761 57.1985 124.762 57.4937 124.624 58.6745C124.545 59.3305 123.758 59.8685 123.791 60.5638C123.824 61.2592 124.69 61.6528 125.398 61.62C126.107 61.5872 126.835 61.3379 127.524 61.5216C128.212 61.7053 128.777 62.5974 128.278 63.1091C127.405 64.0931 125.149 62.4072 124.703 63.6339C124.572 63.9422 124.703 64.2899 124.703 64.6376C124.617 65.6609 123.332 66.0349 122.308 66.1595C121.293 66.3697 120.24 66.2948 119.265 65.943C118.333 65.5035 117.697 64.2768 118.228 63.4043C118.086 63.3313 117.93 63.2885 117.77 63.2785C117.61 63.2686 117.45 63.2918 117.3 63.3466C117.15 63.4014 117.013 63.4867 116.897 63.5971C116.781 63.7075 116.689 63.8406 116.627 63.9881C116.407 64.598 116.366 65.2582 116.509 65.8905C115.427 65.6478 114.449 66.5465 113.833 67.4781C113.216 68.4096 112.613 69.4461 111.557 69.7937C110.5 70.1414 109.024 69.6757 108.467 70.64C107.745 71.8929 109.838 73.4805 109.123 74.7269C108.703 75.4288 107.699 75.3829 106.905 75.6256C104.8 76.2226 104.072 79.2992 105.502 80.9392C106.932 82.5792 109.798 82.4873 111.314 80.9392C112.377 79.8633 112.803 78.348 113.564 77.0491C114.325 75.7502 115.775 74.5891 117.218 75.0089C117.774 75.2181 118.283 75.5371 118.713 75.947L120.813 77.7182C121.265 78.0921 121.757 78.5645 121.711 79.1483C121.672 79.6206 121.305 79.988 121.147 80.4275C120.708 81.6936 122.538 82.8941 123.693 82.2053C124.847 81.5165 124.965 79.7453 124.178 78.6563C123.096 77.1541 120.636 76.3997 120.701 74.5366C121.954 73.5133 123.929 74.5891 124.637 76.0454C125.346 77.5018 125.392 79.2008 126.008 80.6965C126.625 82.1921 128.35 83.5304 129.793 82.8022C129.413 81.4902 129.052 80.2176 128.672 78.9318C129.597 78.243 130.64 80.2438 131.748 79.9158C132.404 79.7059 132.503 78.7416 132.207 78.0921C131.912 77.4427 131.401 76.9048 131.276 76.2029C131.066 74.9237 132.489 73.7822 133.775 73.9921C134.405 74.15 134.973 74.4911 135.409 74.9722C135.844 75.4533 136.127 76.0528 136.222 76.6949C136.274 77.205 136.386 77.7071 136.557 78.1905C137.042 79.1942 138.282 79.5025 139.312 79.9158C140.342 80.3291 141.411 81.3656 140.985 82.3955C140.781 82.8416 140.329 83.268 140.48 83.7075C140.63 84.147 141.247 84.2913 141.247 84.7309C141.247 85.0195 140.932 85.2229 140.657 85.3344C139.968 85.6165 139.213 85.7149 138.544 86.0363C138.199 86.1696 137.899 86.4006 137.683 86.7011C137.466 87.0016 137.341 87.3587 137.324 87.7288C137.403 88.7784 138.636 89.277 139.233 90.1494C139.83 91.0219 139.719 92.0715 140.073 93.0161C140.494 93.847 141.026 94.6172 141.654 95.3056C143.386 97.6672 143.799 100.711 144.645 103.512C145.019 104.778 145.708 106.189 147.007 106.431C147.728 106.488 148.452 106.348 149.099 106.025C150.969 105.283 152.917 104.483 154.223 102.968C155.528 101.452 155.981 98.9661 154.629 97.4704C154.473 97.2533 154.237 97.1071 153.973 97.0637C153.62 97.0843 153.28 97.2024 152.989 97.4048C152.491 97.5826 151.952 97.6153 151.435 97.4992C150.918 97.3831 150.445 97.1229 150.07 96.7488C149.328 95.9949 148.74 95.1036 148.338 94.1248L146.79 91.0022C147.133 90.7825 147.54 90.6837 147.945 90.7218C148.35 90.7598 148.731 90.9325 149.027 91.2121C149.6 91.7856 150.112 92.4165 150.556 93.0949C152.11 95.0629 154.675 95.896 157.155 96.1912C157.79 96.2243 158.416 96.3549 159.012 96.5782C160.868 97.4245 161.399 100.153 163.354 100.737C163.917 100.828 164.473 100.953 165.021 101.111C165.385 101.34 165.697 101.642 165.937 102C166.176 102.357 166.338 102.76 166.411 103.184C166.838 104.726 166.982 106.346 167.631 107.809C168.281 109.272 169.599 110.597 171.167 110.623C171.658 110.616 172.143 110.512 172.594 110.316C173.044 110.12 173.451 109.836 173.791 109.482C173.87 108.039 173.968 106.543 173.968 105.08C173.942 104.824 173.942 104.522 173.922 104.221Z" fill="black"/>
</g>
<g opacity="0.3">
<path d="M147.171 131.654C146.187 131.845 145.99 132.429 145.452 133.157C144.757 134.101 143.76 135.053 143.123 135.991C142.054 137.578 143.018 140.058 141.608 141.396C141.291 141.629 140.987 141.879 140.696 142.144C140.441 142.497 140.334 142.937 140.397 143.368C140.461 143.799 140.691 144.189 141.037 144.453C141.401 144.696 141.826 144.83 142.264 144.838C142.701 144.846 143.131 144.728 143.504 144.499C144.24 144.016 144.777 143.282 145.012 142.433C145.107 141.812 145.37 141.228 145.773 140.747C146.587 140.038 147.84 140.563 148.909 140.412C153.422 139.776 151.481 130.802 147.171 131.654Z" fill="black"/>
</g>
<g opacity="0.3">
<path d="M148.706 119.171C151.33 116.914 152.366 111.817 149.126 110.643C147.899 110.197 146.502 110.558 145.268 110.085C143.681 109.469 142.94 107.691 142.369 106.084C140.86 101.881 139.353 97.6738 137.849 93.4622C136.944 90.9301 135.566 87.9912 132.903 87.6173C131.387 87.4074 129.925 88.129 128.422 88.3979C123.26 89.3426 114.574 76.8392 110.645 85.2557C110.094 82.9662 106.381 83.8256 105.193 85.8592C104.006 87.8928 103.75 90.5758 101.867 91.9862C100.431 93.0621 98.325 93.1277 97.1573 94.4856C96.3308 95.4434 96.1865 96.7882 96.0815 98.0477C95.8847 100.455 95.6879 102.856 95.4845 105.264C95.3271 107.199 95.1959 109.272 96.1405 110.964C97.0852 112.657 99.6108 113.588 101.047 112.276C101.703 111.673 101.985 110.761 102.523 110.046C102.971 109.478 103.573 109.051 104.258 108.818C104.942 108.586 105.68 108.556 106.381 108.734C107.536 109.132 108.554 109.848 109.32 110.8C116.044 118.016 118.451 128.348 118.746 138.221C118.805 140.032 118.805 141.888 119.468 143.568C120.249 145.536 121.889 147.136 122.374 149.196C122.748 150.784 122.374 152.522 123.076 154.004C124.329 156.727 128.508 156.838 130.784 154.89C133.06 152.942 133.847 149.793 134.313 146.828C134.779 143.863 135.068 140.747 136.727 138.254C137.757 136.699 139.266 135.459 140.007 133.747C141.011 131.353 140.27 128.499 141.201 126.085C142.434 122.858 146.095 121.428 148.706 119.171Z" fill="black"/>
</g>
<path d="M19.2954 169.418C15.6974 169.711 12.0962 168.892 8.97829 167.073C5.86035 165.254 3.37591 162.521 1.86055 159.245C0.345195 155.969 -0.128055 152.306 0.50472 148.752C1.13749 145.198 2.84581 141.924 5.3989 139.372C7.952 136.82 11.2269 135.113 14.7811 134.481C18.3354 133.85 21.9978 134.325 25.2736 135.841C28.5494 137.358 31.2808 139.844 33.0988 142.962C34.9168 146.081 35.7339 149.683 35.4396 153.28C35.0948 157.446 33.2831 161.355 30.3267 164.31C27.3704 167.265 23.4613 169.075 19.2954 169.418Z" fill="#FAFAFA"/>
<path d="M19.2954 169.418L19.5775 169.366L20.4106 169.247C20.8526 169.182 21.2906 169.093 21.7226 168.979C22.3254 168.843 22.9191 168.67 23.5004 168.46C27.2483 167.141 30.4437 164.599 32.5728 161.244C33.2758 160.15 33.8565 158.982 34.3047 157.761C34.5294 157.115 34.7199 156.458 34.8754 155.793C34.9476 155.445 35.0328 155.104 35.0919 154.75C35.1509 154.396 35.1837 154.035 35.2296 153.667C35.2758 153.302 35.2955 152.934 35.2887 152.565C35.2887 152.198 35.2887 151.824 35.2887 151.444C35.2493 150.696 35.1837 149.928 35.0788 149.161C35 148.774 34.9279 148.393 34.8492 148.006C34.8032 147.816 34.777 147.619 34.7245 147.429L34.5408 146.858C34.4228 146.478 34.2981 146.091 34.1735 145.704L33.6815 144.588L33.4322 144.024C33.3404 143.841 33.2288 143.663 33.1239 143.48L32.4679 142.397L31.72 141.374L31.3461 140.856L30.9132 140.377C29.7641 139.054 28.4189 137.914 26.9247 136.999L25.757 136.343C25.3568 136.139 24.937 135.975 24.5237 135.785C24.3138 135.7 24.1104 135.595 23.8677 135.516L23.2117 135.313C22.7815 135.159 22.3436 135.027 21.8997 134.919C20.0752 134.498 18.1989 134.345 16.3303 134.466C12.76 134.779 9.37001 136.173 6.61222 138.462C3.85444 140.751 1.85992 143.827 0.894596 147.278C0.483271 148.825 0.280306 150.42 0.291077 152.021C0.275498 152.407 0.293057 152.793 0.343558 153.175L0.441964 154.317C0.579724 155.052 0.704356 155.793 0.894596 156.495C1.62234 159.116 2.94198 161.535 4.75188 163.567C6.25174 165.235 8.0492 166.61 10.0524 167.621L11.3644 168.204C11.7842 168.388 12.2172 168.493 12.6173 168.637C13.3528 168.876 14.1049 169.06 14.8674 169.188C15.9241 169.374 16.9959 169.46 18.0687 169.444H19.1904H18.9084L18.0687 169.484C16.9912 169.525 15.9122 169.459 14.8477 169.287C14.0764 169.169 13.3154 168.991 12.5714 168.755C12.1647 168.624 11.7252 168.519 11.2988 168.336L9.98676 167.758C7.72615 166.65 5.72461 165.078 4.11275 163.144C2.50088 161.21 1.3149 158.958 0.6322 156.534C0.4354 155.819 0.310759 155.071 0.159879 154.323L0.0614827 153.169C0.0123877 152.78 -0.00735563 152.387 0.0024351 151.995C-0.0366793 149.421 0.491408 146.87 1.54919 144.523C2.60698 142.176 4.16852 140.091 6.12292 138.415C9.00244 135.913 12.6065 134.396 16.409 134.086C18.3131 133.959 20.2254 134.116 22.0834 134.552C22.5382 134.662 22.987 134.796 23.4282 134.952L24.0842 135.162C24.3072 135.24 24.5106 135.345 24.7402 135.437C25.16 135.627 25.5864 135.798 25.9997 136.008L27.1805 136.664C28.7043 137.603 30.0759 138.768 31.2477 140.121L31.6807 140.607L32.0677 141.131L32.8221 142.174C33.032 142.548 33.2485 142.916 33.4781 143.283C33.5765 143.467 33.6946 143.644 33.7864 143.834L34.0423 144.411C34.2063 144.792 34.3703 145.172 34.5408 145.553C34.7114 145.933 34.7836 146.333 34.9082 146.72L35.0919 147.304C35.1444 147.495 35.1772 147.698 35.2165 147.895L35.4527 149.069C35.5511 149.85 35.6167 150.63 35.656 151.391C35.656 151.778 35.656 152.159 35.6232 152.533C35.6247 152.908 35.6028 153.282 35.5576 153.654C35.5052 154.022 35.4592 154.389 35.4133 154.75C35.3674 155.111 35.2624 155.458 35.1903 155.806C35.0279 156.489 34.8308 157.163 34.5999 157.827C34.135 159.063 33.539 160.246 32.8221 161.356C31.5856 163.266 29.9986 164.924 28.1448 166.243C26.746 167.227 25.2128 168.005 23.5922 168.552C23.0017 168.754 22.3992 168.918 21.7882 169.044C21.3561 169.15 20.918 169.228 20.4762 169.28L19.6431 169.366C19.5295 169.396 19.4129 169.413 19.2954 169.418Z" fill="#263238"/>
<path d="M179.131 112.572C179.104 111.275 179.153 109.979 179.275 108.688C179.284 107.391 179.376 106.096 179.551 104.811C179.717 106.103 179.739 107.41 179.617 108.708C179.605 110.01 179.442 111.307 179.131 112.572Z" fill="#CEAB5E"/>
<path d="M175.812 127.725C176.06 126.454 176.385 125.199 176.783 123.966C177.077 122.704 177.445 121.46 177.885 120.24C177.778 121.538 177.52 122.819 177.117 124.058C176.82 125.325 176.382 126.555 175.812 127.725Z" fill="#CEAB5E"/>
<path d="M169.291 141.816C169.806 140.628 170.396 139.473 171.056 138.359C171.613 137.19 172.24 136.055 172.932 134.961C172.051 137.408 170.825 139.716 169.291 141.816Z" fill="#CEAB5E"/>
<path d="M159.897 154.136C160.657 153.087 161.481 152.085 162.364 151.138C163.156 150.111 164.013 149.136 164.929 148.219C164.283 149.349 163.508 150.402 162.62 151.354C161.821 152.382 160.908 153.315 159.897 154.136Z" fill="#CEAB5E"/>
<path d="M148.083 164.186C149.044 163.318 150.061 162.514 151.126 161.778C152.125 160.949 153.172 160.18 154.262 159.476C153.389 160.442 152.407 161.305 151.336 162.047C150.333 162.877 149.242 163.594 148.083 164.186Z" fill="#CEAB5E"/>
<path d="M134.379 171.461C135.508 170.824 136.676 170.259 137.875 169.768C139.027 169.171 140.215 168.645 141.431 168.194C140.367 168.946 139.223 169.577 138.02 170.076C136.862 170.674 135.641 171.139 134.379 171.461Z" fill="#CEAB5E"/>
<path d="M119.435 175.6C120.675 175.226 121.937 174.928 123.214 174.708C124.466 174.37 125.739 174.114 127.025 173.94C124.588 174.854 122.031 175.413 119.435 175.6Z" fill="#CEAB5E"/>
<path d="M103.96 176.433C105.25 176.299 106.55 176.277 107.844 176.368C109.138 176.277 110.437 176.299 111.727 176.433C109.151 176.801 106.536 176.801 103.96 176.433Z" fill="#CEAB5E"/>
<path d="M88.6294 173.96C89.9145 174.137 91.1874 174.393 92.4408 174.727C93.7167 174.951 94.9784 175.248 96.2193 175.62C94.9187 175.581 93.6267 175.394 92.3686 175.062C91.0849 174.836 89.8306 174.466 88.6294 173.96Z" fill="#CEAB5E"/>
<path d="M74.2236 168.194C75.4374 168.646 76.6226 169.172 77.7726 169.768C78.9728 170.258 80.1407 170.823 81.2691 171.461C78.7783 170.703 76.4066 169.599 74.2236 168.181V168.194Z" fill="#CEAB5E"/>
<path d="M61.3988 159.482C62.4859 160.186 63.5307 160.952 64.5279 161.778C65.5933 162.514 66.61 163.318 67.5718 164.186C66.4024 163.599 65.3022 162.884 64.2918 162.054C63.2333 161.309 62.2628 160.446 61.3988 159.482Z" fill="#CEAB5E"/>
<path d="M50.7257 148.219C51.6376 149.14 52.4941 150.115 53.2907 151.138C54.1719 152.087 54.9956 153.088 55.7572 154.136C54.7458 153.319 53.8323 152.388 53.0348 151.361C52.1475 150.405 51.3728 149.351 50.7257 148.219Z" fill="#CEAB5E"/>
<path d="M42.7159 134.935C43.4141 136.029 44.0429 137.166 44.5987 138.339C45.2562 139.462 45.8455 140.623 46.3633 141.816C45.5531 140.804 44.8599 139.704 44.2969 138.536C43.637 137.398 43.1067 136.19 42.7159 134.935Z" fill="#CEAB5E"/>
<path d="M37.7697 120.24C38.2091 121.459 38.5749 122.703 38.8652 123.966C39.267 125.198 39.5934 126.453 39.8426 127.725C39.2667 126.557 38.8265 125.326 38.5306 124.058C38.1294 122.819 37.874 121.538 37.7697 120.24Z" fill="#CEAB5E"/>
<path d="M36.1035 104.818C36.2745 106.103 36.3665 107.398 36.379 108.695C36.5057 109.985 36.5517 111.282 36.5168 112.578C36.2151 111.312 36.0545 110.016 36.0379 108.714C35.9114 107.417 35.9334 106.11 36.1035 104.818Z" fill="#CEAB5E"/>
<path d="M37.7631 89.395C37.6576 90.6868 37.4714 91.9707 37.2055 93.2392C37.057 94.5273 36.827 95.8047 36.5167 97.0637C36.4873 95.7621 36.6061 94.4614 36.8709 93.1867C37.0252 91.8934 37.3245 90.6215 37.7631 89.395Z" fill="#CEAB5E"/>
<path d="M42.7159 74.6941C42.3334 75.9332 41.8733 77.147 41.3383 78.3283C40.913 79.5515 40.4135 80.7477 39.8427 81.9101C40.0902 80.6306 40.4865 79.3845 41.0235 78.1971C41.4535 76.9693 42.0213 75.7941 42.7159 74.6941Z" fill="#CEAB5E"/>
<path d="M50.7257 61.41C50.078 62.5325 49.3662 63.6167 48.5937 64.6572C47.9152 65.7598 47.1704 66.8201 46.3633 67.8323C46.889 66.6392 47.5493 65.5102 48.3313 64.467C49.0122 63.3614 49.8154 62.3359 50.7257 61.41Z" fill="#CEAB5E"/>
<path d="M61.3922 50.1531C60.5221 51.1148 59.5955 52.0238 58.6173 52.8755C57.7193 53.811 56.7618 54.6875 55.7506 55.4995C56.5158 54.4492 57.3959 53.4876 58.3746 52.6328C59.2818 51.693 60.2944 50.8609 61.3922 50.1531Z" fill="#CEAB5E"/>
<path d="M74.2236 41.448C73.1716 42.2004 72.0764 42.8904 70.9436 43.5144C69.8636 44.2357 68.742 44.8928 67.5848 45.4824C68.5547 44.6136 69.6224 43.8607 70.7664 43.2389C71.8469 42.5123 73.0068 41.9115 74.2236 41.448Z" fill="#CEAB5E"/>
<path d="M88.6228 35.6948C87.4314 36.203 86.2114 36.6411 84.9689 37.0068C83.761 37.4707 82.5253 37.8585 81.269 38.1679C82.4049 37.5356 83.6087 37.0338 84.8574 36.6723C86.0707 36.2027 87.3342 35.8747 88.6228 35.6948Z" fill="#CEAB5E"/>
<path d="M103.96 33.1955C102.685 33.4351 101.397 33.5972 100.103 33.681C98.8232 33.8752 97.5328 33.9913 96.239 34.0286C98.7608 33.3894 101.36 33.1089 103.96 33.1955Z" fill="#CEAB5E"/>
<path d="M119.428 34.0286C118.132 33.9874 116.84 33.8691 115.558 33.6744C114.264 33.594 112.976 33.434 111.701 33.1955C113.001 33.0936 114.308 33.1421 115.597 33.3398C116.897 33.4195 118.183 33.6506 119.428 34.0286Z" fill="#CEAB5E"/>
<path d="M134.379 38.168C133.122 37.851 131.887 37.4567 130.679 36.9872C129.433 36.6256 128.21 36.1874 127.018 35.6752C128.306 35.8589 129.569 36.1867 130.784 36.6526C132.036 37.0178 133.243 37.5263 134.379 38.168Z" fill="#CEAB5E"/>
<path d="M148.076 45.443C146.917 44.8568 145.795 44.1995 144.717 43.475C143.583 42.8554 142.488 42.1675 141.437 41.4152C142.658 41.869 143.822 42.4611 144.908 43.1798C146.048 43.8086 147.111 44.5682 148.076 45.443Z" fill="#CEAB5E"/>
<path d="M159.891 55.4863C158.883 54.6707 157.925 53.7944 157.024 52.8623C156.046 52.0149 155.122 51.1079 154.256 50.1465C155.347 50.8526 156.355 51.6801 157.26 52.613C158.243 53.4685 159.125 54.4324 159.891 55.4863Z" fill="#CEAB5E"/>
<path d="M169.291 67.8258C168.478 66.8166 167.731 65.7561 167.054 64.6507C166.275 63.6035 165.563 62.508 164.922 61.3707C165.841 62.2942 166.651 63.3199 167.336 64.4277C168.114 65.483 168.77 66.623 169.291 67.8258Z" fill="#CEAB5E"/>
<path d="M175.812 81.9035C175.239 80.7387 174.738 79.5404 174.309 78.3152C173.781 77.1335 173.321 75.9222 172.932 74.6875C173.63 75.7865 174.2 76.9618 174.631 78.1905C175.162 79.3803 175.558 80.6257 175.812 81.9035Z" fill="#CEAB5E"/>
<path d="M179.131 97.0506C178.836 95.7901 178.617 94.513 178.475 93.2261C178.209 91.9577 178.023 90.6738 177.917 89.382C178.357 90.6087 178.658 91.8804 178.816 93.1736C179.07 94.4495 179.176 95.7505 179.131 97.0506Z" fill="#CEAB5E"/>
<path d="M24.3334 135.398C24.2482 135.359 26.8656 129.415 30.185 122.12C33.5043 114.826 36.2595 108.941 36.3448 109C36.4301 109.059 33.8126 114.983 30.4933 122.278C27.1739 129.573 24.4187 135.437 24.3334 135.398Z" fill="#CEAB5E"/>
<path d="M19.4988 152.139C20.3309 151.773 21.0371 151.171 21.5293 150.407C22.0216 149.643 22.2782 148.751 22.2671 147.842C22.3021 147.25 22.2162 146.657 22.0144 146.1C21.8127 145.542 21.4994 145.032 21.0937 144.599C20.6879 144.167 20.1983 143.822 19.6547 143.585C19.1111 143.348 18.525 143.225 17.932 143.222C17.3391 143.219 16.7518 143.337 16.2061 143.569C15.6604 143.801 15.1677 144.142 14.7581 144.571C14.3485 144.999 14.0306 145.507 13.8238 146.063C13.617 146.619 13.5257 147.211 13.5554 147.803C13.5388 148.719 13.7933 149.619 14.2871 150.391C14.7808 151.162 15.4917 151.77 16.3303 152.139C9.62595 153.149 9.92772 160.437 9.92772 160.437L25.7898 160.51C25.7898 160.51 26.1506 153.143 19.4988 152.139Z" fill="#381E3E"/>
<path d="M196.338 188.031C193.057 189.542 189.392 190.009 185.838 189.37C182.283 188.731 179.01 187.017 176.461 184.458C173.912 181.899 172.21 178.619 171.585 175.062C170.96 171.505 171.442 167.842 172.965 164.567C174.489 161.293 176.981 158.565 180.105 156.752C183.229 154.939 186.834 154.129 190.433 154.431C194.032 154.732 197.451 156.132 200.23 158.439C203.008 160.747 205.011 163.852 205.968 167.334C207.072 171.366 206.71 175.658 204.947 179.448C203.183 183.238 200.133 186.279 196.338 188.031Z" fill="#FAFAFA"/>
<path d="M196.338 188.031C196.412 187.971 196.494 187.92 196.581 187.88L197.322 187.487C197.721 187.271 198.109 187.034 198.483 186.778C199.004 186.443 199.504 186.074 199.979 185.676C201.284 184.596 202.432 183.34 203.39 181.943C205.379 178.985 206.447 175.504 206.46 171.939C206.451 171.246 206.403 170.554 206.316 169.866C206.263 169.519 206.23 169.165 206.165 168.81C206.099 168.456 206.001 168.108 205.916 167.754C205.836 167.395 205.731 167.042 205.601 166.698L205.24 165.635C204.945 164.94 204.617 164.245 204.256 163.556L203.646 162.552C203.541 162.388 203.442 162.218 203.331 162.054L202.964 161.581C202.721 161.26 202.472 160.925 202.222 160.623L201.376 159.744L200.95 159.298C200.799 159.154 200.635 159.029 200.477 158.892L199.52 158.091L198.47 157.383L197.932 157.029L197.368 156.727C195.831 155.882 194.174 155.278 192.454 154.936L191.142 154.706C190.696 154.654 190.237 154.641 189.791 154.601L189.135 154.562H188.479C188.02 154.595 187.561 154.562 187.102 154.647C185.245 154.873 183.432 155.373 181.722 156.13C178.457 157.634 175.729 160.101 173.907 163.201C172.085 166.3 171.255 169.883 171.528 173.468C171.672 175.063 172.027 176.631 172.584 178.132C172.706 178.499 172.855 178.857 173.03 179.201L173.509 180.231C173.903 180.887 174.264 181.543 174.683 182.127C176.267 184.34 178.339 186.158 180.738 187.441C182.718 188.5 184.878 189.179 187.108 189.442L188.532 189.54C188.991 189.54 189.437 189.54 189.844 189.54C190.618 189.511 191.39 189.428 192.153 189.291C193.22 189.091 194.266 188.79 195.275 188.392L196.062 188.103C196.15 188.064 196.243 188.035 196.338 188.018C196.338 188.018 196.253 188.064 196.076 188.136L195.302 188.458C194.303 188.87 193.266 189.18 192.205 189.382C191.444 189.545 190.672 189.652 189.896 189.704C189.463 189.704 189.017 189.77 188.584 189.743L187.134 189.651C184.632 189.386 182.214 188.595 180.038 187.332C177.862 186.068 175.977 184.359 174.506 182.317C174.073 181.714 173.706 181.051 173.306 180.395L172.814 179.346C172.634 178.997 172.481 178.635 172.355 178.263C171.783 176.738 171.417 175.143 171.266 173.52C170.976 169.878 171.806 166.235 173.644 163.078C175.482 159.92 178.241 157.4 181.552 155.854C183.299 155.088 185.149 154.58 187.042 154.346C187.502 154.273 187.974 154.293 188.44 154.26H189.135C189.371 154.26 189.601 154.26 189.83 154.3C190.29 154.332 190.755 154.346 191.208 154.405L192.559 154.641C194.31 155 195.996 155.624 197.558 156.491L198.135 156.799L198.673 157.16L199.743 157.888L200.72 158.708C200.878 158.846 201.048 158.977 201.199 159.121L201.632 159.574L202.491 160.473L203.246 161.45L203.613 161.929C203.731 162.093 203.83 162.27 203.934 162.441L204.558 163.464C204.918 164.166 205.246 164.874 205.542 165.576C205.666 165.944 205.784 166.304 205.909 166.659C206.038 167.01 206.143 167.369 206.224 167.734C206.309 168.102 206.388 168.456 206.467 168.817C206.545 169.178 206.572 169.532 206.618 169.886C206.705 170.583 206.751 171.284 206.755 171.985C206.745 173.31 206.591 174.63 206.296 175.921C205.393 179.816 203.193 183.288 200.058 185.768C199.575 186.163 199.067 186.524 198.536 186.85C198.156 187.093 197.762 187.313 197.355 187.506L196.6 187.874L196.338 188.031Z" fill="#263238"/>
<path d="M190.604 171.579C191.435 171.211 192.14 170.608 192.632 169.845C193.124 169.081 193.381 168.19 193.373 167.282C193.408 166.69 193.323 166.097 193.121 165.539C192.92 164.982 192.607 164.471 192.202 164.038C191.796 163.606 191.307 163.26 190.764 163.023C190.22 162.786 189.634 162.662 189.041 162.659C188.448 162.655 187.861 162.773 187.315 163.005C186.769 163.236 186.276 163.576 185.866 164.005C185.456 164.433 185.138 164.941 184.931 165.496C184.724 166.052 184.632 166.644 184.661 167.236C184.641 168.153 184.895 169.056 185.389 169.829C185.883 170.602 186.595 171.211 187.436 171.579C180.712 172.589 181.033 179.864 181.033 179.864L196.889 179.936C196.889 179.936 197.25 172.582 190.604 171.579Z" fill="#381E3E"/>
<path d="M175.018 161.24C174.959 161.312 172.099 159.148 168.629 156.399C165.158 153.65 162.397 151.361 162.456 151.289C162.515 151.216 165.375 153.381 168.839 156.13C172.302 158.879 175.077 161.168 175.018 161.24Z" fill="#CEAB5E"/>
<path d="M26.8932 47.9489C23.2955 48.2418 19.6945 47.4236 16.5767 45.6046C13.4589 43.7857 10.9743 41.0538 9.45872 37.7777C7.94309 34.5017 7.46935 30.8395 8.10151 27.2856C8.73367 23.7318 10.4413 20.4576 12.9937 17.9052C15.5461 15.3528 18.8203 13.6452 22.3741 13.013C25.928 12.3809 29.5902 12.8546 32.8662 14.3702C36.1423 15.8858 38.8742 18.3704 40.6931 21.4882C42.5121 24.6061 43.3303 28.207 43.0374 31.8047C42.6929 35.9712 40.8813 39.8804 37.9251 42.8366C34.9689 45.7928 31.0597 47.6044 26.8932 47.9489Z" fill="#FAFAFA"/>
<path d="M26.8932 47.949C26.9853 47.9224 27.0798 47.9048 27.1753 47.8965L28.0084 47.7718C28.451 47.7106 28.8893 47.6207 29.3204 47.5029C29.9239 47.3703 30.5179 47.1972 31.0981 46.9846C33.5742 46.1077 35.8263 44.6954 37.6938 42.8482C39.5614 41.0011 40.9984 38.7647 41.9025 36.2984C42.131 35.6541 42.3215 34.997 42.4732 34.3304C42.5453 33.9893 42.6372 33.6744 42.6897 33.2874L42.8274 32.2115C42.8723 31.8459 42.8942 31.4778 42.893 31.1094V29.9877C42.8537 29.2333 42.7881 28.4658 42.6897 27.6982L42.4535 26.5437C42.4141 26.3534 42.3813 26.1566 42.3289 25.9664L42.1452 25.3957C42.0271 25.0152 41.9025 24.6347 41.7778 24.2477L41.3252 23.08L41.0759 22.5158C40.9841 22.3322 40.8725 22.155 40.7741 21.9779L40.1181 20.889C39.8688 20.5544 39.6261 20.233 39.3769 19.8656L38.9964 19.3474L38.5634 18.875C37.4145 17.5497 36.0694 16.4082 34.5749 15.4901L33.4073 14.8341C33.0071 14.6307 32.5873 14.4602 32.174 14.2765C31.9641 14.1846 31.7607 14.0862 31.518 14.0075L30.862 13.7976C30.4225 13.673 29.9961 13.4958 29.55 13.404C27.7273 12.9849 25.8532 12.8346 23.9871 12.9579C20.3075 13.2849 16.8239 14.7605 14.029 17.176C11.4243 19.4459 9.53696 22.4252 8.59734 25.7499C8.18605 27.2992 7.98309 28.8964 7.99382 30.4994C7.98182 30.885 7.99935 31.271 8.04629 31.6539L8.1447 32.7888C8.28902 33.5301 8.4071 34.2648 8.59734 34.9667C9.32482 37.5895 10.647 40.0094 12.4612 42.0384C13.9597 43.7085 15.7574 45.0836 17.7617 46.0925L19.0737 46.6829C19.4935 46.8666 19.9265 46.9715 20.3266 47.1093C21.0624 47.3485 21.8144 47.5348 22.5767 47.6669C23.6338 47.8494 24.7053 47.935 25.778 47.9227H26.6177C26.7114 47.9126 26.806 47.9126 26.8997 47.9227C26.8059 47.9315 26.7115 47.9315 26.6177 47.9227L25.778 47.9621C23.9178 48.0362 22.0587 47.7921 20.2807 47.2405C19.874 47.1027 19.4345 46.9978 19.0081 46.8206L17.6961 46.2368C15.4347 45.1313 13.4324 43.5606 11.8203 41.6274C10.2082 39.6943 9.02274 37.4424 8.3415 35.0192C8.1447 34.3042 8.02006 33.5563 7.87574 32.8019L7.77077 31.6474C7.72151 31.258 7.70177 30.8655 7.71174 30.4731C7.69791 28.8441 7.90086 27.2205 8.31526 25.645C9.29179 22.1201 11.3238 18.9786 14.1383 16.6426C16.9528 14.3066 20.4148 12.888 24.0593 12.5774C25.9608 12.452 27.8705 12.6067 29.7271 13.0366C30.1929 13.1285 30.6258 13.3056 31.0391 13.4368L31.6951 13.6467C31.9116 13.732 32.1215 13.8304 32.3511 13.9222C32.7709 14.1125 33.2039 14.2896 33.6106 14.493L34.7783 15.208C36.3001 16.1441 37.6695 17.3078 38.8389 18.6586L39.2785 19.144L39.6589 19.6688L40.4133 20.7184C40.6298 21.0858 40.8397 21.4597 41.0693 21.8205C41.1743 22.0107 41.2858 22.1878 41.3777 22.3715L41.6335 22.9488L42.1321 24.0902C42.2567 24.4838 42.3813 24.8774 42.4994 25.2645L42.6831 25.8418C42.7356 26.0386 42.7684 26.2354 42.8077 26.4322L43.0439 27.6064C43.1423 28.387 43.2079 29.1677 43.2473 29.9352C43.2473 30.3157 43.2473 30.6962 43.2473 31.0766C43.2518 31.4495 43.2299 31.8221 43.1817 32.1918C43.1357 32.5592 43.0833 32.9266 43.0373 33.2874C42.9914 33.6482 42.8865 33.9958 42.8143 34.3501C42.6531 35.0335 42.4561 35.7079 42.2239 36.3706C41.7617 37.6083 41.1656 38.7917 40.4461 39.8998C39.2059 41.821 37.6066 43.4849 35.7361 44.8002C34.3242 45.788 32.7777 46.5679 31.1441 47.1158C30.5547 47.3193 29.9519 47.4815 29.3401 47.6013C28.8987 47.715 28.449 47.794 27.9953 47.8374L27.1621 47.9293C27.0732 47.9434 26.9832 47.95 26.8932 47.949Z" fill="#263238"/>
<path d="M27.1031 30.6175C27.9332 30.2491 28.6375 29.6462 29.1294 28.8828C29.6212 28.1193 29.8792 27.2288 29.8715 26.3207C29.9142 25.7238 29.8339 25.1246 29.6355 24.5601C29.4371 23.9955 29.1248 23.4778 28.7181 23.0389C28.3114 22.6 27.8188 22.2494 27.271 22.0087C26.7232 21.768 26.1317 21.6424 25.5334 21.6397C24.935 21.637 24.3425 21.7572 23.7925 21.993C23.2425 22.2287 22.7468 22.5749 22.3361 23.0101C21.9255 23.4453 21.6086 23.9602 21.4051 24.5229C21.2016 25.0856 21.1159 25.6841 21.1532 26.2813C21.1366 27.1972 21.3912 28.0975 21.8849 28.869C22.3787 29.6406 23.0895 30.2489 23.9281 30.6175C17.2238 31.6277 17.5321 38.9159 17.5321 38.9159L33.3876 38.988C33.3876 38.988 33.7681 31.608 27.1031 30.6175Z" fill="#381E3E"/>
<path d="M54.1959 57.1919C54.1303 57.2641 50.2599 54.194 45.6023 50.3367C40.9447 46.4795 37.1661 43.2913 37.2252 43.2191C37.2842 43.147 41.1284 46.2171 45.8188 50.0743C50.5092 53.9316 54.2549 57.1263 54.1959 57.1919Z" fill="#CEAB5E"/>
<path d="M141.398 26.36C138.802 26.5729 136.204 25.9839 133.953 24.6725C131.703 23.3611 129.91 21.3905 128.816 19.0271C127.721 16.6636 127.379 14.0213 127.835 11.457C128.29 8.89268 129.522 6.5301 131.364 4.68846C133.206 2.84682 135.568 1.61489 138.132 1.15915C140.697 0.70341 143.339 1.04582 145.702 2.14011C148.066 3.2344 150.036 5.02782 151.348 7.27804C152.659 9.52826 153.248 12.1268 153.035 14.7226C152.786 17.7257 151.48 20.5433 149.35 22.6741C147.219 24.805 144.401 26.111 141.398 26.36Z" fill="#FAFAFA"/>
<path d="M141.398 26.36C141.464 26.3383 141.532 26.325 141.601 26.3206L142.198 26.2222C142.521 26.1774 142.841 26.1116 143.156 26.0254C143.589 25.9452 144.016 25.8378 144.435 25.704C146.214 25.0655 147.831 24.0451 149.173 22.7145C150.515 21.384 151.549 19.7756 152.202 18.0025C152.536 17.0431 152.756 16.048 152.858 15.0374C153.088 12.8027 152.709 10.5475 151.763 8.51023C151.513 7.96867 151.23 7.44289 150.917 6.93583L150.379 6.20111L150.11 5.82719L149.801 5.48607C148.973 4.53559 148.004 3.7171 146.928 3.05887C145.815 2.3771 144.605 1.86836 143.34 1.55007C142.029 1.24535 140.681 1.13702 139.338 1.22863C137.005 1.41808 134.772 2.25546 132.889 3.64636C131.007 5.03725 129.551 6.92635 128.685 9.10066C127.818 11.275 127.577 13.648 127.987 15.9523C128.397 18.2565 129.443 20.4003 131.007 22.1419C132.078 23.3359 133.362 24.3212 134.792 25.048L135.73 25.4744C136.038 25.6056 136.347 25.6777 136.635 25.7827C137.165 25.9564 137.706 26.0901 138.256 26.1829C139.016 26.3184 139.786 26.3843 140.558 26.3797H141.162H141.372H141.168H140.558C139.216 26.4351 137.875 26.2643 136.589 25.8745C136.294 25.7761 135.979 25.704 135.665 25.5728L134.707 25.1529C133.221 24.4328 131.886 23.4378 130.771 22.2206C129.427 20.7407 128.446 18.9688 127.904 17.0448C127.406 15.2208 127.315 13.3094 127.637 11.4463C127.96 9.58316 128.689 7.81386 129.772 6.26384C130.855 4.71382 132.266 3.42104 133.904 2.47718C135.543 1.53332 137.369 0.961487 139.253 0.802228C140.631 0.711748 142.014 0.824474 143.359 1.13679C144.685 1.47268 145.949 2.01505 147.105 2.74399C148.206 3.42333 149.197 4.26608 150.044 5.24335L150.359 5.59759L150.641 5.97807L151.185 6.73903C151.506 7.25924 151.795 7.79811 152.051 8.35279C153.449 11.4127 153.59 14.8986 152.445 18.0616C151.785 19.8674 150.726 21.5012 149.347 22.8413C147.968 24.1815 146.305 25.1936 144.481 25.8024C144.052 25.948 143.614 26.0663 143.169 26.1566C142.849 26.2309 142.525 26.2857 142.198 26.3206L141.595 26.3797C141.529 26.3831 141.462 26.3765 141.398 26.36Z" fill="#263238"/>
<path d="M141.542 13.896C142.137 13.6284 142.64 13.1926 142.99 12.6424C143.339 12.0921 143.52 11.4516 143.51 10.7997C143.54 10.3702 143.482 9.93907 143.338 9.53305C143.195 9.12702 142.97 8.75469 142.677 8.43907C142.384 8.12344 142.03 7.87123 141.636 7.69803C141.242 7.52482 140.816 7.4343 140.386 7.43205C139.955 7.4298 139.529 7.51588 139.133 7.68496C138.737 7.85405 138.38 8.10254 138.083 8.41509C137.787 8.72764 137.558 9.0976 137.411 9.50211C137.263 9.90662 137.2 10.3371 137.226 10.7669C137.215 11.4317 137.402 12.0846 137.765 12.6421C138.127 13.1995 138.647 13.6362 139.259 13.896C134.425 14.6242 134.667 19.8787 134.667 19.8787L146.102 19.9378C146.102 19.9378 146.338 14.6438 141.542 13.896Z" fill="#381E3E"/>
<path d="M137.022 25.9729C136.387 27.8773 135.642 29.7434 134.792 31.562C134.044 33.4264 133.19 35.2465 132.234 37.0134C132.877 35.1102 133.626 33.2443 134.477 31.4243C135.226 29.5622 136.076 27.7424 137.022 25.9729Z" fill="#CEAB5E"/>
<path d="M202.964 99.6024C199.631 99.8746 196.294 99.1174 193.406 97.4328C190.517 95.7483 188.214 93.2176 186.81 90.1828C185.405 87.1479 184.966 83.7551 185.552 80.4626C186.137 77.1701 187.719 74.1367 190.084 71.772C192.448 69.4074 195.482 67.8255 198.774 67.2401C202.067 66.6546 205.459 67.0938 208.494 68.4984C211.529 69.903 214.06 72.2052 215.744 75.094C217.429 77.9828 218.186 81.3191 217.914 84.6521C217.595 88.5105 215.917 92.1305 213.18 94.868C210.442 97.6056 206.822 99.2832 202.964 99.6024Z" fill="#FAFAFA"/>
<path d="M202.963 99.6024C203.047 99.5783 203.133 99.5608 203.219 99.5499L203.987 99.4384C204.405 99.3826 204.819 99.2994 205.227 99.1891C205.785 99.0636 206.335 98.9037 206.873 98.7102C208.352 98.1833 209.749 97.4525 211.026 96.5388C212.902 95.2063 214.471 93.4868 215.627 91.4962C216.782 89.5056 217.497 87.2903 217.723 84.9998C218.022 82.1233 217.537 79.2197 216.32 76.5964L216.083 76.0716C215.998 75.9011 215.9 75.7371 215.801 75.5731L215.224 74.5694L214.535 73.592L214.188 73.1131L213.787 72.6736C212.724 71.4452 211.476 70.3895 210.088 69.5444C208.668 68.6542 207.119 67.9903 205.496 67.5764C203.809 67.1855 202.074 67.0441 200.346 67.1566C197.041 67.4454 193.902 68.7356 191.349 70.8548C188.796 72.974 186.951 75.8214 186.058 79.0171C185.676 80.4484 185.486 81.9243 185.494 83.4057C185.482 83.763 185.5 84.1206 185.547 84.475C185.547 84.8292 185.606 85.1769 185.632 85.5246C185.77 86.1806 185.875 86.8956 186.052 87.5451C186.723 89.9777 187.946 92.2226 189.627 94.1051C191.014 95.6511 192.678 96.9238 194.534 97.8574L195.741 98.4019C196.135 98.5724 196.535 98.6708 196.902 98.802C197.584 99.0215 198.282 99.1925 198.988 99.3137C199.967 99.4867 200.959 99.5679 201.953 99.5564H202.727L201.953 99.5892C200.955 99.6326 199.955 99.5733 198.968 99.4121C198.254 99.3008 197.548 99.1385 196.856 98.9267C196.482 98.7955 196.075 98.7036 195.682 98.5331L194.449 98.0017C192.561 97.0691 190.865 95.7895 189.45 94.2297C187.73 92.3323 186.472 90.0623 185.776 87.5976C185.599 86.9416 185.481 86.2462 185.343 85.5443C185.311 85.1966 185.278 84.8358 185.245 84.475C185.204 84.1135 185.187 83.7498 185.192 83.386C185.183 81.8768 185.37 80.3728 185.75 78.9121C186.654 75.6484 188.535 72.739 191.138 70.5735C193.742 68.408 196.946 67.09 200.32 66.7958C202.081 66.6809 203.849 66.8245 205.568 67.2222C207.231 67.6339 208.822 68.2976 210.284 69.1902C211.696 70.0581 212.966 71.1378 214.05 72.3915L214.457 72.8441L214.811 73.3296L215.513 74.3004C215.71 74.6416 215.906 74.9892 216.103 75.3238C216.195 75.4944 216.3 75.6649 216.385 75.8355L216.621 76.3734C217.858 79.049 218.343 82.0105 218.025 84.9408C217.686 88.057 216.461 91.0108 214.495 93.4523C212.529 95.8938 209.904 97.7208 206.932 98.7168C206.389 98.9077 205.832 99.0589 205.266 99.1694C204.856 99.2704 204.44 99.3428 204.02 99.3859L203.246 99.4712L202.963 99.6024Z" fill="#263238"/>
<path d="M203.147 83.596C203.918 83.2573 204.573 82.6992 205.029 81.9911C205.485 81.283 205.723 80.4563 205.712 79.6141C205.746 79.0651 205.668 78.5151 205.481 77.9975C205.295 77.48 205.005 77.0059 204.63 76.6043C204.254 76.2027 203.8 75.882 203.296 75.6619C202.792 75.4418 202.249 75.3268 201.699 75.3241C201.149 75.3215 200.604 75.4311 200.098 75.6463C199.592 75.8615 199.135 76.1777 198.755 76.5756C198.375 76.9736 198.081 77.4448 197.89 77.9605C197.699 78.4762 197.615 79.0255 197.643 79.5747C197.626 80.4241 197.862 81.2595 198.319 81.9753C198.777 82.691 199.437 83.255 200.215 83.596C194.003 84.5341 194.311 91.2843 194.311 91.2843L208.999 91.3499C208.999 91.3499 209.307 84.5275 203.147 83.596Z" fill="#381E3E"/>
<path d="M185.789 87.3286C184.513 87.835 183.197 88.2322 181.853 88.516C180.548 88.9116 179.211 89.1991 177.858 89.3753C179.134 88.8689 180.451 88.4717 181.794 88.188C183.1 87.7923 184.436 87.5049 185.789 87.3286Z" fill="#CEAB5E"/>
</svg>
