<svg width="419" height="364" viewBox="0 0 419 364" fill="none" xmlns="http://www.w3.org/2000/svg">
<path d="M408.342 66.4267C395.693 35.3503 369.609 11.7646 337.601 3.43866C327.264 0.721496 316.583 -0.395928 305.919 0.123958C269.519 1.98576 234.683 23.7706 216.606 55.9954C205.974 74.944 200.248 97.8163 183.565 111.519C161.848 129.354 130.43 124.917 103.021 119.584C75.612 114.251 44.1688 109.892 22.5286 127.823C8.98215 139.054 2.40121 157.081 0.580771 174.803C-4.23955 221.635 21.4432 268.38 59.1425 295.672C117.431 337.849 205.291 339.233 271.143 315.682C364.25 282.343 439.127 183.807 412.915 80.2075C411.71 75.5104 410.182 70.9055 408.342 66.4267Z" fill="#EBEBEB"/>
<path d="M336.934 187.708C343.976 187.708 349.684 181.999 349.684 174.957C349.684 167.915 343.976 162.207 336.934 162.207C329.892 162.207 324.183 167.915 324.183 174.957C324.183 181.999 329.892 187.708 336.934 187.708Z" fill="#D7D2D8"/>
<path d="M203.345 79.2568C205.415 81.3945 207.895 83.0927 210.636 84.2495C223 89.9217 235.774 88.3654 246.005 82.8117C260.343 75.0302 265.202 67.3515 266.584 54.8774C268.093 47.4593 259.577 32.9549 252.364 31.4855C246.21 30.2373 239.969 30.4901 236.201 35.001C231.192 40.9892 229.636 51.2592 222.494 53.9057C218.442 55.3988 213.504 53.9926 209.143 54.6246C206.809 54.9441 204.622 55.9496 202.86 57.5135C201.097 59.0775 199.839 61.1295 199.245 63.4094C197.87 68.3469 199.45 74.975 203.345 79.2568Z" fill="#D7D2D8"/>
<path d="M263.44 244.596C260.067 236.648 253.415 231 242.987 229.42L243.216 229.491C236.383 227.944 229.303 227.831 222.423 229.159C214.342 230.739 206.544 234.444 200.856 240.401C195.168 246.358 191.755 254.7 192.553 262.884C193.58 273.51 202.104 282.974 212.556 285.107C220.59 286.742 230.537 282.903 232.164 274.837C232.551 272.902 232.44 270.887 232.954 268.975C234.455 262.995 241.533 259.835 247.648 260.625C250.603 260.996 253.533 262.079 256.472 261.612C259.972 261.059 262.879 258.255 264.056 254.921C265.124 251.52 264.904 247.846 263.44 244.596Z" fill="#D7D2D8"/>
<path d="M104.8 89.906C114.233 89.906 121.88 82.2591 121.88 72.8262C121.88 63.3932 114.233 55.7464 104.8 55.7464C95.3672 55.7464 87.7203 63.3932 87.7203 72.8262C87.7203 82.2591 95.3672 89.906 104.8 89.906Z" fill="#D7D2D8"/>
<path d="M313.344 80.3391C317.494 80.3391 320.857 76.9754 320.857 72.8262C320.857 68.6769 317.494 65.3133 313.344 65.3133C309.195 65.3133 305.831 68.6769 305.831 72.8262C305.831 76.9754 309.195 80.3391 313.344 80.3391Z" fill="#D7D2D8"/>
<path d="M199.64 143.713C199.329 142.729 198.758 141.847 197.988 141.16C197.217 140.473 196.276 140.007 195.263 139.81C194.321 139.669 193.362 139.691 192.427 139.873C188.477 140.529 184.582 142.939 183.16 146.699C181.959 149.65 181.588 152.874 182.086 156.021C182.15 157.225 182.403 158.411 182.836 159.537C183.71 161.399 185.228 162.884 187.11 163.716C187.961 163.991 188.874 164.006 189.733 163.758C190.591 163.51 191.356 163.011 191.929 162.325C192.487 161.629 192.903 160.83 193.153 159.973C193.402 159.117 193.48 158.219 193.383 157.332C193.288 156.084 192.94 154.804 193.383 153.627C194.078 151.573 196.59 150.878 198.17 149.385C198.903 148.659 199.427 147.749 199.685 146.751C199.944 145.753 199.928 144.703 199.64 143.713Z" fill="#D7D2D8"/>
<path d="M374.996 362.93C374.996 363.041 297.102 363.135 201.038 363.135C104.974 363.135 27.0641 363.009 27.0641 362.93C27.0641 362.851 104.942 362.725 201.038 362.725C297.133 362.725 374.996 362.788 374.996 362.93Z" fill="#263238"/>
<path d="M314.64 291.506C314.514 284.738 311.902 278.254 307.301 273.289C305.089 282.429 314.64 291.506 314.64 291.506Z" fill="#381E3E"/>
<path d="M303.991 286.347C297.734 283.77 290.749 283.576 284.359 285.802C291.88 291.482 303.991 286.347 303.991 286.347Z" fill="#381E3E"/>
<path d="M302.782 280.422C303.793 275.182 302.843 269.753 300.112 265.167C296.897 271.867 302.782 280.422 302.782 280.422Z" fill="#CEAB5E"/>
<path d="M343.949 259.061C328.386 263.2 320.036 276.733 320.036 276.733C333.339 276.741 343.949 259.061 343.949 259.061Z" fill="#381E3E"/>
<path d="M319.096 265.436C319.886 248.664 303.509 229.673 303.509 229.673C305.982 250.505 319.096 265.436 319.096 265.436Z" fill="#381E3E"/>
<path d="M319.175 217.665C318.85 226.066 320.889 234.389 325.06 241.689C327.383 230.897 319.175 217.665 319.175 217.665Z" fill="#381E3E"/>
<path d="M325.494 251.745C337.755 250.426 344.454 238.229 344.454 238.229C329.595 242.384 325.494 251.745 325.494 251.745Z" fill="#CEAB5E"/>
<path d="M351.92 303.024C346.169 299.461 339.307 298.139 332.644 299.311C339.138 306.129 351.92 303.024 351.92 303.024Z" fill="#381E3E"/>
<path d="M320.162 308.531C321.726 312.503 324.649 315.792 328.41 317.813C327.88 312.157 320.162 308.531 320.162 308.531Z" fill="#CEAB5E"/>
<path d="M321.742 306.729C328.718 311.019 336.412 309.344 336.412 309.344C331.688 304.423 321.742 306.729 321.742 306.729Z" fill="#381E3E"/>
<path d="M315.469 329.308C315.469 329.308 315.469 329.221 315.469 329.055C315.469 328.889 315.469 328.62 315.469 328.328C315.469 327.633 315.469 326.701 315.469 325.516C315.469 324.331 315.469 322.798 315.469 321.068C315.469 319.338 315.469 317.363 315.596 315.182C315.699 310.822 316.015 305.631 316.457 299.888C316.899 294.145 317.65 287.84 318.614 281.252C320.549 268.083 323.204 256.304 325.329 247.851C326.403 243.616 327.304 240.203 327.967 237.857C328.275 236.712 328.52 235.803 328.694 235.14C328.765 234.855 328.828 234.626 328.876 234.429C328.939 234.349 328.984 234.258 329.01 234.16C328.97 234.233 328.939 234.31 328.915 234.389C328.852 234.579 328.781 234.808 328.686 235.084L327.857 237.77C327.13 240.14 326.166 243.506 325.044 247.724C322.14 258.731 319.843 269.89 318.163 281.149C317.2 287.746 316.52 294.066 316.046 299.825C315.572 305.584 315.359 310.782 315.304 315.151C315.232 317.331 315.256 319.306 315.256 321.044C315.256 322.782 315.256 324.275 315.327 325.492C315.398 326.708 315.398 327.617 315.422 328.304L315.462 329.031C315.454 329.123 315.457 329.216 315.469 329.308Z" fill="#263238"/>
<path d="M337.984 293.797C337.897 293.671 332.936 296.957 326.924 301.057C320.912 305.157 316.078 308.641 316.165 308.768C316.251 308.894 321.205 305.608 327.225 301.508C333.244 297.407 338.063 293.924 337.984 293.797Z" fill="#263238"/>
<path d="M316.149 295.59C315.923 295.278 315.657 294.997 315.359 294.753L313.21 292.62L305.839 285.708L298.469 278.795L296.233 276.702C295.975 276.427 295.686 276.183 295.372 275.975C295.567 276.298 295.807 276.593 296.083 276.852C296.565 277.389 297.292 278.147 298.2 279.072C300.017 280.92 302.577 283.409 305.468 286.11C308.359 288.812 310.998 291.198 312.949 292.904C313.921 293.758 314.719 294.445 315.28 294.903C315.54 295.167 315.832 295.398 316.149 295.59Z" fill="#263238"/>
<path d="M353.729 285.85C353.729 285.85 341.05 285.613 335.693 295.583C339.25 295.477 342.733 294.542 345.864 292.853C348.996 291.163 351.689 288.765 353.729 285.85Z" fill="#381E3E"/>
<path d="M336.42 280.77C336.42 280.77 326.095 288.133 327.73 299.335C330.526 297.133 332.769 294.307 334.278 291.083C335.786 287.86 336.52 284.328 336.42 280.77Z" fill="#381E3E"/>
<path d="M282.06 262.6C282.06 262.6 286.137 276.82 299.069 279.34C297.736 275.417 295.503 271.859 292.55 268.953C289.597 266.046 286.004 263.871 282.06 262.6Z" fill="#381E3E"/>
<path d="M342.045 209.883C342.045 209.883 325.85 220.43 327.667 237.589C332.058 234.411 335.644 230.251 338.141 225.441C340.637 220.63 341.974 215.303 342.045 209.883Z" fill="#381E3E"/>
<path d="M288.23 303.68C288.548 303.997 288.901 304.278 289.281 304.517C289.976 305.023 290.972 305.781 292.18 306.737C295.321 309.231 298.249 311.982 300.933 314.961C303.607 317.954 306.03 321.161 308.178 324.552C308.968 325.855 309.647 326.922 310.074 327.672C310.272 328.078 310.516 328.46 310.801 328.81C310.665 328.379 310.485 327.963 310.263 327.57C309.892 326.78 309.299 325.681 308.509 324.346C304.371 317.378 298.903 311.29 292.417 306.429C291.177 305.505 290.142 304.794 289.399 304.344C289.035 304.081 288.643 303.858 288.23 303.68Z" fill="#263238"/>
<path d="M302.3 314.234C303.471 307.571 302.149 300.71 298.587 294.958C296.849 306.982 302.3 314.234 302.3 314.234Z" fill="#381E3E"/>
<path d="M291.422 308.302C287.143 305.868 282.119 305.09 277.304 306.113C285.11 310.261 291.422 308.302 291.422 308.302Z" fill="#CEAB5E"/>
<path d="M301.234 361.476L327.888 361.445L335.448 326.021H295.704L301.234 361.476Z" fill="#263238"/>
<path d="M293.065 332.144H337.969V326.029H293.065V332.144Z" fill="#263238"/>
<path d="M293.357 332.12C293.357 332.231 303.398 332.325 315.778 332.325C328.157 332.325 338.206 332.231 338.206 332.12C338.206 332.009 328.165 331.915 315.778 331.915C303.39 331.915 293.357 332.041 293.357 332.12Z" fill="#455A64"/>
<path d="M274.184 164.008C278.79 163.392 282.511 159.687 284.454 155.468C286.397 151.25 286.958 146.541 287.551 141.928C288.143 137.314 288.862 132.59 291.129 128.498C293.397 124.405 297.576 121.119 302.229 121.182C306.882 121.245 311.385 125.669 310.437 130.22C309.173 136.39 300.57 137.78 297.41 143.231C295.522 146.502 295.964 150.657 294.416 154.101C292.867 157.546 289.447 159.861 285.837 160.974C282.226 162.088 277.936 163.937 274.176 164.008" fill="#381E3E"/>
<path d="M189.133 202.56C196.164 205.886 205.652 201.975 208.29 194.66C210.518 188.49 208.29 181.151 211.411 175.368C216.514 165.888 231.311 167.468 239.061 160.011C243.919 155.334 245.041 148.042 245.286 141.303C245.531 134.565 245.27 127.51 248.161 121.395C251.053 115.281 258.605 110.77 264.633 113.78C267.793 115.36 269.8 118.607 271.174 121.869C273.57 127.55 274.592 133.717 274.155 139.867C273.718 146.017 271.836 151.977 268.661 157.262C265.486 162.547 261.108 167.008 255.883 170.282C250.659 173.556 244.735 175.551 238.594 176.103C234.076 176.506 229.02 176.293 225.631 179.318C222.06 182.478 221.878 187.906 220.219 192.393C219.196 195.104 217.588 197.558 215.51 199.578C213.432 201.599 210.935 203.138 208.195 204.085C202.721 205.933 193.975 205.617 189.133 202.505" fill="#381E3E"/>
<path d="M281.341 105.232C285.294 105.232 288.499 102.028 288.499 98.0746C288.499 94.1217 285.294 90.9172 281.341 90.9172C277.388 90.9172 274.184 94.1217 274.184 98.0746C274.184 102.028 277.388 105.232 281.341 105.232Z" fill="#381E3E"/>
<g opacity="0.9">
<path d="M274.184 164.008C278.79 163.392 282.511 159.687 284.454 155.468C286.397 151.25 286.958 146.541 287.551 141.928C288.143 137.314 288.862 132.59 291.129 128.498C293.397 124.405 297.576 121.119 302.229 121.182C306.882 121.245 311.385 125.669 310.437 130.22C309.173 136.39 300.57 137.78 297.41 143.231C295.522 146.502 295.964 150.657 294.416 154.101C292.867 157.546 289.447 159.861 285.837 160.974C282.226 162.088 277.936 163.937 274.176 164.008" fill="white"/>
</g>
<g opacity="0.9">
<path d="M189.133 202.56C196.164 205.886 205.652 201.975 208.29 194.66C210.518 188.49 208.29 181.151 211.411 175.368C216.514 165.888 231.311 167.468 239.061 160.011C243.919 155.334 245.041 148.042 245.286 141.303C245.531 134.565 245.27 127.51 248.161 121.395C251.053 115.281 258.605 110.77 264.633 113.78C267.793 115.36 269.8 118.607 271.174 121.869C273.57 127.55 274.592 133.717 274.155 139.867C273.718 146.017 271.836 151.977 268.661 157.262C265.486 162.547 261.108 167.008 255.883 170.282C250.659 173.556 244.735 175.551 238.594 176.103C234.076 176.506 229.02 176.293 225.631 179.318C222.06 182.478 221.878 187.906 220.219 192.393C219.196 195.104 217.588 197.558 215.51 199.578C213.432 201.599 210.935 203.138 208.195 204.085C202.721 205.933 193.975 205.617 189.133 202.505" fill="white"/>
</g>
<g opacity="0.9">
<path d="M281.341 105.232C285.294 105.232 288.499 102.028 288.499 98.0746C288.499 94.1217 285.294 90.9172 281.341 90.9172C277.388 90.9172 274.184 94.1217 274.184 98.0746C274.184 102.028 277.388 105.232 281.341 105.232Z" fill="white"/>
</g>
<path d="M230.75 197.978C237.188 190.544 244.907 182.486 254.742 182.518C261.599 182.518 268.133 186.634 274.927 185.733C283.103 184.651 290.3 176.49 298.2 179.01C303.849 180.803 306.519 188.071 304.457 193.625C302.395 199.179 296.715 202.821 290.869 203.792C285.023 204.764 279.019 203.484 273.394 201.636C267.769 199.787 262.334 197.386 256.528 196.035C248.355 194.129 239.828 194.385 231.785 196.777" fill="#381E3E"/>
<g opacity="0.9">
<path d="M230.75 197.978C237.188 190.544 244.907 182.486 254.742 182.518C261.599 182.518 268.133 186.634 274.927 185.733C283.103 184.651 290.3 176.49 298.2 179.01C303.849 180.803 306.519 188.071 304.457 193.625C302.395 199.179 296.715 202.821 290.869 203.792C285.023 204.764 279.019 203.484 273.394 201.636C267.769 199.787 262.334 197.386 256.528 196.035C248.355 194.129 239.828 194.385 231.785 196.777" fill="white"/>
</g>
<path d="M223.379 182.873C223.631 183.644 223.649 184.472 223.43 185.253C223.211 186.033 222.766 186.732 222.15 187.259C221.535 187.787 220.777 188.12 219.972 188.217C219.167 188.314 218.351 188.17 217.628 187.804C216.905 187.437 216.307 186.864 215.909 186.158C215.511 185.451 215.332 184.643 215.394 183.834C215.455 183.026 215.755 182.254 216.256 181.616C216.756 180.978 217.434 180.503 218.205 180.25C218.717 180.083 219.257 180.017 219.794 180.058C220.331 180.099 220.855 180.246 221.335 180.489C221.816 180.733 222.244 181.069 222.595 181.478C222.945 181.887 223.212 182.361 223.379 182.873Z" fill="#CEAB5E"/>
<path d="M222.36 181.759C222.226 181.965 218.623 179.571 214.816 175.898C211.008 172.224 208.014 169.254 208.148 169.08C208.282 168.906 211.663 171.576 215.44 175.242C219.216 178.907 222.534 181.554 222.36 181.759Z" fill="#CEAB5E"/>
<path d="M213.946 162.412C214.183 162.412 214.026 164.719 212.295 166.844C210.565 168.969 208.345 169.625 208.306 169.396C208.266 169.167 210.052 168.211 211.592 166.236C213.133 164.261 213.67 162.357 213.946 162.412Z" fill="#CEAB5E"/>
<path d="M216.83 165.525C217.075 165.525 217.012 167.808 215.171 169.759C213.33 171.711 211.063 171.955 211.071 171.718C211.079 171.481 212.927 170.889 214.515 169.143C216.103 167.397 216.585 165.477 216.83 165.525Z" fill="#CEAB5E"/>
<path d="M288.396 120.953C288.524 121.343 288.533 121.763 288.423 122.159C288.312 122.555 288.087 122.909 287.775 123.176C287.463 123.444 287.079 123.613 286.671 123.662C286.263 123.712 285.85 123.639 285.484 123.454C285.117 123.268 284.814 122.978 284.612 122.62C284.41 122.262 284.319 121.853 284.35 121.443C284.381 121.033 284.533 120.642 284.786 120.319C285.039 119.995 285.383 119.754 285.773 119.626C286.033 119.541 286.306 119.507 286.578 119.528C286.851 119.549 287.116 119.623 287.36 119.746C287.603 119.869 287.82 120.039 287.998 120.246C288.176 120.453 288.311 120.694 288.396 120.953Z" fill="#381E3E"/>
<path d="M287.93 120.4C286.512 119.61 285.223 118.608 284.106 117.43C282.904 116.355 281.777 115.199 280.733 113.969C280.82 113.867 282.511 115.241 284.422 117.129C286.334 119.018 287.969 120.289 287.93 120.4Z" fill="#381E3E"/>
<path d="M283.617 110.588C283.587 111.408 283.292 112.196 282.777 112.834C282.261 113.473 281.552 113.926 280.757 114.127C280.702 114.001 281.642 113.527 282.424 112.547C283.206 111.568 283.482 110.557 283.617 110.588Z" fill="#381E3E"/>
<path d="M285.086 112.168C285.212 112.168 285.181 113.322 284.249 114.309C284.006 114.628 283.691 114.884 283.33 115.057C282.968 115.23 282.571 115.315 282.171 115.305C282.171 115.17 283.111 114.886 283.909 114.001C284.707 113.116 284.952 112.137 285.086 112.168Z" fill="#381E3E"/>
<path d="M224.209 126.025C223.535 126.492 222.737 126.749 221.917 126.763C221.097 126.778 220.291 126.548 219.602 126.105C218.912 125.661 218.369 125.023 218.042 124.271C217.715 123.519 217.618 122.687 217.764 121.879C217.91 121.072 218.291 120.327 218.861 119.736C219.43 119.146 220.162 118.738 220.963 118.564C221.765 118.389 222.6 118.457 223.363 118.757C224.126 119.057 224.783 119.576 225.251 120.25C225.877 121.155 226.119 122.27 225.924 123.353C225.728 124.435 225.111 125.396 224.209 126.025Z" fill="#381E3E"/>
<path d="M224.999 124.745C224.619 124.619 225.789 120.384 228.277 115.628C230.766 110.873 232.867 107.191 233.215 107.333C233.562 107.476 232.03 111.576 229.565 116.276C227.1 120.977 225.378 124.871 224.999 124.745Z" fill="#381E3E"/>
<path d="M243.745 115.66C243.745 115.992 240.277 115.952 236.77 113.646C235.245 112.7 234.014 111.349 233.215 109.743C232.622 108.471 232.772 107.547 232.946 107.539C233.12 107.531 233.38 108.266 234.099 109.237C235.053 110.509 236.228 111.598 237.567 112.453C240.704 114.538 243.848 115.226 243.745 115.66Z" fill="#381E3E"/>
<path d="M234.739 134.359C234.065 134.826 233.267 135.081 232.447 135.094C231.627 135.107 230.822 134.877 230.133 134.432C229.444 133.988 228.902 133.349 228.576 132.596C228.25 131.844 228.154 131.012 228.301 130.205C228.448 129.398 228.83 128.653 229.401 128.064C229.971 127.474 230.703 127.067 231.504 126.894C232.306 126.72 233.141 126.788 233.904 127.089C234.666 127.39 235.323 127.91 235.79 128.584C236.101 129.032 236.32 129.537 236.435 130.07C236.55 130.603 236.559 131.153 236.462 131.69C236.364 132.226 236.162 132.738 235.866 133.196C235.571 133.654 235.188 134.049 234.739 134.359Z" fill="#381E3E"/>
<path d="M235.537 133.08C235.15 132.953 236.327 128.719 238.816 123.963C241.304 119.207 243.406 115.526 243.753 115.668C244.101 115.81 242.56 119.91 240.103 124.611C237.647 129.311 235.909 133.206 235.537 133.08Z" fill="#381E3E"/>
<path d="M242.56 118.235C242.56 118.615 239.282 118.788 235.916 116.742C232.551 114.696 231.137 111.726 231.477 111.576C231.816 111.426 233.61 113.717 236.659 115.526C239.708 117.335 242.6 117.817 242.56 118.235Z" fill="#381E3E"/>
<path d="M252.317 176.948C252.054 177.517 251.628 177.995 251.093 178.321C250.558 178.646 249.938 178.806 249.312 178.779C248.686 178.752 248.082 178.539 247.577 178.168C247.072 177.797 246.689 177.284 246.476 176.695C246.264 176.106 246.231 175.466 246.382 174.858C246.534 174.25 246.862 173.701 247.327 173.28C247.791 172.86 248.37 172.586 248.989 172.495C249.609 172.404 250.242 172.5 250.808 172.769C251.559 173.127 252.138 173.766 252.421 174.549C252.703 175.331 252.666 176.193 252.317 176.948Z" fill="#381E3E"/>
<path d="M252.38 175.811C252.08 175.874 251.25 172.651 251.061 168.59C250.871 164.529 250.855 161.314 251.132 161.275C251.408 161.235 251.969 164.506 252.143 168.527C252.317 172.548 252.641 175.747 252.38 175.811Z" fill="#381E3E"/>
<path d="M261.173 162.728C261.299 162.949 259.008 164.237 255.84 164.063C254.482 164.022 253.161 163.607 252.024 162.863C251.155 162.246 250.895 161.591 251.005 161.52C251.116 161.448 251.566 161.836 252.412 162.191C253.519 162.661 254.702 162.929 255.903 162.981C258.747 163.147 261.07 162.396 261.173 162.728Z" fill="#381E3E"/>
<path d="M262.389 178.402C262.126 178.971 261.7 179.448 261.165 179.774C260.63 180.1 260.01 180.26 259.384 180.232C258.758 180.205 258.155 179.993 257.65 179.622C257.145 179.251 256.762 178.738 256.549 178.149C256.336 177.559 256.303 176.92 256.455 176.312C256.606 175.704 256.935 175.155 257.399 174.734C257.863 174.313 258.442 174.04 259.062 173.949C259.682 173.858 260.315 173.953 260.88 174.223C261.631 174.581 262.211 175.22 262.493 176.002C262.776 176.785 262.738 177.647 262.389 178.402Z" fill="#381E3E"/>
<path d="M262.421 177.28C262.129 177.351 261.291 174.12 261.102 170.059C260.912 165.999 260.896 162.791 261.173 162.752C261.449 162.712 262.018 165.983 262.192 170.004C262.366 174.025 262.713 177.201 262.421 177.28Z" fill="#381E3E"/>
<path d="M261.378 164.861C261.536 165.098 259.435 166.441 256.456 166.441C253.478 166.441 251.408 164.98 251.582 164.751C251.756 164.522 253.794 165.335 256.472 165.351C259.15 165.367 261.244 164.569 261.378 164.861Z" fill="#381E3E"/>
<path d="M291.461 170.336C291.226 170.483 290.953 170.556 290.676 170.547C290.4 170.538 290.132 170.448 289.907 170.286C289.682 170.125 289.509 169.901 289.412 169.641C289.315 169.382 289.296 169.1 289.36 168.83C289.423 168.561 289.565 168.316 289.767 168.127C289.97 167.938 290.224 167.814 290.497 167.769C290.77 167.725 291.051 167.763 291.303 167.878C291.554 167.993 291.766 168.18 291.912 168.416C292.105 168.731 292.167 169.109 292.082 169.469C291.998 169.829 291.775 170.14 291.461 170.336Z" fill="#CEAB5E"/>
<path d="M291.746 169.925C291.619 169.878 292.101 168.472 293.01 166.907C293.498 165.935 294.106 165.028 294.819 164.206C294.945 164.269 294.345 165.612 293.436 167.152C292.955 168.124 292.389 169.052 291.746 169.925Z" fill="#CEAB5E"/>
<path d="M298.2 167.192C297.355 167.244 296.523 166.96 295.885 166.402C295.393 166.054 295.005 165.579 294.764 165.027C294.582 164.585 294.653 164.277 294.708 164.285C294.764 164.292 294.843 164.537 295.064 164.877C295.365 165.319 295.742 165.704 296.178 166.015C297.213 166.765 298.255 167.05 298.2 167.192Z" fill="#CEAB5E"/>
<path d="M294.858 173.33C294.623 173.474 294.35 173.546 294.074 173.535C293.797 173.525 293.531 173.432 293.307 173.27C293.083 173.108 292.912 172.883 292.816 172.624C292.72 172.365 292.703 172.083 292.767 171.815C292.831 171.546 292.973 171.302 293.175 171.114C293.378 170.926 293.631 170.802 293.904 170.758C294.177 170.714 294.457 170.751 294.708 170.866C294.959 170.981 295.171 171.167 295.317 171.402C295.413 171.559 295.478 171.733 295.508 171.915C295.537 172.097 295.53 172.282 295.488 172.461C295.445 172.64 295.368 172.809 295.26 172.958C295.152 173.108 295.015 173.234 294.858 173.33Z" fill="#CEAB5E"/>
<path d="M295.151 172.911C295.024 172.864 295.498 171.458 296.415 169.901C296.904 168.929 297.509 168.02 298.216 167.192C298.35 167.255 297.742 168.606 296.833 170.138C296.356 171.111 295.793 172.039 295.151 172.911Z" fill="#CEAB5E"/>
<path d="M297.773 168.037C297.773 168.163 296.66 168.163 295.561 167.421C294.463 166.678 294.045 165.651 294.163 165.604C294.282 165.556 294.843 166.394 295.838 167.018C296.833 167.642 297.797 167.895 297.773 168.037Z" fill="#CEAB5E"/>
<path d="M199.087 220.351C198.733 220.57 198.323 220.679 197.908 220.665C197.492 220.651 197.09 220.514 196.753 220.271C196.415 220.029 196.157 219.692 196.011 219.302C195.865 218.913 195.838 218.489 195.933 218.084C196.028 217.68 196.241 217.312 196.545 217.029C196.849 216.745 197.23 216.558 197.641 216.491C198.051 216.424 198.472 216.48 198.85 216.653C199.229 216.825 199.547 217.106 199.766 217.459C200.059 217.933 200.152 218.504 200.025 219.046C199.897 219.588 199.56 220.057 199.087 220.351Z" fill="#381E3E"/>
<path d="M199.521 219.727C199.331 219.656 200.042 217.538 201.417 215.208C202.792 212.877 203.961 211.06 204.127 211.139C204.293 211.218 203.416 213.257 202.049 215.563C200.682 217.87 199.711 219.798 199.521 219.727Z" fill="#381E3E"/>
<path d="M209.238 215.627C209.238 215.8 207.476 215.682 205.762 214.426C205.017 213.91 204.431 213.196 204.071 212.364C203.803 211.7 203.898 211.242 203.985 211.242C204.071 211.242 204.19 211.621 204.53 212.135C204.976 212.801 205.541 213.379 206.197 213.841C207.721 214.979 209.293 215.405 209.238 215.627Z" fill="#381E3E"/>
<path d="M204.19 224.838C203.837 225.058 203.426 225.168 203.01 225.155C202.594 225.141 202.192 225.004 201.854 224.762C201.515 224.519 201.257 224.181 201.111 223.792C200.965 223.402 200.938 222.978 201.033 222.573C201.129 222.167 201.342 221.8 201.647 221.516C201.952 221.233 202.334 221.046 202.745 220.98C203.156 220.914 203.577 220.971 203.955 221.144C204.333 221.318 204.652 221.6 204.869 221.955C205.16 222.427 205.252 222.996 205.124 223.536C204.997 224.077 204.661 224.545 204.19 224.838Z" fill="#381E3E"/>
<path d="M204.632 224.214C204.443 224.143 205.154 222.034 206.528 219.695C207.903 217.357 209.064 215.548 209.238 215.627C209.412 215.706 208.527 217.744 207.16 220.059C205.794 222.373 204.814 224.285 204.632 224.214Z" fill="#381E3E"/>
<path d="M208.567 216.899C208.567 217.088 206.9 217.088 205.249 215.966C203.598 214.845 202.966 213.304 203.139 213.241C203.313 213.178 204.166 214.378 205.659 215.366C207.152 216.353 208.598 216.685 208.567 216.899Z" fill="#381E3E"/>
<path d="M140.895 108.131L138.525 121.222L139.576 134.241L148.542 132.084L153.425 126.38L157.525 121.64C157.525 121.64 164.635 126.183 170.228 119.997C172.93 117.011 177.986 110.406 182.497 104.379C184.836 101.253 185.913 97.3602 185.512 93.4763C185.111 89.5923 183.261 86.0019 180.332 83.4201L179.732 82.8829C172.89 77.5267 164.524 80.347 159.357 87.3306L140.887 108.163" fill="#FFBE9D"/>
<path d="M157.58 121.609C154.651 119.123 152.526 115.823 151.473 112.129C151.473 112.129 149.427 118.322 156.166 123.268L157.58 121.609Z" fill="#EB996E"/>
<path d="M174.446 103.478C174.66 103.431 175.007 104.497 176.026 105.24C177.046 105.982 178.207 106.03 178.231 106.212C178.254 106.393 177.962 106.449 177.441 106.449C176.764 106.45 176.105 106.234 175.56 105.832C175.011 105.447 174.603 104.892 174.399 104.252C174.296 103.81 174.352 103.494 174.446 103.478Z" fill="#263238"/>
<path d="M164.35 96.0522C164.564 96.0522 164.816 97.1266 165.796 97.9561C166.776 98.7856 167.897 98.912 167.905 99.1174C167.913 99.3228 167.613 99.3307 167.115 99.2912C166.444 99.2246 165.811 98.9482 165.306 98.5012C164.797 98.0704 164.438 97.4897 164.279 96.8422C164.169 96.3603 164.255 96.0601 164.35 96.0522Z" fill="#263238"/>
<path d="M166.065 108.266C166.7 108.551 167.3 108.912 167.85 109.34C168.119 109.53 168.395 109.688 168.585 109.553C168.829 109.32 168.995 109.016 169.059 108.684L169.983 106.172C171.326 102.625 172.519 99.7968 172.661 99.8521C172.803 99.9074 171.871 102.83 170.496 106.377C170.165 107.246 169.841 108.076 169.541 108.866C169.432 109.298 169.175 109.679 168.814 109.94C168.702 109.997 168.579 110.027 168.454 110.027C168.329 110.027 168.206 109.997 168.095 109.94C167.929 109.854 167.773 109.751 167.629 109.632C167.053 109.244 166.527 108.784 166.065 108.266Z" fill="#263238"/>
<path d="M166.27 92.5762C166.539 92.3234 167.613 93.0423 169.035 93.5558C170.457 94.0693 171.729 94.251 171.768 94.6144C171.768 94.7882 171.444 94.9857 170.852 95.0726C170.084 95.156 169.307 95.0558 168.585 94.7803C167.854 94.5156 167.197 94.0825 166.665 93.5163C166.27 93.0739 166.144 92.7026 166.27 92.5762Z" fill="#263238"/>
<path d="M178.681 99.86C179.052 99.86 179.273 100.8 179.826 101.701C180.379 102.601 181.043 103.281 180.901 103.589C180.822 103.747 180.498 103.778 180.055 103.589C179.489 103.33 179.019 102.898 178.712 102.356C178.388 101.825 178.234 101.208 178.27 100.587C178.325 100.129 178.515 99.86 178.681 99.86Z" fill="#263238"/>
<path d="M155.787 92.3787C155.723 92.2444 152.627 87.3227 148.985 91.7151C145.343 96.1075 150.509 98.8251 150.62 98.7303C150.731 98.6355 155.787 92.3787 155.787 92.3787Z" fill="#FFBE9D"/>
<path d="M150.66 95.9574C150.66 95.9574 150.533 95.9574 150.359 95.9021C150.114 95.8283 149.905 95.6647 149.775 95.4439C149.64 95.029 149.618 94.5857 149.711 94.1595C149.804 93.7332 150.008 93.3394 150.304 93.0186C150.603 92.6295 150.987 92.3134 151.426 92.0943C151.581 91.9928 151.758 91.9298 151.942 91.9106C152.126 91.8913 152.312 91.9164 152.484 91.9837C152.591 92.0347 152.676 92.1206 152.726 92.227C152.777 92.3334 152.789 92.4539 152.761 92.5683C152.721 92.7421 152.619 92.8053 152.635 92.829C152.65 92.8527 152.793 92.829 152.911 92.6236C152.974 92.4934 152.99 92.3458 152.958 92.2049C152.915 92.0153 152.799 91.8506 152.635 91.7467C152.426 91.6305 152.19 91.5695 151.951 91.5695C151.712 91.5695 151.477 91.6305 151.268 91.7467C150.766 91.9754 150.327 92.3223 149.988 92.7579C149.285 93.6664 149.056 94.8672 149.538 95.5782C149.627 95.7091 149.744 95.8183 149.88 95.8976C150.017 95.9769 150.17 96.0244 150.328 96.0364C150.557 96.0601 150.667 95.9811 150.66 95.9574Z" fill="#EB996E"/>
<path d="M190.981 91.5808C190.848 91.013 190.532 90.5044 190.083 90.1322C189.634 89.76 189.075 89.5447 188.493 89.5189C188.76 89.1889 188.945 88.8 189.032 88.3843C189.118 87.9687 189.105 87.5383 188.992 87.1289C188.879 86.7195 188.671 86.343 188.383 86.0304C188.096 85.7179 187.738 85.4784 187.339 85.3319C187.702 84.969 187.93 84.4931 187.986 83.9828C188.041 83.4725 187.921 82.9586 187.644 82.5263C187.368 82.0939 186.952 81.769 186.465 81.6054C185.979 81.4418 185.451 81.4494 184.969 81.6268C185.045 81.0505 184.991 80.4645 184.809 79.9123C184.628 79.36 184.324 78.8558 183.921 78.4369C183.518 78.0179 183.026 77.6952 182.481 77.4925C181.937 77.2898 181.353 77.2124 180.774 77.266C180.152 76.2283 179.171 75.4539 178.017 75.0887C176.864 74.7235 175.616 74.7926 174.51 75.2831C173.764 74.7189 172.868 74.3878 171.935 74.3316C171.001 74.2754 170.072 74.4965 169.264 74.9671C168.779 74.6062 168.208 74.3796 167.608 74.31C167.008 74.2404 166.4 74.3303 165.845 74.5706C165.291 74.811 164.809 75.1933 164.45 75.679C164.09 76.1647 163.865 76.7366 163.797 77.3371C163.412 77.2584 163.015 77.2696 162.635 77.3699C162.255 77.4701 161.903 77.6567 161.607 77.9152C161.312 78.1736 161.079 78.4968 160.929 78.8597C160.778 79.2226 160.714 79.6153 160.74 80.0073C160.284 79.882 159.801 79.889 159.348 80.0276C158.896 80.1662 158.492 80.4306 158.184 80.79C157.876 81.1494 157.676 81.589 157.608 82.0574C157.541 82.5259 157.608 83.004 157.801 83.4359C157.106 82.9619 156.118 83.5702 155.771 84.3444C155.423 85.1186 155.818 86.2404 155.186 86.8013C154.758 87.3364 154.462 87.9658 154.325 88.6375C154.188 89.3092 154.212 90.004 154.396 90.6644L152.484 94.2589C152.451 94.4493 152.482 94.6455 152.575 94.8155C152.667 94.9855 152.814 95.119 152.992 95.1943C153.17 95.2696 153.369 95.2822 153.555 95.2299C153.741 95.1776 153.904 95.0637 154.017 94.9067C154.286 94.5433 154.538 94.2431 154.807 94.2352C155.485 94.293 156.168 94.2423 156.829 94.0851C157.754 93.8859 158.645 93.556 159.476 93.1055C159.842 92.8853 160.128 92.5522 160.288 92.1562C160.449 91.7602 160.478 91.3227 160.369 90.9093C160.861 91.078 161.388 91.1142 161.898 91.0144C162.409 90.9145 162.884 90.6821 163.276 90.3405C164.054 89.6503 164.701 88.8262 165.188 87.9073L167.558 83.9573C168.365 84.6049 169.334 85.0205 170.359 85.1597C171.385 85.2988 172.429 85.1563 173.38 84.7473C173.492 85.1942 173.697 85.6123 173.982 85.9742C174.267 86.3361 174.625 86.6336 175.033 86.847C175.442 87.0605 175.89 87.185 176.35 87.2126C176.81 87.2401 177.271 87.1699 177.701 87.0067C177.307 88.0078 177.309 89.1212 177.705 90.1215C178.101 91.1218 178.862 91.9343 179.834 92.3945C178.886 93.1292 179.747 95.357 180.411 96.3445C181.075 97.332 183.208 97.1977 183.208 97.1977C183.208 97.1977 183.421 99.8995 184.527 100.294C185.633 100.689 187.608 100.61 187.829 99.2991C188.559 98.8829 189.182 98.3011 189.646 97.6006C189.935 97.1198 190.079 96.566 190.06 96.0055C190.042 95.445 189.863 94.9016 189.543 94.4406C190.061 94.1843 190.481 93.7667 190.74 93.2509C190.999 92.7351 191.084 92.1489 190.981 91.5808Z" fill="#263238"/>
<path d="M161.253 98.6118C161.151 98.6592 161.001 98.5565 160.977 98.3669C160.953 98.1773 161.072 98.0351 161.182 98.0588C161.236 98.0791 161.283 98.1136 161.318 98.1585C161.354 98.2034 161.376 98.2572 161.384 98.314C161.391 98.3708 161.383 98.4285 161.36 98.4809C161.337 98.5334 161.3 98.5786 161.253 98.6118Z" fill="#EB996E"/>
<path d="M163.11 100.136C163.165 100.239 163.11 100.381 162.928 100.46C162.872 100.5 162.802 100.518 162.733 100.509C162.665 100.5 162.602 100.466 162.557 100.413C162.51 100.318 162.557 100.168 162.747 100.097C162.936 100.026 163.063 100.034 163.11 100.136Z" fill="#EB996E"/>
<path d="M164.911 102.009C164.944 102.059 164.956 102.121 164.945 102.18C164.933 102.239 164.898 102.291 164.848 102.325C164.805 102.365 164.749 102.388 164.69 102.388C164.631 102.388 164.575 102.365 164.532 102.325C164.516 102.3 164.504 102.273 164.499 102.244C164.493 102.216 164.493 102.186 164.499 102.158C164.505 102.129 164.517 102.102 164.533 102.078C164.55 102.053 164.571 102.033 164.595 102.017C164.637 101.975 164.693 101.951 164.752 101.95C164.81 101.948 164.868 101.969 164.911 102.009Z" fill="#EB996E"/>
<path d="M159.831 101.385C159.777 101.398 159.72 101.394 159.668 101.373C159.616 101.352 159.572 101.316 159.542 101.269C159.512 101.222 159.497 101.166 159.5 101.111C159.503 101.055 159.523 101.001 159.557 100.957C159.592 100.914 159.639 100.882 159.693 100.866C159.746 100.85 159.804 100.852 159.856 100.87C159.909 100.888 159.955 100.923 159.987 100.968C160.02 101.014 160.037 101.068 160.037 101.124C160.042 101.185 160.023 101.246 159.985 101.294C159.947 101.343 159.892 101.375 159.831 101.385Z" fill="#EB996E"/>
<path d="M162.399 102.799C162.399 102.909 162.32 103.012 162.154 103.036C161.988 103.059 161.862 102.98 161.862 102.862C161.87 102.801 161.899 102.744 161.943 102.701C161.988 102.658 162.045 102.631 162.107 102.625C162.168 102.616 162.231 102.628 162.284 102.66C162.337 102.691 162.378 102.741 162.399 102.799Z" fill="#EB996E"/>
<path d="M173.522 108.147C173.412 108.147 173.269 108.036 173.246 107.815C173.222 107.594 173.34 107.42 173.451 107.436C173.562 107.452 173.641 107.602 173.657 107.776C173.672 107.95 173.625 108.115 173.522 108.147Z" fill="#EB996E"/>
<path d="M175.947 108.866C176.011 108.961 175.947 109.095 175.782 109.158C175.616 109.221 175.481 109.158 175.45 109.079C175.439 109.019 175.449 108.956 175.479 108.903C175.51 108.849 175.558 108.808 175.616 108.787C175.671 108.758 175.735 108.75 175.796 108.765C175.857 108.779 175.911 108.815 175.947 108.866Z" fill="#EB996E"/>
<path d="M173.38 110.794C173.277 110.754 173.269 110.572 173.38 110.399C173.491 110.225 173.633 110.138 173.728 110.201C173.773 110.258 173.798 110.329 173.798 110.403C173.798 110.476 173.773 110.547 173.728 110.604C173.649 110.754 173.498 110.841 173.38 110.794Z" fill="#EB996E"/>
<path d="M179.826 76.2943C180.438 76.4414 180.997 76.7545 181.442 77.1993C181.886 77.644 182.199 78.2029 182.347 78.8144C182.944 78.373 183.66 78.1205 184.402 78.0895C185.144 78.0585 185.879 78.2504 186.511 78.6404C187.143 79.0305 187.644 79.6008 187.95 80.2781C188.255 80.9553 188.351 81.7085 188.224 82.4405C188.846 82.1496 189.529 82.0102 190.215 82.0335C190.902 82.0568 191.573 82.2423 192.174 82.5748C192.765 82.92 193.244 83.4289 193.552 84.04C193.861 84.6512 193.986 85.3386 193.912 86.0192C193.807 86.6935 193.475 87.3117 192.971 87.7715C192.466 88.2312 191.82 88.5049 191.139 88.5472C191.593 88.4632 192.059 88.4794 192.505 88.5946C192.952 88.7099 193.367 88.9215 193.723 89.2145C194.079 89.5075 194.367 89.8749 194.566 90.2908C194.765 90.7067 194.87 91.1611 194.875 91.6222C194.88 92.0832 194.783 92.5397 194.593 92.9596C194.402 93.3795 194.122 93.7526 193.772 94.0528C193.423 94.353 193.011 94.5729 192.567 94.6972C192.123 94.8216 191.657 94.8472 191.202 94.7724C191.412 94.9008 191.592 95.0704 191.734 95.2708C191.875 95.4713 191.975 95.6985 192.026 95.9386C192.077 96.1786 192.078 96.4265 192.03 96.6672C191.982 96.9079 191.886 97.1363 191.747 97.3386C191.608 97.5409 191.429 97.7127 191.222 97.8438C191.015 97.9748 190.783 98.0623 190.54 98.1008C190.298 98.1394 190.05 98.1282 189.812 98.068C189.574 98.0078 189.351 97.8999 189.156 97.7507C188.587 98.912 186.786 98.8725 185.83 97.9798C184.874 97.0871 184.606 95.7283 184.361 94.4564" fill="#263238"/>
<path d="M191.866 88.4445C191.877 88.5574 191.877 88.6712 191.866 88.7842C191.848 89.1065 191.801 89.4265 191.724 89.7401C191.411 90.9104 190.723 91.9457 189.765 92.6868C189.095 93.2081 188.288 93.5212 187.442 93.5874C186.468 93.6378 185.503 93.3868 184.677 92.8685C183.769 92.3056 183.055 91.4786 182.631 90.4985C182.395 89.9747 182.277 89.4059 182.283 88.8316C182.276 88.5206 182.335 88.2116 182.454 87.9245C182.574 87.6374 182.753 87.3786 182.978 87.1647C183.226 86.966 183.521 86.8365 183.835 86.7893C184.149 86.7421 184.469 86.779 184.764 86.8961C185.048 87.0014 185.304 87.1699 185.514 87.3889C185.723 87.6079 185.88 87.8716 185.973 88.1601C186.148 88.6881 186.166 89.2554 186.026 89.7936C185.886 90.3319 185.593 90.8181 185.183 91.1937C184.807 91.5166 184.363 91.7487 183.883 91.872C183.404 91.9953 182.902 92.0065 182.418 91.9047C181.601 91.7408 180.818 91.4389 180.103 91.012C179.793 90.825 179.504 90.6052 179.242 90.3563C178.989 90.1272 178.76 89.9139 178.554 89.6927C178.181 89.3281 177.892 88.8858 177.709 88.3971C177.609 88.0835 177.574 87.7529 177.606 87.4254C177.61 87.3106 177.637 87.1977 177.685 87.0936C177.671 87.5166 177.73 87.9388 177.859 88.3418C178.414 89.351 179.233 90.1896 180.229 90.7671C180.923 91.1454 181.672 91.412 182.449 91.5571C182.882 91.6394 183.328 91.6225 183.754 91.5076C184.179 91.3926 184.573 91.1827 184.906 90.8935C185.255 90.5668 185.504 90.1471 185.623 89.6839C185.742 89.2207 185.726 88.7332 185.578 88.2786C185.504 88.0466 185.379 87.8347 185.21 87.6593C185.042 87.4839 184.835 87.3498 184.606 87.2674C184.379 87.1746 184.131 87.144 183.888 87.1787C183.645 87.2135 183.416 87.3122 183.223 87.4649C183.044 87.6415 182.902 87.8534 182.809 88.0872C182.715 88.3211 182.67 88.5718 182.678 88.8237C182.673 89.3403 182.778 89.852 182.986 90.3247C183.372 91.2436 184.027 92.0234 184.867 92.5604C185.622 93.0514 186.51 93.297 187.41 93.2635C188.193 93.2138 188.944 92.9395 189.575 92.4735C190.506 91.784 191.197 90.8196 191.55 89.7164C191.819 88.9106 191.819 88.4445 191.866 88.4445Z" fill="#455A64"/>
<path d="M124.408 167.492L138.225 174.452L132.948 185.701H118.143L120.276 173.393L124.408 167.492Z" fill="#455A64"/>
<path d="M145.248 138.546L151.521 131.721L150.336 129.809L145.73 135.528L145.248 138.546Z" fill="#455A64"/>
<path d="M145.769 134.178C145.027 131.207 139.22 109.032 139.22 109.032C139.22 109.032 139.426 106.662 124.566 108.676C123.57 108.811 110.938 112.326 106.846 116.782C102.959 121.024 79.4964 167.381 77.0474 172.706C76.4514 173.316 75.7797 173.847 75.0487 174.286C74.6221 174.349 73.5714 176.719 73.4687 179.603C73.366 182.486 74.0217 182.857 74.0217 182.857C74.0217 182.857 98.7329 196.24 115.828 194.937C115.828 194.937 123.728 195.008 123.831 191.2L123.349 185.994L143.565 145.348C143.565 145.348 146.52 137.156 145.769 134.178Z" fill="#455A64"/>
<path d="M137.625 107.436L142.799 103.984C143.204 106.352 143.885 108.664 144.829 110.873C146.82 115.731 149.522 124.303 149.522 124.303L149.664 126.538L147.76 125.748C147.333 125.558 146.854 125.519 146.401 125.638L139.734 127.407C139.734 127.407 139.386 116.189 138.012 111.742C137.538 110.358 137.405 108.881 137.625 107.436Z" fill="#455A64"/>
<path d="M151.26 132.748C151.175 132.506 151.035 132.288 150.852 132.109C150.668 131.931 150.445 131.798 150.201 131.721C149.71 131.573 149.198 131.504 148.685 131.515C148.83 131.47 148.962 131.39 149.069 131.282C149.176 131.174 149.256 131.042 149.301 130.897C149.346 130.752 149.355 130.597 149.328 130.448C149.3 130.298 149.237 130.158 149.143 130.038C148.927 129.813 148.655 129.649 148.356 129.562C148.057 129.474 147.74 129.467 147.436 129.54C148.092 129.545 148.736 129.365 149.293 129.019C149.569 128.843 149.79 128.592 149.93 128.295C150.069 127.999 150.122 127.669 150.083 127.344C149.982 126.888 149.732 126.479 149.373 126.18C149.015 125.881 148.567 125.71 148.1 125.693C145.24 125.574 144.577 126.293 142.38 127.036C142.017 127.113 141.675 127.269 141.379 127.493C141.083 127.717 140.84 128.003 140.666 128.332C140.577 128.661 140.591 129.01 140.707 129.331C140.823 129.652 141.035 129.929 141.314 130.125C141.779 130.446 142.329 130.622 142.894 130.63C142.757 130.666 142.632 130.737 142.532 130.837C142.432 130.937 142.36 131.062 142.325 131.199C142.292 131.393 142.319 131.592 142.402 131.77C142.486 131.948 142.621 132.096 142.791 132.195C142.962 132.289 143.149 132.349 143.343 132.371C143.537 132.393 143.734 132.376 143.921 132.321C143.574 132.512 143.306 132.817 143.161 133.185C143.017 133.553 143.006 133.96 143.131 134.336C143.261 134.716 143.483 135.059 143.776 135.335C144.069 135.61 144.425 135.81 144.814 135.916C145.587 136.13 146.402 136.146 147.184 135.963C148.18 135.789 149.136 135.433 150.004 134.912C150.778 134.422 151.513 133.601 151.26 132.748Z" fill="#381E3E"/>
<path d="M148.1 129.09C147.506 129.836 146.666 130.345 145.73 130.528C144.822 130.842 143.83 130.813 142.941 130.449C143.84 130.403 144.735 130.295 145.619 130.125C146.468 129.835 147.297 129.489 148.1 129.09Z" fill="#263238"/>
<path d="M148.708 131.46C148.708 131.46 148.55 131.8 148.084 132.155C147.475 132.616 146.756 132.91 145.999 133.008C145.241 133.109 144.47 133.008 143.763 132.716C143.226 132.487 142.973 132.25 142.973 132.203C143.925 132.527 144.932 132.661 145.935 132.598C146.925 132.402 147.867 132.015 148.708 131.46Z" fill="#263238"/>
<path d="M145.493 135.797C145.446 135.797 145.303 135.679 145.185 135.386C145.037 134.992 145.012 134.562 145.114 134.154C145.212 133.743 145.436 133.373 145.754 133.095C145.999 132.882 146.188 132.827 146.22 132.874C146.251 132.921 145.714 133.435 145.517 134.249C145.456 134.763 145.448 135.282 145.493 135.797Z" fill="#263238"/>
<path d="M148.258 134.351C148.179 134.43 147.744 134.122 147.468 133.561C147.191 133 147.136 132.463 147.239 132.44C147.342 132.416 147.547 132.858 147.831 133.364C148.116 133.869 148.337 134.272 148.258 134.351Z" fill="#263238"/>
<path d="M134.212 114.191C132.438 111.75 130.134 109.743 127.473 108.321C123.523 108.621 123.728 109.048 122.259 109.277C123.602 108.898 144.182 118.575 131.81 140.608C119.233 163.005 105.385 187.613 105.385 187.613L106.293 189.122L107.676 191.397C107.676 191.397 128.374 153.983 132.782 146.162C137.19 138.341 138.486 134.225 138.667 128.671C138.867 123.479 137.296 118.373 134.212 114.191Z" fill="#263238"/>
<path d="M149.68 126.53C149.68 126.53 149.451 126.372 149.001 126.175C148.351 125.916 147.662 125.769 146.962 125.74C145.891 125.901 144.835 126.147 143.802 126.475L139.797 127.51L139.528 127.589V127.305C139.683 125.687 139.728 124.062 139.663 122.438C139.497 118.862 139.072 115.303 138.391 111.789L137.783 108.629C137.69 108.239 137.627 107.843 137.593 107.444C137.746 107.816 137.862 108.203 137.941 108.597C138.13 109.34 138.399 110.422 138.675 111.757C139.444 115.274 139.911 118.85 140.074 122.446C140.139 124.088 140.086 125.733 139.916 127.368L139.671 127.162L143.692 126.151L145.398 125.725C145.893 125.587 146.402 125.51 146.915 125.495C147.642 125.54 148.354 125.728 149.008 126.048C149.269 126.151 149.499 126.317 149.68 126.53Z" fill="#263238"/>
<path d="M137.625 157.348C137.593 157.48 137.539 157.605 137.467 157.72C137.316 158.004 137.143 158.344 136.921 158.754C136.416 159.695 135.736 160.966 134.915 162.515C133.208 165.675 130.886 170.099 128.176 174.894C127.505 176.095 126.817 177.264 126.146 178.37C125.474 179.476 124.771 180.511 124.25 181.57C123.726 182.543 123.437 183.625 123.405 184.73C123.474 185.695 123.676 186.647 124.005 187.558C124.285 188.34 124.405 189.17 124.36 189.999C124.3 190.631 124.067 191.235 123.689 191.745C123.45 192.065 123.119 192.305 122.741 192.432C122.609 192.479 122.469 192.497 122.33 192.487C122.829 192.362 123.266 192.062 123.563 191.642C123.899 191.148 124.095 190.572 124.131 189.975C124.151 189.18 124.014 188.388 123.728 187.645C123.367 186.71 123.144 185.728 123.065 184.73C123.077 183.569 123.367 182.429 123.91 181.404C124.432 180.314 125.143 179.263 125.806 178.157C126.47 177.051 127.141 175.89 127.821 174.689L134.67 162.381C135.555 160.801 136.25 159.544 136.803 158.675C137.04 158.273 137.245 157.949 137.403 157.68C137.468 157.563 137.542 157.452 137.625 157.348Z" fill="#263238"/>
<path d="M117.148 185.267C117.563 185.558 117.885 185.964 118.072 186.436C118.639 187.539 118.775 188.815 118.452 190.013C118.129 191.211 117.371 192.245 116.326 192.914C115.923 193.222 115.441 193.411 114.936 193.459C114.936 193.396 115.449 193.214 116.16 192.669C117.087 191.988 117.756 191.012 118.055 189.901C118.355 188.79 118.269 187.61 117.811 186.555C117.472 185.741 117.092 185.314 117.148 185.267Z" fill="#263238"/>
<path d="M143.36 132.613C143.366 132.817 143.353 133.021 143.32 133.222C143.281 133.617 143.218 134.193 143.076 134.936C142.697 137.035 142.137 139.096 141.401 141.098C140.298 144.055 138.992 146.933 137.49 149.709C135.823 152.869 133.88 156.242 131.889 159.829L121.556 178.133L118.396 183.663L117.503 185.18C117.411 185.36 117.299 185.529 117.171 185.686C117.244 185.497 117.331 185.315 117.432 185.14L118.222 183.608L121.279 178.023L131.51 159.631C133.509 156.045 135.46 152.656 137.135 149.527C138.633 146.771 139.952 143.921 141.085 140.995C141.836 139.014 142.433 136.978 142.87 134.904C143.036 134.178 143.123 133.601 143.186 133.206C143.227 133.004 143.285 132.805 143.36 132.613Z" fill="#263238"/>
<path d="M123.689 154.133C123.807 153.765 123.963 153.41 124.155 153.074C124.479 152.395 124.945 151.392 125.601 150.191L125.688 150.025L125.846 150.12L129.74 152.3L129.914 152.403L129.819 152.577L127.647 156.44L127.56 156.598L127.402 156.503C126.233 155.808 125.277 155.207 124.637 154.789C124.297 154.602 123.977 154.383 123.681 154.133C124.072 154.296 124.452 154.483 124.819 154.694C125.506 155.057 126.462 155.571 127.584 156.195L127.339 156.266L129.456 152.379L129.535 152.656L125.664 150.428L125.909 150.357C125.285 151.471 124.748 152.395 124.329 153.066C124.135 153.433 123.922 153.789 123.689 154.133Z" fill="#EBEBEB"/>
<path d="M62.78 319.401L62.3692 319.946L54.4297 330.35L44.5547 337.113L57.7714 362.574H72.3232C72.3232 362.574 71.2725 359.075 64.2731 357.266L63.8149 343.291L76.3838 329.481" fill="#381E3E"/>
<g opacity="0.6">
<path d="M44.5547 337.113L57.7714 362.574L72.3232 362.59L70.6879 360.402L58.8537 359.738L46.6561 335.675L44.5547 337.113Z" fill="white"/>
</g>
<path d="M64.1862 350.875C64.0756 351.025 63.2382 350.551 62.1085 350.582C60.9788 350.614 60.1572 351.08 60.0466 350.93C59.936 350.78 60.7339 349.95 62.1006 349.942C63.4673 349.934 64.3126 350.764 64.1862 350.875Z" fill="#263238"/>
<path d="M63.9492 347.414C63.807 347.517 63.1592 346.624 61.9979 346.427C60.8366 346.229 59.9123 346.735 59.8175 346.577C59.7227 346.419 59.936 346.269 60.3389 346.048C60.8892 345.767 61.5186 345.68 62.1243 345.803C62.7423 345.913 63.3017 346.237 63.7043 346.719C63.9571 347.083 64.0203 347.367 63.9492 347.414Z" fill="#263238"/>
<path d="M64.044 342.959C63.886 343.038 63.3962 342.169 62.3771 341.845C61.358 341.521 60.4574 341.845 60.3784 341.663C60.2994 341.481 60.5285 341.387 60.9314 341.237C61.4685 341.049 62.0532 341.049 62.5904 341.237C63.1294 341.425 63.587 341.793 63.886 342.279C64.1072 342.651 64.123 342.927 64.044 342.959Z" fill="#263238"/>
<path d="M67.9466 339.514C67.7728 339.57 67.362 338.724 66.4614 338.156C65.5608 337.587 64.6523 337.484 64.6444 337.302C64.6365 337.121 65.7188 336.892 66.8169 337.626C67.915 338.361 68.1204 339.491 67.9466 339.514Z" fill="#263238"/>
<g opacity="0.6">
<path d="M56.1677 336.678C56.1692 337.021 56.0691 337.356 55.88 337.642C55.6908 337.927 55.4212 338.15 55.1052 338.282C54.7892 338.414 54.4411 338.45 54.1049 338.384C53.7688 338.318 53.4598 338.154 53.217 337.912C52.9743 337.671 52.8087 337.362 52.7413 337.027C52.6739 336.691 52.7077 336.343 52.8384 336.026C52.9692 335.709 53.1909 335.439 53.4756 335.248C53.7603 335.058 54.0951 334.956 54.4376 334.956C54.8951 334.956 55.3339 335.137 55.6582 335.46C55.9824 335.783 56.1656 336.221 56.1677 336.678Z" fill="white"/>
</g>
<path d="M148.329 334.411L147.981 352.581C147.981 352.581 166.507 359.162 166.776 362.527L131.226 362.883L130.586 334.529L148.329 334.411Z" fill="#381E3E"/>
<path d="M136.961 351.175C136.611 351.264 136.311 351.488 136.126 351.799C135.942 352.109 135.888 352.48 135.977 352.83C136.066 353.18 136.291 353.48 136.601 353.664C136.912 353.849 137.283 353.902 137.632 353.813C137.991 353.702 138.296 353.46 138.486 353.135C138.676 352.811 138.738 352.427 138.659 352.06C138.521 351.71 138.253 351.428 137.912 351.272C137.57 351.116 137.181 351.098 136.827 351.222" fill="white"/>
<g opacity="0.6">
<path d="M131.202 362.93L131.249 360.07L165.338 360.805C165.338 360.805 166.918 361.468 166.776 362.574L131.202 362.93Z" fill="white"/>
</g>
<path d="M148.558 352.407C148.558 352.581 147.689 352.668 146.844 353.197C145.999 353.726 145.556 354.485 145.398 354.422C145.24 354.358 145.477 353.355 146.512 352.692C147.547 352.028 148.598 352.249 148.558 352.407Z" fill="#263238"/>
<path d="M152.319 353.9C152.319 354.066 151.615 354.366 151.031 355.101C150.446 355.836 150.296 356.61 150.13 356.602C149.964 356.594 149.83 355.622 150.565 354.722C151.299 353.821 152.311 353.734 152.319 353.9Z" fill="#263238"/>
<path d="M154.515 358.308C154.357 358.348 154.096 357.519 154.515 356.539C154.933 355.559 155.747 355.212 155.826 355.354C155.905 355.496 155.407 356.002 155.036 356.792C154.665 357.582 154.689 358.293 154.515 358.308Z" fill="#263238"/>
<path d="M148.171 348.252C148.1 348.41 147.302 348.181 146.322 348.252C145.343 348.323 144.584 348.639 144.49 348.489C144.395 348.339 145.122 347.699 146.275 347.651C147.428 347.604 148.258 348.118 148.171 348.252Z" fill="#263238"/>
<path d="M123.357 193.27C124.218 196.998 155.565 254.4 156.585 261.581C157.217 266.005 150.399 342.271 150.399 342.271L128.184 342.098L130.752 266.021L102.58 230.407L92.6183 192.827L123.357 193.27Z" fill="#263238"/>
<path d="M74.0533 182.857C74.0533 182.857 68.863 200.869 69.7794 205.428C71.2409 212.711 96.3866 270.563 96.3866 270.563L55.7569 324.109L72.3469 341C72.3469 341 116.31 288.251 120.537 281.947C124.763 275.643 122.03 268.414 121.588 264.97C121.232 262.213 105.914 197.093 105.914 197.093L74.0533 182.857Z" fill="#263238"/>
<path d="M137.648 261.865C136.566 262.703 135.404 263.433 134.18 264.046C133.022 264.772 131.794 265.381 130.515 265.863C131.596 265.023 132.757 264.293 133.983 263.682C135.139 262.952 136.367 262.343 137.648 261.865Z" fill="#455A64"/>
<path d="M95.4465 313.8C95.4899 313.722 95.5402 313.648 95.5966 313.579L96.0785 312.947L97.9429 310.577L104.887 301.8L115.22 288.804L118.206 285.052C119.289 283.8 120.192 282.404 120.892 280.904C122.297 277.706 122.773 274.177 122.267 270.721C122.172 269.972 122.027 269.231 121.832 268.501V268.462C121.465 265.113 120.898 261.789 120.134 258.508C119.431 255.348 118.704 252.259 117.969 249.36C116.508 243.561 115.094 238.371 113.885 234.034C112.676 229.696 111.657 226.213 110.954 223.803C110.607 222.618 110.33 221.694 110.164 221.03C110.077 220.73 110.014 220.493 109.959 220.311C109.933 220.231 109.915 220.15 109.903 220.066C109.903 220.066 109.943 220.137 109.998 220.303L110.243 221.006C110.456 221.631 110.757 222.586 111.136 223.756C111.926 226.126 112.945 229.633 114.193 233.962C115.441 238.292 116.879 243.442 118.364 249.273C119.107 252.172 119.85 255.229 120.561 258.421C121.329 261.721 121.901 265.063 122.275 268.43V268.383C122.473 269.134 122.623 269.896 122.725 270.666C123.209 274.194 122.695 277.788 121.24 281.039C120.523 282.563 119.601 283.983 118.499 285.257L115.497 289.002L105.116 301.942L98.0693 310.632L96.1417 313.002L95.6282 313.602C95.5752 313.675 95.5142 313.741 95.4465 313.8Z" fill="#455A64"/>
<path d="M76.8894 335.738C76.6177 335.573 76.3681 335.374 76.1468 335.146L74.2429 333.408C72.6629 331.93 70.4667 329.868 68.0809 327.57C65.6951 325.271 63.57 323.177 61.99 321.645L60.1809 319.812C59.9431 319.6 59.731 319.362 59.5489 319.101C59.8206 319.266 60.0702 319.465 60.2915 319.693C60.7971 320.167 61.437 320.744 62.1875 321.431C63.7675 322.909 65.9637 324.97 68.3653 327.269C70.7669 329.568 72.9078 331.67 74.4483 333.202L76.2574 335.027C76.4906 335.243 76.7023 335.481 76.8894 335.738Z" fill="#455A64"/>
<path d="M110.709 236.791C110.735 236.835 110.754 236.883 110.765 236.933C110.765 237.043 110.844 237.186 110.899 237.359L111.397 239.011L113.214 245.283C114.746 250.703 116.927 258.366 119.534 267.451C120.12 271.367 119.471 275.368 117.677 278.898C115.915 282.642 113.206 286.008 110.377 289.397L84.6709 319.836L76.8499 329.031L74.7011 331.52L74.1402 332.159C74.0059 332.302 73.9427 332.373 73.9348 332.365C73.988 332.283 74.046 332.203 74.1086 332.128L74.6379 331.464L76.6998 328.96L84.426 319.685L110.038 289.168C112.866 285.81 115.568 282.445 117.29 278.756C119.053 275.303 119.701 271.389 119.146 267.553L113 245.346C112.266 242.66 111.689 240.527 111.286 239.026C111.096 238.315 110.946 237.762 110.844 237.359C110.804 237.178 110.765 237.043 110.741 236.925C110.717 236.806 110.709 236.791 110.709 236.791Z" fill="#455A64"/>
<path d="M89.2134 196.193C88.8834 196.763 88.4647 197.278 87.9731 197.717C85.7047 199.966 82.8258 201.499 79.6939 202.125C79.0566 202.286 78.3981 202.344 77.7426 202.299C79.9005 201.858 81.9928 201.141 83.9678 200.166C85.8788 199.071 87.6416 197.736 89.2134 196.193Z" fill="#455A64"/>
<path d="M151.157 335.999C151.157 336.109 146.164 336.165 140.002 336.117C133.84 336.07 128.856 335.936 128.856 335.825C128.856 335.714 133.848 335.659 140.01 335.707C146.172 335.754 151.157 335.888 151.157 335.999Z" fill="#455A64"/>
<path d="M135.349 227.508C135.387 227.556 135.421 227.606 135.452 227.658C135.515 227.785 135.61 227.935 135.721 228.132L136.748 229.973L140.548 236.901L153.63 261.02V261.067V261.123C153.227 266.803 152.777 272.973 152.263 279.459C151.047 295.029 149.625 309.099 148.369 319.259C147.752 324.338 147.191 328.439 146.789 331.275C146.583 332.665 146.417 333.763 146.307 334.529C146.243 334.885 146.204 335.169 146.164 335.375C146.154 335.474 146.135 335.571 146.109 335.667C146.1 335.57 146.1 335.472 146.109 335.375L146.204 334.522C146.299 333.732 146.441 332.649 146.615 331.251C146.962 328.415 147.484 324.307 148.06 319.219C149.245 309.06 150.62 294.99 151.837 279.427C152.326 272.973 152.793 266.787 153.227 261.099V261.202C147.989 251.406 143.486 243.032 140.287 237.028L136.59 230.044L135.618 228.172L135.373 227.682C135.354 227.626 135.346 227.567 135.349 227.508Z" fill="#455A64"/>
<path d="M137.83 174.42L143.55 171.663L148.55 170.739C149.754 170.323 150.915 169.794 152.018 169.159C152.018 169.159 152.808 170.32 152.405 171.237C152.003 172.153 149.696 173.607 148.132 174.175C147.559 174.36 147.069 174.739 146.746 175.247C146.423 175.754 146.287 176.359 146.362 176.956C146.504 177.746 152.856 183.948 152.856 183.948L143.968 193.23L136.787 186.705L133.627 183.474L137.83 174.42Z" fill="#FFBE9D"/>
<path d="M179.574 148.374L174.217 143.847L175.797 142.196C175.916 142.078 175.982 141.917 175.982 141.75C175.982 141.582 175.916 141.422 175.797 141.303C175.739 141.244 175.67 141.197 175.593 141.164C175.517 141.132 175.434 141.115 175.351 141.115C175.268 141.115 175.186 141.132 175.109 141.164C175.032 141.197 174.963 141.244 174.905 141.303L124.819 193.143C124.761 193.203 124.715 193.273 124.684 193.351C124.653 193.428 124.638 193.511 124.639 193.594C124.64 193.677 124.657 193.759 124.69 193.836C124.723 193.912 124.771 193.982 124.831 194.04C124.89 194.098 124.961 194.144 125.038 194.175C125.115 194.205 125.198 194.221 125.281 194.22C125.365 194.219 125.447 194.201 125.523 194.168C125.6 194.135 125.669 194.088 125.727 194.028L127.876 191.792C127.895 191.829 127.922 191.861 127.955 191.887L133.619 196.682C133.684 196.737 133.758 196.778 133.839 196.803C133.919 196.828 134.004 196.837 134.088 196.829C134.172 196.821 134.253 196.796 134.327 196.756C134.402 196.716 134.467 196.661 134.52 196.595C134.622 196.467 134.671 196.303 134.654 196.139C134.638 195.976 134.559 195.825 134.433 195.719L128.769 190.923L135.428 184.027L141.006 188.767C141.07 188.822 141.145 188.863 141.226 188.888C141.307 188.913 141.392 188.922 141.476 188.913C141.561 188.904 141.642 188.878 141.716 188.836C141.79 188.795 141.855 188.739 141.906 188.672C142.008 188.544 142.056 188.382 142.04 188.22C142.024 188.057 141.945 187.907 141.819 187.803L136.289 183.134L142.783 176.419L148.376 181.159C148.437 181.228 148.512 181.284 148.596 181.321C148.679 181.359 148.771 181.377 148.863 181.376C148.954 181.375 149.045 181.353 149.128 181.313C149.211 181.273 149.284 181.216 149.342 181.145C149.4 181.074 149.442 180.991 149.465 180.902C149.488 180.812 149.491 180.72 149.475 180.629C149.458 180.539 149.422 180.453 149.369 180.378C149.315 180.303 149.246 180.241 149.166 180.195L143.636 175.51L148.297 170.683L153.764 175.313C153.829 175.368 153.905 175.409 153.986 175.434C154.067 175.459 154.152 175.468 154.237 175.46C154.321 175.452 154.403 175.427 154.478 175.387C154.553 175.347 154.619 175.292 154.673 175.226C154.773 175.097 154.82 174.933 154.804 174.77C154.788 174.607 154.71 174.456 154.586 174.349L149.182 169.775L156.032 162.665C156.061 162.77 156.122 162.863 156.205 162.934L161.878 167.729C161.942 167.783 162.017 167.824 162.097 167.849C162.178 167.875 162.262 167.883 162.346 167.875C162.43 167.867 162.512 167.842 162.586 167.802C162.66 167.762 162.725 167.708 162.778 167.642C162.881 167.513 162.929 167.35 162.913 167.186C162.897 167.022 162.817 166.871 162.691 166.765L157.019 161.97C156.955 161.918 156.883 161.878 156.806 161.851L160.408 158.122L165.938 162.776C165.999 162.845 166.073 162.9 166.157 162.938C166.241 162.975 166.332 162.994 166.424 162.993C166.516 162.991 166.607 162.97 166.69 162.93C166.772 162.89 166.845 162.832 166.904 162.761C166.962 162.69 167.004 162.607 167.027 162.518C167.05 162.429 167.053 162.336 167.036 162.246C167.02 162.155 166.983 162.07 166.93 161.995C166.877 161.92 166.808 161.857 166.728 161.812L161.301 157.214L167.186 151.115C167.186 151.115 167.234 151.186 167.265 151.218L172.93 156.013C173.06 156.08 173.21 156.101 173.354 156.07C173.497 156.04 173.626 155.962 173.719 155.848C173.811 155.734 173.862 155.592 173.862 155.445C173.862 155.298 173.812 155.156 173.72 155.041L168.047 150.246L173.333 144.779L178.744 149.353C178.808 149.41 178.883 149.453 178.965 149.48C179.046 149.506 179.132 149.516 179.217 149.507C179.302 149.499 179.385 149.474 179.46 149.432C179.535 149.391 179.6 149.334 179.653 149.267C179.706 149.203 179.747 149.129 179.772 149.05C179.797 148.97 179.806 148.887 179.799 148.804C179.791 148.721 179.768 148.64 179.729 148.566C179.69 148.493 179.638 148.427 179.574 148.374Z" fill="#381E3E"/>
<g opacity="0.3">
<path d="M179.574 148.374L174.217 143.847L175.797 142.196C175.916 142.078 175.982 141.917 175.982 141.75C175.982 141.582 175.916 141.422 175.797 141.303C175.739 141.244 175.67 141.197 175.593 141.164C175.517 141.132 175.434 141.115 175.351 141.115C175.268 141.115 175.186 141.132 175.109 141.164C175.032 141.197 174.963 141.244 174.905 141.303L124.819 193.143C124.761 193.203 124.715 193.273 124.684 193.351C124.653 193.428 124.638 193.511 124.639 193.594C124.64 193.677 124.657 193.759 124.69 193.836C124.723 193.912 124.771 193.982 124.831 194.04C124.89 194.098 124.961 194.144 125.038 194.175C125.115 194.205 125.198 194.221 125.281 194.22C125.365 194.219 125.447 194.201 125.523 194.168C125.6 194.135 125.669 194.088 125.727 194.028L127.876 191.792C127.895 191.829 127.922 191.861 127.955 191.887L133.619 196.682C133.684 196.737 133.758 196.778 133.839 196.803C133.919 196.828 134.004 196.837 134.088 196.829C134.172 196.821 134.253 196.796 134.327 196.756C134.402 196.716 134.467 196.661 134.52 196.595C134.622 196.467 134.671 196.303 134.654 196.139C134.638 195.976 134.559 195.825 134.433 195.719L128.769 190.923L135.428 184.027L141.006 188.767C141.07 188.822 141.145 188.863 141.226 188.888C141.307 188.913 141.392 188.922 141.476 188.913C141.561 188.904 141.642 188.878 141.716 188.836C141.79 188.795 141.855 188.739 141.906 188.672C142.008 188.544 142.056 188.382 142.04 188.22C142.024 188.057 141.945 187.907 141.819 187.803L136.289 183.134L142.783 176.419L148.376 181.159C148.437 181.228 148.512 181.284 148.596 181.321C148.679 181.359 148.771 181.377 148.863 181.376C148.954 181.375 149.045 181.353 149.128 181.313C149.211 181.273 149.284 181.216 149.342 181.145C149.4 181.074 149.442 180.991 149.465 180.902C149.488 180.812 149.491 180.72 149.475 180.629C149.458 180.539 149.422 180.453 149.369 180.378C149.315 180.303 149.246 180.241 149.166 180.195L143.636 175.51L148.297 170.683L153.764 175.313C153.829 175.368 153.905 175.409 153.986 175.434C154.067 175.459 154.152 175.468 154.237 175.46C154.321 175.452 154.403 175.427 154.478 175.387C154.553 175.347 154.619 175.292 154.673 175.226C154.773 175.097 154.82 174.933 154.804 174.77C154.788 174.607 154.71 174.456 154.586 174.349L149.182 169.775L156.032 162.665C156.061 162.77 156.122 162.863 156.205 162.934L161.878 167.729C161.942 167.783 162.017 167.824 162.097 167.849C162.178 167.875 162.262 167.883 162.346 167.875C162.43 167.867 162.512 167.842 162.586 167.802C162.66 167.762 162.725 167.708 162.778 167.642C162.881 167.513 162.929 167.35 162.913 167.186C162.897 167.022 162.817 166.871 162.691 166.765L157.019 161.97C156.955 161.918 156.883 161.878 156.806 161.851L160.408 158.122L165.938 162.776C165.999 162.845 166.073 162.9 166.157 162.938C166.241 162.975 166.332 162.994 166.424 162.993C166.516 162.991 166.607 162.97 166.69 162.93C166.772 162.89 166.845 162.832 166.904 162.761C166.962 162.69 167.004 162.607 167.027 162.518C167.05 162.429 167.053 162.336 167.036 162.246C167.02 162.155 166.983 162.07 166.93 161.995C166.877 161.92 166.808 161.857 166.728 161.812L161.301 157.214L167.186 151.115C167.186 151.115 167.234 151.186 167.265 151.218L172.93 156.013C173.06 156.08 173.21 156.101 173.354 156.07C173.497 156.04 173.626 155.962 173.719 155.848C173.811 155.734 173.862 155.592 173.862 155.445C173.862 155.298 173.812 155.156 173.72 155.041L168.047 150.246L173.333 144.779L178.744 149.353C178.808 149.41 178.883 149.453 178.965 149.48C179.046 149.506 179.132 149.516 179.217 149.507C179.302 149.499 179.385 149.474 179.46 149.432C179.535 149.391 179.6 149.334 179.653 149.267C179.706 149.203 179.747 149.129 179.772 149.05C179.797 148.97 179.806 148.887 179.799 148.804C179.791 148.721 179.768 148.64 179.729 148.566C179.69 148.493 179.638 148.427 179.574 148.374Z" fill="black"/>
</g>
<path d="M168.529 113.709L165.598 111.655C165.031 111.688 164.465 111.571 163.958 111.316C163.45 111.061 163.019 110.676 162.707 110.201L161.917 110.88L166.554 115.881L168.529 113.709Z" fill="#263238"/>
<path d="M180.956 140.861C180.956 140.861 123.381 200.261 112.416 212.64C105.558 220.382 106.751 227.003 108.608 230.874C109.285 232.298 110.246 233.568 111.432 234.608C112.618 235.647 114.004 236.433 115.505 236.917C129.677 241.388 142.365 216.195 151.22 210.302C155.352 207.553 159.523 206.557 165.117 208.548C170.71 210.539 168.837 216.069 168.04 217.957C167.783 218.535 167.744 219.186 167.929 219.79C168.569 221.717 170.631 220.224 170.631 220.224C179.826 210.01 182.544 201.067 184.258 195.134C185.838 189.604 183.002 188.561 181.651 191.247C180.3 193.933 178.784 194.139 177.298 194.178C175.813 194.218 169.398 190.157 159.65 192.44C155.095 193.559 150.842 195.666 147.191 198.61C139.86 204.014 129.582 216.44 126.059 220.833C125.752 221.226 125.314 221.494 124.824 221.589C124.335 221.683 123.828 221.597 123.397 221.346C123.148 221.197 122.935 220.995 122.772 220.756C122.608 220.517 122.498 220.245 122.45 219.959C122.401 219.673 122.414 219.38 122.489 219.1C122.564 218.82 122.698 218.56 122.883 218.336C126.746 213.652 137.664 200.38 139.694 197.607C142.167 194.226 180.774 149.875 184.195 145.712C184.195 145.712 187.845 141.446 186.462 137.022C185.372 133.546 173.277 118.433 173.277 118.433L171.128 120.55C171.128 120.55 181.738 134.77 182.291 136.682C182.514 137.432 182.506 138.232 182.268 138.977C182.03 139.723 181.573 140.379 180.956 140.861Z" fill="#381E3E"/>
<path d="M168.519 113.649L166.373 115.771L171.122 120.574L173.268 118.453L168.519 113.649Z" fill="#381E3E"/>
<path d="M182.378 151.02C181.264 152.261 179.811 152.806 178.792 151.81C177.772 150.815 179.676 148.603 179.676 148.603C179.676 148.603 181.667 146.47 182.773 147.378C183.879 148.287 183.492 149.78 182.378 151.02Z" fill="#381E3E"/>
<path d="M182.378 151.02C182.378 151.02 182.489 150.831 182.694 150.499C182.987 150.053 183.181 149.549 183.263 149.022C183.312 148.671 183.248 148.314 183.081 148.003C182.884 147.702 182.591 147.347 182.212 147.347C181.766 147.353 181.334 147.503 180.98 147.773C180.56 148.047 180.173 148.368 179.826 148.729C179.518 149.118 179.253 149.539 179.036 149.985C178.808 150.365 178.705 150.808 178.744 151.249C178.791 151.629 179.171 151.881 179.495 152.039C179.821 152.168 180.18 152.193 180.522 152.111C181.04 151.973 181.522 151.725 181.936 151.384C182.236 151.139 182.394 150.989 182.418 151.012C182.441 151.036 182.315 151.218 182.038 151.502C181.64 151.918 181.143 152.225 180.593 152.395C180.156 152.54 179.679 152.509 179.265 152.308C178.85 152.108 178.53 151.753 178.373 151.321C178.303 150.793 178.408 150.257 178.673 149.796C178.918 149.315 179.215 148.862 179.558 148.445C179.93 148.055 180.349 147.713 180.806 147.426C181.238 147.115 181.759 146.951 182.291 146.96C182.739 147.069 183.127 147.349 183.37 147.74C183.614 148.132 183.695 148.603 183.595 149.053C183.485 149.618 183.232 150.146 182.86 150.586C182.568 150.902 182.394 151.036 182.378 151.02Z" fill="#263238"/>
<path d="M176.674 157.159C175.56 158.399 174.115 158.944 173.088 157.949C172.061 156.953 173.972 154.741 173.972 154.741C173.972 154.741 175.963 152.608 177.069 153.517C178.175 154.425 177.788 155.95 176.674 157.159Z" fill="#381E3E"/>
<path d="M176.674 157.159C176.761 156.975 176.867 156.8 176.99 156.637C177.286 156.192 177.483 155.688 177.567 155.16C177.608 154.809 177.542 154.454 177.377 154.141C177.294 153.971 177.172 153.823 177.021 153.709C176.87 153.595 176.695 153.518 176.508 153.485C176.065 153.494 175.637 153.644 175.284 153.912C174.863 154.188 174.474 154.508 174.123 154.868C173.8 155.254 173.522 155.676 173.293 156.124C173.068 156.505 172.966 156.946 173.001 157.388C173.048 157.767 173.427 158.02 173.751 158.178C174.078 158.306 174.437 158.331 174.778 158.249C175.297 158.111 175.779 157.863 176.192 157.522C176.34 157.383 176.502 157.258 176.674 157.151C176.674 157.151 176.579 157.356 176.295 157.641C175.897 158.056 175.399 158.363 174.849 158.533C174.412 158.678 173.936 158.647 173.521 158.446C173.107 158.246 172.787 157.892 172.629 157.459C172.56 156.932 172.666 156.396 172.93 155.934C173.387 154.948 174.13 154.122 175.063 153.564C175.495 153.253 176.016 153.09 176.548 153.098C176.995 153.209 177.381 153.49 177.624 153.88C177.868 154.271 177.949 154.742 177.851 155.192C177.74 155.755 177.491 156.282 177.125 156.724C176.864 157.04 176.69 157.174 176.674 157.159Z" fill="#263238"/>
<path d="M170.346 164.853C169.232 166.094 167.779 166.639 166.76 165.643C165.741 164.648 167.645 162.436 167.645 162.436C167.645 162.436 169.635 160.303 170.741 161.211C171.847 162.12 171.46 163.613 170.346 164.853Z" fill="#381E3E"/>
<path d="M170.346 164.853C170.346 164.853 170.457 164.656 170.662 164.332C170.957 163.883 171.151 163.377 171.231 162.847C171.279 162.499 171.216 162.145 171.049 161.835C170.852 161.535 170.56 161.18 170.18 161.18C169.736 161.187 169.305 161.333 168.948 161.598C168.087 162.129 167.398 162.897 166.965 163.81C166.735 164.193 166.633 164.638 166.673 165.082C166.72 165.462 167.099 165.714 167.463 165.872C167.788 166.008 168.148 166.035 168.49 165.951C169.008 165.814 169.49 165.566 169.904 165.225C170.204 164.98 170.362 164.83 170.386 164.853C170.41 164.877 170.283 165.059 170.007 165.343C169.606 165.756 169.109 166.063 168.561 166.236C168.124 166.381 167.648 166.35 167.233 166.149C166.819 165.948 166.499 165.594 166.341 165.161C166.271 164.634 166.377 164.098 166.641 163.637C166.885 163.155 167.182 162.702 167.526 162.286C167.9 161.896 168.319 161.551 168.774 161.259C169.205 160.947 169.727 160.786 170.259 160.801C170.706 160.91 171.092 161.189 171.335 161.578C171.579 161.968 171.661 162.437 171.563 162.886C171.453 163.454 171.2 163.984 170.828 164.427C170.536 164.735 170.362 164.869 170.346 164.853Z" fill="#263238"/>
<path d="M165.48 170.17C164.366 171.41 162.92 171.955 161.893 170.96C160.866 169.965 162.778 167.745 162.778 167.745C162.778 167.745 164.777 165.612 165.875 166.528C166.973 167.444 166.61 168.945 165.48 170.17Z" fill="#381E3E"/>
<path d="M165.48 170.17C165.48 170.17 165.591 169.972 165.796 169.649C166.095 169.202 166.292 168.695 166.373 168.163C166.413 167.816 166.35 167.464 166.191 167.152C165.993 166.852 165.701 166.496 165.322 166.489C164.877 166.501 164.447 166.65 164.09 166.915C163.67 167.192 163.283 167.515 162.936 167.879C162.613 168.264 162.333 168.682 162.099 169.127C161.875 169.511 161.775 169.956 161.814 170.399C161.814 170.778 162.241 171.031 162.557 171.189C162.884 171.316 163.241 171.343 163.584 171.268C164.102 171.129 164.584 170.881 164.998 170.541C165.298 170.296 165.456 170.146 165.48 170.17C165.504 170.194 165.385 170.367 165.109 170.66C164.705 171.072 164.206 171.379 163.655 171.552C163.219 171.697 162.744 171.666 162.331 171.465C161.917 171.264 161.599 170.91 161.443 170.478C161.373 169.951 161.479 169.415 161.743 168.953C161.979 168.467 162.277 168.013 162.628 167.602C163.001 167.214 163.417 166.87 163.868 166.575C164.301 166.266 164.822 166.105 165.354 166.117C165.801 166.224 166.188 166.503 166.432 166.893C166.676 167.283 166.757 167.754 166.657 168.203C166.547 168.769 166.297 169.299 165.93 169.743C165.685 170.067 165.48 170.17 165.48 170.17Z" fill="#263238"/>
<path d="M159.049 177.912C157.935 179.152 156.49 179.697 155.463 178.702C154.436 177.707 156.348 175.495 156.348 175.495C156.348 175.495 158.346 173.362 159.444 174.27C160.542 175.179 160.163 176.672 159.049 177.912Z" fill="#381E3E"/>
<path d="M159.049 177.912C159.049 177.912 159.16 177.722 159.365 177.391C159.661 176.945 159.858 176.441 159.942 175.913C159.984 175.562 159.918 175.207 159.752 174.894C159.563 174.594 159.263 174.238 158.883 174.238C158.44 174.245 158.01 174.394 157.659 174.665C157.238 174.941 156.849 175.261 156.498 175.621C156.189 176.01 155.924 176.431 155.708 176.877C155.482 177.258 155.38 177.7 155.415 178.141C155.463 178.52 155.842 178.773 156.166 178.931C156.493 179.059 156.851 179.084 157.193 179.002C157.711 178.865 158.193 178.617 158.607 178.275C158.907 178.03 159.065 177.88 159.089 177.904C159.113 177.928 158.994 178.11 158.71 178.394C158.313 178.811 157.815 179.119 157.264 179.287C156.827 179.432 156.351 179.4 155.936 179.2C155.522 178.999 155.202 178.645 155.044 178.212C154.978 177.685 155.084 177.15 155.344 176.688C155.589 176.205 155.889 175.751 156.237 175.337C156.608 174.949 157.025 174.607 157.477 174.318C157.908 174.003 158.43 173.839 158.962 173.851C159.41 173.96 159.798 174.241 160.042 174.632C160.285 175.023 160.366 175.495 160.266 175.945C160.155 176.508 159.905 177.035 159.539 177.478C159.239 177.794 159.065 177.928 159.049 177.912Z" fill="#263238"/>
<path d="M153.504 183.79C152.39 185.03 150.936 185.575 149.917 184.58C148.898 183.584 150.794 181.364 150.794 181.364C150.794 181.364 152.793 179.239 153.899 180.148C155.005 181.056 154.617 182.549 153.504 183.79Z" fill="#381E3E"/>
<path d="M153.504 183.79C153.504 183.79 153.606 183.592 153.82 183.268C154.114 182.82 154.308 182.313 154.388 181.783C154.436 181.435 154.373 181.081 154.207 180.772C154.009 180.472 153.717 180.116 153.338 180.108C152.893 180.122 152.463 180.271 152.105 180.535C151.685 180.811 151.298 181.135 150.952 181.499C150.631 181.884 150.353 182.302 150.122 182.747C149.892 183.129 149.79 183.574 149.83 184.019C149.877 184.398 150.257 184.651 150.581 184.809C150.906 184.944 151.266 184.972 151.608 184.888C152.126 184.75 152.608 184.502 153.022 184.161C153.322 183.916 153.48 183.766 153.504 183.79C153.527 183.813 153.401 183.995 153.124 184.279C152.724 184.692 152.227 184.999 151.679 185.172C151.242 185.317 150.765 185.286 150.351 185.085C149.936 184.885 149.616 184.53 149.459 184.098C149.389 183.57 149.494 183.035 149.759 182.573C150.002 182.091 150.299 181.638 150.644 181.222C151.018 180.832 151.437 180.487 151.892 180.195C152.323 179.883 152.845 179.722 153.377 179.737C153.824 179.846 154.21 180.125 154.453 180.515C154.697 180.904 154.778 181.374 154.681 181.822C154.571 182.39 154.318 182.92 153.946 183.363C153.693 183.671 153.519 183.805 153.504 183.79Z" fill="#263238"/>
<path d="M146.038 192.993C144.924 194.233 143.478 194.778 142.451 193.783C141.424 192.788 143.336 190.576 143.336 190.576C143.336 190.576 145.335 188.443 146.433 189.351C147.531 190.26 147.152 191.753 146.038 192.993Z" fill="#381E3E"/>
<path d="M146.038 192.993C146.125 192.809 146.231 192.634 146.354 192.472C146.653 192.028 146.85 191.523 146.931 190.994C146.972 190.646 146.906 190.293 146.741 189.983C146.661 189.811 146.54 189.66 146.388 189.544C146.237 189.429 146.06 189.352 145.872 189.32C145.429 189.33 145.001 189.479 144.648 189.746C144.229 190.024 143.84 190.344 143.486 190.702C143.178 191.091 142.913 191.512 142.696 191.958C142.471 192.339 142.369 192.781 142.404 193.222C142.451 193.601 142.831 193.854 143.155 194.012C143.482 194.141 143.84 194.165 144.182 194.083C144.701 193.948 145.183 193.7 145.596 193.357C145.744 193.217 145.905 193.093 146.078 192.985C146.078 192.985 145.983 193.191 145.706 193.475C145.305 193.89 144.805 194.197 144.253 194.368C143.816 194.513 143.339 194.482 142.925 194.281C142.51 194.08 142.19 193.726 142.033 193.293C141.971 192.765 142.079 192.231 142.341 191.769C142.58 191.284 142.878 190.831 143.226 190.418C143.599 190.032 144.015 189.69 144.466 189.399C144.899 189.089 145.419 188.926 145.951 188.933C146.398 189.043 146.784 189.324 147.028 189.715C147.271 190.106 147.352 190.576 147.255 191.026C147.144 191.589 146.894 192.116 146.528 192.559C146.236 192.875 146.062 193.009 146.038 192.993Z" fill="#263238"/>
<path d="M139.955 200.419C138.841 201.659 137.395 202.204 136.368 201.209C135.341 200.214 137.253 197.994 137.253 197.994C137.253 197.994 139.252 195.861 140.35 196.777C141.448 197.694 141.069 199.179 139.955 200.419Z" fill="#381E3E"/>
<path d="M139.955 200.419C139.955 200.419 140.066 200.222 140.271 199.898C140.57 199.451 140.767 198.944 140.848 198.412C140.889 198.064 140.823 197.711 140.658 197.401C140.469 197.101 140.176 196.746 139.789 196.738C139.347 196.752 138.92 196.901 138.565 197.164C137.699 197.691 137.007 198.46 136.574 199.376C136.347 199.76 136.245 200.204 136.282 200.648C136.329 201.027 136.708 201.28 137.072 201.438C137.399 201.565 137.756 201.592 138.099 201.517C138.616 201.378 139.098 201.13 139.513 200.79C139.813 200.545 139.971 200.395 139.995 200.419C140.018 200.443 139.9 200.624 139.623 200.909C139.22 201.322 138.72 201.628 138.17 201.802C137.733 201.944 137.257 201.912 136.843 201.712C136.429 201.512 136.109 201.159 135.95 200.727C135.886 200.199 135.994 199.665 136.258 199.202C136.494 198.716 136.791 198.262 137.143 197.852C137.516 197.463 137.932 197.119 138.383 196.825C138.815 196.514 139.336 196.353 139.868 196.366C140.315 196.475 140.701 196.754 140.944 197.144C141.188 197.534 141.269 198.003 141.172 198.452C141.06 199.018 140.811 199.547 140.445 199.992C140.153 200.301 139.979 200.435 139.955 200.419Z" fill="#263238"/>
<path d="M170.22 219.095C170.255 218.685 170.321 218.278 170.418 217.878C170.568 217.088 170.828 215.99 171.208 214.631C172.186 211.08 173.476 207.622 175.063 204.298C176.653 200.982 178.527 197.811 180.664 194.818C181.493 193.665 182.189 192.764 182.702 192.156C182.936 191.826 183.201 191.519 183.492 191.239C183.293 191.598 183.063 191.939 182.805 192.258C182.331 192.89 181.675 193.838 180.885 194.984C176.746 201.043 173.567 207.705 171.46 214.734C171.057 216.085 170.749 217.183 170.552 217.941C170.473 218.334 170.362 218.72 170.22 219.095Z" fill="#263238"/>
<g opacity="0.3">
<path d="M182.536 192.622C178.175 196.722 175.584 202.331 173.577 207.971C172.487 211.037 171.542 214.149 170.741 217.309C176.5 211.313 179.526 203.271 182.41 195.474C182.789 194.47 183.152 193.309 182.639 192.361" fill="black"/>
</g>
<g opacity="0.3">
<path d="M182.291 136.706C182.463 137.454 182.429 138.235 182.194 138.967C181.959 139.698 181.531 140.352 180.956 140.861C180.956 140.861 123.381 200.261 112.416 212.64C105.558 220.382 106.751 227.003 108.608 230.874C109.285 232.298 110.246 233.568 111.432 234.608C112.618 235.647 114.004 236.433 115.505 236.917C129.677 241.388 142.365 216.195 151.22 210.302C155.352 207.553 159.523 206.557 165.117 208.548C165.117 208.548 158.37 204.922 152.082 207.979C145.793 211.037 130.831 232.232 122.749 233.646C114.667 235.061 108.987 231.466 109.098 225.02C109.06 222.927 109.47 220.851 110.3 218.93C111.13 217.009 112.36 215.288 113.909 213.881C115.544 212.245 133.896 191.705 133.896 191.705C133.896 191.705 181.722 142.678 182.457 141.145C182.824 140.457 183.002 139.683 182.973 138.903C182.944 138.123 182.709 137.365 182.291 136.706Z" fill="black"/>
</g>
<path d="M173.38 194.47C173.38 194.51 172.708 194.249 171.484 193.894C169.755 193.407 167.971 193.142 166.175 193.104C163.503 193.05 160.839 193.407 158.275 194.162C155.146 195.084 152.169 196.463 149.443 198.254C146.733 200.08 144.211 202.171 141.914 204.496C139.781 206.621 137.964 208.675 136.526 210.421C135.089 212.166 133.896 213.58 133.09 214.6L132.15 215.737C132.043 215.872 131.927 215.999 131.802 216.116C131.879 215.961 131.975 215.815 132.087 215.682L132.964 214.505C133.754 213.478 134.86 212.016 136.297 210.239C137.735 208.461 139.513 206.384 141.646 204.227C143.945 201.866 146.481 199.749 149.214 197.907C151.974 196.091 154.995 194.706 158.172 193.799C160.766 193.049 163.462 192.716 166.159 192.811C167.977 192.874 169.776 193.188 171.508 193.744C171.979 193.884 172.441 194.056 172.89 194.257C173.061 194.31 173.225 194.381 173.38 194.47Z" fill="white"/>
<path d="M181.983 150.309C181.912 150.215 182.275 149.859 182.386 149.282C182.497 148.706 182.323 148.24 182.386 148.176C182.449 148.113 182.915 148.611 182.757 149.361C182.599 150.112 182.023 150.42 181.983 150.309Z" fill="white"/>
<path d="M176.248 156.163C176.169 156.076 176.429 155.705 176.5 155.184C176.572 154.662 176.445 154.236 176.548 154.173C176.651 154.109 177.014 154.568 176.911 155.247C176.809 155.926 176.311 156.258 176.248 156.163Z" fill="white"/>
<path d="M169.596 164.142C169.533 164.04 169.959 163.684 170.109 163.068C170.259 162.452 170.109 161.93 170.204 161.875C170.299 161.82 170.378 161.954 170.473 162.191C170.585 162.507 170.599 162.849 170.511 163.172C170.424 163.496 170.239 163.784 169.983 164C169.785 164.158 169.62 164.182 169.596 164.142Z" fill="white"/>
<path d="M164.413 169.743C164.358 169.641 164.808 169.309 165.022 168.693C165.235 168.076 165.117 167.539 165.227 167.492C165.338 167.444 165.693 168.061 165.409 168.835C165.124 169.609 164.437 169.862 164.413 169.743Z" fill="white"/>
<path d="M158.836 176.427C158.765 176.34 158.931 176.055 159.018 175.692C159.105 175.329 159.105 174.997 159.215 174.957C159.326 174.918 159.547 175.297 159.421 175.795C159.294 176.292 158.907 176.49 158.836 176.427Z" fill="white"/>
<path d="M152.413 183.442C152.358 183.347 152.737 182.992 152.769 182.399C152.8 181.807 152.516 181.404 152.595 181.325C152.674 181.246 152.777 181.325 152.935 181.53C153.121 181.795 153.208 182.116 153.181 182.438C153.153 182.761 153.013 183.063 152.785 183.292C152.603 183.458 152.445 183.481 152.413 183.442Z" fill="white"/>
<path d="M144.987 192.922C144.877 192.875 144.987 192.393 145.264 191.84C145.54 191.287 145.809 190.884 145.912 190.931C146.014 190.979 145.912 191.46 145.635 192.013C145.359 192.566 145.09 192.969 144.987 192.922Z" fill="white"/>
<path d="M184.037 142.038C184.567 141.094 184.928 140.065 185.104 138.997C185.156 137.928 185.02 136.858 184.701 135.837C184.748 135.837 184.993 136.105 185.214 136.69C185.499 137.445 185.602 138.257 185.514 139.06C185.431 139.869 185.16 140.648 184.724 141.335C184.377 141.833 184.069 142.078 184.037 142.038Z" fill="white"/>
<path d="M163.063 113.408C163.781 113.124 163.268 111.828 162.865 111.189C163.494 111.597 164.245 111.776 164.99 111.694C165.198 111.658 165.384 111.545 165.512 111.378C165.741 111.046 165.551 110.588 165.338 110.256C164.988 109.716 164.563 109.229 164.074 108.811L161.404 111.268C161.404 111.268 161.854 113.906 163.063 113.408Z" fill="#FFBE9D"/>
<path d="M164.153 109.664C164.153 109.664 164.54 109.822 164.943 110.312C165.245 110.599 165.441 110.981 165.496 111.394C165.49 111.548 165.432 111.696 165.33 111.813C165.229 111.916 165.104 111.992 164.966 112.034C164.713 112.122 164.44 112.141 164.176 112.089C163.699 112.007 163.249 111.809 162.865 111.512L163.134 111.26C163.758 112.532 163.268 113.519 163.134 113.424C162.999 113.329 163.189 113.211 163.134 112.848C163.115 112.364 162.985 111.891 162.754 111.465C162.728 111.421 162.72 111.368 162.731 111.318C162.743 111.268 162.774 111.224 162.818 111.196C162.849 111.179 162.884 111.17 162.92 111.17C162.956 111.17 162.992 111.179 163.023 111.196C163.37 111.44 163.767 111.605 164.184 111.678C164.595 111.757 165.077 111.623 165.061 111.37C165.012 111.044 164.873 110.737 164.658 110.485C164.398 109.98 164.113 109.711 164.153 109.664Z" fill="#EB996E"/>
<path d="M153.993 186.12C153.683 185.215 153.309 184.333 152.872 183.482C152.578 182.752 152.082 182.122 151.442 181.665C151.114 181.449 150.715 181.368 150.329 181.44C149.943 181.513 149.6 181.732 149.372 182.052C149.185 182.502 149.171 183.006 149.332 183.466C149.576 184.361 149.986 185.203 150.541 185.946C149.972 185.504 149.538 184.904 148.961 184.516C148.674 184.299 148.319 184.192 147.96 184.214C147.6 184.235 147.261 184.385 147.002 184.635C146.559 185.212 146.868 186.049 147.247 186.681C147.774 187.537 148.394 188.331 149.095 189.051C149.317 189.274 149.59 189.44 149.89 189.534C150.19 189.627 150.508 189.646 150.818 189.588C150.983 189.593 151.145 189.533 151.268 189.422C151.353 189.301 151.402 189.159 151.41 189.012C151.495 188.333 151.522 187.648 151.489 186.965C151.797 187.346 152.182 187.659 152.619 187.882C152.84 187.988 153.089 188.023 153.331 187.982C153.573 187.941 153.796 187.826 153.97 187.653C154.096 187.418 154.164 187.156 154.168 186.889C154.172 186.623 154.112 186.359 153.993 186.12Z" fill="#FFBE9D"/>
<path d="M155.668 180.322C155.509 180.053 155.303 179.814 155.06 179.618C154.862 179.475 154.629 179.386 154.385 179.362C154.141 179.338 153.896 179.379 153.673 179.482C153.45 179.584 153.259 179.743 153.118 179.943C152.977 180.144 152.892 180.378 152.872 180.622C152.861 181.077 152.973 181.527 153.195 181.925C153.428 182.514 153.774 183.051 154.215 183.505C154.373 183.804 154.628 184.04 154.938 184.175C155.248 184.31 155.594 184.335 155.921 184.248C156.073 184.22 156.216 184.158 156.34 184.066C156.452 183.966 156.542 183.845 156.606 183.709C156.67 183.573 156.705 183.426 156.711 183.276C156.721 182.199 156.352 181.154 155.668 180.322Z" fill="#FFBE9D"/>
<path d="M149.253 189.778C148.932 188.748 148.261 187.862 147.357 187.273C147.124 187.068 146.857 186.905 146.567 186.792C146.335 186.72 146.088 186.709 145.85 186.76C145.612 186.812 145.391 186.923 145.209 187.084C145.029 187.249 144.896 187.459 144.822 187.692C144.749 187.925 144.738 188.173 144.79 188.411C144.919 188.85 145.165 189.246 145.501 189.557C145.899 190.046 146.39 190.452 146.947 190.75C147.188 190.987 147.504 191.136 147.842 191.17C148.179 191.205 148.518 191.123 148.803 190.939C148.939 190.865 149.058 190.763 149.151 190.639C149.294 190.376 149.331 190.067 149.253 189.778Z" fill="#FFBE9D"/>
<path d="M149.159 189.193C149.072 189.264 148.716 188.94 148.321 188.514C147.926 188.087 147.658 187.724 147.737 187.613C147.816 187.503 148.226 187.795 148.629 188.237C149.032 188.68 149.253 189.13 149.159 189.193Z" fill="#AA6550"/>
<path d="M151.655 187.06C151.552 187.06 151.315 186.831 150.904 186.57C150.494 186.31 150.193 185.883 150.304 185.78C150.415 185.678 150.699 185.915 151.141 186.199C151.584 186.483 151.781 187.029 151.655 187.06Z" fill="#AA6550"/>
<path d="M113.664 201.509L125.372 199.202L132.774 202.189L135.341 205.562C135.341 205.562 135.428 209.235 134.678 209.512C134.504 209.562 134.32 209.571 134.142 209.538C133.964 209.506 133.796 209.433 133.65 209.326C133.504 209.218 133.385 209.078 133.302 208.918C133.218 208.757 133.173 208.579 133.169 208.398V207.095L132.339 206.85L132.071 211.345C132.053 211.632 131.926 211.901 131.716 212.098C131.506 212.295 131.229 212.404 130.941 212.403H130.72L130.554 215.476C130.554 215.476 130.222 215.974 129.227 215.476C128.433 214.916 127.781 214.177 127.323 213.32L126.825 211.495L124.25 208.509C124.25 208.509 127.987 215.224 127.568 216.306C127.149 217.388 126.572 217.633 125.988 217.214C125.403 216.796 121.509 210.104 121.509 210.104C121.509 210.104 117.946 209.694 117.693 209.607C117.44 209.52 110.891 211.297 109.982 210.713L106.822 208.722L113.664 201.509Z" fill="#FFBE9D"/>
<path d="M124.163 204.788C124.746 204.734 125.332 204.864 125.838 205.159C127.068 205.816 128.12 206.762 128.903 207.916C129.719 209.041 130.279 210.329 130.546 211.692C130.692 212.249 130.716 212.831 130.617 213.399C130.546 213.399 130.53 212.751 130.262 211.756C129.921 210.461 129.345 209.24 128.563 208.153C127.815 207.05 126.84 206.118 125.703 205.42C125.205 205.174 124.69 204.963 124.163 204.788Z" fill="#AA6550"/>
<path d="M127.181 201.888C127.662 202.019 128.125 202.213 128.555 202.465L129.985 203.184L130.831 203.626C131.154 203.779 131.454 203.976 131.723 204.211C131.959 204.479 132.136 204.793 132.243 205.133C132.351 205.473 132.386 205.832 132.347 206.186C132.347 206.739 132.308 207.276 132.284 207.766C132.308 208.264 132.255 208.762 132.126 209.243C132.015 208.759 131.972 208.262 132 207.766C132 207.245 132 206.715 132 206.186C132.052 205.58 131.862 204.977 131.47 204.511C130.954 204.14 130.41 203.81 129.843 203.524L128.445 202.734C127.984 202.515 127.559 202.23 127.181 201.888Z" fill="#AA6550"/>
<path d="M116.855 113.1C116.855 113.1 108.086 113.566 103.647 119.42C99.2069 125.274 74.2508 155.041 75.0487 161.875C75.8466 168.708 85.0659 191.761 91.5834 198.76C95.7494 203.143 100.497 206.933 105.693 210.026L113.846 201.572L104.934 186.831C104.934 186.831 103.82 180.314 103.504 179.721C103.188 179.129 101.134 178.449 101.134 178.449L97.6348 163.186L99.2148 162.87L119.249 143.476L125.767 140.616C125.767 140.616 134.638 129.912 130.214 120.076C126.557 111.994 121.864 113.898 116.855 113.1Z" fill="#455A64"/>
<path d="M87.27 155.681C87.27 155.681 87.4596 155.634 87.8072 155.634C88.2976 155.631 88.787 155.676 89.2687 155.768C90.8748 156.063 92.3946 156.713 93.7164 157.672C95.0352 158.639 96.1272 159.882 96.9159 161.314C97.1557 161.743 97.3566 162.192 97.5163 162.657C97.6269 162.981 97.6743 163.171 97.6427 163.178C97.6111 163.186 97.303 162.491 96.6631 161.456C95.8355 160.118 94.7635 158.947 93.5031 158.004C92.2219 157.082 90.7727 156.419 89.2371 156.053C88.0047 155.776 87.27 155.753 87.27 155.681Z" fill="#263238"/>
<path d="M122.03 139.889C122.03 139.889 121.904 140.047 121.635 140.324L120.45 141.556L115.884 146.225L99.3333 162.981H99.2938H99.2464L97.6664 163.305L97.8007 163.092C98.8672 167.745 100.06 172.895 101.316 178.346L101.182 178.204C101.992 178.433 102.759 178.796 103.449 179.279C103.544 179.365 103.624 179.466 103.686 179.579C103.732 179.683 103.769 179.792 103.797 179.903C103.86 180.108 103.899 180.314 103.955 180.511L104.215 181.743C104.542 183.397 104.85 185.077 105.14 186.784V186.713L112.416 198.744C112.961 199.645 113.506 200.553 114.051 201.446L114.13 201.58L114.019 201.699L105.867 210.152L105.756 210.27L105.622 210.191C102.126 208.103 98.8283 205.699 95.7704 203.01C94.3223 201.753 92.9405 200.421 91.6308 199.021C90.4071 197.657 89.3073 196.187 88.3444 194.628C85.1321 189.292 82.3681 183.698 80.081 177.904C78.5029 174.094 77.1394 170.198 75.9967 166.236C75.7992 165.541 75.6333 164.916 75.5148 164.379C75.3963 163.842 75.2778 163.376 75.2304 163.005C75.183 162.633 75.1356 162.357 75.1119 162.151C75.0996 162.054 75.0996 161.956 75.1119 161.859C75.1396 161.952 75.1607 162.047 75.1751 162.144C75.1751 162.349 75.2699 162.633 75.3331 162.989C75.3963 163.344 75.5306 163.779 75.657 164.348C75.7834 164.916 75.9572 165.509 76.1626 166.196C77.3571 170.134 78.7547 174.008 80.3496 177.801C82.6714 183.563 85.4561 189.127 88.6762 194.439C89.6302 195.976 90.7194 197.425 91.931 198.768C93.2029 200.127 94.5854 201.438 96.0469 202.718C99.0939 205.379 102.375 207.758 105.851 209.828L105.614 209.867L113.759 201.399V201.651C113.221 200.759 112.676 199.85 112.123 198.95L104.855 186.918C104.563 185.212 104.263 183.529 103.931 181.886C103.852 181.475 103.765 181.096 103.678 180.669C103.631 180.464 103.583 180.266 103.528 180.077C103.506 179.987 103.477 179.9 103.441 179.816C103.401 179.748 103.351 179.686 103.291 179.634C102.648 179.189 101.935 178.852 101.182 178.639H101.071V178.528L97.5953 163.265V163.092H97.7691L99.3491 162.776L99.2622 162.823L115.71 146.083L120.339 141.485C120.861 140.972 121.272 140.569 121.564 140.292L122.03 139.889Z" fill="#263238"/>
<path d="M130.996 125.385C130.917 125.385 131.036 124.303 130.744 122.612C130.377 120.399 129.41 118.329 127.949 116.627C126.488 114.925 124.588 113.656 122.457 112.958C120.821 112.413 119.731 112.374 119.747 112.295C120.008 112.25 120.275 112.25 120.537 112.295C121.228 112.351 121.911 112.481 122.575 112.682C124.791 113.34 126.774 114.614 128.295 116.355C129.794 118.116 130.754 120.272 131.06 122.565C131.159 123.25 131.185 123.944 131.139 124.634C131.134 124.891 131.086 125.145 130.996 125.385Z" fill="#263238"/>
</svg>
