<svg width="348" height="334" viewBox="0 0 348 334" fill="none" xmlns="http://www.w3.org/2000/svg">
<path d="M309.934 157.708C316.976 157.708 322.684 151.999 322.684 144.957C322.684 137.915 316.976 132.207 309.934 132.207C302.892 132.207 297.183 137.915 297.183 144.957C297.183 151.999 302.892 157.708 309.934 157.708Z" fill="#D7D2D8"/>
<path d="M176.345 49.2567C178.415 51.3945 180.895 53.0927 183.636 54.2495C196 59.9217 208.774 58.3654 219.005 52.8117C233.343 45.0302 238.202 37.3514 239.584 24.8773C241.093 17.4592 232.577 2.95485 225.364 1.48545C219.21 0.237252 212.969 0.490052 209.201 5.00095C204.192 10.9892 202.636 21.2592 195.494 23.9057C191.442 25.3988 186.504 23.9925 182.143 24.6245C179.809 24.9441 177.622 25.9496 175.86 27.5135C174.097 29.0775 172.839 31.1295 172.245 33.4094C170.87 38.3469 172.45 44.9749 176.345 49.2567Z" fill="#D7D2D8"/>
<path d="M236.44 214.596C233.067 206.649 226.415 201 215.987 199.42L216.216 199.491C209.383 197.944 202.303 197.831 195.423 199.159C187.342 200.739 179.544 204.444 173.856 210.401C168.168 216.358 164.755 224.7 165.553 232.884C166.58 243.51 175.104 252.974 185.556 255.107C193.59 256.742 203.537 252.903 205.164 244.837C205.551 242.902 205.44 240.887 205.954 238.975C207.455 232.995 214.533 229.835 220.648 230.625C223.603 230.996 226.533 232.079 229.472 231.613C232.972 231.06 235.879 228.255 237.056 224.921C238.124 221.52 237.904 217.846 236.44 214.596Z" fill="#D7D2D8"/>
<path d="M77.8001 59.9059C87.233 59.9059 94.8799 52.259 94.8799 42.8261C94.8799 33.3932 87.233 25.7463 77.8001 25.7463C68.3672 25.7463 60.7203 33.3932 60.7203 42.8261C60.7203 52.259 68.3672 59.9059 77.8001 59.9059Z" fill="#D7D2D8"/>
<path d="M286.344 50.339C290.494 50.339 293.857 46.9754 293.857 42.8261C293.857 38.6769 290.494 35.3132 286.344 35.3132C282.195 35.3132 278.831 38.6769 278.831 42.8261C278.831 46.9754 282.195 50.339 286.344 50.339Z" fill="#D7D2D8"/>
<path d="M172.64 113.713C172.329 112.729 171.758 111.847 170.988 111.16C170.217 110.473 169.276 110.007 168.263 109.81C167.321 109.669 166.362 109.691 165.427 109.873C161.477 110.529 157.582 112.939 156.16 116.699C154.959 119.65 154.588 122.874 155.086 126.021C155.15 127.225 155.403 128.411 155.836 129.537C156.71 131.399 158.228 132.884 160.11 133.716C160.961 133.991 161.874 134.006 162.733 133.758C163.591 133.51 164.356 133.011 164.929 132.325C165.487 131.629 165.903 130.83 166.153 129.973C166.402 129.117 166.48 128.219 166.383 127.332C166.288 126.084 165.94 124.804 166.383 123.627C167.078 121.573 169.59 120.878 171.17 119.385C171.903 118.66 172.427 117.75 172.685 116.751C172.944 115.753 172.928 114.703 172.64 113.713Z" fill="#D7D2D8"/>
<path d="M347.996 332.93C347.996 333.041 270.102 333.135 174.038 333.135C77.9739 333.135 0.0640869 333.009 0.0640869 332.93C0.0640869 332.851 77.9423 332.725 174.038 332.725C270.133 332.725 347.996 332.788 347.996 332.93Z" fill="#263238"/>
<path d="M287.64 261.506C287.514 254.738 284.902 248.254 280.301 243.289C278.089 252.429 287.64 261.506 287.64 261.506Z" fill="#381E3E"/>
<path d="M276.991 256.347C270.734 253.77 263.749 253.576 257.359 255.802C264.88 261.482 276.991 256.347 276.991 256.347Z" fill="#381E3E"/>
<path d="M275.782 250.422C276.793 245.182 275.843 239.753 273.112 235.167C269.897 241.867 275.782 250.422 275.782 250.422Z" fill="#CEAB5E"/>
<path d="M316.949 229.061C301.386 233.2 293.036 246.733 293.036 246.733C306.339 246.741 316.949 229.061 316.949 229.061Z" fill="#381E3E"/>
<path d="M292.095 235.436C292.885 218.664 276.509 199.673 276.509 199.673C278.981 220.505 292.095 235.436 292.095 235.436Z" fill="#381E3E"/>
<path d="M292.174 187.665C291.85 196.066 293.889 204.389 298.06 211.689C300.383 200.897 292.174 187.665 292.174 187.665Z" fill="#381E3E"/>
<path d="M298.495 221.745C310.755 220.426 317.455 208.229 317.455 208.229C302.595 212.384 298.495 221.745 298.495 221.745Z" fill="#CEAB5E"/>
<path d="M324.92 273.024C319.169 269.461 312.307 268.139 305.644 269.311C312.138 276.129 324.92 273.024 324.92 273.024Z" fill="#381E3E"/>
<path d="M293.162 278.531C294.726 282.503 297.649 285.792 301.41 287.813C300.88 282.157 293.162 278.531 293.162 278.531Z" fill="#CEAB5E"/>
<path d="M294.742 276.729C301.718 281.019 309.412 279.344 309.412 279.344C304.688 274.423 294.742 276.729 294.742 276.729Z" fill="#381E3E"/>
<path d="M288.469 299.308C288.469 299.308 288.469 299.221 288.469 299.055C288.469 298.889 288.469 298.62 288.469 298.328C288.469 297.633 288.469 296.701 288.469 295.516C288.469 294.331 288.469 292.798 288.469 291.068C288.469 289.338 288.469 287.363 288.596 285.182C288.699 280.822 289.015 275.631 289.457 269.888C289.899 264.145 290.65 257.84 291.614 251.252C293.549 238.083 296.204 226.304 298.329 217.851C299.403 213.616 300.304 210.203 300.967 207.857C301.275 206.712 301.52 205.803 301.694 205.14C301.765 204.855 301.828 204.626 301.876 204.429C301.939 204.349 301.984 204.258 302.01 204.16C301.97 204.233 301.939 204.31 301.915 204.389C301.852 204.579 301.781 204.808 301.686 205.084L300.857 207.77C300.13 210.14 299.166 213.506 298.044 217.724C295.14 228.731 292.843 239.89 291.163 251.149C290.2 257.746 289.52 264.066 289.046 269.825C288.572 275.584 288.359 280.782 288.304 285.151C288.232 287.331 288.256 289.306 288.256 291.044C288.256 292.782 288.256 294.275 288.327 295.492C288.398 296.708 288.398 297.617 288.422 298.304L288.462 299.031C288.454 299.123 288.457 299.216 288.469 299.308Z" fill="#263238"/>
<path d="M310.984 263.797C310.898 263.671 305.936 266.957 299.924 271.057C293.913 275.157 289.078 278.641 289.165 278.767C289.252 278.894 294.205 275.607 300.225 271.507C306.244 267.407 311.063 263.923 310.984 263.797Z" fill="#263238"/>
<path d="M289.149 265.59C288.923 265.278 288.657 264.996 288.359 264.753L286.21 262.62L278.839 255.707L271.469 248.795L269.233 246.701C268.975 246.427 268.686 246.183 268.372 245.975C268.567 246.298 268.807 246.593 269.083 246.852C269.565 247.389 270.292 248.147 271.2 249.071C273.017 250.92 275.577 253.409 278.468 256.11C281.359 258.812 283.998 261.198 285.949 262.904C286.921 263.758 287.719 264.445 288.28 264.903C288.54 265.167 288.832 265.397 289.149 265.59Z" fill="#263238"/>
<path d="M326.729 255.85C326.729 255.85 314.05 255.613 308.693 265.582C312.25 265.477 315.733 264.542 318.864 262.853C321.996 261.163 324.689 258.765 326.729 255.85Z" fill="#381E3E"/>
<path d="M309.42 250.77C309.42 250.77 299.095 258.133 300.73 269.335C303.526 267.133 305.769 264.307 307.278 261.083C308.786 257.86 309.52 254.328 309.42 250.77Z" fill="#381E3E"/>
<path d="M255.06 232.6C255.06 232.6 259.137 246.82 272.069 249.34C270.736 245.417 268.503 241.86 265.55 238.953C262.597 236.046 259.004 233.871 255.06 232.6Z" fill="#381E3E"/>
<path d="M315.045 179.883C315.045 179.883 298.85 190.43 300.667 207.589C305.058 204.411 308.644 200.251 311.141 195.441C313.637 190.63 314.974 185.303 315.045 179.883Z" fill="#381E3E"/>
<path d="M261.23 273.68C261.548 273.997 261.901 274.278 262.281 274.517C262.976 275.023 263.972 275.781 265.18 276.737C268.321 279.231 271.249 281.982 273.933 284.961C276.607 287.954 279.03 291.161 281.178 294.552C281.968 295.855 282.647 296.922 283.074 297.672C283.272 298.078 283.516 298.46 283.801 298.81C283.665 298.379 283.485 297.963 283.263 297.57C282.892 296.78 282.3 295.681 281.51 294.346C277.371 287.377 271.903 281.29 265.417 276.429C264.177 275.505 263.142 274.794 262.399 274.344C262.035 274.081 261.643 273.858 261.23 273.68Z" fill="#263238"/>
<path d="M275.3 284.234C276.471 277.571 275.149 270.71 271.587 264.958C269.849 276.982 275.3 284.234 275.3 284.234Z" fill="#381E3E"/>
<path d="M264.422 278.301C260.143 275.868 255.119 275.09 250.305 276.113C258.11 280.261 264.422 278.301 264.422 278.301Z" fill="#CEAB5E"/>
<path d="M274.234 331.476L300.888 331.445L308.449 296.021H268.704L274.234 331.476Z" fill="#263238"/>
<path d="M266.065 302.144H310.969V296.029H266.065V302.144Z" fill="#263238"/>
<path d="M266.357 302.12C266.357 302.231 276.398 302.325 288.778 302.325C301.157 302.325 311.206 302.231 311.206 302.12C311.206 302.009 301.165 301.915 288.778 301.915C276.39 301.915 266.357 302.041 266.357 302.12Z" fill="#455A64"/>
<path d="M247.184 134.008C251.79 133.392 255.511 129.687 257.454 125.468C259.397 121.249 259.958 116.541 260.551 111.927C261.143 107.314 261.862 102.59 264.129 98.4974C266.397 94.4052 270.576 91.1188 275.229 91.182C279.882 91.2452 284.385 95.6692 283.437 100.22C282.173 106.39 273.57 107.78 270.41 113.231C268.522 116.502 268.964 120.657 267.416 124.101C265.867 127.546 262.447 129.86 258.836 130.974C255.226 132.088 250.936 133.937 247.176 134.008" fill="#381E3E"/>
<path d="M162.133 172.56C169.164 175.886 178.651 171.975 181.29 164.66C183.518 158.49 181.29 151.151 184.411 145.368C189.514 135.888 204.311 137.468 212.061 130.011C216.919 125.334 218.041 118.042 218.286 111.303C218.531 104.565 218.27 97.51 221.161 91.3954C224.053 85.2808 231.605 80.7699 237.633 83.7798C240.793 85.3598 242.799 88.6067 244.174 91.8694C246.57 97.5503 247.592 103.717 247.155 109.867C246.718 116.017 244.836 121.977 241.661 127.262C238.486 132.547 234.108 137.008 228.883 140.282C223.659 143.556 217.735 145.55 211.594 146.103C207.076 146.506 202.02 146.293 198.631 149.318C195.06 152.478 194.878 157.906 193.219 162.393C192.196 165.104 190.588 167.558 188.51 169.578C186.432 171.599 183.935 173.138 181.195 174.085C175.721 175.933 166.975 175.617 162.133 172.505" fill="#381E3E"/>
<path d="M254.341 75.232C258.294 75.232 261.499 72.0276 261.499 68.0746C261.499 64.1217 258.294 60.9172 254.341 60.9172C250.388 60.9172 247.184 64.1217 247.184 68.0746C247.184 72.0276 250.388 75.232 254.341 75.232Z" fill="#381E3E"/>
<g opacity="0.9">
<path d="M247.184 134.008C251.79 133.392 255.511 129.687 257.454 125.468C259.397 121.249 259.958 116.541 260.551 111.927C261.143 107.314 261.862 102.59 264.129 98.4974C266.397 94.4052 270.576 91.1188 275.229 91.182C279.882 91.2452 284.385 95.6692 283.437 100.22C282.173 106.39 273.57 107.78 270.41 113.231C268.522 116.502 268.964 120.657 267.416 124.101C265.867 127.546 262.447 129.86 258.836 130.974C255.226 132.088 250.936 133.937 247.176 134.008" fill="white"/>
</g>
<g opacity="0.9">
<path d="M162.133 172.56C169.164 175.886 178.651 171.975 181.29 164.66C183.518 158.49 181.29 151.151 184.411 145.368C189.514 135.888 204.311 137.468 212.061 130.011C216.919 125.334 218.041 118.042 218.286 111.303C218.531 104.565 218.27 97.51 221.161 91.3954C224.053 85.2808 231.605 80.7699 237.633 83.7798C240.793 85.3598 242.799 88.6067 244.174 91.8694C246.57 97.5503 247.592 103.717 247.155 109.867C246.718 116.017 244.836 121.977 241.661 127.262C238.486 132.547 234.108 137.008 228.883 140.282C223.659 143.556 217.735 145.55 211.594 146.103C207.076 146.506 202.02 146.293 198.631 149.318C195.06 152.478 194.878 157.906 193.219 162.393C192.196 165.104 190.588 167.558 188.51 169.578C186.432 171.599 183.935 173.138 181.195 174.085C175.721 175.933 166.975 175.617 162.133 172.505" fill="white"/>
</g>
<g opacity="0.9">
<path d="M254.341 75.232C258.294 75.232 261.499 72.0276 261.499 68.0746C261.499 64.1217 258.294 60.9172 254.341 60.9172C250.388 60.9172 247.184 64.1217 247.184 68.0746C247.184 72.0276 250.388 75.232 254.341 75.232Z" fill="white"/>
</g>
<path d="M203.75 167.978C210.188 160.544 217.907 152.486 227.742 152.518C234.599 152.518 241.133 156.634 247.927 155.733C256.103 154.651 263.3 146.49 271.2 149.01C276.849 150.803 279.519 158.071 277.457 163.625C275.395 169.179 269.715 172.821 263.869 173.792C258.023 174.764 252.019 173.484 246.394 171.636C240.769 169.787 235.334 167.385 229.528 166.035C221.355 164.129 212.828 164.385 204.785 166.777" fill="#381E3E"/>
<g opacity="0.9">
<path d="M203.75 167.978C210.188 160.544 217.907 152.486 227.742 152.518C234.599 152.518 241.133 156.634 247.927 155.733C256.103 154.651 263.3 146.49 271.2 149.01C276.849 150.803 279.519 158.071 277.457 163.625C275.395 169.179 269.715 172.821 263.869 173.792C258.023 174.764 252.019 173.484 246.394 171.636C240.769 169.787 235.334 167.385 229.528 166.035C221.355 164.129 212.828 164.385 204.785 166.777" fill="white"/>
</g>
<path d="M196.379 152.873C196.631 153.644 196.649 154.472 196.43 155.253C196.211 156.033 195.766 156.732 195.15 157.259C194.535 157.787 193.777 158.12 192.972 158.217C192.167 158.314 191.351 158.17 190.628 157.804C189.905 157.437 189.307 156.864 188.909 156.158C188.511 155.451 188.332 154.643 188.394 153.834C188.455 153.026 188.755 152.254 189.256 151.616C189.756 150.978 190.434 150.503 191.205 150.25C191.717 150.083 192.257 150.017 192.794 150.058C193.331 150.099 193.855 150.246 194.335 150.489C194.816 150.733 195.244 151.069 195.595 151.478C195.945 151.887 196.212 152.361 196.379 152.873Z" fill="#CEAB5E"/>
<path d="M195.36 151.759C195.226 151.965 191.623 149.571 187.816 145.898C184.008 142.224 181.014 139.254 181.148 139.08C181.282 138.906 184.663 141.576 188.44 145.242C192.216 148.907 195.534 151.554 195.36 151.759Z" fill="#CEAB5E"/>
<path d="M186.946 132.412C187.183 132.412 187.025 134.719 185.295 136.844C183.565 138.969 181.345 139.625 181.306 139.396C181.266 139.167 183.052 138.211 184.592 136.236C186.133 134.261 186.67 132.357 186.946 132.412Z" fill="#CEAB5E"/>
<path d="M189.83 135.525C190.075 135.525 190.012 137.808 188.171 139.759C186.33 141.71 184.063 141.955 184.071 141.718C184.079 141.481 185.927 140.889 187.515 139.143C189.103 137.397 189.585 135.477 189.83 135.525Z" fill="#CEAB5E"/>
<path d="M261.396 90.9529C261.524 91.3434 261.533 91.763 261.423 92.1587C261.312 92.5544 261.087 92.9084 260.775 93.1761C260.463 93.4437 260.079 93.6129 259.671 93.6623C259.263 93.7117 258.85 93.639 258.484 93.4535C258.117 93.268 257.814 92.978 257.612 92.6201C257.41 92.2622 257.319 91.8525 257.35 91.4428C257.381 91.0332 257.533 90.6419 257.786 90.3184C258.039 89.995 258.383 89.7539 258.773 89.6257C259.033 89.5405 259.306 89.5073 259.578 89.5279C259.851 89.5485 260.116 89.6226 260.36 89.7458C260.603 89.8691 260.82 90.0391 260.998 90.2462C261.176 90.4534 261.311 90.6935 261.396 90.9529Z" fill="#381E3E"/>
<path d="M260.93 90.4001C259.512 89.6099 258.223 88.6083 257.106 87.4297C255.904 86.3552 254.777 85.1991 253.733 83.9695C253.82 83.8668 255.511 85.2414 257.422 87.1295C259.334 89.0176 260.969 90.2895 260.93 90.4001Z" fill="#381E3E"/>
<path d="M256.617 80.5881C256.587 81.408 256.292 82.1962 255.777 82.8343C255.261 83.4725 254.552 83.9262 253.757 84.1273C253.701 84.0009 254.642 83.5269 255.424 82.5473C256.206 81.5677 256.482 80.5565 256.617 80.5881Z" fill="#381E3E"/>
<path d="M258.086 82.1682C258.212 82.1682 258.181 83.3216 257.249 84.3091C257.006 84.6278 256.691 84.8842 256.33 85.0573C255.969 85.2303 255.571 85.3151 255.171 85.3045C255.171 85.1702 256.111 84.8858 256.909 84.001C257.707 83.1162 257.952 82.1366 258.086 82.1682Z" fill="#381E3E"/>
<path d="M197.209 96.0248C196.535 96.4921 195.737 96.7492 194.917 96.7634C194.097 96.7776 193.291 96.5484 192.602 96.1047C191.912 95.661 191.369 95.0228 191.042 94.2708C190.715 93.5187 190.618 92.6866 190.764 91.8795C190.91 91.0724 191.291 90.3267 191.861 89.7365C192.43 89.1463 193.162 88.7383 193.963 88.5639C194.765 88.3895 195.6 88.4565 196.363 88.7567C197.126 89.0568 197.783 89.5764 198.251 90.2499C198.877 91.1545 199.119 92.2704 198.924 93.3529C198.728 94.4355 198.111 95.3963 197.209 96.0248Z" fill="#381E3E"/>
<path d="M197.999 94.7449C197.619 94.6185 198.789 90.3841 201.277 85.6283C203.766 80.8725 205.867 77.1911 206.215 77.3333C206.562 77.4755 205.03 81.5756 202.565 86.2761C200.1 90.9766 198.378 94.8713 197.999 94.7449Z" fill="#381E3E"/>
<path d="M216.745 85.6601C216.745 85.9919 213.277 85.9524 209.77 83.6456C208.245 82.6999 207.014 81.3486 206.215 79.743C205.622 78.4711 205.772 77.5468 205.946 77.5389C206.12 77.531 206.38 78.2657 207.099 79.2374C208.053 80.5087 209.228 81.5979 210.567 82.4527C213.704 84.5383 216.848 85.2256 216.745 85.6601Z" fill="#381E3E"/>
<path d="M207.739 104.359C207.065 104.826 206.267 105.081 205.447 105.094C204.627 105.107 203.822 104.877 203.133 104.432C202.444 103.988 201.902 103.349 201.576 102.596C201.25 101.844 201.154 101.012 201.301 100.205C201.448 99.3981 201.83 98.6529 202.401 98.0635C202.971 97.4742 203.703 97.067 204.504 96.8936C205.306 96.7202 206.141 96.7883 206.903 97.0892C207.666 97.3902 208.323 97.9105 208.79 98.5844C209.101 99.0325 209.32 99.5374 209.435 100.07C209.55 100.603 209.559 101.153 209.462 101.69C209.364 102.226 209.162 102.738 208.866 103.196C208.571 103.654 208.188 104.049 207.739 104.359Z" fill="#381E3E"/>
<path d="M208.537 103.08C208.15 102.953 209.327 98.7188 211.816 93.963C214.304 89.2072 216.406 85.5258 216.753 85.668C217.101 85.8102 215.56 89.9104 213.103 94.6109C210.646 99.3114 208.908 103.206 208.537 103.08Z" fill="#381E3E"/>
<path d="M215.56 88.2356C215.56 88.6148 212.282 88.7886 208.916 86.7425C205.551 84.6964 204.137 81.726 204.477 81.5759C204.816 81.4258 206.61 83.7168 209.659 85.5259C212.708 87.335 215.6 87.8169 215.56 88.2356Z" fill="#381E3E"/>
<path d="M225.317 146.948C225.054 147.517 224.628 147.995 224.093 148.321C223.558 148.647 222.938 148.806 222.312 148.779C221.686 148.752 221.082 148.539 220.577 148.168C220.072 147.797 219.689 147.284 219.476 146.695C219.264 146.106 219.231 145.467 219.382 144.859C219.534 144.251 219.862 143.701 220.327 143.281C220.791 142.86 221.37 142.587 221.989 142.495C222.609 142.404 223.242 142.5 223.808 142.769C224.559 143.127 225.138 143.766 225.421 144.549C225.703 145.331 225.666 146.193 225.317 146.948Z" fill="#381E3E"/>
<path d="M225.38 145.811C225.08 145.874 224.25 142.651 224.061 138.59C223.871 134.53 223.855 131.314 224.132 131.275C224.408 131.235 224.969 134.506 225.143 138.527C225.317 142.548 225.641 145.748 225.38 145.811Z" fill="#381E3E"/>
<path d="M234.173 132.728C234.299 132.949 232.008 134.237 228.84 134.063C227.482 134.022 226.161 133.607 225.025 132.863C224.156 132.246 223.895 131.591 224.005 131.52C224.116 131.448 224.566 131.835 225.412 132.191C226.519 132.661 227.702 132.929 228.903 132.981C231.747 133.147 234.07 132.396 234.173 132.728Z" fill="#381E3E"/>
<path d="M235.389 148.402C235.126 148.971 234.7 149.448 234.165 149.774C233.63 150.1 233.01 150.26 232.384 150.233C231.758 150.205 231.155 149.993 230.65 149.622C230.145 149.251 229.762 148.738 229.549 148.149C229.336 147.559 229.303 146.92 229.455 146.312C229.606 145.704 229.935 145.155 230.399 144.734C230.863 144.313 231.442 144.04 232.062 143.949C232.682 143.858 233.315 143.953 233.88 144.223C234.631 144.581 235.211 145.22 235.493 146.002C235.776 146.785 235.738 147.647 235.389 148.402Z" fill="#381E3E"/>
<path d="M235.421 147.28C235.129 147.351 234.291 144.12 234.102 140.06C233.912 135.999 233.896 132.792 234.173 132.752C234.449 132.713 235.018 135.983 235.192 140.004C235.366 144.025 235.713 147.201 235.421 147.28Z" fill="#381E3E"/>
<path d="M234.378 134.861C234.536 135.098 232.435 136.441 229.456 136.441C226.478 136.441 224.408 134.98 224.582 134.751C224.756 134.521 226.794 135.335 229.472 135.351C232.15 135.367 234.244 134.569 234.378 134.861Z" fill="#381E3E"/>
<path d="M264.461 140.336C264.226 140.482 263.953 140.556 263.676 140.547C263.4 140.538 263.132 140.447 262.907 140.286C262.682 140.125 262.509 139.9 262.412 139.641C262.315 139.382 262.296 139.1 262.36 138.83C262.423 138.561 262.565 138.316 262.767 138.127C262.97 137.938 263.224 137.814 263.497 137.769C263.77 137.725 264.051 137.763 264.303 137.878C264.554 137.993 264.766 138.18 264.912 138.416C265.105 138.731 265.167 139.109 265.082 139.469C264.998 139.829 264.775 140.14 264.461 140.336Z" fill="#CEAB5E"/>
<path d="M264.746 139.925C264.619 139.878 265.101 138.472 266.01 136.907C266.498 135.935 267.106 135.028 267.819 134.206C267.945 134.269 267.345 135.612 266.436 137.152C265.955 138.124 265.389 139.052 264.746 139.925Z" fill="#CEAB5E"/>
<path d="M271.2 137.192C270.354 137.244 269.523 136.96 268.885 136.402C268.393 136.054 268.005 135.579 267.763 135.027C267.582 134.585 267.653 134.277 267.708 134.285C267.763 134.292 267.842 134.537 268.064 134.877C268.365 135.319 268.742 135.705 269.178 136.015C270.212 136.765 271.255 137.05 271.2 137.192Z" fill="#CEAB5E"/>
<path d="M267.858 143.33C267.623 143.475 267.35 143.546 267.074 143.535C266.797 143.525 266.531 143.432 266.307 143.27C266.083 143.108 265.912 142.883 265.816 142.624C265.72 142.365 265.703 142.084 265.767 141.815C265.831 141.546 265.973 141.302 266.175 141.114C266.378 140.926 266.631 140.802 266.904 140.758C267.177 140.714 267.457 140.751 267.708 140.866C267.959 140.981 268.171 141.167 268.316 141.402C268.413 141.559 268.478 141.733 268.508 141.915C268.537 142.097 268.53 142.282 268.488 142.461C268.445 142.641 268.368 142.809 268.26 142.958C268.152 143.108 268.015 143.234 267.858 143.33Z" fill="#CEAB5E"/>
<path d="M268.151 142.911C268.024 142.864 268.498 141.458 269.415 139.901C269.904 138.929 270.509 138.02 271.216 137.192C271.35 137.255 270.742 138.606 269.833 140.138C269.356 141.111 268.793 142.039 268.151 142.911Z" fill="#CEAB5E"/>
<path d="M270.773 138.037C270.773 138.163 269.659 138.163 268.561 137.421C267.463 136.678 267.045 135.651 267.163 135.604C267.282 135.556 267.842 136.394 268.838 137.018C269.833 137.642 270.797 137.895 270.773 138.037Z" fill="#CEAB5E"/>
<path d="M172.087 190.351C171.733 190.57 171.323 190.679 170.907 190.665C170.492 190.651 170.09 190.514 169.752 190.271C169.415 190.029 169.157 189.691 169.011 189.302C168.865 188.913 168.838 188.489 168.933 188.084C169.028 187.68 169.241 187.312 169.545 187.029C169.849 186.745 170.23 186.558 170.641 186.491C171.051 186.424 171.472 186.48 171.85 186.653C172.229 186.825 172.547 187.106 172.766 187.459C173.059 187.933 173.152 188.504 173.025 189.046C172.897 189.588 172.56 190.057 172.087 190.351Z" fill="#381E3E"/>
<path d="M172.521 189.727C172.332 189.656 173.043 187.538 174.417 185.208C175.792 182.877 176.961 181.06 177.127 181.139C177.293 181.218 176.416 183.257 175.049 185.563C173.682 187.87 172.711 189.798 172.521 189.727Z" fill="#381E3E"/>
<path d="M182.238 185.627C182.238 185.801 180.476 185.682 178.762 184.426C178.017 183.91 177.431 183.196 177.071 182.364C176.803 181.7 176.898 181.242 176.985 181.242C177.071 181.242 177.19 181.621 177.53 182.135C177.976 182.801 178.541 183.379 179.197 183.841C180.721 184.979 182.293 185.406 182.238 185.627Z" fill="#381E3E"/>
<path d="M177.19 194.838C176.837 195.058 176.426 195.168 176.01 195.155C175.594 195.141 175.192 195.004 174.854 194.762C174.515 194.519 174.257 194.181 174.111 193.792C173.965 193.402 173.938 192.978 174.033 192.573C174.129 192.168 174.342 191.8 174.647 191.516C174.952 191.233 175.334 191.046 175.745 190.98C176.155 190.914 176.577 190.971 176.955 191.145C177.333 191.318 177.652 191.6 177.869 191.955C178.16 192.428 178.252 192.996 178.124 193.536C177.997 194.077 177.661 194.545 177.19 194.838Z" fill="#381E3E"/>
<path d="M177.632 194.214C177.443 194.143 178.154 192.034 179.528 189.695C180.903 187.357 182.064 185.548 182.238 185.627C182.412 185.706 181.527 187.744 180.16 190.059C178.794 192.373 177.814 194.285 177.632 194.214Z" fill="#381E3E"/>
<path d="M181.567 186.899C181.567 187.088 179.9 187.088 178.249 185.966C176.597 184.845 175.966 183.304 176.139 183.241C176.313 183.178 177.166 184.379 178.659 185.366C180.152 186.354 181.598 186.685 181.567 186.899Z" fill="#381E3E"/>
<path d="M113.895 78.1314L111.525 91.2217L112.576 104.241L121.542 102.084L126.425 96.3804L130.525 91.6404C130.525 91.6404 137.635 96.1829 143.228 89.9972C145.93 87.011 150.986 80.4066 155.497 74.3789C157.836 71.253 158.913 67.3604 158.512 63.4764C158.111 59.5924 156.261 56.002 153.332 53.4202L152.732 52.883C145.89 47.5268 137.524 50.3471 132.358 57.3307L113.887 78.163" fill="#FFBE9D"/>
<path d="M130.58 91.6087C127.651 89.1226 125.526 85.8234 124.473 82.1287C124.473 82.1287 122.427 88.3223 129.166 93.2677L130.58 91.6087Z" fill="#EB996E"/>
<path d="M147.446 73.4781C147.66 73.4307 148.007 74.4972 149.026 75.2398C150.046 75.9824 151.207 76.0298 151.231 76.2115C151.254 76.3932 150.962 76.4485 150.441 76.4485C149.764 76.4497 149.105 76.2337 148.56 75.8323C148.011 75.4466 147.603 74.8916 147.399 74.2523C147.296 73.8099 147.352 73.4939 147.446 73.4781Z" fill="#263238"/>
<path d="M137.35 66.0522C137.564 66.0522 137.816 67.1266 138.796 67.9561C139.776 68.7856 140.897 68.9121 140.905 69.1174C140.913 69.3228 140.613 69.3308 140.115 69.2913C139.444 69.2247 138.811 68.9482 138.306 68.5013C137.797 68.0704 137.438 67.4897 137.279 66.8422C137.169 66.3603 137.255 66.0601 137.35 66.0522Z" fill="#263238"/>
<path d="M139.065 78.2656C139.7 78.5514 140.3 78.9121 140.85 79.34C141.119 79.5296 141.395 79.6876 141.585 79.5533C141.829 79.3199 141.995 79.0162 142.059 78.6843L142.983 76.1721C144.326 72.625 145.519 69.7968 145.661 69.8521C145.803 69.9074 144.871 72.8304 143.496 76.3775C143.165 77.2465 142.841 78.076 142.541 78.866C142.432 79.2985 142.175 79.6789 141.814 79.9404C141.702 79.9973 141.579 80.0269 141.454 80.0269C141.329 80.0269 141.206 79.9973 141.095 79.9404C140.929 79.8544 140.773 79.7512 140.629 79.6323C140.053 79.2436 139.527 78.7845 139.065 78.2656Z" fill="#263238"/>
<path d="M139.27 62.5762C139.539 62.3234 140.613 63.0423 142.035 63.5558C143.457 64.0693 144.729 64.251 144.768 64.6144C144.768 64.7882 144.444 64.9857 143.852 65.0726C143.084 65.156 142.307 65.0558 141.585 64.7803C140.854 64.5156 140.197 64.0826 139.665 63.5163C139.27 63.0739 139.144 62.7026 139.27 62.5762Z" fill="#263238"/>
<path d="M151.681 69.8601C152.052 69.8601 152.273 70.8002 152.826 71.7008C153.379 72.6014 154.043 73.2808 153.901 73.5889C153.822 73.7469 153.498 73.7785 153.055 73.5889C152.489 73.3299 152.019 72.8986 151.712 72.3565C151.388 71.8256 151.234 71.2081 151.27 70.5869C151.325 70.1287 151.515 69.8601 151.681 69.8601Z" fill="#263238"/>
<path d="M128.787 62.3787C128.723 62.2444 125.627 57.3228 121.985 61.7152C118.343 66.1076 123.51 68.8252 123.62 68.7304C123.731 68.6356 128.787 62.3787 128.787 62.3787Z" fill="#FFBE9D"/>
<path d="M123.66 65.9575C123.66 65.9575 123.533 65.9575 123.359 65.9022C123.114 65.8284 122.905 65.6648 122.775 65.444C122.64 65.0291 122.618 64.5858 122.711 64.1596C122.804 63.7333 123.008 63.3395 123.304 63.0187C123.603 62.6296 123.987 62.3135 124.426 62.0944C124.581 61.9929 124.758 61.9299 124.942 61.9107C125.126 61.8914 125.312 61.9165 125.484 61.9838C125.591 62.0348 125.676 62.1207 125.726 62.2271C125.777 62.3335 125.789 62.454 125.761 62.5684C125.721 62.7422 125.619 62.8054 125.635 62.8291C125.65 62.8528 125.793 62.8291 125.911 62.6237C125.974 62.4935 125.99 62.3459 125.958 62.205C125.915 62.0154 125.799 61.8507 125.635 61.7468C125.426 61.6306 125.19 61.5696 124.951 61.5696C124.712 61.5696 124.477 61.6306 124.268 61.7468C123.766 61.9755 123.327 62.3224 122.988 62.758C122.285 63.6665 122.056 64.8673 122.538 65.5783C122.627 65.7092 122.744 65.8184 122.88 65.8977C123.017 65.977 123.17 66.0245 123.328 66.0365C123.557 66.0602 123.667 65.9812 123.66 65.9575Z" fill="#EB996E"/>
<path d="M163.981 61.5808C163.848 61.013 163.532 60.5043 163.083 60.1322C162.634 59.76 162.075 59.5447 161.493 59.5189C161.76 59.1889 161.945 58.8 162.032 58.3843C162.118 57.9687 162.105 57.5383 161.992 57.1289C161.879 56.7195 161.671 56.343 161.383 56.0304C161.096 55.7179 160.738 55.4784 160.339 55.3319C160.702 54.969 160.93 54.4931 160.986 53.9828C161.041 53.4725 160.921 52.9586 160.644 52.5263C160.368 52.0939 159.952 51.769 159.465 51.6054C158.979 51.4418 158.451 51.4494 157.969 51.6268C158.045 51.0505 157.991 50.4645 157.809 49.9123C157.628 49.36 157.324 48.8558 156.921 48.4369C156.518 48.0179 156.026 47.6952 155.481 47.4925C154.937 47.2898 154.353 47.2124 153.774 47.266C153.152 46.2283 152.171 45.4539 151.017 45.0887C149.864 44.7235 148.616 44.7926 147.51 45.2831C146.764 44.7189 145.868 44.3878 144.935 44.3316C144.001 44.2754 143.072 44.4965 142.264 44.9671C141.779 44.6062 141.208 44.3796 140.608 44.31C140.008 44.2404 139.4 44.3303 138.845 44.5706C138.291 44.811 137.809 45.1933 137.45 45.679C137.09 46.1647 136.865 46.7366 136.797 47.3371C136.412 47.2584 136.015 47.2696 135.635 47.3699C135.255 47.4701 134.903 47.6567 134.607 47.9152C134.312 48.1736 134.079 48.4968 133.929 48.8597C133.778 49.2226 133.714 49.6153 133.74 50.0073C133.284 49.882 132.801 49.889 132.348 50.0276C131.896 50.1662 131.492 50.4306 131.184 50.79C130.876 51.1494 130.676 51.5889 130.608 52.0574C130.541 52.5259 130.608 53.004 130.801 53.4359C130.106 52.9619 129.118 53.5702 128.771 54.3444C128.423 55.1186 128.818 56.2404 128.186 56.8013C127.758 57.3364 127.462 57.9658 127.325 58.6375C127.188 59.3092 127.212 60.004 127.396 60.6644L125.484 64.2589C125.451 64.4493 125.482 64.6455 125.575 64.8155C125.667 64.9855 125.814 65.119 125.992 65.1943C126.17 65.2696 126.369 65.2822 126.555 65.2299C126.741 65.1776 126.904 65.0637 127.017 64.9067C127.286 64.5433 127.538 64.2431 127.807 64.2352C128.485 64.293 129.168 64.2423 129.829 64.0851C130.754 63.8859 131.645 63.556 132.476 63.1055C132.842 62.8853 133.128 62.5522 133.289 62.1562C133.449 61.7602 133.478 61.3227 133.369 60.9093C133.861 61.078 134.388 61.1142 134.898 61.0144C135.409 60.9145 135.884 60.6821 136.276 60.3405C137.054 59.6503 137.701 58.8262 138.188 57.9073L140.558 53.9573C141.365 54.6049 142.334 55.0205 143.359 55.1597C144.385 55.2988 145.429 55.1563 146.38 54.7473C146.492 55.1942 146.697 55.6123 146.982 55.9742C147.267 56.3361 147.625 56.6336 148.033 56.847C148.442 57.0605 148.89 57.185 149.35 57.2126C149.81 57.2401 150.271 57.1699 150.701 57.0067C150.307 58.0078 150.309 59.1212 150.705 60.1215C151.101 61.1218 151.862 61.9343 152.834 62.3945C151.886 63.1292 152.747 65.357 153.411 66.3445C154.075 67.332 156.208 67.1977 156.208 67.1977C156.208 67.1977 156.421 69.8995 157.527 70.2945C158.633 70.6895 160.608 70.6105 160.829 69.2991C161.559 68.8829 162.182 68.3011 162.646 67.6006C162.935 67.1198 163.079 66.566 163.06 66.0055C163.042 65.445 162.863 64.9016 162.543 64.4406C163.061 64.1843 163.481 63.7667 163.74 63.2509C163.999 62.7351 164.084 62.1489 163.981 61.5808Z" fill="#263238"/>
<path d="M134.253 68.6117C134.151 68.6591 134.001 68.5564 133.977 68.3668C133.953 68.1772 134.072 68.035 134.182 68.0587C134.236 68.079 134.283 68.1135 134.318 68.1584C134.354 68.2034 134.376 68.2571 134.384 68.3139C134.391 68.3707 134.383 68.4284 134.36 68.4809C134.337 68.5333 134.3 68.5786 134.253 68.6117Z" fill="#EB996E"/>
<path d="M136.11 70.1364C136.165 70.2391 136.11 70.3813 135.928 70.4603C135.872 70.5004 135.802 70.5178 135.733 70.509C135.665 70.5002 135.602 70.4659 135.557 70.4129C135.51 70.3181 135.557 70.168 135.747 70.0969C135.936 70.0258 136.063 70.0337 136.11 70.1364Z" fill="#EB996E"/>
<path d="M137.911 72.0088C137.944 72.0592 137.956 72.1206 137.945 72.1798C137.933 72.239 137.898 72.2911 137.848 72.3248C137.805 72.3654 137.749 72.388 137.69 72.388C137.631 72.388 137.575 72.3654 137.532 72.3248C137.516 72.3005 137.505 72.2732 137.499 72.2445C137.493 72.2158 137.493 72.1862 137.499 72.1576C137.505 72.1289 137.517 72.1017 137.533 72.0775C137.55 72.0534 137.571 72.0327 137.595 72.0167C137.637 71.9751 137.693 71.951 137.752 71.9495C137.81 71.9481 137.868 71.9693 137.911 72.0088Z" fill="#EB996E"/>
<path d="M132.831 71.3846C132.777 71.3978 132.72 71.3937 132.668 71.3729C132.616 71.3521 132.572 71.3157 132.542 71.2686C132.512 71.2216 132.497 71.1664 132.5 71.1106C132.503 71.0548 132.523 71.0012 132.557 70.9574C132.592 70.9135 132.639 70.8815 132.693 70.8658C132.746 70.8501 132.804 70.8515 132.856 70.8698C132.909 70.8882 132.955 70.9225 132.987 70.968C133.02 71.0136 133.037 71.0681 133.037 71.1239C133.042 71.1852 133.023 71.2461 132.985 71.2944C132.947 71.3427 132.892 71.3749 132.831 71.3846Z" fill="#EB996E"/>
<path d="M135.399 72.7988C135.399 72.9094 135.32 73.0122 135.154 73.0359C134.988 73.0596 134.862 72.9806 134.862 72.8621C134.87 72.8009 134.899 72.7443 134.943 72.7013C134.988 72.6584 135.045 72.6315 135.107 72.625C135.168 72.6158 135.231 72.6281 135.284 72.6598C135.337 72.6915 135.378 72.7406 135.399 72.7988Z" fill="#EB996E"/>
<path d="M146.522 78.1471C146.412 78.1471 146.269 78.0365 146.246 77.8153C146.222 77.5941 146.34 77.4203 146.451 77.4361C146.562 77.4519 146.641 77.602 146.657 77.7758C146.672 77.9496 146.625 78.1155 146.522 78.1471Z" fill="#EB996E"/>
<path d="M148.947 78.8659C149.011 78.9607 148.947 79.095 148.782 79.1582C148.616 79.2214 148.481 79.1582 148.45 79.0792C148.439 79.0188 148.449 78.9563 148.479 78.9028C148.51 78.8493 148.558 78.8083 148.616 78.7869C148.671 78.7581 148.735 78.7502 148.796 78.7647C148.857 78.7792 148.911 78.8151 148.947 78.8659Z" fill="#EB996E"/>
<path d="M146.38 80.7935C146.277 80.754 146.269 80.5723 146.38 80.3985C146.491 80.2247 146.633 80.1378 146.728 80.201C146.773 80.2583 146.798 80.3293 146.798 80.4025C146.798 80.4756 146.773 80.5466 146.728 80.6039C146.649 80.754 146.499 80.8409 146.38 80.7935Z" fill="#EB996E"/>
<path d="M152.826 46.2943C153.438 46.4414 153.997 46.7546 154.442 47.1993C154.886 47.644 155.199 48.2029 155.347 48.8144C155.944 48.373 156.66 48.1205 157.402 48.0895C158.144 48.0585 158.879 48.2504 159.511 48.6404C160.143 49.0305 160.644 49.6008 160.95 50.2781C161.255 50.9554 161.351 51.7085 161.224 52.4405C161.846 52.1496 162.529 52.0102 163.215 52.0335C163.902 52.0569 164.573 52.2423 165.174 52.5748C165.765 52.92 166.244 53.4289 166.552 54.0401C166.861 54.6512 166.986 55.3386 166.912 56.0192C166.807 56.6935 166.475 57.3117 165.971 57.7715C165.467 58.2312 164.82 58.5049 164.139 58.5472C164.593 58.4632 165.059 58.4794 165.505 58.5946C165.952 58.7099 166.367 58.9215 166.723 59.2145C167.079 59.5075 167.367 59.8749 167.566 60.2908C167.765 60.7067 167.87 61.1612 167.875 61.6222C167.88 62.0832 167.783 62.5397 167.593 62.9596C167.402 63.3795 167.122 63.7526 166.773 64.0528C166.423 64.353 166.011 64.5729 165.567 64.6973C165.123 64.8216 164.657 64.8472 164.202 64.7724C164.412 64.9008 164.592 65.0704 164.734 65.2709C164.875 65.4713 164.975 65.6985 165.026 65.9386C165.077 66.1786 165.078 66.4265 165.03 66.6672C164.982 66.9079 164.886 67.1363 164.747 67.3386C164.608 67.5409 164.43 67.7128 164.222 67.8438C164.015 67.9748 163.783 68.0623 163.54 68.1008C163.298 68.1394 163.05 68.1282 162.812 68.068C162.574 68.0079 162.351 67.8999 162.156 67.7507C161.588 68.912 159.786 68.8725 158.83 67.9798C157.875 67.0871 157.606 65.7283 157.361 64.4564" fill="#263238"/>
<path d="M164.866 58.4444C164.877 58.5574 164.877 58.6712 164.866 58.7841C164.848 59.1065 164.801 59.4264 164.724 59.74C164.411 60.9103 163.723 61.9456 162.765 62.6867C162.095 63.208 161.288 63.5212 160.442 63.5873C159.468 63.6378 158.503 63.3867 157.677 62.8684C156.769 62.3055 156.055 61.4786 155.631 60.4984C155.395 59.9747 155.277 59.4058 155.283 58.8315C155.276 58.5205 155.335 58.2116 155.454 57.9245C155.574 57.6374 155.753 57.3785 155.978 57.1646C156.226 56.966 156.521 56.8364 156.835 56.7892C157.149 56.7421 157.469 56.7789 157.764 56.896C158.048 57.0013 158.304 57.1698 158.514 57.3888C158.723 57.6078 158.88 57.8715 158.973 58.16C159.148 58.688 159.166 59.2553 159.026 59.7936C158.886 60.3318 158.593 60.818 158.183 61.1936C157.807 61.5165 157.363 61.7487 156.883 61.872C156.404 61.9953 155.902 62.0064 155.418 61.9046C154.601 61.7407 153.818 61.4388 153.103 61.0119C152.793 60.825 152.504 60.6051 152.242 60.3562C151.989 60.1271 151.76 59.9138 151.554 59.6926C151.181 59.328 150.892 58.8857 150.709 58.397C150.609 58.0834 150.574 57.7528 150.606 57.4253C150.61 57.3105 150.637 57.1976 150.685 57.0935C150.671 57.5165 150.73 57.9388 150.859 58.3417C151.414 59.351 152.233 60.1896 153.229 60.767C153.923 61.1454 154.672 61.412 155.449 61.557C155.882 61.6394 156.328 61.6224 156.754 61.5075C157.179 61.3926 157.573 61.1826 157.906 60.8934C158.255 60.5667 158.504 60.147 158.623 59.6838C158.742 59.2206 158.726 58.7331 158.578 58.2785C158.504 58.0465 158.379 57.8346 158.21 57.6592C158.042 57.4838 157.835 57.3497 157.606 57.2673C157.379 57.1746 157.131 57.144 156.888 57.1787C156.645 57.2134 156.416 57.3121 156.223 57.4648C156.044 57.6414 155.902 57.8533 155.809 58.0872C155.715 58.321 155.67 58.5718 155.678 58.8236C155.673 59.3402 155.778 59.852 155.986 60.3246C156.372 61.2435 157.027 62.0233 157.867 62.5603C158.622 63.0513 159.51 63.2969 160.41 63.2634C161.193 63.2137 161.944 62.9395 162.575 62.4734C163.506 61.7839 164.197 60.8195 164.55 59.7163C164.819 58.9105 164.819 58.4444 164.866 58.4444Z" fill="#455A64"/>
<path d="M97.4079 137.492L111.225 144.452L105.948 155.701H91.1432L93.2762 143.393L97.4079 137.492Z" fill="#455A64"/>
<path d="M118.248 108.546L124.521 101.721L123.336 99.8088L118.73 105.528L118.248 108.546Z" fill="#455A64"/>
<path d="M118.769 104.178C118.027 101.207 112.22 79.0319 112.22 79.0319C112.22 79.0319 112.426 76.6619 97.5659 78.6764C96.5705 78.8107 83.9384 82.3262 79.8462 86.7818C75.9594 91.0241 52.4964 137.381 50.0474 142.706C49.4513 143.316 48.7796 143.847 48.0487 144.286C47.6221 144.349 46.5714 146.719 46.4687 149.603C46.366 152.486 47.0217 152.857 47.0217 152.857C47.0217 152.857 71.7329 166.24 88.8285 164.936C88.8285 164.936 96.7285 165.008 96.8312 161.2L96.3493 155.994L116.565 115.348C116.565 115.348 119.52 107.156 118.769 104.178Z" fill="#455A64"/>
<path d="M110.625 77.4362L115.799 73.9839C116.204 76.3517 116.885 78.6638 117.829 80.8727C119.82 85.7312 122.522 94.3027 122.522 94.3027L122.664 96.5384L120.76 95.7484C120.333 95.5585 119.854 95.5195 119.401 95.6378L112.734 97.4074C112.734 97.4074 112.386 86.1894 111.012 81.7417C110.538 80.3586 110.405 78.8816 110.625 77.4362Z" fill="#455A64"/>
<path d="M124.26 102.748C124.175 102.506 124.035 102.288 123.852 102.109C123.668 101.931 123.445 101.798 123.201 101.721C122.71 101.573 122.198 101.504 121.685 101.515C121.83 101.47 121.962 101.39 122.069 101.282C122.176 101.174 122.256 101.042 122.301 100.897C122.346 100.752 122.355 100.598 122.328 100.448C122.3 100.298 122.237 100.158 122.143 100.038C121.927 99.8133 121.655 99.6491 121.356 99.5618C121.057 99.4744 120.74 99.4671 120.436 99.5404C121.092 99.5456 121.736 99.3648 122.293 99.019C122.569 98.8426 122.79 98.5919 122.93 98.2955C123.069 97.9992 123.122 97.6694 123.083 97.3442C122.982 96.8883 122.732 96.4788 122.373 96.18C122.015 95.8812 121.567 95.71 121.1 95.6931C118.24 95.5746 117.577 96.2935 115.38 97.0361C115.017 97.1133 114.675 97.2694 114.379 97.4933C114.083 97.7172 113.84 98.0034 113.666 98.3317C113.577 98.6609 113.591 99.0098 113.707 99.3307C113.823 99.6516 114.035 99.9289 114.314 100.125C114.779 100.446 115.329 100.622 115.894 100.631C115.757 100.666 115.632 100.737 115.532 100.837C115.432 100.937 115.36 101.062 115.325 101.199C115.292 101.393 115.319 101.592 115.402 101.77C115.486 101.948 115.621 102.096 115.791 102.195C115.962 102.289 116.149 102.349 116.343 102.371C116.537 102.393 116.734 102.376 116.921 102.321C116.574 102.512 116.306 102.817 116.161 103.185C116.017 103.554 116.006 103.96 116.131 104.336C116.261 104.716 116.483 105.059 116.776 105.335C117.069 105.61 117.425 105.81 117.814 105.916C118.587 106.13 119.402 106.147 120.184 105.963C121.18 105.789 122.136 105.433 123.004 104.912C123.778 104.423 124.513 103.601 124.26 102.748Z" fill="#381E3E"/>
<path d="M121.1 99.0901C120.506 99.8356 119.666 100.345 118.73 100.528C117.822 100.842 116.83 100.814 115.941 100.449C116.84 100.403 117.735 100.295 118.619 100.125C119.468 99.8347 120.297 99.489 121.1 99.0901Z" fill="#263238"/>
<path d="M121.708 101.46C121.708 101.46 121.55 101.8 121.084 102.155C120.475 102.616 119.756 102.91 118.999 103.008C118.241 103.109 117.47 103.008 116.763 102.716C116.226 102.487 115.973 102.25 115.973 102.203C116.925 102.527 117.932 102.661 118.935 102.598C119.925 102.402 120.867 102.015 121.708 101.46Z" fill="#263238"/>
<path d="M118.493 105.797C118.446 105.797 118.303 105.679 118.185 105.386C118.037 104.992 118.012 104.563 118.114 104.154C118.212 103.743 118.436 103.373 118.754 103.095C118.999 102.882 119.188 102.827 119.22 102.874C119.251 102.922 118.714 103.435 118.517 104.249C118.456 104.763 118.448 105.282 118.493 105.797Z" fill="#263238"/>
<path d="M121.258 104.351C121.179 104.43 120.744 104.122 120.468 103.561C120.191 103.001 120.136 102.463 120.239 102.44C120.342 102.416 120.547 102.858 120.831 103.364C121.116 103.87 121.337 104.272 121.258 104.351Z" fill="#263238"/>
<path d="M107.212 84.1905C105.438 81.7495 103.134 79.7425 100.473 78.3208C96.5231 78.621 96.7285 79.0476 95.2591 79.2767C96.6021 78.8975 117.182 88.575 104.81 110.608C92.2334 133.005 78.3847 157.613 78.3847 157.613L79.2932 159.122L80.6757 161.397C80.6757 161.397 101.374 123.983 105.782 116.162C110.19 108.341 111.486 104.225 111.667 98.6712C111.867 93.4787 110.296 88.3724 107.212 84.1905Z" fill="#263238"/>
<path d="M122.68 96.5305C122.68 96.5305 122.451 96.3725 122.001 96.175C121.351 95.9156 120.662 95.7687 119.962 95.7405C118.891 95.901 117.835 96.1467 116.802 96.4752L112.797 97.5101L112.528 97.5891V97.3047C112.683 95.6874 112.728 94.0616 112.663 92.4383C112.497 88.8625 112.072 85.3034 111.391 81.7891L110.783 78.6291C110.69 78.2393 110.627 77.8432 110.593 77.4441C110.746 77.8164 110.862 78.2027 110.941 78.5975C111.13 79.3401 111.399 80.4224 111.675 81.7575C112.444 85.2743 112.911 88.8501 113.074 92.4462C113.139 94.0884 113.086 95.7332 112.916 97.3679L112.671 97.1625L116.692 96.1513L118.398 95.7247C118.893 95.587 119.402 95.5101 119.915 95.4956C120.642 95.5402 121.354 95.7281 122.008 96.0486C122.269 96.1512 122.499 96.3168 122.68 96.5305Z" fill="#263238"/>
<path d="M110.625 127.348C110.593 127.48 110.539 127.605 110.467 127.72C110.316 128.004 110.143 128.344 109.922 128.755C109.416 129.695 108.736 130.967 107.915 132.515C106.208 135.675 103.886 140.099 101.176 144.894C100.505 146.095 99.8174 147.264 99.1459 148.37C98.4744 149.476 97.7713 150.511 97.2499 151.57C96.7264 152.543 96.4369 153.625 96.4046 154.73C96.4742 155.696 96.6763 156.647 97.005 157.558C97.2845 158.34 97.4054 159.17 97.3605 159.999C97.2996 160.631 97.0675 161.235 96.689 161.745C96.4501 162.065 96.1194 162.305 95.741 162.432C95.6093 162.479 95.4695 162.497 95.3302 162.488C95.8289 162.362 96.2662 162.062 96.5626 161.642C96.8985 161.148 97.095 160.572 97.1314 159.975C97.1507 159.18 97.0138 158.388 96.7285 157.645C96.3673 156.71 96.1437 155.728 96.0649 154.73C96.0771 153.57 96.367 152.429 96.9102 151.404C97.4316 150.314 98.1426 149.263 98.8062 148.157C99.4698 147.051 100.141 145.89 100.821 144.689L107.67 132.381C108.555 130.801 109.25 129.545 109.803 128.676C110.04 128.273 110.245 127.949 110.403 127.68C110.468 127.564 110.542 127.453 110.625 127.348Z" fill="#263238"/>
<path d="M90.1478 155.267C90.5634 155.558 90.8847 155.964 91.0721 156.436C91.6394 157.539 91.7749 158.815 91.452 160.013C91.1292 161.211 90.3712 162.245 89.3262 162.914C88.9229 163.222 88.4412 163.411 87.9358 163.459C87.9358 163.396 88.4493 163.214 89.1603 162.669C90.0873 161.988 90.7555 161.012 91.0555 159.901C91.3554 158.79 91.2694 157.61 90.8114 156.555C90.4717 155.741 90.0925 155.314 90.1478 155.267Z" fill="#263238"/>
<path d="M116.36 102.613C116.366 102.817 116.353 103.021 116.32 103.222C116.281 103.617 116.218 104.193 116.076 104.936C115.697 107.035 115.137 109.096 114.401 111.098C113.298 114.055 111.992 116.933 110.49 119.709C108.823 122.869 106.88 126.242 104.889 129.829L94.556 148.133L91.396 153.663L90.5033 155.18C90.4107 155.36 90.2995 155.529 90.1715 155.685C90.2439 155.497 90.3311 155.315 90.4322 155.14L91.2222 153.608L94.2795 148.022L104.51 129.631C106.509 126.045 108.46 122.656 110.135 119.527C111.633 116.771 112.952 113.921 114.085 110.995C114.836 109.014 115.433 106.978 115.87 104.904C116.036 104.177 116.123 103.601 116.186 103.206C116.227 103.004 116.285 102.805 116.36 102.613Z" fill="#263238"/>
<path d="M96.689 124.133C96.8069 123.765 96.9632 123.41 97.1551 123.074C97.479 122.395 97.9451 121.392 98.6008 120.191L98.6877 120.025L98.8457 120.12L102.74 122.3L102.914 122.403L102.819 122.577L100.647 126.44L100.56 126.598L100.402 126.503C99.2328 125.808 98.2769 125.207 97.637 124.789C97.2974 124.602 96.9772 124.383 96.6811 124.133C97.0718 124.296 97.4517 124.483 97.8187 124.694C98.506 125.057 99.4619 125.571 100.584 126.195L100.339 126.266L102.456 122.379L102.535 122.656L98.664 120.428L98.9089 120.357C98.2848 121.471 97.7476 122.395 97.3289 123.066C97.1353 123.433 96.9217 123.789 96.689 124.133Z" fill="#EBEBEB"/>
<path d="M35.78 289.401L35.3692 289.946L27.4297 300.35L17.5547 307.113L30.7714 332.574H45.3232C45.3232 332.574 44.2725 329.075 37.2731 327.266L36.8149 313.29L49.3838 299.481" fill="#381E3E"/>
<g opacity="0.6">
<path d="M17.5547 307.113L30.7714 332.575L45.3232 332.59L43.6879 330.402L31.8537 329.738L19.6561 305.675L17.5547 307.113Z" fill="white"/>
</g>
<path d="M37.1862 320.875C37.0756 321.025 36.2382 320.551 35.1085 320.582C33.9788 320.614 33.1572 321.08 33.0466 320.93C32.936 320.78 33.7339 319.95 35.1006 319.942C36.4673 319.935 37.3126 320.764 37.1862 320.875Z" fill="#263238"/>
<path d="M36.9492 317.414C36.807 317.517 36.1592 316.624 34.9979 316.427C33.8366 316.229 32.9123 316.735 32.8175 316.577C32.7227 316.419 32.936 316.269 33.3389 316.048C33.8892 315.767 34.5186 315.68 35.1243 315.803C35.7423 315.913 36.3017 316.238 36.7043 316.719C36.9571 317.083 37.0203 317.367 36.9492 317.414Z" fill="#263238"/>
<path d="M37.044 312.959C36.886 313.038 36.3962 312.169 35.3771 311.845C34.358 311.521 33.4574 311.845 33.3784 311.663C33.2994 311.482 33.5285 311.387 33.9314 311.237C34.4685 311.049 35.0532 311.049 35.5904 311.237C36.1294 311.425 36.587 311.793 36.886 312.279C37.1072 312.651 37.123 312.927 37.044 312.959Z" fill="#263238"/>
<path d="M40.9466 309.514C40.7728 309.57 40.362 308.724 39.4614 308.155C38.5608 307.587 37.6523 307.484 37.6444 307.302C37.6365 307.121 38.7188 306.891 39.8169 307.626C40.915 308.361 41.1204 309.491 40.9466 309.514Z" fill="#263238"/>
<g opacity="0.6">
<path d="M29.1677 306.678C29.1692 307.021 29.0691 307.356 28.8799 307.642C28.6908 307.927 28.4211 308.15 28.1051 308.282C27.7892 308.414 27.441 308.45 27.1049 308.384C26.7688 308.318 26.4598 308.154 26.217 307.912C25.9743 307.671 25.8087 307.362 25.7413 307.027C25.6739 306.691 25.7077 306.343 25.8384 306.026C25.9691 305.709 26.1909 305.439 26.4756 305.248C26.7602 305.058 27.0951 304.956 27.4376 304.956C27.8951 304.956 28.3339 305.137 28.6582 305.46C28.9824 305.783 29.1656 306.221 29.1677 306.678Z" fill="white"/>
</g>
<path d="M121.329 304.411L120.981 322.581C120.981 322.581 139.507 329.162 139.776 332.527L104.226 332.882L103.586 304.529L121.329 304.411Z" fill="#381E3E"/>
<path d="M109.961 321.175C109.611 321.264 109.311 321.488 109.126 321.799C108.942 322.109 108.888 322.48 108.977 322.83C109.066 323.18 109.291 323.48 109.601 323.664C109.912 323.849 110.283 323.903 110.632 323.813C110.991 323.702 111.296 323.46 111.486 323.135C111.675 322.811 111.738 322.427 111.659 322.06C111.521 321.71 111.253 321.428 110.912 321.272C110.57 321.116 110.181 321.098 109.827 321.222" fill="white"/>
<g opacity="0.6">
<path d="M104.202 332.93L104.249 330.07L138.338 330.805C138.338 330.805 139.918 331.469 139.776 332.575L104.202 332.93Z" fill="white"/>
</g>
<path d="M121.558 322.407C121.558 322.581 120.689 322.668 119.844 323.197C118.999 323.726 118.556 324.485 118.398 324.422C118.24 324.358 118.477 323.355 119.512 322.691C120.547 322.028 121.598 322.249 121.558 322.407Z" fill="#263238"/>
<path d="M125.319 323.9C125.319 324.066 124.615 324.366 124.031 325.101C123.446 325.836 123.296 326.61 123.13 326.602C122.964 326.594 122.83 325.623 123.565 324.722C124.299 323.821 125.311 323.734 125.319 323.9Z" fill="#263238"/>
<path d="M127.515 328.308C127.357 328.348 127.096 327.518 127.515 326.539C127.933 325.559 128.747 325.212 128.826 325.354C128.905 325.496 128.407 326.002 128.036 326.792C127.665 327.582 127.689 328.293 127.515 328.308Z" fill="#263238"/>
<path d="M121.171 318.252C121.1 318.41 120.302 318.181 119.322 318.252C118.343 318.323 117.584 318.639 117.49 318.489C117.395 318.339 118.122 317.699 119.275 317.652C120.428 317.604 121.258 318.118 121.171 318.252Z" fill="#263238"/>
<path d="M96.3572 163.27C97.2183 166.998 128.565 224.4 129.585 231.581C130.217 236.005 123.399 312.271 123.399 312.271L101.184 312.098L103.752 236.021L75.5802 200.407L65.6183 162.827L96.3572 163.27Z" fill="#263238"/>
<path d="M47.0533 152.857C47.0533 152.857 41.863 170.869 42.7794 175.428C44.2409 182.712 69.3866 240.563 69.3866 240.563L28.7569 294.109L45.3469 311C45.3469 311 89.3104 258.251 93.5369 251.947C97.7634 245.643 95.03 238.414 94.5876 234.97C94.2321 232.213 78.914 167.093 78.914 167.093L47.0533 152.857Z" fill="#263238"/>
<path d="M110.648 231.865C109.566 232.703 108.404 233.433 107.18 234.046C106.022 234.772 104.794 235.381 103.515 235.863C104.596 235.023 105.757 234.293 106.983 233.682C108.139 232.952 109.367 232.343 110.648 231.865Z" fill="#455A64"/>
<path d="M68.4465 283.8C68.4899 283.722 68.5402 283.648 68.5966 283.579L69.0785 282.947L70.9429 280.577L77.887 271.8L88.2202 258.804L91.2064 255.052C92.2886 253.8 93.1924 252.404 93.8924 250.904C95.297 247.706 95.7734 244.177 95.267 240.721C95.1724 239.972 95.0272 239.231 94.8325 238.501V238.462C94.465 235.113 93.8979 231.789 93.134 228.508C92.4309 225.348 91.7041 222.259 90.9694 219.36C89.5079 213.561 88.0938 208.371 86.8851 204.034C85.6764 199.697 84.6573 196.213 83.9542 193.803C83.6066 192.618 83.3301 191.694 83.1642 191.03C83.0773 190.73 83.0141 190.493 82.9588 190.311C82.933 190.231 82.9145 190.15 82.9035 190.066C82.9035 190.066 82.943 190.137 82.9983 190.303L83.2432 191.007C83.4565 191.631 83.7567 192.586 84.1359 193.756C84.9259 196.126 85.945 199.633 87.1932 203.963C88.4414 208.292 89.8792 213.443 91.3644 219.273C92.107 222.172 92.8496 225.229 93.5606 228.421C94.3286 231.721 94.901 235.063 95.2749 238.43V238.383C95.4726 239.134 95.6231 239.896 95.7252 240.666C96.2092 244.194 95.6947 247.788 94.24 251.039C93.523 252.563 92.6007 253.983 91.4987 255.257L88.4967 259.002L78.1161 271.942L71.0693 280.632L69.1417 283.002L68.6282 283.602C68.5752 283.675 68.5142 283.741 68.4465 283.8Z" fill="#455A64"/>
<path d="M49.8894 305.738C49.6177 305.573 49.3681 305.374 49.1468 305.146L47.2429 303.408C45.6629 301.93 43.4667 299.869 41.0809 297.57C38.6951 295.271 36.57 293.177 34.99 291.645L33.1809 289.812C32.9431 289.6 32.731 289.362 32.5489 289.101C32.8206 289.266 33.0702 289.465 33.2915 289.693C33.7971 290.167 34.437 290.744 35.1875 291.431C36.7675 292.909 38.9637 294.971 41.3653 297.269C43.7669 299.568 45.9078 301.67 47.4483 303.202L49.2574 305.027C49.4906 305.243 49.7022 305.481 49.8894 305.738Z" fill="#455A64"/>
<path d="M83.7093 206.791C83.735 206.835 83.7537 206.883 83.7646 206.933C83.7646 207.044 83.8436 207.186 83.8989 207.36L84.3966 209.011L86.2136 215.283C87.7462 220.703 89.9266 228.366 92.5336 237.451C93.1202 241.367 92.4712 245.368 90.6771 248.898C88.9154 252.642 86.2057 256.008 83.3775 259.397L57.6709 289.836L49.8499 299.031L47.7011 301.52L47.1402 302.16C47.0059 302.302 46.9427 302.373 46.9348 302.365C46.988 302.283 47.046 302.203 47.1086 302.128L47.6379 301.464L49.6998 298.96L57.426 289.685L83.0378 259.168C85.866 255.81 88.5678 252.445 90.29 248.756C92.0525 245.303 92.7011 241.39 92.1465 237.553L86.0003 215.346C85.2656 212.66 84.6889 210.527 84.286 209.026C84.0964 208.315 83.9463 207.762 83.8436 207.36C83.8041 207.178 83.7646 207.044 83.7409 206.925C83.7172 206.807 83.7093 206.791 83.7093 206.791Z" fill="#455A64"/>
<path d="M62.2134 166.193C61.8834 166.763 61.4647 167.278 60.9731 167.717C58.7047 169.966 55.8258 171.499 52.6939 172.126C52.0566 172.286 51.3981 172.344 50.7426 172.299C52.9005 171.858 54.9928 171.141 56.9678 170.166C58.8788 169.071 60.6416 167.736 62.2134 166.193Z" fill="#455A64"/>
<path d="M124.157 305.999C124.157 306.109 119.164 306.165 113.002 306.117C106.84 306.07 101.856 305.936 101.856 305.825C101.856 305.714 106.848 305.659 113.01 305.706C119.172 305.754 124.157 305.888 124.157 305.999Z" fill="#455A64"/>
<path d="M108.349 197.508C108.387 197.556 108.421 197.606 108.452 197.658C108.515 197.785 108.61 197.935 108.721 198.132L109.748 199.973L113.548 206.901L126.63 231.02V231.068V231.123C126.227 236.803 125.777 242.973 125.263 249.459C124.047 265.03 122.625 279.1 121.369 289.259C120.752 294.339 120.191 298.439 119.789 301.275C119.583 302.665 119.417 303.763 119.307 304.53C119.243 304.885 119.204 305.17 119.164 305.375C119.154 305.474 119.135 305.571 119.109 305.667C119.1 305.57 119.1 305.472 119.109 305.375L119.204 304.522C119.299 303.732 119.441 302.649 119.615 301.251C119.962 298.415 120.484 294.307 121.06 289.219C122.245 279.06 123.62 264.99 124.837 249.427C125.326 242.973 125.793 236.787 126.227 231.099V231.202C120.989 221.406 116.486 213.032 113.287 207.028L109.59 200.044L108.618 198.172L108.373 197.682C108.354 197.626 108.346 197.567 108.349 197.508Z" fill="#455A64"/>
<path d="M110.83 144.42L116.55 141.663L121.55 140.739C122.754 140.323 123.915 139.794 125.018 139.159C125.018 139.159 125.808 140.32 125.405 141.236C125.003 142.153 122.696 143.606 121.132 144.175C120.559 144.36 120.069 144.739 119.746 145.247C119.423 145.754 119.287 146.359 119.362 146.956C119.504 147.746 125.856 153.947 125.856 153.947L116.968 163.23L109.787 156.705L106.627 153.473L110.83 144.42Z" fill="#FFBE9D"/>
<path d="M152.574 118.374L147.217 113.847L148.797 112.196C148.916 112.078 148.982 111.917 148.982 111.75C148.982 111.582 148.916 111.422 148.797 111.303C148.739 111.244 148.67 111.197 148.593 111.164C148.517 111.132 148.434 111.115 148.351 111.115C148.268 111.115 148.186 111.132 148.109 111.164C148.032 111.197 147.963 111.244 147.905 111.303L97.8187 163.143C97.7606 163.203 97.7148 163.273 97.684 163.351C97.6531 163.428 97.6378 163.511 97.6389 163.594C97.64 163.677 97.6575 163.759 97.6904 163.836C97.7233 163.912 97.7709 163.982 97.8305 164.04C97.8902 164.098 97.9607 164.144 98.038 164.175C98.1154 164.205 98.1981 164.221 98.2813 164.22C98.3646 164.219 98.4468 164.201 98.5233 164.168C98.5998 164.135 98.6691 164.088 98.7272 164.028L100.876 161.792C100.895 161.829 100.922 161.861 100.955 161.887L106.619 166.682C106.684 166.737 106.758 166.778 106.839 166.803C106.919 166.828 107.004 166.837 107.088 166.829C107.172 166.821 107.253 166.796 107.327 166.756C107.402 166.716 107.467 166.661 107.52 166.595C107.622 166.467 107.671 166.303 107.654 166.139C107.638 165.976 107.559 165.825 107.433 165.719L101.769 160.923L108.428 154.027L114.006 158.767C114.07 158.822 114.145 158.863 114.226 158.888C114.307 158.913 114.392 158.922 114.476 158.913C114.561 158.904 114.642 158.878 114.716 158.836C114.79 158.795 114.855 158.739 114.906 158.672C115.008 158.544 115.057 158.382 115.04 158.22C115.024 158.057 114.945 157.907 114.819 157.803L109.289 153.134L115.783 146.419L121.376 151.159C121.437 151.228 121.512 151.284 121.596 151.321C121.68 151.359 121.771 151.377 121.863 151.376C121.954 151.375 122.045 151.353 122.128 151.313C122.211 151.273 122.284 151.216 122.342 151.145C122.4 151.074 122.442 150.991 122.465 150.902C122.488 150.812 122.491 150.72 122.475 150.629C122.458 150.539 122.422 150.453 122.369 150.378C122.315 150.303 122.246 150.241 122.166 150.195L116.636 145.51L121.297 140.683L126.764 145.313C126.829 145.368 126.905 145.409 126.986 145.434C127.067 145.459 127.152 145.468 127.237 145.46C127.321 145.452 127.403 145.427 127.478 145.387C127.553 145.347 127.619 145.292 127.673 145.226C127.773 145.097 127.821 144.933 127.804 144.77C127.788 144.607 127.71 144.456 127.586 144.349L122.182 139.775L129.032 132.665C129.061 132.77 129.122 132.863 129.205 132.934L134.878 137.729C134.942 137.783 135.017 137.824 135.097 137.849C135.178 137.875 135.262 137.883 135.346 137.875C135.43 137.867 135.512 137.842 135.586 137.802C135.66 137.762 135.725 137.708 135.778 137.642C135.881 137.513 135.929 137.35 135.913 137.186C135.897 137.022 135.817 136.871 135.691 136.765L130.019 131.97C129.955 131.918 129.883 131.878 129.806 131.851L133.408 128.122L138.938 132.776C138.999 132.845 139.073 132.9 139.157 132.938C139.241 132.975 139.332 132.994 139.424 132.993C139.516 132.991 139.607 132.97 139.69 132.93C139.772 132.89 139.845 132.832 139.904 132.761C139.962 132.69 140.004 132.607 140.027 132.518C140.05 132.429 140.053 132.336 140.036 132.246C140.02 132.155 139.983 132.07 139.93 131.995C139.877 131.92 139.808 131.857 139.728 131.812L134.301 127.214L140.186 121.115C140.186 121.115 140.234 121.186 140.265 121.218L145.93 126.013C146.06 126.08 146.21 126.101 146.354 126.07C146.497 126.04 146.626 125.962 146.719 125.848C146.811 125.734 146.862 125.592 146.862 125.445C146.862 125.298 146.812 125.156 146.72 125.041L141.047 120.246L146.333 114.779L151.744 119.353C151.808 119.41 151.883 119.453 151.965 119.48C152.046 119.506 152.132 119.516 152.217 119.507C152.302 119.499 152.385 119.474 152.46 119.432C152.535 119.391 152.6 119.334 152.653 119.267C152.706 119.203 152.747 119.129 152.772 119.05C152.797 118.97 152.806 118.887 152.799 118.804C152.791 118.721 152.768 118.64 152.729 118.566C152.69 118.493 152.638 118.427 152.574 118.374Z" fill="#381E3E"/>
<g opacity="0.3">
<path d="M152.574 118.374L147.217 113.847L148.797 112.196C148.916 112.078 148.982 111.917 148.982 111.75C148.982 111.582 148.916 111.422 148.797 111.303C148.739 111.244 148.67 111.197 148.593 111.164C148.517 111.132 148.434 111.115 148.351 111.115C148.268 111.115 148.186 111.132 148.109 111.164C148.032 111.197 147.963 111.244 147.905 111.303L97.8187 163.143C97.7606 163.203 97.7148 163.273 97.684 163.351C97.6531 163.428 97.6378 163.511 97.6389 163.594C97.64 163.677 97.6575 163.759 97.6904 163.836C97.7233 163.912 97.7709 163.982 97.8305 164.04C97.8902 164.098 97.9607 164.144 98.038 164.175C98.1154 164.205 98.1981 164.221 98.2813 164.22C98.3646 164.219 98.4468 164.201 98.5233 164.168C98.5998 164.135 98.6691 164.088 98.7272 164.028L100.876 161.792C100.895 161.829 100.922 161.861 100.955 161.887L106.619 166.682C106.684 166.737 106.758 166.778 106.839 166.803C106.919 166.828 107.004 166.837 107.088 166.829C107.172 166.821 107.253 166.796 107.327 166.756C107.402 166.716 107.467 166.661 107.52 166.595C107.622 166.467 107.671 166.303 107.654 166.139C107.638 165.976 107.559 165.825 107.433 165.719L101.769 160.923L108.428 154.027L114.006 158.767C114.07 158.822 114.145 158.863 114.226 158.888C114.307 158.913 114.392 158.922 114.476 158.913C114.561 158.904 114.642 158.878 114.716 158.836C114.79 158.795 114.855 158.739 114.906 158.672C115.008 158.544 115.057 158.382 115.04 158.22C115.024 158.057 114.945 157.907 114.819 157.803L109.289 153.134L115.783 146.419L121.376 151.159C121.437 151.228 121.512 151.284 121.596 151.321C121.68 151.359 121.771 151.377 121.863 151.376C121.954 151.375 122.045 151.353 122.128 151.313C122.211 151.273 122.284 151.216 122.342 151.145C122.4 151.074 122.442 150.991 122.465 150.902C122.488 150.812 122.491 150.72 122.475 150.629C122.458 150.539 122.422 150.453 122.369 150.378C122.315 150.303 122.246 150.241 122.166 150.195L116.636 145.51L121.297 140.683L126.764 145.313C126.829 145.368 126.905 145.409 126.986 145.434C127.067 145.459 127.152 145.468 127.237 145.46C127.321 145.452 127.403 145.427 127.478 145.387C127.553 145.347 127.619 145.292 127.673 145.226C127.773 145.097 127.821 144.933 127.804 144.77C127.788 144.607 127.71 144.456 127.586 144.349L122.182 139.775L129.032 132.665C129.061 132.77 129.122 132.863 129.205 132.934L134.878 137.729C134.942 137.783 135.017 137.824 135.097 137.849C135.178 137.875 135.262 137.883 135.346 137.875C135.43 137.867 135.512 137.842 135.586 137.802C135.66 137.762 135.725 137.708 135.778 137.642C135.881 137.513 135.929 137.35 135.913 137.186C135.897 137.022 135.817 136.871 135.691 136.765L130.019 131.97C129.955 131.918 129.883 131.878 129.806 131.851L133.408 128.122L138.938 132.776C138.999 132.845 139.073 132.9 139.157 132.938C139.241 132.975 139.332 132.994 139.424 132.993C139.516 132.991 139.607 132.97 139.69 132.93C139.772 132.89 139.845 132.832 139.904 132.761C139.962 132.69 140.004 132.607 140.027 132.518C140.05 132.429 140.053 132.336 140.036 132.246C140.02 132.155 139.983 132.07 139.93 131.995C139.877 131.92 139.808 131.857 139.728 131.812L134.301 127.214L140.186 121.115C140.186 121.115 140.234 121.186 140.265 121.218L145.93 126.013C146.06 126.08 146.21 126.101 146.354 126.07C146.497 126.04 146.626 125.962 146.719 125.848C146.811 125.734 146.862 125.592 146.862 125.445C146.862 125.298 146.812 125.156 146.72 125.041L141.047 120.246L146.333 114.779L151.744 119.353C151.808 119.41 151.883 119.453 151.965 119.48C152.046 119.506 152.132 119.516 152.217 119.507C152.302 119.499 152.385 119.474 152.46 119.432C152.535 119.391 152.6 119.334 152.653 119.267C152.706 119.203 152.747 119.129 152.772 119.05C152.797 118.97 152.806 118.887 152.799 118.804C152.791 118.721 152.768 118.64 152.729 118.566C152.69 118.493 152.638 118.427 152.574 118.374Z" fill="black"/>
</g>
<path d="M141.529 83.7088L138.598 81.6548C138.031 81.6881 137.465 81.5713 136.958 81.3161C136.45 81.0609 136.019 80.6763 135.707 80.2012L134.917 80.8806L139.554 85.8813L141.529 83.7088Z" fill="#263238"/>
<path d="M153.956 110.861C153.956 110.861 96.3809 170.261 85.4157 182.64C78.5585 190.382 79.7514 197.003 81.6079 200.874C82.2851 202.298 83.2462 203.568 84.4321 204.608C85.6181 205.647 87.0039 206.433 88.5046 206.917C102.677 211.388 115.365 186.195 124.22 180.302C128.352 177.553 132.523 176.557 138.117 178.548C143.71 180.539 141.837 186.069 141.04 187.957C140.783 188.535 140.744 189.186 140.929 189.79C141.569 191.717 143.631 190.224 143.631 190.224C152.826 180.01 155.544 171.067 157.258 165.134C158.838 159.604 156.002 158.561 154.651 161.247C153.3 163.933 151.784 164.139 150.298 164.178C148.813 164.218 142.398 160.157 132.65 162.44C128.095 163.559 123.842 165.665 120.191 168.61C112.86 174.014 102.582 186.44 99.059 190.833C98.7523 191.226 98.3136 191.494 97.8241 191.589C97.3346 191.683 96.8275 191.597 96.3967 191.346C96.1483 191.197 95.9352 190.995 95.7717 190.756C95.6083 190.517 95.4985 190.245 95.4497 189.959C95.401 189.673 95.4145 189.38 95.4893 189.1C95.5641 188.82 95.6984 188.56 95.8832 188.336C99.7463 183.652 110.664 170.38 112.694 167.607C115.167 164.225 153.774 119.875 157.195 115.712C157.195 115.712 160.845 111.446 159.462 107.022C158.372 103.546 146.277 88.4329 146.277 88.4329L144.128 90.5501C144.128 90.5501 154.738 104.77 155.291 106.682C155.514 107.432 155.506 108.232 155.268 108.977C155.03 109.723 154.573 110.379 153.956 110.861Z" fill="#381E3E"/>
<path d="M141.519 83.6489L139.373 85.7705L144.122 90.5741L146.268 88.4525L141.519 83.6489Z" fill="#381E3E"/>
<path d="M155.378 121.02C154.264 122.261 152.811 122.806 151.791 121.81C150.772 120.815 152.676 118.603 152.676 118.603C152.676 118.603 154.667 116.47 155.773 117.379C156.879 118.287 156.492 119.78 155.378 121.02Z" fill="#381E3E"/>
<path d="M155.378 121.02C155.378 121.02 155.489 120.831 155.694 120.499C155.987 120.053 156.181 119.549 156.263 119.022C156.312 118.671 156.248 118.314 156.081 118.003C155.884 117.702 155.591 117.347 155.212 117.347C154.766 117.353 154.334 117.503 153.98 117.773C153.56 118.047 153.173 118.368 152.826 118.729C152.518 119.118 152.253 119.539 152.036 119.985C151.808 120.365 151.705 120.808 151.744 121.249C151.791 121.629 152.171 121.881 152.495 122.039C152.821 122.168 153.18 122.193 153.522 122.111C154.04 121.973 154.522 121.725 154.936 121.384C155.236 121.139 155.394 120.989 155.418 121.012C155.441 121.036 155.315 121.218 155.038 121.502C154.64 121.918 154.143 122.225 153.593 122.395C153.156 122.54 152.679 122.509 152.265 122.308C151.85 122.108 151.53 121.753 151.373 121.321C151.303 120.793 151.408 120.257 151.673 119.796C151.918 119.315 152.215 118.862 152.558 118.445C152.93 118.055 153.349 117.713 153.806 117.426C154.238 117.115 154.759 116.951 155.291 116.96C155.739 117.069 156.127 117.349 156.37 117.74C156.614 118.132 156.695 118.603 156.595 119.053C156.485 119.619 156.232 120.146 155.86 120.586C155.568 120.902 155.394 121.036 155.378 121.02Z" fill="#263238"/>
<path d="M149.674 127.159C148.56 128.399 147.115 128.944 146.088 127.949C145.061 126.953 146.972 124.741 146.972 124.741C146.972 124.741 148.963 122.608 150.069 123.517C151.175 124.425 150.788 125.95 149.674 127.159Z" fill="#381E3E"/>
<path d="M149.674 127.159C149.762 126.974 149.867 126.8 149.99 126.637C150.286 126.192 150.483 125.688 150.567 125.16C150.608 124.809 150.542 124.454 150.377 124.141C150.294 123.971 150.172 123.823 150.021 123.709C149.87 123.595 149.695 123.518 149.508 123.485C149.065 123.494 148.637 123.643 148.284 123.912C147.864 124.188 147.474 124.508 147.123 124.868C146.8 125.254 146.522 125.675 146.293 126.124C146.068 126.505 145.966 126.946 146.001 127.388C146.048 127.767 146.427 128.02 146.751 128.178C147.078 128.306 147.437 128.331 147.778 128.249C148.297 128.111 148.779 127.863 149.192 127.522C149.34 127.383 149.502 127.258 149.674 127.151C149.674 127.151 149.579 127.356 149.295 127.64C148.897 128.056 148.399 128.363 147.849 128.533C147.412 128.678 146.936 128.647 146.521 128.446C146.107 128.246 145.787 127.891 145.629 127.459C145.56 126.931 145.666 126.396 145.93 125.934C146.387 124.948 147.13 124.122 148.063 123.564C148.495 123.253 149.016 123.089 149.548 123.098C149.995 123.209 150.381 123.489 150.624 123.88C150.868 124.271 150.949 124.742 150.851 125.191C150.74 125.755 150.491 126.282 150.125 126.724C149.864 127.04 149.69 127.174 149.674 127.159Z" fill="#263238"/>
<path d="M143.346 134.853C142.232 136.094 140.779 136.639 139.76 135.643C138.741 134.648 140.645 132.436 140.645 132.436C140.645 132.436 142.635 130.303 143.741 131.211C144.847 132.12 144.46 133.613 143.346 134.853Z" fill="#381E3E"/>
<path d="M143.346 134.853C143.346 134.853 143.457 134.656 143.662 134.332C143.957 133.883 144.151 133.377 144.231 132.847C144.279 132.499 144.216 132.145 144.049 131.835C143.852 131.535 143.56 131.18 143.18 131.18C142.736 131.187 142.305 131.333 141.948 131.598C141.087 132.129 140.398 132.897 139.965 133.81C139.735 134.193 139.633 134.638 139.673 135.082C139.72 135.462 140.099 135.714 140.463 135.872C140.788 136.007 141.148 136.035 141.49 135.951C142.008 135.814 142.49 135.566 142.904 135.225C143.204 134.98 143.362 134.83 143.386 134.853C143.41 134.877 143.283 135.059 143.007 135.343C142.606 135.756 142.109 136.063 141.561 136.236C141.124 136.381 140.648 136.35 140.233 136.149C139.819 135.948 139.499 135.594 139.341 135.161C139.271 134.634 139.377 134.098 139.641 133.637C139.885 133.155 140.182 132.702 140.526 132.286C140.9 131.896 141.319 131.551 141.774 131.259C142.205 130.947 142.727 130.786 143.259 130.801C143.706 130.91 144.092 131.189 144.335 131.578C144.579 131.968 144.661 132.437 144.563 132.886C144.453 133.454 144.2 133.984 143.828 134.427C143.536 134.735 143.362 134.869 143.346 134.853Z" fill="#263238"/>
<path d="M138.48 140.17C137.366 141.41 135.92 141.955 134.893 140.96C133.866 139.965 135.778 137.745 135.778 137.745C135.778 137.745 137.777 135.612 138.875 136.528C139.973 137.444 139.61 138.945 138.48 140.17Z" fill="#381E3E"/>
<path d="M138.48 140.17C138.48 140.17 138.591 139.973 138.796 139.649C139.095 139.202 139.292 138.695 139.373 138.163C139.413 137.816 139.35 137.464 139.191 137.152C138.993 136.852 138.701 136.497 138.322 136.489C137.877 136.501 137.447 136.65 137.09 136.915C136.67 137.192 136.283 137.515 135.936 137.879C135.613 138.264 135.333 138.683 135.099 139.127C134.875 139.512 134.775 139.956 134.814 140.399C134.814 140.778 135.241 141.031 135.557 141.189C135.884 141.316 136.241 141.343 136.584 141.268C137.102 141.129 137.584 140.881 137.998 140.541C138.298 140.296 138.456 140.146 138.48 140.17C138.504 140.194 138.385 140.368 138.109 140.66C137.705 141.073 137.206 141.379 136.655 141.553C136.219 141.697 135.744 141.666 135.331 141.465C134.917 141.264 134.599 140.91 134.443 140.478C134.373 139.951 134.479 139.415 134.743 138.953C134.979 138.467 135.277 138.013 135.628 137.603C136.001 137.214 136.417 136.87 136.868 136.576C137.301 136.266 137.822 136.105 138.354 136.117C138.801 136.225 139.188 136.503 139.432 136.893C139.676 137.284 139.757 137.754 139.657 138.203C139.547 138.769 139.297 139.299 138.93 139.743C138.685 140.067 138.48 140.17 138.48 140.17Z" fill="#263238"/>
<path d="M132.049 147.912C130.935 149.152 129.49 149.697 128.463 148.702C127.436 147.707 129.348 145.495 129.348 145.495C129.348 145.495 131.346 143.362 132.444 144.27C133.542 145.179 133.163 146.672 132.049 147.912Z" fill="#381E3E"/>
<path d="M132.049 147.912C132.049 147.912 132.16 147.722 132.365 147.391C132.661 146.945 132.858 146.441 132.942 145.913C132.984 145.562 132.918 145.207 132.752 144.894C132.563 144.594 132.263 144.239 131.883 144.239C131.44 144.245 131.01 144.394 130.659 144.665C130.238 144.941 129.849 145.261 129.498 145.621C129.189 146.01 128.924 146.431 128.708 146.877C128.482 147.258 128.38 147.7 128.415 148.141C128.463 148.52 128.842 148.773 129.166 148.931C129.493 149.059 129.851 149.084 130.193 149.002C130.711 148.865 131.193 148.617 131.607 148.275C131.907 148.031 132.065 147.88 132.089 147.904C132.113 147.928 131.994 148.11 131.71 148.394C131.313 148.811 130.815 149.119 130.264 149.287C129.827 149.432 129.351 149.4 128.936 149.2C128.522 148.999 128.202 148.645 128.044 148.212C127.978 147.685 128.083 147.151 128.344 146.688C128.589 146.205 128.889 145.751 129.237 145.337C129.608 144.949 130.025 144.607 130.477 144.318C130.908 144.003 131.43 143.839 131.962 143.851C132.41 143.96 132.798 144.241 133.042 144.632C133.285 145.023 133.366 145.495 133.266 145.945C133.155 146.508 132.905 147.035 132.539 147.478C132.239 147.794 132.065 147.928 132.049 147.912Z" fill="#263238"/>
<path d="M126.504 153.79C125.39 155.03 123.936 155.575 122.917 154.58C121.898 153.584 123.794 151.364 123.794 151.364C123.794 151.364 125.793 149.239 126.899 150.148C128.005 151.056 127.617 152.549 126.504 153.79Z" fill="#381E3E"/>
<path d="M126.504 153.789C126.504 153.789 126.606 153.592 126.82 153.268C127.114 152.82 127.308 152.313 127.388 151.783C127.436 151.435 127.373 151.081 127.207 150.772C127.009 150.471 126.717 150.116 126.338 150.108C125.893 150.122 125.463 150.271 125.105 150.535C124.685 150.811 124.298 151.134 123.952 151.498C123.631 151.884 123.353 152.302 123.122 152.747C122.892 153.129 122.79 153.574 122.83 154.019C122.877 154.398 123.257 154.651 123.581 154.809C123.906 154.944 124.266 154.971 124.608 154.888C125.126 154.75 125.608 154.502 126.022 154.161C126.322 153.916 126.48 153.766 126.504 153.789C126.527 153.813 126.401 153.995 126.124 154.279C125.724 154.692 125.227 154.999 124.679 155.172C124.242 155.317 123.765 155.286 123.351 155.085C122.936 154.885 122.616 154.53 122.459 154.098C122.389 153.57 122.494 153.034 122.759 152.573C123.002 152.091 123.299 151.638 123.644 151.222C124.018 150.832 124.437 150.487 124.892 150.195C125.323 149.883 125.845 149.722 126.377 149.737C126.824 149.846 127.21 150.125 127.453 150.514C127.697 150.904 127.778 151.373 127.681 151.822C127.571 152.39 127.318 152.92 126.946 153.363C126.693 153.671 126.519 153.805 126.504 153.789Z" fill="#263238"/>
<path d="M119.038 162.993C117.924 164.233 116.478 164.779 115.451 163.783C114.424 162.788 116.336 160.576 116.336 160.576C116.336 160.576 118.335 158.443 119.433 159.351C120.531 160.26 120.152 161.753 119.038 162.993Z" fill="#381E3E"/>
<path d="M119.038 162.993C119.125 162.809 119.231 162.634 119.354 162.472C119.653 162.028 119.85 161.524 119.931 160.994C119.972 160.646 119.906 160.293 119.741 159.983C119.661 159.811 119.54 159.66 119.388 159.544C119.237 159.429 119.06 159.352 118.872 159.32C118.429 159.33 118.001 159.479 117.648 159.746C117.229 160.024 116.84 160.344 116.486 160.702C116.178 161.091 115.913 161.512 115.696 161.958C115.471 162.339 115.369 162.781 115.404 163.222C115.451 163.601 115.831 163.854 116.155 164.012C116.482 164.141 116.84 164.165 117.182 164.083C117.701 163.948 118.183 163.7 118.596 163.357C118.744 163.217 118.905 163.093 119.078 162.985C119.078 162.985 118.983 163.191 118.706 163.475C118.305 163.89 117.805 164.197 117.253 164.368C116.816 164.513 116.339 164.482 115.925 164.281C115.51 164.08 115.19 163.726 115.033 163.293C114.971 162.765 115.079 162.231 115.341 161.769C115.58 161.284 115.878 160.831 116.226 160.418C116.599 160.032 117.015 159.69 117.466 159.399C117.899 159.089 118.419 158.926 118.951 158.933C119.398 159.043 119.784 159.324 120.028 159.715C120.271 160.106 120.352 160.576 120.255 161.026C120.144 161.589 119.894 162.116 119.528 162.559C119.236 162.875 119.062 163.009 119.038 162.993Z" fill="#263238"/>
<path d="M112.955 170.419C111.841 171.659 110.395 172.204 109.368 171.209C108.341 170.214 110.253 167.994 110.253 167.994C110.253 167.994 112.252 165.861 113.35 166.777C114.448 167.693 114.069 169.179 112.955 170.419Z" fill="#381E3E"/>
<path d="M112.955 170.419C112.955 170.419 113.066 170.221 113.271 169.898C113.57 169.451 113.767 168.944 113.848 168.412C113.889 168.064 113.823 167.711 113.658 167.401C113.469 167.101 113.176 166.745 112.789 166.738C112.347 166.752 111.92 166.901 111.565 167.164C110.699 167.691 110.007 168.46 109.574 169.376C109.347 169.76 109.245 170.204 109.282 170.648C109.329 171.027 109.708 171.28 110.072 171.438C110.399 171.565 110.756 171.592 111.099 171.517C111.616 171.378 112.098 171.13 112.513 170.79C112.813 170.545 112.971 170.395 112.995 170.419C113.018 170.443 112.9 170.624 112.623 170.909C112.22 171.321 111.72 171.628 111.17 171.801C110.733 171.944 110.257 171.912 109.843 171.712C109.429 171.512 109.109 171.159 108.95 170.727C108.886 170.199 108.994 169.664 109.258 169.202C109.494 168.716 109.791 168.262 110.143 167.851C110.516 167.463 110.932 167.119 111.383 166.824C111.815 166.513 112.336 166.353 112.868 166.366C113.315 166.475 113.701 166.754 113.944 167.144C114.188 167.534 114.269 168.003 114.172 168.452C114.06 169.018 113.811 169.547 113.445 169.992C113.153 170.3 112.979 170.435 112.955 170.419Z" fill="#263238"/>
<path d="M143.22 189.095C143.255 188.685 143.321 188.278 143.418 187.878C143.568 187.088 143.828 185.99 144.208 184.631C145.186 181.08 146.476 177.622 148.063 174.298C149.653 170.982 151.527 167.811 153.664 164.818C154.493 163.665 155.189 162.764 155.702 162.156C155.936 161.826 156.201 161.519 156.492 161.239C156.293 161.598 156.063 161.939 155.805 162.258C155.331 162.89 154.675 163.838 153.885 164.984C149.746 171.043 146.567 177.705 144.46 184.734C144.057 186.085 143.749 187.183 143.552 187.941C143.473 188.334 143.362 188.72 143.22 189.095Z" fill="#263238"/>
<g opacity="0.3">
<path d="M155.536 162.622C151.175 166.722 148.584 172.331 146.577 177.971C145.487 181.037 144.542 184.149 143.741 187.309C149.5 181.313 152.526 173.271 155.41 165.474C155.789 164.47 156.152 163.309 155.639 162.361" fill="black"/>
</g>
<g opacity="0.3">
<path d="M155.291 106.706C155.463 107.454 155.429 108.235 155.194 108.967C154.959 109.698 154.531 110.352 153.956 110.861C153.956 110.861 96.3809 170.261 85.4157 182.64C78.5585 190.382 79.7514 197.003 81.6079 200.874C82.2851 202.298 83.2462 203.568 84.4321 204.607C85.6181 205.647 87.0039 206.433 88.5046 206.917C102.677 211.388 115.365 186.195 124.22 180.302C128.352 177.553 132.523 176.557 138.117 178.548C138.117 178.548 131.37 174.922 125.082 177.979C118.793 181.037 103.831 202.232 95.7489 203.646C87.6672 205.061 81.9871 201.466 82.0977 195.02C82.0602 192.927 82.4701 190.851 83.2998 188.93C84.1295 187.009 85.36 185.288 86.9088 183.881C88.5441 182.245 106.896 161.705 106.896 161.705C106.896 161.705 154.722 112.678 155.457 111.145C155.824 110.457 156.002 109.683 155.973 108.903C155.944 108.123 155.709 107.365 155.291 106.706Z" fill="black"/>
</g>
<path d="M146.38 164.47C146.38 164.51 145.708 164.249 144.484 163.894C142.755 163.407 140.971 163.142 139.175 163.104C136.503 163.05 133.839 163.407 131.275 164.162C128.146 165.084 125.169 166.463 122.443 168.254C119.733 170.08 117.211 172.17 114.914 174.495C112.781 176.621 110.964 178.675 109.526 180.42C108.089 182.166 106.896 183.58 106.09 184.6L105.15 185.737C105.043 185.872 104.927 185.999 104.802 186.116C104.879 185.961 104.975 185.815 105.087 185.682L105.964 184.505C106.754 183.478 107.86 182.016 109.297 180.239C110.735 178.461 112.513 176.384 114.646 174.227C116.945 171.866 119.481 169.749 122.214 167.907C124.974 166.091 127.995 164.706 131.172 163.799C133.766 163.049 136.462 162.716 139.159 162.811C140.977 162.874 142.776 163.188 144.508 163.744C144.979 163.884 145.441 164.056 145.89 164.257C146.061 164.31 146.225 164.381 146.38 164.47Z" fill="white"/>
<path d="M154.983 120.309C154.912 120.214 155.275 119.859 155.386 119.282C155.497 118.706 155.323 118.239 155.386 118.176C155.449 118.113 155.915 118.611 155.757 119.361C155.599 120.112 155.023 120.42 154.983 120.309Z" fill="white"/>
<path d="M149.248 126.163C149.169 126.076 149.429 125.705 149.5 125.184C149.572 124.662 149.445 124.236 149.548 124.173C149.651 124.109 150.014 124.568 149.911 125.247C149.809 125.926 149.311 126.258 149.248 126.163Z" fill="white"/>
<path d="M142.596 134.142C142.533 134.04 142.959 133.684 143.109 133.068C143.259 132.452 143.109 131.93 143.204 131.875C143.299 131.82 143.378 131.954 143.473 132.191C143.585 132.506 143.599 132.849 143.511 133.172C143.424 133.495 143.239 133.784 142.983 134C142.785 134.158 142.62 134.182 142.596 134.142Z" fill="white"/>
<path d="M137.413 139.743C137.358 139.641 137.808 139.309 138.022 138.693C138.235 138.076 138.117 137.539 138.227 137.492C138.338 137.444 138.693 138.061 138.409 138.835C138.124 139.609 137.437 139.862 137.413 139.743Z" fill="white"/>
<path d="M131.836 146.427C131.765 146.34 131.931 146.056 132.018 145.692C132.105 145.329 132.105 144.997 132.215 144.957C132.326 144.918 132.547 145.297 132.421 145.795C132.294 146.293 131.907 146.49 131.836 146.427Z" fill="white"/>
<path d="M125.413 153.442C125.358 153.347 125.737 152.992 125.769 152.399C125.8 151.807 125.516 151.404 125.595 151.325C125.674 151.246 125.777 151.325 125.935 151.53C126.121 151.795 126.208 152.116 126.181 152.438C126.153 152.761 126.013 153.063 125.785 153.292C125.603 153.458 125.445 153.482 125.413 153.442Z" fill="white"/>
<path d="M117.987 162.922C117.877 162.875 117.987 162.393 118.264 161.84C118.54 161.287 118.809 160.884 118.912 160.931C119.014 160.979 118.912 161.461 118.635 162.014C118.359 162.567 118.09 162.969 117.987 162.922Z" fill="white"/>
<path d="M157.037 112.038C157.567 111.094 157.928 110.065 158.104 108.997C158.156 107.928 158.02 106.858 157.701 105.837C157.748 105.837 157.993 106.105 158.214 106.69C158.499 107.445 158.602 108.257 158.514 109.06C158.431 109.869 158.16 110.648 157.724 111.335C157.377 111.833 157.069 112.078 157.037 112.038Z" fill="white"/>
<path d="M136.063 83.4086C136.781 83.1242 136.268 81.8286 135.865 81.1887C136.494 81.5976 137.245 81.7762 137.99 81.6943C138.198 81.6582 138.384 81.5454 138.512 81.3783C138.741 81.0465 138.551 80.5883 138.338 80.2565C137.988 79.7162 137.563 79.2293 137.074 78.8108L134.404 81.2677C134.404 81.2677 134.854 83.9063 136.063 83.4086Z" fill="#FFBE9D"/>
<path d="M137.153 79.6638C137.153 79.6638 137.54 79.8218 137.943 80.3116C138.245 80.5986 138.441 80.9806 138.496 81.3939C138.49 81.5484 138.432 81.6963 138.33 81.8126C138.229 81.9159 138.104 81.992 137.967 82.0338C137.713 82.1215 137.44 82.1406 137.177 82.0891C136.699 82.0067 136.249 81.8088 135.865 81.5124L136.134 81.2596C136.758 82.5315 136.268 83.519 136.134 83.4242C135.999 83.3294 136.189 83.2109 136.134 82.8475C136.115 82.3637 135.985 81.8907 135.755 81.465C135.728 81.4209 135.72 81.368 135.731 81.3178C135.743 81.2677 135.774 81.2241 135.818 81.1964C135.849 81.1791 135.884 81.1701 135.92 81.1701C135.956 81.1701 135.992 81.1791 136.023 81.1964C136.37 81.4403 136.767 81.6048 137.184 81.6783C137.595 81.7573 138.077 81.623 138.061 81.3702C138.012 81.0435 137.873 80.7369 137.658 80.4854C137.398 79.9798 137.113 79.7112 137.153 79.6638Z" fill="#EB996E"/>
<path d="M126.993 156.12C126.683 155.215 126.309 154.333 125.872 153.482C125.578 152.752 125.082 152.122 124.442 151.665C124.114 151.449 123.715 151.368 123.329 151.44C122.943 151.513 122.6 151.732 122.372 152.052C122.185 152.502 122.171 153.006 122.332 153.466C122.576 154.361 122.986 155.203 123.541 155.946C122.972 155.504 122.538 154.904 121.961 154.516C121.674 154.299 121.319 154.192 120.96 154.214C120.6 154.235 120.261 154.385 120.002 154.635C119.559 155.212 119.868 156.049 120.247 156.681C120.774 157.537 121.394 158.331 122.095 159.051C122.317 159.274 122.59 159.44 122.89 159.534C123.19 159.627 123.508 159.646 123.818 159.588C123.983 159.593 124.145 159.533 124.268 159.422C124.353 159.301 124.402 159.159 124.41 159.012C124.495 158.333 124.522 157.648 124.489 156.965C124.797 157.346 125.182 157.659 125.619 157.882C125.84 157.988 126.089 158.023 126.331 157.982C126.573 157.941 126.796 157.826 126.97 157.653C127.096 157.418 127.164 157.156 127.168 156.889C127.172 156.623 127.112 156.359 126.993 156.12Z" fill="#FFBE9D"/>
<path d="M128.668 150.321C128.509 150.053 128.303 149.814 128.06 149.618C127.862 149.475 127.629 149.386 127.385 149.362C127.141 149.338 126.896 149.379 126.673 149.482C126.45 149.584 126.259 149.743 126.118 149.943C125.977 150.144 125.892 150.378 125.872 150.622C125.861 151.077 125.973 151.527 126.195 151.925C126.428 152.514 126.774 153.051 127.215 153.505C127.373 153.804 127.628 154.04 127.938 154.175C128.248 154.31 128.594 154.335 128.921 154.248C129.073 154.22 129.216 154.158 129.34 154.066C129.452 153.966 129.542 153.845 129.606 153.709C129.67 153.573 129.705 153.426 129.711 153.276C129.721 152.199 129.352 151.154 128.668 150.321Z" fill="#FFBE9D"/>
<path d="M122.253 159.778C121.932 158.748 121.261 157.862 120.357 157.273C120.124 157.068 119.857 156.905 119.567 156.791C119.335 156.72 119.088 156.709 118.85 156.76C118.612 156.811 118.391 156.923 118.209 157.084C118.029 157.249 117.896 157.459 117.822 157.692C117.749 157.924 117.738 158.172 117.79 158.411C117.919 158.85 118.165 159.246 118.501 159.556C118.899 160.046 119.39 160.452 119.947 160.749C120.188 160.987 120.504 161.136 120.842 161.17C121.179 161.204 121.518 161.123 121.803 160.939C121.939 160.865 122.058 160.763 122.151 160.639C122.294 160.376 122.331 160.067 122.253 159.778Z" fill="#FFBE9D"/>
<path d="M122.159 159.193C122.072 159.264 121.716 158.941 121.321 158.514C120.926 158.087 120.658 157.724 120.737 157.613C120.816 157.503 121.226 157.795 121.629 158.237C122.032 158.68 122.253 159.13 122.159 159.193Z" fill="#AA6550"/>
<path d="M124.655 157.06C124.552 157.06 124.315 156.831 123.904 156.57C123.494 156.31 123.193 155.883 123.304 155.78C123.415 155.678 123.699 155.915 124.141 156.199C124.584 156.483 124.781 157.028 124.655 157.06Z" fill="#AA6550"/>
<path d="M86.6639 171.509L98.3717 169.202L105.774 172.189L108.341 175.562C108.341 175.562 108.428 179.235 107.678 179.512C107.504 179.561 107.32 179.57 107.142 179.538C106.964 179.506 106.796 179.433 106.65 179.325C106.504 179.218 106.385 179.078 106.302 178.918C106.218 178.757 106.173 178.579 106.169 178.398V177.094L105.339 176.85L105.071 181.345C105.053 181.632 104.926 181.901 104.716 182.098C104.506 182.295 104.229 182.404 103.941 182.403H103.72L103.554 185.476C103.554 185.476 103.222 185.974 102.227 185.476C101.433 184.916 100.781 184.177 100.323 183.32L99.8253 181.495L97.2499 178.509C97.2499 178.509 100.987 185.224 100.568 186.306C100.149 187.388 99.5725 187.633 98.9879 187.214C98.4033 186.796 94.5086 180.104 94.5086 180.104C94.5086 180.104 90.9457 179.694 90.6929 179.607C90.4401 179.52 83.891 181.297 82.9825 180.713L79.8225 178.722L86.6639 171.509Z" fill="#FFBE9D"/>
<path d="M97.163 174.788C97.7463 174.734 98.3318 174.864 98.8378 175.159C100.068 175.816 101.12 176.762 101.903 177.916C102.719 179.04 103.279 180.329 103.546 181.692C103.692 182.249 103.716 182.831 103.617 183.399C103.546 183.399 103.53 182.751 103.262 181.756C102.921 180.461 102.345 179.24 101.563 178.153C100.815 177.05 99.8397 176.118 98.7035 175.42C98.2049 175.174 97.6902 174.963 97.163 174.788Z" fill="#AA6550"/>
<path d="M100.181 171.888C100.662 172.019 101.125 172.213 101.555 172.465L102.985 173.184L103.831 173.626C104.154 173.779 104.454 173.976 104.723 174.211C104.959 174.479 105.136 174.793 105.243 175.133C105.351 175.473 105.386 175.832 105.347 176.186C105.347 176.739 105.308 177.276 105.284 177.766C105.308 178.264 105.255 178.762 105.126 179.243C105.015 178.759 104.972 178.262 105 177.766C105 177.245 105 176.715 105 176.186C105.052 175.58 104.862 174.977 104.47 174.511C103.954 174.14 103.41 173.81 102.843 173.524L101.445 172.734C100.984 172.515 100.559 172.23 100.181 171.888Z" fill="#AA6550"/>
<path d="M89.8555 83.1003C89.8555 83.1003 81.0865 83.5664 76.6467 89.4203C72.2069 95.2742 47.2508 125.041 48.0487 131.875C48.8466 138.708 58.0659 161.761 64.5834 168.76C68.7494 173.142 73.4968 176.933 78.6928 180.025L86.8456 171.572L77.9344 156.831C77.9344 156.831 76.8205 150.314 76.5045 149.721C76.1885 149.129 74.1345 148.449 74.1345 148.449L70.6348 133.186L72.2148 132.87L92.2492 113.476L98.7667 110.616C98.7667 110.616 107.638 99.9115 103.214 90.076C99.5567 81.9943 94.8641 83.8982 89.8555 83.1003Z" fill="#455A64"/>
<path d="M60.27 125.681C60.27 125.681 60.4596 125.634 60.8072 125.634C61.2976 125.631 61.787 125.676 62.2687 125.768C63.8748 126.063 65.3946 126.713 66.7164 127.672C68.0352 128.639 69.1272 129.882 69.9159 131.314C70.1557 131.743 70.3566 132.192 70.5163 132.657C70.6269 132.981 70.6743 133.171 70.6427 133.178C70.6111 133.186 70.303 132.491 69.6631 131.456C68.8355 130.118 67.7635 128.946 66.5031 128.004C65.2219 127.082 63.7727 126.419 62.2371 126.053C61.0047 125.776 60.27 125.752 60.27 125.681Z" fill="#263238"/>
<path d="M95.03 109.889C95.03 109.889 94.9036 110.047 94.635 110.324L93.45 111.556L88.8838 116.225L72.3333 132.981H72.2938H72.2464L70.6664 133.305L70.8007 133.092C71.8672 137.745 73.0601 142.896 74.3162 148.347L74.1819 148.204C74.9924 148.433 75.7588 148.796 76.4492 149.279C76.5441 149.365 76.6242 149.467 76.6862 149.579C76.7324 149.684 76.7694 149.792 76.7968 149.903C76.86 150.108 76.8995 150.314 76.9548 150.511L77.2155 151.744C77.542 153.397 77.8501 155.077 78.1398 156.784V156.713L85.4157 168.744C85.9608 169.645 86.5059 170.554 87.051 171.446L87.13 171.581L87.0194 171.699L78.8666 180.152L78.756 180.271L78.6217 180.192C75.1258 178.103 71.8283 175.7 68.7704 173.01C67.3223 171.753 65.9406 170.422 64.6308 169.021C63.4071 167.657 62.3073 166.187 61.3444 164.629C58.1321 159.292 55.3681 153.698 53.081 147.904C51.5029 144.094 50.1394 140.198 48.9967 136.236C48.7992 135.541 48.6333 134.917 48.5148 134.379C48.3963 133.842 48.2778 133.376 48.2304 133.005C48.183 132.634 48.1356 132.357 48.1119 132.152C48.0996 132.055 48.0996 131.956 48.1119 131.859C48.1396 131.953 48.1607 132.048 48.1751 132.144C48.1751 132.349 48.2699 132.634 48.3331 132.989C48.3963 133.345 48.5306 133.779 48.657 134.348C48.7834 134.917 48.9572 135.509 49.1626 136.196C50.3572 140.134 51.7547 144.008 53.3496 147.802C55.6714 153.563 58.4561 159.127 61.6762 164.439C62.6302 165.976 63.7194 167.425 64.931 168.768C66.2029 170.127 67.5854 171.438 69.0469 172.718C72.0939 175.379 75.3752 177.758 78.8508 179.828L78.6138 179.868L86.7587 171.399V171.652C86.2215 170.759 85.6764 169.85 85.1234 168.95L77.8554 156.918C77.5631 155.212 77.2629 153.529 76.9311 151.886C76.8521 151.475 76.7652 151.096 76.6783 150.669C76.6309 150.464 76.5835 150.266 76.5282 150.077C76.5064 149.988 76.4774 149.9 76.4413 149.816C76.4015 149.748 76.3508 149.686 76.2912 149.634C75.6477 149.189 74.935 148.852 74.1819 148.639H74.0713V148.528L70.5953 133.266V133.092H70.7691L72.3491 132.776L72.2622 132.823L88.71 116.083L93.3394 111.485C93.8608 110.972 94.2716 110.569 94.5639 110.292L95.03 109.889Z" fill="#263238"/>
<path d="M103.996 95.3849C103.917 95.3849 104.036 94.3026 103.744 92.612C103.377 90.3991 102.41 88.329 100.949 86.627C99.4882 84.9249 97.5884 83.656 95.4566 82.9582C93.8213 82.4131 92.7311 82.3736 92.7469 82.2946C93.0084 82.2504 93.2754 82.2504 93.5369 82.2946C94.228 82.3515 94.9112 82.4812 95.5751 82.6817C97.791 83.3399 99.7745 84.6138 101.295 86.3552C102.794 88.116 103.754 90.272 104.06 92.5646C104.159 93.2498 104.185 93.9436 104.139 94.6344C104.134 94.8908 104.086 95.1446 103.996 95.3849Z" fill="#263238"/>
</svg>
