<svg width="336" height="300" viewBox="0 0 336 300" fill="none" xmlns="http://www.w3.org/2000/svg">
<path d="M361.597 298.544C361.597 298.661 280.848 298.761 181.264 298.761C81.6793 298.761 0.91333 298.678 0.91333 298.544C0.91333 298.41 81.6458 298.327 181.264 298.327C280.881 298.327 361.597 298.444 361.597 298.544Z" fill="#263238"/>
<path d="M98.5664 11.1607C85.1486 32.2613 86.0264 61.5213 100.69 81.7776C110.463 95.2874 125.118 104.35 136.755 116.271C148.392 128.192 157.237 145.79 151.092 161.29C144.839 177.065 126.522 183.477 112.812 193.476C97.6848 204.493 87.4155 220.944 84.1606 239.373C80.9057 257.801 84.9185 276.775 95.3562 292.307H237.827C237.827 292.307 262.857 244.614 230.679 208.256C198.502 171.898 181.222 171.313 182.409 147.47C183.596 123.628 200.283 115.895 209.821 106.95C219.36 98.0044 265.833 77.1629 238.421 11.1523L98.5664 11.1607Z" fill="#FAFAFA"/>
<path d="M98.5664 11.1607H101.016H108.239H136.044L238.421 11.0854H238.53V11.1858C240.628 16.1839 242.415 21.3072 243.88 26.5264C245.418 31.9907 246.432 37.5895 246.906 43.2464C247.399 49.1596 247.096 55.1122 246.003 60.9445C244.804 66.9902 242.63 72.8009 239.566 78.1494C237.979 80.8773 236.185 83.4793 234.199 85.9325C232.172 88.4186 229.98 90.7648 227.637 92.9549C225.263 95.185 222.777 97.2917 220.188 99.2667C217.596 101.273 214.888 103.162 212.246 105.169C210.925 106.164 209.738 107.284 208.45 108.404C207.163 109.524 205.884 110.569 204.563 111.623C201.929 113.73 199.271 115.803 196.763 118.135C191.528 122.672 187.506 128.442 185.059 134.922C183.883 138.246 183.141 141.708 182.852 145.222C182.777 146.058 182.66 146.977 182.626 147.863C182.593 148.75 182.559 149.636 182.626 150.522C182.645 152.301 182.824 154.075 183.161 155.822C183.824 159.362 185.269 162.71 187.391 165.62C189.575 168.53 192.048 171.21 194.773 173.621C200.182 178.561 205.926 183.285 211.418 188.384C216.911 193.484 222.286 198.801 227.469 204.427C230.114 207.212 232.587 210.155 234.876 213.239C237.179 216.361 239.18 219.695 240.854 223.195C244.237 230.29 246.316 237.936 246.99 245.767C247.672 253.707 247.204 261.704 245.602 269.51C244.823 273.454 243.801 277.346 242.542 281.164C241.305 285.014 239.796 288.771 238.028 292.408L237.969 292.525H95.2392L95.1807 292.433C88.4995 282.373 84.402 270.822 83.2509 258.801C82.0929 247.254 83.7865 235.599 88.1833 224.859C92.3621 214.593 98.7965 205.399 107.01 197.957C110.996 194.438 115.3 191.298 119.868 188.577C124.315 185.818 128.805 183.26 133.043 180.467C137.286 177.815 141.183 174.648 144.647 171.037C147.954 167.492 150.408 163.237 151.82 158.598C153.057 154.072 153.251 149.324 152.388 144.712C151.563 140.261 150.078 135.958 147.982 131.946C145.978 128.083 143.574 124.44 140.81 121.078C138.142 117.853 135.241 114.826 132.132 112.024C126.104 106.473 119.926 101.616 114.375 96.625C111.591 94.117 108.958 91.609 106.525 89.0425C104.167 86.5298 101.994 83.8505 100.021 81.0252C96.4551 75.8439 93.7061 70.1456 91.8701 64.1297C90.2619 58.9344 89.329 53.5537 89.0946 48.1202C88.9775 46.883 89.0277 45.6624 89.0277 44.4669C89.0277 43.2715 89.0277 42.1094 89.1364 40.9808C89.245 39.8522 89.3036 38.7487 89.3872 37.6368C89.4708 36.5249 89.6965 35.5301 89.8386 34.5185C90.7622 28.3605 92.6466 22.3857 95.4231 16.812C95.7991 15.9498 96.2291 15.1122 96.7105 14.304L97.7388 12.5568C98.2822 11.6289 98.5748 11.1607 98.5748 11.1607L97.7388 12.5819L96.744 14.304C96.2741 15.1158 95.8498 15.9531 95.4732 16.812C92.7219 22.3992 90.8603 28.3818 89.9557 34.5436C89.8135 35.5468 89.6463 36.5834 89.5209 37.6452C89.3955 38.7069 89.3537 39.8188 89.2701 40.9474C89.1865 42.076 89.1865 43.238 89.1782 44.4251C89.1698 45.6123 89.1364 46.8328 89.2534 48.0701C89.4952 53.4856 90.4366 58.847 92.054 64.021C93.8878 70.0154 96.6342 75.6916 100.197 80.8497C102.164 83.6632 104.335 86.3288 106.692 88.8251C109.117 91.4 111.75 93.908 114.534 96.3491C120.085 101.365 126.238 106.172 132.307 111.731C135.441 114.554 138.364 117.603 141.052 120.852C143.831 124.239 146.249 127.906 148.267 131.795C150.383 135.832 151.882 140.164 152.714 144.645C153.59 149.306 153.395 154.106 152.146 158.681C150.727 163.374 148.251 167.679 144.906 171.263C141.425 174.895 137.511 178.084 133.252 180.76C128.997 183.561 124.508 186.119 120.068 188.878C115.52 191.592 111.233 194.721 107.261 198.224C99.0978 205.628 92.7011 214.77 88.5428 224.976C84.1726 235.661 82.4932 247.256 83.6522 258.742C84.8034 270.694 88.8805 282.179 95.5234 292.182L95.3562 292.09H237.827L237.635 292.207C239.4 288.58 240.903 284.83 242.133 280.988C243.385 277.187 244.402 273.311 245.176 269.384C246.771 261.617 247.236 253.659 246.555 245.759C245.894 237.971 243.829 230.366 240.461 223.312C238.799 219.837 236.815 216.526 234.534 213.423C232.25 210.354 229.788 207.423 227.16 204.645C222.005 199.032 216.663 193.693 211.134 188.627C205.65 183.536 199.923 178.821 194.497 173.855C191.751 171.424 189.256 168.725 187.049 165.796C184.885 162.85 183.403 159.461 182.71 155.872C182.375 154.099 182.193 152.301 182.166 150.497C182.125 149.602 182.166 148.708 182.166 147.813C182.166 146.919 182.317 146.033 182.384 145.146C182.691 141.612 183.449 138.13 184.641 134.788C187.109 128.251 191.169 122.432 196.454 117.859C198.962 115.535 201.645 113.429 204.279 111.33C205.6 110.277 206.895 109.215 208.158 108.128C209.42 107.042 210.666 105.871 211.97 104.868C214.628 102.862 217.329 100.972 219.912 98.9741C222.493 97.0079 224.974 94.9125 227.344 92.6958C229.672 90.5155 231.853 88.1835 233.873 85.7152C235.843 83.2704 237.628 80.6829 239.215 77.9738C242.261 72.6623 244.424 66.8912 245.619 60.886C246.706 55.101 247.013 49.1964 246.53 43.33C246.063 37.674 245.058 32.0754 243.529 26.61C242.084 21.3765 240.32 16.2365 238.245 11.2192L238.387 11.3112L136.069 11.2359H108.247H101.008L98.5664 11.1607Z" fill="#263238"/>
<path d="M232.736 49.8589C253.72 53.3116 220.639 90.4802 201.904 105.144C191.036 113.629 179.416 122.842 174.266 135.616C168.414 150.112 172.753 166.397 169.927 180.977C169.836 181.48 169.559 181.93 169.15 182.236C168.741 182.542 168.231 182.683 167.723 182.629C167.215 182.575 166.746 182.33 166.411 181.945C166.075 181.56 165.898 181.061 165.915 180.551C166.048 170.979 165.798 161.415 164.243 151.993C161.994 138.617 156.861 125.417 147.523 115.627C139.873 107.627 129.85 102.318 121.699 94.8441C109.794 83.9343 97.5633 69.8644 96.3678 53.7631C96.3678 53.7631 119.224 35.3711 131.915 37.6701C146.745 40.3871 161.342 63.2684 184.315 60.6517C200.299 58.8209 208.4 45.8629 232.736 49.8589Z" fill="#381E3E"/>
<path d="M234.6 248.785C234.074 243.535 232.669 237.6 228.013 235.125C225.195 233.62 221.759 233.787 218.666 234.598C215.573 235.409 212.672 236.822 209.612 237.733C203.53 239.522 197.034 239.314 191.078 237.14C185.385 235.05 180.503 231.288 175.194 228.295C169.886 225.302 163.724 223.112 157.839 224.575C147.69 227.083 142.406 239.322 132.374 242.273C127.91 243.577 123.12 242.841 118.589 241.821C114.058 240.801 109.501 239.472 104.862 239.648C101.217 239.781 97.4295 241.044 94.8797 243.535L94.8129 243.61C94.3884 244.026 94.0022 244.479 93.6592 244.965C90.5493 249.145 90.0477 254.687 91.0091 259.754C92.0791 265.43 94.7293 270.672 97.5717 275.696C100.916 281.615 104.728 287.5 110.262 291.446C117.101 296.32 125.686 292.959 134.055 293.62C153.559 295.158 174.542 296.203 194.054 294.698C204.362 293.862 214.018 295.016 222.194 288.687C227.946 284.24 231.691 277.535 233.497 270.496C235.303 263.457 235.328 256.017 234.6 248.785Z" fill="#381E3E"/>
<g opacity="0.24">
<path d="M197.783 238.737C196.688 240.409 196.211 242.683 197.273 244.388C198.335 246.093 199.781 247.657 200.232 249.621C200.96 252.698 199.104 255.707 197.724 258.558C195.171 263.655 194.207 269.401 194.957 275.052C195.748 280.722 198.676 285.875 203.142 289.457C205.123 290.987 207.698 292.174 210.089 291.421C212.338 290.719 213.784 288.437 214.269 286.121C214.754 283.805 214.344 281.423 214.052 279.09C212.69 268.22 212.972 257.206 214.888 246.419C215.205 244.622 215.506 242.565 214.369 241.136C213.549 240.303 212.508 239.723 211.368 239.464C207.021 238.018 202.331 239.623 197.825 238.77" fill="black"/>
</g>
<path d="M84.8978 298.778C84.8978 298.778 84.5049 292.24 93.0321 288.595H242.885C242.885 288.595 250.702 292.558 251.663 298.627L84.8978 298.778Z" fill="#263238"/>
<path d="M239.7 11.9548L239.458 12.0635L98.5498 11.1606C98.5498 11.1606 98.0482 10.8429 97.3042 10.2494C96.4258 9.56125 95.7849 8.61532 95.4715 7.54439C95.1581 6.47345 95.1879 5.33125 95.5568 4.27814C95.9257 3.22502 96.6151 2.31384 97.5282 1.67251C98.4413 1.03118 99.5324 0.691887 100.648 0.702257L237.418 1.80578C243.044 1.85594 244.816 9.54714 239.7 11.9548Z" fill="#263238"/>
<g opacity="0.24">
<path d="M217.128 65.7095C217.412 66.2529 216.35 67.3815 214.336 69.2207C212.321 71.0599 209.32 73.4759 205.591 76.5106C201.114 80.2093 196.363 83.5629 191.379 86.5426C188.283 88.3355 185.025 89.8329 181.648 91.0152C179.818 91.6477 177.95 92.1643 176.055 92.5618C174.065 92.9845 172.043 93.2473 170.011 93.3477C165.892 93.5718 161.769 93.0042 157.864 91.6757C154.412 90.42 151.131 88.7348 148.099 86.6597C145.29 84.8037 142.874 82.9645 140.575 81.2006C138.276 79.4366 136.228 77.7395 134.372 76.1344C126.974 69.7223 123.078 65.0073 123.83 64.096C124.583 63.1848 129.85 66.1526 138.042 71.1686L144.73 75.265C147.13 76.7196 149.696 78.3331 152.321 79.8212C154.926 81.3503 157.687 82.5975 160.556 83.5414C163.492 84.4205 166.558 84.7826 169.618 84.6115C176.039 84.2771 182.267 82.0199 187.659 79.4115C193.051 76.8032 197.933 73.7602 202.164 71.3859C205.511 69.4104 209.011 67.7051 212.63 66.2863C215.28 65.3584 216.886 65.1828 217.128 65.7095Z" fill="black"/>
</g>
<path d="M166.015 198.441C166.607 198.206 167.269 198.213 167.856 198.461C168.443 198.709 168.908 199.179 169.152 199.768C169.395 200.357 169.397 201.019 169.156 201.609C168.916 202.199 168.452 202.671 167.866 202.922C167.28 203.173 166.619 203.184 166.025 202.951C165.432 202.718 164.954 202.261 164.695 201.678C164.437 201.096 164.418 200.434 164.643 199.838C164.868 199.242 165.319 198.758 165.898 198.491" fill="#CEAB5E"/>
<path d="M115.621 89.0256C115.438 88.8753 115.27 88.7073 115.119 88.524L113.757 87.036C113.18 86.3755 112.419 85.6064 111.641 84.6283L108.983 81.2843C108.072 79.9968 107.043 78.6091 106.007 77.1043L104.477 74.6715C104.218 74.2535 103.942 73.8355 103.691 73.3924L102.955 72.0381C100.731 68.0951 98.9875 63.8989 97.7639 59.5399C96.5342 55.1845 95.8711 50.6888 95.7909 46.1639C95.7909 45.1189 95.8494 44.1074 95.8661 43.1125C95.8661 42.6193 95.8661 42.1344 95.933 41.6579C95.9999 41.1814 96.0333 40.7132 96.0835 40.2534C96.1922 39.3338 96.2591 38.4393 96.3845 37.5866C96.5099 36.7339 96.6854 35.9146 96.8275 35.1538C97.0616 33.5905 97.4796 32.2278 97.7722 30.9738C97.931 30.3719 98.0564 29.8034 98.2153 29.3018L98.6751 27.9057L99.3188 25.9913C99.3803 25.7633 99.4643 25.5421 99.5696 25.3308C99.5352 25.564 99.4793 25.7935 99.4024 26.0163C99.2603 26.5012 99.0764 27.1449 98.8339 27.9558L98.4159 29.352C98.2738 29.8619 98.1568 30.4304 98.0063 31.024C97.7388 32.2362 97.3458 33.6072 97.1703 35.204C97.0365 35.9731 96.9028 36.784 96.7607 37.6284C96.6185 38.4727 96.5851 39.3589 96.4848 40.2785C96.4848 40.7383 96.3928 41.1981 96.3427 41.6746C96.2925 42.1511 96.3427 42.636 96.2925 43.1209C96.2925 44.1074 96.2256 45.1106 96.234 46.1472C96.3156 50.6455 96.9701 55.1151 98.1819 59.448C99.3989 63.7749 101.119 67.9443 103.307 71.8709C103.549 72.3224 103.791 72.7738 104.025 73.2252C104.26 73.6767 104.552 74.0612 104.803 74.496L106.308 76.9287C107.328 78.467 108.339 79.8547 109.225 81.1087L111.834 84.4527C112.586 85.4476 113.33 86.2251 113.882 86.9106L115.186 88.4572C115.343 88.6373 115.488 88.8272 115.621 89.0256Z" fill="#263238"/>
<path d="M107.687 213.222C107.729 213.125 107.779 213.033 107.838 212.946L108.339 212.16C108.565 211.809 108.841 211.391 109.175 210.889L109.702 210.053C109.911 209.777 110.153 209.501 110.396 209.217L112.068 207.211C112.712 206.517 113.447 205.798 114.225 205.012C116.027 203.276 117.943 201.662 119.96 200.18C124.399 196.836 130.126 193.492 136.329 189.571C139.59 187.561 142.726 185.353 145.717 182.958C148.926 180.402 151.76 177.408 154.135 174.063C158.484 167.382 160.847 159.604 160.949 151.634C161.055 145.137 159.967 138.676 157.739 132.573C156.263 128.454 154.41 124.48 152.204 120.702C151.427 119.356 150.791 118.336 150.357 117.642L149.863 116.856C149.755 116.68 149.705 116.58 149.705 116.58C149.779 116.655 149.844 116.739 149.897 116.831L150.432 117.6C150.892 118.269 151.552 119.272 152.346 120.618C154.621 124.376 156.524 128.346 158.031 132.472C160.319 138.601 161.453 145.1 161.375 151.642C161.34 153.528 161.186 155.41 160.915 157.277C160.645 159.229 160.234 161.16 159.686 163.053C158.545 167.063 156.769 170.865 154.428 174.314C152.028 177.695 149.163 180.721 145.918 183.301C142.909 185.698 139.757 187.909 136.479 189.922C130.251 193.81 124.516 197.12 120.077 200.439C118.061 201.902 116.14 203.49 114.325 205.196C113.548 205.974 112.804 206.676 112.151 207.361L110.479 209.326C110.229 209.627 109.986 209.903 109.777 210.162L109.234 210.956L108.398 212.202L107.863 212.963C107.811 213.053 107.753 213.14 107.687 213.222Z" fill="#263238"/>
<path d="M99.9124 227.994C99.862 228.13 99.8005 228.261 99.7285 228.387L99.1266 229.448C98.859 229.9 98.5414 230.468 98.2153 231.12C97.8893 231.773 97.4713 232.542 97.1202 233.419C96.9362 233.854 96.7356 234.306 96.535 234.774C96.3343 235.242 96.1671 235.76 95.9665 236.279C95.5652 237.315 95.2475 238.452 94.8797 239.623C93.4256 244.863 92.9244 250.323 93.4 255.741C93.5421 256.978 93.6424 258.165 93.8598 259.252C93.9517 259.795 94.027 260.33 94.1356 260.832C94.2443 261.334 94.3614 261.818 94.47 262.278C94.654 263.206 94.9298 264.017 95.1305 264.736C95.3311 265.455 95.5318 266.074 95.7157 266.575L96.1086 267.729C96.165 267.859 96.2016 267.997 96.2173 268.139C96.1367 268.022 96.0721 267.896 96.025 267.762C95.8996 267.453 95.7491 267.085 95.5568 266.634C95.3042 266.039 95.0837 265.43 94.8964 264.811C94.6707 264.092 94.3781 263.281 94.1691 262.353C94.052 261.894 93.935 261.409 93.8096 260.907C93.6842 260.406 93.609 259.862 93.5003 259.319C93.2662 258.215 93.1492 257.028 92.9987 255.782C92.4754 250.331 92.9801 244.829 94.4868 239.564C94.863 238.36 95.1974 237.215 95.6237 236.178C95.8327 235.66 95.9999 235.15 96.2173 234.673L96.8359 233.311C97.2038 232.475 97.6719 231.697 97.998 231.029C98.2926 230.453 98.6191 229.895 98.9761 229.357L99.6449 228.328C99.8121 228.103 99.8957 227.985 99.9124 227.994Z" fill="#263238"/>
<path d="M203.267 248.091L203.1 248.208L202.582 248.534L200.55 249.755L199.079 250.591C198.527 250.9 197.917 251.185 197.265 251.511C195.944 252.146 194.489 252.957 192.767 253.609L190.092 254.704C189.164 255.072 188.152 255.365 187.132 255.716C185.101 256.46 182.844 256.995 180.494 257.605C170.18 260.021 159.481 260.305 149.053 258.441C146.662 257.956 144.388 257.538 142.314 256.903C141.278 256.602 140.258 256.368 139.305 256.067L136.579 255.072C134.832 254.512 133.327 253.785 131.981 253.216C131.313 252.923 130.686 252.664 130.125 252.38L128.604 251.586L126.514 250.474L125.979 250.173L125.803 250.064C125.803 250.064 125.879 250.064 126.004 250.14L126.556 250.399L128.679 251.435L130.209 252.188C130.778 252.455 131.413 252.698 132.082 252.982C133.428 253.517 134.932 254.228 136.688 254.763L139.38 255.741C140.333 256.058 141.353 256.284 142.39 256.577C144.455 257.195 146.72 257.588 149.078 258.065C159.458 259.862 170.091 259.578 180.361 257.229C182.702 256.627 184.95 256.117 186.982 255.39C188.002 255.047 189.005 254.771 189.933 254.403L192.608 253.341C194.33 252.706 195.793 251.92 197.114 251.31C197.766 250.992 198.385 250.716 198.937 250.474L200.425 249.638L202.49 248.484L203.033 248.2C203.2 248.108 203.267 248.083 203.267 248.091Z" fill="#263238"/>
<path d="M211.987 71.1519C211.935 71.2124 211.876 71.2658 211.811 71.3107L211.259 71.7621C210.749 72.1718 210.039 72.7486 209.127 73.4341C207.271 74.9055 204.58 77.0373 201.177 79.5787C197.218 82.6098 193.065 85.38 188.746 87.8719C186.177 89.3093 183.499 90.542 180.737 91.5586C177.757 92.6427 174.649 93.3341 171.491 93.6152C165.35 93.9598 159.227 92.6856 153.734 89.9201C151.358 88.7134 149.066 87.3506 146.87 85.8404C144.831 84.4025 142.966 83.0063 141.319 81.6604C137.975 79.0019 135.417 76.7531 133.612 75.2148L131.547 73.4258L131.02 72.9576L130.844 72.7821C130.844 72.7821 130.92 72.7821 131.045 72.9158L131.605 73.3589L133.72 75.0811C135.559 76.5859 138.184 78.7929 141.512 81.4179C143.184 82.7305 145.031 84.1099 147.079 85.5311C149.267 87.0152 151.548 88.3556 153.91 89.5439C159.348 92.2546 165.399 93.5022 171.466 93.1637C174.586 92.887 177.657 92.207 180.603 91.1406C183.347 90.1376 186.008 88.9217 188.562 87.504C192.875 85.0574 197.032 82.3464 201.01 79.3865C204.421 76.8785 207.138 74.7885 209.035 73.3589L211.217 71.6869L211.794 71.2689C211.852 71.2205 211.917 71.181 211.987 71.1519Z" fill="#263238"/>
<g opacity="0.24">
<path d="M136.588 255.114C140.55 252.054 146.118 252.79 151.017 253.826C155.916 254.863 160.848 256.527 165.806 255.833C169.543 255.306 172.97 253.475 176.674 252.673C180.377 251.87 184.833 252.464 186.882 255.632C170.511 260.907 152.871 260.725 136.613 255.114" fill="black"/>
</g>
<path d="M274.812 232.425L256.838 212.269L256.654 236.772L262.071 252.489L208.216 261.827L205.934 219.333L202.055 186.729C201.824 184.785 202.244 182.82 203.248 181.139C204.253 179.459 205.785 178.159 207.606 177.441L222.428 171.589L243.328 175.418L251.73 178.612C255.253 179.953 258.393 182.137 260.876 184.973L286.157 213.882" fill="#381E3E"/>
<path d="M255.584 207.42C256.599 207.406 257.612 207.334 258.619 207.203C261.043 206.833 263.303 205.747 265.106 204.085C266.91 202.423 268.176 200.259 268.743 197.873C268.951 196.876 269.104 195.869 269.202 194.855C269.27 195.128 269.296 195.41 269.278 195.691C269.284 196.45 269.205 197.207 269.044 197.948C268.537 200.431 267.263 202.691 265.401 204.409C263.539 206.127 261.184 207.215 258.669 207.52C257.918 207.617 257.158 207.634 256.403 207.571C256.124 207.565 255.847 207.514 255.584 207.42Z" fill="#CEAB5E"/>
<path d="M257.147 235.727C257.273 235.727 257.306 227.233 257.222 216.767C257.139 206.3 256.963 197.814 256.838 197.814C256.713 197.814 256.679 206.3 256.763 216.775C256.846 227.25 257.022 235.727 257.147 235.727Z" fill="#263238"/>
<path d="M255.174 241.955L222.637 228.855C221.351 228.337 220.235 227.47 219.415 226.352C218.595 225.234 218.104 223.909 217.997 222.526L215.615 191.327C215.615 191.327 215.899 178.051 207.606 177.407L202.916 179.263C196.822 182.499 195.317 191.377 196.144 198.224C197.323 207.955 197.816 221.732 199.129 230.176C200.216 237.09 204.145 243.167 210.933 244.948L251.011 253.626L255.174 241.955Z" fill="#381E3E"/>
<path d="M216.083 196.084C216.137 196.317 216.171 196.555 216.183 196.794C216.233 197.304 216.309 197.99 216.392 198.851C216.56 200.682 216.794 203.257 217.078 206.417C217.362 209.577 217.68 213.431 218.048 217.644C218.131 218.706 218.223 219.784 218.315 220.888C218.38 222.011 218.519 223.128 218.733 224.232C218.96 225.348 219.527 226.367 220.355 227.15C221.246 227.933 222.26 228.566 223.356 229.022C232.327 232.901 240.595 236.111 246.597 238.36L253.728 240.985L255.668 241.696C255.895 241.771 256.115 241.863 256.328 241.972C256.091 241.929 255.859 241.864 255.634 241.78L253.67 241.144C251.998 240.576 249.49 239.731 246.497 238.636C240.452 236.463 232.176 233.302 223.172 229.44C222.034 228.962 220.98 228.301 220.054 227.484C219.165 226.64 218.558 225.542 218.315 224.341C218.099 223.22 217.962 222.086 217.905 220.946C217.814 219.834 217.73 218.756 217.646 217.694C217.32 213.514 217.019 209.669 216.81 206.459C216.601 203.248 216.392 200.715 216.259 198.884C216.2 198.048 216.158 197.329 216.133 196.819C216.095 196.576 216.078 196.33 216.083 196.084Z" fill="#263238"/>
<path d="M197.44 213.046C197.474 213.183 197.493 213.323 197.499 213.464L197.607 214.668C197.708 215.78 197.833 217.277 197.992 219.099C198.151 220.921 198.402 223.187 198.728 225.645C199.048 228.307 199.536 230.945 200.191 233.545C200.498 234.884 201.036 236.16 201.779 237.315C202.505 238.377 203.319 239.375 204.212 240.3C205.733 241.865 207.491 243.183 209.42 244.204C211.219 245.118 213.147 245.75 215.138 246.077C214.997 246.095 214.853 246.095 214.712 246.077C214.308 246.05 213.906 245.997 213.508 245.918C212.038 245.644 210.613 245.163 209.278 244.488C207.294 243.49 205.487 242.174 203.928 240.593C203.003 239.657 202.164 238.642 201.42 237.558C200.639 236.37 200.073 235.054 199.748 233.67C199.084 231.051 198.601 228.389 198.301 225.703C198 223.195 197.8 221.005 197.666 219.132C197.532 217.26 197.457 215.738 197.415 214.685C197.415 214.2 197.415 213.799 197.415 213.473C197.401 213.33 197.409 213.186 197.44 213.046Z" fill="#263238"/>
<path d="M211.351 234.874C211.437 234.265 211.638 233.677 211.945 233.144C212.615 231.811 213.545 230.626 214.679 229.657C215.813 228.688 217.128 227.955 218.549 227.501C219.125 227.281 219.739 227.176 220.355 227.191C219.808 227.42 219.25 227.62 218.683 227.793C217.339 228.313 216.092 229.057 214.996 229.992C213.903 230.929 212.973 232.043 212.246 233.286C211.661 234.247 211.418 234.899 211.351 234.874Z" fill="#263238"/>
<path d="M217.755 211.149C217.826 211.169 217.894 211.2 217.956 211.241L218.541 211.55C219.295 211.922 220.072 212.248 220.865 212.528C223.79 213.554 226.928 213.825 229.986 213.314C234.528 212.504 238.585 209.981 241.322 206.266C242.957 204.121 243.983 201.573 244.29 198.893C244.441 197.484 244.293 196.06 243.855 194.713C243.392 193.338 242.587 192.103 241.514 191.126C240.457 190.137 239.125 189.49 237.694 189.27C237.015 189.149 236.318 189.183 235.655 189.37C234.992 189.557 234.38 189.891 233.865 190.349C233.398 190.806 233.128 191.427 233.112 192.079C233.127 192.728 233.349 193.356 233.748 193.868C234.163 194.364 234.672 194.772 235.246 195.069C235.82 195.366 236.447 195.546 237.092 195.599C239.356 195.881 241.654 195.59 243.776 194.753C245.899 193.917 247.777 192.56 249.239 190.809C250.347 189.446 251.181 187.882 251.697 186.202C252.081 184.93 252.289 183.611 252.315 182.281C252.324 181.442 252.263 180.603 252.131 179.773C252.081 179.514 252.039 179.297 252.014 179.13C252.007 179.055 252.007 178.979 252.014 178.904C252.36 179.985 252.529 181.114 252.516 182.248C252.524 183.597 252.339 184.94 251.964 186.236C251.033 189.359 249.024 192.051 246.294 193.831C243.565 195.612 240.292 196.365 237.058 195.958C236.368 195.898 235.696 195.701 235.082 195.379C234.468 195.058 233.924 194.618 233.48 194.086C233.026 193.502 232.774 192.786 232.761 192.046C232.762 191.285 233.062 190.555 233.597 190.014C234.159 189.513 234.826 189.144 235.55 188.936C236.274 188.727 237.035 188.685 237.777 188.811C239.298 189.036 240.713 189.722 241.832 190.775C242.964 191.798 243.811 193.097 244.29 194.546C244.745 195.947 244.899 197.428 244.741 198.893C244.415 201.631 243.355 204.231 241.673 206.417C239.352 209.584 236.058 211.903 232.294 213.02C228.53 214.137 224.504 213.991 220.831 212.603C219.746 212.256 218.712 211.767 217.755 211.149Z" fill="#CEAB5E"/>
<path d="M196.437 202.83C196.578 202.58 196.759 202.354 196.972 202.162C197.506 201.596 198.094 201.084 198.728 200.632C200.862 199.165 203.344 198.286 205.926 198.082C207.342 197.923 208.774 197.982 210.172 198.257C211.309 198.493 212.408 198.882 213.441 199.411C214.135 199.76 214.8 200.163 215.431 200.615C215.675 200.765 215.895 200.951 216.083 201.167C216.033 201.234 215.063 200.498 213.307 199.687C211.019 198.626 208.481 198.221 205.976 198.517C203.46 198.715 201.032 199.528 198.903 200.882C197.29 201.961 196.496 202.889 196.437 202.83Z" fill="#CEAB5E"/>
<path d="M201.645 180.518C202.438 181.265 203.323 181.908 204.279 182.432C205.322 182.967 206.456 183.302 207.623 183.418C209.043 183.561 210.476 183.36 211.803 182.833C213.103 182.279 214.25 181.418 215.147 180.325C215.887 179.413 216.453 178.373 216.819 177.257C217.119 176.209 217.29 175.128 217.329 174.039C217.41 174.327 217.447 174.626 217.437 174.925C217.451 175.745 217.341 176.562 217.111 177.349C216.77 178.524 216.202 179.62 215.439 180.576C214.523 181.775 213.305 182.71 211.91 183.286C210.515 183.861 208.993 184.057 207.497 183.853C206.285 183.716 205.112 183.341 204.045 182.75C203.326 182.355 202.672 181.853 202.105 181.262C201.907 181.044 201.751 180.792 201.645 180.518Z" fill="#CEAB5E"/>
<path d="M230.002 231.823C230.004 231.615 230.026 231.408 230.069 231.204C230.186 230.624 230.38 230.061 230.646 229.532C231.709 227.585 233.435 226.084 235.512 225.302C238.567 224.087 241.949 223.966 245.084 224.959C246.806 225.469 248.779 226.105 250.1 227.785C250.432 228.214 250.642 228.725 250.706 229.264C250.771 229.803 250.689 230.349 250.468 230.845C249.963 231.812 249.147 232.58 248.152 233.027C247.191 233.502 246.139 233.765 245.067 233.796C244.003 233.847 242.955 233.522 242.108 232.876C241.716 232.542 241.397 232.132 241.17 231.671C240.943 231.209 240.813 230.706 240.787 230.193C240.732 229.233 240.883 228.272 241.23 227.375C242.49 224.328 244.889 221.892 247.918 220.587C249.927 219.692 252.128 219.312 254.322 219.483C255.12 219.544 255.907 219.71 256.662 219.977C256.662 220.035 255.826 219.759 254.305 219.651C252.488 219.552 250.67 219.825 248.962 220.453C247.255 221.082 245.693 222.051 244.373 223.304C243.148 224.478 242.192 225.904 241.573 227.484C241.248 228.328 241.109 229.232 241.163 230.134C241.187 230.591 241.305 231.039 241.509 231.449C241.713 231.858 242 232.222 242.35 232.517C243.114 233.104 244.063 233.4 245.025 233.353C246.03 233.326 247.017 233.081 247.918 232.634C248.827 232.228 249.574 231.531 250.041 230.652C250.23 230.225 250.299 229.755 250.243 229.292C250.188 228.829 250.008 228.389 249.724 228.019C249.14 227.283 248.393 226.693 247.542 226.297C246.716 225.902 245.857 225.58 244.975 225.335C241.923 224.348 238.625 224.433 235.629 225.578C233.598 226.313 231.888 227.735 230.797 229.599C230.435 230.302 230.168 231.05 230.002 231.823Z" fill="#CEAB5E"/>
<path d="M208.333 243.569C208.333 243.485 209.571 243.385 211.452 242.733C213.907 241.868 216.107 240.402 217.851 238.468C219.594 236.535 220.826 234.196 221.433 231.664C221.91 229.725 221.893 228.462 221.977 228.471C222.035 228.759 222.049 229.055 222.019 229.348C221.999 230.15 221.904 230.947 221.734 231.731C221.192 234.344 219.963 236.765 218.173 238.745C216.383 240.724 214.097 242.191 211.552 242.992C210.79 243.24 210.006 243.416 209.211 243.519C208.922 243.578 208.627 243.594 208.333 243.569Z" fill="#CEAB5E"/>
<path d="M197.783 219.316C197.907 219.247 198.039 219.194 198.176 219.157C198.443 219.074 198.828 218.957 199.338 218.823C200.785 218.442 202.283 218.29 203.777 218.372C204.815 218.45 205.832 218.702 206.787 219.116C207.899 219.595 208.867 220.356 209.596 221.323C210.396 222.42 210.784 223.764 210.691 225.118C210.637 225.839 210.417 226.537 210.047 227.158C209.673 227.812 209.081 228.315 208.375 228.579C208.003 228.706 207.603 228.733 207.217 228.657C206.832 228.58 206.472 228.404 206.176 228.144C205.675 227.591 205.403 226.868 205.416 226.121C205.373 224.789 205.636 223.465 206.185 222.251C206.948 220.52 208.267 219.094 209.933 218.199C211.599 217.304 213.517 216.991 215.381 217.31C215.782 217.372 216.176 217.47 216.56 217.602C216.819 217.703 216.952 217.761 216.944 217.778C216.936 217.795 216.384 217.602 215.356 217.477C213.902 217.301 212.428 217.491 211.067 218.029C209.05 218.838 207.436 220.413 206.578 222.409C206.067 223.57 205.824 224.83 205.867 226.096C205.849 226.736 206.077 227.358 206.502 227.835C206.742 228.039 207.031 228.177 207.34 228.236C207.649 228.294 207.969 228.272 208.266 228.17C208.886 227.941 209.406 227.503 209.738 226.932C210.07 226.369 210.271 225.737 210.323 225.085C210.411 223.829 210.059 222.582 209.328 221.557C208.649 220.637 207.741 219.91 206.695 219.45C205.78 219.035 204.802 218.775 203.802 218.681C202.34 218.572 200.87 218.676 199.438 218.99C198.36 219.199 197.8 219.35 197.783 219.316Z" fill="#CEAB5E"/>
<g opacity="0.3">
<path d="M245.819 238.235C242.342 236.27 238.939 234.757 235.303 233.11C231.666 231.463 228.096 229.332 225.714 226.121C221.224 220.069 221.734 211.333 217.145 205.364C217.446 209.376 217.744 213.392 218.039 217.41C218.315 221.089 217.755 224.734 220.121 227.233C222.119 229.34 226.015 230.953 228.773 231.865C234.316 233.696 240.285 236.413 245.819 238.235Z" fill="black"/>
</g>
<path d="M302.4 284.09C302.4 284.09 329.629 291.614 330.724 292.015C332.396 292.592 332.086 298.603 329.537 298.502C328.324 298.46 308.637 299.238 306.129 299.087C303.621 298.937 296.097 295.969 296.097 295.969L302.4 284.09Z" fill="#381E3E"/>
<path d="M313.711 294.481C314.048 293.48 314.45 292.503 314.915 291.555C315.501 290.678 316.143 289.841 316.838 289.047C315.869 289.578 315.065 290.364 314.513 291.321C313.962 292.278 313.684 293.369 313.711 294.473V294.481Z" fill="#263238"/>
<path d="M310.869 293.194C311.002 293.194 311.278 291.931 312.006 290.51C312.733 289.089 313.586 288.094 313.494 288.002C312.699 288.621 312.051 289.408 311.597 290.307C311.144 291.206 310.895 292.195 310.869 293.202V293.194Z" fill="#263238"/>
<path d="M308.252 292.483C308.386 291.509 308.598 290.547 308.887 289.607C309.314 288.72 309.809 287.868 310.367 287.057C309.504 287.639 308.839 288.47 308.461 289.439C308.083 290.409 308.01 291.471 308.252 292.483Z" fill="#263238"/>
<path d="M308.695 288.963C308.935 288.317 309.035 287.628 308.988 286.94C308.979 286.191 308.887 285.445 308.712 284.716C308.607 284.286 308.47 283.864 308.302 283.454C308.223 283.195 308.073 282.963 307.867 282.785C307.73 282.683 307.561 282.633 307.39 282.642C307.219 282.651 307.057 282.72 306.931 282.835C306.72 283.038 306.592 283.312 306.572 283.605C306.551 283.844 306.551 284.084 306.572 284.324C306.574 284.772 306.63 285.218 306.739 285.653C306.92 286.382 307.201 287.083 307.575 287.734C307.874 288.363 308.288 288.93 308.795 289.406C308.862 289.406 308.402 288.729 307.859 287.617C307.542 286.974 307.303 286.295 307.148 285.594C307.06 285.185 307.016 284.767 307.015 284.349C307.015 283.931 307.015 283.412 307.266 283.212C307.315 283.167 307.379 283.142 307.445 283.142C307.512 283.142 307.576 283.167 307.625 283.212C307.761 283.345 307.864 283.508 307.926 283.688C308.086 284.081 308.223 284.483 308.336 284.892C308.527 285.586 308.647 286.297 308.695 287.015C308.745 288.186 308.62 288.955 308.695 288.963Z" fill="#263238"/>
<path d="M308.662 288.688C308.107 288.456 307.505 288.359 306.906 288.403C306.255 288.403 305.607 288.482 304.975 288.637C304.586 288.726 304.209 288.863 303.855 289.047C303.632 289.16 303.451 289.343 303.341 289.568C303.231 289.793 303.197 290.047 303.244 290.293C303.307 290.527 303.43 290.742 303.602 290.913C303.774 291.085 303.988 291.208 304.222 291.271C304.623 291.371 305.042 291.371 305.443 291.271C306.087 291.124 306.692 290.839 307.215 290.435C307.711 290.103 308.139 289.68 308.478 289.189C307.975 289.483 307.492 289.81 307.031 290.167C306.526 290.514 305.958 290.761 305.359 290.895C305.027 290.978 304.68 290.978 304.348 290.895C304.191 290.855 304.047 290.775 303.931 290.662C303.815 290.549 303.731 290.407 303.687 290.251C303.662 290.098 303.687 289.94 303.76 289.803C303.832 289.666 303.948 289.556 304.089 289.49C304.399 289.319 304.731 289.19 305.075 289.106C305.675 288.935 306.292 288.828 306.914 288.788C307.976 288.654 308.645 288.763 308.662 288.688Z" fill="#263238"/>
<path d="M317.891 294.774C318.008 293.942 318.189 293.12 318.434 292.316C318.817 291.569 319.261 290.856 319.764 290.184C318.971 290.616 318.351 291.309 318.01 292.145C317.669 292.982 317.627 293.91 317.891 294.774Z" fill="#263238"/>
<path d="M298.897 296.036C299.227 296.245 299.581 296.413 299.95 296.537C300.939 296.913 301.949 297.225 302.977 297.474C306.391 298.219 309.883 298.55 313.377 298.46C317.456 298.41 321.135 298.226 323.802 298.118L326.953 297.95C327.34 297.944 327.726 297.905 328.107 297.833C327.723 297.773 327.333 297.753 326.945 297.775H323.793L313.377 297.975C309.915 298.064 306.454 297.784 303.052 297.139C300.444 296.613 298.931 295.944 298.897 296.036Z" fill="#263238"/>
<path d="M298.095 296.654C298.095 296.713 298.872 296.278 300.134 295.727C301.738 294.969 303.523 294.679 305.284 294.891C307.016 295.266 308.58 296.193 309.74 297.532C310.223 298.103 310.745 298.64 311.303 299.137C310.945 298.473 310.498 297.86 309.974 297.315C309.437 296.691 308.832 296.13 308.168 295.643C307.338 295.028 306.372 294.621 305.351 294.456C303.503 294.232 301.631 294.585 299.992 295.467C299.3 295.758 298.659 296.159 298.095 296.654Z" fill="#263238"/>
<path d="M273.466 276.574C273.466 276.574 247.7 293.444 246.781 294.13C245.393 295.175 246.982 300.166 249.389 299.305C250.526 298.895 272.145 292.876 274.469 291.973C276.793 291.07 283.055 286.004 283.055 286.004L273.466 276.574Z" fill="#381E3E"/>
<path d="M265.817 289.916C265.506 288.856 264.91 287.901 264.093 287.156C263.276 286.412 262.27 285.906 261.185 285.695C262.091 286.238 262.96 286.841 263.785 287.5C264.512 288.263 265.19 289.07 265.817 289.916Z" fill="#263238"/>
<path d="M268.124 287.826C267.796 286.872 267.261 286.003 266.557 285.28C265.853 284.557 264.998 283.999 264.053 283.646C263.986 283.764 265.114 284.482 266.226 285.586C267.338 286.69 268.007 287.893 268.124 287.826Z" fill="#263238"/>
<path d="M270.448 286.338C270.445 285.286 270.045 284.274 269.328 283.504C268.729 282.654 267.835 282.058 266.82 281.832C267.595 282.438 268.325 283.1 269.002 283.814C269.55 284.616 270.034 285.46 270.448 286.338Z" fill="#263238"/>
<path d="M268.96 283.137C269.027 283.137 268.676 282.409 268.383 281.205C268.207 280.507 268.104 279.793 268.074 279.074C268.045 278.651 268.045 278.226 268.074 277.803C268.071 277.612 268.12 277.424 268.216 277.259C268.252 277.203 268.309 277.162 268.375 277.147C268.44 277.131 268.509 277.141 268.567 277.176C268.86 277.293 269.01 277.795 269.152 278.196C269.275 278.594 269.359 279.002 269.403 279.416C269.468 280.133 269.445 280.854 269.336 281.565C269.161 282.785 268.918 283.529 268.985 283.555C269.329 282.957 269.556 282.298 269.654 281.615C269.814 280.883 269.87 280.131 269.821 279.383C269.787 278.935 269.706 278.492 269.579 278.062C269.51 277.831 269.426 277.605 269.328 277.385C269.216 277.111 269.008 276.888 268.743 276.758C268.588 276.686 268.412 276.67 268.247 276.715C268.082 276.759 267.938 276.86 267.84 277C267.701 277.233 267.629 277.499 267.631 277.769C267.539 278.96 267.675 280.158 268.032 281.297C268.208 281.969 268.524 282.596 268.96 283.137Z" fill="#263238"/>
<path d="M268.868 282.861C268.868 282.927 269.503 282.627 270.54 282.367C271.146 282.222 271.765 282.138 272.388 282.117C272.743 282.092 273.1 282.115 273.449 282.183C273.603 282.205 273.746 282.274 273.858 282.383C273.969 282.491 274.043 282.632 274.068 282.785C274.075 282.952 274.038 283.117 273.96 283.263C273.882 283.41 273.766 283.534 273.625 283.621C273.337 283.802 273.01 283.911 272.672 283.939C272.061 283.999 271.444 283.936 270.858 283.755C270.313 283.551 269.754 283.386 269.186 283.262C269.657 283.639 270.196 283.922 270.774 284.098C271.395 284.335 272.059 284.435 272.722 284.39C273.134 284.369 273.534 284.242 273.884 284.023C274.091 283.896 274.26 283.715 274.373 283.501C274.486 283.286 274.54 283.045 274.528 282.802C274.498 282.553 274.388 282.321 274.215 282.14C274.042 281.958 273.814 281.839 273.566 281.799C273.175 281.729 272.775 281.713 272.379 281.749C271.729 281.792 271.086 281.913 270.465 282.108C269.882 282.233 269.335 282.49 268.868 282.861Z" fill="#263238"/>
<path d="M252.666 298.377C252.666 298.419 253.101 298.118 253.302 297.382C253.502 296.421 253.328 295.419 252.817 294.581C252.569 294.133 252.29 293.703 251.981 293.294C251.729 292.946 251.434 292.631 251.103 292.358C250.865 292.161 250.574 292.042 250.267 292.015C250.05 292.015 249.941 292.057 249.941 292.082C249.941 292.107 250.401 292.124 250.877 292.608C251.158 292.893 251.408 293.207 251.621 293.545C251.921 293.948 252.2 294.367 252.457 294.799C252.919 295.549 253.119 296.431 253.026 297.307C252.928 297.67 252.808 298.028 252.666 298.377Z" fill="#263238"/>
<path d="M261.921 291.463C261.955 291.01 261.892 290.556 261.735 290.13C261.577 289.705 261.33 289.318 261.01 288.997C260.752 288.623 260.416 288.31 260.024 288.08C259.633 287.851 259.196 287.71 258.744 287.667C259.427 288.152 260.068 288.695 260.658 289.289C261.14 289.977 261.562 290.704 261.921 291.463Z" fill="#263238"/>
<path d="M280.405 286.898C280.004 287.121 279.624 287.379 279.268 287.668C278.247 288.377 277.186 289.027 276.091 289.615C274.471 290.475 272.795 291.226 271.075 291.864C269.119 292.592 266.895 293.277 264.621 293.946C259.981 295.284 255.785 296.504 252.758 297.415L249.155 298.544C248.71 298.662 248.277 298.819 247.859 299.012C248.315 298.95 248.765 298.852 249.205 298.719L252.825 297.708C255.877 296.872 260.082 295.702 264.721 294.364C267.037 293.687 269.236 292.985 271.192 292.232C272.933 291.57 274.624 290.782 276.25 289.875C277.342 289.256 278.387 288.557 279.377 287.785C279.743 287.518 280.087 287.222 280.405 286.898Z" fill="#263238"/>
<path d="M281.358 287.241C280.665 286.936 279.929 286.739 279.176 286.656C277.344 286.317 275.453 286.55 273.759 287.325C272.843 287.804 272.057 288.498 271.468 289.348C270.983 290.018 270.576 290.742 270.256 291.505C269.92 292.182 269.681 292.902 269.545 293.645C269.924 292.999 270.259 292.329 270.548 291.639C271.245 290.006 272.454 288.645 273.993 287.76C275.611 287.032 277.401 286.774 279.159 287.016C280.497 287.124 281.341 287.308 281.358 287.241Z" fill="#263238"/>
<path d="M327.012 235.434C327.012 235.434 334.745 238.193 334.77 246.862C334.837 263.457 301.23 281.757 301.23 281.757L256.504 252.129L253.703 250.992C253.703 250.992 314.104 228.32 327.012 235.434Z" fill="#263238"/>
<path d="M279.159 267.094C279.571 266.865 279.963 266.603 280.33 266.308C281.057 265.773 282.102 264.987 283.381 263.992C285.947 262.019 289.425 259.21 293.179 255.991C296.933 252.773 300.226 249.755 302.567 247.523C303.738 246.411 304.674 245.491 305.318 244.848C305.665 244.534 305.984 244.19 306.271 243.819C305.886 244.089 305.525 244.391 305.192 244.722L302.35 247.289C299.95 249.454 296.623 252.438 292.878 255.649C289.133 258.859 285.688 261.701 283.189 263.741L280.221 266.166C279.843 266.446 279.488 266.756 279.159 267.094Z" fill="#455A64"/>
<path d="M314.388 241.637C311.463 241.328 308.535 242.191 306.246 244.037C306.321 244.162 307.918 243.117 310.208 242.465C312.499 241.813 314.388 241.78 314.388 241.637Z" fill="#455A64"/>
<path d="M310.534 239.021C309.5 239.46 308.589 240.147 307.883 241.022C307.177 241.897 306.698 242.933 306.488 244.037C306.622 244.037 307.107 242.691 308.235 241.311C309.364 239.932 310.61 239.138 310.534 239.021Z" fill="#455A64"/>
<path d="M329.47 291.588C329.47 291.538 328.935 291.43 328.316 291.94C327.587 292.619 327.13 293.54 327.029 294.531C326.882 295.506 327.021 296.502 327.43 297.399C327.748 298.076 328.099 298.393 328.14 298.36C328.03 297.988 327.893 297.625 327.731 297.273C327.438 296.414 327.352 295.497 327.48 294.598C327.579 293.702 327.946 292.857 328.533 292.174C329.01 291.68 329.478 291.664 329.47 291.588Z" fill="#263238"/>
<path d="M316.721 208.306L300.795 248.685L232.218 249.805L230.947 246.093L254.982 245.224L266.536 209.401L316.721 208.306Z" fill="#455A64"/>
<path d="M284.694 225.812C285.22 225.548 285.812 225.441 286.398 225.505C286.983 225.568 287.538 225.8 287.996 226.171C288.384 226.537 288.653 227.01 288.768 227.531C288.883 228.051 288.838 228.594 288.639 229.089C288.425 229.583 288.076 230.007 287.633 230.313C287.189 230.618 286.669 230.794 286.131 230.82C285.565 230.856 285.003 230.707 284.529 230.394C284.055 230.082 283.696 229.624 283.506 229.089C283.327 228.491 283.343 227.852 283.55 227.263C283.757 226.674 284.146 226.166 284.66 225.812" fill="#CEAB5E"/>
<path d="M305.46 283.78C305.46 283.78 242.275 242.331 239.7 241.47C237.125 240.609 230.855 236.513 224.61 238.235C218.365 239.957 212.747 245.567 209.947 253.759C208.342 258.441 207.589 266.425 207.23 272.419C206.751 279.587 209.074 286.66 213.709 292.149C215.762 294.71 218.489 296.647 221.584 297.741C222.244 297.95 222.93 298.126 223.632 298.277C235.578 300.868 247.876 295.501 254.564 285.285L256.035 283.045C256.035 283.045 297.376 298.226 298.019 298.017L305.46 283.78Z" fill="#263238"/>
<path d="M227.294 272.369C227.405 272.425 227.52 272.475 227.636 272.519L228.673 272.929L232.678 274.475L247.567 280.085C253.887 282.443 261.461 285.252 269.963 288.345C278.465 291.438 287.879 294.824 297.944 298.226L298.12 298.293L298.212 298.118L303.152 288.687L305.66 283.88L305.752 283.697L305.577 283.588L257.381 252.99L242.902 243.861L238.973 241.403L237.944 240.776C237.71 240.634 237.585 240.576 237.585 240.576L237.919 240.818L238.922 241.479L242.81 243.987L257.256 253.258L305.376 283.972L305.292 283.671C304.498 285.201 303.62 286.832 302.784 288.478L297.852 297.909L298.128 297.8C288.096 294.406 278.649 291.028 270.139 287.96L247.709 279.801L232.736 274.3L228.707 272.829L227.653 272.461L227.294 272.369Z" fill="#455A64"/>
<path d="M233.848 125.191C234.926 122.273 237.309 121.011 240.327 120.284C241.845 119.93 243.426 119.949 244.935 120.338C246.444 120.726 247.838 121.473 248.996 122.516C250.526 123.912 251.646 125.86 253.536 126.696C256.654 128.109 260.642 126.044 263.568 127.774C264.447 128.292 265.119 129.098 265.471 130.056C265.823 131.014 265.832 132.063 265.497 133.027C265.162 133.991 264.503 134.808 263.633 135.341C262.764 135.874 261.736 136.089 260.725 135.95C262.757 136.903 263.133 139.963 261.737 141.719C260.341 143.474 257.758 143.951 255.592 143.341C253.458 142.605 251.565 141.302 250.117 139.57C248.595 137.898 247.257 136.101 245.602 134.554C244.013 132.94 241.905 131.939 239.65 131.729C236.615 131.612 233.798 133.66 232.218 136.243C230.638 138.826 230.027 141.894 229.584 144.904C229.141 147.914 228.807 150.973 227.645 153.782C227.511 154.117 227.31 154.476 226.968 154.551C226.458 154.66 226.09 154.1 225.889 153.623C223.602 148.254 222.392 142.488 222.328 136.653C222.286 133.309 222.671 130.107 224.769 127.457C226.867 124.806 231.708 123.16 233.823 125.149" fill="#263238"/>
<path d="M226.725 138.676L222.077 172.433C221.891 173.797 221.984 175.183 222.35 176.51C222.717 177.836 223.35 179.073 224.21 180.147C225.071 181.221 226.14 182.108 227.355 182.756C228.569 183.403 229.902 183.796 231.273 183.912C233.869 184.137 236.452 183.356 238.487 181.73C240.523 180.104 241.855 177.757 242.208 175.175C242.551 172.667 242.843 170.519 242.902 170.26C242.902 170.26 251.605 170.636 253.394 162.217C254.23 158.146 255.358 149.619 256.269 141.894C256.729 137.897 255.669 133.873 253.3 130.621C250.93 127.368 247.425 125.126 243.479 124.338L242.643 124.179C233.739 122.909 227.72 129.764 226.725 138.676Z" fill="#FFBE9D"/>
<path d="M242.893 170.143C238.98 169.425 235.369 167.559 232.519 164.784C232.519 164.784 233.906 171.372 242.475 172.308L242.893 170.143Z" fill="#EB996E"/>
<path d="M252.633 147.061C252.574 147.375 252.393 147.654 252.131 147.837C251.868 148.02 251.544 148.093 251.228 148.039C251.073 148.021 250.923 147.973 250.786 147.896C250.65 147.819 250.531 147.715 250.435 147.591C250.34 147.467 250.271 147.325 250.232 147.174C250.193 147.022 250.185 146.864 250.208 146.71C250.266 146.393 250.445 146.112 250.708 145.928C250.971 145.743 251.296 145.67 251.613 145.723C251.769 145.742 251.919 145.791 252.056 145.869C252.192 145.947 252.311 146.051 252.406 146.176C252.502 146.301 252.571 146.443 252.61 146.595C252.648 146.747 252.656 146.906 252.633 147.061Z" fill="#263238"/>
<path d="M253.586 145.673C253.402 145.807 252.625 144.946 251.329 144.687C250.033 144.427 248.946 144.896 248.821 144.687C248.695 144.478 248.98 144.352 249.456 144.135C250.091 143.852 250.8 143.779 251.479 143.926C252.154 144.055 252.77 144.398 253.235 144.904C253.594 145.305 253.67 145.623 253.586 145.673Z" fill="#263238"/>
<path d="M239.825 144.954C239.768 145.27 239.589 145.551 239.326 145.736C239.063 145.92 238.738 145.994 238.421 145.94C238.265 145.921 238.115 145.871 237.979 145.793C237.843 145.715 237.723 145.61 237.628 145.486C237.532 145.362 237.462 145.22 237.422 145.068C237.381 144.916 237.372 144.758 237.393 144.603C237.456 144.29 237.636 144.013 237.898 143.829C238.159 143.646 238.481 143.569 238.797 143.616C238.953 143.635 239.104 143.684 239.241 143.762C239.377 143.84 239.497 143.944 239.593 144.069C239.689 144.193 239.759 144.336 239.799 144.488C239.839 144.64 239.848 144.798 239.825 144.954Z" fill="#263238"/>
<path d="M240.787 143.374C240.603 143.499 239.825 142.638 238.53 142.379C237.234 142.12 236.147 142.588 236.022 142.379C235.896 142.17 236.18 142.045 236.657 141.827C237.293 141.549 238 141.476 238.68 141.618C239.355 141.755 239.971 142.097 240.444 142.596C240.795 143.048 240.87 143.315 240.787 143.374Z" fill="#263238"/>
<path d="M243.571 153.916C244.297 153.835 245.03 153.849 245.753 153.958C246.095 153.958 246.421 153.958 246.522 153.765C246.628 153.434 246.628 153.077 246.522 152.746C246.371 151.91 246.212 150.973 246.045 150.02C245.402 146.158 245.009 143.014 245.159 142.989C245.31 142.964 245.995 146.074 246.605 149.937C246.756 150.89 246.906 151.792 247.04 152.662C247.171 153.104 247.138 153.579 246.948 154C246.877 154.105 246.783 154.193 246.673 154.257C246.563 154.321 246.44 154.358 246.313 154.367C246.121 154.394 245.927 154.394 245.736 154.367C244.998 154.308 244.271 154.156 243.571 153.916Z" fill="#263238"/>
<path d="M239.575 154.066C239.792 154.066 239.508 155.504 240.511 156.742C241.514 157.979 243.019 158.129 243.019 158.33C243.019 158.531 242.634 158.531 241.999 158.422C241.171 158.269 240.423 157.832 239.884 157.185C239.373 156.558 239.125 155.758 239.19 154.953C239.257 154.351 239.483 154.033 239.575 154.066Z" fill="#263238"/>
<path d="M242.133 138.35C241.94 138.684 240.678 138.258 239.115 138.132C237.551 138.007 236.247 138.182 236.105 137.823C236.047 137.656 236.331 137.371 236.891 137.129C237.634 136.836 238.436 136.721 239.232 136.795C240.032 136.856 240.806 137.108 241.489 137.53C241.999 137.865 242.208 138.199 242.133 138.35Z" fill="#263238"/>
<path d="M253.853 141.827C253.569 142.078 252.742 141.593 251.663 141.359C250.585 141.125 249.64 141.167 249.498 140.816C249.431 140.649 249.632 140.381 250.091 140.181C250.69 139.945 251.348 139.901 251.972 140.055C252.603 140.188 253.174 140.519 253.603 141C253.912 141.376 253.987 141.702 253.853 141.827Z" fill="#263238"/>
<path d="M226.165 145.063C226.031 144.971 220.706 142.187 219.736 147.997C218.767 153.807 224.802 153.581 224.836 153.414C224.869 153.247 226.165 145.063 226.165 145.063Z" fill="#FFBE9D"/>
<path d="M223.431 150.915C223.431 150.915 223.323 150.973 223.139 151.023C222.881 151.085 222.609 151.046 222.378 150.915C222.04 150.616 221.788 150.232 221.65 149.802C221.511 149.372 221.491 148.913 221.592 148.474C221.659 147.972 221.839 147.491 222.119 147.069C222.198 146.896 222.318 146.744 222.467 146.626C222.617 146.508 222.793 146.428 222.98 146.392C223.102 146.382 223.225 146.414 223.325 146.485C223.426 146.555 223.499 146.658 223.532 146.776C223.582 146.944 223.532 147.061 223.532 147.069C223.532 147.077 223.674 146.994 223.666 146.751C223.657 146.603 223.598 146.461 223.498 146.35C223.431 146.275 223.348 146.215 223.256 146.173C223.164 146.131 223.064 146.109 222.963 146.108C222.718 146.115 222.479 146.185 222.268 146.31C222.057 146.436 221.882 146.614 221.759 146.827C221.427 147.289 221.212 147.826 221.132 148.39C220.974 149.569 221.392 150.764 222.194 151.14C222.343 151.212 222.506 151.249 222.671 151.249C222.836 151.249 222.999 151.212 223.147 151.14C223.398 151.057 223.448 150.931 223.431 150.915Z" fill="#EB996E"/>
<path d="M258.36 140.54C256.395 140.646 254.433 140.284 252.636 139.485C250.838 138.686 249.256 137.472 248.018 135.942C246.346 133.785 245.234 130.968 242.818 129.664C241.986 129.254 241.081 129.014 240.156 128.956C239.23 128.899 238.302 129.026 237.426 129.329C235.682 129.953 234.083 130.926 232.728 132.188C233.497 136.803 231.449 141.384 229.451 145.564C229.278 146.057 228.946 146.478 228.506 146.76C227.72 147.153 226.784 146.534 226.307 145.79C225.639 144.543 225.349 143.128 225.471 141.719C225.489 138.507 226.143 135.33 227.394 132.372C228.665 129.405 230.778 126.877 233.472 125.099C236.927 122.989 241.066 122.303 245.017 123.185C248.946 124.098 252.487 126.225 255.141 129.262C256.434 130.609 257.373 132.254 257.875 134.053" fill="#263238"/>
<path d="M24.3965 276.683C24.4331 276.56 24.4836 276.442 24.547 276.332L25.0151 275.32C25.5916 274.012 26.0586 272.659 26.4113 271.274C27.3309 267.679 27.6485 262.186 26.2859 255.666C25.5527 252.109 24.5865 248.604 23.3933 245.174C22.1644 241.454 20.7432 237.508 19.5811 233.236C18.2691 228.78 17.635 224.153 17.7001 219.509C17.8757 214.651 19.3136 209.803 20.8936 204.979C22.4737 200.155 24.1039 195.423 24.5888 190.675C25.1367 186.106 24.2205 181.481 21.9721 177.466C19.8737 173.604 17.2487 170.31 15.2841 166.891C13.4427 163.724 12.0845 160.301 11.2546 156.733C10.0704 151.561 9.98493 146.199 11.0038 140.992C11.3785 139.088 11.9385 137.226 12.6758 135.432C12.6562 135.56 12.6254 135.686 12.5838 135.808L12.2494 136.87C10.2824 143.29 10.0717 150.12 11.6391 156.65C12.4769 160.177 13.8379 163.558 15.677 166.682C17.6416 170.026 20.2834 173.37 22.4152 177.24C24.6985 181.335 25.6317 186.045 25.082 190.7C24.5888 195.532 22.9418 200.289 21.3702 205.113C19.7985 209.936 18.3689 214.727 18.1934 219.5C18.1206 224.097 18.7377 228.68 20.0242 233.094C21.1695 237.341 22.5824 241.286 23.7862 245.023C24.9693 248.473 25.9217 251.998 26.637 255.574C27.9662 262.145 27.5816 267.696 26.637 271.299C26.2685 272.688 25.7703 274.04 25.1489 275.337C24.9315 275.755 24.756 276.081 24.6306 276.332C24.564 276.456 24.4856 276.573 24.3965 276.683Z" fill="#263238"/>
<path d="M17.9509 170.26C17.9509 170.26 13.9465 157.469 21.1277 149.978C21.1834 149.918 21.2546 149.875 21.3336 149.852C21.4126 149.83 21.4962 149.83 21.575 149.853C21.6539 149.876 21.7249 149.919 21.7803 149.98C21.8356 150.041 21.8731 150.115 21.8885 150.196C22.2731 152.311 22.7496 158.748 17.9509 170.26Z" fill="#CEAB5E"/>
<path d="M20.3502 154.242C20.3368 155.035 20.2444 155.825 20.0744 156.6C19.8152 158.272 19.5059 160.136 19.1631 162.243C18.8204 164.349 18.5278 166.264 18.2686 167.886C18.201 168.678 18.0582 169.462 17.8422 170.227C17.7746 169.432 17.7999 168.632 17.9175 167.844C18.0512 166.381 18.3104 164.374 18.6699 162.167C19.0294 159.96 19.4139 157.987 19.7316 156.541C19.8488 155.754 20.0564 154.982 20.3502 154.242Z" fill="#263238"/>
<path d="M22.6493 200.439C22.6493 200.439 25.0988 187.256 34.9469 184.012C35.0245 183.985 35.1081 183.98 35.1884 183.998C35.2687 184.015 35.3424 184.055 35.4014 184.112C35.4604 184.17 35.5023 184.242 35.5224 184.322C35.5425 184.402 35.5401 184.485 35.5153 184.564C34.88 186.587 32.28 192.506 22.6493 200.439Z" fill="#381E3E"/>
<path d="M32.2633 187.398C31.881 188.093 31.4301 188.749 30.9174 189.354C29.9309 190.675 28.7605 192.213 27.4731 193.919L24.012 198.492C23.5799 199.157 23.0874 199.781 22.5406 200.356C22.8515 199.621 23.2471 198.926 23.7194 198.283C24.5554 197.054 25.684 195.398 27.0634 193.618C28.4428 191.837 29.6885 190.274 30.6331 189.137C31.1076 188.496 31.6547 187.913 32.2633 187.398Z" fill="#263238"/>
<path d="M19.9907 233.503C19.9907 233.503 18.5027 220.177 26.9797 214.192C27.0465 214.144 27.1253 214.115 27.2074 214.109C27.2895 214.103 27.3716 214.12 27.4445 214.159C27.5174 214.197 27.5783 214.254 27.6202 214.325C27.6622 214.396 27.6835 214.477 27.6819 214.56C27.6569 216.7 26.8961 223.112 19.9907 233.503Z" fill="#381E3E"/>
<path d="M25.3998 218.229C25.2408 219.008 24.9998 219.767 24.6808 220.495C24.1123 222.042 23.4519 223.839 22.7078 225.862L20.76 231.229C20.5528 231.993 20.2728 232.735 19.924 233.445C20.0124 232.653 20.1891 231.873 20.4506 231.121C20.8603 229.708 21.4956 227.777 22.2731 225.687C23.0506 223.597 23.8113 221.716 24.3882 220.37C24.6433 219.62 24.9827 218.902 25.3998 218.229Z" fill="#263238"/>
<path d="M27.4061 266.776C27.4061 266.776 26.3945 253.4 35.0806 247.732C35.1485 247.685 35.2281 247.658 35.3104 247.654C35.3927 247.65 35.4745 247.669 35.5466 247.709C35.6187 247.749 35.6782 247.809 35.7185 247.88C35.7587 247.952 35.7781 248.034 35.7745 248.116C35.6658 250.248 34.6793 256.627 27.4061 266.776Z" fill="#381E3E"/>
<path d="M33.3584 251.728C33.1578 252.502 32.8777 253.253 32.5224 253.969C31.8954 255.49 31.1681 257.313 30.3572 259.252L28.2087 264.552C27.9896 265.29 27.7042 266.006 27.356 266.692C27.4683 265.905 27.6732 265.133 27.9662 264.393C28.4177 262.997 29.1283 261.1 29.981 259.035C30.8337 256.97 31.653 255.114 32.28 253.793C32.5625 253.067 32.9242 252.375 33.3584 251.728Z" fill="#263238"/>
<path d="M12.1993 159.024C12.1993 159.024 0.319719 152.821 0.0856385 142.446C0.0819941 142.364 0.101388 142.282 0.141642 142.21C0.181896 142.138 0.241412 142.079 0.313502 142.039C0.385592 141.999 0.467396 141.98 0.549721 141.984C0.632045 141.988 0.711626 142.015 0.779517 142.062C2.54348 143.282 7.43408 147.487 12.1993 159.024Z" fill="#381E3E"/>
<path d="M2.55188 146.008C3.10717 146.574 3.603 147.196 4.0316 147.863L7.3756 152.495L10.7196 157.118C11.229 157.725 11.6823 158.377 12.0739 159.066C11.4453 158.562 10.8834 157.981 10.4019 157.335C9.45724 156.215 8.2116 154.61 6.90744 152.796C5.60328 150.982 4.46632 149.301 3.67212 148.064C3.22148 147.424 2.84563 146.734 2.55188 146.008Z" fill="#263238"/>
<path d="M24.9566 186.52C24.9566 186.52 12.7259 181.053 11.8565 170.711C11.8495 170.63 11.8652 170.548 11.9016 170.475C11.9381 170.402 11.994 170.341 12.0631 170.298C12.1323 170.255 12.212 170.231 12.2935 170.23C12.3751 170.23 12.4553 170.251 12.5253 170.293C14.3645 171.372 19.5059 175.276 24.9566 186.52Z" fill="#381E3E"/>
<path d="M14.54 174.097C15.127 174.631 15.6592 175.222 16.1284 175.861L19.7567 180.284L23.3933 184.689C23.936 185.251 24.4232 185.864 24.8479 186.52C24.2104 186.029 23.63 185.468 23.1174 184.848C22.1058 183.778 20.7682 182.257 19.3554 180.526C17.9426 178.795 16.7053 177.182 15.8442 176.003C15.3388 175.419 14.9013 174.78 14.54 174.097Z" fill="#263238"/>
<path d="M17.9175 217.151C17.9175 217.151 9.51567 206.701 13.4616 197.087C13.4916 197.011 13.542 196.945 13.6073 196.896C13.6726 196.847 13.7501 196.817 13.8315 196.809C13.9128 196.801 13.9947 196.816 14.0681 196.852C14.1415 196.888 14.2035 196.943 14.2474 197.012C15.376 198.86 18.1599 204.67 17.9175 217.151Z" fill="#CEAB5E"/>
<path d="M14.2892 201.359C14.5704 202.1 14.7749 202.867 14.8995 203.65C15.2506 205.263 15.6603 207.153 16.1201 209.243C16.5799 211.333 16.9561 213.214 17.349 214.819C17.5726 215.581 17.7265 216.361 17.8088 217.151C17.4376 216.442 17.1567 215.69 16.9728 214.911C16.5548 213.498 16.0616 211.567 15.5934 209.343C15.1252 207.119 14.7574 205.163 14.5233 203.725C14.359 202.947 14.2805 202.154 14.2892 201.359Z" fill="#263238"/>
<path d="M26.2441 253.216C26.2441 253.216 14.097 247.548 13.4115 237.182C13.4062 237.101 13.423 237.021 13.4602 236.949C13.4973 236.877 13.5533 236.817 13.6222 236.775C13.691 236.733 13.7701 236.71 13.8508 236.71C13.9316 236.709 14.0109 236.731 14.0803 236.772C15.9027 237.917 20.9773 241.905 26.2441 253.216Z" fill="#CEAB5E"/>
<path d="M16.0282 240.634C16.6086 241.176 17.1324 241.775 17.5915 242.423C18.6114 243.719 19.8153 245.232 21.1445 246.904L24.7059 251.377C25.2414 251.962 25.7226 252.594 26.1438 253.266C25.5218 252.778 24.9605 252.216 24.4718 251.594C23.4853 250.516 22.1728 248.969 20.7934 247.214C19.414 245.458 18.16 243.836 17.324 242.641C16.8215 242.02 16.3871 241.348 16.0282 240.634Z" fill="#263238"/>
<path d="M50.4295 200.506C50.4412 200.606 50.4412 200.707 50.4295 200.807C50.4295 201.041 50.4295 201.317 50.4295 201.643C50.4295 202.479 50.3459 203.541 50.2874 204.895C50.1286 207.754 49.9112 211.734 49.6521 216.507C48.8161 221.356 46.3081 226.732 42.9641 231.948C40.5313 235.794 37.9481 239.297 35.7828 242.549C33.781 245.388 31.9793 248.363 30.3906 251.452C29.3519 253.548 28.5122 255.737 27.8826 257.99C27.6652 258.784 27.5064 259.411 27.4145 259.837C27.3775 260.057 27.3187 260.273 27.2389 260.481C27.2416 260.259 27.2668 260.038 27.3141 259.821C27.3726 259.386 27.5064 258.75 27.6903 257.94C28.2577 255.635 29.0588 253.394 30.0813 251.252C31.6351 248.125 33.4149 245.116 35.4066 242.248C37.5886 238.971 40.13 235.468 42.5544 231.647C45.8984 226.447 48.3061 221.156 49.2424 216.382C49.5768 211.625 49.8527 207.646 50.0784 204.787C50.1871 203.432 50.2791 202.346 50.3376 201.543C50.3376 201.209 50.4045 200.924 50.4295 200.707C50.4223 200.64 50.4223 200.573 50.4295 200.506Z" fill="#263238"/>
<path d="M43.2399 230.995C43.2399 230.995 48.3813 218.614 41.9107 210.505C41.8605 210.44 41.7933 210.39 41.7164 210.361C41.6396 210.332 41.5562 210.325 41.4755 210.34C41.3949 210.356 41.3202 210.394 41.2597 210.449C41.1993 210.505 41.1555 210.576 41.1332 210.655C40.5229 212.729 39.4612 219.124 43.2399 230.995Z" fill="#CEAB5E"/>
<path d="M42.2618 214.827C42.4835 215.59 42.6209 216.375 42.6715 217.168C42.8554 218.623 43.056 220.637 43.2149 222.869C43.3737 225.102 43.4489 227.125 43.4489 228.588C43.5005 229.382 43.4527 230.18 43.3068 230.962C43.1615 230.185 43.0915 229.395 43.0978 228.604C42.9891 226.932 42.8554 225.035 42.7133 222.903C42.5711 220.771 42.429 218.84 42.3203 217.201C42.2228 216.414 42.2032 215.619 42.2618 214.827Z" fill="#263238"/>
<g opacity="0.3">
<path d="M43.2399 230.995C43.2399 230.995 48.3813 218.614 41.9107 210.505C41.8605 210.44 41.7933 210.39 41.7164 210.361C41.6396 210.332 41.5562 210.325 41.4755 210.34C41.3949 210.356 41.3202 210.394 41.2597 210.449C41.1993 210.505 41.1555 210.576 41.1332 210.655C40.5229 212.729 39.4612 219.124 43.2399 230.995Z" fill="black"/>
</g>
<path d="M27.2724 260.824C27.2724 260.824 31.3939 248.075 24.2879 240.517C24.2328 240.457 24.1622 240.413 24.0838 240.391C24.0054 240.368 23.9223 240.368 23.8436 240.389C23.7649 240.411 23.6937 240.454 23.6379 240.513C23.582 240.573 23.5437 240.646 23.5271 240.726C23.1175 242.833 22.5824 249.262 27.2724 260.824Z" fill="#CEAB5E"/>
<path d="M25.0236 244.781C25.3076 245.525 25.5067 246.299 25.6171 247.088C25.9181 248.518 26.2859 250.508 26.6287 252.723C26.9714 254.938 27.2055 256.945 27.3226 258.408C27.4362 259.197 27.453 259.997 27.3727 260.79C27.1691 260.024 27.0348 259.24 26.9714 258.45C26.729 256.778 26.4448 254.913 26.1354 252.798C25.8261 250.683 25.5252 248.777 25.2994 247.147C25.1299 246.369 25.0375 245.577 25.0236 244.781Z" fill="#263238"/>
<g opacity="0.3">
<path d="M27.2724 260.824C27.2724 260.824 31.3939 248.075 24.2879 240.517C24.2328 240.457 24.1622 240.413 24.0838 240.391C24.0054 240.368 23.9223 240.368 23.8436 240.389C23.7649 240.411 23.6937 240.454 23.6379 240.513C23.582 240.573 23.5437 240.646 23.5271 240.726C23.1175 242.833 22.5824 249.262 27.2724 260.824Z" fill="black"/>
</g>
<path d="M49.744 215.872C49.744 215.872 60.7291 208.181 59.6172 197.865C59.61 197.783 59.5803 197.705 59.5312 197.639C59.4822 197.573 59.4158 197.522 59.3395 197.492C59.2632 197.461 59.18 197.453 59.0991 197.467C59.0182 197.481 58.9429 197.518 58.8815 197.572C57.2931 199.06 52.9793 203.817 49.744 215.872Z" fill="#381E3E"/>
<g opacity="0.3">
<path d="M49.744 215.872C49.744 215.872 60.7291 208.181 59.6172 197.865C59.61 197.783 59.5803 197.705 59.5312 197.639C59.4822 197.573 59.4158 197.522 59.3395 197.492C59.2632 197.461 59.18 197.453 59.0991 197.467C59.0182 197.481 58.9429 197.518 58.8815 197.572C57.2931 199.06 52.9793 203.817 49.744 215.872Z" fill="black"/>
</g>
<path d="M57.6359 201.719C57.4141 202.48 57.1084 203.215 56.7247 203.909C56.0977 205.238 55.1865 207.044 54.1247 209.017C53.063 210.99 52.0431 212.737 51.2489 213.974C50.8692 214.673 50.3999 215.32 49.8528 215.897C50.1543 215.164 50.5209 214.459 50.9479 213.79L53.6817 208.774L56.407 203.758C56.7454 203.038 57.1572 202.354 57.6359 201.719Z" fill="#263238"/>
<path d="M31.6948 248.183C31.6948 248.183 44.912 246.119 48.4901 236.371C48.5196 236.294 48.5272 236.21 48.5119 236.129C48.4966 236.048 48.4591 235.973 48.4035 235.913C48.348 235.852 48.2766 235.808 48.1973 235.785C48.1181 235.763 48.0342 235.763 47.955 235.786C45.8901 236.371 39.896 238.787 31.6948 248.183Z" fill="#CEAB5E"/>
<g opacity="0.3">
<path d="M31.6948 248.183C31.6948 248.183 44.912 246.119 48.4901 236.371C48.5196 236.294 48.5272 236.21 48.5119 236.129C48.4966 236.048 48.4591 235.973 48.4035 235.913C48.348 235.852 48.2766 235.808 48.1973 235.785C48.1181 235.763 48.0342 235.763 47.955 235.786C45.8901 236.371 39.896 238.787 31.6948 248.183Z" fill="black"/>
</g>
<path d="M45.0123 238.954C44.4783 239.536 43.8842 240.06 43.24 240.517C42.0947 241.437 40.4812 242.658 38.6587 243.953C36.8362 245.249 35.1475 246.378 33.9019 247.147C33.247 247.601 32.5396 247.974 31.7952 248.259C32.3864 247.731 33.0244 247.258 33.7012 246.846L38.3745 243.552L43.031 240.208C43.6462 239.723 44.3102 239.302 45.0123 238.954Z" fill="#263238"/>
<path d="M19.0629 272.561L15.2006 298.561H39.2774L36.1507 272.561H19.0629Z" fill="#455A64"/>
<path d="M37.1205 280.612C37.1205 280.754 32.7733 280.863 27.4062 280.863C22.039 280.863 17.7002 280.754 17.7002 280.612C20.9292 280.364 24.1687 280.281 27.4062 280.361C30.6464 280.281 33.8887 280.364 37.1205 280.612Z" fill="#263238"/>
<path d="M37.597 282.66C37.597 282.794 33.1076 282.911 27.565 282.911C22.0223 282.911 17.533 282.794 17.533 282.66C17.533 282.526 22.0223 282.409 27.565 282.409C33.1076 282.409 37.597 282.543 37.597 282.66Z" fill="#263238"/>
</svg>
