<svg width="44" height="44" viewBox="0 0 44 44" fill="none" xmlns="http://www.w3.org/2000/svg">
<rect width="44" height="44" rx="10" fill="#CEAB5E"/>
<mask id="mask0_333_1674" style="mask-type:alpha" maskUnits="userSpaceOnUse" x="0" y="0" width="44" height="44">
<rect width="44" height="44" rx="10" fill="#FF0B0B"/>
</mask>
<g mask="url(#mask0_333_1674)">
<path d="M22.01 30.2084C27.1195 30.2084 31.2617 26.0663 31.2617 20.9568C31.2617 15.8472 27.1195 11.7051 22.01 11.7051C16.9004 11.7051 12.7583 15.8472 12.7583 20.9568C12.7583 26.0663 16.9004 30.2084 22.01 30.2084Z" fill="#FFBE9D"/>
<path d="M14.3523 32.28L16.2809 27.3514L26.2452 25.8514L27.3157 36.7615L17.2443 36.9757L14.3523 32.28Z" fill="#FFBE9D"/>
<path d="M31.3513 22.6637C31.2312 23.1447 30.9885 24.2901 30.6095 24.2957C30.2998 24.3002 30.0034 19.3313 30.3127 18.5094C30.6681 17.5652 29.7343 16.3708 29.0309 15.7576C27.7661 14.6552 24.9587 17.0224 22.1039 15.95C22.0283 15.9217 22.0433 15.9249 21.1419 15.5652C18.368 14.4585 18.2222 14.4265 18.0632 14.4107C16.7186 14.2777 15.0775 15.3781 14.4074 16.7197C13.7108 18.1143 14.2928 19.3105 13.6377 22.6845C13.5614 23.0778 13.4415 23.6383 13.2529 23.6466C12.9081 23.6616 12.5714 21.82 12.4832 21.3376C12.1138 19.3167 11.7576 17.3683 12.4832 15.1804C12.5624 14.9417 13.0502 14.056 14.0225 12.2942C15.4234 9.75615 16.1279 8.48234 16.3315 8.25348C17.7917 6.61138 20.4496 5.1134 22.6812 5.75209C23.8091 6.07491 23.6068 6.5939 24.9902 7.09899C27.4553 7.99905 29.5978 6.89831 29.9929 7.67623C30.2022 8.0883 29.6166 8.42804 29.6081 9.21555C29.5935 10.5668 31.3025 10.9572 32.3019 12.2942C32.8392 13.0129 33.7588 13.0206 31.3513 22.6637Z" fill="#2F2E41"/>
<path d="M42.813 40.4225C42.4401 40.8414 42.0533 41.2518 41.6526 41.6526C36.2697 47.0353 29.1126 50 21.5001 50C14.9205 50 8.68154 47.7853 3.63402 43.7086C3.63081 43.7065 3.62866 43.7043 3.62547 43.701C2.95583 43.1611 2.30761 42.5868 1.68188 41.9804C1.69366 41.8861 1.70653 41.7929 1.72044 41.7007C1.80831 41.0793 1.90582 40.4867 2.01508 39.9414C2.90974 35.4714 14.6815 30.7786 14.9879 30.6564C14.9922 30.6553 14.9944 30.6543 14.9944 30.6543C14.9944 30.6543 16.5094 36.2386 23.0012 36.1668C27.423 36.1186 26.5658 30.6543 26.5658 30.6543C26.5658 30.6543 26.6194 30.665 26.7201 30.6864C27.9972 30.9575 36.8644 32.9053 40.3626 35.5636C41.4287 36.3736 42.1937 38.0986 42.7433 40.1557C42.7669 40.2436 42.7894 40.3336 42.813 40.4225Z" fill="#381E3E"/>
</g>
</svg>
