<svg width="327" height="350" viewBox="0 0 327 350" fill="none" xmlns="http://www.w3.org/2000/svg">
<path d="M488.527 85.0764C475.878 54 449.793 30.4143 417.786 22.0884C407.448 19.3713 396.768 18.2539 386.104 18.7737C349.703 20.6355 314.867 42.4203 296.791 74.6451C286.159 93.5937 280.433 116.466 263.749 130.169C242.032 148.004 210.615 143.567 183.206 138.233C155.797 132.9 124.353 128.542 102.713 146.472C89.1667 157.704 82.5858 175.73 80.7653 193.452C75.945 240.284 101.628 287.03 139.327 314.321C197.615 356.499 285.475 357.882 351.327 334.331C444.435 300.993 519.312 202.457 493.099 98.8572C491.894 94.1602 490.366 89.5552 488.527 85.0764Z" fill="#EBEBEB"/>
<path d="M265.92 226.599H68.6547V238.823H265.92V226.599Z" fill="#455A64"/>
<path d="M260.468 46.1091H79.8679V228.191H260.468V46.1091Z" fill="#455A64"/>
<path d="M254.844 51.8337H84.4318V225.303H254.844V51.8337Z" fill="#E0E0E0"/>
<path d="M257.194 49.3629H172.061V227.8H257.194V49.3629Z" fill="#455A64"/>
<path d="M255.049 51.4422H174.223V224.911H255.049V51.4422Z" fill="#FAFAFA"/>
<path d="M190.154 158.043C190.069 157.956 201.581 146.09 215.871 131.534C230.161 116.979 241.827 105.26 241.913 105.356C241.998 105.452 230.486 117.31 216.187 131.856C201.889 146.403 190.24 158.13 190.154 158.043Z" fill="#263238"/>
<path d="M197.111 140.643C197.026 140.556 208.547 128.69 222.837 114.143C237.127 99.5967 248.801 87.8691 248.87 87.93C248.938 87.9909 237.443 99.9099 223.161 114.465C208.88 129.02 197.197 140.73 197.111 140.643Z" fill="#263238"/>
<path d="M257.194 94.7508H172.821V97.152H257.194V94.7508Z" fill="#455A64"/>
<path d="M257.194 137.842H172.821V140.243H257.194V137.842Z" fill="#455A64"/>
<path d="M257.194 180.942H172.821V183.343H257.194V180.942Z" fill="#455A64"/>
<path d="M201.282 49.3629H199.479V224.912H201.282V49.3629Z" fill="#455A64"/>
<path d="M229.349 49.3629H227.546V224.912H229.349V49.3629Z" fill="#455A64"/>
<path d="M85.7822 49.3629H0.648865V227.8H85.7822V49.3629Z" fill="#455A64"/>
<path d="M83.6284 51.4422H2.80261V224.911H83.6284V51.4422Z" fill="#FAFAFA"/>
<path d="M18.7422 158.043C18.6567 157.956 30.1691 146.09 44.4591 131.534C58.7491 116.979 70.4153 105.26 70.5008 105.356C70.5862 105.452 59.0653 117.31 44.7753 131.856C30.4853 146.403 18.8276 158.13 18.7422 158.043Z" fill="#263238"/>
<path d="M25.7333 140.643C25.6479 140.556 37.1602 128.69 51.4502 114.143C65.7403 99.5967 77.4065 87.8691 77.4919 87.9561C77.5774 88.0431 66.065 99.9099 51.7665 114.465C37.4679 129.02 25.7846 140.73 25.7333 140.643Z" fill="#263238"/>
<path d="M85.7737 94.7508H1.40097V97.152H85.7737V94.7508Z" fill="#455A64"/>
<path d="M85.7737 137.842H1.40097V140.243H85.7737V137.842Z" fill="#455A64"/>
<path d="M85.7737 180.942H1.40097V183.343H85.7737V180.942Z" fill="#455A64"/>
<path d="M29.8614 49.3629H28.058V224.912H29.8614V49.3629Z" fill="#455A64"/>
<path d="M57.9372 49.3629H56.1338V224.912H57.9372V49.3629Z" fill="#455A64"/>
<path d="M182.889 97.6827C180.513 96.282 177.326 97.9698 174.83 96.8127C173.309 96.1167 172.403 94.542 171.172 93.4023C170.207 92.5239 169.054 91.8853 167.806 91.5366C166.557 91.1879 165.246 91.1386 163.976 91.3926C161.557 92.0016 159.899 92.8629 159.036 95.238C157.326 93.6285 153.48 95.3685 151.805 97.5348C150.13 99.7011 149.839 102.276 149.874 105.034C149.946 109.79 150.93 114.486 152.771 118.859C152.942 119.25 153.233 119.729 153.626 119.615C153.899 119.555 154.053 119.259 154.164 118.989C154.962 116.646 155.475 114.212 155.694 111.742C155.913 109.265 156.622 106.859 157.779 104.669C159.053 102.563 161.292 100.884 163.719 100.971C165.527 101.136 167.219 101.947 168.497 103.259C169.822 104.495 170.898 105.983 172.121 107.322C173.29 108.726 174.811 109.782 176.522 110.376C177.381 110.654 178.301 110.676 179.172 110.438C180.043 110.201 180.829 109.714 181.437 109.036C182.548 107.601 182.24 105.113 180.582 104.338C181.394 104.456 182.222 104.282 182.922 103.847C183.622 103.411 184.151 102.74 184.418 101.951C184.685 101.161 184.673 100.301 184.385 99.5188C184.097 98.7367 183.55 98.0813 182.838 97.6653L182.889 97.6827Z" fill="#263238"/>
<path d="M153.386 106.652L149.754 134.188C149.608 135.298 149.685 136.426 149.98 137.505C150.275 138.584 150.782 139.59 151.471 140.463C152.16 141.336 153.017 142.058 153.988 142.584C154.959 143.11 156.025 143.429 157.121 143.523C159.199 143.696 161.262 143.05 162.886 141.72C164.51 140.389 165.57 138.475 165.847 136.372C166.121 134.301 166.352 132.57 166.386 132.361C166.386 132.361 173.36 132.639 174.77 125.775C175.454 122.452 176.317 115.5 177.018 109.202C177.39 105.939 176.54 102.653 174.638 100C172.735 97.3477 169.92 95.5228 166.753 94.89L166.104 94.7595C158.959 93.7851 154.156 99.3879 153.386 106.652Z" fill="#FFBE9D"/>
<path d="M166.42 132.3C163.283 131.723 160.385 130.209 158.096 127.95C158.096 127.95 159.224 133.318 166.095 134.04L166.42 132.3Z" fill="#EB996E"/>
<path d="M174.317 113.482C174.267 113.738 174.122 113.966 173.912 114.116C173.702 114.267 173.443 114.33 173.189 114.291C173.061 114.28 172.937 114.243 172.824 114.182C172.711 114.121 172.611 114.037 172.531 113.935C172.451 113.833 172.392 113.716 172.358 113.59C172.325 113.464 172.316 113.333 172.334 113.204C172.38 112.947 172.523 112.718 172.732 112.567C172.942 112.416 173.2 112.354 173.454 112.394C173.582 112.405 173.706 112.442 173.82 112.503C173.933 112.564 174.034 112.648 174.114 112.75C174.195 112.852 174.255 112.969 174.29 113.095C174.324 113.221 174.334 113.352 174.317 113.482Z" fill="#263238"/>
<path d="M174.915 112.29C174.77 112.394 174.146 111.698 173.104 111.49C172.061 111.281 171.198 111.664 171.112 111.49C171.027 111.316 171.232 111.22 171.616 111.037C172.127 110.809 172.694 110.749 173.24 110.863C173.782 110.966 174.276 111.244 174.65 111.655C174.924 111.994 174.984 112.29 174.915 112.29Z" fill="#263238"/>
<path d="M164.078 111.42C164.03 111.676 163.887 111.903 163.678 112.054C163.47 112.205 163.212 112.267 162.959 112.229C162.831 112.219 162.707 112.181 162.594 112.12C162.48 112.059 162.381 111.975 162.301 111.873C162.221 111.771 162.162 111.654 162.128 111.528C162.094 111.402 162.086 111.271 162.104 111.142C162.152 110.886 162.295 110.659 162.504 110.508C162.713 110.357 162.97 110.294 163.224 110.333C163.351 110.343 163.475 110.38 163.589 110.441C163.702 110.503 163.801 110.587 163.881 110.689C163.961 110.79 164.02 110.908 164.054 111.034C164.088 111.159 164.096 111.291 164.078 111.42Z" fill="#263238"/>
<path d="M164.659 110.446C164.514 110.55 163.89 109.854 162.848 109.645C161.805 109.436 160.942 109.819 160.856 109.645C160.771 109.471 160.976 109.376 161.36 109.193C161.871 108.965 162.438 108.904 162.984 109.019C163.526 109.122 164.02 109.399 164.394 109.81C164.668 110.141 164.728 110.402 164.659 110.446Z" fill="#263238"/>
<path d="M166.916 119.041C167.497 118.967 168.086 118.967 168.668 119.041C168.933 119.041 169.198 119.041 169.275 118.885C169.368 118.602 169.368 118.297 169.275 118.015C169.146 117.31 169.018 116.57 168.881 115.796C168.489 113.908 168.249 111.991 168.164 110.063C168.696 111.931 169.081 113.84 169.317 115.77C169.446 116.544 169.557 117.284 169.668 117.989C169.776 118.347 169.754 118.732 169.608 119.076C169.551 119.164 169.475 119.238 169.386 119.292C169.298 119.346 169.198 119.379 169.095 119.389C168.939 119.412 168.781 119.412 168.625 119.389C168.043 119.35 167.468 119.233 166.916 119.041Z" fill="#263238"/>
<path d="M163.719 119.163C163.89 119.163 163.668 120.337 164.48 121.347C165.292 122.356 166.514 122.469 166.488 122.634C166.463 122.8 166.181 122.8 165.634 122.713C164.964 122.596 164.357 122.237 163.924 121.703C163.511 121.198 163.309 120.549 163.36 119.894C163.463 119.407 163.642 119.146 163.719 119.163Z" fill="#263238"/>
<path d="M165.728 106.348C165.565 106.618 164.557 106.278 163.309 106.183C162.061 106.087 161.01 106.226 160.899 105.939C160.848 105.8 161.07 105.565 161.523 105.365C162.119 105.122 162.763 105.026 163.403 105.086C164.041 105.139 164.658 105.342 165.206 105.678C165.617 105.948 165.796 106.2 165.728 106.348Z" fill="#263238"/>
<path d="M175.121 109.149C174.89 109.358 174.266 108.958 173.411 108.775C172.557 108.592 171.787 108.619 171.702 108.34C171.651 108.201 171.813 107.983 172.18 107.818C172.658 107.622 173.185 107.586 173.685 107.714C174.189 107.818 174.647 108.083 174.992 108.471C175.172 108.81 175.223 109.054 175.121 109.149Z" fill="#263238"/>
<path d="M152.95 111.864C152.848 111.785 148.575 109.532 147.822 114.274C147.07 119.015 151.891 118.806 151.925 118.676C151.959 118.545 152.95 111.864 152.95 111.864Z" fill="#FFBE9D"/>
<path d="M150.78 116.64C150.78 116.64 150.686 116.684 150.54 116.727C150.334 116.775 150.118 116.744 149.934 116.64C149.665 116.396 149.465 116.084 149.354 115.735C149.243 115.387 149.225 115.014 149.301 114.656C149.355 114.247 149.498 113.855 149.72 113.508C149.788 113.368 149.888 113.247 150.011 113.155C150.134 113.062 150.278 113.002 150.429 112.977C150.526 112.969 150.623 112.995 150.704 113.05C150.785 113.105 150.845 113.187 150.874 113.282C150.874 113.43 150.874 113.517 150.874 113.525C150.874 113.534 150.985 113.465 150.976 113.264C150.973 113.142 150.927 113.025 150.848 112.934C150.731 112.818 150.576 112.75 150.412 112.742C150.216 112.749 150.025 112.806 149.857 112.91C149.689 113.014 149.551 113.16 149.455 113.334C149.188 113.712 149.017 114.151 148.959 114.613C148.867 115.03 148.899 115.465 149.051 115.864C149.204 116.262 149.469 116.605 149.814 116.849C149.932 116.909 150.062 116.94 150.194 116.94C150.326 116.94 150.456 116.909 150.575 116.849C150.754 116.753 150.797 116.64 150.78 116.64Z" fill="#EB996E"/>
<path d="M178.719 108.053C177.144 108.147 175.571 107.858 174.128 107.211C172.685 106.563 171.414 105.576 170.42 104.33C169.052 102.59 168.181 100.284 166.241 99.2313C164.906 98.5714 163.369 98.4775 161.967 98.9703C160.568 99.4812 159.288 100.281 158.207 101.319C158.839 105.078 157.207 108.81 155.643 112.264C155.508 112.664 155.246 113.006 154.899 113.238C154.267 113.56 153.515 113.064 153.13 112.455C152.599 111.439 152.37 110.287 152.472 109.141C152.474 106.52 152.988 103.927 153.985 101.511C154.994 99.0898 156.679 97.0237 158.831 95.5686C161.583 93.8683 164.874 93.3136 168.018 94.02C171.168 94.7514 174.01 96.478 176.138 98.9529C177.181 100.043 177.937 101.383 178.334 102.85" fill="#263238"/>
<path d="M184.505 99.7272C184.492 99.8675 184.451 100.004 184.385 100.127C184.201 100.505 183.901 100.81 183.53 100.997C182.955 101.272 182.309 101.354 181.684 101.232C181.298 101.18 180.919 101.081 180.556 100.937C180.136 100.771 179.765 100.499 179.479 100.145C179.322 99.9447 179.211 99.7105 179.157 99.4601C179.102 99.2098 179.104 98.95 179.163 98.7007C179.249 98.4314 179.409 98.193 179.624 98.0139C179.839 97.8349 180.1 97.723 180.377 97.6914C180.662 97.6426 180.955 97.6634 181.231 97.7523C181.517 97.8479 181.768 98.03 181.949 98.2743C182.129 98.5212 182.255 98.8037 182.32 99.1035C182.384 99.4034 182.386 99.7137 182.325 100.014C182.259 100.336 182.13 100.641 181.946 100.911C181.763 101.181 181.529 101.412 181.257 101.589C180.703 101.967 180.06 102.186 179.394 102.224C178.014 102.257 176.663 101.819 175.556 100.98C174.452 100.173 173.44 99.2417 172.539 98.2047C171.711 97.2578 170.805 96.3846 169.83 95.5947C168.948 94.8798 167.911 94.3905 166.805 94.1679C165.835 94.0071 164.843 94.0665 163.899 94.3419C162.527 94.754 161.282 95.518 160.284 96.5604C159.925 96.9258 159.668 97.239 159.497 97.4304C159.326 97.6218 159.249 97.7523 159.241 97.7523C159.232 97.7523 159.241 97.7523 159.292 97.6566C159.344 97.5694 159.402 97.4852 159.463 97.4043C159.69 97.0779 159.942 96.7696 160.215 96.4821C161.204 95.3962 162.457 94.595 163.847 94.1593C164.817 93.8655 165.84 93.7971 166.839 93.9591C167.977 94.1762 169.047 94.6686 169.958 95.3946C170.944 96.187 171.864 97.0599 172.71 98.0046C173.594 99.0328 174.592 99.9525 175.685 100.745C176.762 101.554 178.073 101.976 179.411 101.946C180.035 101.905 180.638 101.701 181.163 101.354C181.658 101.022 182.007 100.507 182.137 99.9186C182.201 99.6424 182.205 99.3554 182.149 99.0775C182.093 98.7996 181.978 98.5374 181.813 98.3091C181.651 98.1012 181.436 97.9424 181.192 97.8504C180.948 97.7583 180.684 97.7364 180.428 97.7871C180.187 97.8147 179.959 97.911 179.77 98.065C179.581 98.2189 179.439 98.4242 179.36 98.6571C179.307 98.8809 179.306 99.1137 179.355 99.3382C179.403 99.5628 179.502 99.7731 179.642 99.9535C179.901 100.29 180.243 100.551 180.633 100.71C180.989 100.853 181.358 100.955 181.736 101.015C182.333 101.14 182.955 101.073 183.513 100.823C183.872 100.66 184.17 100.386 184.368 100.04C184.422 99.9402 184.468 99.8355 184.505 99.7272Z" fill="#455A64"/>
<path d="M150.198 101.441C150.626 101.697 151.075 101.916 151.54 102.094C152.052 102.25 152.59 102.3 153.121 102.242C153.775 102.171 154.415 102.001 155.019 101.737C156.103 101.239 157.001 100.4 157.583 99.3444C157.805 98.8932 157.999 98.4283 158.164 97.9525C158.175 98.0909 158.158 98.2303 158.113 98.3614C158.027 98.7297 157.898 99.0861 157.728 99.4228C157.155 100.553 156.216 101.447 155.07 101.954C154.442 102.227 153.776 102.397 153.096 102.459C152.538 102.509 151.975 102.438 151.446 102.25C151.092 102.129 150.76 101.95 150.463 101.72C150.362 101.64 150.273 101.546 150.198 101.441Z" fill="#455A64"/>
<path d="M149.745 104.886C149.745 104.843 150.275 105.078 151.156 105.2C152.304 105.369 153.476 105.222 154.549 104.773C155.622 104.325 156.558 103.592 157.258 102.65C157.796 101.928 158.002 101.398 158.044 101.415C158.02 101.545 157.977 101.671 157.916 101.789C157.764 102.12 157.575 102.433 157.352 102.72C156.667 103.719 155.715 104.498 154.609 104.965C153.496 105.425 152.278 105.555 151.096 105.339C150.743 105.272 150.397 105.173 150.062 105.043C149.865 104.973 149.737 104.904 149.745 104.886Z" fill="#455A64"/>
<path d="M160.335 114.256C160.319 114.255 160.304 114.251 160.29 114.244C160.276 114.237 160.263 114.227 160.253 114.215C160.242 114.203 160.234 114.188 160.229 114.173C160.224 114.158 160.223 114.142 160.224 114.126C160.221 114.11 160.222 114.093 160.227 114.077C160.231 114.061 160.239 114.047 160.25 114.034C160.26 114.022 160.273 114.012 160.288 114.005C160.303 113.998 160.319 113.995 160.335 113.995C160.351 113.995 160.368 113.999 160.383 114.005C160.398 114.012 160.412 114.022 160.423 114.034C160.434 114.046 160.443 114.061 160.448 114.077C160.454 114.092 160.456 114.109 160.455 114.126C160.455 114.159 160.442 114.191 160.42 114.215C160.398 114.24 160.368 114.254 160.335 114.256Z" fill="#EB996E"/>
<path d="M162.412 114.187C162.394 114.186 162.377 114.181 162.361 114.173C162.345 114.165 162.331 114.153 162.32 114.14C162.309 114.126 162.301 114.109 162.296 114.092C162.291 114.075 162.29 114.057 162.292 114.039C162.29 114.003 162.301 113.968 162.323 113.941C162.345 113.913 162.377 113.895 162.412 113.891C162.446 113.897 162.476 113.915 162.498 113.942C162.52 113.97 162.532 114.004 162.532 114.039C162.534 114.057 162.533 114.075 162.528 114.092C162.523 114.109 162.515 114.126 162.503 114.14C162.492 114.153 162.478 114.165 162.463 114.173C162.447 114.181 162.429 114.186 162.412 114.187Z" fill="#EB996E"/>
<path d="M163.754 114.422C163.694 114.422 163.642 114.326 163.651 114.222C163.659 114.117 163.719 114.03 163.779 114.039C163.839 114.047 163.891 114.135 163.882 114.239C163.873 114.344 163.822 114.431 163.754 114.422Z" fill="#EB996E"/>
<path d="M161.07 115.718C161.001 115.718 160.959 115.657 160.967 115.622C160.976 115.587 161.036 115.553 161.095 115.57C161.155 115.587 161.206 115.622 161.198 115.666C161.189 115.709 161.129 115.77 161.07 115.718Z" fill="#EB996E"/>
<path d="M162.976 115.648C162.959 115.646 162.943 115.641 162.929 115.632C162.914 115.623 162.902 115.612 162.892 115.598C162.882 115.584 162.876 115.568 162.872 115.551C162.869 115.534 162.869 115.517 162.873 115.5C162.875 115.467 162.89 115.436 162.914 115.414C162.937 115.391 162.969 115.378 163.002 115.379C163.033 115.387 163.061 115.406 163.08 115.433C163.099 115.46 163.107 115.493 163.104 115.527C163.104 115.543 163.101 115.56 163.094 115.575C163.088 115.591 163.078 115.605 163.066 115.616C163.054 115.627 163.04 115.636 163.024 115.642C163.009 115.647 162.992 115.65 162.976 115.648Z" fill="#EB996E"/>
<path d="M172.676 116.397C172.659 116.396 172.643 116.391 172.628 116.383C172.613 116.376 172.599 116.365 172.588 116.352C172.577 116.339 172.568 116.324 172.563 116.308C172.558 116.292 172.555 116.275 172.557 116.257C172.552 116.239 172.551 116.22 172.554 116.202C172.558 116.183 172.566 116.166 172.577 116.151C172.588 116.136 172.602 116.124 172.619 116.116C172.635 116.107 172.654 116.103 172.672 116.103C172.691 116.103 172.709 116.107 172.725 116.116C172.742 116.124 172.756 116.136 172.767 116.151C172.779 116.166 172.786 116.183 172.79 116.202C172.793 116.22 172.792 116.239 172.788 116.257C172.79 116.291 172.78 116.324 172.759 116.35C172.739 116.375 172.709 116.392 172.676 116.397Z" fill="#EB996E"/>
<path d="M174.052 116.536C173.984 116.536 173.941 116.458 173.95 116.379C173.958 116.301 174.018 116.231 174.078 116.24C174.095 116.243 174.111 116.249 174.126 116.259C174.14 116.269 174.153 116.281 174.162 116.296C174.172 116.311 174.178 116.327 174.182 116.344C174.185 116.362 174.184 116.379 174.181 116.397C174.172 116.484 174.112 116.545 174.052 116.536Z" fill="#EB996E"/>
<path d="M171.471 116.188C171.457 116.189 171.442 116.187 171.428 116.183C171.414 116.178 171.401 116.171 171.39 116.161C171.379 116.151 171.37 116.139 171.363 116.126C171.356 116.113 171.353 116.098 171.351 116.083C171.348 116.059 171.352 116.034 171.363 116.012C171.374 115.989 171.391 115.971 171.412 115.959C171.434 115.947 171.458 115.942 171.482 115.945C171.507 115.947 171.529 115.957 171.548 115.973C171.567 115.99 171.58 116.011 171.586 116.035C171.592 116.059 171.591 116.084 171.583 116.108C171.574 116.131 171.559 116.151 171.539 116.165C171.519 116.18 171.496 116.188 171.471 116.188Z" fill="#EB996E"/>
<path d="M172.206 117.771C172.174 117.774 172.141 117.763 172.116 117.742C172.09 117.721 172.074 117.691 172.069 117.658C172.064 117.643 172.062 117.626 172.063 117.61C172.064 117.594 172.068 117.578 172.075 117.563C172.082 117.548 172.092 117.535 172.105 117.525C172.117 117.514 172.131 117.506 172.146 117.501C172.179 117.496 172.213 117.504 172.24 117.524C172.267 117.543 172.286 117.573 172.292 117.606C172.297 117.622 172.299 117.64 172.298 117.657C172.296 117.675 172.291 117.691 172.283 117.707C172.275 117.722 172.264 117.736 172.251 117.747C172.238 117.758 172.223 117.766 172.206 117.771Z" fill="#EB996E"/>
<path d="M173.411 117.762C173.398 117.757 173.386 117.75 173.376 117.74C173.366 117.73 173.357 117.719 173.352 117.706C173.346 117.693 173.343 117.679 173.343 117.664C173.343 117.65 173.346 117.636 173.351 117.623C173.372 117.605 173.397 117.596 173.424 117.596C173.451 117.596 173.476 117.605 173.496 117.623C173.524 117.635 173.545 117.657 173.556 117.684C173.568 117.712 173.567 117.743 173.556 117.771C173.546 117.78 173.534 117.787 173.522 117.792C173.509 117.796 173.495 117.798 173.482 117.797C173.468 117.796 173.455 117.793 173.443 117.787C173.431 117.781 173.42 117.772 173.411 117.762Z" fill="#EB996E"/>
<path d="M148.677 117.554C148.506 117.878 148.396 118.232 148.352 118.597C148.319 118.986 148.429 119.374 148.66 119.685C148.797 119.872 148.977 120.023 149.184 120.124C149.391 120.226 149.619 120.275 149.848 120.268C150.075 120.25 150.294 120.172 150.482 120.043C150.671 119.913 150.824 119.736 150.925 119.528C151.053 119.163 151.053 118.763 150.925 118.397C150.83 118.037 150.651 117.706 150.404 117.432C150.404 117.432 150.857 117.641 151.079 118.345C151.231 118.754 151.231 119.206 151.079 119.615C150.963 119.862 150.785 120.073 150.563 120.226C150.34 120.379 150.082 120.468 149.814 120.485C149.548 120.494 149.284 120.436 149.045 120.316C148.807 120.196 148.601 120.018 148.446 119.798C148.194 119.441 148.084 118.999 148.139 118.563C148.175 118.277 148.274 118.003 148.429 117.762C148.583 117.614 148.669 117.51 148.677 117.554Z" fill="#263238"/>
<path d="M148.848 116.753C148.848 116.753 149.01 116.849 149.045 117.127C149.064 117.292 149.025 117.459 148.934 117.597C148.876 117.684 148.8 117.758 148.712 117.812C148.623 117.866 148.524 117.9 148.421 117.91C148.316 117.915 148.211 117.894 148.116 117.848C148.02 117.803 147.937 117.735 147.874 117.649C147.821 117.582 147.786 117.502 147.771 117.417C147.756 117.332 147.762 117.244 147.788 117.162C147.882 116.875 148.096 116.84 148.096 116.866C148.096 116.892 147.976 116.988 147.951 117.197C147.939 117.254 147.941 117.312 147.956 117.368C147.971 117.424 147.998 117.475 148.036 117.519C148.082 117.571 148.139 117.612 148.203 117.639C148.266 117.666 148.335 117.678 148.404 117.675C148.541 117.657 148.667 117.585 148.754 117.475C148.829 117.378 148.874 117.26 148.882 117.136C148.891 116.918 148.805 116.779 148.848 116.753Z" fill="#263238"/>
<path d="M168.386 296.469L171.975 314.8L178.924 328.459C179.037 328.691 179.103 328.944 179.117 329.203C179.132 329.461 179.095 329.72 179.009 329.964C178.922 330.208 178.789 330.431 178.616 330.621C178.442 330.811 178.233 330.963 178.001 331.069C177.727 331.189 177.43 331.242 177.133 331.222C176.836 331.202 176.547 331.111 176.291 330.956C172.967 328.92 160.771 321.334 160.6 319.985C160.378 318.41 154.788 298.47 154.788 298.47L168.386 296.469Z" fill="#381E3E"/>
<g opacity="0.6">
<path d="M178.001 331.095L160.326 318.75L160.497 319.524C160.642 320.19 161.015 320.782 161.548 321.194C162.993 322.299 167.018 325.257 176.232 330.991C176.494 331.157 176.794 331.254 177.103 331.272C177.412 331.29 177.721 331.229 178.001 331.095Z" fill="white"/>
</g>
<g opacity="0.6">
<path d="M162.711 312.033C162.969 312.147 163.176 312.354 163.293 312.614C163.41 312.875 163.428 313.17 163.343 313.443C163.238 313.707 163.038 313.92 162.784 314.039C162.53 314.159 162.241 314.176 161.976 314.087C161.704 313.964 161.487 313.743 161.365 313.467C161.244 313.19 161.227 312.878 161.318 312.59C161.453 312.324 161.685 312.122 161.964 312.026C162.243 311.93 162.547 311.949 162.813 312.077" fill="white"/>
</g>
<path d="M172.155 324.057C172.417 323.367 172.856 322.762 173.426 322.303C173.995 321.844 174.675 321.549 175.394 321.447C175.394 321.395 175.138 321.308 174.71 321.342C174.143 321.402 173.606 321.629 173.163 321.995C172.717 322.353 172.384 322.837 172.206 323.387C172.078 323.778 172.112 324.057 172.155 324.057Z" fill="#263238"/>
<path d="M173.967 326.206C174.069 326.267 174.514 325.544 175.385 325.066C175.942 324.82 176.512 324.611 177.095 324.44C176.78 324.328 176.444 324.294 176.114 324.341C175.784 324.387 175.47 324.514 175.197 324.709C174.198 325.257 173.864 326.18 173.967 326.206Z" fill="#263238"/>
<path d="M169.095 321.464C169.737 320.775 170.428 320.135 171.163 319.55C171.986 319.073 172.843 318.66 173.727 318.315C172.747 318.338 171.793 318.647 170.979 319.205C170.166 319.763 169.527 320.547 169.138 321.464H169.095Z" fill="#263238"/>
<path d="M167.548 315.992C167.617 316.088 168.514 315.444 169.796 315.122C171.078 314.8 172.163 314.861 172.172 314.739C171.368 314.443 170.488 314.443 169.685 314.739C168.85 314.889 168.094 315.332 167.548 315.992Z" fill="#263238"/>
<path d="M166.36 310.65C167.085 310.217 167.864 309.886 168.676 309.667C169.51 309.571 170.353 309.594 171.181 309.737C171.181 309.693 170.958 309.502 170.488 309.354C169.873 309.176 169.225 309.146 168.596 309.267C167.967 309.388 167.374 309.656 166.864 310.05C166.488 310.337 166.326 310.65 166.36 310.65Z" fill="#263238"/>
<path d="M168.463 308.64C168.467 308.402 168.424 308.165 168.334 307.944C168.133 307.324 167.813 306.751 167.394 306.257C167.123 305.869 166.732 305.584 166.283 305.447C166.131 305.415 165.972 305.431 165.829 305.495C165.687 305.559 165.567 305.667 165.488 305.804C165.349 306.071 165.313 306.381 165.386 306.674C165.56 307.277 165.935 307.799 166.447 308.15C166.959 308.501 167.575 308.659 168.189 308.597C168.796 308.524 169.367 308.269 169.831 307.864C170.295 307.46 170.631 306.925 170.796 306.326C170.833 306.179 170.84 306.025 170.815 305.875C170.79 305.725 170.734 305.583 170.651 305.456C170.55 305.331 170.413 305.242 170.259 305.203C170.105 305.163 169.942 305.176 169.796 305.239C169.378 305.429 169.018 305.729 168.753 306.109C168.35 306.61 168.04 307.182 167.839 307.796C167.745 308.016 167.698 308.253 167.702 308.492C168.013 307.699 168.44 306.957 168.967 306.291C169.212 305.965 169.532 305.706 169.899 305.534C169.977 305.502 170.064 305.496 170.147 305.516C170.23 305.536 170.304 305.582 170.36 305.648C170.456 305.832 170.478 306.047 170.42 306.248C170.261 306.759 169.962 307.214 169.557 307.557C169.153 307.901 168.66 308.12 168.138 308.188C167.617 308.24 167.095 308.11 166.656 307.819C166.218 307.528 165.891 307.093 165.728 306.587C165.657 306.388 165.657 306.169 165.728 305.969C165.771 305.894 165.836 305.834 165.914 305.798C165.992 305.762 166.08 305.752 166.164 305.769C166.544 305.884 166.881 306.115 167.129 306.431C167.696 307.083 168.148 307.831 168.463 308.64Z" fill="#263238"/>
<g opacity="0.3">
<path d="M155.822 302.176L169.087 300.036L168.582 297.496L155.472 300.897L155.822 302.176Z" fill="black"/>
</g>
<path d="M194.103 290.309L191.009 304.56C191.009 304.56 204.239 312.529 203.923 315.226L176.505 310.154L180.428 287.734L194.103 290.309Z" fill="#381E3E"/>
<g opacity="0.6">
<path d="M182.744 301.811C182.466 301.845 182.21 301.981 182.024 302.195C181.838 302.408 181.736 302.683 181.736 302.968C181.757 303.252 181.886 303.518 182.094 303.709C182.302 303.9 182.575 304.002 182.855 303.994C183.15 303.96 183.421 303.815 183.617 303.589C183.813 303.362 183.919 303.07 183.915 302.768C183.863 302.473 183.7 302.21 183.461 302.034C183.221 301.859 182.925 301.785 182.633 301.828" fill="white"/>
</g>
<g opacity="0.6">
<path d="M176.505 310.189L176.984 307.944L203.094 313.643C203.094 313.643 204.213 314.417 203.948 315.261L176.505 310.189Z" fill="white"/>
</g>
<path d="M191.479 304.56C191.479 304.691 190.769 304.63 190.034 304.952C189.299 305.273 188.838 305.769 188.727 305.691C188.616 305.613 188.958 304.865 189.855 304.499C190.752 304.134 191.539 304.412 191.479 304.56Z" fill="#263238"/>
<path d="M194.103 306.3C194.103 306.439 193.487 306.561 192.932 307.057C192.376 307.553 192.137 308.136 192 308.101C191.863 308.066 191.923 307.283 192.624 306.683C193.325 306.083 194.154 306.143 194.103 306.3Z" fill="#263238"/>
<path d="M195.145 310.076C195.017 310.076 194.957 309.371 195.427 308.684C195.897 307.997 196.59 307.814 196.624 307.944C196.658 308.075 196.205 308.397 195.821 308.962C195.436 309.528 195.282 310.093 195.145 310.076Z" fill="#263238"/>
<path d="M191.821 301.193C191.744 301.315 191.163 301.01 190.402 300.923C189.641 300.836 189 300.967 188.949 300.836C188.898 300.706 189.556 300.323 190.453 300.445C191.351 300.567 191.906 301.08 191.821 301.193Z" fill="#263238"/>
<g opacity="0.3">
<path d="M193.47 293.137L192.923 295.686L179.471 293.067L179.864 290.753L193.47 293.137Z" fill="black"/>
</g>
<path d="M192.393 298.305C191.92 298.343 191.445 298.253 191.017 298.044C190.538 297.862 190.082 297.622 189.658 297.33C189.418 297.146 189.189 296.945 188.975 296.73C188.835 296.614 188.713 296.476 188.616 296.321C188.547 296.208 188.517 296.076 188.53 295.944C188.542 295.812 188.596 295.688 188.684 295.59C188.769 295.507 188.872 295.445 188.985 295.409C189.098 295.373 189.217 295.363 189.334 295.382C189.506 295.414 189.673 295.473 189.829 295.556C190.11 295.682 190.379 295.833 190.633 296.008C191.058 296.304 191.433 296.668 191.744 297.087C192.274 297.809 192.402 298.357 192.351 298.374C192.299 298.392 192.051 297.922 191.496 297.304C191.174 296.948 190.806 296.638 190.402 296.382C190.165 296.231 189.916 296.1 189.658 295.991C189.376 295.851 189.137 295.808 189.034 295.921C188.932 296.034 188.992 295.991 189.034 296.086C189.108 296.198 189.197 296.297 189.299 296.382C189.505 296.58 189.722 296.766 189.949 296.939C190.337 297.234 190.752 297.491 191.188 297.704C191.605 297.872 192.008 298.073 192.393 298.305Z" fill="#263238"/>
<path d="M192.18 298.47C191.992 298.023 191.95 297.525 192.06 297.052C192.127 296.53 192.283 296.023 192.522 295.555C192.661 295.277 192.831 295.014 193.026 294.772C193.131 294.6 193.278 294.458 193.454 294.362C193.629 294.266 193.827 294.218 194.026 294.224C194.148 294.249 194.26 294.309 194.349 294.397C194.439 294.485 194.501 294.597 194.53 294.72C194.566 294.898 194.583 295.079 194.581 295.26C194.571 295.58 194.513 295.896 194.41 296.199C194.238 296.711 193.945 297.171 193.556 297.539C192.889 298.165 192.308 298.218 192.299 298.174C192.291 298.131 192.786 297.922 193.316 297.304C193.624 296.946 193.851 296.525 193.983 296.069C194.063 295.804 194.103 295.528 194.103 295.251C194.103 294.946 194.051 294.694 193.932 294.703C193.812 294.712 193.53 294.851 193.368 295.068C193.192 295.286 193.035 295.519 192.898 295.764C192.659 296.184 192.486 296.639 192.385 297.113C192.205 297.922 192.257 298.47 192.18 298.47Z" fill="#263238"/>
<path d="M160.044 199.473L204.145 208.564C206.227 208.997 208.194 209.877 209.914 211.146C211.635 212.415 213.069 214.043 214.121 215.922C215.173 217.801 215.818 219.887 216.014 222.041C216.21 224.194 215.951 226.365 215.256 228.409L197.974 293.92L175.838 291.815L189.223 230.14L142.216 218.83L160.044 199.473Z" fill="#263238"/>
<path d="M126.208 209.73C124.727 211.934 123.768 214.457 123.406 217.102C123.044 219.746 123.29 222.44 124.123 224.972C124.182 225.15 124.25 225.324 124.328 225.494C124.806 226.478 139.028 236.091 139.028 236.091L151.429 301.95L171.437 296.73L166.557 236.796C165.935 229.151 162.821 221.936 157.711 216.299L151.369 209.304L128.131 206.885L126.208 209.73Z" fill="#263238"/>
<path d="M195.598 217.012C195.194 217.722 194.749 218.408 194.265 219.065C193.198 220.707 192.25 222.425 191.428 224.207C190.457 226.36 189.665 228.592 189.06 230.88L188.889 231.506V230.862C188.845 230.44 188.845 230.014 188.889 229.592C189.002 230.001 189.071 230.421 189.094 230.845H188.889C189.363 228.502 190.106 226.225 191.103 224.059C191.929 222.256 192.922 220.537 194.069 218.926C194.513 218.308 194.923 217.83 195.171 217.508C195.419 217.186 195.581 216.994 195.598 217.012Z" fill="#455A64"/>
<path d="M190.034 218.108C189.925 218.775 189.776 219.434 189.59 220.083C189.228 221.659 188.991 223.262 188.881 224.877C188.787 226.498 188.818 228.124 188.975 229.74C189.074 230.408 189.131 231.083 189.146 231.758C188.916 231.119 188.767 230.452 188.701 229.775C188.478 228.147 188.418 226.5 188.522 224.859C188.641 223.218 188.927 221.594 189.376 220.013C189.513 219.352 189.734 218.711 190.034 218.108Z" fill="#455A64"/>
<path d="M167.882 253.117C167.842 252.972 167.819 252.823 167.813 252.673C167.813 252.334 167.736 251.916 167.685 251.394C167.582 250.237 167.437 248.654 167.266 246.714C166.884 241.565 166.188 236.445 165.181 231.384C164.598 228.616 163.634 225.944 162.318 223.45C161.175 221.444 159.857 219.549 158.378 217.786C157.147 216.255 156.113 215.037 155.42 214.184L154.626 213.193C154.446 212.958 154.352 212.836 154.369 212.827C154.485 212.92 154.591 213.025 154.685 213.14L155.54 214.08C156.267 214.907 157.335 216.09 158.6 217.612C160.119 219.362 161.47 221.255 162.634 223.267C163.988 225.785 164.975 228.49 165.565 231.297C166.583 236.376 167.245 241.522 167.548 246.696C167.711 248.671 167.779 250.281 167.839 251.386C167.839 251.908 167.881 252.334 167.899 252.665C167.913 252.815 167.907 252.968 167.882 253.117Z" fill="#455A64"/>
<path d="M151.429 301.95C151.4 301.887 151.379 301.819 151.369 301.75C151.369 301.602 151.292 301.411 151.233 301.167L150.771 298.914L149.164 290.588C147.831 283.532 146.011 273.832 144.036 263.113C142.062 252.395 140.242 242.677 138.908 235.621C138.25 232.141 137.72 229.288 137.353 227.287C137.165 226.33 137.019 225.547 136.917 225.025C136.814 224.503 136.746 224.242 136.746 224.242C137.083 225.224 137.334 226.234 137.498 227.261C137.917 229.218 138.49 232.054 139.207 235.569C140.583 242.59 142.43 252.299 144.421 263.044C146.412 273.788 148.173 283.48 149.472 290.544C150.096 294.024 150.609 296.878 150.968 298.879L151.352 301.158C151.352 301.393 151.421 301.593 151.446 301.75C151.446 301.817 151.441 301.884 151.429 301.95Z" fill="#455A64"/>
<path d="M170.898 164.299C170.898 165.082 175.779 200.064 179.753 202.483C183.727 204.902 212.905 201.326 212.905 201.326L210.897 188.137L188.522 187.345L185.847 157.982C185.672 156.083 185.059 154.252 184.056 152.64C183.054 151.028 181.69 149.681 180.078 148.708L170.898 164.299Z" fill="#381E3E"/>
<path d="M130.857 134.197C137.081 132.712 143.493 132.216 149.865 132.726C153.609 137.598 161.121 140.487 166.104 137.076L181.146 149.509L166.617 189.294L167.523 201.03L152.01 210.035L128.08 206.894L126.02 153.763L130.857 134.197Z" fill="#381E3E"/>
<path d="M148.31 134.197C148.31 134.031 148.361 133.875 148.395 133.718C148.378 133.518 148.343 133.32 148.293 133.127L148.31 134.197Z" fill="#381E3E"/>
<path d="M176.026 160.14C176.129 160.14 174.838 164.864 173.146 170.58C171.454 176.296 170.001 181.02 169.899 180.95C169.796 180.881 171.087 176.226 172.779 170.467C174.471 164.708 175.924 160.14 176.026 160.14Z" fill="#263238"/>
<path d="M183.069 195.349C182.878 194.857 182.807 194.326 182.864 193.8C182.901 192.51 183.3 191.258 184.015 190.193C184.73 189.127 185.731 188.293 186.898 187.789C187.363 187.553 187.874 187.425 188.394 187.415C188.394 187.484 187.838 187.615 187.009 188.041C185.933 188.587 185.012 189.405 184.334 190.416C183.656 191.427 183.244 192.598 183.137 193.818C183.043 194.749 183.137 195.34 183.069 195.349Z" fill="#263238"/>
<g opacity="0.2">
<path d="M180.539 203.449C182.279 203.078 183.912 202.302 185.309 201.182C186.705 200.062 187.828 198.629 188.59 196.993C188.887 196.143 189.32 195.35 189.872 194.644C190.781 193.863 191.902 193.381 193.086 193.261L208.341 190.129C208.299 189.416 208.256 188.754 208.205 188.041L193.735 187.58L182.838 191.93L180.539 202.77" fill="black"/>
</g>
<g opacity="0.3">
<path d="M126.208 157.695L130.934 154.964L126.644 168.979L126.208 157.695Z" fill="black"/>
</g>
<path d="M217.179 173.877C216.939 172.52 218.264 171.346 219.589 171.058C220.914 170.771 222.29 171.058 223.64 170.928C227.383 170.58 230.323 167.239 234.05 166.708C235.625 166.531 237.217 166.841 238.617 167.598C240.016 168.356 241.159 169.525 241.896 170.954C242.59 172.406 242.877 174.024 242.726 175.631C242.576 177.238 241.993 178.771 241.041 180.063C240.055 181.327 238.776 182.321 237.318 182.954C235.86 183.588 234.269 183.841 232.691 183.691C231.178 183.543 229.623 183.056 228.178 183.508C227.323 183.867 226.505 184.31 225.734 184.831C224.735 185.421 223.57 185.651 222.426 185.483C221.861 185.387 221.332 185.139 220.893 184.764C220.454 184.389 220.122 183.902 219.931 183.352" fill="#263238"/>
<path d="M138.481 173.338C132.789 170.589 127.781 169.397 121.49 169.858C119.258 170.027 117.043 170.379 114.867 170.911C104.397 173.521 92.9956 184.074 94.7989 198.037C95.9869 207.207 103.833 224.668 121.131 225.938C126.044 226.252 130.949 225.219 135.336 222.945C138.47 221.344 141.515 219.567 144.455 217.621C147.419 215.681 150.9 214.721 154.421 214.872C159.625 215.098 167.129 214.054 172.642 211.078C182.898 205.58 184.607 197.768 182.454 189.137C180.744 182.229 178.967 173.477 169.334 169.223C164.078 166.891 156.942 166.682 147.968 172.651C146.543 173.494 144.947 173.995 143.303 174.114C141.658 174.233 140.009 173.968 138.481 173.338Z" fill="#263238"/>
<path d="M135.755 176.783C133.447 176.534 131.206 175.846 129.148 174.756C123.793 171.978 117.654 171.191 111.79 172.529C101.32 175.087 92.3375 186.17 94.1152 199.882C95.2519 208.73 99.0809 224.738 115.73 226.469C120.94 226.962 126.182 225.955 130.857 223.563C134.055 221.95 137.162 220.158 140.165 218.195C142.999 216.35 146.324 215.438 149.686 215.585C154.882 215.82 162.959 215.481 168.155 211.835C176.351 206.093 179.129 198.785 176.616 190.651C174.556 183.961 173.428 175.174 164.933 170.702C159.865 168.031 152.686 169.275 143.686 175.156C141.293 176.58 138.502 177.152 135.755 176.783Z" fill="#455A64"/>
<path d="M151.82 197.321C151.905 191.474 147.317 186.665 141.573 186.579C135.829 186.493 131.104 191.163 131.02 197.01C130.936 202.857 135.524 207.667 141.268 207.752C147.012 207.838 151.736 203.168 151.82 197.321Z" fill="#263238"/>
<path d="M130.567 194.775L229.358 171.52C229.984 171.372 230.633 171.352 231.267 171.46C231.901 171.569 232.508 171.805 233.052 172.153C233.596 172.502 234.067 172.957 234.438 173.491C234.809 174.026 235.072 174.631 235.212 175.269C235.493 176.551 235.262 177.893 234.572 179.003C233.881 180.112 232.787 180.897 231.529 181.185L133.028 203.805C130.857 200.917 129.892 197.933 130.567 194.775Z" fill="#455A64"/>
<path d="M138.763 207.19C138.509 207.187 138.258 207.14 138.019 207.05C137.355 206.866 136.715 206.601 136.114 206.259C134.08 205.142 132.502 203.326 131.66 201.136C130.818 198.945 130.767 196.522 131.515 194.296C131.725 193.629 132.012 192.989 132.37 192.391C132.489 192.165 132.641 191.959 132.823 191.782C132.408 192.625 132.054 193.497 131.763 194.392C131.104 196.561 131.188 198.893 132 201.007C132.812 203.122 134.304 204.893 136.233 206.033C137.048 206.48 137.893 206.867 138.763 207.19Z" fill="#263238"/>
<path d="M236.272 179.898C236.272 180.011 213.333 185.379 184.992 191.886C156.651 198.394 133.652 203.64 133.635 203.492C133.618 203.344 156.566 198.02 184.915 191.504C213.264 184.987 236.246 179.793 236.272 179.898Z" fill="#263238"/>
<path d="M191.727 180.046C191.727 180.159 178.274 183.439 161.642 187.38C145.011 191.321 131.498 194.444 131.473 194.34C131.447 194.235 144.917 190.955 161.557 187.006C178.197 183.056 191.701 179.941 191.727 180.046Z" fill="#263238"/>
<path d="M151.463 199.081C150.895 197.672 150.443 196.217 150.113 194.731C149.664 193.274 149.338 191.781 149.139 190.268C149.71 191.676 150.162 193.131 150.489 194.618C150.943 196.074 151.269 197.567 151.463 199.081Z" fill="#263238"/>
<path d="M144.532 200.786C143.966 199.376 143.515 197.921 143.182 196.436C142.733 194.98 142.407 193.487 142.207 191.973C143.229 194.838 144.007 197.786 144.532 200.786Z" fill="#263238"/>
<path d="M137.515 202.483C136.489 199.614 135.711 196.659 135.191 193.652C136.213 196.522 136.991 199.477 137.515 202.483Z" fill="#263238"/>
<path d="M158.343 197.663C157.772 196.255 157.32 194.8 156.993 193.313C156.545 191.856 156.219 190.363 156.019 188.85C156.592 190.257 157.044 191.713 157.369 193.2C157.818 194.657 158.144 196.15 158.343 197.663Z" fill="#263238"/>
<path d="M165.223 196.245C164.201 193.375 163.423 190.421 162.899 187.415C163.925 190.284 164.702 193.238 165.223 196.245Z" fill="#263238"/>
<path d="M172.069 194.514C171.493 193.107 171.041 191.652 170.719 190.164C170.264 188.705 169.936 187.209 169.736 185.692C170.307 187.1 170.758 188.556 171.086 190.042C171.536 191.502 171.865 192.998 172.069 194.514Z" fill="#263238"/>
<path d="M178.915 192.826C178.337 191.42 177.885 189.964 177.565 188.476C177.111 187.02 176.782 185.527 176.582 184.013C177.154 185.421 177.606 186.876 177.932 188.363C178.382 189.82 178.71 191.313 178.915 192.826Z" fill="#263238"/>
<path d="M185.761 191.173C185.191 189.764 184.739 188.309 184.411 186.823C183.962 185.366 183.636 183.873 183.436 182.36C184.004 183.769 184.455 185.224 184.787 186.71C185.236 188.167 185.562 189.66 185.761 191.173Z" fill="#263238"/>
<path d="M193.145 189.442C192.575 188.033 192.123 186.578 191.795 185.092C191.346 183.634 191.017 182.142 190.812 180.629C191.388 182.035 191.84 183.491 192.163 184.979C192.617 186.434 192.946 187.928 193.145 189.442Z" fill="#263238"/>
<path d="M200.53 187.71C199.955 186.304 199.503 184.848 199.179 183.36C198.725 181.904 198.396 180.411 198.197 178.897C198.768 180.305 199.22 181.761 199.547 183.247C199.996 184.704 200.325 186.197 200.53 187.71Z" fill="#263238"/>
<path d="M207.906 185.979C207.34 184.569 206.888 183.114 206.555 181.629C206.106 180.172 205.78 178.679 205.581 177.166C206.153 178.574 206.604 180.029 206.931 181.516C207.38 182.973 207.706 184.466 207.906 185.979Z" fill="#263238"/>
<path d="M215.29 184.248C214.719 182.839 214.268 181.384 213.939 179.898C213.49 178.441 213.164 176.948 212.965 175.435C213.537 176.843 213.989 178.298 214.316 179.785C214.765 181.241 215.091 182.734 215.29 184.248Z" fill="#263238"/>
<path d="M222.674 182.516C222.104 181.108 221.652 179.653 221.324 178.166C220.875 176.71 220.549 175.217 220.349 173.703C220.921 175.111 221.373 176.567 221.7 178.053C222.15 179.51 222.476 181.003 222.674 182.516Z" fill="#263238"/>
<path d="M230.059 180.785C229.488 179.377 229.036 177.921 228.708 176.435C228.254 174.98 227.928 173.486 227.734 171.972C228.301 173.382 228.753 174.837 229.084 176.322C229.534 177.779 229.86 179.272 230.059 180.785Z" fill="#263238"/>
<path d="M223.238 168.944C223.265 169.144 223.234 169.348 223.147 169.529C223.06 169.71 222.923 169.861 222.752 169.963C222.58 170.065 222.384 170.112 222.186 170.1C221.988 170.087 221.798 170.015 221.641 169.893C221.484 169.771 221.365 169.603 221.301 169.412C221.237 169.222 221.231 169.016 221.282 168.821C221.333 168.626 221.44 168.451 221.589 168.318C221.738 168.185 221.922 168.1 222.119 168.074C222.38 168.04 222.645 168.112 222.854 168.275C223.064 168.438 223.202 168.678 223.238 168.944Z" fill="#263238"/>
<path d="M226.375 167.831C226.402 168.031 226.37 168.234 226.284 168.415C226.197 168.597 226.059 168.748 225.888 168.849C225.717 168.951 225.52 168.999 225.322 168.986C225.125 168.974 224.935 168.902 224.778 168.779C224.62 168.657 224.502 168.49 224.438 168.299C224.374 168.108 224.367 167.902 224.418 167.707C224.47 167.512 224.576 167.337 224.725 167.205C224.874 167.072 225.059 166.987 225.255 166.961C225.517 166.926 225.781 166.998 225.991 167.161C226.201 167.324 226.339 167.565 226.375 167.831Z" fill="#263238"/>
<path d="M229.819 166.622C229.846 166.821 229.815 167.025 229.728 167.206C229.641 167.387 229.504 167.539 229.333 167.64C229.161 167.742 228.964 167.789 228.767 167.777C228.569 167.764 228.379 167.692 228.222 167.57C228.064 167.448 227.946 167.28 227.882 167.09C227.818 166.899 227.811 166.693 227.863 166.498C227.914 166.303 228.021 166.128 228.17 165.995C228.319 165.862 228.503 165.778 228.7 165.752C228.961 165.717 229.226 165.789 229.435 165.952C229.645 166.115 229.783 166.355 229.819 166.622Z" fill="#263238"/>
<path d="M223.161 171.868C223.059 171.868 222.777 171.302 222.52 170.528C222.264 169.754 222.144 169.101 222.247 169.066C222.349 169.031 222.631 169.632 222.888 170.406C223.144 171.18 223.264 171.833 223.161 171.868Z" fill="#263238"/>
<path d="M226.443 171.119C226.341 171.119 226.05 170.563 225.802 169.788C225.554 169.014 225.418 168.362 225.52 168.327C225.623 168.292 225.913 168.892 226.17 169.658C226.426 170.423 226.58 171.085 226.443 171.119Z" fill="#263238"/>
<path d="M229.836 169.788C229.734 169.788 229.452 169.223 229.195 168.449C228.939 167.674 228.819 167.022 228.922 166.987C229.024 166.952 229.306 167.552 229.563 168.327C229.819 169.101 229.939 169.754 229.836 169.788Z" fill="#263238"/>
<path d="M232.46 185.37C232.491 185.114 232.616 184.88 232.81 184.713C233.003 184.547 233.251 184.461 233.504 184.472C233.757 184.483 233.996 184.59 234.175 184.773C234.354 184.955 234.459 185.199 234.469 185.457C234.437 185.713 234.312 185.947 234.119 186.114C233.926 186.28 233.678 186.366 233.425 186.356C233.172 186.345 232.932 186.237 232.754 186.055C232.575 185.872 232.47 185.628 232.46 185.37Z" fill="#263238"/>
<path d="M229.187 185.953C229.218 185.697 229.341 185.463 229.534 185.296C229.727 185.129 229.974 185.042 230.226 185.052C230.479 185.062 230.719 185.168 230.898 185.349C231.078 185.531 231.184 185.774 231.195 186.031C231.202 186.173 231.179 186.315 231.129 186.447C231.078 186.58 231.002 186.7 230.903 186.801C230.805 186.902 230.687 186.981 230.557 187.033C230.428 187.085 230.289 187.109 230.149 187.104C230.01 187.098 229.873 187.064 229.747 187.001C229.622 186.939 229.51 186.852 229.42 186.743C229.329 186.635 229.262 186.509 229.222 186.373C229.182 186.237 229.17 186.094 229.187 185.953Z" fill="#263238"/>
<path d="M225.597 186.571C225.606 186.371 225.672 186.178 225.787 186.016C225.903 185.854 226.063 185.73 226.247 185.66C226.431 185.591 226.632 185.578 226.823 185.623C227.015 185.668 227.189 185.77 227.324 185.916C227.459 186.062 227.548 186.245 227.582 186.442C227.615 186.639 227.59 186.842 227.511 187.025C227.432 187.208 227.301 187.364 227.135 187.471C226.97 187.579 226.777 187.635 226.58 187.632C226.446 187.63 226.315 187.6 226.193 187.546C226.07 187.491 225.96 187.411 225.869 187.312C225.777 187.214 225.706 187.097 225.659 186.97C225.612 186.842 225.591 186.706 225.597 186.571Z" fill="#263238"/>
<path d="M233.007 182.508C233.11 182.508 233.298 183.125 233.426 183.934C233.554 184.744 233.571 185.405 233.426 185.422C233.281 185.44 233.135 184.796 233.007 183.995C232.886 183.507 232.886 182.996 233.007 182.508Z" fill="#263238"/>
<path d="M229.657 182.69C229.759 182.69 229.947 183.317 230.076 184.117C230.204 184.918 230.212 185.588 230.076 185.605C229.939 185.622 229.785 184.987 229.657 184.178C229.529 183.369 229.546 182.708 229.657 182.69Z" fill="#263238"/>
<path d="M226.084 183.447C226.195 183.447 226.383 184.065 226.503 184.874C226.623 185.683 226.648 186.344 226.503 186.353C226.358 186.362 226.204 185.735 226.084 184.935C225.965 184.135 225.982 183.465 226.084 183.447Z" fill="#263238"/>
<path d="M139.797 176.67C139.797 176.67 139.686 176.835 139.464 177.14L138.489 178.41C137.635 179.576 136.37 181.211 134.849 183.221C133.121 185.663 131.157 187.921 128.986 189.964C126.205 192.352 122.986 194.153 119.516 195.262C115.849 196.515 112.157 196.854 108.892 197.428C107.341 197.683 105.81 198.053 104.311 198.533C103.011 198.96 101.766 199.544 100.602 200.273C98.9024 201.318 97.4909 202.785 96.4997 204.536C96.2437 205.021 96.0292 205.528 95.8587 206.05C95.7562 206.407 95.6878 206.589 95.6878 206.589C95.6878 206.589 95.6878 206.398 95.816 206.033C95.9721 205.503 96.1723 204.988 96.4143 204.493C97.3928 202.709 98.8055 201.211 100.517 200.143C101.684 199.39 102.938 198.788 104.252 198.35C105.756 197.853 107.296 197.474 108.858 197.219C112.14 196.628 115.807 196.289 119.448 195.036C122.889 193.943 126.084 192.169 128.849 189.816C131.022 187.792 132.991 185.554 134.729 183.134L138.421 178.367C138.848 177.836 139.182 177.41 139.438 177.079C139.695 176.748 139.797 176.67 139.797 176.67Z" fill="#CEAB5E"/>
<path d="M131.618 175.913C131.618 175.913 131.481 175.991 131.216 176.113C130.83 176.292 130.453 176.493 130.088 176.713C128.753 177.549 127.546 178.581 126.507 179.776C125.148 181.255 123.806 183.256 122.234 185.361C121.394 186.479 120.471 187.529 119.473 188.502C118.378 189.528 117.157 190.405 115.841 191.112C113.286 192.452 110.516 193.312 107.662 193.652C105.342 193.929 103.003 194.008 100.67 193.887C98.6791 193.792 97.0723 193.644 95.9698 193.539L94.6964 193.409C94.4058 193.409 94.252 193.339 94.252 193.339H94.6964L95.9784 193.426C97.0809 193.504 98.6877 193.635 100.679 193.705C103.002 193.801 105.329 193.705 107.636 193.417C110.46 193.07 113.201 192.213 115.73 190.886C117.032 190.178 118.239 189.301 119.319 188.276C120.313 187.316 121.231 186.278 122.063 185.17C123.678 183.064 125.037 181.081 126.422 179.611C127.464 178.453 128.671 177.462 130.003 176.67C130.514 176.362 131.055 176.108 131.618 175.913Z" fill="#CEAB5E"/>
<path d="M111.328 180.75C110.834 181.168 110.277 181.503 109.679 181.742C108.055 182.428 106.258 182.569 104.551 182.142C103.965 182.038 103.415 181.783 102.952 181.403C102.822 181.289 102.73 181.135 102.692 180.965C102.654 180.794 102.67 180.615 102.739 180.455C102.909 180.162 103.15 179.919 103.44 179.75C105.839 178 108.747 177.12 111.696 177.253C112.513 177.287 113.322 177.424 114.106 177.662C114.924 177.909 115.664 178.371 116.251 179.002C116.842 179.649 117.169 180.501 117.166 181.385C117.149 181.813 117.04 182.232 116.846 182.613C116.653 182.993 116.38 183.326 116.046 183.587C114.766 184.482 113.306 185.077 111.773 185.327C109.255 185.94 106.669 186.215 104.081 186.144C102.341 186.083 100.617 185.791 98.9526 185.274C98.3403 185.087 97.7431 184.851 97.1664 184.57L97.6279 184.726C97.9356 184.848 98.3886 185.005 98.9783 185.187C100.649 185.664 102.372 185.927 104.106 185.97C106.682 186.013 109.253 185.72 111.756 185.1C113.246 184.863 114.667 184.296 115.918 183.439C116.225 183.198 116.477 182.892 116.656 182.542C116.835 182.192 116.936 181.806 116.952 181.412C116.952 180.586 116.647 179.791 116.097 179.184C115.534 178.586 114.827 178.149 114.046 177.914C113.286 177.678 112.499 177.543 111.704 177.514C110.193 177.439 108.68 177.633 107.234 178.088C105.926 178.5 104.691 179.123 103.576 179.933C103.311 180.085 103.086 180.3 102.918 180.559C102.866 180.687 102.856 180.828 102.888 180.963C102.92 181.097 102.994 181.218 103.098 181.307C103.541 181.659 104.059 181.901 104.611 182.012C106.295 182.45 108.072 182.334 109.687 181.681C110.126 181.503 110.549 181.287 110.952 181.037C111.072 180.935 111.198 180.839 111.328 180.75Z" fill="#CEAB5E"/>
<path d="M177.394 198.316H176.539C175.724 198.344 174.912 198.44 174.112 198.603C172.845 198.853 171.606 199.229 170.411 199.725C168.829 200.384 167.3 201.169 165.839 202.074C164.206 203.057 162.497 204.266 160.634 205.554C158.678 206.946 156.634 208.204 154.515 209.321C152.146 210.535 149.585 211.313 146.951 211.618C144.124 211.908 141.273 211.837 138.464 211.409C132.686 210.591 127.353 208.912 122.405 208.129C120.062 207.72 117.687 207.534 115.311 207.572C113.239 207.617 111.182 207.936 109.192 208.521C106.293 209.338 103.646 210.892 101.5 213.036C100.937 213.637 100.423 214.283 99.9611 214.967C99.6535 215.446 99.4825 215.69 99.4825 215.69C99.4825 215.69 99.6278 215.428 99.9184 214.941C100.365 214.242 100.871 213.584 101.431 212.975C103.563 210.791 106.212 209.203 109.123 208.364C111.123 207.76 113.192 207.426 115.277 207.372C117.667 207.33 120.056 207.513 122.413 207.92C127.404 208.686 132.721 210.365 138.472 211.174C141.259 211.603 144.087 211.673 146.891 211.383C149.504 211.088 152.045 210.322 154.395 209.121C156.509 208.013 158.55 206.766 160.506 205.389C162.36 204.127 164.087 202.918 165.736 201.909C167.206 201.003 168.747 200.223 170.343 199.577C171.547 199.088 172.795 198.72 174.069 198.481C174.876 198.332 175.694 198.251 176.514 198.237L177.394 198.316Z" fill="#CEAB5E"/>
<path d="M110.285 221.832C110.413 221.818 110.542 221.818 110.67 221.832L111.781 221.901L115.849 222.206L118.661 222.423C119.727 222.552 120.801 222.604 121.875 222.58C122.444 222.551 123.002 222.406 123.516 222.154C123.775 222.023 124.005 221.838 124.19 221.612C124.375 221.386 124.512 221.123 124.593 220.84C124.698 220.218 124.606 219.578 124.331 219.012C124.056 218.446 123.612 217.983 123.063 217.691C121.933 217.112 120.701 216.772 119.439 216.69C118.259 216.557 117.07 216.513 115.884 216.56C113.873 216.644 111.882 216.995 109.961 217.603C108.661 218.006 107.399 218.527 106.192 219.161C105.756 219.37 105.44 219.561 105.217 219.692C105.107 219.762 104.989 219.82 104.867 219.866C104.971 219.787 105.08 219.715 105.192 219.648C105.405 219.509 105.722 219.3 106.149 219.074C107.349 218.409 108.608 217.861 109.909 217.438C111.847 216.803 113.859 216.434 115.892 216.342C117.09 216.284 118.29 216.325 119.482 216.464C120.777 216.545 122.042 216.894 123.2 217.49C123.794 217.806 124.274 218.308 124.566 218.922C124.859 219.536 124.949 220.23 124.823 220.901C124.736 221.214 124.585 221.505 124.381 221.755C124.176 222.006 123.922 222.209 123.635 222.354C123.101 222.616 122.519 222.764 121.926 222.789C120.841 222.811 119.756 222.756 118.678 222.623L115.875 222.371L111.807 221.988L110.704 221.875L110.285 221.832Z" fill="#CEAB5E"/>
<path d="M174.445 204.823C174.399 204.896 174.344 204.963 174.283 205.023L173.796 205.58C173.582 205.824 173.317 206.111 172.984 206.45C172.651 206.789 172.3 207.146 171.856 207.52C170.855 208.419 169.792 209.245 168.676 209.991C167.314 210.905 165.885 211.714 164.403 212.41C162.908 213.091 161.365 213.658 159.788 214.106C158.5 214.463 157.189 214.731 155.865 214.907C155.301 215.002 154.788 215.028 154.335 215.063C153.882 215.098 153.48 215.124 153.181 215.133H152.446C152.361 215.146 152.275 215.146 152.19 215.133H152.446L153.173 215.081C153.489 215.081 153.882 215.037 154.327 214.976C154.771 214.915 155.284 214.889 155.848 214.785C157.16 214.574 158.459 214.284 159.737 213.915C161.296 213.453 162.823 212.886 164.309 212.218C165.785 211.523 167.213 210.727 168.582 209.834C169.697 209.094 170.764 208.284 171.779 207.407C172.223 207.05 172.582 206.685 172.924 206.372C173.266 206.059 173.531 205.789 173.779 205.563L174.3 205.041C174.445 204.875 174.445 204.814 174.445 204.823Z" fill="#CEAB5E"/>
<path d="M172.796 179.863C172.796 179.863 172.702 179.985 172.505 180.194C172.219 180.507 171.911 180.797 171.582 181.064C170.37 182.036 168.998 182.784 167.531 183.273C165.358 183.987 163.088 184.351 160.805 184.352C158.021 184.302 155.242 184.096 152.48 183.734C149.731 183.373 146.952 183.312 144.19 183.552C141.937 183.796 139.752 184.481 137.755 185.57C136.413 186.313 135.228 187.319 134.267 188.528C133.601 189.398 133.353 189.955 133.319 189.938L133.524 189.537C133.724 189.165 133.95 188.808 134.199 188.467C135.145 187.226 136.329 186.194 137.678 185.431C139.683 184.304 141.888 183.592 144.165 183.334C146.943 183.079 149.74 183.135 152.506 183.5C155.259 183.861 158.029 184.073 160.805 184.135C163.068 184.142 165.319 183.799 167.48 183.117C168.936 182.648 170.303 181.931 171.522 180.994C172.386 180.307 172.779 179.837 172.796 179.863Z" fill="#CEAB5E"/>
<path d="M158.292 174.121C158.327 174.231 158.37 174.339 158.42 174.443C158.51 174.577 158.626 174.691 158.761 174.777C158.897 174.862 159.049 174.917 159.207 174.939C159.451 174.995 159.707 174.973 159.938 174.875C160.169 174.776 160.365 174.607 160.497 174.391C160.652 174.09 160.727 173.754 160.715 173.416C160.703 173.077 160.604 172.747 160.429 172.459C159.967 171.769 159.289 171.257 158.506 171.006C157.634 170.631 156.69 170.461 155.745 170.51C155.246 170.555 154.768 170.736 154.361 171.032C153.943 171.354 153.619 171.783 153.421 172.277C153.213 172.797 153.133 173.361 153.187 173.92C153.241 174.479 153.426 175.017 153.728 175.487C154.336 176.435 155.239 177.149 156.292 177.514C157.288 177.839 158.336 177.963 159.378 177.879C161.163 177.765 162.907 177.286 164.506 176.47C165.585 175.923 166.591 175.236 167.497 174.425C167.813 174.138 168.052 173.903 168.215 173.747C168.29 173.658 168.373 173.577 168.463 173.503C168.403 173.602 168.332 173.693 168.249 173.773C168.095 173.956 167.864 174.191 167.557 174.495C166.666 175.339 165.665 176.053 164.582 176.618C162.972 177.463 161.21 177.966 159.403 178.097C158.33 178.188 157.25 178.064 156.224 177.731C155.107 177.364 154.148 176.618 153.506 175.617C153.183 175.115 152.986 174.541 152.931 173.943C152.876 173.346 152.965 172.744 153.19 172.19C153.403 171.657 153.754 171.194 154.207 170.85C154.648 170.532 155.164 170.34 155.703 170.293C156.679 170.247 157.652 170.428 158.549 170.824C159.37 171.092 160.075 171.638 160.548 172.372C160.729 172.689 160.825 173.05 160.825 173.416C160.825 173.783 160.729 174.143 160.548 174.46C160.401 174.693 160.186 174.874 159.934 174.977C159.681 175.08 159.403 175.1 159.138 175.034C158.963 175.01 158.794 174.946 158.647 174.847C158.499 174.747 158.374 174.615 158.284 174.46C158.257 174.348 158.26 174.231 158.292 174.121Z" fill="#CEAB5E"/>
<path d="M131.917 202.613H131.541L130.464 202.526C129.994 202.526 129.421 202.439 128.755 202.422C128.088 202.405 127.336 202.344 126.499 202.352C124.789 202.352 122.832 202.396 120.627 202.579C115.84 203.011 111.124 204.043 106.585 205.65C104.491 206.407 102.645 207.172 101.132 207.903C100.363 208.242 99.6962 208.608 99.0979 208.912C98.4996 209.217 98.0039 209.486 97.5937 209.721L96.645 210.243C96.5383 210.313 96.4235 210.368 96.3032 210.409C96.3032 210.409 96.4057 210.33 96.6194 210.2L97.551 209.643C97.9527 209.391 98.4484 209.104 99.0381 208.773C99.6278 208.442 100.294 208.086 101.064 207.729C102.838 206.868 104.655 206.101 106.508 205.432C108.785 204.619 111.108 203.948 113.465 203.423C115.823 202.919 118.209 202.558 120.61 202.344C122.568 202.18 124.534 202.122 126.499 202.17C127.353 202.17 128.097 202.239 128.763 202.274C129.43 202.309 130.003 202.361 130.473 202.422L131.541 202.544L131.917 202.613Z" fill="#CEAB5E"/>
<path d="M165.309 197.646C165.147 197.747 164.975 197.832 164.796 197.898C164.463 198.055 163.941 198.255 163.369 198.49C161.775 199.094 160.149 199.606 158.497 200.021C156.847 200.432 155.175 200.746 153.489 200.96C152.839 201.039 152.309 201.091 151.95 201.108C151.76 201.124 151.568 201.124 151.378 201.108C151.562 201.054 151.751 201.019 151.942 201.004L153.463 200.778C154.745 200.578 156.514 200.256 158.446 199.777C160.378 199.299 162.078 198.742 163.309 198.316L164.762 197.802C164.937 197.726 165.121 197.673 165.309 197.646Z" fill="#CEAB5E"/>
<path d="M139.814 148.16C138.957 146.845 138.224 145.449 137.626 143.993C136.894 142.604 136.293 141.147 135.832 139.643C136.692 140.958 137.428 142.353 138.028 143.81C138.755 145.2 139.354 146.657 139.814 148.16Z" fill="#CEAB5E"/>
<path d="M142.19 163.898C141.372 164.64 140.457 165.263 139.472 165.752C138.563 166.379 137.57 166.871 136.524 167.213C138.258 165.854 140.164 164.739 142.19 163.898Z" fill="#CEAB5E"/>
<path d="M153.378 159.862C152.735 158.545 152.231 157.163 151.874 155.738C151.373 154.361 151.015 152.936 150.805 151.484C151.439 152.803 151.94 154.185 152.301 155.607C152.797 156.986 153.157 158.411 153.378 159.862Z" fill="#CEAB5E"/>
<path d="M165.172 148.004C164.031 147.762 162.951 147.282 162.001 146.594C160.969 146.039 160.063 145.268 159.343 144.332C160.337 144.909 161.301 145.536 162.232 146.211C163.242 146.756 164.224 147.354 165.172 148.004Z" fill="#CEAB5E"/>
<path d="M169.967 158.47C169.221 159.095 168.389 159.605 167.497 159.983C166.666 160.49 165.764 160.862 164.822 161.088C166.39 159.957 168.119 159.076 169.95 158.478L169.967 158.47Z" fill="#CEAB5E"/>
<path d="M181.505 158.287C180.822 157.284 180.263 156.2 179.838 155.059C179.28 153.982 178.86 152.836 178.59 151.649C179.268 152.654 179.824 153.737 180.249 154.876C180.801 155.957 181.223 157.102 181.505 158.287Z" fill="#CEAB5E"/>
<path d="M181.77 173.503C181.466 172.61 181.305 171.673 181.291 170.728C181.149 169.794 181.149 168.843 181.291 167.909C181.6 168.801 181.761 169.739 181.77 170.684C181.912 171.618 181.912 172.569 181.77 173.503Z" fill="#CEAB5E"/>
<path d="M193.299 194.644C192.813 195.778 192.262 196.882 191.65 197.95C191.168 199.087 190.626 200.197 190.026 201.274C190.558 198.821 191.683 196.542 193.299 194.644Z" fill="#CEAB5E"/>
<path d="M207.35 197.785C207.239 197.846 206.188 196.045 204.675 193.896C203.162 191.747 201.786 190.181 201.88 190.094C204.242 192.212 206.111 194.84 207.35 197.785Z" fill="#CEAB5E"/>
<path d="M213.025 201.761C212.753 201.154 212.55 200.518 212.418 199.864C212.111 198.664 211.734 197.002 211.427 195.149C211.119 193.296 210.914 191.59 210.82 190.364C210.731 189.701 210.713 189.03 210.769 188.363C210.933 189.007 211.042 189.665 211.093 190.329C211.256 191.547 211.495 193.226 211.803 195.079C212.111 196.932 212.444 198.559 212.657 199.795C212.836 200.438 212.959 201.096 213.025 201.761Z" fill="#263238"/>
<path d="M212.563 178.41C212.563 180.481 213.222 186.083 213.222 186.083L210.88 189.268L212.504 199.986L223.161 188.345C223.895 187.562 224.378 186.57 224.546 185.501C225.119 181.96 226.358 173.895 225.982 173.425C225.383 172.703 224.324 173.651 223.939 175.435C223.734 176.366 222.059 181.646 222.059 181.646C222.059 181.646 221.059 174.286 220.392 173.451C219.341 172.137 218.794 174.373 218.888 175.957C218.999 177.932 219.016 180.307 219.016 181.629C219.019 181.65 219.018 181.671 219.013 181.691C219.008 181.711 218.999 181.73 218.986 181.746C218.974 181.763 218.959 181.777 218.941 181.787C218.923 181.798 218.904 181.805 218.884 181.807C218.843 181.813 218.802 181.802 218.769 181.777C218.736 181.752 218.714 181.714 218.709 181.673C218.025 179.28 216.298 173.721 215.29 174.217C214.281 174.713 214.726 177.07 214.982 178.184C216.033 182.812 215.367 182.847 215.367 182.847L213.675 177.54C213.637 177.414 213.552 177.308 213.439 177.245C213.326 177.181 213.192 177.166 213.068 177.201C212.521 177.392 212.555 177.949 212.563 178.41Z" fill="#FFBE9D"/>
<path d="M218.615 181.264C218.815 181.542 218.957 181.858 219.033 182.195C219.296 182.989 219.395 183.83 219.324 184.665C219.25 185.518 218.891 186.32 218.307 186.936C217.837 187.388 217.452 187.493 217.452 187.449C217.452 187.406 217.76 187.206 218.127 186.745C218.611 186.138 218.908 185.399 218.982 184.622C219.039 183.832 218.982 183.037 218.811 182.264C218.64 181.664 218.555 181.29 218.615 181.264Z" fill="#EB996E"/>
<path d="M221.777 180.481C221.828 180.481 222.008 180.811 222.196 181.412C222.46 182.203 222.562 183.041 222.495 183.874C222.419 184.728 222.057 185.53 221.469 186.144C221.008 186.605 220.614 186.701 220.614 186.658C220.614 186.614 220.922 186.423 221.298 185.953C221.778 185.344 222.075 184.607 222.153 183.83C222.212 183.042 222.152 182.25 221.973 181.481C221.859 181.16 221.793 180.822 221.777 180.481Z" fill="#EB996E"/>
<path d="M118.328 226.443C118.328 226.443 118.123 226.443 117.721 226.443C117.15 226.44 116.58 226.408 116.012 226.347C113.88 226.117 111.793 225.571 109.815 224.729C106.869 223.487 104.179 221.693 101.884 219.439C99.0541 216.691 96.8462 213.348 95.4143 209.643C94.6835 207.727 94.1647 205.734 93.8674 203.701C93.601 201.809 93.5094 199.895 93.5939 197.985C93.7494 194.749 94.3714 191.554 95.4399 188.502C96.1531 186.447 97.0966 184.482 98.2518 182.647C98.5581 182.146 98.889 181.661 99.2432 181.194C99.3621 181.024 99.4905 180.862 99.6278 180.707C99.5346 180.891 99.4289 181.068 99.3116 181.238C99.0894 181.577 98.7475 182.055 98.38 182.725C97.2824 184.58 96.3828 186.549 95.6963 188.598C94.6891 191.631 94.1135 194.795 93.987 197.994C93.9122 199.881 94.0095 201.771 94.2776 203.64C95.1384 209.568 97.914 215.035 102.166 219.178C104.425 221.409 107.063 223.204 109.952 224.477C111.902 225.344 113.962 225.93 116.072 226.217C117.49 226.391 118.328 226.391 118.328 226.443Z" fill="#263238"/>
<path d="M133.421 188.154C133.421 188.154 137.609 190.372 138.763 190.486C139.917 190.599 143.976 190.486 143.976 190.486C143.976 190.486 144.498 191.625 141.985 192.304L139.045 193.061C138.9 193.095 138.766 193.168 138.656 193.271C138.547 193.375 138.466 193.506 138.422 193.651C138.378 193.796 138.372 193.951 138.405 194.099C138.438 194.247 138.508 194.384 138.609 194.496C139.96 196.071 142.344 198.794 142.677 198.846C143.011 198.898 145.241 196.776 145.626 196.332C146.207 195.68 148.062 196.115 146.72 198.185C145.549 200.021 142.994 202.457 142.173 201.717C141.549 201.152 139.105 198.985 139.105 198.985C139.105 198.985 143.096 203.892 143.378 205.423C143.66 206.955 142.019 207.163 141.028 206.076C140.541 205.545 136.267 200.482 136.267 200.482C136.267 200.482 142.019 208.503 139.934 208.651C138.72 208.738 135.054 202.866 135.054 202.866L136.943 207.364C137.069 207.564 137.113 207.808 137.063 208.042C137.014 208.275 136.875 208.478 136.678 208.608C136.48 208.737 136.241 208.781 136.012 208.731C135.782 208.68 135.582 208.539 135.455 208.338C134.618 207.271 133.858 206.143 133.182 204.962C132.524 203.875 126.345 195.514 126.345 195.514L133.421 188.154Z" fill="#FFBE9D"/>
<path d="M100.294 182.421L125.08 196.828L134.755 186.753L110.26 166.97L130.712 155.146L130.644 134.379L100.688 150.788C98.3234 152.08 96.2781 153.902 94.7059 156.115C93.1336 158.329 92.0755 160.877 91.6111 163.568C90.9726 167.238 91.4642 171.02 93.0187 174.395C94.5731 177.77 97.1144 180.573 100.294 182.421Z" fill="#381E3E"/>
<path d="M104.858 162.794C107.079 163.744 109.084 165.151 110.747 166.926C109.724 166.299 108.737 165.613 107.79 164.873C106.775 164.236 105.797 163.542 104.858 162.794Z" fill="#263238"/>
<path d="M108.636 159.27C109.561 160.29 110.245 161.511 110.634 162.841C111.024 164.171 111.109 165.575 110.884 166.943C110.78 165.598 110.572 164.262 110.26 162.95C109.821 161.679 109.278 160.448 108.636 159.27Z" fill="#263238"/>
<path d="M122.618 152.032C122.499 151.971 123.302 150.213 124.054 147.951C124.806 145.689 125.225 143.801 125.353 143.828C125.105 146.747 124.167 149.561 122.618 152.032Z" fill="#CEAB5E"/>
<path d="M117.473 156.399C116.494 155.693 115.604 154.866 114.824 153.937C113.937 153.112 113.156 152.177 112.499 151.153C113.475 151.861 114.362 152.688 115.14 153.615C116.025 154.444 116.809 155.379 117.473 156.399Z" fill="#CEAB5E"/>
<path d="M100.141 164.081C100.353 162.976 100.653 161.891 101.038 160.836C101.281 159.737 101.613 158.661 102.029 157.617C102.048 158.76 101.856 159.895 101.465 160.967C101.215 162.079 100.766 163.134 100.141 164.081Z" fill="#CEAB5E"/>
<path d="M103.457 175.513C102.461 175.139 101.52 174.626 100.662 173.99C99.7241 173.48 98.8611 172.839 98.098 172.085C99.0958 172.455 100.037 172.968 100.893 173.608C101.831 174.118 102.694 174.759 103.457 175.513Z" fill="#CEAB5E"/>
<path d="M113.909 181.533C113.159 179.323 113.18 176.917 113.969 174.721C114.097 174.721 113.815 176.252 113.807 178.123C113.798 179.993 114.038 181.507 113.909 181.533Z" fill="#CEAB5E"/>
<path d="M130.003 191.582C128.489 191.243 127.01 190.763 125.584 190.146C124.106 189.662 122.675 189.038 121.311 188.285C122.826 188.615 124.306 189.095 125.729 189.72C127.211 190.194 128.643 190.818 130.003 191.582Z" fill="#CEAB5E"/>
<path d="M301.227 216.107H32.5707C31.9586 216.107 31.3717 215.86 30.9389 215.419C30.5062 214.979 30.2631 214.381 30.2631 213.758C30.2631 213.135 30.5062 212.538 30.9389 212.097C31.3717 211.657 31.9586 211.409 32.5707 211.409H301.227C301.839 211.409 302.426 211.657 302.858 212.097C303.291 212.538 303.534 213.135 303.534 213.758C303.534 214.381 303.291 214.979 302.858 215.419C302.426 215.86 301.839 216.107 301.227 216.107Z" fill="#263238"/>
<path d="M299.586 330.556C299.586 329.285 299.235 286.76 298.68 216.107L298.842 216.272L35.0406 216.333L35.2629 216.107C35.5193 256.249 35.7671 294.955 35.9979 330.547L35.7842 330.338L299.603 330.556L35.7842 330.764H35.562V330.556C35.3312 294.955 35.0748 256.258 34.8099 216.107V215.881H35.0492L298.851 215.942H299.004V216.107C299.363 286.76 299.577 329.294 299.586 330.556Z" fill="#263238"/>
<path d="M50.1255 330.556C49.9973 330.556 49.8947 304.56 49.8947 272.509C49.8947 240.458 49.9973 214.471 50.1255 214.471C50.2537 214.471 50.3477 240.45 50.3477 272.509C50.3477 304.569 50.2452 330.556 50.1255 330.556Z" fill="#263238"/>
<path d="M65.048 330.556C64.9283 330.556 64.8258 304.56 64.8258 272.509C64.8258 240.458 64.9283 214.471 65.048 214.471C65.1676 214.471 65.2702 240.45 65.2702 272.509C65.2702 304.569 65.2018 330.556 65.048 330.556Z" fill="#263238"/>
<path d="M80.0303 330.556C79.9107 330.556 79.8081 304.56 79.8081 272.509C79.8081 240.458 79.9107 214.471 80.0303 214.471C80.15 214.471 80.2525 240.45 80.2525 272.509C80.2525 304.569 80.1585 330.556 80.0303 330.556Z" fill="#263238"/>
<path d="M94.9613 330.556C94.8417 330.556 94.7391 304.56 94.7391 272.509C94.7391 240.458 94.8417 214.471 94.9613 214.471C95.081 214.471 95.1836 240.45 95.1836 272.509C95.1836 304.569 95.1066 330.556 94.9613 330.556Z" fill="#263238"/>
<path d="M109.944 330.556C109.815 330.556 109.721 304.56 109.721 272.509C109.721 240.458 109.815 214.471 109.944 214.471C110.072 214.471 110.166 240.45 110.166 272.509C110.166 304.569 110.063 330.556 109.944 330.556Z" fill="#263238"/>
<path d="M124.875 330.556C124.746 330.556 124.652 304.56 124.652 272.509C124.652 240.458 124.746 214.471 124.875 214.471C125.003 214.471 125.097 240.45 125.097 272.509C125.097 304.569 125.02 330.556 124.875 330.556Z" fill="#263238"/>
<path d="M139.848 330.556C139.729 330.556 139.626 304.56 139.626 272.509C139.626 240.458 139.729 214.471 139.848 214.471C139.968 214.471 140.071 240.45 140.071 272.509C140.071 304.569 139.977 330.556 139.848 330.556Z" fill="#263238"/>
<path d="M154.788 330.556C154.668 330.556 154.566 304.56 154.566 272.509C154.566 240.458 154.668 214.471 154.788 214.471C154.908 214.471 155.01 240.45 155.01 272.509C155.01 304.569 154.933 330.556 154.788 330.556Z" fill="#263238"/>
<path d="M169.762 330.556C169.642 330.556 169.54 304.56 169.54 272.509C169.54 240.458 169.642 214.471 169.762 214.471C169.881 214.471 169.984 240.45 169.984 272.509C169.984 304.569 169.881 330.556 169.762 330.556Z" fill="#263238"/>
<path d="M184.701 330.556C184.573 330.556 184.479 304.56 184.479 272.509C184.479 240.458 184.573 214.471 184.701 214.471C184.83 214.471 184.924 240.45 184.924 272.509C184.924 304.569 184.838 330.556 184.701 330.556Z" fill="#263238"/>
<path d="M199.675 330.556C199.547 330.556 199.453 304.56 199.453 272.509C199.453 240.458 199.547 214.471 199.675 214.471C199.803 214.471 199.897 240.45 199.897 272.509C199.897 304.569 199.795 330.556 199.675 330.556Z" fill="#263238"/>
<path d="M214.615 330.556C214.495 330.556 214.392 304.56 214.392 272.509C214.392 240.458 214.495 214.471 214.615 214.471C214.734 214.471 214.837 240.45 214.837 272.509C214.837 304.569 214.751 330.556 214.615 330.556Z" fill="#263238"/>
<path d="M229.58 330.556C229.46 330.556 229.358 304.56 229.358 272.509C229.358 240.458 229.46 214.471 229.58 214.471C229.7 214.471 229.802 240.45 229.802 272.509C229.802 304.569 229.708 330.556 229.58 330.556Z" fill="#263238"/>
<path d="M244.528 330.556C244.408 330.556 244.306 304.56 244.306 272.509C244.306 240.458 244.408 214.471 244.528 214.471C244.648 214.471 244.75 240.45 244.75 272.509C244.75 304.569 244.656 330.556 244.528 330.556Z" fill="#263238"/>
<path d="M259.493 330.556C259.365 330.556 259.271 304.56 259.271 272.509C259.271 240.458 259.365 214.471 259.493 214.471C259.621 214.471 259.715 240.45 259.715 272.509C259.715 304.569 259.613 330.556 259.493 330.556Z" fill="#263238"/>
<path d="M274.441 330.556C274.313 330.556 274.219 304.56 274.219 272.509C274.219 240.458 274.313 214.471 274.441 214.471C274.57 214.471 274.664 240.45 274.664 272.509C274.664 304.569 274.57 330.556 274.441 330.556Z" fill="#263238"/>
<path d="M289.398 330.556C289.278 330.556 289.176 304.56 289.176 272.509C289.176 240.458 289.278 214.471 289.398 214.471C289.518 214.471 289.62 240.45 289.62 272.509C289.62 304.569 289.526 330.556 289.398 330.556Z" fill="#263238"/>
<path d="M50.8178 270.23C48.1035 268.493 45.0329 267.415 41.8438 267.08C40.3711 266.793 38.846 267.078 37.5704 267.881C37.3226 268.072 37.0747 268.351 37.1345 268.664C37.2014 268.891 37.3512 269.084 37.5533 269.203C39.4577 270.588 41.6983 271.416 44.032 271.597C46.3657 271.778 48.7036 271.305 50.7921 270.23" fill="#381E3E"/>
<path d="M50.587 269.969C48.5063 268.408 46.567 266.661 44.7924 264.749C43.0096 262.836 41.7564 260.477 41.1601 257.911C41.0413 257.53 41.0051 257.127 41.0538 256.731C41.1025 256.334 41.2349 255.953 41.4421 255.614C46.0658 259.294 49.6982 264.044 50.587 269.943" fill="#381E3E"/>
<path d="M50.7751 270.195C50.3429 267.626 50.3776 264.999 50.8776 262.443C51.3918 259.868 52.8416 257.584 54.9373 256.049C55.7321 257.954 55.3903 260.138 54.8262 262.139C53.9537 265.215 52.5971 268.126 50.8092 270.76" fill="#381E3E"/>
<path d="M55.3048 278.46C52.585 278.901 50.0689 280.197 48.1085 282.166C46.0388 284.074 44.5999 286.587 43.989 289.361C46.6812 289.187 48.9717 287.256 50.6297 285.081C52.2878 282.906 53.4416 280.531 55.262 278.495" fill="#CEAB5E"/>
<path d="M56.2876 279.774C55.2065 276.975 54.8279 273.946 55.1861 270.961C55.5442 267.977 56.6278 265.13 58.3388 262.678C59.1583 265.52 59.3991 268.502 59.0464 271.441C58.6936 274.381 57.7549 277.216 56.2876 279.774Z" fill="#381E3E"/>
<path d="M62.2703 287.029C59.7565 286.869 57.2519 287.466 55.0692 288.745C52.8865 290.025 51.1225 291.93 49.9973 294.224C49.8435 294.538 49.7067 294.929 49.9118 295.207C50.0227 295.318 50.1591 295.398 50.3085 295.441C50.4579 295.483 50.6154 295.487 50.7665 295.451C53.1852 295.294 55.3304 293.807 57.0996 292.119C58.8687 290.431 60.4071 288.482 62.3643 287.029" fill="#381E3E"/>
<path d="M62.0823 286.638C60.7931 282.416 60.713 277.907 61.8515 273.64C62.3045 271.961 63.0566 270.204 64.5779 269.421C64.6386 269.379 64.7072 269.35 64.7792 269.337C64.8513 269.323 64.9254 269.325 64.9967 269.342C65.1207 269.409 65.2153 269.521 65.2616 269.656C65.7722 270.828 65.9924 272.109 65.9026 273.388C65.8136 274.66 65.622 275.923 65.33 277.164C64.8514 279.469 64.595 281.949 63.3557 283.941C63.0608 284.42 62.7953 284.917 62.5609 285.429C62.3301 285.933 62.3216 286.107 62.1079 286.516" fill="#381E3E"/>
<path d="M77.9278 289.039C77.3968 286.666 77.3802 284.204 77.8791 281.824C78.378 279.445 79.3804 277.204 80.8166 275.258C81.0217 274.989 81.2952 274.693 81.6712 274.719C82.184 274.771 82.3208 275.476 82.2951 276.007C82.0888 280.686 80.5866 285.21 77.962 289.057" fill="#381E3E"/>
<path d="M79.3551 290.04C82.1268 290.703 85.0067 290.747 87.7967 290.169C90.5867 289.59 93.2205 288.404 95.5168 286.69C92.812 285.305 89.7191 284.918 86.7651 285.594C83.8574 286.14 81.2329 287.715 79.3551 290.04Z" fill="#CEAB5E"/>
<path d="M80.5602 287.012C82.1635 284.498 84.3276 282.405 86.8763 280.904C89.4249 279.402 92.286 278.535 95.2263 278.373C94.8313 279.559 94.2023 280.65 93.3777 281.579C92.5531 282.508 91.5505 283.256 90.4316 283.776C88.1904 284.802 85.8204 285.508 83.3891 285.872C82.4575 286.055 81.167 286.264 80.5602 287.012Z" fill="#381E3E"/>
<path d="M78.2269 272.37C79.1491 269.527 79.7792 266.593 80.1072 263.618C80.4243 260.625 79.8274 257.605 78.3979 254.97C76.9521 257.678 76.1735 260.704 76.1288 263.786C76.0841 266.868 76.7748 269.915 78.1415 272.666" fill="#381E3E"/>
<path d="M87.7821 267.402C91.1068 261.269 97.8757 256.362 104.73 255.675C102.089 262.374 94.8758 267.55 87.7821 267.402Z" fill="#CEAB5E"/>
<path d="M85.6967 268.612C90.6452 269.377 94.8673 272.596 99.491 274.545C100.461 275.02 101.536 275.23 102.611 275.154C103.108 275.145 103.592 274.982 103.996 274.686C104.4 274.39 104.706 273.975 104.873 273.497C105.039 273.02 105.058 272.502 104.927 272.012C104.796 271.523 104.522 271.086 104.14 270.761C103.486 270.143 102.716 269.666 101.876 269.36C96.8518 267.362 91.3307 267.057 86.124 268.49" fill="#381E3E"/>
<path d="M82.8336 272.144C83.9532 272.474 84.3378 273.057 85.2267 273.832C88.2505 276.461 91.8309 278.343 95.6878 279.33C96.0809 279.426 96.6108 279.469 96.8074 279.104C97.004 278.738 96.7561 278.39 96.5339 278.103C94.8488 276.104 92.6677 274.602 90.2179 273.753C87.8077 272.84 85.7138 271.744 82.8336 272.013" fill="#381E3E"/>
<path d="M79.5773 250.803C81.6098 252.7 84.009 254.144 86.6213 255.043C89.2335 255.941 92.0013 256.275 94.7476 256.023C95.0005 256.025 95.2457 255.935 95.4399 255.77C95.8245 255.344 95.363 254.692 94.9186 254.335C90.4572 250.794 85.0557 249.332 79.5773 250.768" fill="#381E3E"/>
<path d="M83.4319 249.367C86.1198 247.356 89.2364 246.021 92.5277 245.469C95.819 244.917 99.1918 245.165 102.371 246.192C99.8944 248.531 96.7142 249.95 93.346 250.22C90.0167 250.527 86.6603 250.233 83.4319 249.35" fill="#381E3E"/>
<path d="M81.9106 239.562C81.4747 235.03 81.7567 231.454 81.449 226.895C81.449 226.53 81.3465 226.095 81.0131 225.964C80.5431 225.781 80.1585 226.364 80.0046 226.834C79.3574 228.947 79.1918 231.182 79.5206 233.369C79.8494 235.557 80.6638 237.639 81.902 239.458" fill="#381E3E"/>
<path d="M81.5858 240.067C84.4968 238.154 87.0066 235.673 88.9701 232.768C90.423 230.732 91.6538 228.305 91.3204 225.808C90.2944 225.835 89.2866 226.09 88.3671 226.554C87.4476 227.019 86.6384 227.681 85.9959 228.496C84.7276 230.137 83.8053 232.026 83.2866 234.047C82.6969 236.048 82.2866 238.092 81.5772 240.058" fill="#381E3E"/>
<path d="M88.8334 238.014C95.476 235.516 101.627 231.831 106.995 227.13C104.824 226.26 102.337 226.773 100.158 227.669C95.2369 229.569 91.1693 233.236 88.7223 237.979" fill="#CEAB5E"/>
<path d="M83.6284 242.546C86.9714 243.016 90.3619 243.016 93.7049 242.546C96.9483 241.86 100.103 240.794 103.106 239.371C103.369 239.288 103.593 239.112 103.739 238.875C103.786 238.73 103.79 238.575 103.75 238.428C103.711 238.281 103.629 238.149 103.517 238.048C103.279 237.864 103.005 237.734 102.713 237.666C99.3372 236.841 95.7962 237.059 92.5426 238.292C89.4276 239.37 86.4338 240.782 83.6113 242.503" fill="#381E3E"/>
<path d="M64.4924 250.951C63.4124 248.603 62.8391 246.048 62.8111 243.456C62.7831 240.864 63.301 238.296 64.33 235.926C65.7146 238.083 65.8855 240.832 65.6291 243.399C65.3727 245.965 64.6121 248.619 64.5608 251.185" fill="#381E3E"/>
<path d="M55.3561 246.27C52.4929 246.234 49.6538 246.805 47.0197 247.948C44.3857 249.091 42.0145 250.78 40.0575 252.908C42.9426 253.258 45.8639 252.705 48.4333 251.325C50.9824 249.946 53.3878 248.308 55.6125 246.435" fill="#CEAB5E"/>
<path d="M49.211 244.173C46.4248 243.938 43.7326 243.59 41.0489 244.426C39.6935 244.815 38.4363 245.496 37.3627 246.424C36.2891 247.352 35.4243 248.504 34.827 249.802C37.4742 250.025 40.1314 249.517 42.519 248.332C44.8825 247.155 47.1366 245.763 49.2537 244.173" fill="#381E3E"/>
<path d="M58.3046 244.269C55.7919 242.59 53.1766 240.885 50.2879 240.189C47.3991 239.493 43.9719 240.015 41.9378 242.259C44.3052 243.669 47.1769 243.834 49.9204 243.834C52.6638 243.834 56.0312 243.834 58.6209 244.704" fill="#381E3E"/>
<path d="M58.3218 244.399C54.0484 240.11 52.3989 232.393 54.1253 226.53C57.515 231.812 58.9982 238.128 58.3218 244.399Z" fill="#381E3E"/>
<path d="M70.176 232.237C71.0307 230.323 71.552 228.313 72.2785 226.356C72.9423 224.375 73.9624 222.537 75.2869 220.936C76.6308 219.33 78.5392 218.324 80.6029 218.134C79.9418 221.092 78.6823 223.876 76.9046 226.311C75.1269 228.745 72.8703 230.775 70.2786 232.272" fill="#381E3E"/>
<path d="M67.9966 234.777C66.6547 232.898 65.1078 230.349 63.2874 228.94C62.4087 228.193 61.3808 227.651 60.2752 227.351C59.1697 227.05 58.013 226.999 56.8859 227.2C58.0356 229.249 59.6381 230.997 61.5666 232.306C63.4951 233.615 65.6965 234.449 67.9966 234.743" fill="#381E3E"/>
<path d="M68.4666 232.393C67.5057 230.162 66.7947 227.827 66.3471 225.433C65.905 223.011 66.2848 220.508 67.424 218.334C69.7828 222.867 70.5349 227.739 68.5863 232.472" fill="#381E3E"/>
<path d="M70.176 218.308C71.5093 213.81 75.5518 210.478 79.9192 208.982C80.4596 208.754 81.0464 208.665 81.6285 208.721C81.919 208.754 82.1936 208.873 82.4185 209.063C82.6433 209.253 82.8084 209.506 82.8934 209.791C83.0473 210.557 82.4319 211.235 81.8422 211.748C78.428 214.714 74.4596 216.945 70.176 218.308Z" fill="#381E3E"/>
<path d="M70.176 214.628C70.2201 211.721 70.6484 208.832 71.4494 206.041C71.8608 204.647 72.5434 203.35 73.4566 202.229C74.3698 201.108 75.4951 200.186 76.7655 199.516C77.2013 202.439 75.9108 205.354 74.4066 207.877C72.9024 210.4 70.9879 212.775 70.1332 215.585" fill="#381E3E"/>
<path d="M70.176 216.629C69.0734 213.349 68.9538 209.182 67.0308 206.328C65.6804 204.336 63.5267 202.97 62.3643 200.856C61.6586 202.884 61.7567 205.112 62.6378 207.068C63.5126 209.009 64.7194 210.776 66.2018 212.288C67.6291 213.836 68.8512 215.002 70.176 216.638" fill="#CEAB5E"/>
<path d="M70.176 313.156C70.082 313.156 70.0136 291.284 70.0051 264.322C69.9965 237.361 70.0649 215.481 70.1503 215.481C70.2358 215.481 70.3127 237.344 70.3127 264.322C70.3127 291.301 70.2444 313.156 70.176 313.156Z" fill="#263238"/>
<path d="M88.9274 247.653C88.6525 247.784 88.3664 247.889 88.0727 247.966L85.8506 248.723C83.9788 249.376 81.4063 250.315 78.6115 251.481C75.8168 252.647 73.2357 253.674 71.7742 254.961C71.1798 255.465 70.7087 256.102 70.3982 256.823C70.1845 257.336 70.1418 257.693 70.1162 257.641C70.103 257.566 70.103 257.489 70.1162 257.415C70.1482 257.198 70.2026 256.985 70.2785 256.78C70.5573 256.015 71.0184 255.334 71.6204 254.796C72.5176 254.027 73.5194 253.394 74.5946 252.917C75.7911 252.351 77.1073 251.76 78.509 251.177C81.3123 250.002 83.9105 249.089 85.7993 248.497C86.748 248.193 87.5086 247.975 88.0556 247.827C88.3411 247.745 88.6327 247.687 88.9274 247.653Z" fill="#263238"/>
<path d="M95.081 232.272C95.012 232.36 94.9347 232.442 94.8502 232.515L94.1665 233.176L91.6025 235.552L83.0558 243.321C79.7141 246.348 76.8253 249.237 74.8254 251.42C73.8254 252.508 73.0306 253.413 72.4921 254.03C72.2443 254.326 72.0391 254.561 71.8682 254.752C71.6973 254.944 71.646 255.005 71.6375 254.996C71.6889 254.896 71.752 254.802 71.8255 254.718C71.9537 254.535 72.1417 254.274 72.3981 253.952C72.9109 253.3 73.6801 252.369 74.663 251.264C77.2472 248.386 79.9803 245.65 82.8507 243.068C86.2095 240.049 89.2607 237.335 91.4828 235.378L94.1152 233.072L94.8417 232.463C94.9135 232.39 94.9939 232.325 95.081 232.272Z" fill="#263238"/>
<path d="M79.4149 246.4C79.3294 246.4 80.0303 244.713 80.7225 242.642C81.4148 240.571 81.7567 238.814 81.8422 238.823C81.7676 240.166 81.4789 241.489 80.9875 242.738C80.6925 243.627 80.3472 244.499 79.9534 245.348C79.8265 245.724 79.645 246.079 79.4149 246.4Z" fill="#263238"/>
<path d="M70.176 259.633C69.9856 259.448 69.8138 259.244 69.6632 259.024L68.3384 257.284C67.2274 255.823 65.6975 253.804 63.9796 251.603C62.2618 249.402 60.6806 247.427 59.5354 246L58.1935 244.26C58.0173 244.061 57.8599 243.846 57.7235 243.616C57.9303 243.782 58.1168 243.971 58.279 244.182C58.6294 244.565 59.1337 245.122 59.7063 245.818C60.8943 247.21 62.5011 249.167 64.2275 251.377C65.9539 253.587 67.4496 255.622 68.5008 257.11C69.0307 257.858 69.4581 258.467 69.7401 258.894C69.9091 259.125 70.0551 259.373 70.176 259.633Z" fill="#263238"/>
<path d="M66.0565 254.257C65.2337 253.317 64.6472 252.189 64.3472 250.968C64.028 249.895 63.8978 248.773 63.9626 247.653H64.0993C64.0395 247.914 63.9882 248.045 63.9626 248.036C63.9346 247.904 63.9346 247.768 63.9626 247.636H64.0993C64.1677 248.729 64.3511 249.811 64.6463 250.864C65.0357 252.028 65.507 253.162 66.0565 254.257Z" fill="#263238"/>
<path d="M60.7746 247.444C60.4015 247.162 59.997 246.926 59.5695 246.74C58.4876 246.407 57.3478 246.315 56.2278 246.47C55.0924 246.558 53.9661 246.741 52.8604 247.018C52.4074 247.165 51.9447 247.278 51.4759 247.357C51.8888 247.108 52.335 246.92 52.8006 246.801C53.9126 246.454 55.0593 246.235 56.2193 246.148C57.3725 245.998 58.5443 246.129 59.6379 246.531C60.1061 246.698 60.5061 247.02 60.7746 247.444Z" fill="#263238"/>
<path d="M59.4841 245.8C59.4841 245.852 58.7833 245.513 57.638 245.113C56.1511 244.598 54.6061 244.276 53.0399 244.156C51.4723 244.038 49.8964 244.117 48.3478 244.391C47.1598 244.608 46.4419 244.835 46.4248 244.782C46.5776 244.691 46.7413 244.621 46.912 244.573C47.3675 244.41 47.8328 244.276 48.3051 244.173C51.4415 243.473 54.7108 243.728 57.7064 244.904C58.1571 245.079 58.5967 245.283 59.0226 245.513C59.1892 245.586 59.3447 245.682 59.4841 245.8Z" fill="#263238"/>
<path d="M70.176 238.823C69.6278 237.271 69.1796 235.684 68.8341 234.073C68.3849 232.484 68.0338 230.869 67.7829 229.235C68.3356 230.79 68.7867 232.379 69.1333 233.994C69.5819 235.579 69.9302 237.192 70.176 238.823Z" fill="#263238"/>
<path d="M70.2187 238.823C69.7876 237.841 69.2907 236.89 68.7316 235.978C68.0949 235.121 67.3573 234.346 66.5351 233.672C66.8508 233.748 67.1439 233.901 67.3898 234.116C68.0115 234.591 68.5491 235.171 68.9794 235.83C69.6421 236.7 70.0693 237.732 70.2187 238.823Z" fill="#263238"/>
<path d="M70.176 301.498C70.176 301.498 70.0734 300.967 69.8341 300.045C69.4779 298.739 68.997 297.471 68.3983 296.26C66.324 292.303 63.7621 288.63 60.7747 285.333C59.0653 283.358 57.4244 281.488 56.0227 279.704C54.7574 278.136 53.6144 276.469 52.604 274.719C51.9343 273.537 51.3625 272.3 50.8947 271.022C50.7409 270.56 50.6212 270.204 50.5614 269.96C50.5203 269.838 50.4889 269.713 50.4674 269.586C50.4674 269.586 50.6554 270.082 51.0058 270.969C51.5151 272.225 52.115 273.44 52.8006 274.606C53.8199 276.328 54.9626 277.971 56.2193 279.521C57.6295 281.261 59.279 283.149 60.9798 285.124C63.9869 288.434 66.5373 292.145 68.5607 296.156C69.1481 297.387 69.6037 298.679 69.9196 300.01C70.0136 300.488 70.082 300.88 70.1076 301.106C70.1384 301.235 70.1612 301.366 70.176 301.498Z" fill="#263238"/>
<path d="M87.1155 281.992C86.8414 282.181 86.556 282.353 86.2608 282.505C85.4559 282.964 84.6847 283.482 83.9532 284.054C82.8767 284.912 81.8653 285.851 80.9277 286.864C79.8679 288.004 78.7739 289.335 77.6543 290.753C75.4151 293.607 73.3297 296.138 72.0819 298.148C71.5745 298.935 71.1067 299.748 70.6802 300.584C70.3725 301.176 70.2102 301.506 70.1931 301.498C70.176 301.489 70.1931 301.402 70.27 301.237C70.3469 301.071 70.4238 300.836 70.5691 300.532C70.9582 299.673 71.3977 298.84 71.8853 298.035C73.5806 295.436 75.4241 292.941 77.4065 290.562C78.5261 289.135 79.6286 287.804 80.714 286.664C81.6702 285.647 82.708 284.713 83.8165 283.871C84.5684 283.31 85.3661 282.815 86.201 282.392C86.4916 282.244 86.7309 282.149 86.8933 282.079C86.963 282.04 87.0378 282.01 87.1155 281.992Z" fill="#263238"/>
<path d="M87.4488 288.317C86.8306 288.462 86.2017 288.556 85.5685 288.595C84.0612 288.746 82.5707 289.038 81.1157 289.465C79.6763 289.941 78.3267 290.662 77.1244 291.597C76.2014 292.319 75.774 292.919 75.7313 292.885C75.6886 292.85 75.7997 292.711 76.0048 292.441C76.3001 292.071 76.6292 291.73 76.9877 291.423C78.1788 290.415 79.5479 289.647 81.0217 289.161C82.496 288.715 84.016 288.443 85.5514 288.352C86.1818 288.287 86.8165 288.275 87.4488 288.317Z" fill="#263238"/>
<path d="M76.2783 292.215C76.1757 292.162 77.0218 290.84 77.6799 289.074C78.338 287.308 78.4406 285.716 78.5346 285.733C78.5967 286.072 78.5967 286.421 78.5346 286.76C78.448 287.585 78.2644 288.397 77.9876 289.178C77.7062 289.956 77.3422 290.7 76.9022 291.397C76.5518 291.928 76.3125 292.241 76.2783 292.215Z" fill="#263238"/>
<path d="M92.611 265.01L92.3119 265.166L91.4572 265.575C91.0726 265.749 90.6025 265.958 90.0726 266.245C89.5427 266.532 88.9274 266.811 88.2778 267.202L87.2522 267.803C86.9018 268.011 86.5514 268.255 86.1753 268.49C85.4147 268.96 84.6626 269.534 83.8506 270.117C82.1356 271.444 80.5187 272.898 79.0132 274.467C77.5259 276.054 76.1575 277.752 74.9194 279.548C74.3639 280.418 73.8254 281.174 73.3981 281.957C73.1759 282.349 72.9451 282.714 72.7485 283.088C72.552 283.463 72.381 283.811 72.2015 284.15C71.8426 284.82 71.5776 285.455 71.3469 286.012C71.1161 286.568 70.8939 287.038 70.7401 287.438L70.3726 288.352C70.3391 288.465 70.2871 288.57 70.2187 288.665C70.2387 288.549 70.2702 288.435 70.3127 288.326L70.629 287.395C70.7657 286.986 70.9452 286.525 71.193 285.933C71.4409 285.342 71.6802 284.724 72.0477 284.045L72.5861 282.967C72.7742 282.593 72.9964 282.227 73.2186 281.827C73.6459 281.035 74.1758 280.235 74.7228 279.382C75.9532 277.562 77.3251 275.846 78.8252 274.249C80.3445 272.672 81.9818 271.218 83.7224 269.899C84.5771 269.308 85.3121 268.742 86.0813 268.281C86.4574 268.046 86.8163 267.803 87.1753 267.594L88.218 267.02C88.8761 266.637 89.5 266.358 90.047 266.097C90.594 265.836 91.064 265.628 91.4572 265.471L92.3631 265.123C92.4422 265.078 92.5252 265.04 92.611 265.01Z" fill="#263238"/>
<path d="M79.1842 274.162C79.3162 273.723 79.5754 273.335 79.9277 273.049C80.754 272.317 81.8069 271.904 82.902 271.883C83.9752 271.878 85.0387 272.091 86.0301 272.509C86.45 272.641 86.8477 272.838 87.2095 273.092C86.7809 273.004 86.3606 272.879 85.9531 272.718C84.9749 272.371 83.9463 272.195 82.9105 272.196C81.8805 272.223 80.8849 272.579 80.0645 273.214C79.7504 273.509 79.4563 273.826 79.1842 274.162Z" fill="#263238"/>
<path d="M77.1757 276.268C77.58 275.379 77.8673 274.44 78.0304 273.475C78.09 272.496 78.0268 271.514 77.8423 270.552C78.0208 270.792 78.1409 271.073 78.1927 271.369C78.551 272.779 78.3804 274.274 77.7141 275.563C77.4406 276.041 77.2099 276.294 77.1757 276.268Z" fill="#263238"/>
<path d="M55.3219 304.63C55.7834 312.982 58.2534 321.482 62.0566 330.077H78.603C82.2353 321.569 84.5344 313.086 84.9446 304.63H55.3219Z" fill="#455A64"/>
<path d="M82.2695 318.149C82.2695 318.236 76.8168 318.306 70.0991 318.306C63.3814 318.306 57.9286 318.236 57.9286 318.149C57.9286 318.062 63.3814 317.993 70.0991 317.993C76.8168 317.993 82.2695 318.062 82.2695 318.149Z" fill="#FAFAFA"/>
<path d="M81.8935 321.177C81.8935 321.264 76.7655 321.334 70.4922 321.334C64.2189 321.334 59.0653 321.264 59.0653 321.177C59.0653 321.09 64.1933 321.02 70.4751 321.02C76.7569 321.02 81.8935 321.09 81.8935 321.177Z" fill="#FAFAFA"/>
<path d="M152.737 84.015C152.648 84.5548 152.404 85.0557 152.036 85.4544C151.668 85.8531 151.192 86.1317 150.668 86.2548C150.144 86.378 149.596 86.3402 149.093 86.1463C148.59 85.9524 148.155 85.6111 147.843 85.1655C147.531 84.7199 147.356 84.1901 147.34 83.6431C147.323 83.0961 147.467 82.5564 147.752 82.0924C148.037 81.6283 148.451 81.2608 148.941 81.0362C149.431 80.8117 149.976 80.7402 150.506 80.8308C151.217 80.9522 151.851 81.3558 152.269 81.9529C152.687 82.55 152.856 83.2917 152.737 84.015Z" fill="#381E3E"/>
<path d="M152.498 83.0406C152.352 83.1189 150.985 80.5611 149.934 77.1768C148.882 73.7925 147.993 71.0868 148.13 71.0259C148.267 70.965 149.421 73.6359 150.498 76.9854C151.574 80.3349 152.643 82.9623 152.498 83.0406Z" fill="#381E3E"/>
<path d="M153.523 68.8683C153.66 68.9379 152.856 70.269 151.19 70.9824C149.523 71.6958 148.028 71.4087 148.07 71.2521C148.113 71.0955 149.455 71.0955 150.951 70.3821C152.446 69.6687 153.386 68.79 153.523 68.8683Z" fill="#381E3E"/>
<path d="M154.258 71.6349C154.412 71.6958 153.66 73.0443 151.985 73.6359C150.31 74.2275 148.899 73.6359 148.985 73.5141C149.07 73.3923 150.318 73.6011 151.788 73.0617C153.258 72.5223 154.121 71.5218 154.258 71.6349Z" fill="#381E3E"/>
<path d="M129.233 66.18C128.803 66.3277 128.338 66.3421 127.9 66.2213C127.461 66.1005 127.067 65.85 126.768 65.5014C126.469 65.1527 126.278 64.7217 126.22 64.2628C126.161 63.8038 126.238 63.3376 126.44 62.9229C126.642 62.5082 126.96 62.1638 127.354 61.9332C127.748 61.7025 128.2 61.596 128.654 61.6271C129.108 61.6582 129.542 61.8255 129.902 62.1078C130.263 62.3901 130.532 62.7749 130.678 63.2133C130.775 63.5046 130.814 63.8125 130.794 64.1193C130.773 64.4261 130.694 64.7258 130.56 65.0014C130.425 65.2769 130.239 65.5228 130.012 65.725C129.784 65.9273 129.52 66.0819 129.233 66.18Z" fill="#381E3E"/>
<path d="M129.849 65.6232C129.669 65.5014 130.951 63.3873 133.003 61.1949C135.054 59.0025 136.737 57.3321 136.9 57.4626C137.062 57.5931 135.618 59.5767 133.584 61.743C131.55 63.9093 130.003 65.7537 129.849 65.6232Z" fill="#381E3E"/>
<path d="M141.242 63.6309C141.182 63.8136 139.344 63.2481 137.823 61.4472C137.155 60.6964 136.706 59.7718 136.524 58.7763C136.404 57.9933 136.626 57.5148 136.72 57.5409C136.814 57.567 136.84 58.002 137.071 58.6371C137.385 59.4765 137.846 60.2516 138.43 60.9252C139.789 62.5434 141.361 63.4047 141.242 63.6309Z" fill="#381E3E"/>
<path d="M133.567 72.3657C133.136 72.5135 132.672 72.5278 132.233 72.407C131.794 72.2862 131.4 72.0357 131.101 71.6871C130.802 71.3385 130.611 70.9075 130.553 70.4485C130.494 69.9896 130.571 69.5233 130.773 69.1086C130.975 68.694 131.293 68.3496 131.687 68.1189C132.081 67.8883 132.534 67.7818 132.987 67.8128C133.441 67.8439 133.875 68.0112 134.235 68.2935C134.596 68.5759 134.866 68.9606 135.011 69.399C135.108 69.6904 135.147 69.9982 135.127 70.305C135.106 70.6118 135.027 70.9116 134.893 71.1871C134.759 71.4626 134.572 71.7085 134.345 71.9107C134.117 72.113 133.853 72.2676 133.567 72.3657Z" fill="#381E3E"/>
<path d="M134.191 71.8002C134.003 71.6697 135.293 69.5556 137.336 67.3632C139.378 65.1708 141.079 63.5004 141.242 63.6309C141.404 63.7614 139.96 65.7537 137.925 67.92C135.891 70.0863 134.37 71.922 134.191 71.8002Z" fill="#381E3E"/>
<path d="M140.259 64.8402C140.259 65.049 138.421 64.6227 136.943 62.9871C135.464 61.3515 135.165 59.5071 135.37 59.5071C135.575 59.5071 136.225 61.0035 137.532 62.4564C138.84 63.9093 140.301 64.614 140.259 64.8402Z" fill="#381E3E"/>
<path d="M140.891 122.138L135.652 112.751C138.884 107.408 140.036 101.028 138.882 94.8643C137.727 88.7007 134.35 83.1996 129.413 79.4422C124.476 75.6849 118.337 73.943 112.203 74.559C106.069 75.1751 100.383 78.1045 96.2625 82.7714C92.1423 87.4383 89.8858 93.5052 89.9368 99.7796C89.9877 106.054 92.3423 112.082 96.5378 116.679C100.733 121.276 106.466 124.109 112.61 124.622C118.753 125.135 124.863 123.29 129.738 119.45L140.891 122.138Z" fill="white"/>
<path d="M140.891 122.138L129.704 119.572L129.533 119.528L129.644 119.389L129.798 119.546C126.36 122.286 122.269 124.048 117.943 124.653C116.644 124.839 115.331 124.906 114.02 124.853C113.354 124.853 112.661 124.801 111.978 124.74L109.884 124.426C103.655 123.186 98.1255 119.573 94.4229 114.326C92.3591 111.426 90.9309 108.109 90.235 104.599C89.5168 100.888 89.616 97.061 90.5256 93.3936C91.4488 89.5558 93.2631 85.9995 95.816 83.0232C98.4024 79.9635 101.67 77.5773 105.346 76.0632C108.874 74.6417 112.671 74.047 116.456 74.3232C120.03 74.5711 123.506 75.6198 126.635 77.3943C132.262 80.5774 136.465 85.8471 138.37 92.106C139.138 94.7626 139.498 97.5241 139.438 100.293C139.31 104.711 138.033 109.016 135.737 112.768V112.655L140.865 122.104L135.541 112.768V112.708V112.655C137.78 108.923 139.013 104.656 139.113 100.284C139.155 97.5523 138.789 94.8301 138.028 92.2104C136.118 86.057 131.965 80.8825 126.422 77.751C123.341 76.0204 119.924 74.9987 116.413 74.7582C112.699 74.5003 108.975 75.0949 105.516 76.4982C101.894 77.9734 98.6706 80.3091 96.1151 83.3103C93.6097 86.2317 91.8228 89.7177 90.9017 93.4806C90.0105 97.0853 89.9083 100.845 90.6025 104.495C91.2801 107.947 92.6792 111.211 94.7049 114.065C98.3384 119.24 103.772 122.811 109.901 124.052L111.961 124.383C112.644 124.435 113.32 124.461 113.978 124.496C115.271 124.555 116.567 124.494 117.849 124.313C122.13 123.742 126.186 122.031 129.61 119.354L130.293 118.815L129.763 119.511L129.704 119.337L140.891 122.138Z" fill="#263238"/>
<path d="M119.354 104.686C119.439 103.573 119.49 101.624 119.618 99.4053C119.832 95.9253 119.687 93.0804 119.413 93.0891C119.354 92.802 117.336 93.2283 114.952 92.8281C113.944 92.6717 112.971 92.3328 112.08 91.8276C111.782 91.6455 111.496 91.442 111.226 91.2186C111.226 91.0272 111.14 90.9228 111.089 90.9228C110.85 90.9228 110.585 93.7068 110.371 97.1955C110.284 98.5454 110.284 99.8997 110.371 101.25C109.934 100.762 109.338 100.453 108.694 100.379C108.05 100.306 107.401 100.473 106.869 100.849C106.337 101.226 105.957 101.786 105.8 102.426C105.643 103.066 105.72 103.743 106.016 104.33C106.312 104.917 106.807 105.374 107.41 105.617C108.013 105.86 108.681 105.872 109.292 105.651C109.903 105.43 110.414 104.99 110.73 104.414C111.046 103.839 111.147 103.165 111.012 102.52C111.097 101.406 111.14 99.4575 111.277 97.239C111.345 96.1689 111.371 95.151 111.379 94.2636C112.447 95.1513 113.75 95.6937 115.123 95.8209C116.449 96.0114 117.801 95.8247 119.029 95.2815C118.918 96.369 118.807 97.7958 118.713 99.3618C118.625 100.712 118.625 102.066 118.713 103.416C118.537 103.228 118.339 103.065 118.123 102.929C117.598 102.605 116.979 102.475 116.371 102.562C115.762 102.648 115.202 102.946 114.785 103.404C114.367 103.863 114.118 104.454 114.079 105.078C114.04 105.702 114.214 106.32 114.571 106.829C114.928 107.337 115.447 107.705 116.039 107.869C116.632 108.033 117.262 107.984 117.823 107.73C118.384 107.476 118.842 107.033 119.12 106.475C119.397 105.918 119.476 105.279 119.345 104.669L119.354 104.686ZM115.217 94.89C113.907 94.6708 112.617 94.3391 111.362 93.8982C111.362 93.1152 111.362 92.4453 111.285 91.9407C111.408 92.0935 111.542 92.2361 111.687 92.367C112.579 93.1112 113.656 93.5899 114.798 93.7503C116.326 94.067 117.913 93.878 119.328 93.2109C119.19 93.7529 119.099 94.3059 119.054 94.8639C117.779 94.9993 116.494 95.008 115.217 94.89Z" fill="#381E3E"/>
</svg>
