<svg width="83" height="108" viewBox="0 0 83 108" fill="none" xmlns="http://www.w3.org/2000/svg">
<path d="M26.708 1.87204C26.708 1.87204 7.84252 7.0224 9.62124 34.1425V92.5916H31.0791L26.708 1.87204Z" fill="#381E3E"/>
<path d="M24.9146 19.5424V104.195H64.8626V32.8848C64.8626 32.8848 67.4874 5.52841 48.3978 2.16875C48.3978 2.16875 24.9146 -1.8307 24.9146 19.5424Z" fill="#381E3E"/>
<path d="M51.6281 86.2622H23.8872V73.6037H51.6281V86.2622Z" fill="#D2BAD9"/>
<path d="M82.4418 107.36H64.3201L61.0799 94.4805C61.0799 94.4805 58.446 74.9317 72.0647 74.6586C72.0647 74.6586 79.1332 79.5366 81.0598 91.0094C81.0598 91.0094 82.5846 100.18 82.4418 107.36Z" fill="#FFBE9D"/>
<path d="M16.6143 107.36L19.1092 97.6565C19.1092 97.6565 23.5298 75.9863 9.63139 75.7135C9.63139 75.7135 -0.435616 83.7069 0.293922 107.36H16.6143Z" fill="#FFBE9D"/>
<path d="M31.0791 70.4392H48.5456V47.2319H31.0791V70.4392Z" fill="#FFBE9D"/>
<path d="M48.5456 56.7522V47.2319H31.0791V60.9453C36.8413 60.7843 43.6774 59.8333 48.5456 56.7522Z" fill="#604B65"/>
<path d="M8.47559 78.8782C12.319 73.5385 18.358 72.0896 18.358 72.0896L32.8338 67.2745H46.6486L64.3461 72.0896C64.3461 72.0896 70.389 73.5385 74.2317 78.8782H8.47559Z" fill="#FFBE9D"/>
<path d="M11.5967 97.5746V107.36H66.7398L66.0926 95.9964C65.4087 74.1044 68.067 74.0974 68.067 74.0974C65.5813 72.5728 63.5055 72.0646 63.5055 72.0646L49.6789 68.4414C49.6789 68.4414 46.6819 80.3096 35.2746 80.3096C35.2746 80.3096 26.4405 75.9285 28.8348 68.3294L17.8835 72.0646C17.8835 72.0646 13.5422 73.2865 9.50293 76.9053C9.50293 76.9053 11.4554 78.0073 11.5967 97.5746Z" fill="#805B8A"/>
<path d="M50.3699 49.2837C49.7897 50.5364 48.9818 51.6975 47.8502 52.7164C45.0364 55.249 41.7368 57.3022 38.1198 58.6897C33.6816 60.3905 26.9817 60.6082 23.4544 57.193C20.5962 54.4252 19.0279 50.2334 17.7871 46.6397C15.3742 39.6503 15.4046 32.0142 16.0184 24.756C16.1587 23.1012 16.3381 21.4434 16.6329 19.8053C19.3944 3.97433 33.8968 4.01003 33.8968 4.01003C44.8485 3.56427 54.8448 8.39769 56.527 19.1767C57.1743 23.3044 56.3219 27.7372 56.0996 31.8648C55.9366 34.8977 55.5381 37.9248 54.4986 40.8172C53.4395 43.7699 51.6903 46.4343 50.3699 49.2837Z" fill="#FFBE9D"/>
<path d="M51.6326 37.4262C51.6326 37.4262 53.0747 31.7369 57.6932 34.0875C57.6932 34.0875 59.7784 35.0874 58.2756 38.9948C58.2756 38.9948 56.0841 44.6157 51.6279 42.5601L51.6326 37.4262Z" fill="#FFBE9D"/>
<path d="M14.6609 21.606C13.8603 -0.211361 36.5281 0.824913 36.5281 0.824913C58.8093 1.66081 59.918 10.8805 59.918 10.8805C62.6142 22.5816 58.7564 33.9477 58.7564 33.9477C54.0205 33.0036 53.2192 38.7927 53.2192 38.7927C53.7163 29.5174 52.8829 28.958 52.8829 28.958C45.6534 28.8892 40.4467 28.1806 40.4467 28.1806L40.1273 21.7128L38.3853 27.8405C38.3853 27.8405 28.1394 27.6314 17.4955 25.324C17.4955 25.324 14.6609 25.5069 14.6609 33.3817V21.606Z" fill="#381E3E"/>
</svg>
