<svg width="82" height="108" viewBox="0 0 82 108" fill="none" xmlns="http://www.w3.org/2000/svg">
<path d="M10.3325 17.1605C10.3325 17.1605 12.2293 15.1972 15.8441 18.75L17.5246 15.8024C17.5246 15.8024 13.4648 12.1805 10.3325 17.1605Z" fill="#381E3E"/>
<path d="M16.5315 10.3112C16.5315 10.3112 14.2746 12.8326 17.5246 15.7044L15.3316 17.6953C15.3316 17.6953 10.3051 12.1553 16.5315 10.3112Z" fill="#381E3E"/>
<path d="M7.25 79.9331C11.1658 74.1082 17.3196 72.5292 17.3196 72.5292L32.0648 67.2746H46.1405L60.881 72.5292C60.881 72.5292 67.0341 74.1082 70.9512 79.9331H7.25Z" fill="#D2BAD9"/>
<path d="M58.309 107.36H81.2256C81.2256 103.672 80.9702 98.4183 80.9702 98.4183C79.6234 76.3425 62.5449 72.8716 62.5449 72.8716C49.2282 69.8342 56.4867 89.2375 56.4867 89.2375C56.1385 93.9135 56.8771 100.204 58.309 107.36Z" fill="#805B8A"/>
<path d="M29.8538 72.5488H49.3751V54.6159H29.8538V72.5488Z" fill="#FFBE9D"/>
<path d="M49.3751 62.7995V54.6159H29.8538V58.6696C35.422 62.9563 42.1294 63.4998 49.3751 62.7995Z" fill="#604B65"/>
<path d="M69.668 107.36C70.0367 97.6617 69.9244 94.9979 69.8341 91.69C69.6331 84.3209 67.9909 78.0937 62.929 72.6235L62.9048 72.6177L49.1977 68.3294C49.1977 68.3294 52.0802 73.1693 39.483 73.1693C39.483 73.1693 31.1844 72.8593 29.9723 68.3294L16.0527 72.6177C16.0527 72.6177 4.15314 75.4256 2.11279 87.4432L9.10868 99.784L8.85942 107.36H69.668Z" fill="#381E3E"/>
<path d="M63.5863 32.5304C64.1293 28.4688 63.2167 24.5787 63.262 20.5758C63.2929 17.8897 62.7386 13.836 59.2134 13.4958C54.329 13.0228 52.8214 21.0145 52.5333 24.478C52.1358 29.2513 53.3855 34.4112 54.357 39.0823C54.7069 40.7694 54.6707 44.1407 56.6754 44.956C58.3897 45.652 60.1425 44.0114 61.0189 42.7916C63.1315 39.8469 63.1353 35.9303 63.5863 32.5304Z" fill="#381E3E"/>
<path d="M60.7438 52.0979C58.7758 59.2046 55.3099 61.1627 55.3099 61.1627L50.6619 62C47.9872 61.6866 43.3737 60.6813 43.3737 60.6813C32.7556 57.3499 29.6792 56.4503 28.033 52.7254C27.9639 52.568 19.6633 25.9755 19.6633 25.9755C18.3056 12.289 33.8279 9.44111 36.1716 9.08379C38.4898 8.58965 53.2697 4.79882 57.6359 17.9387C57.6359 17.9387 64.0852 33.1623 60.7438 52.0979Z" fill="#FFBE9D"/>
<path d="M65.5092 4.39023C66.3412 8.68052 65.5624 14.6185 62.0337 17.3577C58.2019 20.3303 54.9134 19.5222 50.3012 20.487C45.5074 21.4898 40.6019 21.8878 35.7839 22.766C32.4094 23.3816 28.5145 23.7337 26.9615 27.1057C24.9084 31.5613 24.5034 37.3762 25.8871 41.718C27.0359 45.3348 27.3892 48.852 28.6513 53.561C24.2952 50.1655 20.9127 45.2131 20.9127 45.2131C18.7416 41.6149 18.7416 41.6149 16.2924 35.3556C14.8564 31.6873 13.6157 28.4606 13.4305 24.6778C13.1919 19.7985 15.7041 17.6719 18.4691 13.192C21.0665 8.97971 24.7131 6.06369 29.4674 4.72879C29.4674 4.72879 53.5723 6.00427 53.1186 0.817131C53.1186 0.817131 58.9078 2.21001 57.806 5.83607C57.806 5.83607 63.8627 4.79463 62.5778 0.817131C62.5778 0.817131 65.0275 1.90438 65.5092 4.39023Z" fill="#381E3E"/>
<path d="M26.7689 41.0558C26.7689 41.0558 24.2424 35.4807 20.2719 38.7839C20.2719 38.7839 18.4638 40.2119 20.6907 43.9433C20.6907 43.9433 23.9243 49.3065 27.7989 46.3344L26.7689 41.0558Z" fill="#FFBE9D"/>
<path d="M26.0415 28.2439C26.0415 28.2439 26.0572 37.656 27.7989 42.6485L25.9519 43.0122C25.9519 43.0122 24.9804 36.5564 21.6343 36.4809L26.0415 28.2439Z" fill="#381E3E"/>
<path d="M21.6769 107.36H0.0581055C0.0649941 107.36 0.133339 102.547 0.145181 102.206C0.30718 97.4749 0.626457 92.7088 1.53591 88.045C2.83507 81.3788 6.28728 75.4681 13.8861 73.7742C17.3637 72.9983 20.4555 74.9724 22.3391 77.6556C22.3391 77.6556 25.7792 81.6328 21.6769 107.36Z" fill="#805B8A"/>
</svg>
