<svg width="62" height="65" viewBox="0 0 62 65" fill="none" xmlns="http://www.w3.org/2000/svg">
<path d="M57.3682 31.3304C57.3195 30.0204 57.2208 28.7145 57.1174 27.4086C56.9795 25.6764 56.9641 23.9402 56.8642 22.2053C56.567 17.0333 55.4995 11.8544 56.2971 6.67151C56.4041 5.97511 56.4457 5.17827 55.8787 4.72215C55.6231 4.51717 55.3081 4.42078 54.9954 4.40178C52.537 4.25246 52.6072 7.73171 52.6262 9.68786C52.6369 10.8078 52.6559 11.9413 52.4324 13.0327C52.2493 13.926 51.8868 14.807 51.2948 15.4423C50.553 16.2391 49.2774 16.3369 48.3109 16.2269C47.5489 16.14 46.7869 15.802 46.2698 15.1558C45.7419 14.4975 45.5636 13.649 45.352 12.8182C45.182 12.1531 44.8504 11.3847 44.2274 11.1621C43.979 11.0739 43.6913 11.1309 43.4476 11.2273C39.9086 12.6214 36.2079 14.4133 32.5334 15.3785C29.0265 16.3002 28.2562 13.6938 25.7359 12.111C25.1998 11.7743 24.5329 11.5476 23.9266 11.7404C23.3845 11.9128 22.9922 12.3974 22.7961 12.9214C22.0364 14.9522 22.7212 17.3428 23.0243 19.3871C23.3928 21.8727 23.7435 24.361 23.9516 26.8656C24.3665 31.8802 24.2048 36.9165 24.414 41.9405C24.6137 46.7338 24.6018 51.5543 24.5816 56.3558C24.5745 58.0092 24.1715 59.1617 22.8496 60.2273C18.6841 63.5844 8.30719 64.9568 3.64598 61.5088C2.26699 60.488 0.622906 57.8341 1.07702 56.2417C1.77721 53.7915 6.85807 53.1141 9.28794 52.9851C12.0305 52.8412 14.7492 53.3177 17.4549 53.2457C22.6499 53.1086 20.1558 30.5376 19.8657 27.2077C19.735 25.7076 19.5352 24.1791 19.5376 22.6736C19.54 21.0962 18.2205 13.6558 18.3548 12.0838C18.3619 11.0318 18.4475 9.89691 19.2939 9.13671C20.0012 8.50005 21.0925 8.27878 22.1256 8.23398C22.6974 8.23398 23.2597 8.21905 23.8291 8.28557C25.0821 8.28557 26.4658 8.96567 27.5524 9.61863C28.2264 10.0259 28.8601 10.5119 29.4747 11.0263C29.9621 11.4363 30.5374 12.187 31.1461 12.3187C31.4552 12.3852 31.7738 12.2861 32.0638 12.1476C33.1896 11.6128 34.3178 11.0888 35.4578 10.5947C36.7797 10.0232 38.0993 9.44622 39.42 8.87065C41.1877 8.10095 43.4012 5.519 45.2557 7.61497C46.5325 9.05798 46.2258 11.7499 47.6202 13.0436C47.8722 13.2771 48.1837 13.4522 48.5082 13.4359C49.1561 13.4047 49.5996 12.6377 49.7018 11.906C49.936 10.2159 49.6744 8.37109 49.5627 6.68237C49.4735 5.31401 49.3463 3.88457 49.4153 2.51351C49.4284 2.23794 49.4569 1.9515 49.5865 1.71937C49.7791 1.37593 50.1535 1.22525 50.509 1.18452C51.8915 1.02434 53.3145 1.03248 54.7042 1.00397C55.8407 0.979539 57.3694 1.05284 58.5309 1.65014C61.2128 3.028 60.194 8.49191 60.2772 10.9354C60.4056 14.7309 60.5352 18.5251 60.6493 22.3207C60.868 29.6566 61.0261 36.9938 60.9964 44.3324C60.9893 45.9872 60.5851 47.1397 59.2632 48.2054C55.0977 51.5625 44.7208 52.9349 40.0596 49.4855C38.6806 48.466 37.0365 45.8107 37.4918 44.2198C38.192 41.7681 43.2717 41.0921 45.7015 40.9631C48.444 40.8179 51.164 41.2957 53.8697 41.2238C55.0287 41.1939 55.9239 40.4229 56.4564 39.2785C57.5466 36.9368 57.4633 33.9015 57.3682 31.3304Z" fill="#ECEBF5"/>
<path d="M35.8335 23.051C36.3637 23.4935 37.1387 23.8682 37.134 24.6705C37.1304 25.1999 36.6276 26.5139 35.9928 26.5004C35.8192 26.4976 35.6563 26.4148 35.5006 26.3334C34.6221 25.8745 34.2916 25.2895 34.552 24.2822C34.6482 23.9075 35.0893 22.7618 35.6123 22.9125C35.6956 22.9356 35.7657 22.9939 35.8335 23.051Z" fill="#ECEBF5"/>
<path d="M35.585 18.1559C36.1152 18.5998 36.8891 18.9731 36.8843 19.7768C36.882 20.3048 36.3779 21.6189 35.7431 21.6067C35.5695 21.6026 35.4079 21.5198 35.2521 21.4383C34.3736 20.9795 34.0431 20.3958 34.3035 19.3885C34.3998 19.0139 34.8396 17.8668 35.3639 18.0175C35.4471 18.0419 35.5172 18.0989 35.585 18.1559Z" fill="#ECEBF5"/>
<path d="M31.0058 23.051C31.536 23.4935 32.3111 23.8682 32.3064 24.6705C32.3028 25.1999 31.7999 26.5139 31.1651 26.5004C30.9904 26.4976 30.8287 26.4148 30.673 26.3334C29.7945 25.8745 29.464 25.2895 29.7243 24.2822C29.8206 23.9075 30.2617 22.7618 30.7847 22.9125C30.8679 22.9356 30.9381 22.9939 31.0058 23.051Z" fill="#ECEBF5"/>
<path d="M31.0058 18.1559C31.536 18.5998 32.3111 18.9731 32.3064 19.7768C32.3028 20.3048 31.7999 21.6189 31.1651 21.6067C30.9904 21.6026 30.8287 21.5198 30.673 21.4383C29.7945 20.9795 29.464 20.3958 29.7243 19.3885C29.8206 19.0139 30.2617 17.8668 30.7847 18.0175C30.8679 18.0419 30.9381 18.0989 31.0058 18.1559Z" fill="#ECEBF5"/>
<path d="M60.6493 22.3207C60.5352 18.5251 60.4056 14.7309 60.2772 10.9354C60.194 8.49191 61.2128 3.028 58.5309 1.65014C57.3694 1.05284 55.8407 0.979539 54.7042 1.00397C53.3145 1.03248 51.8915 1.02434 50.509 1.18452C50.1535 1.22525 49.7791 1.37593 49.5865 1.71937C49.4569 1.9515 49.4284 2.23794 49.4153 2.51351C49.3463 3.88457 49.4735 5.31401 49.5627 6.68237C49.6744 8.37109 49.936 10.2159 49.7018 11.906C49.5996 12.6377 49.1561 13.4047 48.5082 13.4359C48.1837 13.4522 47.8722 13.2771 47.6202 13.0436C46.2258 11.7499 46.5325 9.05798 45.2557 7.61497C43.4012 5.519 41.1877 8.10095 39.42 8.87065C38.0993 9.44622 36.7797 10.0232 35.4578 10.5947C34.3178 11.0888 33.1896 11.6128 32.0638 12.1476C31.7738 12.2861 31.4552 12.3852 31.1461 12.3187C30.5374 12.187 29.9621 11.4363 29.4747 11.0263C28.8601 10.5119 28.2264 10.0259 27.5524 9.61863C26.4658 8.96567 25.0821 8.28557 23.8291 8.28557C23.2597 8.21905 22.6974 8.23398 22.1256 8.23398C21.0925 8.27878 20.0012 8.50005 19.2939 9.13672C18.4475 9.89691 18.3619 11.0318 18.3548 12.0838C18.2205 13.6558 19.54 21.0962 19.5376 22.6736C19.5352 24.1791 19.735 25.7076 19.8657 27.2077C20.1558 30.5376 22.6499 53.1086 17.4549 53.2457C14.7492 53.3177 12.0305 52.8412 9.28794 52.9851C6.85807 53.1141 1.77721 53.7915 1.07702 56.2417C0.622906 57.8341 2.26699 60.488 3.64598 61.5088C8.30719 64.9568 18.6841 63.5844 22.8496 60.2273C24.1715 59.1617 24.5745 58.0092 24.5816 56.3558C24.6018 51.5543 24.6137 46.7338 24.414 41.9405C24.2048 36.9165 24.3665 31.8802 23.9516 26.8656C23.7435 24.361 23.3928 21.8727 23.0243 19.3871C22.7212 17.3428 22.0364 14.9522 22.7961 12.9214C22.9922 12.3974 23.3845 11.9128 23.9266 11.7404C24.5329 11.5476 25.1998 11.7743 25.7359 12.111C28.2562 13.6938 29.0265 16.3002 32.5334 15.3785C36.2079 14.4133 39.9086 12.6214 43.4476 11.2273C43.6913 11.1309 43.979 11.0739 44.2274 11.1621C44.8504 11.3847 45.182 12.1531 45.352 12.8182C45.5636 13.649 45.7419 14.4975 46.2698 15.1558C46.7869 15.802 47.5489 16.14 48.3109 16.2269C49.2774 16.3369 50.553 16.2391 51.2948 15.4423C51.8868 14.807 52.2493 13.926 52.4324 13.0327C52.6559 11.9413 52.6369 10.8078 52.6262 9.68786C52.6072 7.73171 52.537 4.25246 54.9954 4.40178C55.3081 4.42078 55.6231 4.51717 55.8787 4.72215C56.4457 5.17827 56.4041 5.97511 56.2971 6.67151C55.4995 11.8544 56.567 17.0333 56.8642 22.2053C56.9641 23.9402 56.9795 25.6764 57.1174 27.4086C57.2208 28.7145 57.3195 30.0204 57.3682 31.3304C57.4633 33.9015 57.5466 36.9368 56.4564 39.2785C55.9239 40.4229 55.0287 41.1939 53.8697 41.2238C51.164 41.2957 48.4441 40.8179 45.7015 40.9631C43.2717 41.0921 38.192 41.7681 37.4918 44.2198C37.0365 45.8107 38.6806 48.466 40.0596 49.4855C44.7208 52.9349 55.0977 51.5624 59.2632 48.2054C60.5851 47.1397 60.9893 45.9872 60.9964 44.3324C61.0261 36.9938 60.868 29.6566 60.6493 22.3207Z" stroke="#161324" stroke-miterlimit="10"/>
<path d="M36.8843 19.7768C36.882 20.3048 36.3779 21.6189 35.7431 21.6067C35.5695 21.6026 35.4079 21.5198 35.2521 21.4383C34.3736 20.9795 34.0431 20.3958 34.3035 19.3885C34.3998 19.0139 34.8396 17.8668 35.3639 18.0175C35.4471 18.0419 35.5172 18.0989 35.585 18.1559C36.1152 18.5998 36.8891 18.9731 36.8843 19.7768Z" stroke="#161324" stroke-miterlimit="10"/>
<path d="M32.3064 24.6705C32.3028 25.1999 31.7999 26.5139 31.1651 26.5004C30.9904 26.4976 30.8287 26.4148 30.673 26.3334C29.7945 25.8745 29.464 25.2895 29.7243 24.2822C29.8206 23.9075 30.2617 22.7618 30.7847 22.9125C30.8679 22.9356 30.9381 22.9939 31.0058 23.051C31.536 23.4935 32.3111 23.8682 32.3064 24.6705Z" stroke="#161324" stroke-miterlimit="10"/>
<path d="M37.134 24.6705C37.1304 25.1999 36.6276 26.5139 35.9928 26.5004C35.8192 26.4976 35.6563 26.4148 35.5006 26.3334C34.6221 25.8745 34.2916 25.2895 34.552 24.2822C34.6482 23.9075 35.0893 22.7618 35.6123 22.9125C35.6956 22.9356 35.7657 22.9939 35.8335 23.051C36.3637 23.4935 37.1387 23.8682 37.134 24.6705Z" stroke="#161324" stroke-miterlimit="10"/>
<path d="M32.3064 19.7768C32.3028 20.3048 31.7999 21.6189 31.1651 21.6067C30.9904 21.6026 30.8287 21.5198 30.673 21.4383C29.7945 20.9795 29.464 20.3958 29.7243 19.3885C29.8206 19.0139 30.2617 17.8668 30.7847 18.0175C30.8679 18.0419 30.9381 18.0989 31.0058 18.1559C31.536 18.5998 32.3111 18.9731 32.3064 19.7768Z" stroke="#161324" stroke-miterlimit="10"/>
</svg>
