 <svg width="26" height="24" viewBox="0 0 26 24" fill="none" xmlns="http://www.w3.org/2000/svg">
<g clip-path="url(#clip0_248_228)">
<path d="M22.0145 11.7629C21.998 11.2816 21.9646 10.8019 21.9296 10.3221C21.883 9.6858 21.8778 9.04797 21.844 8.41065C21.7435 6.51063 21.3826 4.60811 21.6523 2.70411C21.6885 2.44828 21.7025 2.15555 21.5108 1.98798C21.4244 1.91268 21.3179 1.87727 21.2121 1.87029C20.3809 1.81544 20.4046 3.09359 20.411 3.8122C20.4146 4.22362 20.4211 4.64003 20.3455 5.04098C20.2836 5.36912 20.161 5.69277 19.9608 5.92616C19.71 6.21889 19.2787 6.2548 18.9519 6.2144C18.6942 6.18249 18.4366 6.05831 18.2617 5.82094C18.0832 5.57907 18.023 5.26739 17.9514 4.96219C17.8939 4.71783 17.7818 4.43557 17.5711 4.35378C17.4871 4.32137 17.3899 4.34231 17.3075 4.37772C16.1108 4.88988 14.8595 5.54815 13.617 5.90272C12.4312 6.24133 12.1708 5.28384 11.3186 4.70237C11.1373 4.57869 10.9118 4.49541 10.7068 4.56622C10.5235 4.62956 10.3909 4.80759 10.3245 5.00009C10.0677 5.74613 10.2992 6.62433 10.4017 7.37536C10.5263 8.28847 10.6449 9.20257 10.7152 10.1227C10.8555 11.9648 10.8009 13.815 10.8716 15.6606C10.9391 17.4215 10.9351 19.1924 10.9283 20.9563C10.9259 21.5637 10.7896 21.9871 10.3426 22.3785C8.93413 23.6118 5.42538 24.116 3.84928 22.8493C3.383 22.4743 2.82708 21.4993 2.98063 20.9144C3.21739 20.0142 4.93539 19.7654 5.757 19.718C6.68433 19.6651 7.60363 19.8402 8.5185 19.8137C10.2751 19.7634 9.43176 11.4716 9.33368 10.2483C9.28947 9.69727 9.22194 9.13574 9.22274 8.58269C9.22355 8.00321 8.77736 5.26988 8.82279 4.69239C8.8252 4.30591 8.85414 3.889 9.14034 3.60973C9.37951 3.37585 9.74851 3.29456 10.0978 3.2781C10.2912 3.2781 10.4813 3.27262 10.6738 3.29705C11.0975 3.29705 11.5654 3.5469 11.9328 3.78677C12.1607 3.93638 12.3749 4.11491 12.5828 4.30391C12.7476 4.45452 12.9421 4.73029 13.1479 4.77867C13.2524 4.8031 13.3602 4.7667 13.4582 4.71583C13.8389 4.51935 14.2204 4.32685 14.6059 4.14533C15.0528 3.93538 15.499 3.72343 15.9456 3.51199C16.5433 3.22923 17.2918 2.28072 17.9188 3.0507C18.3506 3.58081 18.2468 4.56972 18.7184 5.04497C18.8036 5.13074 18.9089 5.19508 19.0186 5.18909C19.2377 5.17762 19.3876 4.89586 19.4222 4.62707C19.5014 4.00619 19.4129 3.32847 19.3752 2.7081C19.345 2.20541 19.302 1.68029 19.3253 1.17661C19.3297 1.07538 19.3394 0.970153 19.3832 0.884876C19.4483 0.758707 19.5749 0.703352 19.6951 0.688392C20.1626 0.629546 20.6438 0.632538 21.1137 0.622065C21.4979 0.613089 22.0149 0.640018 22.4076 0.859443C23.3144 1.36562 22.9699 3.37285 22.9981 4.2705C23.0415 5.66484 23.0853 7.05869 23.1239 8.45303C23.1978 11.148 23.2513 13.8434 23.2413 16.5393C23.2388 17.1472 23.1022 17.5706 22.6552 17.9621C21.2467 19.1954 17.738 19.6995 16.1619 18.4324C15.6956 18.0579 15.1397 17.0824 15.2936 16.4979C15.5304 15.5973 17.248 15.349 18.0696 15.3016C18.9969 15.2482 19.9166 15.4238 20.8315 15.3973C21.2234 15.3864 21.5261 15.1031 21.7062 14.6827C22.0748 13.8225 22.0466 12.7074 22.0145 11.7629Z" fill="white"/>
<path d="M14.7328 8.72138C14.9121 8.88395 15.1742 9.02159 15.1726 9.31632C15.1714 9.51081 15.0013 9.99355 14.7867 9.98856C14.728 9.98756 14.6729 9.95714 14.6203 9.92722C14.3232 9.75866 14.2115 9.54372 14.2995 9.17369C14.3321 9.03606 14.4812 8.61516 14.6581 8.67051C14.6862 8.67899 14.7099 8.70044 14.7328 8.72138Z" fill="white"/>
<path d="M14.6488 6.92303C14.8281 7.08611 15.0898 7.22325 15.0882 7.51847C15.0874 7.71247 14.917 8.1952 14.7023 8.19071C14.6436 8.18922 14.589 8.15879 14.5363 8.12887C14.2392 7.96031 14.1275 7.74588 14.2155 7.37585C14.2481 7.23821 14.3968 6.81681 14.5741 6.87217C14.6022 6.88114 14.6259 6.90209 14.6488 6.92303Z" fill="white"/>
<path d="M13.1005 8.72138C13.2798 8.88395 13.5419 9.02159 13.5403 9.31632C13.539 9.51081 13.369 9.99355 13.1544 9.98856C13.0953 9.98756 13.0406 9.95714 12.988 9.92722C12.6909 9.75866 12.5792 9.54372 12.6672 9.17369C12.6997 9.03606 12.8489 8.61516 13.0257 8.67051C13.0539 8.67899 13.0776 8.70044 13.1005 8.72138Z" fill="white"/>
<path d="M13.1005 6.92303C13.2798 7.08611 13.5419 7.22325 13.5403 7.51847C13.539 7.71247 13.369 8.1952 13.1544 8.19071C13.0953 8.18922 13.0406 8.15879 12.988 8.12887C12.6909 7.96031 12.5792 7.74588 12.6672 7.37585C12.6997 7.23821 12.8489 6.81681 13.0257 6.87217C13.0539 6.88114 13.0776 6.90209 13.1005 6.92303Z" fill="white"/>
<path d="M23.0231 8.49918C22.9845 7.10483 22.9406 5.71099 22.8972 4.31664C22.8691 3.419 23.2136 1.41176 22.3068 0.905586C21.914 0.686161 21.3971 0.659232 21.0128 0.668208C20.5429 0.678681 20.0618 0.675688 19.5943 0.734534C19.4741 0.749495 19.3475 0.80485 19.2824 0.931019C19.2386 1.0163 19.2289 1.12152 19.2245 1.22275C19.2012 1.72643 19.2442 2.25156 19.2743 2.75424C19.3121 3.37461 19.4005 4.05234 19.3214 4.67321C19.2868 4.942 19.1369 5.22376 18.9178 5.23523C18.8081 5.24122 18.7027 5.17689 18.6175 5.09111C18.146 4.61586 18.2497 3.62695 17.818 3.09684C17.1909 2.32686 16.4425 3.27537 15.8448 3.55813C15.3982 3.76958 14.952 3.98152 14.505 4.19147C14.1195 4.37299 13.7381 4.56549 13.3574 4.76197C13.2593 4.81284 13.1516 4.84925 13.0471 4.82481C12.8413 4.77644 12.6467 4.50066 12.4819 4.35005C12.2741 4.16105 12.0599 3.98252 11.832 3.83291C11.4646 3.59304 10.9967 3.34319 10.573 3.34319C10.3805 3.31876 10.1903 3.32424 9.99699 3.32424C9.64768 3.3407 9.27868 3.42199 9.03951 3.65587C8.75331 3.93514 8.72437 4.35205 8.72196 4.73854C8.67653 5.31602 9.12272 8.04936 9.12191 8.62884C9.12111 9.18189 9.18864 9.74341 9.23285 10.2945C9.33093 11.5178 10.1743 19.8095 8.41767 19.8599C7.5028 19.8863 6.5835 19.7113 5.65617 19.7641C4.83456 19.8115 3.11656 20.0604 2.8798 20.9605C2.72625 21.5455 3.28217 22.5204 3.74845 22.8954C5.32455 24.1621 8.8333 23.6579 10.2418 22.4247C10.6888 22.0332 10.825 21.6098 10.8274 21.0024C10.8343 19.2385 10.8383 17.4677 10.7708 15.7068C10.7 13.8611 10.7547 12.011 10.6144 10.1688C10.5441 9.24871 10.4255 8.33461 10.3009 7.4215C10.1984 6.67047 9.96684 5.79227 10.2237 5.04623C10.29 4.85373 10.4227 4.6757 10.606 4.61237C10.811 4.54155 11.0365 4.62483 11.2178 4.74851C12.0699 5.32999 12.3304 6.28748 13.5162 5.94886C14.7587 5.59429 16.01 4.93602 17.2066 4.42386C17.289 4.38845 17.3863 4.36751 17.4703 4.39992C17.6809 4.48171 17.7931 4.76397 17.8506 5.00833C17.9221 5.31353 17.9824 5.62521 18.1609 5.86708C18.3357 6.10446 18.5934 6.22863 18.8511 6.26055C19.1779 6.30094 19.6092 6.26503 19.86 5.9723C20.0602 5.73891 20.1828 5.41526 20.2447 5.08712C20.3202 4.68617 20.3138 4.26977 20.3102 3.85834C20.3038 3.13973 20.28 1.86158 21.1113 1.91644C21.217 1.92342 21.3235 1.95882 21.41 2.03413C21.6017 2.20169 21.5876 2.49442 21.5515 2.75025C21.2817 4.65426 21.6427 6.55677 21.7432 8.45679C21.777 9.09412 21.7822 9.73195 21.8288 10.3683C21.8638 10.848 21.8972 11.3278 21.9136 11.809C21.9458 12.7535 21.9739 13.8686 21.6053 14.7288C21.4252 15.1492 21.1226 15.4325 20.7306 15.4435C19.8158 15.4699 18.8961 15.2944 17.9688 15.3477C17.1471 15.3951 15.4295 15.6434 15.1928 16.5441C15.0388 17.1286 15.5947 18.104 16.061 18.4785C17.6371 19.7457 21.1459 19.2415 22.5544 18.0082C23.0013 17.6168 23.138 17.1934 23.1404 16.5855C23.1505 13.8895 23.097 11.1941 23.0231 8.49918Z" fill="white" stroke="#381E3E" stroke-miterlimit="10"/>
<path d="M15.0882 7.51872C15.0874 7.71271 14.917 8.19544 14.7023 8.19096C14.6436 8.18946 14.589 8.15904 14.5363 8.12912C14.2393 7.96056 14.1275 7.74612 14.2156 7.37609C14.2481 7.23845 14.3968 6.81706 14.5741 6.87241C14.6022 6.88139 14.626 6.90233 14.6489 6.92328C14.8281 7.08635 15.0898 7.22349 15.0882 7.51872Z" stroke="#381E3E" stroke-miterlimit="10"/>
<path d="M13.5403 9.31649C13.539 9.51098 13.369 9.99371 13.1544 9.98872C13.0953 9.98773 13.0406 9.95731 12.988 9.92739C12.6909 9.75883 12.5792 9.54389 12.6672 9.17386C12.6997 9.03622 12.8489 8.61532 13.0257 8.67068C13.0539 8.67916 13.0776 8.7006 13.1005 8.72155C13.2798 8.88412 13.5419 9.02176 13.5403 9.31649Z" stroke="#381E3E" stroke-miterlimit="10"/>
<path d="M15.1726 9.31649C15.1714 9.51098 15.0014 9.99371 14.7868 9.98872C14.7281 9.98773 14.673 9.95731 14.6203 9.92739C14.3233 9.75883 14.2115 9.54389 14.2996 9.17386C14.3321 9.03622 14.4813 8.61532 14.6581 8.67068C14.6863 8.67916 14.71 8.7006 14.7329 8.72155C14.9122 8.88412 15.1742 9.02176 15.1726 9.31649Z" stroke="#381E3E" stroke-miterlimit="10"/>
<path d="M13.5403 7.51872C13.539 7.71271 13.369 8.19544 13.1544 8.19096C13.0953 8.18946 13.0406 8.15904 12.988 8.12912C12.6909 7.96056 12.5792 7.74612 12.6672 7.37609C12.6997 7.23845 12.8489 6.81706 13.0257 6.87241C13.0539 6.88139 13.0776 6.90233 13.1005 6.92328C13.2798 7.08635 13.5419 7.22349 13.5403 7.51872Z" stroke="#381E3E" stroke-miterlimit="10"/>
</g>
<defs>
<clipPath id="clip0_248_228">
<rect width="26" height="24" fill="white"/>
</clipPath>
</defs>
</svg>
