<svg width="227" height="227" viewBox="0 0 227 227" fill="none" xmlns="http://www.w3.org/2000/svg">
<path d="M224.685 77.5711C224.257 63.9397 223.771 50.3133 223.289 36.6819C222.977 27.9064 226.798 8.28334 216.741 3.33491C212.385 1.18978 206.652 0.926517 202.391 1.01427C197.179 1.11665 191.843 1.0874 186.659 1.66269C185.326 1.80895 183.921 2.3501 183.199 3.58355C182.713 4.41723 182.606 5.44592 182.557 6.4356C182.299 11.3597 182.776 16.4933 183.11 21.4076C183.529 27.4725 184.51 34.098 183.632 40.1678C183.248 42.7956 181.586 45.5501 179.156 45.6622C177.939 45.7207 176.771 45.0918 175.826 44.2533C170.597 39.6071 171.747 29.9394 166.959 24.757C160.005 17.2295 151.704 26.5023 145.075 29.2666C140.122 31.3337 135.174 33.4057 130.217 35.4582C125.942 37.2329 121.711 39.1147 117.489 41.0356C116.402 41.5329 115.207 41.8888 114.048 41.6499C111.765 41.177 109.608 38.4809 107.78 37.0086C105.475 35.1609 103.099 33.4155 100.571 31.9529C96.4969 29.6079 91.3079 27.1654 86.6092 27.1654C84.4739 26.9265 82.3653 26.9801 80.221 26.9801C76.3471 27.141 72.2547 27.9357 69.6022 30.2222C66.4282 32.9523 66.1072 37.0281 66.0804 40.8064C65.5767 46.452 70.525 73.1735 70.5161 78.8386C70.5072 84.2453 71.2561 89.7349 71.7465 95.1221C72.8342 107.081 82.187 188.143 62.7058 188.635C52.5595 188.894 42.3642 187.182 32.0798 187.699C22.9678 188.162 3.91455 190.595 1.28883 199.395C-0.414102 205.114 5.75122 214.645 10.9224 218.311C28.402 230.694 67.3153 225.765 82.9359 213.709C87.8931 209.882 89.4043 205.743 89.4311 199.805C89.5069 182.561 89.5515 165.248 88.8025 148.034C88.0179 129.99 88.6242 111.903 87.0684 93.8936C86.2883 84.8986 84.9732 75.9622 83.5912 67.0355C82.4544 59.6933 79.8867 51.108 82.7353 43.8145C83.4708 41.9326 84.942 40.1922 86.9748 39.573C89.2483 38.8807 91.7492 39.6949 93.7598 40.904C103.211 46.5886 106.099 55.9491 119.25 52.6388C133.03 49.1725 146.907 42.7371 160.178 37.7301C161.092 37.384 162.171 37.1792 163.103 37.4961C165.439 38.2957 166.683 41.0551 167.32 43.444C168.114 46.4277 168.782 49.4747 170.762 51.8392C172.701 54.1599 175.558 55.3738 178.416 55.6859C182.04 56.0808 186.824 55.7297 189.605 52.8679C191.825 50.5863 193.185 47.4222 193.872 44.2143C194.71 40.2945 194.638 36.2237 194.598 32.2016C194.527 25.1762 194.264 12.6809 203.483 13.2171C204.655 13.2854 205.837 13.6315 206.795 14.3677C208.922 16.0058 208.766 18.8676 208.364 21.3686C205.373 39.9825 209.376 58.5818 210.491 77.1567C210.865 83.3873 210.923 89.6228 211.44 95.8437C211.828 100.534 212.198 105.224 212.381 109.928C212.738 119.162 213.05 130.063 208.962 138.473C206.965 142.583 203.608 145.352 199.261 145.46C189.115 145.718 178.915 144.002 168.631 144.524C159.519 144.987 140.47 147.415 137.844 156.219C136.137 161.933 142.302 171.469 147.473 175.131C164.953 187.519 203.866 182.59 219.487 170.533C224.444 166.706 225.96 162.567 225.987 156.624C226.098 130.268 225.505 103.917 224.685 77.5711Z" stroke="#381E3E" stroke-miterlimit="10" stroke-width="3"/>
<path d="M135.566 68.4348C135.557 70.3313 133.667 75.0505 131.287 75.0067C130.636 74.992 130.03 74.6946 129.446 74.4021C126.151 72.7543 124.912 70.6579 125.888 67.0404C126.249 65.6949 127.899 61.5752 129.865 62.1164C130.177 62.2041 130.44 62.4089 130.694 62.6137C132.682 64.2079 135.584 65.5486 135.566 68.4348Z" stroke="#381E3E" stroke-miterlimit="10" stroke-width="3"/>
<path d="M118.399 86.0102C118.385 87.9116 116.5 92.6309 114.119 92.5821C113.464 92.5724 112.858 92.275 112.274 91.9824C108.979 90.3346 107.74 88.2333 108.716 84.6159C109.077 83.2703 110.731 79.1555 112.693 79.6967C113.005 79.7796 113.268 79.9892 113.522 80.194C115.51 81.7833 118.417 83.1289 118.399 86.0102Z" stroke="#381E3E" stroke-miterlimit="10" stroke-width="3"/>
<path d="M136.502 86.0102C136.489 87.9116 134.603 92.6309 132.223 92.5821C131.572 92.5724 130.961 92.275 130.377 91.9824C127.083 90.3346 125.844 88.2333 126.82 84.6159C127.181 83.2703 128.835 79.1555 130.796 79.6967C131.108 79.7796 131.371 79.9892 131.625 80.194C133.614 81.7833 136.52 83.1289 136.502 86.0102Z" stroke="#381E3E" stroke-miterlimit="10" stroke-width="3"/>
<path d="M118.399 68.4348C118.385 70.3313 116.5 75.0505 114.119 75.0067C113.464 74.992 112.858 74.6946 112.274 74.4021C108.979 72.7543 107.74 70.6579 108.716 67.0404C109.077 65.6949 110.731 61.5752 112.693 62.1164C113.005 62.2041 113.268 62.4089 113.522 62.6137C115.51 64.2079 118.417 65.5486 118.399 68.4348Z" stroke="#381E3E" stroke-miterlimit="10" stroke-width="3"/>
</svg>
