<svg width="360" height="378" viewBox="0 0 360 378" fill="none" xmlns="http://www.w3.org/2000/svg">
<path d="M404.4 60.8118L401.696 56.4405C379.865 21.0566 340.831 -0.749857 299.155 0.652973C292.521 0.874174 285.919 1.67045 279.424 3.03278C240.503 11.2243 206.637 40.1702 192.653 77.2575C184.403 99.064 182.102 124.165 166.433 141.475C146.035 164.02 111.415 164.709 80.982 163.77C50.5491 162.83 15.9035 163.632 -4.39348 186.315C-17.0948 200.481 -21.1441 220.622 -20.1129 239.585C-17.3589 289.711 18.1545 334.639 63.4013 356.959C108.648 379.279 161.918 381.271 211.441 371.464C280.808 357.686 346.779 319.935 386.442 261.592C426.106 203.249 436.128 123.776 404.4 60.8118Z" fill="#EBEBEB"/>
<path d="M385.597 356.544C385.597 356.661 304.848 356.761 205.264 356.761C105.679 356.761 24.9133 356.678 24.9133 356.544C24.9133 356.41 105.646 356.327 205.264 356.327C304.881 356.327 385.597 356.444 385.597 356.544Z" fill="#263238"/>
<path d="M122.566 69.1606C109.149 90.2612 110.026 119.521 124.69 139.778C134.463 153.287 149.118 162.349 160.755 174.271C172.392 186.192 181.237 203.79 175.092 219.289C168.839 235.065 150.522 241.477 136.812 251.475C121.685 262.493 111.416 278.944 108.161 297.373C104.906 315.801 108.918 334.774 119.356 350.307H261.827C261.827 350.307 286.857 302.614 254.68 266.256C222.502 229.898 205.222 229.313 206.409 205.47C207.596 181.628 224.283 173.895 233.821 164.949C243.36 156.004 289.833 135.163 262.421 69.1522L122.566 69.1606Z" fill="#FAFAFA"/>
<path d="M122.566 69.1606H125.016H132.239H160.044L262.421 69.0854H262.53V69.1857C264.628 74.1838 266.415 79.3072 267.88 84.5263C269.418 89.9907 270.432 95.5894 270.906 101.246C271.399 107.159 271.096 113.112 270.003 118.944C268.804 124.99 266.63 130.801 263.566 136.149C261.979 138.877 260.185 141.479 258.199 143.932C256.172 146.419 253.98 148.765 251.637 150.955C249.263 153.185 246.777 155.292 244.188 157.267C241.596 159.273 238.888 161.162 236.246 163.169C234.925 164.164 233.738 165.284 232.45 166.404C231.163 167.524 229.884 168.569 228.563 169.623C225.929 171.729 223.271 173.803 220.763 176.135C215.528 180.672 211.506 186.441 209.059 192.922C207.883 196.246 207.141 199.708 206.852 203.222C206.777 204.058 206.66 204.977 206.626 205.863C206.593 206.75 206.559 207.636 206.626 208.522C206.645 210.301 206.824 212.075 207.161 213.822C207.824 217.362 209.269 220.71 211.391 223.62C213.575 226.53 216.048 229.21 218.773 231.621C224.182 236.561 229.926 241.285 235.418 246.384C240.911 251.484 246.286 256.801 251.469 262.427C254.114 265.212 256.587 268.155 258.876 271.239C261.179 274.361 263.18 277.695 264.854 281.195C268.237 288.29 270.316 295.936 270.99 303.767C271.672 311.707 271.204 319.704 269.602 327.51C268.823 331.454 267.801 335.346 266.542 339.164C265.305 343.013 263.796 346.771 262.028 350.408L261.969 350.525H119.239L119.181 350.433C112.5 340.373 108.402 328.822 107.251 316.801C106.093 305.254 107.787 293.599 112.183 282.859C116.362 272.593 122.796 263.399 131.01 255.956C134.996 252.438 139.3 249.298 143.868 246.577C148.315 243.818 152.805 241.26 157.043 238.467C161.286 235.815 165.183 232.648 168.647 229.037C171.954 225.491 174.408 221.237 175.82 216.598C177.057 212.072 177.251 207.324 176.388 202.712C175.563 198.261 174.078 193.958 171.982 189.946C169.978 186.083 167.574 182.44 164.81 179.078C162.142 175.852 159.241 172.826 156.132 170.024C150.104 164.473 143.926 159.616 138.375 154.625C135.591 152.117 132.958 149.609 130.525 147.042C128.167 144.53 125.994 141.85 124.021 139.025C120.455 133.844 117.706 128.146 115.87 122.13C114.262 116.934 113.329 111.554 113.095 106.12C112.978 104.883 113.028 103.662 113.028 102.467C113.028 101.271 113.028 100.109 113.136 98.9808C113.245 97.8522 113.304 96.7486 113.387 95.6368C113.471 94.5249 113.696 93.53 113.839 92.5185C114.762 86.3605 116.647 80.3856 119.423 74.812C119.799 73.9498 120.229 73.1121 120.711 72.304L121.739 70.5568C122.282 69.6288 122.575 69.1606 122.575 69.1606L121.739 70.5818L120.744 72.304C120.274 73.1157 119.85 73.953 119.473 74.812C116.722 80.3991 114.86 86.3818 113.956 92.5436C113.814 93.5468 113.646 94.5834 113.521 95.6451C113.396 96.7068 113.354 97.8187 113.27 98.9473C113.187 100.076 113.187 101.238 113.178 102.425C113.17 103.612 113.136 104.833 113.253 106.07C113.495 111.486 114.437 116.847 116.054 122.021C117.888 128.015 120.634 133.692 124.197 138.85C126.164 141.663 128.335 144.329 130.692 146.825C133.117 149.4 135.75 151.908 138.534 154.349C144.085 159.365 150.238 164.172 156.307 169.731C159.441 172.554 162.364 175.603 165.052 178.852C167.831 182.239 170.249 185.906 172.267 189.795C174.383 193.832 175.882 198.164 176.714 202.645C177.59 207.306 177.395 212.106 176.146 216.681C174.727 221.374 172.251 225.679 168.906 229.263C165.425 232.894 161.511 236.084 157.252 238.76C152.997 241.561 148.508 244.119 144.068 246.878C139.52 249.592 135.233 252.72 131.261 256.224C123.098 263.628 116.701 272.77 112.543 282.976C108.173 293.661 106.493 305.256 107.652 316.742C108.803 328.694 112.881 340.179 119.523 350.182L119.356 350.09H261.827L261.635 350.207C263.4 346.58 264.903 342.83 266.133 338.988C267.385 335.187 268.402 331.311 269.176 327.384C270.771 319.617 271.236 311.659 270.555 303.759C269.894 295.97 267.829 288.366 264.461 281.312C262.799 277.837 260.815 274.526 258.534 271.422C256.25 268.354 253.788 265.423 251.16 262.644C246.005 257.032 240.663 251.693 235.134 246.627C229.65 241.535 223.923 236.82 218.497 231.855C215.751 229.424 213.256 226.724 211.049 223.796C208.885 220.85 207.403 217.461 206.71 213.872C206.375 212.099 206.193 210.301 206.166 208.497C206.125 207.602 206.166 206.708 206.166 205.813C206.166 204.919 206.317 204.033 206.384 203.146C206.691 199.611 207.449 196.13 208.641 192.788C211.109 186.251 215.169 180.432 220.454 175.859C222.962 173.535 225.645 171.429 228.279 169.33C229.6 168.277 230.895 167.215 232.158 166.128C233.42 165.041 234.666 163.871 235.97 162.868C238.628 160.861 241.329 158.972 243.912 156.974C246.493 155.008 248.974 152.912 251.344 150.696C253.672 148.515 255.853 146.183 257.873 143.715C259.843 141.27 261.628 138.683 263.215 135.974C266.261 130.662 268.424 124.891 269.619 118.886C270.706 113.101 271.013 107.196 270.53 101.33C270.063 95.6739 269.058 90.0753 267.529 84.6099C266.084 79.3764 264.32 74.2365 262.245 69.2191L262.387 69.3111L160.069 69.2359H132.247H125.008L122.566 69.1606Z" fill="#263238"/>
<path d="M256.736 107.859C277.72 111.312 244.639 148.48 225.904 163.144C215.036 171.629 203.416 180.842 198.266 193.616C192.414 208.112 196.753 224.397 193.927 238.977C193.836 239.48 193.559 239.93 193.15 240.236C192.741 240.542 192.231 240.683 191.723 240.629C191.215 240.575 190.746 240.33 190.411 239.945C190.075 239.56 189.898 239.062 189.915 238.551C190.048 228.979 189.798 219.415 188.243 209.993C185.994 196.617 180.861 183.417 171.523 173.627C163.873 165.627 153.85 160.318 145.699 152.844C133.794 141.934 121.563 127.865 120.368 111.763C120.368 111.763 143.224 93.3712 155.915 95.6702C170.745 98.3872 185.342 121.269 208.315 118.652C224.299 116.821 232.4 103.863 256.736 107.859Z" fill="#381E3E"/>
<path d="M258.6 306.785C258.074 301.535 256.669 295.6 252.013 293.125C249.195 291.62 245.759 291.787 242.666 292.598C239.573 293.409 236.672 294.822 233.612 295.733C227.53 297.522 221.034 297.314 215.078 295.14C209.385 293.05 204.503 289.288 199.194 286.295C193.886 283.302 187.724 281.112 181.839 282.575C171.69 285.083 166.406 297.322 156.374 300.273C151.91 301.577 147.12 300.841 142.589 299.821C138.058 298.801 133.501 297.472 128.862 297.648C125.217 297.782 121.43 299.044 118.88 301.535L118.813 301.61C118.388 302.026 118.002 302.48 117.659 302.965C114.549 307.145 114.048 312.687 115.009 317.754C116.079 323.43 118.729 328.672 121.572 333.696C124.916 339.615 128.728 345.5 134.262 349.446C141.101 354.32 149.686 350.959 158.055 351.62C177.559 353.158 198.542 354.203 218.054 352.698C228.362 351.862 238.018 353.016 246.194 346.688C251.946 342.24 255.691 335.535 257.497 328.496C259.303 321.457 259.328 314.017 258.6 306.785Z" fill="#381E3E"/>
<g opacity="0.24">
<path d="M221.783 296.737C220.688 298.409 220.211 300.682 221.273 302.388C222.335 304.093 223.781 305.657 224.232 307.621C224.96 310.698 223.104 313.707 221.724 316.558C219.171 321.655 218.207 327.401 218.957 333.052C219.748 338.722 222.676 343.875 227.142 347.457C229.123 348.987 231.698 350.174 234.089 349.421C236.338 348.719 237.784 346.437 238.269 344.121C238.754 341.805 238.344 339.423 238.051 337.09C236.69 326.22 236.972 315.206 238.887 304.419C239.205 302.622 239.506 300.565 238.369 299.136C237.549 298.303 236.507 297.723 235.368 297.464C231.021 296.018 226.331 297.623 221.825 296.77" fill="black"/>
</g>
<path d="M108.898 356.778C108.898 356.778 108.505 350.241 117.032 346.596H266.885C266.885 346.596 274.702 350.558 275.663 356.628L108.898 356.778Z" fill="#263238"/>
<path d="M263.7 69.9548L263.458 70.0635L122.55 69.1606C122.55 69.1606 122.048 68.8429 121.304 68.2494C120.426 67.5612 119.785 66.6153 119.471 65.5444C119.158 64.4734 119.188 63.3313 119.557 62.2781C119.926 61.225 120.615 60.3138 121.528 59.6725C122.441 59.0312 123.532 58.6919 124.648 58.7023L261.418 59.8058C267.044 59.8559 268.816 67.5471 263.7 69.9548Z" fill="#263238"/>
<g opacity="0.24">
<path d="M241.128 123.71C241.412 124.253 240.351 125.382 238.336 127.221C236.321 129.06 233.32 131.476 229.591 134.511C225.114 138.209 220.363 141.563 215.379 144.543C212.283 146.336 209.025 147.833 205.648 149.015C203.818 149.648 201.95 150.164 200.055 150.562C198.065 150.985 196.044 151.247 194.011 151.348C189.892 151.572 185.769 151.004 181.864 149.676C178.412 148.42 175.131 146.735 172.099 144.66C169.29 142.804 166.874 140.965 164.575 139.201C162.276 137.437 160.228 135.74 158.372 134.135C150.974 127.722 147.078 123.007 147.83 122.096C148.583 121.185 153.85 124.153 162.042 129.169L168.73 133.265C171.13 134.72 173.696 136.333 176.321 137.821C178.926 139.35 181.687 140.598 184.556 141.542C187.492 142.421 190.558 142.783 193.618 142.612C200.039 142.277 206.267 140.02 211.659 137.412C217.051 134.803 221.933 131.76 226.164 129.386C229.511 127.411 233.011 125.705 236.63 124.286C239.28 123.358 240.886 123.183 241.128 123.71Z" fill="black"/>
</g>
<path d="M190.015 256.441C190.607 256.206 191.269 256.213 191.856 256.461C192.443 256.71 192.908 257.179 193.152 257.768C193.395 258.358 193.397 259.019 193.156 259.609C192.916 260.2 192.452 260.671 191.866 260.922C191.28 261.174 190.619 261.184 190.025 260.951C189.432 260.718 188.954 260.261 188.695 259.678C188.437 259.096 188.418 258.435 188.643 257.838C188.868 257.242 189.319 256.758 189.898 256.492" fill="#CEAB5E"/>
<path d="M139.621 147.026C139.438 146.875 139.27 146.707 139.119 146.524L137.757 145.036C137.18 144.376 136.419 143.606 135.642 142.628L132.983 139.284C132.072 137.997 131.044 136.609 130.007 135.104L128.477 132.672C128.218 132.254 127.942 131.836 127.691 131.392L126.955 130.038C124.731 126.095 122.988 121.899 121.764 117.54C120.534 113.185 119.871 108.689 119.791 104.164C119.791 103.119 119.849 102.107 119.866 101.113C119.866 100.619 119.866 100.134 119.933 99.6579C120 99.1814 120.033 98.7132 120.084 98.2534C120.192 97.3338 120.259 96.4393 120.385 95.5866C120.51 94.7339 120.685 93.9146 120.828 93.1538C121.062 91.5905 121.48 90.2278 121.772 88.9738C121.931 88.3719 122.056 87.8034 122.215 87.3018L122.675 85.9057L123.319 83.9913C123.38 83.7633 123.464 83.5421 123.57 83.3308C123.535 83.564 123.479 83.7935 123.402 84.0163C123.26 84.5012 123.076 85.1449 122.834 85.9558L122.416 87.352C122.274 87.8619 122.157 88.4304 122.006 89.024C121.739 90.2362 121.346 91.6072 121.17 93.204C121.037 93.9731 120.903 94.784 120.761 95.6284C120.619 96.4727 120.585 97.3589 120.485 98.2785C120.485 98.7383 120.393 99.1981 120.343 99.6746C120.293 100.151 120.343 100.636 120.293 101.121C120.293 102.107 120.226 103.111 120.234 104.147C120.316 108.646 120.97 113.115 122.182 117.448C123.399 121.775 125.119 125.944 127.307 129.871C127.549 130.322 127.791 130.774 128.026 131.225C128.26 131.677 128.552 132.061 128.803 132.496L130.308 134.929C131.328 136.467 132.339 137.855 133.225 139.109L135.834 142.453C136.586 143.448 137.33 144.225 137.882 144.911L139.186 146.457C139.343 146.637 139.488 146.827 139.621 147.026Z" fill="#263238"/>
<path d="M131.687 271.222C131.729 271.125 131.779 271.033 131.838 270.946L132.339 270.16C132.565 269.809 132.841 269.391 133.175 268.889L133.702 268.053C133.911 267.777 134.153 267.502 134.396 267.217L136.068 265.211C136.712 264.517 137.447 263.798 138.225 263.012C140.027 261.277 141.943 259.662 143.96 258.18C148.399 254.836 154.125 251.492 160.329 247.571C163.59 245.561 166.726 243.353 169.717 240.959C172.926 238.402 175.76 235.408 178.135 232.064C182.484 225.383 184.846 217.604 184.949 209.634C185.055 203.137 183.967 196.676 181.739 190.573C180.263 186.454 178.41 182.48 176.204 178.702C175.427 177.356 174.791 176.336 174.357 175.642L173.863 174.856C173.755 174.681 173.705 174.58 173.705 174.58C173.779 174.655 173.844 174.74 173.897 174.831L174.432 175.6C174.892 176.269 175.552 177.272 176.346 178.618C178.621 182.376 180.524 186.346 182.031 190.473C184.319 196.601 185.453 203.101 185.375 209.642C185.34 211.528 185.186 213.41 184.915 215.277C184.644 217.229 184.234 219.16 183.686 221.053C182.545 225.063 180.769 228.865 178.428 232.314C176.028 235.695 173.163 238.721 169.917 241.301C166.909 243.698 163.757 245.909 160.479 247.922C154.251 251.81 148.516 255.12 144.077 258.439C142.061 259.902 140.14 261.491 138.325 263.196C137.548 263.974 136.804 264.676 136.151 265.361L134.479 267.326C134.229 267.627 133.986 267.903 133.777 268.162L133.234 268.956L132.398 270.202L131.863 270.963C131.811 271.054 131.753 271.14 131.687 271.222Z" fill="#263238"/>
<path d="M123.912 285.994C123.862 286.13 123.8 286.261 123.728 286.387L123.127 287.449C122.859 287.9 122.541 288.469 122.215 289.121C121.889 289.773 121.471 290.542 121.12 291.42C120.936 291.854 120.736 292.306 120.535 292.774C120.334 293.242 120.167 293.76 119.967 294.279C119.565 295.315 119.248 296.452 118.88 297.623C117.426 302.864 116.924 308.323 117.4 313.741C117.542 314.978 117.642 316.165 117.86 317.252C117.952 317.795 118.027 318.33 118.136 318.832C118.244 319.334 118.361 319.819 118.47 320.278C118.654 321.206 118.93 322.017 119.131 322.736C119.331 323.455 119.532 324.074 119.716 324.575L120.109 325.729C120.165 325.859 120.202 325.998 120.217 326.139C120.137 326.022 120.072 325.896 120.025 325.762C119.9 325.453 119.749 325.085 119.557 324.634C119.304 324.039 119.084 323.43 118.896 322.811C118.671 322.092 118.378 321.282 118.169 320.354C118.052 319.894 117.935 319.409 117.81 318.907C117.684 318.406 117.609 317.862 117.5 317.319C117.266 316.215 117.149 315.028 116.999 313.783C116.475 308.331 116.98 302.83 118.487 297.564C118.863 296.36 119.197 295.215 119.624 294.178C119.833 293.66 120 293.15 120.217 292.674L120.836 291.311C121.204 290.475 121.672 289.697 121.998 289.029C122.293 288.453 122.619 287.895 122.976 287.357L123.645 286.328C123.812 286.103 123.896 285.986 123.912 285.994Z" fill="#263238"/>
<path d="M227.267 306.091L227.1 306.208L226.582 306.534L224.55 307.755L223.079 308.591C222.527 308.9 221.917 309.185 221.265 309.511C219.944 310.146 218.489 310.957 216.767 311.609L214.092 312.704C213.164 313.072 212.152 313.365 211.132 313.716C209.101 314.46 206.844 314.995 204.494 315.605C194.18 318.021 183.481 318.305 173.053 316.441C170.662 315.956 168.388 315.538 166.314 314.903C165.278 314.602 164.258 314.368 163.305 314.067L160.579 313.072C158.832 312.512 157.327 311.785 155.981 311.216C155.313 310.923 154.686 310.664 154.125 310.38L152.604 309.586L150.514 308.474L149.979 308.173L149.803 308.064C149.803 308.064 149.879 308.064 150.004 308.14L150.556 308.399L152.679 309.435L154.209 310.188C154.778 310.455 155.413 310.698 156.082 310.982C157.428 311.517 158.932 312.228 160.688 312.763L163.38 313.741C164.333 314.058 165.353 314.284 166.39 314.577C168.455 315.195 170.72 315.588 173.078 316.065C183.458 317.862 194.091 317.578 204.361 315.229C206.702 314.627 208.95 314.117 210.982 313.39C212.002 313.047 213.005 312.771 213.933 312.403L216.608 311.341C218.33 310.706 219.793 309.92 221.114 309.31C221.766 308.992 222.385 308.716 222.937 308.474L224.425 307.638L226.49 306.484L227.033 306.2C227.2 306.108 227.267 306.083 227.267 306.091Z" fill="#263238"/>
<path d="M235.987 129.152C235.935 129.213 235.876 129.266 235.811 129.311L235.259 129.762C234.749 130.172 234.039 130.749 233.127 131.434C231.272 132.906 228.58 135.037 225.177 137.579C221.218 140.61 217.065 143.38 212.746 145.872C210.177 147.309 207.499 148.542 204.737 149.559C201.757 150.643 198.649 151.334 195.491 151.615C189.35 151.96 183.227 150.686 177.734 147.92C175.359 146.714 173.066 145.351 170.871 143.841C168.831 142.403 166.966 141.006 165.32 139.661C161.976 137.002 159.417 134.753 157.612 133.215L155.547 131.426L155.02 130.958L154.844 130.782C154.844 130.782 154.92 130.782 155.045 130.916L155.605 131.359L157.72 133.081C159.559 134.586 162.185 136.793 165.512 139.418C167.184 140.731 169.031 142.11 171.08 143.531C173.267 145.015 175.548 146.356 177.91 147.544C183.348 150.255 189.399 151.502 195.466 151.164C198.586 150.887 201.658 150.207 204.603 149.141C207.347 148.138 210.008 146.922 212.562 145.504C216.875 143.058 221.032 140.347 225.01 137.387C228.421 134.879 231.138 132.789 233.036 131.359L235.217 129.687L235.794 129.269C235.852 129.221 235.917 129.181 235.987 129.152Z" fill="#263238"/>
<g opacity="0.24">
<path d="M160.588 313.114C164.55 310.054 170.118 310.79 175.017 311.826C179.916 312.863 184.848 314.527 189.806 313.833C193.543 313.306 196.97 311.475 200.674 310.673C204.377 309.87 208.833 310.464 210.881 313.632C194.511 318.907 176.871 318.725 160.613 313.114" fill="black"/>
</g>
<path d="M298.812 290.425L280.838 270.269L280.654 294.772L286.071 310.489L232.216 319.827L229.934 277.333L226.055 244.729C225.824 242.785 226.244 240.82 227.248 239.139C228.252 237.459 229.785 236.159 231.606 235.441L246.428 229.589L267.328 233.418L275.73 236.611C279.253 237.953 282.393 240.137 284.876 242.973L310.156 271.882" fill="#381E3E"/>
<path d="M279.584 265.42C280.599 265.406 281.612 265.334 282.619 265.203C285.043 264.833 287.303 263.747 289.106 262.085C290.91 260.422 292.176 258.259 292.743 255.873C292.951 254.876 293.104 253.869 293.202 252.855C293.27 253.128 293.296 253.41 293.278 253.691C293.284 254.45 293.205 255.207 293.044 255.948C292.537 258.431 291.263 260.691 289.401 262.409C287.539 264.127 285.184 265.215 282.669 265.52C281.918 265.617 281.158 265.634 280.403 265.57C280.124 265.565 279.847 265.514 279.584 265.42Z" fill="#CEAB5E"/>
<path d="M281.147 293.727C281.273 293.727 281.306 285.233 281.223 274.766C281.139 264.3 280.963 255.814 280.838 255.814C280.713 255.814 280.679 264.3 280.763 274.775C280.846 285.25 281.022 293.727 281.147 293.727Z" fill="#263238"/>
<path d="M279.174 299.955L246.637 286.855C245.351 286.337 244.235 285.47 243.415 284.352C242.595 283.234 242.104 281.909 241.997 280.527L239.615 249.327C239.615 249.327 239.899 236.051 231.606 235.408L226.916 237.264C220.822 240.499 219.317 249.377 220.144 256.224C221.323 265.955 221.816 279.732 223.129 288.176C224.216 295.09 228.145 301.167 234.933 302.948L275.011 311.626L279.174 299.955Z" fill="#381E3E"/>
<path d="M240.083 254.084C240.137 254.317 240.171 254.555 240.183 254.794C240.233 255.304 240.309 255.99 240.392 256.851C240.559 258.682 240.794 261.257 241.078 264.417C241.362 267.577 241.68 271.431 242.048 275.644C242.131 276.706 242.223 277.784 242.315 278.888C242.38 280.011 242.519 281.128 242.733 282.232C242.96 283.348 243.526 284.367 244.355 285.15C245.246 285.933 246.26 286.566 247.356 287.022C256.326 290.901 264.594 294.111 270.597 296.36L277.728 298.985L279.668 299.696C279.894 299.771 280.115 299.863 280.328 299.972C280.091 299.929 279.859 299.864 279.634 299.78L277.67 299.144C275.998 298.576 273.49 297.731 270.497 296.636C264.452 294.463 256.176 291.303 247.172 287.44C246.034 286.962 244.98 286.301 244.054 285.484C243.165 284.64 242.558 283.542 242.315 282.341C242.099 281.22 241.962 280.086 241.905 278.946C241.813 277.835 241.73 276.756 241.646 275.694C241.32 271.514 241.019 267.669 240.81 264.459C240.601 261.248 240.392 258.715 240.259 256.884C240.2 256.048 240.158 255.329 240.133 254.819C240.095 254.576 240.078 254.33 240.083 254.084Z" fill="#263238"/>
<path d="M221.44 271.046C221.474 271.183 221.493 271.323 221.499 271.464L221.607 272.668C221.708 273.78 221.833 275.276 221.992 277.099C222.151 278.921 222.402 281.187 222.728 283.645C223.048 286.306 223.536 288.945 224.191 291.545C224.498 292.884 225.036 294.16 225.779 295.315C226.505 296.376 227.319 297.375 228.212 298.3C229.733 299.865 231.491 301.183 233.42 302.204C235.219 303.118 237.147 303.75 239.138 304.077C238.997 304.095 238.853 304.095 238.712 304.077C238.308 304.05 237.906 303.997 237.508 303.918C236.038 303.644 234.613 303.162 233.278 302.488C231.294 301.49 229.487 300.174 227.928 298.592C227.003 297.657 226.164 296.642 225.42 295.558C224.639 294.37 224.073 293.054 223.748 291.67C223.084 289.051 222.601 286.389 222.301 283.703C222 281.195 221.8 279.005 221.666 277.132C221.532 275.26 221.457 273.738 221.415 272.685C221.415 272.2 221.415 271.799 221.415 271.473C221.401 271.33 221.409 271.186 221.44 271.046Z" fill="#263238"/>
<path d="M235.351 292.874C235.437 292.265 235.638 291.677 235.945 291.144C236.615 289.811 237.545 288.626 238.679 287.657C239.813 286.688 241.128 285.955 242.549 285.501C243.125 285.281 243.739 285.176 244.355 285.191C243.808 285.419 243.25 285.62 242.683 285.793C241.339 286.313 240.092 287.057 238.996 287.992C237.903 288.929 236.973 290.043 236.246 291.286C235.661 292.247 235.418 292.899 235.351 292.874Z" fill="#263238"/>
<path d="M241.755 269.148C241.826 269.169 241.893 269.2 241.956 269.24L242.541 269.55C243.295 269.922 244.071 270.248 244.865 270.528C247.79 271.554 250.928 271.825 253.986 271.314C258.528 270.504 262.585 267.981 265.322 264.266C266.957 262.121 267.983 259.573 268.29 256.893C268.441 255.484 268.293 254.06 267.855 252.713C267.392 251.338 266.587 250.103 265.514 249.126C264.457 248.137 263.125 247.49 261.694 247.27C261.015 247.149 260.318 247.183 259.655 247.37C258.992 247.556 258.38 247.891 257.865 248.349C257.398 248.806 257.128 249.427 257.112 250.079C257.127 250.728 257.349 251.356 257.748 251.868C258.163 252.364 258.672 252.772 259.246 253.069C259.82 253.366 260.447 253.546 261.092 253.599C263.356 253.881 265.654 253.59 267.776 252.753C269.899 251.916 271.777 250.56 273.239 248.809C274.347 247.446 275.181 245.882 275.697 244.202C276.081 242.93 276.289 241.61 276.315 240.281C276.324 239.442 276.263 238.603 276.131 237.773C276.081 237.514 276.039 237.297 276.014 237.13C276.007 237.055 276.007 236.979 276.014 236.904C276.36 237.985 276.529 239.114 276.516 240.248C276.524 241.597 276.339 242.94 275.964 244.236C275.033 247.359 273.024 250.051 270.294 251.831C267.565 253.612 264.292 254.365 261.058 253.958C260.368 253.897 259.696 253.701 259.082 253.379C258.468 253.058 257.924 252.618 257.48 252.086C257.026 251.501 256.774 250.786 256.761 250.046C256.762 249.285 257.062 248.555 257.597 248.014C258.159 247.513 258.826 247.144 259.55 246.936C260.274 246.727 261.035 246.685 261.777 246.811C263.298 247.036 264.713 247.722 265.832 248.775C266.964 249.798 267.811 251.097 268.29 252.546C268.745 253.947 268.899 255.428 268.741 256.893C268.415 259.631 267.355 262.231 265.673 264.417C263.352 267.584 260.058 269.903 256.294 271.02C252.53 272.137 248.504 271.991 244.831 270.603C243.746 270.256 242.712 269.767 241.755 269.148Z" fill="#CEAB5E"/>
<path d="M220.437 260.83C220.578 260.58 220.759 260.354 220.972 260.161C221.506 259.596 222.094 259.084 222.728 258.632C224.862 257.165 227.344 256.286 229.926 256.082C231.342 255.922 232.774 255.982 234.172 256.257C235.309 256.493 236.408 256.881 237.441 257.411C238.135 257.76 238.8 258.163 239.431 258.615C239.675 258.764 239.895 258.951 240.083 259.167C240.033 259.234 239.063 258.498 237.307 257.687C235.019 256.626 232.481 256.221 229.976 256.517C227.46 256.715 225.032 257.527 222.903 258.882C221.29 259.961 220.496 260.889 220.437 260.83Z" fill="#CEAB5E"/>
<path d="M225.645 238.518C226.438 239.265 227.323 239.908 228.279 240.432C229.322 240.967 230.456 241.301 231.623 241.418C233.043 241.561 234.476 241.36 235.803 240.833C237.103 240.279 238.25 239.418 239.147 238.325C239.887 237.413 240.453 236.373 240.819 235.257C241.119 234.209 241.29 233.128 241.329 232.039C241.41 232.327 241.447 232.625 241.437 232.925C241.451 233.745 241.341 234.562 241.111 235.349C240.77 236.524 240.202 237.62 239.439 238.576C238.523 239.775 237.305 240.71 235.91 241.285C234.515 241.861 232.993 242.057 231.497 241.853C230.285 241.716 229.112 241.341 228.045 240.75C227.326 240.355 226.672 239.853 226.105 239.262C225.907 239.044 225.751 238.792 225.645 238.518Z" fill="#CEAB5E"/>
<path d="M254.002 289.823C254.004 289.615 254.026 289.408 254.069 289.204C254.186 288.624 254.38 288.061 254.646 287.532C255.709 285.585 257.436 284.084 259.512 283.302C262.567 282.087 265.949 281.966 269.084 282.959C270.806 283.469 272.779 284.105 274.1 285.785C274.432 286.214 274.642 286.725 274.706 287.264C274.771 287.803 274.689 288.349 274.468 288.845C273.963 289.812 273.147 290.581 272.152 291.027C271.191 291.502 270.139 291.765 269.067 291.796C268.003 291.847 266.955 291.522 266.108 290.876C265.716 290.542 265.398 290.132 265.17 289.671C264.943 289.209 264.813 288.706 264.787 288.193C264.732 287.233 264.883 286.272 265.23 285.375C266.49 282.328 268.889 279.892 271.918 278.587C273.927 277.692 276.128 277.312 278.322 277.483C279.12 277.544 279.907 277.71 280.662 277.977C280.662 278.035 279.826 277.759 278.305 277.651C276.488 277.552 274.67 277.825 272.962 278.453C271.255 279.082 269.693 280.052 268.373 281.304C267.148 282.478 266.192 283.904 265.573 285.484C265.248 286.328 265.109 287.232 265.163 288.134C265.187 288.591 265.305 289.039 265.509 289.449C265.713 289.858 266 290.222 266.35 290.517C267.114 291.104 268.063 291.4 269.025 291.353C270.03 291.326 271.018 291.081 271.918 290.634C272.827 290.228 273.574 289.531 274.041 288.652C274.23 288.225 274.299 287.756 274.244 287.292C274.188 286.829 274.008 286.389 273.724 286.019C273.14 285.283 272.393 284.693 271.542 284.297C270.716 283.902 269.857 283.58 268.975 283.335C265.923 282.348 262.625 282.433 259.629 283.578C257.598 284.313 255.888 285.735 254.797 287.599C254.435 288.302 254.168 289.05 254.002 289.823Z" fill="#CEAB5E"/>
<path d="M232.333 301.569C232.333 301.485 233.571 301.385 235.452 300.733C237.907 299.868 240.107 298.402 241.851 296.468C243.594 294.535 244.826 292.196 245.433 289.664C245.91 287.724 245.893 286.462 245.977 286.47C246.035 286.759 246.049 287.055 246.019 287.348C245.999 288.15 245.904 288.947 245.734 289.731C245.192 292.344 243.963 294.765 242.173 296.745C240.383 298.724 238.097 300.19 235.552 300.992C234.79 301.24 234.006 301.416 233.211 301.518C232.922 301.577 232.627 301.594 232.333 301.569Z" fill="#CEAB5E"/>
<path d="M221.783 277.316C221.907 277.247 222.039 277.193 222.176 277.157C222.443 277.074 222.828 276.957 223.338 276.823C224.785 276.442 226.283 276.29 227.777 276.372C228.815 276.45 229.832 276.701 230.787 277.116C231.899 277.595 232.867 278.356 233.596 279.323C234.396 280.419 234.784 281.763 234.691 283.118C234.637 283.839 234.417 284.537 234.047 285.158C233.673 285.812 233.081 286.315 232.375 286.579C232.003 286.706 231.603 286.733 231.217 286.656C230.831 286.58 230.472 286.404 230.176 286.144C229.675 285.591 229.403 284.868 229.416 284.121C229.373 282.789 229.636 281.465 230.185 280.251C230.948 278.52 232.267 277.094 233.933 276.199C235.599 275.304 237.517 274.991 239.381 275.31C239.782 275.372 240.176 275.47 240.56 275.602C240.819 275.703 240.952 275.761 240.944 275.778C240.936 275.795 240.384 275.602 239.356 275.477C237.902 275.301 236.428 275.491 235.067 276.029C233.05 276.838 231.436 278.413 230.578 280.409C230.067 281.569 229.824 282.83 229.867 284.096C229.849 284.736 230.077 285.358 230.502 285.835C230.742 286.039 231.031 286.177 231.34 286.236C231.649 286.294 231.969 286.272 232.266 286.169C232.886 285.94 233.406 285.503 233.738 284.932C234.07 284.369 234.271 283.737 234.323 283.085C234.411 281.829 234.059 280.582 233.328 279.557C232.649 278.637 231.741 277.91 230.695 277.45C229.78 277.035 228.802 276.775 227.802 276.681C226.34 276.572 224.87 276.676 223.438 276.99C222.36 277.199 221.8 277.35 221.783 277.316Z" fill="#CEAB5E"/>
<g opacity="0.3">
<path d="M269.82 296.235C266.342 294.27 262.939 292.757 259.303 291.11C255.666 289.463 252.096 287.332 249.714 284.121C245.224 278.069 245.734 269.332 241.145 263.363C241.446 267.376 241.744 271.392 242.039 275.41C242.315 279.089 241.755 282.734 244.121 285.233C246.119 287.34 250.015 288.953 252.773 289.865C258.316 291.695 264.285 294.412 269.82 296.235Z" fill="black"/>
</g>
<path d="M326.4 342.09C326.4 342.09 353.628 349.614 354.724 350.015C356.396 350.592 356.086 356.603 353.537 356.502C352.324 356.46 332.637 357.238 330.129 357.087C327.621 356.937 320.097 353.969 320.097 353.969L326.4 342.09Z" fill="#381E3E"/>
<path d="M337.711 352.481C338.047 351.48 338.45 350.503 338.915 349.555C339.501 348.678 340.143 347.841 340.838 347.047C339.869 347.577 339.065 348.364 338.513 349.321C337.962 350.278 337.684 351.368 337.711 352.473V352.481Z" fill="#263238"/>
<path d="M334.869 351.194C335.002 351.194 335.278 349.931 336.006 348.51C336.733 347.089 337.586 346.094 337.494 346.002C336.699 346.621 336.051 347.408 335.597 348.307C335.144 349.206 334.895 350.195 334.869 351.202V351.194Z" fill="#263238"/>
<path d="M332.252 350.483C332.386 349.509 332.598 348.547 332.887 347.607C333.314 346.72 333.809 345.868 334.367 345.057C333.504 345.639 332.839 346.47 332.461 347.439C332.083 348.409 332.01 349.471 332.252 350.483Z" fill="#263238"/>
<path d="M332.695 346.963C332.935 346.317 333.035 345.628 332.988 344.94C332.979 344.191 332.886 343.445 332.712 342.716C332.607 342.286 332.47 341.864 332.302 341.454C332.223 341.195 332.073 340.963 331.867 340.785C331.73 340.683 331.561 340.633 331.39 340.642C331.219 340.651 331.057 340.72 330.931 340.835C330.72 341.038 330.592 341.312 330.572 341.605C330.551 341.844 330.551 342.084 330.572 342.324C330.574 342.772 330.63 343.218 330.739 343.653C330.92 344.382 331.201 345.083 331.575 345.734C331.874 346.363 332.288 346.93 332.795 347.406C332.862 347.406 332.402 346.729 331.859 345.617C331.541 344.974 331.303 344.295 331.148 343.594C331.06 343.185 331.016 342.767 331.015 342.349C331.015 341.931 331.015 341.412 331.266 341.212C331.315 341.167 331.379 341.142 331.445 341.142C331.512 341.142 331.576 341.167 331.625 341.212C331.761 341.345 331.864 341.508 331.926 341.688C332.086 342.081 332.223 342.483 332.336 342.892C332.527 343.586 332.647 344.297 332.695 345.015C332.745 346.186 332.62 346.955 332.695 346.963Z" fill="#263238"/>
<path d="M332.662 346.688C332.107 346.456 331.505 346.359 330.906 346.403C330.255 346.403 329.607 346.482 328.975 346.637C328.586 346.726 328.209 346.863 327.855 347.047C327.632 347.16 327.451 347.343 327.341 347.568C327.231 347.793 327.197 348.047 327.244 348.293C327.307 348.527 327.43 348.741 327.602 348.913C327.774 349.085 327.988 349.208 328.222 349.271C328.623 349.371 329.042 349.371 329.443 349.271C330.087 349.124 330.692 348.838 331.215 348.435C331.711 348.103 332.139 347.68 332.478 347.189C331.975 347.483 331.492 347.81 331.031 348.167C330.526 348.514 329.958 348.761 329.359 348.895C329.027 348.978 328.68 348.978 328.348 348.895C328.191 348.855 328.047 348.775 327.931 348.661C327.815 348.548 327.731 348.407 327.687 348.251C327.662 348.098 327.687 347.94 327.76 347.803C327.832 347.665 327.948 347.556 328.089 347.49C328.399 347.319 328.731 347.19 329.075 347.106C329.675 346.934 330.292 346.828 330.914 346.788C331.976 346.654 332.645 346.763 332.662 346.688Z" fill="#263238"/>
<path d="M341.891 352.774C342.008 351.941 342.189 351.12 342.434 350.316C342.817 349.569 343.261 348.856 343.764 348.184C342.971 348.616 342.351 349.309 342.01 350.145C341.669 350.982 341.627 351.91 341.891 352.774Z" fill="#263238"/>
<path d="M322.897 354.036C323.227 354.245 323.581 354.413 323.95 354.538C324.939 354.913 325.949 355.225 326.977 355.474C330.391 356.219 333.883 356.55 337.377 356.46C341.456 356.41 345.135 356.226 347.802 356.118L350.953 355.95C351.34 355.944 351.726 355.905 352.107 355.833C351.723 355.773 351.333 355.753 350.945 355.775H347.793L337.377 355.976C333.915 356.064 330.454 355.784 327.052 355.14C324.444 354.613 322.931 353.944 322.897 354.036Z" fill="#263238"/>
<path d="M322.095 354.655C322.095 354.713 322.872 354.278 324.134 353.727C325.738 352.969 327.523 352.679 329.284 352.891C331.016 353.266 332.58 354.193 333.74 355.532C334.223 356.103 334.745 356.64 335.303 357.138C334.945 356.473 334.498 355.86 333.974 355.315C333.437 354.691 332.832 354.13 332.168 353.643C331.338 353.028 330.371 352.621 329.351 352.456C327.503 352.232 325.631 352.586 323.992 353.468C323.3 353.758 322.659 354.159 322.095 354.655Z" fill="#263238"/>
<path d="M297.466 334.574C297.466 334.574 271.7 351.444 270.781 352.13C269.393 353.175 270.982 358.166 273.389 357.305C274.526 356.895 296.145 350.876 298.469 349.973C300.793 349.07 307.055 344.004 307.055 344.004L297.466 334.574Z" fill="#381E3E"/>
<path d="M289.817 347.916C289.506 346.856 288.91 345.901 288.093 345.156C287.276 344.412 286.27 343.906 285.185 343.695C286.091 344.238 286.96 344.841 287.785 345.5C288.512 346.263 289.19 347.07 289.817 347.916Z" fill="#263238"/>
<path d="M292.124 345.826C291.796 344.872 291.261 344.003 290.557 343.28C289.853 342.557 288.998 341.999 288.053 341.646C287.986 341.764 289.114 342.482 290.226 343.586C291.338 344.69 292.007 345.893 292.124 345.826Z" fill="#263238"/>
<path d="M294.448 344.338C294.445 343.286 294.045 342.274 293.328 341.504C292.729 340.654 291.835 340.058 290.82 339.832C291.595 340.438 292.325 341.1 293.002 341.814C293.55 342.616 294.034 343.46 294.448 344.338Z" fill="#263238"/>
<path d="M292.96 341.136C293.027 341.136 292.676 340.409 292.383 339.205C292.207 338.507 292.104 337.793 292.074 337.073C292.045 336.65 292.045 336.226 292.074 335.803C292.071 335.612 292.12 335.424 292.216 335.259C292.252 335.203 292.309 335.162 292.375 335.146C292.44 335.131 292.509 335.141 292.567 335.176C292.86 335.293 293.01 335.794 293.152 336.196C293.275 336.594 293.359 337.002 293.403 337.416C293.468 338.132 293.445 338.854 293.336 339.565C293.161 340.785 292.918 341.529 292.985 341.554C293.329 340.956 293.556 340.298 293.654 339.615C293.814 338.882 293.871 338.131 293.821 337.383C293.787 336.935 293.706 336.492 293.579 336.062C293.51 335.831 293.426 335.605 293.328 335.385C293.216 335.111 293.008 334.888 292.743 334.758C292.588 334.686 292.412 334.67 292.247 334.715C292.082 334.759 291.938 334.86 291.84 335C291.701 335.233 291.629 335.499 291.631 335.769C291.539 336.96 291.675 338.158 292.032 339.297C292.208 339.969 292.524 340.596 292.96 341.136Z" fill="#263238"/>
<path d="M292.868 340.861C292.868 340.927 293.503 340.627 294.54 340.367C295.146 340.222 295.765 340.138 296.388 340.117C296.743 340.092 297.1 340.115 297.449 340.183C297.603 340.205 297.746 340.274 297.858 340.383C297.969 340.491 298.043 340.632 298.068 340.785C298.075 340.952 298.038 341.117 297.96 341.263C297.882 341.41 297.766 341.534 297.625 341.621C297.337 341.802 297.01 341.911 296.672 341.939C296.061 341.999 295.444 341.936 294.858 341.755C294.313 341.551 293.754 341.386 293.186 341.262C293.657 341.639 294.196 341.922 294.774 342.098C295.394 342.335 296.059 342.435 296.722 342.39C297.134 342.369 297.534 342.242 297.884 342.023C298.091 341.896 298.26 341.715 298.373 341.501C298.486 341.286 298.54 341.045 298.528 340.802C298.498 340.553 298.388 340.321 298.215 340.14C298.042 339.958 297.814 339.839 297.566 339.799C297.175 339.729 296.775 339.713 296.379 339.749C295.729 339.792 295.086 339.913 294.465 340.108C293.882 340.233 293.335 340.49 292.868 340.861Z" fill="#263238"/>
<path d="M276.666 356.377C276.666 356.419 277.101 356.118 277.302 355.382C277.502 354.421 277.329 353.419 276.817 352.581C276.569 352.133 276.29 351.703 275.981 351.294C275.73 350.946 275.435 350.631 275.103 350.358C274.865 350.161 274.574 350.042 274.267 350.015C274.05 350.015 273.941 350.057 273.941 350.082C273.941 350.107 274.401 350.124 274.877 350.608C275.158 350.893 275.408 351.207 275.621 351.545C275.921 351.948 276.2 352.367 276.457 352.799C276.919 353.549 277.119 354.431 277.026 355.307C276.928 355.67 276.808 356.028 276.666 356.377Z" fill="#263238"/>
<path d="M285.921 349.463C285.955 349.011 285.892 348.556 285.735 348.13C285.577 347.705 285.33 347.318 285.01 346.997C284.752 346.623 284.416 346.31 284.025 346.081C283.633 345.851 283.196 345.71 282.744 345.668C283.427 346.153 284.068 346.695 284.658 347.289C285.14 347.977 285.562 348.704 285.921 349.463Z" fill="#263238"/>
<path d="M304.405 344.899C304.004 345.121 303.624 345.379 303.268 345.668C302.247 346.377 301.186 347.027 300.091 347.616C298.471 348.475 296.795 349.226 295.075 349.864C293.119 350.592 290.895 351.277 288.621 351.946C283.981 353.284 279.785 354.504 276.758 355.415L273.155 356.544C272.71 356.662 272.277 356.819 271.859 357.012C272.315 356.95 272.765 356.852 273.205 356.72L276.825 355.708C279.877 354.872 284.082 353.702 288.721 352.364C291.037 351.687 293.236 350.985 295.192 350.232C296.933 349.57 298.624 348.782 300.25 347.875C301.342 347.256 302.387 346.557 303.377 345.785C303.743 345.518 304.087 345.222 304.405 344.899Z" fill="#263238"/>
<path d="M305.358 345.241C304.665 344.936 303.929 344.739 303.176 344.656C301.344 344.317 299.453 344.55 297.759 345.325C296.843 345.804 296.057 346.498 295.468 347.348C294.983 348.018 294.576 348.742 294.256 349.505C293.92 350.182 293.681 350.902 293.545 351.645C293.924 350.999 294.259 350.329 294.548 349.639C295.245 348.006 296.454 346.645 297.993 345.76C299.611 345.032 301.401 344.774 303.159 345.016C304.497 345.124 305.341 345.308 305.358 345.241Z" fill="#263238"/>
<path d="M351.012 293.434C351.012 293.434 358.745 296.193 358.77 304.862C358.837 321.457 325.23 339.757 325.23 339.757L280.504 310.129L277.703 308.992C277.703 308.992 338.104 286.32 351.012 293.434Z" fill="#263238"/>
<path d="M303.159 325.094C303.571 324.865 303.963 324.603 304.33 324.308C305.057 323.773 306.102 322.987 307.381 321.992C309.947 320.019 313.425 317.21 317.179 313.992C320.933 310.773 324.226 307.755 326.567 305.523C327.738 304.411 328.674 303.491 329.318 302.848C329.665 302.534 329.984 302.19 330.271 301.819C329.886 302.089 329.525 302.391 329.192 302.722L326.35 305.289C323.95 307.454 320.623 310.439 316.878 313.649C313.133 316.859 309.688 319.701 307.189 321.741L304.221 324.166C303.843 324.446 303.488 324.757 303.159 325.094Z" fill="#455A64"/>
<path d="M338.388 299.637C335.463 299.328 332.535 300.191 330.246 302.037C330.321 302.162 331.918 301.117 334.208 300.465C336.499 299.813 338.388 299.78 338.388 299.637Z" fill="#455A64"/>
<path d="M334.534 297.021C333.5 297.46 332.589 298.147 331.883 299.022C331.177 299.897 330.698 300.933 330.488 302.037C330.622 302.037 331.107 300.691 332.235 299.311C333.364 297.932 334.61 297.138 334.534 297.021Z" fill="#455A64"/>
<path d="M353.47 349.588C353.47 349.538 352.935 349.43 352.316 349.94C351.587 350.619 351.13 351.54 351.028 352.531C350.882 353.506 351.021 354.502 351.43 355.399C351.747 356.076 352.099 356.393 352.14 356.36C352.03 355.988 351.893 355.625 351.731 355.273C351.438 354.414 351.352 353.497 351.48 352.598C351.579 351.702 351.946 350.857 352.533 350.174C353.01 349.68 353.478 349.664 353.47 349.588Z" fill="#263238"/>
<path d="M340.721 266.306L324.795 306.685L256.218 307.805L254.947 304.093L278.982 303.224L290.536 267.401L340.721 266.306Z" fill="#455A64"/>
<path d="M308.693 283.812C309.22 283.548 309.812 283.441 310.398 283.505C310.983 283.568 311.538 283.8 311.996 284.171C312.384 284.537 312.653 285.01 312.768 285.531C312.883 286.051 312.838 286.594 312.639 287.089C312.425 287.583 312.076 288.007 311.633 288.313C311.189 288.618 310.669 288.794 310.131 288.82C309.565 288.856 309.003 288.707 308.529 288.394C308.055 288.082 307.696 287.624 307.506 287.089C307.327 286.491 307.343 285.852 307.55 285.263C307.757 284.674 308.146 284.166 308.66 283.812" fill="#CEAB5E"/>
<path d="M329.46 341.78C329.46 341.78 266.275 300.331 263.7 299.47C261.125 298.609 254.855 294.513 248.61 296.235C242.365 297.957 236.747 303.567 233.947 311.759C232.342 316.441 231.589 324.425 231.23 330.419C230.751 337.587 233.074 344.66 237.709 350.149C239.762 352.71 242.489 354.647 245.584 355.741C246.244 355.95 246.93 356.126 247.632 356.277C259.578 358.868 271.876 353.501 278.564 343.285L280.035 341.045C280.035 341.045 321.376 356.226 322.019 356.017L329.46 341.78Z" fill="#263238"/>
<path d="M251.294 330.369C251.405 330.425 251.52 330.475 251.636 330.519L252.673 330.929L256.678 332.476L271.567 338.085C277.887 340.443 285.461 343.252 293.963 346.345C302.465 349.438 311.879 352.824 321.944 356.226L322.12 356.293L322.212 356.118L327.152 346.688L329.66 341.881L329.752 341.697L329.577 341.588L281.381 310.99L266.902 301.861L262.973 299.403L261.944 298.776C261.71 298.634 261.585 298.576 261.585 298.576L261.919 298.818L262.922 299.479L266.81 301.987L281.256 311.258L329.376 341.973L329.293 341.672C328.498 343.201 327.621 344.832 326.785 346.479L321.852 355.909L322.128 355.8C312.096 352.406 302.649 349.028 294.139 345.96L271.709 337.801L256.736 332.3L252.707 330.829L251.653 330.461L251.294 330.369Z" fill="#455A64"/>
<path d="M257.848 183.191C258.926 180.273 261.309 179.011 264.327 178.284C265.845 177.93 267.426 177.949 268.935 178.338C270.444 178.726 271.838 179.473 272.996 180.516C274.526 181.912 275.646 183.86 277.536 184.696C280.654 186.109 284.642 184.044 287.568 185.774C288.447 186.292 289.119 187.098 289.471 188.056C289.823 189.014 289.832 190.063 289.497 191.027C289.162 191.991 288.503 192.808 287.633 193.341C286.764 193.874 285.736 194.089 284.725 193.95C286.757 194.903 287.133 197.963 285.737 199.719C284.341 201.474 281.758 201.951 279.592 201.341C277.458 200.605 275.565 199.302 274.117 197.57C272.595 195.898 271.257 194.101 269.602 192.554C268.013 190.94 265.905 189.939 263.65 189.729C260.615 189.612 257.798 191.66 256.218 194.243C254.638 196.826 254.027 199.894 253.584 202.904C253.141 205.914 252.807 208.973 251.645 211.782C251.511 212.117 251.31 212.476 250.968 212.551C250.458 212.66 250.09 212.1 249.889 211.623C247.602 206.254 246.392 200.488 246.328 194.653C246.286 191.309 246.671 188.107 248.769 185.457C250.867 182.806 255.708 181.16 257.823 183.149" fill="#263238"/>
<path d="M250.725 196.676L246.077 230.433C245.891 231.797 245.984 233.184 246.351 234.51C246.717 235.836 247.35 237.073 248.21 238.147C249.071 239.221 250.14 240.109 251.355 240.756C252.569 241.403 253.902 241.796 255.273 241.912C257.869 242.137 260.452 241.356 262.487 239.73C264.523 238.104 265.855 235.757 266.208 233.175C266.551 230.667 266.843 228.519 266.902 228.26C266.902 228.26 275.605 228.636 277.394 220.217C278.23 216.146 279.358 207.619 280.27 199.894C280.729 195.897 279.669 191.873 277.3 188.621C274.93 185.368 271.425 183.126 267.479 182.338L266.643 182.179C257.739 180.909 251.72 187.764 250.725 196.676Z" fill="#FFBE9D"/>
<path d="M266.894 228.143C262.98 227.425 259.369 225.559 256.519 222.784C256.519 222.784 257.907 229.372 266.476 230.308L266.894 228.143Z" fill="#EB996E"/>
<path d="M276.633 205.061C276.574 205.375 276.394 205.654 276.131 205.837C275.868 206.02 275.544 206.093 275.228 206.039C275.073 206.022 274.923 205.973 274.786 205.896C274.65 205.819 274.531 205.716 274.435 205.591C274.34 205.467 274.271 205.325 274.232 205.174C274.193 205.022 274.185 204.864 274.209 204.71C274.266 204.393 274.445 204.113 274.708 203.928C274.971 203.743 275.296 203.67 275.613 203.723C275.769 203.742 275.919 203.791 276.056 203.869C276.192 203.947 276.311 204.051 276.406 204.176C276.502 204.301 276.571 204.443 276.61 204.595C276.648 204.747 276.656 204.906 276.633 205.061Z" fill="#263238"/>
<path d="M277.586 203.673C277.402 203.807 276.625 202.946 275.329 202.687C274.033 202.427 272.946 202.896 272.821 202.687C272.695 202.478 272.98 202.352 273.456 202.135C274.091 201.852 274.8 201.779 275.479 201.926C276.154 202.055 276.77 202.398 277.235 202.904C277.594 203.305 277.67 203.623 277.586 203.673Z" fill="#263238"/>
<path d="M263.825 202.954C263.768 203.27 263.589 203.551 263.326 203.736C263.063 203.92 262.738 203.994 262.421 203.94C262.265 203.921 262.115 203.871 261.979 203.793C261.843 203.715 261.723 203.611 261.628 203.486C261.532 203.362 261.462 203.22 261.422 203.068C261.381 202.916 261.371 202.758 261.393 202.603C261.456 202.29 261.636 202.013 261.898 201.829C262.159 201.646 262.481 201.569 262.797 201.616C262.953 201.635 263.104 201.684 263.241 201.762C263.377 201.84 263.497 201.944 263.593 202.069C263.689 202.193 263.759 202.336 263.799 202.488C263.839 202.64 263.848 202.798 263.825 202.954Z" fill="#263238"/>
<path d="M264.787 201.374C264.603 201.499 263.825 200.638 262.53 200.379C261.234 200.12 260.147 200.588 260.022 200.379C259.896 200.17 260.18 200.045 260.657 199.827C261.293 199.549 262 199.476 262.68 199.618C263.355 199.755 263.971 200.097 264.444 200.597C264.795 201.048 264.87 201.316 264.787 201.374Z" fill="#263238"/>
<path d="M267.571 211.916C268.297 211.835 269.03 211.849 269.753 211.958C270.095 211.958 270.421 211.958 270.522 211.766C270.628 211.434 270.628 211.077 270.522 210.746C270.371 209.91 270.212 208.973 270.045 208.02C269.401 204.158 269.009 201.015 269.159 200.989C269.31 200.964 269.995 204.074 270.605 207.937C270.756 208.89 270.906 209.793 271.04 210.662C271.171 211.104 271.138 211.579 270.948 212C270.877 212.105 270.783 212.193 270.673 212.257C270.563 212.321 270.44 212.359 270.313 212.367C270.121 212.395 269.927 212.395 269.736 212.367C268.998 212.308 268.271 212.156 267.571 211.916Z" fill="#263238"/>
<path d="M263.575 212.066C263.792 212.066 263.508 213.504 264.511 214.742C265.514 215.979 267.019 216.129 267.019 216.33C267.019 216.531 266.634 216.531 265.999 216.422C265.171 216.269 264.423 215.832 263.884 215.185C263.373 214.558 263.125 213.758 263.19 212.953C263.257 212.351 263.483 212.033 263.575 212.066Z" fill="#263238"/>
<path d="M266.133 196.35C265.94 196.684 264.678 196.258 263.115 196.132C261.551 196.007 260.247 196.182 260.105 195.823C260.047 195.656 260.331 195.372 260.891 195.129C261.634 194.836 262.436 194.721 263.232 194.795C264.032 194.856 264.806 195.108 265.489 195.53C265.999 195.865 266.208 196.199 266.133 196.35Z" fill="#263238"/>
<path d="M277.853 199.827C277.569 200.078 276.742 199.593 275.663 199.359C274.585 199.125 273.64 199.167 273.498 198.816C273.431 198.649 273.632 198.381 274.091 198.18C274.69 197.945 275.348 197.901 275.972 198.055C276.603 198.188 277.174 198.519 277.603 199C277.912 199.376 277.987 199.702 277.853 199.827Z" fill="#263238"/>
<path d="M250.165 203.063C250.031 202.971 244.706 200.187 243.736 205.997C242.767 211.807 248.802 211.582 248.836 211.414C248.869 211.247 250.165 203.063 250.165 203.063Z" fill="#FFBE9D"/>
<path d="M247.431 208.915C247.431 208.915 247.323 208.973 247.139 209.023C246.881 209.085 246.609 209.046 246.378 208.915C246.04 208.616 245.788 208.232 245.65 207.802C245.511 207.373 245.491 206.914 245.592 206.474C245.659 205.972 245.839 205.491 246.119 205.069C246.198 204.896 246.318 204.744 246.467 204.626C246.617 204.508 246.793 204.428 246.98 204.392C247.102 204.382 247.224 204.414 247.325 204.485C247.426 204.555 247.499 204.658 247.532 204.777C247.582 204.944 247.532 205.061 247.532 205.069C247.532 205.077 247.674 204.994 247.665 204.751C247.657 204.603 247.598 204.461 247.498 204.35C247.431 204.275 247.348 204.215 247.256 204.173C247.164 204.132 247.064 204.109 246.963 204.108C246.718 204.115 246.478 204.185 246.268 204.311C246.057 204.436 245.882 204.614 245.759 204.827C245.427 205.29 245.212 205.826 245.132 206.39C244.974 207.569 245.392 208.764 246.194 209.14C246.343 209.212 246.506 209.25 246.671 209.25C246.836 209.25 246.999 209.212 247.147 209.14C247.398 209.057 247.448 208.931 247.431 208.915Z" fill="#EB996E"/>
<path d="M282.36 198.54C280.395 198.646 278.433 198.284 276.636 197.485C274.838 196.686 273.256 195.472 272.018 193.942C270.346 191.785 269.234 188.968 266.818 187.664C265.986 187.254 265.081 187.014 264.156 186.956C263.23 186.899 262.302 187.026 261.426 187.329C259.682 187.953 258.083 188.926 256.728 190.188C257.497 194.803 255.449 199.384 253.451 203.564C253.278 204.057 252.946 204.478 252.506 204.76C251.72 205.153 250.784 204.534 250.307 203.79C249.639 202.543 249.349 201.128 249.471 199.719C249.489 196.507 250.143 193.33 251.394 190.372C252.665 187.405 254.778 184.877 257.472 183.099C260.927 180.989 265.066 180.303 269.017 181.185C272.946 182.098 276.487 184.225 279.141 187.262C280.434 188.609 281.373 190.254 281.875 192.053" fill="#263238"/>
<path d="M48.3965 334.683C48.4331 334.56 48.4836 334.442 48.547 334.332L49.0152 333.32C49.5917 332.012 50.0586 330.659 50.4113 329.274C51.3309 325.679 51.6486 320.186 50.2859 313.666C49.5528 310.109 48.5865 306.604 47.3933 303.174C46.1644 299.454 44.7432 295.508 43.5812 291.236C42.2692 286.78 41.6351 282.153 41.7002 277.509C41.8757 272.651 43.3136 267.803 44.8937 262.979C46.4737 258.155 48.1039 253.423 48.5888 248.675C49.1368 244.106 48.2206 239.481 45.9721 235.466C43.8738 231.604 41.2487 228.31 39.2841 224.891C37.4427 221.724 36.0846 218.301 35.2546 214.733C34.0704 209.561 33.985 204.199 35.0038 198.992C35.3786 197.088 35.9386 195.226 36.6758 193.432C36.6562 193.56 36.6254 193.686 36.5838 193.808L36.2494 194.87C34.2824 201.29 34.0717 208.12 35.6392 214.65C36.4769 218.177 37.8379 221.558 39.677 224.682C41.6416 228.026 44.2834 231.37 46.4152 235.24C48.6985 239.335 49.6318 244.045 49.082 248.7C48.5888 253.532 46.9419 258.289 45.3702 263.113C43.7985 267.936 42.369 272.727 42.1934 277.5C42.1206 282.097 42.7378 286.68 44.0242 291.094C45.1696 295.341 46.5824 299.286 47.7862 303.023C48.9694 306.473 49.9217 309.998 50.637 313.574C51.9662 320.145 51.5817 325.696 50.637 329.299C50.2685 330.688 49.7703 332.04 49.1489 333.337C48.9316 333.755 48.756 334.081 48.6306 334.332C48.5641 334.456 48.4857 334.573 48.3965 334.683Z" fill="#263238"/>
<path d="M41.951 228.26C41.951 228.26 37.9465 215.469 45.1278 207.979C45.1834 207.918 45.2547 207.875 45.3336 207.852C45.4126 207.83 45.4962 207.831 45.575 207.853C45.6539 207.876 45.725 207.92 45.7803 207.98C45.8357 208.041 45.8731 208.115 45.8885 208.196C46.2731 210.311 46.7496 216.748 41.951 228.26Z" fill="#CEAB5E"/>
<path d="M44.3503 212.242C44.3369 213.035 44.2445 213.825 44.0744 214.6C43.8152 216.272 43.5059 218.136 43.1632 220.243C42.8204 222.349 42.5278 224.264 42.2686 225.886C42.201 226.678 42.0583 227.461 41.8423 228.226C41.7747 227.432 41.7999 226.632 41.9175 225.844C42.0513 224.381 42.3104 222.374 42.6699 220.167C43.0294 217.96 43.414 215.987 43.7316 214.541C43.8489 213.754 44.0565 212.982 44.3503 212.242Z" fill="#263238"/>
<path d="M46.6493 258.439C46.6493 258.439 49.0988 245.256 58.9468 242.012C59.0245 241.985 59.1081 241.98 59.1884 241.998C59.2686 242.016 59.3424 242.055 59.4014 242.112C59.4604 242.17 59.5023 242.242 59.5224 242.322C59.5425 242.402 59.5401 242.485 59.5153 242.564C58.88 244.587 56.28 250.506 46.6493 258.439Z" fill="#381E3E"/>
<path d="M56.2633 245.398C55.8809 246.093 55.43 246.749 54.9173 247.354C53.9308 248.675 52.7604 250.213 51.473 251.919L48.012 256.492C47.5799 257.157 47.0873 257.781 46.5406 258.356C46.8514 257.621 47.247 256.925 47.7194 256.283C48.5554 255.054 49.684 253.398 51.0634 251.618C52.4428 249.837 53.6884 248.274 54.6331 247.137C55.1076 246.496 55.6546 245.913 56.2633 245.398Z" fill="#263238"/>
<path d="M43.9908 291.503C43.9908 291.503 42.5027 278.177 50.9798 272.192C51.0465 272.144 51.1254 272.115 51.2075 272.109C51.2896 272.103 51.3717 272.12 51.4446 272.159C51.5175 272.197 51.5783 272.254 51.6203 272.325C51.6622 272.396 51.6836 272.477 51.682 272.56C51.6569 274.7 50.8962 281.112 43.9908 291.503Z" fill="#381E3E"/>
<path d="M49.3997 276.23C49.2407 277.008 48.9997 277.767 48.6808 278.495C48.1123 280.042 47.4518 281.839 46.7078 283.862L44.7599 289.229C44.5527 289.993 44.2728 290.735 43.9239 291.445C44.0124 290.653 44.1891 289.873 44.4506 289.121C44.8602 287.708 45.4956 285.777 46.2731 283.687C47.0506 281.597 47.8113 279.716 48.3882 278.37C48.6433 277.62 48.9826 276.902 49.3997 276.23Z" fill="#263238"/>
<path d="M51.4061 324.776C51.4061 324.776 50.3946 311.4 59.0806 305.732C59.1485 305.685 59.2281 305.658 59.3104 305.654C59.3927 305.65 59.4745 305.67 59.5466 305.709C59.6187 305.749 59.6782 305.809 59.7185 305.881C59.7587 305.953 59.7781 306.034 59.7745 306.117C59.6658 308.248 58.6793 314.627 51.4061 324.776Z" fill="#381E3E"/>
<path d="M57.3584 309.728C57.1578 310.502 56.8777 311.253 56.5224 311.969C55.8954 313.49 55.1681 315.313 54.3572 317.252L52.2087 322.552C51.9896 323.29 51.7042 324.006 51.356 324.692C51.4683 323.905 51.6732 323.133 51.9662 322.393C52.4177 320.997 53.1283 319.1 53.981 317.035C54.8337 314.97 55.653 313.114 56.28 311.793C56.5625 311.067 56.9242 310.375 57.3584 309.728Z" fill="#263238"/>
<path d="M36.1993 217.024C36.1993 217.024 24.3197 210.821 24.0856 200.446C24.082 200.364 24.1014 200.282 24.1416 200.21C24.1819 200.138 24.2414 200.079 24.3135 200.039C24.3856 199.999 24.4674 199.98 24.5497 199.984C24.632 199.988 24.7116 200.015 24.7795 200.062C26.5435 201.282 31.4341 205.487 36.1993 217.024Z" fill="#381E3E"/>
<path d="M26.5518 204.008C27.1071 204.574 27.603 205.196 28.0316 205.863L31.3756 210.495L34.7196 215.118C35.229 215.725 35.6823 216.377 36.0739 217.066C35.4452 216.562 34.8834 215.981 34.4019 215.335C33.4572 214.215 32.2116 212.61 30.9074 210.796C29.6032 208.982 28.4663 207.301 27.6721 206.064C27.2214 205.424 26.8456 204.734 26.5518 204.008Z" fill="#263238"/>
<path d="M48.9566 244.52C48.9566 244.52 36.726 239.053 35.8565 228.711C35.8496 228.63 35.8652 228.549 35.9017 228.476C35.9381 228.403 35.994 228.341 36.0632 228.298C36.1323 228.255 36.2121 228.231 36.2936 228.231C36.3751 228.23 36.4553 228.252 36.5253 228.293C38.3645 229.372 43.5059 233.276 48.9566 244.52Z" fill="#381E3E"/>
<path d="M38.5401 232.097C39.1271 232.631 39.6592 233.222 40.1285 233.861L43.7567 238.284L47.3933 242.689C47.9361 243.251 48.4232 243.864 48.848 244.52C48.2105 244.029 47.63 243.468 47.1174 242.848C46.1059 241.778 44.7683 240.257 43.3554 238.526C41.9426 236.795 40.7053 235.182 39.8442 234.003C39.3389 233.419 38.9014 232.78 38.5401 232.097Z" fill="#263238"/>
<path d="M41.9175 275.151C41.9175 275.151 33.5157 264.701 37.4616 255.087C37.4916 255.011 37.5421 254.945 37.6073 254.896C37.6726 254.847 37.7502 254.817 37.8315 254.809C37.9128 254.801 37.9947 254.816 38.0681 254.852C38.1415 254.888 38.2036 254.943 38.2475 255.012C39.3761 256.859 42.16 262.67 41.9175 275.151Z" fill="#CEAB5E"/>
<path d="M38.2893 259.359C38.5705 260.1 38.775 260.867 38.8996 261.65C39.2507 263.263 39.6603 265.153 40.1201 267.243C40.5799 269.333 40.9561 271.214 41.349 272.819C41.5727 273.581 41.7266 274.361 41.8088 275.151C41.4376 274.442 41.1568 273.69 40.9728 272.911C40.5548 271.498 40.0616 269.567 39.5934 267.343C39.1253 265.119 38.7574 263.163 38.5234 261.725C38.359 260.947 38.2805 260.154 38.2893 259.359Z" fill="#263238"/>
<path d="M50.2441 311.216C50.2441 311.216 38.097 305.548 37.4115 295.182C37.4062 295.101 37.4231 295.021 37.4602 294.949C37.4973 294.877 37.5533 294.817 37.6222 294.775C37.691 294.733 37.7701 294.71 37.8508 294.71C37.9316 294.709 38.0109 294.731 38.0803 294.772C39.9028 295.917 44.9773 299.905 50.2441 311.216Z" fill="#CEAB5E"/>
<path d="M40.0282 298.634C40.6086 299.176 41.1324 299.776 41.5915 300.423C42.6114 301.719 43.8152 303.232 45.1445 304.904L48.7058 309.377C49.2413 309.962 49.7226 310.594 50.1438 311.266C49.5218 310.778 48.9605 310.216 48.4718 309.594C47.4853 308.516 46.1728 306.969 44.7934 305.214C43.414 303.458 42.16 301.836 41.324 300.641C40.8214 300.02 40.387 299.348 40.0282 298.634Z" fill="#263238"/>
<path d="M74.4296 258.506C74.4413 258.606 74.4413 258.707 74.4296 258.807C74.4296 259.041 74.4296 259.317 74.4296 259.643C74.4296 260.479 74.346 261.541 74.2874 262.895C74.1286 265.754 73.9112 269.734 73.6521 274.507C72.8161 279.356 70.3081 284.732 66.9641 289.948C64.5313 293.794 61.9481 297.297 59.7828 300.549C57.7811 303.388 55.9793 306.363 54.3906 309.452C53.3519 311.548 52.5122 313.737 51.8826 315.99C51.6653 316.784 51.5064 317.411 51.4145 317.837C51.3776 318.057 51.3188 318.273 51.2389 318.481C51.2416 318.259 51.2668 318.038 51.3142 317.821C51.3727 317.386 51.5064 316.75 51.6904 315.94C52.2577 313.635 53.0588 311.394 54.0813 309.252C55.6351 306.125 57.415 303.116 59.4066 300.248C61.5886 296.971 64.13 293.468 66.5544 289.647C69.8984 284.447 72.3061 279.156 73.2424 274.382C73.5768 269.625 73.8527 265.646 74.0784 262.787C74.1871 261.432 74.2791 260.346 74.3376 259.543C74.3376 259.209 74.4045 258.924 74.4296 258.707C74.4224 258.64 74.4224 258.573 74.4296 258.506Z" fill="#263238"/>
<path d="M67.24 288.995C67.24 288.995 72.3814 276.614 65.9107 268.505C65.8606 268.44 65.7933 268.39 65.7165 268.361C65.6396 268.332 65.5562 268.325 65.4756 268.34C65.3949 268.356 65.3202 268.394 65.2597 268.449C65.1993 268.505 65.1555 268.576 65.1332 268.655C64.523 270.729 63.4612 277.124 67.24 288.995Z" fill="#CEAB5E"/>
<path d="M66.2618 272.827C66.4835 273.59 66.6209 274.375 66.6715 275.168C66.8554 276.622 67.056 278.637 67.2149 280.869C67.3737 283.101 67.449 285.125 67.449 286.588C67.5005 287.382 67.4527 288.179 67.3068 288.962C67.1615 288.185 67.0915 287.395 67.0978 286.604C66.9892 284.932 66.8554 283.035 66.7133 280.903C66.5712 278.771 66.429 276.84 66.3204 275.201C66.2229 274.414 66.2033 273.618 66.2618 272.827Z" fill="#263238"/>
<g opacity="0.3">
<path d="M67.24 288.995C67.24 288.995 72.3814 276.614 65.9107 268.505C65.8606 268.44 65.7933 268.39 65.7165 268.361C65.6396 268.332 65.5562 268.325 65.4756 268.34C65.3949 268.356 65.3202 268.394 65.2597 268.449C65.1993 268.505 65.1555 268.576 65.1332 268.655C64.523 270.729 63.4612 277.124 67.24 288.995Z" fill="black"/>
</g>
<path d="M51.2724 318.824C51.2724 318.824 55.3938 306.075 48.2878 298.517C48.2328 298.457 48.1621 298.413 48.0837 298.391C48.0053 298.368 47.9222 298.368 47.8435 298.389C47.7648 298.411 47.6937 298.454 47.6378 298.513C47.582 298.573 47.5437 298.646 47.5271 298.726C47.1174 300.833 46.5824 307.262 51.2724 318.824Z" fill="#CEAB5E"/>
<path d="M49.0235 302.781C49.3076 303.525 49.5067 304.299 49.6171 305.088C49.918 306.518 50.2859 308.508 50.6286 310.723C50.9714 312.938 51.2055 314.945 51.3225 316.408C51.4361 317.197 51.453 317.997 51.3727 318.79C51.1691 318.024 51.0348 317.24 50.9714 316.45C50.729 314.778 50.4447 312.913 50.1354 310.798C49.8261 308.683 49.5251 306.777 49.2994 305.147C49.1299 304.369 49.0375 303.577 49.0235 302.781Z" fill="#263238"/>
<g opacity="0.3">
<path d="M51.2724 318.824C51.2724 318.824 55.3938 306.075 48.2878 298.517C48.2328 298.457 48.1621 298.413 48.0837 298.391C48.0053 298.368 47.9222 298.368 47.8435 298.389C47.7648 298.411 47.6937 298.454 47.6378 298.513C47.582 298.573 47.5437 298.646 47.5271 298.726C47.1174 300.833 46.5824 307.262 51.2724 318.824Z" fill="black"/>
</g>
<path d="M73.744 273.872C73.744 273.872 84.7291 266.181 83.6172 255.865C83.61 255.783 83.5803 255.705 83.5313 255.639C83.4822 255.573 83.4159 255.522 83.3395 255.492C83.2632 255.461 83.18 255.453 83.0991 255.467C83.0182 255.481 82.9429 255.517 82.8815 255.572C81.2931 257.06 76.9794 261.817 73.744 273.872Z" fill="#381E3E"/>
<g opacity="0.3">
<path d="M73.744 273.872C73.744 273.872 84.7291 266.181 83.6172 255.865C83.61 255.783 83.5803 255.705 83.5313 255.639C83.4822 255.573 83.4159 255.522 83.3395 255.492C83.2632 255.461 83.18 255.453 83.0991 255.467C83.0182 255.481 82.9429 255.517 82.8815 255.572C81.2931 257.06 76.9794 261.817 73.744 273.872Z" fill="black"/>
</g>
<path d="M81.6359 259.719C81.414 260.48 81.1084 261.215 80.7246 261.909C80.0976 263.238 79.1864 265.044 78.1247 267.017C77.063 268.99 76.043 270.737 75.2488 271.974C74.8691 272.673 74.3998 273.32 73.8527 273.897C74.1543 273.164 74.5208 272.459 74.9479 271.79L77.6816 266.774L80.407 261.758C80.7453 261.038 81.1571 260.354 81.6359 259.719Z" fill="#263238"/>
<path d="M55.6948 306.183C55.6948 306.183 68.912 304.119 72.49 294.371C72.5196 294.294 72.5272 294.21 72.5119 294.129C72.4966 294.048 72.4591 293.973 72.4035 293.913C72.348 293.852 72.2765 293.808 72.1973 293.785C72.1181 293.763 72.0342 293.763 71.955 293.786C69.8901 294.371 63.896 296.787 55.6948 306.183Z" fill="#CEAB5E"/>
<g opacity="0.3">
<path d="M55.6948 306.183C55.6948 306.183 68.912 304.119 72.49 294.371C72.5196 294.294 72.5272 294.21 72.5119 294.129C72.4966 294.048 72.4591 293.973 72.4035 293.913C72.348 293.852 72.2765 293.808 72.1973 293.785C72.1181 293.763 72.0342 293.763 71.955 293.786C69.8901 294.371 63.896 296.787 55.6948 306.183Z" fill="black"/>
</g>
<path d="M69.0123 296.954C68.4783 297.536 67.8842 298.06 67.24 298.517C66.0946 299.437 64.4812 300.657 62.6587 301.953C60.8362 303.249 59.1475 304.378 57.9018 305.147C57.247 305.601 56.5396 305.974 55.7951 306.259C56.3863 305.731 57.0243 305.258 57.7012 304.846L62.3744 301.552L67.031 298.208C67.6461 297.722 68.3102 297.302 69.0123 296.954Z" fill="#263238"/>
<path d="M43.0628 330.561L39.2005 356.561H63.2773L60.1507 330.561H43.0628Z" fill="#455A64"/>
<path d="M61.1204 338.612C61.1204 338.754 56.7732 338.863 51.4061 338.863C46.039 338.863 41.7002 338.754 41.7002 338.612C44.9292 338.364 48.1686 338.281 51.4061 338.361C54.6464 338.28 57.8886 338.364 61.1204 338.612Z" fill="#263238"/>
<path d="M61.597 340.66C61.597 340.794 57.1076 340.911 51.565 340.911C46.0223 340.911 41.533 340.794 41.533 340.66C41.533 340.526 46.0223 340.409 51.565 340.409C57.1076 340.409 61.597 340.543 61.597 340.66Z" fill="#263238"/>
</svg>
