<svg width="360" height="740" viewBox="0 0 360 740" fill="none" xmlns="http://www.w3.org/2000/svg">
<rect width="360" height="740" fill="white"/>
<circle cx="48.5" cy="438.5" r="53.5" fill="#D7D2D8" fill-opacity="0.44"/>
<path d="M414.667 475.223L411.963 470.851C390.132 435.468 351.097 413.661 309.422 415.064C302.788 415.285 296.186 416.081 289.691 417.444C250.769 425.635 216.903 454.581 202.919 491.668C194.67 513.475 192.368 538.576 176.699 555.885C156.302 578.431 121.681 579.12 91.2484 578.18C60.8155 577.241 26.1699 578.043 5.87291 600.726C-6.8284 614.892 -10.8777 635.033 -9.84653 653.996C-7.09248 704.122 -49.247 722.68 -4.00012 745C41.2467 767.32 139 745 196 745C272.5 745 266.5 745 364.5 745C364.5 668.5 446.395 538.187 414.667 475.223Z" fill="#EBEBEB"/>
<circle cx="-8" cy="80" r="69" fill="#D7D2D8" fill-opacity="0.44"/>
<circle cx="59" cy="-1" r="69" fill="#D7D2D8" fill-opacity="0.44"/>
<g opacity="0.7">
<path d="M318.332 88.103C321.328 87.7312 323.749 85.4956 325.013 82.95C326.278 80.4045 326.643 77.5635 327.028 74.7796C327.414 71.9957 327.881 69.1452 329.356 66.6759C330.831 64.2067 333.55 62.2236 336.577 62.2618C339.604 62.2999 342.534 64.9694 341.917 67.7151C341.095 71.438 335.498 72.277 333.442 75.5661C332.214 77.5396 332.502 80.047 331.494 82.1254C330.487 84.2037 328.262 85.6004 325.913 86.2726C323.564 86.9447 320.773 88.0601 318.327 88.103" fill="#381E3E"/>
<path d="M263 111.366C267.574 113.372 273.747 111.013 275.463 106.599C276.913 102.876 275.463 98.4473 277.493 94.9579C280.814 89.2377 290.44 90.1911 295.482 85.6911C298.642 82.8691 299.372 78.4693 299.532 74.4031C299.691 70.337 299.521 66.0802 301.402 62.3906C303.283 58.701 308.197 55.9791 312.118 57.7953C314.174 58.7487 315.48 60.7079 316.374 62.6766C317.933 66.1045 318.597 69.8252 318.313 73.5362C318.029 77.2472 316.804 80.8435 314.739 84.0327C312.673 87.2218 309.825 89.9136 306.426 91.8891C303.027 93.8646 299.173 95.0679 295.178 95.4013C292.239 95.6444 288.949 95.5157 286.745 97.3414C284.421 99.2481 284.303 102.523 283.224 105.231C282.558 106.867 281.512 108.347 280.16 109.566C278.808 110.786 277.184 111.714 275.402 112.286C271.84 113.401 266.151 113.21 263 111.332" fill="#381E3E"/>
<path d="M322.988 52.6376C325.56 52.6376 327.645 50.704 327.645 48.3188C327.645 45.9336 325.56 44 322.988 44C320.417 44 318.332 45.9336 318.332 48.3188C318.332 50.704 320.417 52.6376 322.988 52.6376Z" fill="#381E3E"/>
<g opacity="0.9">
<path d="M318.332 88.103C321.328 87.7312 323.749 85.4956 325.013 82.95C326.278 80.4045 326.643 77.5635 327.028 74.7796C327.414 71.9957 327.881 69.1452 329.356 66.6759C330.831 64.2067 333.55 62.2236 336.577 62.2618C339.604 62.2999 342.534 64.9694 341.917 67.7151C341.095 71.438 335.498 72.277 333.442 75.5661C332.214 77.5396 332.502 80.047 331.494 82.1254C330.487 84.2037 328.262 85.6004 325.913 86.2726C323.564 86.9447 320.773 88.0601 318.327 88.103" fill="white"/>
</g>
<g opacity="0.9">
<path d="M263 111.366C267.574 113.372 273.747 111.013 275.463 106.599C276.913 102.876 275.463 98.4473 277.493 94.9579C280.814 89.2377 290.44 90.1911 295.482 85.6911C298.642 82.8691 299.372 78.4693 299.532 74.4031C299.691 70.337 299.521 66.0802 301.402 62.3906C303.283 58.701 308.197 55.9791 312.118 57.7953C314.174 58.7487 315.48 60.7079 316.374 62.6766C317.933 66.1045 318.597 69.8252 318.313 73.5362C318.029 77.2472 316.804 80.8435 314.739 84.0327C312.673 87.2218 309.825 89.9136 306.426 91.8891C303.027 93.8646 299.173 95.0679 295.178 95.4013C292.239 95.6444 288.949 95.5157 286.745 97.3414C284.421 99.2481 284.303 102.523 283.224 105.231C282.558 106.867 281.512 108.347 280.16 109.566C278.808 110.786 277.184 111.714 275.402 112.286C271.84 113.401 266.151 113.21 263 111.332" fill="white"/>
</g>
<g opacity="0.9">
<path d="M322.988 52.6376C325.56 52.6376 327.645 50.704 327.645 48.3188C327.645 45.9336 325.56 44 322.988 44C320.417 44 318.332 45.9336 318.332 48.3188C318.332 50.704 320.417 52.6376 322.988 52.6376Z" fill="white"/>
</g>
<path d="M290.075 108.601C294.264 104.115 299.285 99.2528 305.684 99.2719C310.145 99.2719 314.395 101.755 318.815 101.212C324.134 100.559 328.817 95.6348 333.956 97.1554C337.631 98.2375 339.368 102.623 338.027 105.974C336.685 109.325 332.99 111.523 329.187 112.109C325.383 112.695 321.477 111.923 317.818 110.808C314.159 109.692 310.623 108.243 306.845 107.428C301.529 106.278 295.981 106.433 290.748 107.876" fill="#381E3E"/>
<g opacity="0.9">
<path d="M290.075 108.601C294.264 104.115 299.285 99.2528 305.684 99.2719C310.145 99.2719 314.395 101.755 318.815 101.212C324.134 100.559 328.817 95.6348 333.956 97.1554C337.631 98.2375 339.368 102.623 338.027 105.974C336.685 109.325 332.99 111.523 329.187 112.109C325.383 112.695 321.477 111.923 317.818 110.808C314.159 109.692 310.623 108.243 306.845 107.428C301.529 106.278 295.981 106.433 290.748 107.876" fill="white"/>
</g>
<path d="M285.28 99.4865C285.444 99.9515 285.455 100.451 285.313 100.922C285.171 101.393 284.881 101.815 284.48 102.133C284.08 102.451 283.587 102.653 283.063 102.711C282.539 102.77 282.009 102.683 281.538 102.462C281.068 102.24 280.679 101.895 280.42 101.468C280.161 101.042 280.044 100.554 280.085 100.066C280.125 99.5787 280.32 99.1129 280.645 98.7279C280.971 98.343 281.412 98.0562 281.913 97.9038C282.247 97.8026 282.598 97.7632 282.947 97.7879C283.297 97.8127 283.638 97.9011 283.95 98.0481C284.263 98.195 284.541 98.3977 284.769 98.6445C284.998 98.8913 285.171 99.1774 285.28 99.4865Z" fill="#CEAB5E"/>
<path d="M284.617 98.8141C284.529 98.9381 282.186 97.4937 279.708 95.2771C277.231 93.0605 275.283 91.2682 275.371 91.1633C275.458 91.0584 277.658 92.6696 280.115 94.8815C282.571 97.0933 284.73 98.6902 284.617 98.8141Z" fill="#CEAB5E"/>
<path d="M279.143 87.1401C279.297 87.1401 279.195 88.532 278.069 89.8143C276.943 91.0966 275.499 91.4923 275.474 91.354C275.448 91.2158 276.609 90.639 277.612 89.4473C278.614 88.2556 278.963 87.1067 279.143 87.1401Z" fill="#CEAB5E"/>
<path d="M281.019 89.0183C281.179 89.0183 281.137 90.396 279.94 91.5734C278.742 92.7508 277.267 92.8986 277.272 92.7556C277.278 92.6126 278.48 92.2551 279.513 91.2016C280.546 90.1481 280.86 88.9897 281.019 89.0183Z" fill="#CEAB5E"/>
<path d="M327.578 62.1237C327.661 62.3593 327.667 62.6125 327.595 62.8512C327.523 63.09 327.377 63.3037 327.174 63.4652C326.971 63.6266 326.721 63.7287 326.456 63.7585C326.19 63.7883 325.922 63.7445 325.683 63.6326C325.445 63.5206 325.247 63.3456 325.116 63.1297C324.985 62.9137 324.925 62.6665 324.946 62.4193C324.966 62.1721 325.064 61.936 325.229 61.7408C325.394 61.5457 325.618 61.4002 325.872 61.3229C326.04 61.2715 326.218 61.2514 326.395 61.2638C326.572 61.2763 326.745 61.3209 326.904 61.3953C327.062 61.4697 327.203 61.5723 327.319 61.6973C327.435 61.8223 327.523 61.9672 327.578 62.1237Z" fill="#381E3E"/>
<path d="M327.275 61.79C326.352 61.3132 325.514 60.7088 324.787 59.9976C324.005 59.3493 323.272 58.6517 322.593 57.9098C322.649 57.8478 323.749 58.6772 324.993 59.8165C326.237 60.9558 327.301 61.7233 327.275 61.79Z" fill="#381E3E"/>
<path d="M324.468 55.8696C324.449 56.3643 324.257 56.8399 323.922 57.2249C323.586 57.61 323.125 57.8838 322.608 58.0051C322.572 57.9289 323.184 57.6429 323.692 57.0518C324.201 56.4607 324.381 55.8505 324.468 55.8696Z" fill="#381E3E"/>
<path d="M325.425 56.8227C325.507 56.8227 325.486 57.5187 324.88 58.1145C324.722 58.3068 324.517 58.4615 324.282 58.566C324.047 58.6704 323.789 58.7215 323.528 58.7152C323.528 58.6341 324.14 58.4625 324.659 57.9286C325.178 57.3947 325.337 56.8036 325.425 56.8227Z" fill="#381E3E"/>
<path d="M285.819 65.1842C285.381 65.4662 284.862 65.6213 284.329 65.6299C283.795 65.6384 283.271 65.5001 282.822 65.2324C282.374 64.9647 282.02 64.5796 281.808 64.1258C281.595 63.672 281.532 63.1699 281.627 62.6829C281.721 62.1959 281.97 61.7459 282.34 61.3898C282.711 61.0337 283.187 60.7875 283.708 60.6822C284.23 60.577 284.773 60.6175 285.269 60.7986C285.766 60.9797 286.193 61.2932 286.498 61.6996C286.905 62.2455 287.062 62.9188 286.935 63.572C286.808 64.2252 286.407 64.805 285.819 65.1842Z" fill="#381E3E"/>
<path d="M286.333 64.4117C286.087 64.3354 286.847 61.7804 288.466 58.9107C290.085 56.041 291.452 53.8197 291.679 53.9055C291.905 53.9913 290.908 56.4653 289.304 59.3016C287.701 62.1379 286.58 64.488 286.333 64.4117Z" fill="#381E3E"/>
<path d="M298.53 58.9297C298.53 59.1299 296.273 59.1061 293.991 57.7141C293 57.1435 292.199 56.3282 291.679 55.3593C291.293 54.5918 291.391 54.0341 291.504 54.0293C291.617 54.0246 291.786 54.4679 292.254 55.0542C292.875 55.8213 293.639 56.4785 294.51 56.9943C296.551 58.2528 298.596 58.6675 298.53 58.9297Z" fill="#381E3E"/>
<path d="M292.67 70.2131C292.232 70.4944 291.713 70.6487 291.179 70.6565C290.646 70.6644 290.122 70.5254 289.674 70.2571C289.225 69.9888 288.873 69.6033 288.661 69.1493C288.449 68.6952 288.386 68.1931 288.482 67.7062C288.577 67.2194 288.826 66.7698 289.197 66.4141C289.568 66.0585 290.044 65.8129 290.566 65.7082C291.087 65.6036 291.63 65.6446 292.127 65.8262C292.623 66.0078 293.05 66.3218 293.354 66.7285C293.556 66.9988 293.699 67.3035 293.774 67.625C293.849 67.9465 293.855 68.2786 293.791 68.6022C293.728 68.9258 293.596 69.2347 293.404 69.5111C293.211 69.7875 292.962 70.026 292.67 70.2131Z" fill="#381E3E"/>
<path d="M293.189 69.4408C292.938 69.3645 293.703 66.8094 295.322 63.9398C296.941 61.0701 298.308 58.8487 298.534 58.9345C298.761 59.0203 297.758 61.4944 296.16 64.3306C294.562 67.1669 293.431 69.517 293.189 69.4408Z" fill="#381E3E"/>
<path d="M297.759 60.4841C297.759 60.7129 295.626 60.8178 293.436 59.5832C291.247 58.3486 290.327 56.5562 290.548 56.4657C290.769 56.3751 291.936 57.7575 293.919 58.8491C295.903 59.9407 297.784 60.2315 297.759 60.4841Z" fill="#381E3E"/>
<path d="M304.106 95.9114C303.935 96.2546 303.658 96.5428 303.309 96.7395C302.961 96.9362 302.558 97.0324 302.151 97.0161C301.744 96.9997 301.351 96.8714 301.022 96.6475C300.694 96.4236 300.445 96.1142 300.306 95.7586C300.168 95.4031 300.147 95.0173 300.245 94.6505C300.343 94.2836 300.557 93.9522 300.859 93.6983C301.161 93.4444 301.538 93.2795 301.941 93.2246C302.344 93.1696 302.756 93.2271 303.124 93.3898C303.613 93.6057 303.99 93.9915 304.174 94.4636C304.357 94.9356 304.333 95.4559 304.106 95.9114Z" fill="#381E3E"/>
<path d="M304.147 95.2251C303.952 95.2633 303.412 93.3184 303.289 90.8682C303.165 88.418 303.155 86.4779 303.335 86.4541C303.515 86.4302 303.88 88.4037 303.993 90.8301C304.106 93.2564 304.317 95.187 304.147 95.2251Z" fill="#381E3E"/>
<path d="M309.867 87.3309C309.949 87.4644 308.459 88.2414 306.398 88.1365C305.514 88.1118 304.655 87.8611 303.916 87.4119C303.35 87.0401 303.181 86.6445 303.253 86.6016C303.325 86.5587 303.618 86.7922 304.167 87.0068C304.888 87.2905 305.657 87.4519 306.439 87.4834C308.289 87.5835 309.8 87.1307 309.867 87.3309Z" fill="#381E3E"/>
<path d="M310.659 96.7884C310.488 97.1315 310.211 97.4198 309.862 97.6164C309.514 97.8131 309.111 97.9094 308.704 97.893C308.297 97.8766 307.904 97.7484 307.575 97.5245C307.247 97.3006 306.998 96.9912 306.859 96.6356C306.721 96.28 306.699 95.8943 306.798 95.5274C306.896 95.1606 307.11 94.8291 307.412 94.5753C307.714 94.3214 308.091 94.1565 308.494 94.1015C308.897 94.0466 309.309 94.1041 309.677 94.2667C310.166 94.4826 310.543 94.8684 310.726 95.3405C310.91 95.8126 310.886 96.3328 310.659 96.7884Z" fill="#381E3E"/>
<path d="M310.679 96.1117C310.489 96.1546 309.944 94.205 309.821 91.7548C309.698 89.3046 309.687 87.3693 309.867 87.3454C310.047 87.3216 310.417 89.2951 310.53 91.7214C310.643 94.1478 310.869 96.0641 310.679 96.1117Z" fill="#381E3E"/>
<path d="M310.001 88.6179C310.104 88.7609 308.736 89.5712 306.799 89.5712C304.861 89.5712 303.515 88.6894 303.628 88.5511C303.741 88.4129 305.067 88.9039 306.809 88.9134C308.551 88.9229 309.913 88.4415 310.001 88.6179Z" fill="#381E3E"/>
<path d="M329.572 91.9214C329.419 92.0098 329.241 92.0542 329.061 92.0489C328.881 92.0435 328.707 91.9887 328.561 91.8914C328.414 91.7941 328.302 91.6587 328.239 91.5023C328.175 91.3459 328.164 91.1755 328.205 91.0129C328.246 90.8502 328.338 90.7025 328.47 90.5886C328.602 90.4746 328.767 90.3995 328.945 90.3727C329.122 90.3459 329.305 90.3688 329.469 90.4382C329.633 90.5077 329.77 90.6208 329.865 90.763C329.991 90.9528 330.031 91.1812 329.976 91.3982C329.921 91.6153 329.776 91.8034 329.572 91.9214Z" fill="#CEAB5E"/>
<path d="M329.757 91.6736C329.675 91.645 329.988 90.7965 330.579 89.8527C330.897 89.2661 331.293 88.7185 331.756 88.2224C331.839 88.2605 331.448 89.0709 330.857 90.0005C330.544 90.587 330.176 91.1469 329.757 91.6736Z" fill="#CEAB5E"/>
<path d="M333.956 90.0243C333.406 90.0556 332.865 89.8843 332.45 89.5476C332.13 89.3381 331.878 89.0513 331.72 88.7182C331.602 88.4513 331.648 88.2653 331.684 88.2701C331.72 88.2749 331.772 88.4226 331.916 88.6276C332.111 88.8945 332.357 89.1269 332.64 89.3141C333.314 89.7669 333.992 89.9385 333.956 90.0243Z" fill="#CEAB5E"/>
<path d="M331.782 93.7283C331.629 93.8155 331.451 93.8586 331.271 93.8521C331.092 93.8457 330.918 93.7901 330.773 93.6923C330.627 93.5944 330.516 93.4588 330.454 93.3025C330.391 93.1461 330.38 92.9761 330.421 92.8139C330.463 92.6517 330.555 92.5045 330.687 92.391C330.819 92.2775 330.984 92.2027 331.161 92.1761C331.339 92.1495 331.521 92.1722 331.684 92.2415C331.848 92.3107 331.986 92.4234 332.08 92.5652C332.143 92.6596 332.185 92.7647 332.204 92.8744C332.224 92.984 332.219 93.0961 332.191 93.2041C332.164 93.3122 332.113 93.4141 332.043 93.5041C331.973 93.594 331.884 93.6702 331.782 93.7283Z" fill="#CEAB5E"/>
<path d="M331.972 93.4754C331.89 93.4468 332.198 92.5983 332.794 91.6592C333.113 91.0727 333.506 90.5237 333.966 90.0242C334.054 90.0623 333.658 90.8774 333.067 91.8022C332.757 92.3892 332.39 92.9492 331.972 93.4754Z" fill="#CEAB5E"/>
<path d="M333.679 90.5343C333.679 90.6106 332.954 90.6106 332.24 90.1625C331.525 89.7144 331.253 89.0947 331.33 89.0661C331.407 89.0375 331.772 89.5428 332.42 89.9194C333.067 90.296 333.694 90.4485 333.679 90.5343Z" fill="#CEAB5E"/>
<path d="M269.476 122.101C269.246 122.233 268.979 122.299 268.709 122.29C268.438 122.282 268.177 122.199 267.957 122.053C267.738 121.906 267.57 121.703 267.475 121.468C267.38 121.233 267.363 120.977 267.424 120.733C267.486 120.489 267.625 120.267 267.823 120.096C268.02 119.925 268.268 119.812 268.535 119.772C268.802 119.731 269.076 119.765 269.322 119.869C269.568 119.973 269.776 120.143 269.918 120.356C270.109 120.642 270.169 120.986 270.086 121.313C270.003 121.64 269.784 121.924 269.476 122.101Z" fill="#381E3E"/>
<path d="M269.758 121.724C269.635 121.681 270.098 120.403 270.992 118.997C271.886 117.591 272.647 116.495 272.755 116.542C272.863 116.59 272.292 117.82 271.403 119.212C270.514 120.604 269.882 121.767 269.758 121.724Z" fill="#381E3E"/>
<path d="M276.08 119.25C276.08 119.355 274.934 119.283 273.819 118.526C273.334 118.214 272.953 117.783 272.719 117.281C272.544 116.881 272.606 116.604 272.662 116.604C272.719 116.604 272.796 116.833 273.017 117.143C273.308 117.545 273.675 117.894 274.102 118.173C275.093 118.859 276.116 119.117 276.08 119.25Z" fill="#381E3E"/>
<path d="M272.796 124.808C272.566 124.941 272.299 125.008 272.028 124.999C271.758 124.991 271.496 124.909 271.276 124.762C271.056 124.616 270.888 124.412 270.793 124.177C270.698 123.942 270.68 123.686 270.742 123.441C270.804 123.197 270.943 122.975 271.141 122.804C271.34 122.633 271.588 122.52 271.855 122.48C272.123 122.44 272.397 122.475 272.643 122.58C272.889 122.684 273.096 122.854 273.238 123.068C273.427 123.354 273.486 123.697 273.404 124.023C273.321 124.349 273.102 124.631 272.796 124.808Z" fill="#381E3E"/>
<path d="M273.084 124.432C272.96 124.389 273.423 123.116 274.317 121.705C275.211 120.294 275.967 119.202 276.08 119.25C276.193 119.298 275.617 120.528 274.728 121.924C273.839 123.321 273.202 124.475 273.084 124.432Z" fill="#381E3E"/>
<path d="M275.643 120.017C275.643 120.132 274.559 120.132 273.485 119.455C272.41 118.778 271.999 117.848 272.112 117.81C272.225 117.772 272.78 118.497 273.752 119.093C274.723 119.688 275.664 119.889 275.643 120.017Z" fill="#381E3E"/>
</g>
<path d="M40.418 243.309C40.484 243.565 40.4764 243.84 40.396 244.099C40.3155 244.357 40.166 244.587 39.9663 244.759C39.7665 244.932 39.5256 245.039 39.2739 245.068C39.0222 245.097 38.771 245.045 38.5522 244.92C38.3334 244.796 38.1568 244.603 38.0447 244.367C37.9325 244.13 37.89 243.861 37.9224 243.593C37.9548 243.325 38.0606 243.07 38.2266 242.861C38.3926 242.651 38.6112 242.497 38.8547 242.417C39.181 242.309 39.529 242.343 39.8221 242.51C40.1152 242.677 40.3295 242.965 40.418 243.309Z" fill="#381E3E"/>
<path d="M40.1305 242.936C40.0562 243.043 38.9486 242.256 37.8323 241.019C36.716 239.781 35.8625 238.756 35.9373 238.664C36.0121 238.573 37.0449 239.451 38.1488 240.68C39.2527 241.908 40.2047 242.828 40.1305 242.936Z" fill="#381E3E"/>
<path d="M39.435 236.183C39.536 236.211 39.161 237.296 38.1328 238.169C37.7035 238.553 37.1863 238.805 36.6401 238.896C36.2075 238.958 35.9575 238.824 35.9726 238.77C35.9877 238.715 36.2288 238.702 36.5865 238.572C37.0513 238.399 37.4858 238.138 37.8683 237.802C38.7947 237.029 39.316 236.112 39.435 236.183Z" fill="#381E3E"/>
<path d="M43.9139 240.832C43.9805 241.089 43.9733 241.365 43.8931 241.623C43.8129 241.882 43.6634 242.112 43.4636 242.285C43.2637 242.458 43.0225 242.565 42.7705 242.594C42.5185 242.623 42.2671 242.571 42.0481 242.446C41.8291 242.321 41.6525 242.128 41.5405 241.891C41.4286 241.655 41.3864 241.385 41.4193 241.117C41.4522 240.849 41.5587 240.594 41.7253 240.385C41.892 240.175 42.1112 240.021 42.3553 239.942C42.6807 239.836 43.0273 239.87 43.3194 240.037C43.6114 240.204 43.8251 240.49 43.9139 240.832Z" fill="#381E3E"/>
<path d="M43.628 240.454C43.5537 240.562 42.4507 239.776 41.3298 238.538C40.2089 237.299 39.3587 236.279 39.4349 236.183C39.511 236.087 40.5425 236.97 41.6509 238.2C42.7594 239.43 43.7009 240.352 43.628 240.454Z" fill="#381E3E"/>
<path d="M40.0576 236.809C40.1678 236.84 39.8782 237.885 38.939 238.739C37.9998 239.593 36.9942 239.741 36.9877 239.622C36.9811 239.503 37.8276 239.162 38.6613 238.385C39.4949 237.608 39.939 236.755 40.0576 236.809Z" fill="#381E3E"/>
<path d="M49.0079 248.486C48.8701 248.713 48.6679 248.899 48.4269 249.022C48.1858 249.144 47.9168 249.198 47.6539 249.175C47.3909 249.153 47.1458 249.055 46.9496 248.895C46.7533 248.734 46.6148 248.519 46.5514 248.275C46.4881 248.031 46.5028 247.77 46.5937 247.525C46.6846 247.28 46.8477 247.061 47.0622 246.898C47.2767 246.734 47.5331 246.632 47.7989 246.604C48.0647 246.577 48.3279 246.626 48.5553 246.744C48.86 246.903 49.0788 247.175 49.1636 247.502C49.2485 247.829 49.1925 248.183 49.0079 248.486Z" fill="#381E3E"/>
<path d="M49.0741 248.02C48.9453 248.042 48.7357 246.699 48.8425 245.036C48.9493 243.373 49.0882 242.046 49.2057 242.036C49.3233 242.025 49.4153 243.378 49.3061 245.026C49.1969 246.674 49.2028 247.998 49.0741 248.02Z" fill="#381E3E"/>
<path d="M53.4243 242.808C53.4748 242.9 52.4358 243.389 51.0934 243.262C50.5186 243.223 49.9771 243.028 49.5304 242.701C49.1845 242.434 49.1055 242.162 49.155 242.135C49.2046 242.107 49.3823 242.271 49.7252 242.436C50.1732 242.649 50.6634 242.777 51.1714 242.816C52.3712 242.941 53.3916 242.674 53.4243 242.808Z" fill="#381E3E"/>
<path d="M53.2214 249.261C53.0839 249.488 52.8818 249.675 52.6406 249.798C52.3995 249.921 52.1302 249.975 51.8669 249.953C51.6037 249.93 51.3582 249.832 51.1618 249.672C50.9653 249.512 50.8266 249.296 50.7634 249.052C50.7001 248.807 50.7151 248.546 50.8065 248.301C50.8978 248.055 51.0614 247.837 51.2764 247.673C51.4915 247.51 51.7484 247.408 52.0145 247.381C52.2806 247.355 52.5439 247.404 52.7712 247.523C53.0742 247.682 53.2916 247.955 53.376 248.28C53.4604 248.606 53.4048 248.958 53.2214 249.261Z" fill="#381E3E"/>
<path d="M53.2923 248.792C53.1635 248.814 52.9562 247.476 53.0607 245.809C53.1653 244.141 53.3019 242.821 53.424 242.808C53.546 242.795 53.6336 244.151 53.5267 245.803C53.4198 247.455 53.4166 248.773 53.2923 248.792Z" fill="#381E3E"/>
<path d="M53.4104 243.691C53.4655 243.791 52.515 244.313 51.2476 244.237C49.9803 244.161 49.1724 243.544 49.2531 243.456C49.3339 243.369 50.1692 243.736 51.3075 243.791C52.4457 243.846 53.3665 243.568 53.4104 243.691Z" fill="#381E3E"/>
<path d="M43.5976 256.542C43.5987 256.792 43.521 257.033 43.3746 257.235C43.2281 257.437 43.0193 257.59 42.7747 257.676C42.53 257.762 42.2605 257.776 42.0001 257.717C41.7397 257.658 41.5002 257.528 41.3118 257.344C41.1234 257.159 40.9946 256.929 40.9417 256.682C40.8888 256.435 40.9142 256.182 41.0146 255.955C41.115 255.728 41.2859 255.538 41.5058 255.408C41.7257 255.278 41.9846 255.214 42.2498 255.224C42.4261 255.231 42.6008 255.271 42.7639 255.341C42.9271 255.411 43.0755 255.51 43.2006 255.633C43.3258 255.755 43.4253 255.898 43.4934 256.054C43.5615 256.21 43.5969 256.376 43.5976 256.542Z" fill="#381E3E"/>
<path d="M43.4213 256.127C42.707 255.374 42.1138 254.527 41.6621 253.616C41.1366 252.747 40.6737 251.847 40.2768 250.923C40.3505 250.883 41.1162 252.028 41.9158 253.513C42.7154 254.998 43.4675 256.073 43.4213 256.127Z" fill="#381E3E"/>
<path d="M42.7194 249.613C42.5383 250.074 42.2008 250.46 41.7573 250.713C41.3138 250.966 40.7883 251.073 40.2597 251.018C40.2509 250.934 40.9225 250.865 41.5975 250.474C42.2725 250.083 42.6431 249.566 42.7194 249.613Z" fill="#381E3E"/>
<path d="M43.3085 250.828C43.3862 250.855 43.1378 251.505 42.369 251.868C42.1566 251.998 41.9122 252.077 41.656 252.098C41.3997 252.119 41.1388 252.083 40.8949 251.991C40.9216 251.914 41.5556 251.954 42.2215 251.62C42.8874 251.287 43.2323 250.781 43.3085 250.828Z" fill="#381E3E"/>
<path d="M340.429 319.118C340.271 319.311 340.058 319.448 339.817 319.511C339.576 319.574 339.317 319.56 339.073 319.47C338.83 319.381 338.613 319.221 338.449 319.01C338.286 318.799 338.183 318.546 338.155 318.284C338.126 318.022 338.173 317.763 338.289 317.538C338.405 317.314 338.586 317.135 338.807 317.023C339.029 316.912 339.282 316.873 339.534 316.913C339.787 316.952 340.027 317.067 340.225 317.244C340.357 317.361 340.467 317.503 340.548 317.66C340.63 317.818 340.682 317.989 340.701 318.163C340.719 318.337 340.705 318.511 340.659 318.675C340.612 318.838 340.534 318.989 340.429 319.118Z" fill="#381E3E"/>
<path d="M340.557 318.685C340.484 317.65 340.564 316.619 340.793 315.629C340.94 314.623 341.154 313.634 341.435 312.668C341.517 312.684 341.381 314.055 341.055 315.71C340.729 317.365 340.627 318.673 340.557 318.685Z" fill="#381E3E"/>
<path d="M344.153 313.209C343.72 313.449 343.214 313.533 342.711 313.447C342.208 313.361 341.734 313.109 341.361 312.731C341.408 312.66 341.97 313.034 342.74 313.161C343.509 313.288 344.124 313.124 344.153 313.209Z" fill="#381E3E"/>
<path d="M343.836 314.521C343.879 314.591 343.274 314.936 342.45 314.728C342.203 314.693 341.965 314.599 341.753 314.452C341.542 314.306 341.364 314.112 341.234 313.886C341.303 313.844 341.767 314.277 342.493 314.443C343.219 314.608 343.807 314.437 343.836 314.521Z" fill="#381E3E"/>
<path d="M333.922 322.778C333.905 322.954 333.838 323.124 333.729 323.268C333.62 323.411 333.474 323.521 333.31 323.584C333.145 323.646 332.97 323.659 332.806 323.619C332.642 323.58 332.496 323.49 332.388 323.362C332.28 323.234 332.213 323.073 332.197 322.9C332.181 322.727 332.216 322.548 332.297 322.388C332.379 322.228 332.503 322.093 332.655 322C332.807 321.907 332.979 321.86 333.15 321.866C333.378 321.874 333.587 321.974 333.731 322.145C333.876 322.316 333.945 322.544 333.922 322.778Z" fill="#CEAB5E"/>
<path d="M333.828 322.483C333.757 322.533 333.249 321.785 332.825 320.755C332.532 320.156 332.317 319.516 332.183 318.85C332.261 318.805 332.694 319.594 333.106 320.616C333.402 321.211 333.643 321.836 333.828 322.483Z" fill="#CEAB5E"/>
<path d="M334.927 318.108C334.633 318.574 334.179 318.914 333.664 319.056C333.307 319.195 332.927 319.233 332.565 319.168C332.279 319.109 332.155 318.963 332.18 318.936C332.204 318.91 332.354 318.954 332.605 318.956C332.936 318.952 333.268 318.887 333.585 318.765C334.345 318.481 334.879 318.029 334.927 318.108Z" fill="#CEAB5E"/>
<path d="M336.677 322.031C336.659 322.206 336.591 322.376 336.481 322.518C336.371 322.66 336.225 322.769 336.061 322.831C335.897 322.892 335.722 322.904 335.558 322.864C335.395 322.824 335.25 322.734 335.142 322.606C335.034 322.478 334.968 322.317 334.953 322.144C334.937 321.971 334.972 321.793 335.053 321.633C335.135 321.473 335.259 321.339 335.411 321.246C335.562 321.153 335.734 321.106 335.904 321.112C336.018 321.116 336.128 321.142 336.228 321.19C336.328 321.239 336.417 321.307 336.489 321.393C336.561 321.478 336.614 321.578 336.647 321.688C336.679 321.797 336.689 321.914 336.677 322.031Z" fill="#CEAB5E"/>
<path d="M336.582 321.729C336.511 321.779 336 321.035 335.582 320.004C335.29 319.403 335.072 318.764 334.933 318.1C335.015 318.051 335.448 318.847 335.857 319.865C336.154 320.459 336.397 321.083 336.582 321.729Z" fill="#CEAB5E"/>
<path d="M335.181 318.63C335.243 318.675 334.822 319.264 334.042 319.585C333.262 319.906 332.6 319.767 332.621 319.688C332.643 319.608 333.266 319.605 333.949 319.297C334.632 318.989 335.12 318.568 335.181 318.63Z" fill="#CEAB5E"/>
</svg>
