<svg width="360" height="740" viewBox="0 0 360 740" fill="none" xmlns="http://www.w3.org/2000/svg">
<rect width="360" height="740" fill="white"/>
<circle cx="-8" cy="80" r="69" fill="#D7D2D8" fill-opacity="0.44"/>
<circle cx="59" cy="-1" r="69" fill="#D7D2D8" fill-opacity="0.44"/>
<path d="M392.342 314.427C379.693 283.35 353.609 259.765 321.602 251.439C311.264 248.721 300.583 247.604 289.919 248.124C253.519 249.986 218.683 271.771 200.606 303.995C189.974 322.944 184.248 345.816 167.565 359.519C145.848 377.354 114.43 372.917 87.0211 367.584C59.612 362.251 28.1688 357.892 6.52862 375.823C-7.01785 387.054 -13.5988 405.081 -15.4192 422.803C-20.2395 469.635 5.44319 516.38 43.1425 543.672C101.431 585.849 189.291 587.233 255.143 563.682C348.25 530.343 423.127 431.807 396.915 328.207C395.71 323.51 394.182 318.905 392.342 314.427Z" fill="#EBEBEB"/>
<path d="M320.934 435.708C327.976 435.708 333.684 429.999 333.684 422.957C333.684 415.915 327.976 410.207 320.934 410.207C313.892 410.207 308.183 415.915 308.183 422.957C308.183 429.999 313.892 435.708 320.934 435.708Z" fill="#D7D2D8"/>
<path d="M187.345 327.257C189.415 329.395 191.895 331.093 194.636 332.25C207 337.922 219.774 336.365 230.005 330.812C244.343 323.03 249.202 315.351 250.584 302.877C252.093 295.459 243.577 280.955 236.364 279.485C230.21 278.237 223.969 278.49 220.201 283.001C215.192 288.989 213.636 299.259 206.494 301.906C202.442 303.399 197.504 301.993 193.143 302.625C190.809 302.944 188.622 303.95 186.86 305.514C185.097 307.077 183.839 309.129 183.245 311.409C181.87 316.347 183.45 322.975 187.345 327.257Z" fill="#D7D2D8"/>
<path d="M247.44 492.596C244.067 484.649 237.415 479 226.987 477.42L227.216 477.491C220.383 475.944 213.303 475.831 206.423 477.159C198.342 478.739 190.544 482.444 184.856 488.401C179.168 494.358 175.755 502.7 176.553 510.884C177.58 521.51 186.104 530.974 196.556 533.107C204.59 534.742 214.537 530.903 216.164 522.837C216.551 520.902 216.44 518.887 216.954 516.975C218.455 510.995 225.533 507.835 231.648 508.625C234.603 508.996 237.533 510.079 240.472 509.613C243.972 509.06 246.879 506.255 248.056 502.921C249.124 499.52 248.904 495.846 247.44 492.596Z" fill="#D7D2D8"/>
<path d="M88.8001 337.906C98.233 337.906 105.88 330.259 105.88 320.826C105.88 311.393 98.233 303.746 88.8001 303.746C79.3672 303.746 71.7203 311.393 71.7203 320.826C71.7203 330.259 79.3672 337.906 88.8001 337.906Z" fill="#D7D2D8"/>
<path d="M297.344 328.339C301.494 328.339 304.857 324.975 304.857 320.826C304.857 316.677 301.494 313.313 297.344 313.313C293.195 313.313 289.831 316.677 289.831 320.826C289.831 324.975 293.195 328.339 297.344 328.339Z" fill="#D7D2D8"/>
<path d="M183.64 391.713C183.329 390.729 182.758 389.847 181.988 389.16C181.217 388.473 180.276 388.007 179.263 387.81C178.321 387.669 177.362 387.691 176.427 387.873C172.477 388.529 168.582 390.939 167.16 394.699C165.959 397.65 165.588 400.874 166.086 404.021C166.15 405.225 166.403 406.411 166.836 407.537C167.71 409.399 169.228 410.884 171.11 411.716C171.961 411.991 172.874 412.006 173.733 411.758C174.591 411.51 175.356 411.011 175.929 410.325C176.487 409.629 176.903 408.83 177.153 407.973C177.402 407.117 177.48 406.219 177.383 405.332C177.288 404.084 176.94 402.804 177.383 401.627C178.078 399.573 180.59 398.878 182.17 397.385C182.903 396.66 183.427 395.75 183.685 394.751C183.944 393.753 183.928 392.703 183.64 391.713Z" fill="#D7D2D8"/>
<path d="M358.996 610.93C358.996 611.041 281.102 611.135 185.038 611.135C88.9739 611.135 11.0641 611.009 11.0641 610.93C11.0641 610.851 88.9423 610.725 185.038 610.725C281.133 610.725 358.996 610.788 358.996 610.93Z" fill="#263238"/>
<path d="M298.64 539.506C298.514 532.738 295.902 526.254 291.301 521.289C289.089 530.429 298.64 539.506 298.64 539.506Z" fill="#381E3E"/>
<path d="M287.991 534.347C281.734 531.77 274.749 531.576 268.359 533.802C275.88 539.482 287.991 534.347 287.991 534.347Z" fill="#381E3E"/>
<path d="M286.782 528.422C287.793 523.182 286.843 517.753 284.112 513.167C280.897 519.867 286.782 528.422 286.782 528.422Z" fill="#CEAB5E"/>
<path d="M327.949 507.061C312.386 511.2 304.036 524.733 304.036 524.733C317.339 524.741 327.949 507.061 327.949 507.061Z" fill="#381E3E"/>
<path d="M303.095 513.436C303.885 496.664 287.509 477.673 287.509 477.673C289.981 498.505 303.095 513.436 303.095 513.436Z" fill="#381E3E"/>
<path d="M303.174 465.665C302.85 474.066 304.889 482.389 309.06 489.689C311.383 478.897 303.174 465.665 303.174 465.665Z" fill="#381E3E"/>
<path d="M309.495 499.745C321.755 498.426 328.455 486.229 328.455 486.229C313.595 490.384 309.495 499.745 309.495 499.745Z" fill="#CEAB5E"/>
<path d="M335.92 551.024C330.169 547.461 323.307 546.139 316.644 547.311C323.138 554.129 335.92 551.024 335.92 551.024Z" fill="#381E3E"/>
<path d="M304.162 556.531C305.726 560.503 308.649 563.792 312.41 565.813C311.88 560.157 304.162 556.531 304.162 556.531Z" fill="#CEAB5E"/>
<path d="M305.742 554.729C312.718 559.019 320.412 557.344 320.412 557.344C315.688 552.423 305.742 554.729 305.742 554.729Z" fill="#381E3E"/>
<path d="M299.469 577.308C299.469 577.308 299.469 577.221 299.469 577.055C299.469 576.889 299.469 576.62 299.469 576.328C299.469 575.633 299.469 574.701 299.469 573.516C299.469 572.331 299.469 570.798 299.469 569.068C299.469 567.338 299.469 565.363 299.596 563.182C299.699 558.822 300.015 553.631 300.457 547.888C300.899 542.145 301.65 535.84 302.614 529.252C304.549 516.083 307.204 504.304 309.329 495.851C310.403 491.616 311.304 488.203 311.967 485.857C312.275 484.712 312.52 483.803 312.694 483.14C312.765 482.855 312.828 482.626 312.876 482.429C312.939 482.349 312.984 482.258 313.01 482.16C312.97 482.233 312.939 482.31 312.915 482.389C312.852 482.579 312.781 482.808 312.686 483.084L311.857 485.77C311.13 488.14 310.166 491.506 309.044 495.724C306.14 506.731 303.843 517.89 302.163 529.149C301.2 535.746 300.52 542.066 300.046 547.825C299.572 553.584 299.359 558.782 299.304 563.151C299.232 565.331 299.256 567.306 299.256 569.044C299.256 570.782 299.256 572.275 299.327 573.492C299.398 574.708 299.398 575.617 299.422 576.304L299.462 577.031C299.454 577.123 299.457 577.216 299.469 577.308Z" fill="#263238"/>
<path d="M321.984 541.797C321.898 541.671 316.936 544.957 310.924 549.057C304.913 553.157 300.078 556.641 300.165 556.767C300.252 556.894 305.205 553.607 311.225 549.507C317.244 545.407 322.063 541.923 321.984 541.797Z" fill="#263238"/>
<path d="M300.149 543.59C299.923 543.278 299.657 542.996 299.359 542.753L297.21 540.62L289.839 533.707L282.469 526.795L280.233 524.701C279.975 524.427 279.686 524.183 279.372 523.975C279.567 524.298 279.807 524.593 280.083 524.852C280.565 525.389 281.292 526.147 282.2 527.071C284.017 528.92 286.577 531.409 289.468 534.11C292.359 536.812 294.998 539.198 296.949 540.904C297.921 541.758 298.719 542.445 299.28 542.903C299.54 543.167 299.832 543.397 300.149 543.59Z" fill="#263238"/>
<path d="M337.729 533.85C337.729 533.85 325.05 533.613 319.693 543.582C323.25 543.477 326.733 542.542 329.864 540.853C332.996 539.163 335.689 536.765 337.729 533.85Z" fill="#381E3E"/>
<path d="M320.42 528.77C320.42 528.77 310.095 536.133 311.73 547.335C314.526 545.133 316.769 542.307 318.278 539.083C319.786 535.86 320.52 532.328 320.42 528.77Z" fill="#381E3E"/>
<path d="M266.06 510.6C266.06 510.6 270.137 524.82 283.069 527.34C281.736 523.417 279.503 519.86 276.55 516.953C273.597 514.046 270.004 511.871 266.06 510.6Z" fill="#381E3E"/>
<path d="M326.045 457.883C326.045 457.883 309.85 468.43 311.667 485.589C316.058 482.411 319.644 478.251 322.141 473.441C324.637 468.63 325.974 463.303 326.045 457.883Z" fill="#381E3E"/>
<path d="M272.23 551.68C272.548 551.997 272.901 552.278 273.281 552.517C273.976 553.023 274.972 553.781 276.18 554.737C279.321 557.231 282.249 559.982 284.933 562.961C287.607 565.954 290.03 569.161 292.178 572.552C292.968 573.855 293.647 574.922 294.074 575.672C294.272 576.078 294.516 576.46 294.801 576.81C294.665 576.379 294.485 575.963 294.263 575.57C293.892 574.78 293.3 573.681 292.51 572.346C288.371 565.377 282.903 559.29 276.417 554.429C275.177 553.505 274.142 552.794 273.399 552.344C273.035 552.081 272.643 551.858 272.23 551.68Z" fill="#263238"/>
<path d="M286.3 562.234C287.471 555.571 286.149 548.71 282.587 542.958C280.849 554.982 286.3 562.234 286.3 562.234Z" fill="#381E3E"/>
<path d="M275.422 556.301C271.143 553.868 266.119 553.09 261.305 554.113C269.11 558.261 275.422 556.301 275.422 556.301Z" fill="#CEAB5E"/>
<path d="M285.234 609.476L311.888 609.445L319.449 574.021H279.704L285.234 609.476Z" fill="#263238"/>
<path d="M277.065 580.144H321.969V574.029H277.065V580.144Z" fill="#263238"/>
<path d="M277.357 580.12C277.357 580.231 287.398 580.325 299.778 580.325C312.157 580.325 322.206 580.231 322.206 580.12C322.206 580.009 312.165 579.915 299.778 579.915C287.39 579.915 277.357 580.041 277.357 580.12Z" fill="#455A64"/>
<path d="M258.184 412.008C262.79 411.392 266.511 407.687 268.454 403.468C270.397 399.249 270.958 394.541 271.551 389.927C272.143 385.314 272.862 380.59 275.129 376.497C277.397 372.405 281.576 369.119 286.229 369.182C290.882 369.245 295.385 373.669 294.437 378.22C293.173 384.39 284.57 385.78 281.41 391.231C279.522 394.502 279.964 398.657 278.416 402.101C276.867 405.546 273.447 407.86 269.836 408.974C266.226 410.088 261.936 411.937 258.176 412.008" fill="#381E3E"/>
<path d="M173.133 450.56C180.164 453.886 189.651 449.975 192.29 442.66C194.518 436.49 192.29 429.151 195.411 423.368C200.514 413.888 215.311 415.468 223.061 408.011C227.919 403.334 229.041 396.042 229.286 389.303C229.531 382.565 229.27 375.51 232.161 369.395C235.053 363.281 242.605 358.77 248.633 361.78C251.793 363.36 253.799 366.607 255.174 369.869C257.57 375.55 258.592 381.717 258.155 387.867C257.718 394.017 255.836 399.977 252.661 405.262C249.486 410.547 245.108 415.008 239.883 418.282C234.659 421.556 228.735 423.55 222.594 424.103C218.076 424.506 213.02 424.293 209.631 427.318C206.06 430.478 205.878 435.906 204.219 440.393C203.196 443.104 201.588 445.558 199.51 447.578C197.432 449.599 194.935 451.138 192.195 452.085C186.721 453.933 177.975 453.617 173.133 450.505" fill="#381E3E"/>
<path d="M265.341 353.232C269.294 353.232 272.499 350.028 272.499 346.075C272.499 342.122 269.294 338.917 265.341 338.917C261.388 338.917 258.184 342.122 258.184 346.075C258.184 350.028 261.388 353.232 265.341 353.232Z" fill="#381E3E"/>
<g opacity="0.9">
<path d="M258.184 412.008C262.79 411.392 266.511 407.687 268.454 403.468C270.397 399.249 270.958 394.541 271.551 389.927C272.143 385.314 272.862 380.59 275.129 376.497C277.397 372.405 281.576 369.119 286.229 369.182C290.882 369.245 295.385 373.669 294.437 378.22C293.173 384.39 284.57 385.78 281.41 391.231C279.522 394.502 279.964 398.657 278.416 402.101C276.867 405.546 273.447 407.86 269.836 408.974C266.226 410.088 261.936 411.937 258.176 412.008" fill="white"/>
</g>
<g opacity="0.9">
<path d="M173.133 450.56C180.164 453.886 189.651 449.975 192.29 442.66C194.518 436.49 192.29 429.151 195.411 423.368C200.514 413.888 215.311 415.468 223.061 408.011C227.919 403.334 229.041 396.042 229.286 389.303C229.531 382.565 229.27 375.51 232.161 369.395C235.053 363.281 242.605 358.77 248.633 361.78C251.793 363.36 253.799 366.607 255.174 369.869C257.57 375.55 258.592 381.717 258.155 387.867C257.718 394.017 255.836 399.977 252.661 405.262C249.486 410.547 245.108 415.008 239.883 418.282C234.659 421.556 228.735 423.55 222.594 424.103C218.076 424.506 213.02 424.293 209.631 427.318C206.06 430.478 205.878 435.906 204.219 440.393C203.196 443.104 201.588 445.558 199.51 447.578C197.432 449.599 194.935 451.138 192.195 452.085C186.721 453.933 177.975 453.617 173.133 450.505" fill="white"/>
</g>
<g opacity="0.9">
<path d="M265.341 353.232C269.294 353.232 272.499 350.028 272.499 346.075C272.499 342.122 269.294 338.917 265.341 338.917C261.388 338.917 258.184 342.122 258.184 346.075C258.184 350.028 261.388 353.232 265.341 353.232Z" fill="white"/>
</g>
<path d="M214.75 445.978C221.188 438.544 228.907 430.486 238.742 430.518C245.599 430.518 252.133 434.634 258.927 433.733C267.103 432.651 274.3 424.49 282.2 427.01C287.849 428.803 290.519 436.071 288.457 441.625C286.395 447.179 280.715 450.821 274.869 451.792C269.023 452.764 263.019 451.484 257.394 449.636C251.769 447.787 246.334 445.385 240.528 444.035C232.355 442.129 223.828 442.385 215.785 444.777" fill="#381E3E"/>
<g opacity="0.9">
<path d="M214.75 445.978C221.188 438.544 228.907 430.486 238.742 430.518C245.599 430.518 252.133 434.634 258.927 433.733C267.103 432.651 274.3 424.49 282.2 427.01C287.849 428.803 290.519 436.071 288.457 441.625C286.395 447.179 280.715 450.821 274.869 451.792C269.023 452.764 263.019 451.484 257.394 449.636C251.769 447.787 246.334 445.385 240.528 444.035C232.355 442.129 223.828 442.385 215.785 444.777" fill="white"/>
</g>
<path d="M207.379 430.873C207.631 431.644 207.649 432.472 207.43 433.253C207.211 434.033 206.766 434.732 206.15 435.259C205.535 435.787 204.777 436.12 203.972 436.217C203.167 436.314 202.351 436.17 201.628 435.804C200.905 435.437 200.307 434.864 199.909 434.158C199.511 433.451 199.332 432.643 199.394 431.834C199.455 431.026 199.755 430.254 200.256 429.616C200.756 428.978 201.434 428.503 202.205 428.25C202.717 428.083 203.257 428.017 203.794 428.058C204.331 428.099 204.855 428.246 205.335 428.489C205.816 428.733 206.244 429.069 206.595 429.478C206.945 429.887 207.212 430.361 207.379 430.873Z" fill="#CEAB5E"/>
<path d="M206.36 429.759C206.226 429.965 202.623 427.571 198.816 423.898C195.008 420.224 192.014 417.254 192.148 417.08C192.282 416.906 195.663 419.576 199.44 423.242C203.216 426.907 206.534 429.554 206.36 429.759Z" fill="#CEAB5E"/>
<path d="M197.946 410.412C198.183 410.412 198.025 412.719 196.295 414.844C194.565 416.969 192.345 417.625 192.306 417.396C192.266 417.167 194.052 416.211 195.592 414.236C197.133 412.261 197.67 410.357 197.946 410.412Z" fill="#CEAB5E"/>
<path d="M200.83 413.525C201.075 413.525 201.012 415.808 199.171 417.759C197.33 419.71 195.063 419.955 195.071 419.718C195.079 419.481 196.927 418.889 198.515 417.143C200.103 415.397 200.585 413.477 200.83 413.525Z" fill="#CEAB5E"/>
<path d="M272.396 368.953C272.524 369.343 272.533 369.763 272.423 370.159C272.312 370.554 272.087 370.908 271.775 371.176C271.463 371.444 271.079 371.613 270.671 371.662C270.263 371.712 269.85 371.639 269.484 371.454C269.117 371.268 268.814 370.978 268.612 370.62C268.41 370.262 268.319 369.853 268.35 369.443C268.381 369.033 268.533 368.642 268.786 368.318C269.039 367.995 269.383 367.754 269.773 367.626C270.033 367.541 270.306 367.507 270.578 367.528C270.851 367.549 271.116 367.623 271.36 367.746C271.603 367.869 271.82 368.039 271.998 368.246C272.176 368.453 272.311 368.693 272.396 368.953Z" fill="#381E3E"/>
<path d="M271.93 368.4C270.512 367.61 269.223 366.608 268.106 365.43C266.904 364.355 265.777 363.199 264.733 361.97C264.82 361.867 266.511 363.241 268.422 365.13C270.334 367.018 271.969 368.29 271.93 368.4Z" fill="#381E3E"/>
<path d="M267.617 358.588C267.587 359.408 267.292 360.196 266.777 360.834C266.261 361.472 265.552 361.926 264.757 362.127C264.701 362.001 265.642 361.527 266.424 360.547C267.206 359.568 267.482 358.557 267.617 358.588Z" fill="#381E3E"/>
<path d="M269.086 360.168C269.212 360.168 269.181 361.322 268.249 362.309C268.006 362.628 267.691 362.884 267.33 363.057C266.969 363.23 266.571 363.315 266.171 363.305C266.171 363.17 267.111 362.886 267.909 362.001C268.707 361.116 268.952 360.137 269.086 360.168Z" fill="#381E3E"/>
<path d="M208.209 374.025C207.535 374.492 206.737 374.749 205.917 374.763C205.097 374.778 204.291 374.548 203.602 374.105C202.912 373.661 202.369 373.023 202.042 372.271C201.715 371.519 201.618 370.687 201.764 369.879C201.91 369.072 202.291 368.327 202.861 367.737C203.43 367.146 204.162 366.738 204.963 366.564C205.765 366.389 206.6 366.457 207.363 366.757C208.126 367.057 208.783 367.576 209.251 368.25C209.877 369.155 210.119 370.27 209.924 371.353C209.728 372.435 209.111 373.396 208.209 374.025Z" fill="#381E3E"/>
<path d="M208.999 372.745C208.619 372.619 209.789 368.384 212.277 363.628C214.766 358.873 216.867 355.191 217.215 355.333C217.562 355.476 216.03 359.576 213.565 364.276C211.1 368.977 209.378 372.871 208.999 372.745Z" fill="#381E3E"/>
<path d="M227.745 363.66C227.745 363.992 224.277 363.952 220.77 361.646C219.245 360.7 218.014 359.349 217.215 357.743C216.622 356.471 216.772 355.547 216.946 355.539C217.12 355.531 217.38 356.266 218.099 357.237C219.053 358.509 220.228 359.598 221.567 360.453C224.704 362.538 227.848 363.226 227.745 363.66Z" fill="#381E3E"/>
<path d="M218.739 382.359C218.065 382.826 217.267 383.081 216.447 383.094C215.627 383.107 214.822 382.877 214.133 382.432C213.444 381.988 212.902 381.349 212.576 380.596C212.25 379.844 212.154 379.012 212.301 378.205C212.448 377.398 212.83 376.653 213.401 376.064C213.971 375.474 214.703 375.067 215.504 374.894C216.306 374.72 217.141 374.788 217.903 375.089C218.666 375.39 219.323 375.91 219.79 376.584C220.101 377.032 220.32 377.537 220.435 378.07C220.55 378.603 220.559 379.153 220.462 379.69C220.364 380.226 220.162 380.738 219.866 381.196C219.571 381.654 219.188 382.049 218.739 382.359Z" fill="#381E3E"/>
<path d="M219.537 381.08C219.15 380.953 220.327 376.719 222.816 371.963C225.304 367.207 227.406 363.526 227.753 363.668C228.101 363.81 226.56 367.91 224.103 372.611C221.646 377.311 219.908 381.206 219.537 381.08Z" fill="#381E3E"/>
<path d="M226.56 366.236C226.56 366.615 223.282 366.789 219.916 364.742C216.551 362.696 215.137 359.726 215.477 359.576C215.816 359.426 217.61 361.717 220.659 363.526C223.708 365.335 226.6 365.817 226.56 366.236Z" fill="#381E3E"/>
<path d="M236.317 424.948C236.054 425.517 235.628 425.995 235.093 426.321C234.558 426.647 233.938 426.806 233.312 426.779C232.686 426.752 232.082 426.539 231.577 426.168C231.072 425.797 230.689 425.284 230.476 424.695C230.264 424.106 230.231 423.467 230.382 422.859C230.534 422.251 230.862 421.701 231.327 421.281C231.791 420.86 232.37 420.587 232.989 420.495C233.609 420.404 234.242 420.5 234.808 420.769C235.559 421.127 236.138 421.766 236.421 422.549C236.703 423.331 236.666 424.193 236.317 424.948Z" fill="#381E3E"/>
<path d="M236.38 423.811C236.08 423.874 235.25 420.651 235.061 416.59C234.871 412.53 234.855 409.314 235.132 409.275C235.408 409.235 235.969 412.506 236.143 416.527C236.317 420.548 236.641 423.748 236.38 423.811Z" fill="#381E3E"/>
<path d="M245.173 410.728C245.299 410.949 243.008 412.237 239.84 412.063C238.482 412.022 237.161 411.607 236.025 410.863C235.156 410.246 234.895 409.591 235.005 409.52C235.116 409.448 235.566 409.835 236.412 410.191C237.519 410.661 238.702 410.929 239.903 410.981C242.747 411.147 245.07 410.396 245.173 410.728Z" fill="#381E3E"/>
<path d="M246.389 426.402C246.126 426.971 245.7 427.448 245.165 427.774C244.63 428.1 244.01 428.26 243.384 428.233C242.758 428.205 242.155 427.993 241.65 427.622C241.145 427.251 240.762 426.738 240.549 426.149C240.336 425.559 240.303 424.92 240.455 424.312C240.606 423.704 240.935 423.155 241.399 422.734C241.863 422.313 242.442 422.04 243.062 421.949C243.682 421.858 244.315 421.953 244.88 422.223C245.631 422.581 246.211 423.22 246.493 424.002C246.776 424.785 246.738 425.647 246.389 426.402Z" fill="#381E3E"/>
<path d="M246.421 425.28C246.129 425.351 245.291 422.12 245.102 418.06C244.912 413.999 244.896 410.792 245.173 410.752C245.449 410.713 246.018 413.983 246.192 418.004C246.366 422.025 246.713 425.201 246.421 425.28Z" fill="#381E3E"/>
<path d="M245.378 412.861C245.536 413.098 243.435 414.441 240.456 414.441C237.478 414.441 235.408 412.98 235.582 412.751C235.756 412.521 237.794 413.335 240.472 413.351C243.15 413.367 245.244 412.569 245.378 412.861Z" fill="#381E3E"/>
<path d="M275.461 418.336C275.226 418.482 274.953 418.556 274.676 418.547C274.4 418.538 274.132 418.447 273.907 418.286C273.682 418.125 273.509 417.9 273.412 417.641C273.315 417.382 273.296 417.1 273.36 416.83C273.423 416.561 273.565 416.316 273.767 416.127C273.97 415.938 274.224 415.814 274.497 415.769C274.77 415.725 275.051 415.763 275.303 415.878C275.554 415.993 275.766 416.18 275.912 416.416C276.105 416.731 276.167 417.109 276.082 417.469C275.998 417.829 275.775 418.14 275.461 418.336Z" fill="#CEAB5E"/>
<path d="M275.746 417.925C275.619 417.878 276.101 416.472 277.01 414.907C277.498 413.935 278.106 413.028 278.819 412.206C278.945 412.269 278.345 413.612 277.436 415.152C276.955 416.124 276.389 417.052 275.746 417.925Z" fill="#CEAB5E"/>
<path d="M282.2 415.192C281.354 415.244 280.523 414.96 279.885 414.402C279.393 414.054 279.005 413.579 278.763 413.027C278.582 412.585 278.653 412.277 278.708 412.285C278.763 412.292 278.842 412.537 279.064 412.877C279.365 413.319 279.742 413.705 280.178 414.015C281.212 414.765 282.255 415.05 282.2 415.192Z" fill="#CEAB5E"/>
<path d="M278.858 421.33C278.623 421.475 278.35 421.546 278.074 421.535C277.797 421.525 277.531 421.432 277.307 421.27C277.083 421.108 276.912 420.883 276.816 420.624C276.72 420.365 276.703 420.084 276.767 419.815C276.831 419.546 276.973 419.302 277.175 419.114C277.378 418.926 277.631 418.802 277.904 418.758C278.177 418.714 278.457 418.751 278.708 418.866C278.959 418.981 279.171 419.167 279.316 419.402C279.413 419.559 279.478 419.733 279.508 419.915C279.537 420.097 279.53 420.282 279.488 420.461C279.445 420.641 279.368 420.809 279.26 420.958C279.152 421.108 279.015 421.234 278.858 421.33Z" fill="#CEAB5E"/>
<path d="M279.151 420.911C279.024 420.864 279.498 419.458 280.415 417.901C280.904 416.929 281.509 416.02 282.216 415.192C282.35 415.255 281.742 416.606 280.833 418.138C280.356 419.111 279.793 420.039 279.151 420.911Z" fill="#CEAB5E"/>
<path d="M281.773 416.037C281.773 416.163 280.659 416.163 279.561 415.421C278.463 414.678 278.045 413.651 278.163 413.604C278.282 413.556 278.842 414.394 279.838 415.018C280.833 415.642 281.797 415.895 281.773 416.037Z" fill="#CEAB5E"/>
<path d="M183.087 468.351C182.733 468.57 182.323 468.679 181.907 468.665C181.492 468.651 181.09 468.514 180.752 468.271C180.415 468.029 180.157 467.691 180.011 467.302C179.865 466.913 179.838 466.489 179.933 466.084C180.028 465.68 180.241 465.312 180.545 465.029C180.849 464.745 181.23 464.558 181.641 464.491C182.051 464.424 182.472 464.48 182.85 464.653C183.229 464.825 183.547 465.106 183.766 465.459C184.059 465.933 184.152 466.504 184.025 467.046C183.897 467.588 183.56 468.057 183.087 468.351Z" fill="#381E3E"/>
<path d="M183.521 467.727C183.332 467.656 184.043 465.538 185.417 463.208C186.792 460.877 187.961 459.06 188.127 459.139C188.293 459.218 187.416 461.257 186.049 463.563C184.682 465.87 183.711 467.798 183.521 467.727Z" fill="#381E3E"/>
<path d="M193.238 463.627C193.238 463.801 191.476 463.682 189.762 462.426C189.017 461.91 188.431 461.196 188.071 460.364C187.803 459.7 187.898 459.242 187.985 459.242C188.071 459.242 188.19 459.621 188.53 460.135C188.976 460.801 189.541 461.379 190.197 461.841C191.721 462.979 193.293 463.406 193.238 463.627Z" fill="#381E3E"/>
<path d="M188.19 472.838C187.837 473.058 187.426 473.168 187.01 473.155C186.594 473.141 186.192 473.004 185.854 472.762C185.515 472.519 185.257 472.181 185.111 471.792C184.965 471.402 184.938 470.978 185.033 470.573C185.129 470.168 185.342 469.8 185.647 469.516C185.952 469.233 186.334 469.046 186.745 468.98C187.155 468.914 187.577 468.971 187.955 469.145C188.333 469.318 188.652 469.6 188.869 469.955C189.16 470.428 189.252 470.996 189.124 471.536C188.997 472.077 188.661 472.545 188.19 472.838Z" fill="#381E3E"/>
<path d="M188.632 472.214C188.443 472.143 189.154 470.034 190.528 467.695C191.903 465.357 193.064 463.548 193.238 463.627C193.412 463.706 192.527 465.744 191.16 468.059C189.794 470.373 188.814 472.285 188.632 472.214Z" fill="#381E3E"/>
<path d="M192.567 464.899C192.567 465.088 190.9 465.088 189.249 463.966C187.597 462.845 186.966 461.304 187.139 461.241C187.313 461.178 188.166 462.379 189.659 463.366C191.152 464.354 192.598 464.685 192.567 464.899Z" fill="#381E3E"/>
<path d="M124.895 356.131L122.525 369.222L123.576 382.241L132.542 380.084L137.425 374.38L141.525 369.64C141.525 369.64 148.635 374.183 154.228 367.997C156.93 365.011 161.986 358.407 166.497 352.379C168.836 349.253 169.913 345.36 169.512 341.476C169.111 337.592 167.261 334.002 164.332 331.42L163.732 330.883C156.89 325.527 148.524 328.347 143.358 335.331L124.887 356.163" fill="#FFBE9D"/>
<path d="M141.58 369.609C138.651 367.123 136.526 363.823 135.473 360.129C135.473 360.129 133.427 366.322 140.166 371.268L141.58 369.609Z" fill="#EB996E"/>
<path d="M158.446 351.478C158.66 351.431 159.007 352.497 160.026 353.24C161.046 353.982 162.207 354.03 162.231 354.211C162.254 354.393 161.962 354.448 161.441 354.448C160.764 354.45 160.105 354.234 159.56 353.832C159.011 353.447 158.603 352.892 158.399 352.252C158.296 351.81 158.352 351.494 158.446 351.478Z" fill="#263238"/>
<path d="M148.35 344.052C148.564 344.052 148.816 345.127 149.796 345.956C150.776 346.786 151.897 346.912 151.905 347.117C151.913 347.323 151.613 347.331 151.115 347.291C150.444 347.225 149.811 346.948 149.306 346.501C148.797 346.07 148.438 345.49 148.279 344.842C148.169 344.36 148.255 344.06 148.35 344.052Z" fill="#263238"/>
<path d="M150.065 356.266C150.7 356.551 151.3 356.912 151.85 357.34C152.119 357.53 152.395 357.688 152.585 357.553C152.829 357.32 152.995 357.016 153.059 356.684L153.983 354.172C155.326 350.625 156.519 347.797 156.661 347.852C156.803 347.907 155.871 350.83 154.496 354.378C154.165 355.247 153.841 356.076 153.541 356.866C153.432 357.298 153.175 357.679 152.814 357.94C152.702 357.997 152.579 358.027 152.454 358.027C152.329 358.027 152.206 357.997 152.095 357.94C151.929 357.854 151.773 357.751 151.629 357.632C151.053 357.244 150.527 356.785 150.065 356.266Z" fill="#263238"/>
<path d="M150.27 340.576C150.539 340.323 151.613 341.042 153.035 341.556C154.457 342.069 155.729 342.251 155.768 342.614C155.768 342.788 155.444 342.986 154.852 343.073C154.084 343.156 153.307 343.056 152.585 342.78C151.854 342.516 151.197 342.083 150.665 341.516C150.27 341.074 150.144 340.703 150.27 340.576Z" fill="#263238"/>
<path d="M162.681 347.86C163.052 347.86 163.273 348.8 163.826 349.701C164.379 350.601 165.043 351.281 164.901 351.589C164.822 351.747 164.498 351.779 164.055 351.589C163.489 351.33 163.019 350.899 162.712 350.357C162.388 349.826 162.234 349.208 162.27 348.587C162.325 348.129 162.515 347.86 162.681 347.86Z" fill="#263238"/>
<path d="M139.787 340.379C139.723 340.244 136.627 335.323 132.985 339.715C129.343 344.108 134.51 346.825 134.62 346.73C134.731 346.636 139.787 340.379 139.787 340.379Z" fill="#FFBE9D"/>
<path d="M134.66 343.957C134.66 343.957 134.533 343.957 134.359 343.902C134.114 343.828 133.905 343.665 133.775 343.444C133.64 343.029 133.618 342.586 133.711 342.16C133.804 341.733 134.008 341.34 134.304 341.019C134.603 340.63 134.987 340.314 135.426 340.094C135.581 339.993 135.758 339.93 135.942 339.911C136.126 339.891 136.312 339.916 136.484 339.984C136.591 340.035 136.676 340.121 136.726 340.227C136.777 340.334 136.789 340.454 136.761 340.568C136.721 340.742 136.619 340.805 136.635 340.829C136.65 340.853 136.793 340.829 136.911 340.624C136.974 340.493 136.99 340.346 136.958 340.205C136.915 340.015 136.799 339.851 136.635 339.747C136.426 339.631 136.19 339.57 135.951 339.57C135.712 339.57 135.477 339.631 135.268 339.747C134.766 339.975 134.327 340.322 133.988 340.758C133.285 341.666 133.056 342.867 133.538 343.578C133.627 343.709 133.744 343.818 133.88 343.898C134.017 343.977 134.17 344.024 134.328 344.036C134.557 344.06 134.667 343.981 134.66 343.957Z" fill="#EB996E"/>
<path d="M174.981 339.581C174.848 339.013 174.532 338.504 174.083 338.132C173.634 337.76 173.075 337.545 172.493 337.519C172.76 337.189 172.945 336.8 173.032 336.384C173.118 335.969 173.105 335.538 172.992 335.129C172.879 334.72 172.671 334.343 172.383 334.03C172.096 333.718 171.738 333.478 171.339 333.332C171.702 332.969 171.93 332.493 171.986 331.983C172.041 331.473 171.921 330.959 171.644 330.526C171.368 330.094 170.952 329.769 170.465 329.605C169.979 329.442 169.451 329.449 168.969 329.627C169.045 329.051 168.991 328.465 168.809 327.912C168.628 327.36 168.324 326.856 167.921 326.437C167.518 326.018 167.026 325.695 166.481 325.492C165.937 325.29 165.353 325.212 164.774 325.266C164.152 324.228 163.171 323.454 162.017 323.089C160.864 322.724 159.616 322.793 158.51 323.283C157.764 322.719 156.868 322.388 155.935 322.332C155.001 322.275 154.072 322.496 153.264 322.967C152.779 322.606 152.208 322.38 151.608 322.31C151.008 322.24 150.4 322.33 149.845 322.571C149.291 322.811 148.809 323.193 148.45 323.679C148.09 324.165 147.865 324.737 147.797 325.337C147.412 325.258 147.015 325.27 146.635 325.37C146.255 325.47 145.903 325.657 145.607 325.915C145.312 326.174 145.079 326.497 144.929 326.86C144.778 327.223 144.714 327.615 144.74 328.007C144.284 327.882 143.801 327.889 143.348 328.028C142.896 328.166 142.492 328.431 142.184 328.79C141.876 329.149 141.676 329.589 141.608 330.057C141.541 330.526 141.608 331.004 141.801 331.436C141.106 330.962 140.118 331.57 139.771 332.344C139.423 333.119 139.818 334.24 139.186 334.801C138.758 335.336 138.462 335.966 138.325 336.637C138.188 337.309 138.212 338.004 138.396 338.664L136.484 342.259C136.451 342.449 136.482 342.646 136.575 342.816C136.667 342.985 136.814 343.119 136.992 343.194C137.17 343.27 137.369 343.282 137.555 343.23C137.741 343.178 137.904 343.064 138.017 342.907C138.286 342.543 138.538 342.243 138.807 342.235C139.485 342.293 140.168 342.242 140.829 342.085C141.754 341.886 142.645 341.556 143.476 341.105C143.842 340.885 144.128 340.552 144.289 340.156C144.449 339.76 144.478 339.323 144.369 338.909C144.861 339.078 145.388 339.114 145.898 339.014C146.409 338.915 146.884 338.682 147.276 338.34C148.054 337.65 148.701 336.826 149.188 335.907L151.558 331.957C152.365 332.605 153.334 333.021 154.359 333.16C155.385 333.299 156.429 333.156 157.38 332.747C157.492 333.194 157.697 333.612 157.982 333.974C158.267 334.336 158.625 334.634 159.033 334.847C159.442 335.06 159.89 335.185 160.35 335.213C160.81 335.24 161.271 335.17 161.701 335.007C161.307 336.008 161.309 337.121 161.705 338.122C162.101 339.122 162.862 339.934 163.834 340.394C162.886 341.129 163.747 343.357 164.411 344.344C165.075 345.332 167.208 345.198 167.208 345.198C167.208 345.198 167.421 347.899 168.527 348.294C169.633 348.689 171.608 348.61 171.829 347.299C172.559 346.883 173.182 346.301 173.646 345.601C173.935 345.12 174.079 344.566 174.06 344.005C174.042 343.445 173.863 342.902 173.543 342.441C174.061 342.184 174.481 341.767 174.74 341.251C174.999 340.735 175.084 340.149 174.981 339.581Z" fill="#263238"/>
<path d="M145.253 346.612C145.151 346.659 145.001 346.556 144.977 346.367C144.953 346.177 145.072 346.035 145.182 346.059C145.236 346.079 145.283 346.113 145.318 346.158C145.354 346.203 145.376 346.257 145.384 346.314C145.391 346.371 145.383 346.428 145.36 346.481C145.337 346.533 145.3 346.579 145.253 346.612Z" fill="#EB996E"/>
<path d="M147.11 348.136C147.165 348.239 147.11 348.381 146.928 348.46C146.872 348.5 146.802 348.518 146.733 348.509C146.665 348.5 146.602 348.466 146.557 348.413C146.51 348.318 146.557 348.168 146.747 348.097C146.936 348.026 147.063 348.034 147.11 348.136Z" fill="#EB996E"/>
<path d="M148.911 350.009C148.944 350.059 148.956 350.121 148.945 350.18C148.933 350.239 148.898 350.291 148.848 350.325C148.805 350.365 148.749 350.388 148.69 350.388C148.631 350.388 148.575 350.365 148.532 350.325C148.516 350.3 148.505 350.273 148.499 350.244C148.493 350.216 148.493 350.186 148.499 350.158C148.505 350.129 148.517 350.102 148.533 350.078C148.55 350.053 148.571 350.033 148.595 350.017C148.637 349.975 148.693 349.951 148.752 349.95C148.81 349.948 148.868 349.969 148.911 350.009Z" fill="#EB996E"/>
<path d="M143.831 349.385C143.777 349.398 143.72 349.394 143.668 349.373C143.616 349.352 143.572 349.316 143.542 349.269C143.512 349.222 143.497 349.166 143.5 349.111C143.503 349.055 143.523 349.001 143.557 348.957C143.592 348.913 143.639 348.881 143.693 348.866C143.746 348.85 143.804 348.852 143.856 348.87C143.909 348.888 143.955 348.923 143.987 348.968C144.02 349.014 144.037 349.068 144.037 349.124C144.042 349.185 144.023 349.246 143.985 349.294C143.947 349.343 143.892 349.375 143.831 349.385Z" fill="#EB996E"/>
<path d="M146.399 350.799C146.399 350.909 146.32 351.012 146.154 351.036C145.988 351.06 145.862 350.981 145.862 350.862C145.87 350.801 145.899 350.744 145.943 350.701C145.988 350.658 146.045 350.632 146.107 350.625C146.168 350.616 146.231 350.628 146.284 350.66C146.337 350.691 146.378 350.741 146.399 350.799Z" fill="#EB996E"/>
<path d="M157.522 356.147C157.412 356.147 157.269 356.036 157.246 355.815C157.222 355.594 157.34 355.42 157.451 355.436C157.562 355.452 157.641 355.602 157.657 355.776C157.672 355.95 157.625 356.115 157.522 356.147Z" fill="#EB996E"/>
<path d="M159.947 356.866C160.011 356.961 159.947 357.095 159.782 357.158C159.616 357.221 159.481 357.158 159.45 357.079C159.439 357.019 159.449 356.956 159.479 356.903C159.51 356.849 159.558 356.808 159.616 356.787C159.671 356.758 159.735 356.75 159.796 356.765C159.857 356.779 159.911 356.815 159.947 356.866Z" fill="#EB996E"/>
<path d="M157.38 358.794C157.277 358.754 157.269 358.572 157.38 358.399C157.491 358.225 157.633 358.138 157.728 358.201C157.773 358.258 157.798 358.329 157.798 358.402C157.798 358.476 157.773 358.547 157.728 358.604C157.649 358.754 157.499 358.841 157.38 358.794Z" fill="#EB996E"/>
<path d="M163.826 324.294C164.438 324.441 164.997 324.755 165.442 325.199C165.886 325.644 166.199 326.203 166.347 326.814C166.944 326.373 167.66 326.121 168.402 326.09C169.144 326.059 169.879 326.25 170.511 326.64C171.143 327.03 171.644 327.601 171.95 328.278C172.255 328.955 172.351 329.708 172.224 330.441C172.846 330.15 173.529 330.01 174.215 330.034C174.902 330.057 175.573 330.242 176.174 330.575C176.765 330.92 177.244 331.429 177.552 332.04C177.861 332.651 177.986 333.339 177.912 334.019C177.807 334.694 177.475 335.312 176.971 335.771C176.467 336.231 175.82 336.505 175.139 336.547C175.593 336.463 176.059 336.479 176.505 336.595C176.952 336.71 177.367 336.921 177.723 337.214C178.079 337.508 178.367 337.875 178.566 338.291C178.765 338.707 178.87 339.161 178.875 339.622C178.88 340.083 178.783 340.54 178.593 340.96C178.402 341.379 178.122 341.753 177.773 342.053C177.423 342.353 177.011 342.573 176.567 342.697C176.123 342.822 175.657 342.847 175.202 342.772C175.412 342.901 175.592 343.07 175.734 343.271C175.875 343.471 175.975 343.699 176.026 343.939C176.077 344.179 176.078 344.427 176.03 344.667C175.982 344.908 175.886 345.136 175.747 345.339C175.608 345.541 175.43 345.713 175.222 345.844C175.015 345.975 174.783 346.062 174.54 346.101C174.298 346.139 174.05 346.128 173.812 346.068C173.574 346.008 173.351 345.9 173.156 345.751C172.588 346.912 170.786 346.873 169.83 345.98C168.875 345.087 168.606 343.728 168.361 342.456" fill="#263238"/>
<path d="M175.866 336.444C175.877 336.557 175.877 336.671 175.866 336.784C175.848 337.106 175.801 337.426 175.724 337.74C175.411 338.91 174.723 339.946 173.765 340.687C173.095 341.208 172.288 341.521 171.442 341.587C170.468 341.638 169.503 341.387 168.677 340.868C167.769 340.306 167.055 339.479 166.631 338.498C166.395 337.975 166.277 337.406 166.283 336.832C166.276 336.521 166.335 336.212 166.454 335.924C166.574 335.637 166.753 335.379 166.978 335.165C167.226 334.966 167.521 334.836 167.835 334.789C168.149 334.742 168.469 334.779 168.764 334.896C169.048 335.001 169.304 335.17 169.514 335.389C169.723 335.608 169.88 335.872 169.973 336.16C170.148 336.688 170.166 337.255 170.026 337.794C169.886 338.332 169.593 338.818 169.183 339.194C168.807 339.517 168.363 339.749 167.883 339.872C167.404 339.995 166.902 340.006 166.418 339.905C165.601 339.741 164.818 339.439 164.103 339.012C163.793 338.825 163.504 338.605 163.242 338.356C162.989 338.127 162.76 337.914 162.554 337.693C162.181 337.328 161.892 336.886 161.709 336.397C161.609 336.083 161.574 335.753 161.606 335.425C161.61 335.311 161.637 335.198 161.685 335.094C161.671 335.516 161.73 335.939 161.859 336.342C162.414 337.351 163.233 338.19 164.229 338.767C164.923 339.145 165.672 339.412 166.449 339.557C166.882 339.639 167.328 339.622 167.754 339.507C168.179 339.393 168.573 339.183 168.906 338.893C169.255 338.567 169.504 338.147 169.623 337.684C169.742 337.221 169.726 336.733 169.578 336.279C169.504 336.047 169.379 335.835 169.21 335.659C169.042 335.484 168.835 335.35 168.606 335.267C168.379 335.175 168.131 335.144 167.888 335.179C167.645 335.213 167.416 335.312 167.223 335.465C167.044 335.641 166.902 335.853 166.809 336.087C166.715 336.321 166.67 336.572 166.678 336.824C166.673 337.34 166.778 337.852 166.986 338.325C167.372 339.243 168.027 340.023 168.867 340.56C169.622 341.051 170.51 341.297 171.41 341.263C172.193 341.214 172.944 340.939 173.575 340.473C174.506 339.784 175.197 338.82 175.55 337.716C175.819 336.911 175.819 336.444 175.866 336.444Z" fill="#455A64"/>
<path d="M108.408 415.492L122.225 422.452L116.948 433.701H102.143L104.276 421.393L108.408 415.492Z" fill="#455A64"/>
<path d="M129.248 386.546L135.521 379.721L134.336 377.809L129.73 383.528L129.248 386.546Z" fill="#455A64"/>
<path d="M129.769 382.178C129.027 379.207 123.22 357.032 123.22 357.032C123.22 357.032 123.426 354.662 108.566 356.676C107.57 356.811 94.9384 360.326 90.8462 364.782C86.9594 369.024 63.4964 415.381 61.0474 420.706C60.4513 421.316 59.7796 421.847 59.0487 422.286C58.6221 422.349 57.5714 424.719 57.4687 427.603C57.366 430.486 58.0217 430.857 58.0217 430.857C58.0217 430.857 82.7329 444.24 99.8285 442.936C99.8285 442.936 107.728 443.008 107.831 439.2L107.349 433.994L127.565 393.348C127.565 393.348 130.52 385.156 129.769 382.178Z" fill="#455A64"/>
<path d="M121.625 355.436L126.799 351.984C127.204 354.352 127.885 356.664 128.829 358.873C130.82 363.731 133.522 372.303 133.522 372.303L133.664 374.538L131.76 373.748C131.333 373.559 130.854 373.52 130.401 373.638L123.734 375.407C123.734 375.407 123.386 364.189 122.012 359.742C121.538 358.359 121.405 356.882 121.625 355.436Z" fill="#455A64"/>
<path d="M135.26 380.748C135.175 380.506 135.035 380.288 134.852 380.109C134.668 379.931 134.445 379.798 134.201 379.721C133.71 379.573 133.198 379.504 132.685 379.515C132.83 379.47 132.962 379.39 133.069 379.282C133.176 379.174 133.256 379.042 133.301 378.897C133.346 378.752 133.355 378.598 133.328 378.448C133.3 378.298 133.237 378.158 133.143 378.038C132.927 377.813 132.655 377.649 132.356 377.562C132.057 377.474 131.74 377.467 131.436 377.54C132.092 377.546 132.736 377.365 133.293 377.019C133.569 376.843 133.79 376.592 133.93 376.296C134.069 375.999 134.122 375.669 134.083 375.344C133.982 374.888 133.732 374.479 133.373 374.18C133.015 373.881 132.567 373.71 132.1 373.693C129.24 373.575 128.577 374.293 126.38 375.036C126.017 375.113 125.675 375.269 125.379 375.493C125.083 375.717 124.84 376.003 124.666 376.332C124.577 376.661 124.591 377.01 124.707 377.331C124.823 377.652 125.035 377.929 125.314 378.125C125.779 378.446 126.329 378.622 126.894 378.631C126.757 378.666 126.632 378.737 126.532 378.837C126.432 378.937 126.36 379.062 126.325 379.199C126.292 379.393 126.319 379.592 126.402 379.77C126.486 379.948 126.621 380.096 126.791 380.195C126.962 380.289 127.149 380.349 127.343 380.371C127.537 380.393 127.734 380.376 127.921 380.321C127.574 380.512 127.306 380.817 127.161 381.185C127.017 381.554 127.006 381.96 127.131 382.336C127.261 382.716 127.483 383.059 127.776 383.335C128.069 383.61 128.425 383.81 128.814 383.916C129.587 384.13 130.402 384.147 131.184 383.963C132.18 383.789 133.136 383.433 134.004 382.912C134.778 382.423 135.513 381.601 135.26 380.748Z" fill="#381E3E"/>
<path d="M132.1 377.09C131.506 377.836 130.666 378.345 129.73 378.528C128.822 378.842 127.83 378.814 126.941 378.449C127.84 378.403 128.735 378.295 129.619 378.125C130.468 377.835 131.297 377.489 132.1 377.09Z" fill="#263238"/>
<path d="M132.708 379.46C132.708 379.46 132.55 379.8 132.084 380.155C131.475 380.616 130.756 380.91 129.999 381.008C129.241 381.109 128.47 381.008 127.763 380.716C127.226 380.487 126.973 380.25 126.973 380.203C127.925 380.527 128.932 380.661 129.935 380.598C130.925 380.402 131.867 380.015 132.708 379.46Z" fill="#263238"/>
<path d="M129.493 383.797C129.446 383.797 129.303 383.679 129.185 383.386C129.037 382.992 129.012 382.563 129.114 382.154C129.212 381.743 129.436 381.373 129.754 381.095C129.999 380.882 130.188 380.827 130.22 380.874C130.251 380.922 129.714 381.435 129.517 382.249C129.456 382.763 129.448 383.282 129.493 383.797Z" fill="#263238"/>
<path d="M132.258 382.351C132.179 382.43 131.744 382.122 131.468 381.561C131.191 381.001 131.136 380.463 131.239 380.44C131.342 380.416 131.547 380.858 131.831 381.364C132.116 381.87 132.337 382.272 132.258 382.351Z" fill="#263238"/>
<path d="M118.212 362.19C116.438 359.749 114.134 357.743 111.473 356.321C107.523 356.621 107.728 357.048 106.259 357.277C107.602 356.897 128.182 366.575 115.81 388.608C103.233 411.005 89.3847 435.613 89.3847 435.613L90.2932 437.122L91.6757 439.397C91.6757 439.397 112.374 401.983 116.782 394.162C121.19 386.341 122.486 382.225 122.667 376.671C122.867 371.479 121.296 366.372 118.212 362.19Z" fill="#263238"/>
<path d="M133.68 374.53C133.68 374.53 133.451 374.372 133.001 374.175C132.351 373.916 131.662 373.769 130.962 373.74C129.891 373.901 128.835 374.147 127.802 374.475L123.797 375.51L123.528 375.589V375.305C123.683 373.687 123.728 372.062 123.663 370.438C123.497 366.862 123.072 363.303 122.391 359.789L121.783 356.629C121.69 356.239 121.627 355.843 121.593 355.444C121.746 355.816 121.862 356.203 121.941 356.597C122.13 357.34 122.399 358.422 122.675 359.757C123.444 363.274 123.911 366.85 124.074 370.446C124.139 372.088 124.086 373.733 123.916 375.368L123.671 375.162L127.692 374.151L129.398 373.725C129.893 373.587 130.402 373.51 130.915 373.496C131.642 373.54 132.354 373.728 133.008 374.049C133.269 374.151 133.499 374.317 133.68 374.53Z" fill="#263238"/>
<path d="M121.625 405.348C121.593 405.48 121.539 405.605 121.467 405.72C121.316 406.004 121.143 406.344 120.922 406.755C120.416 407.695 119.736 408.967 118.915 410.515C117.208 413.675 114.886 418.099 112.176 422.894C111.505 424.095 110.817 425.264 110.146 426.37C109.474 427.476 108.771 428.511 108.25 429.57C107.726 430.543 107.437 431.625 107.405 432.73C107.474 433.696 107.676 434.647 108.005 435.558C108.285 436.34 108.405 437.17 108.36 437.999C108.3 438.631 108.067 439.235 107.689 439.745C107.45 440.065 107.119 440.305 106.741 440.432C106.609 440.479 106.469 440.497 106.33 440.488C106.829 440.362 107.266 440.062 107.563 439.642C107.899 439.148 108.095 438.572 108.131 437.975C108.151 437.18 108.014 436.388 107.728 435.645C107.367 434.71 107.144 433.728 107.065 432.73C107.077 431.57 107.367 430.429 107.91 429.404C108.432 428.314 109.143 427.263 109.806 426.157C110.47 425.051 111.141 423.89 111.821 422.689L118.67 410.381C119.555 408.801 120.25 407.545 120.803 406.676C121.04 406.273 121.245 405.949 121.403 405.68C121.468 405.564 121.542 405.453 121.625 405.348Z" fill="#263238"/>
<path d="M101.148 433.267C101.563 433.558 101.885 433.964 102.072 434.436C102.639 435.539 102.775 436.815 102.452 438.013C102.129 439.211 101.371 440.245 100.326 440.914C99.9229 441.222 99.4412 441.411 98.9358 441.459C98.9358 441.396 99.4493 441.214 100.16 440.669C101.087 439.988 101.756 439.012 102.055 437.901C102.355 436.79 102.269 435.61 101.811 434.555C101.472 433.741 101.092 433.314 101.148 433.267Z" fill="#263238"/>
<path d="M127.36 380.613C127.366 380.817 127.353 381.021 127.32 381.222C127.281 381.617 127.218 382.193 127.076 382.936C126.697 385.035 126.137 387.096 125.401 389.098C124.298 392.055 122.992 394.933 121.49 397.709C119.823 400.869 117.88 404.242 115.889 407.829L105.556 426.133L102.396 431.663L101.503 433.18C101.411 433.36 101.299 433.529 101.172 433.685C101.244 433.497 101.331 433.315 101.432 433.14L102.222 431.608L105.28 426.022L115.51 407.631C117.509 404.045 119.46 400.656 121.135 397.527C122.633 394.771 123.952 391.921 125.085 388.995C125.836 387.014 126.433 384.978 126.87 382.904C127.036 382.177 127.123 381.601 127.186 381.206C127.227 381.004 127.285 380.805 127.36 380.613Z" fill="#263238"/>
<path d="M107.689 402.133C107.807 401.765 107.963 401.41 108.155 401.074C108.479 400.395 108.945 399.392 109.601 398.191L109.688 398.025L109.846 398.12L113.74 400.3L113.914 400.403L113.819 400.577L111.647 404.44L111.56 404.598L111.402 404.503C110.233 403.808 109.277 403.207 108.637 402.789C108.297 402.602 107.977 402.383 107.681 402.133C108.072 402.296 108.452 402.483 108.819 402.694C109.506 403.057 110.462 403.571 111.584 404.195L111.339 404.266L113.456 400.379L113.535 400.656L109.664 398.428L109.909 398.357C109.285 399.471 108.748 400.395 108.329 401.066C108.135 401.433 107.922 401.789 107.689 402.133Z" fill="#EBEBEB"/>
<path d="M46.78 567.401L46.3692 567.946L38.4297 578.35L28.5547 585.113L41.7714 610.574H56.3232C56.3232 610.574 55.2725 607.075 48.2731 605.266L47.8149 591.29L60.3838 577.481" fill="#381E3E"/>
<g opacity="0.6">
<path d="M28.5547 585.113L41.7714 610.575L56.3232 610.59L54.6879 608.402L42.8537 607.738L30.6561 583.675L28.5547 585.113Z" fill="white"/>
</g>
<path d="M48.1862 598.875C48.0756 599.025 47.2382 598.551 46.1085 598.582C44.9788 598.614 44.1572 599.08 44.0466 598.93C43.936 598.78 44.7339 597.95 46.1006 597.942C47.4673 597.935 48.3126 598.764 48.1862 598.875Z" fill="#263238"/>
<path d="M47.9492 595.414C47.807 595.517 47.1592 594.624 45.9979 594.427C44.8366 594.229 43.9123 594.735 43.8175 594.577C43.7227 594.419 43.936 594.269 44.3389 594.048C44.8892 593.767 45.5186 593.68 46.1243 593.803C46.7423 593.913 47.3017 594.238 47.7043 594.719C47.9571 595.083 48.0203 595.367 47.9492 595.414Z" fill="#263238"/>
<path d="M48.044 590.959C47.886 591.038 47.3962 590.169 46.3771 589.845C45.358 589.521 44.4574 589.845 44.3784 589.663C44.2994 589.482 44.5285 589.387 44.9314 589.237C45.4685 589.049 46.0532 589.049 46.5904 589.237C47.1294 589.425 47.587 589.793 47.886 590.279C48.1072 590.651 48.123 590.927 48.044 590.959Z" fill="#263238"/>
<path d="M51.9466 587.514C51.7728 587.57 51.362 586.724 50.4614 586.155C49.5608 585.587 48.6523 585.484 48.6444 585.302C48.6365 585.121 49.7188 584.891 50.8169 585.626C51.915 586.361 52.1204 587.491 51.9466 587.514Z" fill="#263238"/>
<g opacity="0.6">
<path d="M40.1677 584.678C40.1692 585.021 40.0691 585.356 39.8799 585.642C39.6908 585.927 39.4211 586.15 39.1051 586.282C38.7892 586.414 38.441 586.45 38.1049 586.384C37.7688 586.318 37.4598 586.154 37.217 585.912C36.9743 585.671 36.8087 585.362 36.7413 585.027C36.6739 584.691 36.7077 584.343 36.8384 584.026C36.9691 583.709 37.1909 583.439 37.4756 583.248C37.7602 583.058 38.0951 582.956 38.4376 582.956C38.8951 582.956 39.3339 583.137 39.6582 583.46C39.9824 583.783 40.1656 584.221 40.1677 584.678Z" fill="white"/>
</g>
<path d="M132.329 582.411L131.981 600.581C131.981 600.581 150.507 607.162 150.776 610.527L115.226 610.882L114.586 582.529L132.329 582.411Z" fill="#381E3E"/>
<path d="M120.961 599.175C120.611 599.264 120.311 599.488 120.126 599.799C119.942 600.109 119.888 600.48 119.977 600.83C120.066 601.18 120.291 601.48 120.601 601.664C120.912 601.849 121.283 601.903 121.632 601.813C121.991 601.702 122.296 601.46 122.486 601.135C122.675 600.811 122.738 600.427 122.659 600.06C122.521 599.71 122.253 599.428 121.912 599.272C121.57 599.116 121.181 599.098 120.827 599.222" fill="white"/>
<g opacity="0.6">
<path d="M115.202 610.93L115.249 608.07L149.338 608.805C149.338 608.805 150.918 609.469 150.776 610.575L115.202 610.93Z" fill="white"/>
</g>
<path d="M132.558 600.407C132.558 600.581 131.689 600.668 130.844 601.197C129.999 601.726 129.556 602.485 129.398 602.422C129.24 602.358 129.477 601.355 130.512 600.691C131.547 600.028 132.598 600.249 132.558 600.407Z" fill="#263238"/>
<path d="M136.319 601.9C136.319 602.066 135.615 602.366 135.031 603.101C134.446 603.836 134.296 604.61 134.13 604.602C133.964 604.594 133.83 603.623 134.565 602.722C135.299 601.821 136.311 601.734 136.319 601.9Z" fill="#263238"/>
<path d="M138.515 606.308C138.357 606.348 138.096 605.518 138.515 604.539C138.933 603.559 139.747 603.212 139.826 603.354C139.905 603.496 139.407 604.002 139.036 604.792C138.665 605.582 138.689 606.293 138.515 606.308Z" fill="#263238"/>
<path d="M132.171 596.252C132.1 596.41 131.302 596.181 130.322 596.252C129.343 596.323 128.584 596.639 128.49 596.489C128.395 596.339 129.122 595.699 130.275 595.652C131.428 595.604 132.258 596.118 132.171 596.252Z" fill="#263238"/>
<path d="M107.357 441.27C108.218 444.998 139.565 502.4 140.585 509.581C141.217 514.005 134.399 590.271 134.399 590.271L112.184 590.098L114.752 514.021L86.5802 478.407L76.6183 440.827L107.357 441.27Z" fill="#263238"/>
<path d="M58.0533 430.857C58.0533 430.857 52.863 448.869 53.7794 453.428C55.2409 460.712 80.3866 518.563 80.3866 518.563L39.7569 572.109L56.3469 589C56.3469 589 100.31 536.251 104.537 529.947C108.763 523.643 106.03 516.414 105.588 512.97C105.232 510.213 89.914 445.093 89.914 445.093L58.0533 430.857Z" fill="#263238"/>
<path d="M121.648 509.865C120.566 510.703 119.404 511.433 118.18 512.046C117.022 512.772 115.794 513.381 114.515 513.863C115.596 513.023 116.757 512.293 117.983 511.682C119.139 510.952 120.367 510.343 121.648 509.865Z" fill="#455A64"/>
<path d="M79.4465 561.8C79.4899 561.722 79.5402 561.648 79.5966 561.579L80.0785 560.947L81.9429 558.577L88.887 549.8L99.2202 536.804L102.206 533.052C103.289 531.8 104.192 530.404 104.892 528.904C106.297 525.706 106.773 522.177 106.267 518.721C106.172 517.972 106.027 517.231 105.832 516.501V516.462C105.465 513.113 104.898 509.789 104.134 506.508C103.431 503.348 102.704 500.259 101.969 497.36C100.508 491.561 99.0938 486.371 97.8851 482.034C96.6764 477.697 95.6573 474.213 94.9542 471.803C94.6066 470.618 94.3301 469.694 94.1642 469.03C94.0773 468.73 94.0141 468.493 93.9588 468.311C93.933 468.231 93.9145 468.15 93.9035 468.066C93.9035 468.066 93.943 468.137 93.9983 468.303L94.2432 469.007C94.4565 469.631 94.7567 470.586 95.1359 471.756C95.9259 474.126 96.945 477.633 98.1932 481.963C99.4414 486.292 100.879 491.443 102.364 497.273C103.107 500.172 103.85 503.229 104.561 506.421C105.329 509.721 105.901 513.063 106.275 516.43V516.383C106.473 517.134 106.623 517.896 106.725 518.666C107.209 522.194 106.695 525.788 105.24 529.039C104.523 530.563 103.601 531.983 102.499 533.257L99.4967 537.002L89.1161 549.942L82.0693 558.632L80.1417 561.002L79.6282 561.602C79.5752 561.675 79.5142 561.741 79.4465 561.8Z" fill="#455A64"/>
<path d="M60.8894 583.738C60.6177 583.573 60.3681 583.374 60.1468 583.146L58.2429 581.408C56.6629 579.93 54.4667 577.869 52.0809 575.57C49.6951 573.271 47.57 571.177 45.99 569.645L44.1809 567.812C43.9431 567.6 43.731 567.362 43.5489 567.101C43.8206 567.266 44.0702 567.465 44.2915 567.693C44.7971 568.167 45.437 568.744 46.1875 569.431C47.7675 570.909 49.9637 572.971 52.3653 575.269C54.7669 577.568 56.9078 579.67 58.4483 581.202L60.2574 583.027C60.4906 583.243 60.7022 583.481 60.8894 583.738Z" fill="#455A64"/>
<path d="M94.7093 484.791C94.735 484.835 94.7537 484.883 94.7646 484.933C94.7646 485.044 94.8436 485.186 94.8989 485.36L95.3966 487.011L97.2136 493.283C98.7462 498.703 100.927 506.366 103.534 515.451C104.12 519.367 103.471 523.368 101.677 526.898C99.9154 530.642 97.2057 534.008 94.3775 537.397L68.6709 567.836L60.8499 577.031L58.7011 579.52L58.1402 580.16C58.0059 580.302 57.9427 580.373 57.9348 580.365C57.988 580.283 58.046 580.203 58.1086 580.128L58.6379 579.464L60.6998 576.96L68.426 567.685L94.0378 537.168C96.866 533.81 99.5678 530.445 101.29 526.756C103.053 523.303 103.701 519.39 103.146 515.553L97.0003 493.346C96.2656 490.66 95.6889 488.527 95.286 487.026C95.0964 486.315 94.9463 485.762 94.8436 485.36C94.8041 485.178 94.7646 485.044 94.7409 484.925C94.7172 484.807 94.7093 484.791 94.7093 484.791Z" fill="#455A64"/>
<path d="M73.2134 444.193C72.8834 444.763 72.4647 445.278 71.9731 445.717C69.7047 447.966 66.8258 449.499 63.6939 450.126C63.0566 450.286 62.3981 450.344 61.7426 450.299C63.9005 449.858 65.9928 449.141 67.9678 448.166C69.8788 447.071 71.6416 445.736 73.2134 444.193Z" fill="#455A64"/>
<path d="M135.157 583.999C135.157 584.109 130.164 584.165 124.002 584.117C117.84 584.07 112.856 583.936 112.856 583.825C112.856 583.714 117.848 583.659 124.01 583.706C130.172 583.754 135.157 583.888 135.157 583.999Z" fill="#455A64"/>
<path d="M119.349 475.508C119.387 475.556 119.421 475.606 119.452 475.658C119.515 475.785 119.61 475.935 119.721 476.132L120.748 477.973L124.548 484.901L137.63 509.02V509.068V509.123C137.227 514.803 136.777 520.973 136.263 527.459C135.047 543.03 133.625 557.1 132.369 567.259C131.752 572.339 131.191 576.439 130.789 579.275C130.583 580.665 130.417 581.763 130.307 582.53C130.243 582.885 130.204 583.17 130.164 583.375C130.154 583.474 130.135 583.571 130.109 583.667C130.1 583.57 130.1 583.472 130.109 583.375L130.204 582.522C130.299 581.732 130.441 580.649 130.615 579.251C130.962 576.415 131.484 572.307 132.06 567.219C133.245 557.06 134.62 542.99 135.837 527.427C136.326 520.973 136.793 514.787 137.227 509.099V509.202C131.989 499.406 127.486 491.032 124.287 485.028L120.59 478.044L119.618 476.172L119.373 475.682C119.354 475.626 119.346 475.567 119.349 475.508Z" fill="#455A64"/>
<path d="M121.83 422.42L127.55 419.663L132.55 418.739C133.754 418.323 134.915 417.794 136.018 417.159C136.018 417.159 136.808 418.32 136.405 419.236C136.003 420.153 133.696 421.606 132.132 422.175C131.559 422.36 131.069 422.739 130.746 423.247C130.423 423.754 130.287 424.359 130.362 424.956C130.504 425.746 136.856 431.947 136.856 431.947L127.968 441.23L120.787 434.705L117.627 431.473L121.83 422.42Z" fill="#FFBE9D"/>
<path d="M163.574 396.374L158.217 391.847L159.797 390.196C159.916 390.078 159.982 389.917 159.982 389.75C159.982 389.582 159.916 389.422 159.797 389.303C159.739 389.244 159.67 389.197 159.593 389.164C159.517 389.132 159.434 389.115 159.351 389.115C159.268 389.115 159.186 389.132 159.109 389.164C159.032 389.197 158.963 389.244 158.905 389.303L108.819 441.143C108.761 441.203 108.715 441.273 108.684 441.351C108.653 441.428 108.638 441.511 108.639 441.594C108.64 441.677 108.658 441.759 108.69 441.836C108.723 441.912 108.771 441.982 108.831 442.04C108.89 442.098 108.961 442.144 109.038 442.175C109.115 442.205 109.198 442.221 109.281 442.22C109.365 442.219 109.447 442.201 109.523 442.168C109.6 442.135 109.669 442.088 109.727 442.028L111.876 439.792C111.895 439.829 111.922 439.861 111.955 439.887L117.619 444.682C117.684 444.737 117.758 444.778 117.839 444.803C117.919 444.828 118.004 444.837 118.088 444.829C118.172 444.821 118.253 444.796 118.327 444.756C118.402 444.716 118.467 444.661 118.52 444.595C118.622 444.467 118.671 444.303 118.654 444.139C118.638 443.976 118.559 443.825 118.433 443.719L112.769 438.923L119.428 432.027L125.006 436.767C125.07 436.822 125.145 436.863 125.226 436.888C125.307 436.913 125.392 436.922 125.476 436.913C125.561 436.904 125.642 436.878 125.716 436.836C125.79 436.795 125.855 436.739 125.906 436.672C126.008 436.544 126.057 436.382 126.04 436.22C126.024 436.057 125.945 435.907 125.819 435.803L120.289 431.134L126.783 424.419L132.376 429.159C132.437 429.228 132.512 429.284 132.596 429.321C132.68 429.359 132.771 429.377 132.863 429.376C132.954 429.375 133.045 429.353 133.128 429.313C133.211 429.273 133.284 429.216 133.342 429.145C133.4 429.074 133.442 428.991 133.465 428.902C133.488 428.812 133.491 428.72 133.475 428.629C133.458 428.539 133.422 428.453 133.369 428.378C133.315 428.303 133.246 428.241 133.166 428.195L127.636 423.51L132.297 418.683L137.764 423.313C137.829 423.368 137.905 423.409 137.986 423.434C138.067 423.459 138.152 423.468 138.237 423.46C138.321 423.452 138.403 423.427 138.478 423.387C138.553 423.347 138.619 423.292 138.673 423.226C138.773 423.097 138.821 422.933 138.804 422.77C138.788 422.607 138.71 422.456 138.586 422.349L133.182 417.775L140.032 410.665C140.061 410.77 140.122 410.863 140.205 410.934L145.878 415.729C145.942 415.783 146.017 415.824 146.097 415.849C146.178 415.875 146.262 415.883 146.346 415.875C146.43 415.867 146.512 415.842 146.586 415.802C146.66 415.762 146.725 415.708 146.778 415.642C146.881 415.513 146.929 415.35 146.913 415.186C146.897 415.022 146.817 414.871 146.691 414.765L141.019 409.97C140.955 409.918 140.883 409.878 140.806 409.851L144.408 406.122L149.938 410.776C149.999 410.845 150.073 410.9 150.157 410.938C150.241 410.975 150.332 410.994 150.424 410.993C150.516 410.991 150.607 410.97 150.69 410.93C150.772 410.89 150.845 410.832 150.904 410.761C150.962 410.69 151.004 410.607 151.027 410.518C151.05 410.429 151.053 410.336 151.036 410.246C151.02 410.155 150.983 410.07 150.93 409.995C150.877 409.92 150.808 409.857 150.728 409.812L145.301 405.214L151.186 399.115C151.186 399.115 151.234 399.186 151.265 399.218L156.93 404.013C157.06 404.08 157.21 404.101 157.354 404.07C157.497 404.04 157.626 403.962 157.719 403.848C157.811 403.734 157.862 403.592 157.862 403.445C157.862 403.298 157.812 403.156 157.72 403.041L152.047 398.246L157.333 392.779L162.744 397.353C162.808 397.41 162.883 397.453 162.965 397.48C163.046 397.506 163.132 397.516 163.217 397.507C163.302 397.499 163.385 397.474 163.46 397.432C163.535 397.391 163.6 397.334 163.653 397.267C163.706 397.203 163.747 397.129 163.772 397.05C163.797 396.97 163.806 396.887 163.799 396.804C163.791 396.721 163.768 396.64 163.729 396.566C163.69 396.493 163.638 396.427 163.574 396.374Z" fill="#381E3E"/>
<g opacity="0.3">
<path d="M163.574 396.374L158.217 391.847L159.797 390.196C159.916 390.078 159.982 389.917 159.982 389.75C159.982 389.582 159.916 389.422 159.797 389.303C159.739 389.244 159.67 389.197 159.593 389.164C159.517 389.132 159.434 389.115 159.351 389.115C159.268 389.115 159.186 389.132 159.109 389.164C159.032 389.197 158.963 389.244 158.905 389.303L108.819 441.143C108.761 441.203 108.715 441.273 108.684 441.351C108.653 441.428 108.638 441.511 108.639 441.594C108.64 441.677 108.658 441.759 108.69 441.836C108.723 441.912 108.771 441.982 108.831 442.04C108.89 442.098 108.961 442.144 109.038 442.175C109.115 442.205 109.198 442.221 109.281 442.22C109.365 442.219 109.447 442.201 109.523 442.168C109.6 442.135 109.669 442.088 109.727 442.028L111.876 439.792C111.895 439.829 111.922 439.861 111.955 439.887L117.619 444.682C117.684 444.737 117.758 444.778 117.839 444.803C117.919 444.828 118.004 444.837 118.088 444.829C118.172 444.821 118.253 444.796 118.327 444.756C118.402 444.716 118.467 444.661 118.52 444.595C118.622 444.467 118.671 444.303 118.654 444.139C118.638 443.976 118.559 443.825 118.433 443.719L112.769 438.923L119.428 432.027L125.006 436.767C125.07 436.822 125.145 436.863 125.226 436.888C125.307 436.913 125.392 436.922 125.476 436.913C125.561 436.904 125.642 436.878 125.716 436.836C125.79 436.795 125.855 436.739 125.906 436.672C126.008 436.544 126.057 436.382 126.04 436.22C126.024 436.057 125.945 435.907 125.819 435.803L120.289 431.134L126.783 424.419L132.376 429.159C132.437 429.228 132.512 429.284 132.596 429.321C132.68 429.359 132.771 429.377 132.863 429.376C132.954 429.375 133.045 429.353 133.128 429.313C133.211 429.273 133.284 429.216 133.342 429.145C133.4 429.074 133.442 428.991 133.465 428.902C133.488 428.812 133.491 428.72 133.475 428.629C133.458 428.539 133.422 428.453 133.369 428.378C133.315 428.303 133.246 428.241 133.166 428.195L127.636 423.51L132.297 418.683L137.764 423.313C137.829 423.368 137.905 423.409 137.986 423.434C138.067 423.459 138.152 423.468 138.237 423.46C138.321 423.452 138.403 423.427 138.478 423.387C138.553 423.347 138.619 423.292 138.673 423.226C138.773 423.097 138.821 422.933 138.804 422.77C138.788 422.607 138.71 422.456 138.586 422.349L133.182 417.775L140.032 410.665C140.061 410.77 140.122 410.863 140.205 410.934L145.878 415.729C145.942 415.783 146.017 415.824 146.097 415.849C146.178 415.875 146.262 415.883 146.346 415.875C146.43 415.867 146.512 415.842 146.586 415.802C146.66 415.762 146.725 415.708 146.778 415.642C146.881 415.513 146.929 415.35 146.913 415.186C146.897 415.022 146.817 414.871 146.691 414.765L141.019 409.97C140.955 409.918 140.883 409.878 140.806 409.851L144.408 406.122L149.938 410.776C149.999 410.845 150.073 410.9 150.157 410.938C150.241 410.975 150.332 410.994 150.424 410.993C150.516 410.991 150.607 410.97 150.69 410.93C150.772 410.89 150.845 410.832 150.904 410.761C150.962 410.69 151.004 410.607 151.027 410.518C151.05 410.429 151.053 410.336 151.036 410.246C151.02 410.155 150.983 410.07 150.93 409.995C150.877 409.92 150.808 409.857 150.728 409.812L145.301 405.214L151.186 399.115C151.186 399.115 151.234 399.186 151.265 399.218L156.93 404.013C157.06 404.08 157.21 404.101 157.354 404.07C157.497 404.04 157.626 403.962 157.719 403.848C157.811 403.734 157.862 403.592 157.862 403.445C157.862 403.298 157.812 403.156 157.72 403.041L152.047 398.246L157.333 392.779L162.744 397.353C162.808 397.41 162.883 397.453 162.965 397.48C163.046 397.506 163.132 397.516 163.217 397.507C163.302 397.499 163.385 397.474 163.46 397.432C163.535 397.391 163.6 397.334 163.653 397.267C163.706 397.203 163.747 397.129 163.772 397.05C163.797 396.97 163.806 396.887 163.799 396.804C163.791 396.721 163.768 396.64 163.729 396.566C163.69 396.493 163.638 396.427 163.574 396.374Z" fill="black"/>
</g>
<path d="M152.529 361.709L149.598 359.655C149.031 359.688 148.465 359.571 147.958 359.316C147.45 359.061 147.019 358.676 146.707 358.201L145.917 358.881L150.554 363.881L152.529 361.709Z" fill="#263238"/>
<path d="M164.956 388.861C164.956 388.861 107.381 448.261 96.4157 460.64C89.5585 468.382 90.7514 475.003 92.6079 478.874C93.2851 480.298 94.2462 481.568 95.4321 482.608C96.6181 483.647 98.0039 484.433 99.5046 484.917C113.677 489.388 126.365 464.195 135.22 458.302C139.352 455.553 143.523 454.557 149.117 456.548C154.71 458.539 152.837 464.069 152.04 465.957C151.783 466.535 151.744 467.186 151.929 467.79C152.569 469.717 154.631 468.224 154.631 468.224C163.826 458.01 166.544 449.067 168.258 443.134C169.838 437.604 167.002 436.561 165.651 439.247C164.3 441.933 162.784 442.139 161.298 442.178C159.813 442.218 153.398 438.157 143.65 440.44C139.095 441.559 134.842 443.665 131.191 446.61C123.86 452.014 113.582 464.44 110.059 468.833C109.752 469.226 109.314 469.494 108.824 469.589C108.335 469.683 107.828 469.597 107.397 469.346C107.148 469.197 106.935 468.995 106.772 468.756C106.608 468.517 106.498 468.245 106.45 467.959C106.401 467.673 106.414 467.38 106.489 467.1C106.564 466.82 106.698 466.56 106.883 466.336C110.746 461.652 121.664 448.38 123.694 445.607C126.167 442.225 164.774 397.875 168.195 393.712C168.195 393.712 171.845 389.446 170.462 385.022C169.372 381.546 157.277 366.433 157.277 366.433L155.128 368.55C155.128 368.55 165.738 382.77 166.291 384.682C166.514 385.432 166.506 386.232 166.268 386.977C166.03 387.723 165.573 388.379 164.956 388.861Z" fill="#381E3E"/>
<path d="M152.519 361.649L150.373 363.771L155.122 368.574L157.268 366.453L152.519 361.649Z" fill="#381E3E"/>
<path d="M166.378 399.02C165.264 400.261 163.811 400.806 162.791 399.81C161.772 398.815 163.676 396.603 163.676 396.603C163.676 396.603 165.667 394.47 166.773 395.379C167.879 396.287 167.492 397.78 166.378 399.02Z" fill="#381E3E"/>
<path d="M166.378 399.02C166.378 399.02 166.489 398.831 166.694 398.499C166.987 398.053 167.181 397.549 167.263 397.022C167.312 396.671 167.248 396.314 167.081 396.003C166.884 395.702 166.591 395.347 166.212 395.347C165.766 395.353 165.334 395.503 164.98 395.773C164.56 396.047 164.173 396.368 163.826 396.729C163.518 397.118 163.253 397.539 163.036 397.985C162.808 398.365 162.705 398.808 162.744 399.249C162.791 399.629 163.171 399.881 163.495 400.039C163.821 400.168 164.18 400.193 164.522 400.111C165.04 399.973 165.522 399.725 165.936 399.384C166.236 399.139 166.394 398.989 166.418 399.012C166.441 399.036 166.315 399.218 166.038 399.502C165.64 399.918 165.143 400.225 164.593 400.395C164.156 400.54 163.679 400.509 163.265 400.308C162.85 400.108 162.53 399.753 162.373 399.321C162.303 398.793 162.408 398.257 162.673 397.796C162.918 397.315 163.215 396.862 163.558 396.445C163.93 396.055 164.349 395.713 164.806 395.426C165.238 395.115 165.759 394.951 166.291 394.96C166.739 395.069 167.127 395.349 167.37 395.74C167.614 396.132 167.695 396.603 167.595 397.053C167.485 397.619 167.232 398.146 166.86 398.586C166.568 398.902 166.394 399.036 166.378 399.02Z" fill="#263238"/>
<path d="M160.674 405.159C159.56 406.399 158.115 406.944 157.088 405.949C156.061 404.953 157.972 402.741 157.972 402.741C157.972 402.741 159.963 400.608 161.069 401.517C162.175 402.425 161.788 403.95 160.674 405.159Z" fill="#381E3E"/>
<path d="M160.674 405.159C160.762 404.974 160.867 404.8 160.99 404.637C161.286 404.192 161.483 403.688 161.567 403.16C161.608 402.809 161.542 402.454 161.377 402.141C161.294 401.971 161.172 401.823 161.021 401.709C160.87 401.595 160.695 401.518 160.508 401.485C160.065 401.494 159.637 401.643 159.284 401.912C158.864 402.188 158.474 402.508 158.123 402.868C157.8 403.254 157.522 403.675 157.293 404.124C157.068 404.505 156.966 404.946 157.001 405.388C157.048 405.767 157.427 406.02 157.751 406.178C158.078 406.306 158.437 406.331 158.778 406.249C159.297 406.111 159.779 405.863 160.192 405.522C160.34 405.383 160.502 405.258 160.674 405.151C160.674 405.151 160.579 405.356 160.295 405.64C159.897 406.056 159.399 406.363 158.849 406.533C158.412 406.678 157.936 406.647 157.521 406.446C157.107 406.246 156.787 405.891 156.629 405.459C156.56 404.931 156.666 404.396 156.93 403.934C157.387 402.948 158.13 402.122 159.063 401.564C159.495 401.253 160.016 401.089 160.548 401.098C160.995 401.209 161.381 401.489 161.624 401.88C161.868 402.271 161.949 402.742 161.851 403.191C161.74 403.755 161.491 404.282 161.125 404.724C160.864 405.04 160.69 405.174 160.674 405.159Z" fill="#263238"/>
<path d="M154.346 412.853C153.232 414.094 151.779 414.639 150.76 413.643C149.741 412.648 151.645 410.436 151.645 410.436C151.645 410.436 153.635 408.303 154.741 409.211C155.847 410.12 155.46 411.613 154.346 412.853Z" fill="#381E3E"/>
<path d="M154.346 412.853C154.346 412.853 154.457 412.656 154.662 412.332C154.957 411.883 155.151 411.377 155.231 410.847C155.279 410.499 155.216 410.145 155.049 409.835C154.852 409.535 154.56 409.18 154.18 409.18C153.736 409.187 153.305 409.333 152.948 409.598C152.087 410.129 151.398 410.897 150.965 411.81C150.735 412.193 150.633 412.638 150.673 413.082C150.72 413.462 151.099 413.714 151.463 413.872C151.788 414.007 152.148 414.035 152.49 413.951C153.008 413.814 153.49 413.566 153.904 413.225C154.204 412.98 154.362 412.83 154.386 412.853C154.41 412.877 154.283 413.059 154.007 413.343C153.606 413.756 153.109 414.063 152.561 414.236C152.124 414.381 151.648 414.35 151.233 414.149C150.819 413.948 150.499 413.594 150.341 413.161C150.271 412.634 150.377 412.098 150.641 411.637C150.885 411.155 151.182 410.702 151.526 410.286C151.9 409.896 152.319 409.551 152.774 409.259C153.205 408.947 153.727 408.786 154.259 408.801C154.706 408.91 155.092 409.189 155.335 409.578C155.579 409.968 155.661 410.437 155.563 410.886C155.453 411.454 155.2 411.984 154.828 412.427C154.536 412.735 154.362 412.869 154.346 412.853Z" fill="#263238"/>
<path d="M149.48 418.17C148.366 419.41 146.92 419.955 145.893 418.96C144.866 417.965 146.778 415.745 146.778 415.745C146.778 415.745 148.777 413.612 149.875 414.528C150.973 415.444 150.61 416.945 149.48 418.17Z" fill="#381E3E"/>
<path d="M149.48 418.17C149.48 418.17 149.591 417.973 149.796 417.649C150.095 417.202 150.292 416.695 150.373 416.163C150.413 415.816 150.35 415.464 150.191 415.152C149.993 414.852 149.701 414.497 149.322 414.489C148.877 414.501 148.447 414.65 148.09 414.915C147.67 415.192 147.283 415.515 146.936 415.879C146.613 416.264 146.333 416.683 146.099 417.127C145.875 417.512 145.775 417.956 145.814 418.399C145.814 418.778 146.241 419.031 146.557 419.189C146.884 419.316 147.241 419.343 147.584 419.268C148.102 419.129 148.584 418.881 148.998 418.541C149.298 418.296 149.456 418.146 149.48 418.17C149.504 418.194 149.385 418.368 149.109 418.66C148.705 419.073 148.206 419.379 147.655 419.553C147.219 419.697 146.744 419.666 146.331 419.465C145.917 419.264 145.599 418.91 145.443 418.478C145.373 417.951 145.479 417.415 145.743 416.953C145.979 416.467 146.277 416.013 146.628 415.603C147.001 415.214 147.417 414.87 147.868 414.576C148.301 414.266 148.822 414.105 149.354 414.117C149.801 414.225 150.188 414.503 150.432 414.893C150.676 415.284 150.757 415.754 150.657 416.203C150.547 416.769 150.297 417.299 149.93 417.743C149.685 418.067 149.48 418.17 149.48 418.17Z" fill="#263238"/>
<path d="M143.049 425.912C141.935 427.152 140.49 427.697 139.463 426.702C138.436 425.707 140.348 423.495 140.348 423.495C140.348 423.495 142.346 421.362 143.444 422.27C144.542 423.179 144.163 424.672 143.049 425.912Z" fill="#381E3E"/>
<path d="M143.049 425.912C143.049 425.912 143.16 425.722 143.365 425.391C143.661 424.945 143.858 424.441 143.942 423.913C143.984 423.562 143.918 423.207 143.752 422.894C143.563 422.594 143.263 422.239 142.883 422.239C142.44 422.245 142.01 422.394 141.659 422.665C141.238 422.941 140.849 423.261 140.498 423.621C140.189 424.01 139.924 424.431 139.708 424.877C139.482 425.258 139.38 425.7 139.415 426.141C139.463 426.52 139.842 426.773 140.166 426.931C140.493 427.059 140.851 427.084 141.193 427.002C141.711 426.865 142.193 426.617 142.607 426.275C142.907 426.031 143.065 425.88 143.089 425.904C143.113 425.928 142.994 426.11 142.71 426.394C142.313 426.811 141.815 427.119 141.264 427.287C140.827 427.432 140.351 427.4 139.936 427.2C139.522 426.999 139.202 426.645 139.044 426.212C138.978 425.685 139.083 425.151 139.344 424.688C139.589 424.205 139.889 423.751 140.237 423.337C140.608 422.949 141.025 422.607 141.477 422.318C141.908 422.003 142.43 421.839 142.962 421.851C143.41 421.96 143.798 422.241 144.042 422.632C144.285 423.023 144.366 423.495 144.266 423.945C144.155 424.508 143.905 425.035 143.539 425.478C143.239 425.794 143.065 425.928 143.049 425.912Z" fill="#263238"/>
<path d="M137.504 431.79C136.39 433.03 134.936 433.575 133.917 432.58C132.898 431.584 134.794 429.364 134.794 429.364C134.794 429.364 136.793 427.239 137.899 428.148C139.005 429.056 138.617 430.549 137.504 431.79Z" fill="#381E3E"/>
<path d="M137.504 431.789C137.504 431.789 137.606 431.592 137.82 431.268C138.114 430.82 138.308 430.313 138.388 429.783C138.436 429.435 138.373 429.081 138.207 428.772C138.009 428.471 137.717 428.116 137.338 428.108C136.893 428.122 136.463 428.271 136.105 428.535C135.685 428.811 135.298 429.134 134.952 429.498C134.631 429.884 134.353 430.302 134.122 430.747C133.892 431.129 133.79 431.574 133.83 432.019C133.877 432.398 134.257 432.651 134.581 432.809C134.906 432.944 135.266 432.971 135.608 432.888C136.126 432.75 136.608 432.502 137.022 432.161C137.322 431.916 137.48 431.766 137.504 431.789C137.527 431.813 137.401 431.995 137.124 432.279C136.724 432.692 136.227 432.999 135.679 433.172C135.242 433.317 134.765 433.286 134.351 433.085C133.936 432.885 133.616 432.53 133.459 432.098C133.389 431.57 133.494 431.034 133.759 430.573C134.002 430.091 134.299 429.638 134.644 429.222C135.018 428.832 135.437 428.487 135.892 428.195C136.323 427.883 136.845 427.722 137.377 427.737C137.824 427.846 138.21 428.125 138.453 428.514C138.697 428.904 138.778 429.373 138.681 429.822C138.571 430.39 138.318 430.92 137.946 431.363C137.693 431.671 137.519 431.805 137.504 431.789Z" fill="#263238"/>
<path d="M130.038 440.993C128.924 442.233 127.478 442.779 126.451 441.783C125.424 440.788 127.336 438.576 127.336 438.576C127.336 438.576 129.335 436.443 130.433 437.351C131.531 438.26 131.152 439.753 130.038 440.993Z" fill="#381E3E"/>
<path d="M130.038 440.993C130.125 440.809 130.231 440.634 130.354 440.472C130.653 440.028 130.85 439.524 130.931 438.994C130.972 438.646 130.906 438.293 130.741 437.983C130.661 437.811 130.54 437.66 130.388 437.544C130.237 437.429 130.06 437.352 129.872 437.32C129.429 437.33 129.001 437.479 128.648 437.746C128.229 438.024 127.84 438.344 127.486 438.702C127.178 439.091 126.913 439.512 126.696 439.958C126.471 440.339 126.369 440.781 126.404 441.222C126.451 441.601 126.831 441.854 127.155 442.012C127.482 442.141 127.84 442.165 128.182 442.083C128.701 441.948 129.183 441.7 129.596 441.357C129.744 441.217 129.905 441.093 130.078 440.985C130.078 440.985 129.983 441.191 129.706 441.475C129.305 441.89 128.805 442.197 128.253 442.368C127.816 442.513 127.339 442.482 126.925 442.281C126.51 442.08 126.19 441.726 126.033 441.293C125.971 440.765 126.079 440.231 126.341 439.769C126.58 439.284 126.878 438.831 127.226 438.418C127.599 438.032 128.015 437.69 128.466 437.399C128.899 437.089 129.419 436.926 129.951 436.933C130.398 437.043 130.784 437.324 131.028 437.715C131.271 438.106 131.352 438.576 131.255 439.026C131.144 439.589 130.894 440.116 130.528 440.559C130.236 440.875 130.062 441.009 130.038 440.993Z" fill="#263238"/>
<path d="M123.955 448.419C122.841 449.659 121.395 450.204 120.368 449.209C119.341 448.214 121.253 445.994 121.253 445.994C121.253 445.994 123.252 443.861 124.35 444.777C125.448 445.693 125.069 447.179 123.955 448.419Z" fill="#381E3E"/>
<path d="M123.955 448.419C123.955 448.419 124.066 448.221 124.271 447.898C124.57 447.451 124.767 446.944 124.848 446.412C124.889 446.064 124.823 445.711 124.658 445.401C124.469 445.101 124.176 444.745 123.789 444.738C123.347 444.752 122.92 444.901 122.565 445.164C121.699 445.691 121.007 446.46 120.574 447.376C120.347 447.76 120.245 448.204 120.282 448.648C120.329 449.027 120.708 449.28 121.072 449.438C121.399 449.565 121.756 449.592 122.099 449.517C122.616 449.378 123.098 449.13 123.513 448.79C123.813 448.545 123.971 448.395 123.995 448.419C124.018 448.443 123.9 448.624 123.623 448.909C123.22 449.321 122.72 449.628 122.17 449.801C121.733 449.944 121.257 449.912 120.843 449.712C120.429 449.512 120.109 449.159 119.95 448.727C119.886 448.199 119.994 447.664 120.258 447.202C120.494 446.716 120.791 446.262 121.143 445.851C121.516 445.463 121.932 445.119 122.383 444.824C122.815 444.513 123.336 444.353 123.868 444.366C124.315 444.475 124.701 444.754 124.944 445.144C125.188 445.534 125.269 446.003 125.172 446.452C125.06 447.018 124.811 447.547 124.445 447.992C124.153 448.3 123.979 448.435 123.955 448.419Z" fill="#263238"/>
<path d="M154.22 467.095C154.255 466.685 154.321 466.278 154.418 465.878C154.568 465.088 154.828 463.99 155.208 462.631C156.186 459.08 157.476 455.622 159.063 452.298C160.653 448.982 162.527 445.811 164.664 442.818C165.493 441.665 166.189 440.764 166.702 440.156C166.936 439.826 167.201 439.519 167.492 439.239C167.293 439.598 167.063 439.939 166.805 440.258C166.331 440.89 165.675 441.838 164.885 442.984C160.746 449.043 157.567 455.705 155.46 462.734C155.057 464.085 154.749 465.183 154.552 465.941C154.473 466.334 154.362 466.72 154.22 467.095Z" fill="#263238"/>
<g opacity="0.3">
<path d="M166.536 440.622C162.175 444.722 159.584 450.331 157.577 455.971C156.487 459.037 155.542 462.149 154.741 465.309C160.5 459.313 163.526 451.271 166.41 443.474C166.789 442.47 167.152 441.309 166.639 440.361" fill="black"/>
</g>
<g opacity="0.3">
<path d="M166.291 384.706C166.463 385.454 166.429 386.235 166.194 386.967C165.959 387.698 165.531 388.352 164.956 388.861C164.956 388.861 107.381 448.261 96.4157 460.64C89.5585 468.382 90.7514 475.003 92.6079 478.874C93.2851 480.298 94.2462 481.568 95.4321 482.607C96.6181 483.647 98.0039 484.433 99.5046 484.917C113.677 489.388 126.365 464.195 135.22 458.302C139.352 455.553 143.523 454.557 149.117 456.548C149.117 456.548 142.37 452.922 136.082 455.979C129.793 459.037 114.831 480.232 106.749 481.646C98.6672 483.061 92.9871 479.466 93.0977 473.02C93.0602 470.927 93.4701 468.851 94.2998 466.93C95.1295 465.009 96.36 463.288 97.9088 461.881C99.5441 460.245 117.896 439.705 117.896 439.705C117.896 439.705 165.722 390.678 166.457 389.145C166.824 388.457 167.002 387.683 166.973 386.903C166.944 386.123 166.709 385.365 166.291 384.706Z" fill="black"/>
</g>
<path d="M157.38 442.47C157.38 442.51 156.708 442.249 155.484 441.894C153.755 441.407 151.971 441.142 150.175 441.104C147.503 441.05 144.839 441.407 142.275 442.162C139.146 443.084 136.169 444.463 133.443 446.254C130.733 448.08 128.211 450.17 125.914 452.495C123.781 454.621 121.964 456.675 120.526 458.42C119.089 460.166 117.896 461.58 117.09 462.6L116.15 463.737C116.043 463.872 115.927 463.999 115.802 464.116C115.879 463.961 115.975 463.815 116.087 463.682L116.964 462.505C117.754 461.478 118.86 460.016 120.297 458.239C121.735 456.461 123.513 454.384 125.646 452.227C127.945 449.866 130.481 447.749 133.214 445.907C135.974 444.091 138.995 442.706 142.172 441.799C144.766 441.049 147.462 440.716 150.159 440.811C151.977 440.874 153.776 441.188 155.508 441.744C155.979 441.884 156.441 442.056 156.89 442.257C157.061 442.31 157.225 442.381 157.38 442.47Z" fill="white"/>
<path d="M165.983 398.309C165.912 398.214 166.275 397.859 166.386 397.282C166.497 396.706 166.323 396.239 166.386 396.176C166.449 396.113 166.915 396.611 166.757 397.361C166.599 398.112 166.023 398.42 165.983 398.309Z" fill="white"/>
<path d="M160.248 404.163C160.169 404.076 160.429 403.705 160.5 403.184C160.572 402.662 160.445 402.236 160.548 402.173C160.651 402.109 161.014 402.568 160.911 403.247C160.809 403.926 160.311 404.258 160.248 404.163Z" fill="white"/>
<path d="M153.596 412.142C153.533 412.04 153.959 411.684 154.109 411.068C154.259 410.452 154.109 409.93 154.204 409.875C154.299 409.82 154.378 409.954 154.473 410.191C154.585 410.506 154.599 410.849 154.511 411.172C154.424 411.495 154.239 411.784 153.983 412C153.785 412.158 153.62 412.182 153.596 412.142Z" fill="white"/>
<path d="M148.413 417.743C148.358 417.641 148.808 417.309 149.022 416.693C149.235 416.076 149.117 415.539 149.227 415.492C149.338 415.444 149.693 416.061 149.409 416.835C149.124 417.609 148.437 417.862 148.413 417.743Z" fill="white"/>
<path d="M142.836 424.427C142.765 424.34 142.931 424.056 143.018 423.692C143.105 423.329 143.105 422.997 143.215 422.957C143.326 422.918 143.547 423.297 143.421 423.795C143.294 424.293 142.907 424.49 142.836 424.427Z" fill="white"/>
<path d="M136.413 431.442C136.358 431.347 136.737 430.992 136.769 430.399C136.8 429.807 136.516 429.404 136.595 429.325C136.674 429.246 136.777 429.325 136.935 429.53C137.121 429.795 137.208 430.116 137.181 430.438C137.153 430.761 137.013 431.063 136.785 431.292C136.603 431.458 136.445 431.482 136.413 431.442Z" fill="white"/>
<path d="M128.987 440.922C128.877 440.875 128.987 440.393 129.264 439.84C129.54 439.287 129.809 438.884 129.912 438.931C130.014 438.979 129.912 439.461 129.635 440.014C129.359 440.567 129.09 440.969 128.987 440.922Z" fill="white"/>
<path d="M168.037 390.038C168.567 389.094 168.928 388.065 169.104 386.997C169.156 385.928 169.02 384.858 168.701 383.837C168.748 383.837 168.993 384.105 169.214 384.69C169.499 385.445 169.602 386.257 169.514 387.06C169.431 387.869 169.16 388.648 168.724 389.335C168.377 389.833 168.069 390.078 168.037 390.038Z" fill="white"/>
<path d="M147.063 361.409C147.781 361.124 147.268 359.829 146.865 359.189C147.494 359.598 148.245 359.776 148.99 359.694C149.198 359.658 149.384 359.545 149.512 359.378C149.741 359.046 149.551 358.588 149.338 358.256C148.988 357.716 148.563 357.229 148.074 356.811L145.404 359.268C145.404 359.268 145.854 361.906 147.063 361.409Z" fill="#FFBE9D"/>
<path d="M148.153 357.664C148.153 357.664 148.54 357.822 148.943 358.312C149.245 358.599 149.441 358.981 149.496 359.394C149.49 359.548 149.432 359.696 149.33 359.813C149.229 359.916 149.104 359.992 148.967 360.034C148.713 360.122 148.44 360.141 148.177 360.089C147.699 360.007 147.249 359.809 146.865 359.512L147.134 359.26C147.758 360.532 147.268 361.519 147.134 361.424C146.999 361.329 147.189 361.211 147.134 360.848C147.115 360.364 146.985 359.891 146.755 359.465C146.728 359.421 146.72 359.368 146.731 359.318C146.743 359.268 146.774 359.224 146.818 359.196C146.849 359.179 146.884 359.17 146.92 359.17C146.956 359.17 146.992 359.179 147.023 359.196C147.37 359.44 147.767 359.605 148.184 359.678C148.595 359.757 149.077 359.623 149.061 359.37C149.012 359.043 148.873 358.737 148.658 358.485C148.398 357.98 148.113 357.711 148.153 357.664Z" fill="#EB996E"/>
<path d="M137.993 434.12C137.683 433.215 137.309 432.333 136.872 431.482C136.578 430.752 136.082 430.122 135.442 429.665C135.114 429.449 134.715 429.368 134.329 429.44C133.943 429.513 133.6 429.732 133.372 430.052C133.185 430.502 133.171 431.006 133.332 431.466C133.576 432.361 133.986 433.203 134.541 433.946C133.972 433.504 133.538 432.904 132.961 432.516C132.674 432.299 132.319 432.192 131.96 432.214C131.6 432.235 131.261 432.385 131.002 432.635C130.559 433.212 130.868 434.049 131.247 434.681C131.774 435.537 132.394 436.331 133.095 437.051C133.317 437.274 133.59 437.44 133.89 437.534C134.19 437.627 134.508 437.646 134.818 437.588C134.983 437.593 135.145 437.533 135.268 437.422C135.353 437.301 135.402 437.159 135.41 437.012C135.495 436.333 135.522 435.648 135.489 434.965C135.797 435.346 136.182 435.659 136.619 435.882C136.84 435.988 137.089 436.023 137.331 435.982C137.573 435.941 137.796 435.826 137.97 435.653C138.096 435.418 138.164 435.156 138.168 434.889C138.172 434.623 138.112 434.359 137.993 434.12Z" fill="#FFBE9D"/>
<path d="M139.668 428.321C139.509 428.053 139.303 427.814 139.06 427.618C138.862 427.475 138.629 427.386 138.385 427.362C138.141 427.338 137.896 427.379 137.673 427.482C137.45 427.584 137.259 427.743 137.118 427.943C136.977 428.144 136.892 428.378 136.872 428.622C136.861 429.077 136.973 429.527 137.195 429.925C137.428 430.514 137.774 431.051 138.215 431.505C138.373 431.804 138.628 432.04 138.938 432.175C139.248 432.31 139.594 432.335 139.921 432.248C140.073 432.22 140.216 432.158 140.34 432.066C140.452 431.966 140.542 431.845 140.606 431.709C140.67 431.573 140.705 431.426 140.711 431.276C140.721 430.199 140.352 429.154 139.668 428.321Z" fill="#FFBE9D"/>
<path d="M133.253 437.778C132.932 436.748 132.261 435.862 131.357 435.273C131.124 435.068 130.857 434.905 130.567 434.791C130.335 434.72 130.088 434.709 129.85 434.76C129.612 434.811 129.391 434.923 129.209 435.084C129.029 435.249 128.896 435.459 128.822 435.692C128.749 435.924 128.738 436.172 128.79 436.411C128.919 436.85 129.165 437.246 129.501 437.556C129.899 438.046 130.39 438.452 130.947 438.749C131.188 438.987 131.504 439.136 131.842 439.17C132.179 439.204 132.518 439.123 132.803 438.939C132.939 438.865 133.058 438.763 133.151 438.639C133.294 438.376 133.331 438.067 133.253 437.778Z" fill="#FFBE9D"/>
<path d="M133.159 437.193C133.072 437.264 132.716 436.941 132.321 436.514C131.926 436.087 131.658 435.724 131.737 435.613C131.816 435.503 132.226 435.795 132.629 436.237C133.032 436.68 133.253 437.13 133.159 437.193Z" fill="#AA6550"/>
<path d="M135.655 435.06C135.552 435.06 135.315 434.831 134.904 434.57C134.494 434.31 134.193 433.883 134.304 433.78C134.415 433.678 134.699 433.915 135.141 434.199C135.584 434.483 135.781 435.028 135.655 435.06Z" fill="#AA6550"/>
<path d="M97.6639 449.509L109.372 447.202L116.774 450.189L119.341 453.562C119.341 453.562 119.428 457.235 118.678 457.512C118.504 457.561 118.32 457.57 118.142 457.538C117.964 457.506 117.796 457.433 117.65 457.325C117.504 457.218 117.385 457.078 117.302 456.918C117.218 456.757 117.173 456.579 117.169 456.398V455.094L116.339 454.85L116.071 459.345C116.053 459.632 115.926 459.901 115.716 460.098C115.506 460.295 115.229 460.404 114.941 460.403H114.72L114.554 463.476C114.554 463.476 114.222 463.974 113.227 463.476C112.433 462.916 111.781 462.177 111.323 461.32L110.825 459.495L108.25 456.509C108.25 456.509 111.987 463.224 111.568 464.306C111.149 465.388 110.572 465.633 109.988 465.214C109.403 464.796 105.509 458.104 105.509 458.104C105.509 458.104 101.946 457.694 101.693 457.607C101.44 457.52 94.891 459.297 93.9825 458.713L90.8225 456.722L97.6639 449.509Z" fill="#FFBE9D"/>
<path d="M108.163 452.788C108.746 452.734 109.332 452.864 109.838 453.159C111.068 453.816 112.12 454.762 112.903 455.916C113.719 457.04 114.279 458.329 114.546 459.692C114.692 460.249 114.716 460.831 114.617 461.399C114.546 461.399 114.53 460.751 114.262 459.756C113.921 458.461 113.345 457.24 112.563 456.153C111.815 455.05 110.84 454.118 109.703 453.42C109.205 453.174 108.69 452.963 108.163 452.788Z" fill="#AA6550"/>
<path d="M111.181 449.888C111.662 450.019 112.125 450.213 112.555 450.465L113.985 451.184L114.831 451.626C115.154 451.779 115.454 451.976 115.723 452.211C115.959 452.479 116.136 452.793 116.243 453.133C116.351 453.473 116.386 453.832 116.347 454.186C116.347 454.739 116.308 455.276 116.284 455.766C116.308 456.264 116.255 456.762 116.126 457.243C116.015 456.759 115.972 456.262 116 455.766C116 455.245 116 454.715 116 454.186C116.052 453.58 115.862 452.977 115.47 452.511C114.954 452.14 114.41 451.81 113.843 451.524L112.445 450.734C111.984 450.515 111.559 450.23 111.181 449.888Z" fill="#AA6550"/>
<path d="M100.855 361.1C100.855 361.1 92.0865 361.566 87.6467 367.42C83.2069 373.274 58.2508 403.041 59.0487 409.875C59.8466 416.708 69.0659 439.761 75.5834 446.76C79.7494 451.142 84.4968 454.933 89.6928 458.025L97.8456 449.572L88.9344 434.831C88.9344 434.831 87.8205 428.314 87.5045 427.721C87.1885 427.129 85.1345 426.449 85.1345 426.449L81.6348 411.186L83.2148 410.87L103.249 391.476L109.767 388.616C109.767 388.616 118.638 377.912 114.214 368.076C110.557 359.994 105.864 361.898 100.855 361.1Z" fill="#455A64"/>
<path d="M71.27 403.681C71.27 403.681 71.4596 403.634 71.8072 403.634C72.2976 403.631 72.787 403.676 73.2687 403.768C74.8748 404.063 76.3946 404.713 77.7164 405.672C79.0352 406.639 80.1272 407.882 80.9159 409.314C81.1557 409.743 81.3566 410.192 81.5163 410.657C81.6269 410.981 81.6743 411.171 81.6427 411.178C81.6111 411.186 81.303 410.491 80.6631 409.456C79.8355 408.118 78.7635 406.946 77.5031 406.004C76.2219 405.082 74.7727 404.419 73.2371 404.053C72.0047 403.776 71.27 403.752 71.27 403.681Z" fill="#263238"/>
<path d="M106.03 387.889C106.03 387.889 105.904 388.047 105.635 388.324L104.45 389.556L99.8838 394.225L83.3333 410.981H83.2938H83.2464L81.6664 411.305L81.8007 411.092C82.8672 415.745 84.0601 420.896 85.3162 426.347L85.1819 426.204C85.9924 426.433 86.7588 426.796 87.4492 427.279C87.5441 427.365 87.6242 427.467 87.6862 427.579C87.7324 427.684 87.7694 427.792 87.7968 427.903C87.86 428.108 87.8995 428.314 87.9548 428.511L88.2155 429.744C88.542 431.397 88.8501 433.077 89.1398 434.784V434.713L96.4157 446.744C96.9608 447.645 97.5059 448.554 98.051 449.446L98.13 449.581L98.0194 449.699L89.8666 458.152L89.756 458.271L89.6217 458.192C86.1258 456.103 82.8283 453.7 79.7704 451.01C78.3223 449.753 76.9406 448.422 75.6308 447.021C74.4071 445.657 73.3073 444.187 72.3444 442.629C69.1321 437.292 66.3681 431.698 64.081 425.904C62.5029 422.094 61.1394 418.198 59.9967 414.236C59.7992 413.541 59.6333 412.917 59.5148 412.379C59.3963 411.842 59.2778 411.376 59.2304 411.005C59.183 410.634 59.1356 410.357 59.1119 410.152C59.0996 410.055 59.0996 409.956 59.1119 409.859C59.1396 409.953 59.1607 410.048 59.1751 410.144C59.1751 410.349 59.2699 410.634 59.3331 410.989C59.3963 411.345 59.5306 411.779 59.657 412.348C59.7834 412.917 59.9572 413.509 60.1626 414.196C61.3572 418.134 62.7547 422.008 64.3496 425.802C66.6714 431.563 69.4561 437.127 72.6762 442.439C73.6302 443.976 74.7194 445.425 75.931 446.768C77.2029 448.127 78.5854 449.438 80.0469 450.718C83.0939 453.379 86.3752 455.758 89.8508 457.828L89.6138 457.868L97.7587 449.399V449.652C97.2215 448.759 96.6764 447.85 96.1234 446.95L88.8554 434.918C88.5631 433.212 88.2629 431.529 87.9311 429.886C87.8521 429.475 87.7652 429.096 87.6783 428.669C87.6309 428.464 87.5835 428.266 87.5282 428.077C87.5064 427.988 87.4774 427.9 87.4413 427.816C87.4015 427.748 87.3508 427.686 87.2912 427.634C86.6477 427.189 85.935 426.852 85.1819 426.639H85.0713V426.528L81.5953 411.266V411.092H81.7691L83.3491 410.776L83.2622 410.823L99.71 394.083L104.339 389.485C104.861 388.972 105.272 388.569 105.564 388.292L106.03 387.889Z" fill="#263238"/>
<path d="M114.996 373.385C114.917 373.385 115.036 372.303 114.744 370.612C114.377 368.399 113.41 366.329 111.949 364.627C110.488 362.925 108.588 361.656 106.457 360.958C104.821 360.413 103.731 360.374 103.747 360.295C104.008 360.25 104.275 360.25 104.537 360.295C105.228 360.351 105.911 360.481 106.575 360.682C108.791 361.34 110.774 362.614 112.295 364.355C113.794 366.116 114.754 368.272 115.06 370.565C115.159 371.25 115.185 371.944 115.139 372.634C115.134 372.891 115.086 373.145 114.996 373.385Z" fill="#263238"/>
</svg>
