<svg width="360" height="653" viewBox="0 0 360 653" fill="none" xmlns="http://www.w3.org/2000/svg">
<circle cx="-8" cy="80" r="69" fill="#D7D2D8" fill-opacity="0.44"/>
<circle cx="59" cy="-1" r="69" fill="#D7D2D8" fill-opacity="0.44"/>
<path d="M404.4 318.812L401.696 314.441C379.865 279.057 340.831 257.25 299.155 258.653C292.521 258.874 285.919 259.67 279.424 261.033C240.503 269.224 206.637 298.17 192.653 335.258C184.403 357.064 182.102 382.165 166.433 399.475C146.035 422.02 111.415 422.709 80.982 421.77C50.5491 420.83 15.9035 421.632 -4.39348 444.315C-17.0948 458.481 -21.1441 478.622 -20.1129 497.585C-17.3589 547.711 18.1545 592.639 63.4013 614.959C108.648 637.279 161.918 639.271 211.441 629.464C280.808 615.686 346.779 577.935 386.442 519.592C426.106 461.249 436.128 381.776 404.4 318.812Z" fill="#EBEBEB"/>
<circle cx="362.5" cy="93.5" r="53.5" fill="#D7D2D8" fill-opacity="0.44"/>
<circle cx="320" cy="141" r="38" fill="#D7D2D8" fill-opacity="0.44"/>
<path d="M385.597 614.544C385.597 614.661 304.848 614.761 205.264 614.761C105.679 614.761 24.9133 614.678 24.9133 614.544C24.9133 614.41 105.646 614.327 205.264 614.327C304.881 614.327 385.597 614.444 385.597 614.544Z" fill="#263238"/>
<path d="M122.566 327.161C109.149 348.261 110.026 377.521 124.69 397.778C134.463 411.287 149.118 420.35 160.755 432.271C172.392 444.192 181.237 461.79 175.092 477.29C168.839 493.065 150.522 499.477 136.812 509.476C121.685 520.493 111.415 536.944 108.161 555.373C104.906 573.801 108.918 592.775 119.356 608.307H261.827C261.827 608.307 286.857 560.614 254.679 524.256C222.502 487.898 205.222 487.313 206.409 463.47C207.596 439.628 224.283 431.895 233.821 422.95C243.36 414.004 289.833 393.163 262.421 327.152L122.566 327.161Z" fill="#FAFAFA"/>
<path d="M122.566 327.161H125.016H132.239H160.044L262.421 327.085H262.53V327.186C264.628 332.184 266.415 337.307 267.88 342.526C269.418 347.991 270.432 353.589 270.906 359.246C271.399 365.16 271.096 371.112 270.003 376.944C268.804 382.99 266.63 388.801 263.566 394.149C261.979 396.877 260.185 399.479 258.199 401.933C256.172 404.419 253.98 406.765 251.637 408.955C249.263 411.185 246.777 413.292 244.188 415.267C241.596 417.273 238.887 419.162 236.246 421.169C234.925 422.164 233.738 423.284 232.45 424.404C231.163 425.524 229.884 426.569 228.563 427.623C225.929 429.73 223.271 431.803 220.763 434.135C215.528 438.672 211.506 444.442 209.059 450.922C207.883 454.246 207.141 457.708 206.852 461.222C206.777 462.058 206.66 462.977 206.626 463.863C206.593 464.75 206.559 465.636 206.626 466.522C206.645 468.301 206.824 470.075 207.161 471.822C207.824 475.362 209.269 478.71 211.391 481.62C213.575 484.53 216.049 487.21 218.773 489.621C224.182 494.561 229.926 499.285 235.418 504.384C240.911 509.484 246.286 514.801 251.469 520.427C254.114 523.212 256.587 526.155 258.876 529.239C261.179 532.361 263.18 535.695 264.854 539.195C268.237 546.29 270.316 553.936 270.99 561.767C271.672 569.707 271.204 577.704 269.602 585.51C268.823 589.454 267.801 593.346 266.542 597.164C265.305 601.014 263.796 604.771 262.028 608.408L261.969 608.525H119.239L119.181 608.433C112.5 598.373 108.402 586.822 107.251 574.801C106.093 563.254 107.787 551.599 112.183 540.859C116.362 530.593 122.796 521.399 131.01 513.957C134.996 510.438 139.3 507.298 143.868 504.577C148.315 501.818 152.805 499.26 157.043 496.467C161.286 493.815 165.183 490.648 168.647 487.037C171.954 483.492 174.408 479.237 175.82 474.598C177.057 470.072 177.251 465.324 176.388 460.712C175.563 456.261 174.078 451.958 171.982 447.946C169.978 444.083 167.574 440.44 164.81 437.078C162.142 433.853 159.241 430.826 156.132 428.024C150.104 422.473 143.926 417.616 138.375 412.625C135.591 410.117 132.958 407.609 130.525 405.042C128.167 402.53 125.994 399.85 124.021 397.025C120.455 391.844 117.706 386.146 115.87 380.13C114.262 374.934 113.329 369.554 113.095 364.12C112.978 362.883 113.028 361.662 113.028 360.467C113.028 359.271 113.028 358.109 113.136 356.981C113.245 355.852 113.304 354.749 113.387 353.637C113.471 352.525 113.696 351.53 113.839 350.519C114.762 344.361 116.647 338.386 119.423 332.812C119.799 331.95 120.229 331.112 120.711 330.304L121.739 328.557C122.282 327.629 122.575 327.161 122.575 327.161L121.739 328.582L120.744 330.304C120.274 331.116 119.85 331.953 119.473 332.812C116.722 338.399 114.86 344.382 113.956 350.544C113.814 351.547 113.646 352.583 113.521 353.645C113.396 354.707 113.354 355.819 113.27 356.947C113.187 358.076 113.187 359.238 113.178 360.425C113.17 361.612 113.136 362.833 113.253 364.07C113.495 369.486 114.437 374.847 116.054 380.021C117.888 386.015 120.634 391.692 124.197 396.85C126.164 399.663 128.335 402.329 130.692 404.825C133.117 407.4 135.75 409.908 138.534 412.349C144.085 417.365 150.238 422.172 156.307 427.731C159.441 430.554 162.364 433.603 165.052 436.852C167.831 440.239 170.249 443.906 172.267 447.795C174.383 451.832 175.882 456.164 176.714 460.645C177.59 465.306 177.395 470.106 176.146 474.681C174.727 479.374 172.251 483.679 168.906 487.263C165.425 490.895 161.511 494.084 157.252 496.76C152.997 499.561 148.508 502.119 144.068 504.878C139.52 507.592 135.233 510.721 131.261 514.224C123.098 521.628 116.701 530.77 112.543 540.976C108.173 551.661 106.493 563.256 107.652 574.742C108.803 586.694 112.881 598.179 119.523 608.182L119.356 608.09H261.827L261.635 608.207C263.4 604.58 264.903 600.83 266.133 596.988C267.385 593.187 268.402 589.311 269.176 585.384C270.771 577.617 271.236 569.659 270.555 561.759C269.894 553.971 267.829 546.366 264.461 539.312C262.799 535.837 260.815 532.526 258.534 529.423C256.25 526.354 253.788 523.423 251.16 520.645C246.005 515.032 240.663 509.693 235.134 504.627C229.65 499.536 223.923 494.821 218.497 489.855C215.751 487.424 213.256 484.725 211.049 481.796C208.885 478.85 207.403 475.461 206.71 471.872C206.375 470.099 206.193 468.301 206.166 466.497C206.125 465.602 206.166 464.708 206.166 463.813C206.166 462.919 206.317 462.033 206.384 461.146C206.691 457.612 207.449 454.13 208.641 450.788C211.109 444.251 215.169 438.432 220.454 433.859C222.962 431.535 225.645 429.429 228.279 427.33C229.6 426.277 230.895 425.215 232.158 424.128C233.42 423.042 234.666 421.871 235.97 420.868C238.628 418.862 241.329 416.972 243.912 414.974C246.493 413.008 248.974 410.912 251.344 408.696C253.672 406.515 255.853 404.184 257.873 401.715C259.843 399.27 261.628 396.683 263.215 393.974C266.261 388.662 268.424 382.891 269.619 376.886C270.706 371.101 271.013 365.196 270.53 359.33C270.063 353.674 269.058 348.075 267.529 342.61C266.084 337.376 264.32 332.237 262.245 327.219L262.387 327.311L160.069 327.236H132.247H125.008L122.566 327.161Z" fill="#263238"/>
<path d="M256.736 365.859C277.72 369.312 244.639 406.48 225.904 421.144C215.036 429.629 203.416 438.842 198.266 451.616C192.414 466.112 196.753 482.397 193.927 496.977C193.836 497.48 193.559 497.93 193.15 498.236C192.741 498.542 192.231 498.683 191.723 498.629C191.215 498.575 190.746 498.33 190.411 497.945C190.075 497.56 189.898 497.061 189.915 496.551C190.048 486.979 189.798 477.415 188.243 467.993C185.994 454.617 180.861 441.417 171.523 431.627C163.873 423.627 153.85 418.318 145.699 410.844C133.794 399.934 121.563 385.864 120.368 369.763C120.368 369.763 143.224 351.371 155.915 353.67C170.745 356.387 185.342 379.268 208.315 376.652C224.299 374.821 232.4 361.863 256.736 365.859Z" fill="#381E3E"/>
<path d="M258.6 564.785C258.074 559.535 256.669 553.6 252.013 551.125C249.195 549.62 245.759 549.787 242.666 550.598C239.573 551.409 236.672 552.822 233.612 553.733C227.53 555.522 221.034 555.314 215.078 553.14C209.385 551.05 204.503 547.288 199.194 544.295C193.886 541.302 187.724 539.112 181.839 540.575C171.69 543.083 166.406 555.322 156.374 558.273C151.91 559.577 147.12 558.841 142.589 557.821C138.058 556.801 133.501 555.472 128.862 555.648C125.217 555.781 121.43 557.044 118.88 559.535L118.813 559.61C118.388 560.026 118.002 560.479 117.659 560.965C114.549 565.145 114.048 570.687 115.009 575.754C116.079 581.43 118.729 586.672 121.572 591.696C124.916 597.615 128.728 603.5 134.262 607.446C141.101 612.32 149.686 608.959 158.055 609.62C177.559 611.158 198.542 612.203 218.054 610.698C228.362 609.862 238.018 611.016 246.194 604.687C251.946 600.24 255.691 593.535 257.497 586.496C259.303 579.457 259.328 572.017 258.6 564.785Z" fill="#381E3E"/>
<g opacity="0.24">
<path d="M221.783 554.737C220.688 556.409 220.211 558.683 221.273 560.388C222.335 562.093 223.781 563.657 224.232 565.621C224.96 568.698 223.104 571.707 221.724 574.558C219.171 579.655 218.207 585.401 218.957 591.052C219.748 596.722 222.676 601.875 227.142 605.457C229.123 606.987 231.698 608.174 234.089 607.421C236.338 606.719 237.784 604.437 238.269 602.121C238.754 599.805 238.344 597.423 238.052 595.09C236.69 584.22 236.972 573.206 238.888 562.419C239.205 560.622 239.506 558.565 238.369 557.136C237.549 556.303 236.508 555.723 235.368 555.464C231.021 554.018 226.331 555.623 221.825 554.77" fill="black"/>
</g>
<path d="M108.898 614.778C108.898 614.778 108.505 608.24 117.032 604.595H266.885C266.885 604.595 274.702 608.558 275.663 614.627L108.898 614.778Z" fill="#263238"/>
<path d="M263.7 327.955L263.458 328.063L122.55 327.161C122.55 327.161 122.048 326.843 121.304 326.249C120.426 325.561 119.785 324.615 119.471 323.544C119.158 322.473 119.188 321.331 119.557 320.278C119.926 319.225 120.615 318.314 121.528 317.673C122.441 317.031 123.532 316.692 124.648 316.702L261.418 317.806C267.044 317.856 268.816 325.547 263.7 327.955Z" fill="#263238"/>
<g opacity="0.24">
<path d="M241.128 381.71C241.412 382.253 240.35 383.382 238.336 385.221C236.321 387.06 233.32 389.476 229.591 392.511C225.114 396.209 220.363 399.563 215.379 402.543C212.283 404.335 209.025 405.833 205.648 407.015C203.818 407.648 201.95 408.164 200.055 408.562C198.065 408.985 196.043 409.247 194.011 409.348C189.892 409.572 185.769 409.004 181.864 407.676C178.412 406.42 175.131 404.735 172.099 402.66C169.29 400.804 166.874 398.965 164.575 397.201C162.276 395.437 160.228 393.74 158.372 392.134C150.974 385.722 147.078 381.007 147.83 380.096C148.583 379.185 153.85 382.153 162.042 387.169L168.73 391.265C171.13 392.72 173.696 394.333 176.321 395.821C178.926 397.35 181.687 398.597 184.556 399.541C187.492 400.421 190.558 400.783 193.618 400.611C200.039 400.277 206.267 398.02 211.659 395.412C217.051 392.803 221.933 389.76 226.164 387.386C229.511 385.41 233.011 383.705 236.63 382.286C239.28 381.358 240.886 381.183 241.128 381.71Z" fill="black"/>
</g>
<path d="M190.015 514.441C190.607 514.206 191.269 514.213 191.856 514.461C192.443 514.709 192.908 515.179 193.152 515.768C193.395 516.357 193.397 517.019 193.156 517.609C192.916 518.199 192.452 518.671 191.866 518.922C191.28 519.173 190.619 519.184 190.025 518.951C189.432 518.718 188.954 518.261 188.695 517.678C188.437 517.096 188.418 516.434 188.643 515.838C188.868 515.242 189.319 514.758 189.898 514.491" fill="#CEAB5E"/>
<path d="M139.621 405.026C139.438 404.875 139.27 404.707 139.119 404.524L137.757 403.036C137.18 402.376 136.419 401.606 135.641 400.628L132.983 397.284C132.072 395.997 131.043 394.609 130.007 393.104L128.477 390.672C128.218 390.254 127.942 389.836 127.691 389.392L126.955 388.038C124.731 384.095 122.987 379.899 121.764 375.54C120.534 371.185 119.871 366.689 119.791 362.164C119.791 361.119 119.849 360.107 119.866 359.113C119.866 358.619 119.866 358.134 119.933 357.658C120 357.181 120.033 356.713 120.083 356.253C120.192 355.334 120.259 354.439 120.384 353.587C120.51 352.734 120.685 351.915 120.828 351.154C121.062 349.59 121.48 348.228 121.772 346.974C121.931 346.372 122.056 345.803 122.215 345.302L122.675 343.906L123.319 341.991C123.38 341.763 123.464 341.542 123.57 341.331C123.535 341.564 123.479 341.793 123.402 342.016C123.26 342.501 123.076 343.145 122.834 343.956L122.416 345.352C122.274 345.862 122.157 346.43 122.006 347.024C121.739 348.236 121.346 349.607 121.17 351.204C121.037 351.973 120.903 352.784 120.761 353.628C120.619 354.473 120.585 355.359 120.485 356.278C120.485 356.738 120.393 357.198 120.343 357.675C120.292 358.151 120.343 358.636 120.292 359.121C120.292 360.107 120.226 361.111 120.234 362.147C120.316 366.646 120.97 371.115 122.182 375.448C123.399 379.775 125.119 383.944 127.307 387.871C127.549 388.322 127.791 388.774 128.025 389.225C128.26 389.677 128.552 390.061 128.803 390.496L130.308 392.929C131.328 394.467 132.339 395.855 133.225 397.109L135.834 400.453C136.586 401.448 137.33 402.225 137.882 402.911L139.186 404.457C139.343 404.637 139.488 404.827 139.621 405.026Z" fill="#263238"/>
<path d="M131.687 529.222C131.729 529.125 131.779 529.033 131.838 528.946L132.339 528.16C132.565 527.809 132.841 527.391 133.175 526.889L133.702 526.053C133.911 525.777 134.153 525.501 134.396 525.217L136.068 523.211C136.712 522.517 137.447 521.798 138.225 521.012C140.027 519.276 141.943 517.662 143.96 516.18C148.399 512.836 154.126 509.492 160.329 505.571C163.59 503.561 166.726 501.353 169.717 498.958C172.926 496.402 175.76 493.408 178.135 490.063C182.484 483.382 184.847 475.604 184.949 467.634C185.055 461.137 183.967 454.676 181.739 448.573C180.263 444.454 178.41 440.48 176.204 436.702C175.427 435.356 174.791 434.336 174.357 433.642L173.863 432.856C173.755 432.68 173.705 432.58 173.705 432.58C173.779 432.655 173.844 432.739 173.897 432.831L174.432 433.6C174.892 434.269 175.552 435.272 176.346 436.618C178.621 440.376 180.524 444.346 182.031 448.472C184.319 454.601 185.453 461.1 185.375 467.642C185.34 469.528 185.186 471.41 184.915 473.277C184.645 475.229 184.234 477.16 183.686 479.053C182.545 483.063 180.769 486.865 178.428 490.314C176.028 493.695 173.163 496.721 169.918 499.301C166.909 501.698 163.757 503.909 160.479 505.922C154.251 509.81 148.516 513.12 144.077 516.439C142.061 517.902 140.14 519.49 138.325 521.196C137.548 521.974 136.804 522.676 136.151 523.361L134.479 525.326C134.229 525.627 133.986 525.903 133.777 526.162L133.234 526.956L132.398 528.202L131.863 528.963C131.811 529.053 131.753 529.14 131.687 529.222Z" fill="#263238"/>
<path d="M123.912 543.994C123.862 544.13 123.8 544.261 123.728 544.387L123.127 545.448C122.859 545.9 122.541 546.468 122.215 547.12C121.889 547.773 121.471 548.542 121.12 549.419C120.936 549.854 120.736 550.306 120.535 550.774C120.334 551.242 120.167 551.76 119.966 552.279C119.565 553.315 119.248 554.452 118.88 555.623C117.426 560.863 116.924 566.323 117.4 571.741C117.542 572.978 117.642 574.165 117.86 575.252C117.952 575.795 118.027 576.33 118.136 576.832C118.244 577.334 118.361 577.818 118.47 578.278C118.654 579.206 118.93 580.017 119.13 580.736C119.331 581.455 119.532 582.074 119.716 582.575L120.109 583.729C120.165 583.859 120.202 583.997 120.217 584.139C120.137 584.022 120.072 583.896 120.025 583.762C119.9 583.453 119.749 583.085 119.557 582.634C119.304 582.039 119.084 581.43 118.896 580.811C118.671 580.092 118.378 579.281 118.169 578.353C118.052 577.894 117.935 577.409 117.81 576.907C117.684 576.406 117.609 575.862 117.5 575.319C117.266 574.215 117.149 573.028 116.999 571.782C116.475 566.331 116.98 560.829 118.487 555.564C118.863 554.36 119.197 553.215 119.624 552.178C119.833 551.66 120 551.15 120.217 550.673L120.836 549.311C121.204 548.475 121.672 547.697 121.998 547.029C122.293 546.453 122.619 545.895 122.976 545.357L123.645 544.328C123.812 544.103 123.896 543.985 123.912 543.994Z" fill="#263238"/>
<path d="M227.267 564.091L227.1 564.208L226.582 564.534L224.55 565.755L223.079 566.591C222.527 566.9 221.917 567.185 221.265 567.511C219.944 568.146 218.489 568.957 216.767 569.609L214.092 570.704C213.164 571.072 212.152 571.365 211.132 571.716C209.101 572.46 206.844 572.995 204.494 573.605C194.18 576.021 183.481 576.305 173.053 574.441C170.662 573.956 168.388 573.538 166.314 572.903C165.278 572.602 164.258 572.368 163.305 572.067L160.579 571.072C158.832 570.512 157.327 569.785 155.981 569.216C155.313 568.923 154.686 568.664 154.125 568.38L152.604 567.586L150.514 566.474L149.979 566.173L149.803 566.064C149.803 566.064 149.879 566.064 150.004 566.14L150.556 566.399L152.679 567.435L154.209 568.188C154.778 568.455 155.413 568.698 156.082 568.982C157.428 569.517 158.932 570.228 160.688 570.763L163.38 571.741C164.333 572.058 165.353 572.284 166.39 572.577C168.455 573.195 170.72 573.588 173.078 574.065C183.458 575.862 194.091 575.578 204.361 573.229C206.702 572.627 208.95 572.117 210.982 571.39C212.002 571.047 213.005 570.771 213.933 570.403L216.608 569.341C218.33 568.706 219.793 567.92 221.114 567.31C221.766 566.992 222.385 566.716 222.937 566.474L224.425 565.638L226.49 564.484L227.033 564.2C227.2 564.108 227.267 564.083 227.267 564.091Z" fill="#263238"/>
<path d="M235.987 387.152C235.935 387.212 235.876 387.266 235.811 387.311L235.259 387.762C234.749 388.172 234.039 388.749 233.127 389.434C231.271 390.905 228.58 393.037 225.177 395.579C221.218 398.61 217.065 401.38 212.746 403.872C210.177 405.309 207.499 406.542 204.737 407.559C201.757 408.643 198.649 409.334 195.491 409.615C189.35 409.96 183.227 408.686 177.734 405.92C175.358 404.713 173.066 403.351 170.87 401.84C168.831 400.402 166.966 399.006 165.319 397.66C161.975 395.002 159.417 392.753 157.612 391.215L155.547 389.426L155.02 388.958L154.844 388.782C154.844 388.782 154.92 388.782 155.045 388.916L155.605 389.359L157.72 391.081C159.559 392.586 162.184 394.793 165.512 397.418C167.184 398.73 169.031 400.11 171.079 401.531C173.267 403.015 175.548 404.356 177.91 405.544C183.348 408.255 189.399 409.502 195.466 409.164C198.586 408.887 201.657 408.207 204.603 407.141C207.347 406.138 210.008 404.922 212.562 403.504C216.875 401.057 221.032 398.346 225.01 395.386C228.421 392.878 231.138 390.788 233.035 389.359L235.217 387.687L235.794 387.269C235.852 387.22 235.917 387.181 235.987 387.152Z" fill="#263238"/>
<g opacity="0.24">
<path d="M160.588 571.114C164.55 568.054 170.118 568.79 175.017 569.826C179.916 570.863 184.848 572.527 189.806 571.833C193.543 571.306 196.97 569.475 200.674 568.673C204.377 567.87 208.833 568.464 210.882 571.632C194.511 576.907 176.871 576.725 160.613 571.114" fill="black"/>
</g>
<path d="M298.812 548.425L280.838 528.269L280.654 552.772L286.071 568.489L232.216 577.827L229.934 535.333L226.055 502.729C225.824 500.785 226.244 498.82 227.248 497.139C228.253 495.459 229.785 494.159 231.606 493.441L246.428 487.589L267.328 491.418L275.73 494.612C279.253 495.953 282.393 498.137 284.876 500.973L310.157 529.882" fill="#381E3E"/>
<path d="M279.584 523.42C280.599 523.406 281.612 523.334 282.619 523.203C285.043 522.833 287.303 521.747 289.106 520.085C290.91 518.423 292.176 516.259 292.743 513.873C292.951 512.876 293.104 511.869 293.202 510.855C293.27 511.128 293.296 511.41 293.278 511.691C293.284 512.45 293.205 513.207 293.044 513.948C292.537 516.431 291.263 518.691 289.401 520.409C287.539 522.127 285.184 523.215 282.669 523.52C281.918 523.617 281.158 523.634 280.403 523.571C280.124 523.565 279.847 523.514 279.584 523.42Z" fill="#CEAB5E"/>
<path d="M281.147 551.727C281.273 551.727 281.306 543.233 281.222 532.767C281.139 522.3 280.963 513.814 280.838 513.814C280.713 513.814 280.679 522.3 280.763 532.775C280.846 543.25 281.022 551.727 281.147 551.727Z" fill="#263238"/>
<path d="M279.174 557.955L246.637 544.855C245.351 544.337 244.235 543.47 243.415 542.352C242.595 541.234 242.104 539.909 241.997 538.526L239.615 507.327C239.615 507.327 239.899 494.051 231.606 493.407L226.916 495.263C220.822 498.499 219.317 507.377 220.144 514.224C221.323 523.955 221.816 537.732 223.129 546.176C224.216 553.09 228.145 559.167 234.933 560.948L275.011 569.626L279.174 557.955Z" fill="#381E3E"/>
<path d="M240.083 512.084C240.137 512.317 240.171 512.555 240.183 512.794C240.233 513.304 240.309 513.99 240.392 514.851C240.56 516.682 240.794 519.257 241.078 522.417C241.362 525.577 241.68 529.431 242.048 533.644C242.131 534.706 242.223 535.784 242.315 536.888C242.38 538.011 242.519 539.128 242.733 540.232C242.96 541.348 243.527 542.367 244.355 543.15C245.246 543.933 246.26 544.566 247.356 545.022C256.327 548.901 264.595 552.111 270.597 554.36L277.728 556.985L279.668 557.696C279.895 557.771 280.115 557.863 280.328 557.972C280.091 557.929 279.859 557.864 279.634 557.78L277.67 557.144C275.998 556.576 273.49 555.731 270.497 554.636C264.452 552.463 256.176 549.302 247.172 545.44C246.034 544.962 244.98 544.301 244.054 543.484C243.165 542.64 242.558 541.542 242.315 540.341C242.099 539.22 241.962 538.086 241.905 536.946C241.814 535.834 241.73 534.756 241.646 533.694C241.32 529.514 241.019 525.669 240.81 522.459C240.601 519.248 240.392 516.715 240.259 514.884C240.2 514.048 240.158 513.329 240.133 512.819C240.095 512.576 240.078 512.33 240.083 512.084Z" fill="#263238"/>
<path d="M221.44 529.046C221.474 529.183 221.493 529.323 221.499 529.464L221.607 530.668C221.708 531.78 221.833 533.277 221.992 535.099C222.151 536.921 222.402 539.187 222.728 541.645C223.048 544.307 223.536 546.945 224.191 549.545C224.498 550.884 225.036 552.16 225.779 553.315C226.505 554.377 227.319 555.375 228.212 556.3C229.733 557.865 231.491 559.183 233.42 560.204C235.219 561.118 237.147 561.75 239.138 562.077C238.997 562.095 238.853 562.095 238.712 562.077C238.308 562.05 237.906 561.997 237.508 561.918C236.038 561.644 234.613 561.163 233.278 560.488C231.294 559.49 229.487 558.174 227.928 556.593C227.003 555.657 226.164 554.642 225.42 553.558C224.639 552.37 224.073 551.054 223.748 549.67C223.084 547.051 222.601 544.389 222.301 541.703C222 539.195 221.8 537.005 221.666 535.132C221.532 533.26 221.457 531.738 221.415 530.685C221.415 530.2 221.415 529.799 221.415 529.473C221.401 529.33 221.409 529.186 221.44 529.046Z" fill="#263238"/>
<path d="M235.351 550.874C235.437 550.265 235.638 549.677 235.945 549.144C236.615 547.811 237.545 546.626 238.679 545.657C239.813 544.688 241.128 543.955 242.549 543.501C243.125 543.281 243.739 543.176 244.355 543.191C243.808 543.42 243.25 543.62 242.683 543.793C241.339 544.313 240.092 545.057 238.996 545.992C237.903 546.929 236.973 548.043 236.246 549.286C235.661 550.247 235.418 550.899 235.351 550.874Z" fill="#263238"/>
<path d="M241.755 527.149C241.826 527.169 241.894 527.2 241.956 527.241L242.541 527.55C243.295 527.922 244.072 528.248 244.865 528.528C247.79 529.554 250.928 529.825 253.986 529.314C258.528 528.504 262.585 525.981 265.322 522.266C266.957 520.121 267.983 517.573 268.29 514.893C268.441 513.484 268.293 512.06 267.855 510.713C267.392 509.338 266.587 508.103 265.514 507.126C264.457 506.137 263.125 505.49 261.694 505.27C261.015 505.149 260.318 505.183 259.655 505.37C258.992 505.557 258.38 505.891 257.865 506.349C257.398 506.806 257.128 507.427 257.112 508.079C257.127 508.728 257.349 509.356 257.748 509.868C258.163 510.364 258.672 510.772 259.246 511.069C259.82 511.366 260.447 511.546 261.092 511.599C263.356 511.881 265.654 511.59 267.776 510.753C269.899 509.917 271.777 508.56 273.239 506.809C274.347 505.446 275.181 503.882 275.697 502.202C276.081 500.93 276.289 499.611 276.315 498.281C276.324 497.442 276.263 496.603 276.131 495.773C276.081 495.514 276.039 495.297 276.014 495.13C276.007 495.055 276.007 494.979 276.014 494.904C276.36 495.985 276.529 497.114 276.516 498.248C276.524 499.597 276.339 500.94 275.964 502.236C275.033 505.359 273.024 508.051 270.294 509.831C267.565 511.612 264.292 512.365 261.058 511.958C260.368 511.898 259.696 511.701 259.082 511.379C258.468 511.058 257.924 510.618 257.48 510.086C257.026 509.502 256.774 508.786 256.761 508.046C256.762 507.285 257.062 506.555 257.597 506.014C258.159 505.513 258.826 505.144 259.55 504.936C260.274 504.727 261.035 504.685 261.777 504.811C263.298 505.036 264.713 505.722 265.832 506.775C266.964 507.798 267.811 509.097 268.29 510.546C268.745 511.947 268.899 513.428 268.741 514.893C268.415 517.631 267.355 520.231 265.673 522.417C263.352 525.584 260.058 527.903 256.294 529.02C252.53 530.137 248.504 529.991 244.831 528.603C243.746 528.256 242.712 527.767 241.755 527.149Z" fill="#CEAB5E"/>
<path d="M220.437 518.83C220.578 518.58 220.759 518.354 220.972 518.162C221.506 517.596 222.094 517.084 222.728 516.632C224.862 515.165 227.344 514.286 229.926 514.082C231.342 513.923 232.774 513.982 234.172 514.257C235.309 514.493 236.408 514.882 237.441 515.411C238.135 515.76 238.8 516.163 239.431 516.615C239.675 516.765 239.895 516.951 240.083 517.167C240.033 517.234 239.063 516.498 237.307 515.687C235.019 514.626 232.481 514.221 229.976 514.517C227.46 514.715 225.032 515.528 222.903 516.882C221.29 517.961 220.496 518.889 220.437 518.83Z" fill="#CEAB5E"/>
<path d="M225.645 496.518C226.438 497.265 227.323 497.908 228.279 498.432C229.322 498.967 230.456 499.302 231.623 499.418C233.043 499.561 234.476 499.36 235.803 498.833C237.103 498.279 238.25 497.418 239.147 496.325C239.887 495.413 240.453 494.373 240.819 493.257C241.119 492.209 241.29 491.128 241.329 490.039C241.41 490.327 241.447 490.626 241.437 490.925C241.451 491.745 241.341 492.562 241.111 493.349C240.77 494.524 240.202 495.62 239.439 496.576C238.523 497.775 237.305 498.71 235.91 499.286C234.515 499.861 232.993 500.057 231.497 499.853C230.285 499.716 229.112 499.341 228.045 498.75C227.326 498.355 226.672 497.853 226.105 497.262C225.907 497.044 225.751 496.792 225.645 496.518Z" fill="#CEAB5E"/>
<path d="M254.002 547.823C254.004 547.615 254.026 547.408 254.069 547.204C254.186 546.624 254.38 546.061 254.646 545.532C255.709 543.585 257.435 542.084 259.512 541.302C262.567 540.087 265.949 539.966 269.084 540.959C270.806 541.469 272.779 542.105 274.1 543.785C274.432 544.214 274.642 544.725 274.706 545.264C274.771 545.803 274.689 546.349 274.468 546.845C273.963 547.812 273.147 548.58 272.152 549.027C271.191 549.502 270.139 549.765 269.067 549.796C268.003 549.847 266.955 549.522 266.108 548.876C265.716 548.542 265.397 548.132 265.17 547.671C264.943 547.209 264.813 546.706 264.787 546.193C264.732 545.233 264.883 544.272 265.23 543.375C266.49 540.328 268.889 537.892 271.918 536.587C273.927 535.692 276.128 535.312 278.322 535.483C279.12 535.544 279.907 535.71 280.662 535.977C280.662 536.035 279.826 535.759 278.305 535.651C276.488 535.552 274.67 535.825 272.962 536.453C271.255 537.082 269.693 538.051 268.373 539.304C267.148 540.478 266.192 541.904 265.573 543.484C265.248 544.328 265.109 545.232 265.163 546.134C265.187 546.591 265.305 547.039 265.509 547.449C265.713 547.858 266 548.222 266.35 548.517C267.114 549.104 268.063 549.4 269.025 549.353C270.03 549.326 271.017 549.081 271.918 548.634C272.827 548.228 273.574 547.531 274.041 546.652C274.23 546.225 274.299 545.755 274.243 545.292C274.188 544.829 274.008 544.389 273.724 544.019C273.14 543.283 272.393 542.693 271.542 542.297C270.716 541.902 269.857 541.58 268.975 541.335C265.923 540.348 262.625 540.433 259.629 541.578C257.598 542.313 255.888 543.735 254.797 545.599C254.435 546.302 254.168 547.05 254.002 547.823Z" fill="#CEAB5E"/>
<path d="M232.333 559.569C232.333 559.485 233.571 559.385 235.452 558.733C237.907 557.868 240.107 556.402 241.851 554.468C243.594 552.535 244.826 550.196 245.433 547.664C245.91 545.725 245.893 544.462 245.977 544.471C246.035 544.759 246.049 545.055 246.019 545.348C245.999 546.15 245.904 546.947 245.734 547.731C245.192 550.344 243.963 552.765 242.173 554.745C240.383 556.724 238.097 558.191 235.552 558.992C234.79 559.24 234.006 559.416 233.211 559.519C232.922 559.578 232.627 559.594 232.333 559.569Z" fill="#CEAB5E"/>
<path d="M221.783 535.316C221.907 535.247 222.039 535.194 222.176 535.157C222.443 535.074 222.828 534.957 223.338 534.823C224.785 534.442 226.283 534.29 227.777 534.372C228.815 534.45 229.832 534.702 230.787 535.116C231.899 535.595 232.867 536.356 233.596 537.323C234.396 538.42 234.784 539.764 234.691 541.118C234.637 541.839 234.417 542.537 234.047 543.158C233.673 543.812 233.081 544.315 232.375 544.579C232.003 544.706 231.603 544.733 231.217 544.657C230.832 544.58 230.472 544.404 230.176 544.144C229.675 543.591 229.403 542.868 229.416 542.121C229.373 540.789 229.636 539.465 230.185 538.251C230.948 536.52 232.267 535.094 233.933 534.199C235.599 533.304 237.517 532.991 239.381 533.31C239.782 533.372 240.176 533.47 240.56 533.602C240.819 533.703 240.952 533.761 240.944 533.778C240.936 533.795 240.384 533.602 239.356 533.477C237.902 533.301 236.428 533.491 235.067 534.029C233.05 534.838 231.436 536.413 230.578 538.409C230.067 539.57 229.824 540.83 229.867 542.096C229.849 542.736 230.077 543.358 230.502 543.835C230.742 544.039 231.031 544.177 231.34 544.236C231.649 544.294 231.969 544.272 232.266 544.17C232.886 543.941 233.406 543.503 233.738 542.932C234.07 542.369 234.271 541.737 234.323 541.085C234.411 539.829 234.059 538.582 233.328 537.557C232.649 536.637 231.741 535.91 230.695 535.45C229.78 535.035 228.802 534.775 227.802 534.681C226.34 534.572 224.87 534.676 223.438 534.99C222.36 535.199 221.8 535.35 221.783 535.316Z" fill="#CEAB5E"/>
<g opacity="0.3">
<path d="M269.819 554.235C266.342 552.27 262.939 550.757 259.303 549.11C255.666 547.463 252.096 545.332 249.714 542.121C245.224 536.069 245.734 527.333 241.145 521.364C241.446 525.376 241.744 529.392 242.039 533.41C242.315 537.089 241.755 540.734 244.121 543.233C246.119 545.34 250.015 546.953 252.773 547.865C258.316 549.696 264.285 552.413 269.819 554.235Z" fill="black"/>
</g>
<path d="M326.4 600.09C326.4 600.09 353.629 607.614 354.724 608.015C356.396 608.592 356.086 614.603 353.537 614.502C352.324 614.46 332.637 615.238 330.129 615.087C327.621 614.937 320.097 611.969 320.097 611.969L326.4 600.09Z" fill="#381E3E"/>
<path d="M337.711 610.481C338.048 609.48 338.45 608.503 338.915 607.555C339.501 606.678 340.143 605.841 340.838 605.047C339.869 605.578 339.065 606.364 338.513 607.321C337.962 608.278 337.684 609.369 337.711 610.473V610.481Z" fill="#263238"/>
<path d="M334.869 609.194C335.002 609.194 335.278 607.931 336.006 606.51C336.733 605.089 337.586 604.094 337.494 604.002C336.699 604.621 336.051 605.408 335.597 606.307C335.144 607.206 334.895 608.195 334.869 609.202V609.194Z" fill="#263238"/>
<path d="M332.252 608.483C332.386 607.509 332.598 606.547 332.887 605.607C333.314 604.72 333.809 603.868 334.367 603.057C333.504 603.639 332.839 604.47 332.461 605.439C332.083 606.409 332.01 607.471 332.252 608.483Z" fill="#263238"/>
<path d="M332.695 604.963C332.935 604.317 333.035 603.628 332.988 602.94C332.979 602.191 332.887 601.445 332.712 600.716C332.607 600.286 332.47 599.864 332.302 599.454C332.223 599.195 332.073 598.963 331.867 598.785C331.73 598.683 331.561 598.633 331.39 598.642C331.219 598.651 331.057 598.72 330.931 598.835C330.72 599.038 330.592 599.312 330.572 599.605C330.551 599.844 330.551 600.084 330.572 600.324C330.574 600.772 330.63 601.218 330.739 601.653C330.92 602.382 331.201 603.083 331.575 603.734C331.874 604.363 332.288 604.93 332.795 605.406C332.862 605.406 332.402 604.729 331.859 603.617C331.542 602.974 331.303 602.295 331.148 601.594C331.06 601.185 331.016 600.767 331.015 600.349C331.015 599.931 331.015 599.412 331.266 599.212C331.315 599.167 331.379 599.142 331.445 599.142C331.512 599.142 331.576 599.167 331.625 599.212C331.761 599.345 331.864 599.508 331.926 599.688C332.086 600.081 332.223 600.483 332.336 600.892C332.527 601.586 332.647 602.297 332.695 603.015C332.745 604.186 332.62 604.955 332.695 604.963Z" fill="#263238"/>
<path d="M332.662 604.688C332.107 604.456 331.505 604.359 330.906 604.403C330.255 604.403 329.607 604.482 328.975 604.637C328.586 604.726 328.209 604.863 327.855 605.047C327.632 605.16 327.451 605.343 327.341 605.568C327.231 605.793 327.197 606.047 327.244 606.293C327.307 606.527 327.43 606.742 327.602 606.913C327.774 607.085 327.988 607.208 328.222 607.271C328.623 607.371 329.042 607.371 329.443 607.271C330.087 607.124 330.692 606.839 331.215 606.435C331.711 606.103 332.139 605.68 332.478 605.189C331.975 605.483 331.492 605.81 331.031 606.167C330.526 606.514 329.958 606.761 329.359 606.895C329.027 606.978 328.68 606.978 328.348 606.895C328.191 606.855 328.047 606.775 327.931 606.662C327.815 606.549 327.731 606.407 327.687 606.251C327.662 606.098 327.687 605.94 327.76 605.803C327.832 605.666 327.948 605.556 328.089 605.49C328.399 605.319 328.731 605.19 329.075 605.106C329.675 604.935 330.292 604.828 330.914 604.788C331.976 604.654 332.645 604.763 332.662 604.688Z" fill="#263238"/>
<path d="M341.891 610.774C342.008 609.942 342.189 609.12 342.434 608.316C342.817 607.569 343.261 606.856 343.764 606.184C342.971 606.616 342.351 607.309 342.01 608.145C341.669 608.982 341.627 609.91 341.891 610.774Z" fill="#263238"/>
<path d="M322.897 612.036C323.227 612.245 323.581 612.413 323.95 612.537C324.939 612.913 325.949 613.225 326.977 613.474C330.391 614.219 333.883 614.55 337.377 614.46C341.456 614.41 345.135 614.226 347.802 614.118L350.953 613.95C351.34 613.944 351.726 613.905 352.107 613.833C351.723 613.773 351.333 613.753 350.945 613.775H347.793L337.377 613.975C333.915 614.064 330.454 613.784 327.052 613.139C324.444 612.613 322.931 611.944 322.897 612.036Z" fill="#263238"/>
<path d="M322.095 612.654C322.095 612.713 322.872 612.278 324.134 611.727C325.738 610.969 327.523 610.679 329.284 610.891C331.016 611.266 332.58 612.193 333.74 613.532C334.223 614.103 334.745 614.64 335.303 615.137C334.945 614.473 334.498 613.86 333.974 613.315C333.437 612.691 332.832 612.13 332.168 611.643C331.338 611.028 330.372 610.621 329.351 610.456C327.503 610.232 325.631 610.585 323.992 611.467C323.3 611.758 322.659 612.159 322.095 612.654Z" fill="#263238"/>
<path d="M297.466 592.574C297.466 592.574 271.7 609.444 270.781 610.13C269.393 611.175 270.982 616.166 273.389 615.305C274.526 614.895 296.145 608.876 298.469 607.973C300.793 607.07 307.055 602.004 307.055 602.004L297.466 592.574Z" fill="#381E3E"/>
<path d="M289.817 605.916C289.506 604.856 288.91 603.901 288.093 603.156C287.276 602.412 286.27 601.906 285.185 601.695C286.091 602.238 286.96 602.841 287.785 603.5C288.512 604.263 289.19 605.07 289.817 605.916Z" fill="#263238"/>
<path d="M292.124 603.826C291.796 602.872 291.261 602.003 290.557 601.28C289.853 600.557 288.998 599.999 288.053 599.646C287.986 599.764 289.114 600.482 290.226 601.586C291.338 602.69 292.007 603.893 292.124 603.826Z" fill="#263238"/>
<path d="M294.448 602.338C294.445 601.286 294.045 600.274 293.328 599.504C292.729 598.654 291.835 598.058 290.82 597.832C291.595 598.438 292.325 599.1 293.002 599.814C293.55 600.616 294.034 601.46 294.448 602.338Z" fill="#263238"/>
<path d="M292.96 599.137C293.027 599.137 292.676 598.409 292.383 597.205C292.207 596.507 292.104 595.793 292.074 595.074C292.045 594.651 292.045 594.226 292.074 593.803C292.071 593.612 292.12 593.424 292.216 593.259C292.252 593.203 292.309 593.162 292.375 593.147C292.44 593.131 292.509 593.141 292.567 593.176C292.86 593.293 293.01 593.795 293.152 594.196C293.275 594.594 293.359 595.002 293.403 595.416C293.468 596.133 293.445 596.854 293.336 597.565C293.161 598.785 292.918 599.529 292.985 599.555C293.329 598.957 293.556 598.298 293.654 597.615C293.814 596.883 293.87 596.131 293.821 595.383C293.787 594.935 293.706 594.492 293.579 594.062C293.51 593.831 293.426 593.605 293.328 593.385C293.216 593.111 293.008 592.888 292.743 592.758C292.588 592.686 292.412 592.67 292.247 592.715C292.082 592.759 291.938 592.86 291.84 593C291.701 593.233 291.629 593.499 291.631 593.769C291.539 594.96 291.675 596.158 292.032 597.297C292.208 597.969 292.524 598.596 292.96 599.137Z" fill="#263238"/>
<path d="M292.868 598.861C292.868 598.927 293.503 598.627 294.54 598.367C295.146 598.222 295.765 598.138 296.388 598.117C296.743 598.092 297.1 598.115 297.449 598.183C297.603 598.205 297.746 598.274 297.858 598.383C297.969 598.491 298.043 598.632 298.068 598.785C298.075 598.952 298.038 599.117 297.96 599.263C297.882 599.41 297.766 599.534 297.625 599.621C297.337 599.802 297.01 599.911 296.672 599.939C296.061 599.999 295.444 599.936 294.858 599.755C294.313 599.551 293.754 599.386 293.186 599.262C293.657 599.639 294.196 599.922 294.774 600.098C295.395 600.335 296.059 600.435 296.722 600.39C297.134 600.369 297.534 600.242 297.884 600.023C298.091 599.896 298.26 599.715 298.373 599.501C298.486 599.286 298.54 599.045 298.528 598.802C298.498 598.553 298.388 598.321 298.215 598.14C298.042 597.958 297.814 597.839 297.566 597.799C297.175 597.729 296.775 597.713 296.379 597.749C295.729 597.792 295.086 597.913 294.465 598.108C293.882 598.233 293.335 598.49 292.868 598.861Z" fill="#263238"/>
<path d="M276.666 614.377C276.666 614.419 277.101 614.118 277.302 613.382C277.502 612.421 277.328 611.419 276.817 610.581C276.569 610.133 276.29 609.703 275.981 609.294C275.729 608.946 275.434 608.631 275.103 608.358C274.865 608.161 274.574 608.042 274.267 608.015C274.05 608.015 273.941 608.057 273.941 608.082C273.941 608.107 274.401 608.124 274.877 608.608C275.158 608.893 275.408 609.207 275.621 609.545C275.921 609.948 276.2 610.367 276.457 610.799C276.919 611.549 277.119 612.431 277.026 613.307C276.928 613.67 276.808 614.028 276.666 614.377Z" fill="#263238"/>
<path d="M285.921 607.463C285.955 607.01 285.892 606.556 285.735 606.13C285.577 605.705 285.33 605.318 285.01 604.997C284.752 604.623 284.416 604.31 284.024 604.08C283.633 603.851 283.196 603.71 282.744 603.667C283.427 604.152 284.068 604.695 284.658 605.289C285.14 605.977 285.562 606.704 285.921 607.463Z" fill="#263238"/>
<path d="M304.405 602.898C304.004 603.121 303.624 603.379 303.268 603.668C302.247 604.377 301.186 605.027 300.091 605.615C298.471 606.475 296.795 607.226 295.075 607.864C293.119 608.592 290.895 609.277 288.621 609.946C283.981 611.284 279.785 612.504 276.758 613.415L273.155 614.544C272.71 614.662 272.277 614.819 271.859 615.012C272.315 614.95 272.765 614.852 273.205 614.719L276.825 613.708C279.877 612.872 284.082 611.702 288.721 610.364C291.037 609.687 293.236 608.985 295.192 608.232C296.933 607.57 298.624 606.782 300.25 605.875C301.342 605.256 302.387 604.557 303.377 603.785C303.743 603.518 304.087 603.222 304.405 602.898Z" fill="#263238"/>
<path d="M305.358 603.241C304.665 602.936 303.929 602.739 303.176 602.656C301.344 602.317 299.453 602.55 297.759 603.325C296.843 603.804 296.057 604.498 295.468 605.348C294.983 606.018 294.576 606.742 294.256 607.505C293.92 608.182 293.681 608.902 293.545 609.645C293.924 608.999 294.259 608.329 294.548 607.639C295.245 606.006 296.454 604.645 297.993 603.76C299.611 603.032 301.401 602.774 303.159 603.016C304.497 603.124 305.341 603.308 305.358 603.241Z" fill="#263238"/>
<path d="M351.012 551.434C351.012 551.434 358.745 554.193 358.77 562.862C358.837 579.457 325.23 597.757 325.23 597.757L280.504 568.129L277.703 566.992C277.703 566.992 338.104 544.32 351.012 551.434Z" fill="#263238"/>
<path d="M303.159 583.094C303.571 582.865 303.963 582.603 304.33 582.308C305.057 581.773 306.102 580.987 307.381 579.992C309.947 578.019 313.425 575.21 317.179 571.991C320.933 568.773 324.226 565.755 326.567 563.523C327.738 562.411 328.674 561.491 329.318 560.848C329.665 560.534 329.984 560.19 330.271 559.819C329.886 560.089 329.525 560.391 329.192 560.722L326.35 563.289C323.95 565.454 320.623 568.438 316.878 571.649C313.133 574.859 309.688 577.701 307.189 579.741L304.221 582.166C303.843 582.446 303.488 582.756 303.159 583.094Z" fill="#455A64"/>
<path d="M338.388 557.637C335.463 557.328 332.535 558.191 330.246 560.037C330.321 560.162 331.918 559.117 334.208 558.465C336.499 557.813 338.388 557.78 338.388 557.637Z" fill="#455A64"/>
<path d="M334.534 555.021C333.5 555.46 332.589 556.147 331.883 557.022C331.177 557.897 330.698 558.933 330.488 560.037C330.622 560.037 331.107 558.691 332.235 557.311C333.364 555.932 334.61 555.138 334.534 555.021Z" fill="#455A64"/>
<path d="M353.47 607.588C353.47 607.538 352.935 607.43 352.316 607.94C351.587 608.619 351.13 609.54 351.029 610.531C350.882 611.506 351.021 612.502 351.43 613.399C351.748 614.076 352.099 614.393 352.14 614.36C352.03 613.988 351.893 613.625 351.731 613.273C351.438 612.414 351.352 611.497 351.48 610.598C351.579 609.702 351.946 608.857 352.533 608.174C353.01 607.68 353.478 607.664 353.47 607.588Z" fill="#263238"/>
<path d="M340.721 524.306L324.795 564.685L256.218 565.805L254.947 562.093L278.982 561.224L290.536 525.401L340.721 524.306Z" fill="#455A64"/>
<path d="M308.694 541.812C309.22 541.548 309.812 541.441 310.398 541.505C310.983 541.568 311.538 541.8 311.996 542.171C312.384 542.537 312.653 543.01 312.768 543.531C312.883 544.051 312.838 544.594 312.639 545.089C312.425 545.583 312.076 546.007 311.633 546.313C311.189 546.618 310.669 546.794 310.131 546.82C309.565 546.856 309.003 546.707 308.529 546.394C308.055 546.082 307.696 545.624 307.506 545.089C307.327 544.491 307.343 543.852 307.55 543.263C307.757 542.674 308.146 542.166 308.66 541.812" fill="#CEAB5E"/>
<path d="M329.46 599.78C329.46 599.78 266.275 558.331 263.7 557.47C261.125 556.609 254.855 552.513 248.61 554.235C242.365 555.957 236.747 561.567 233.947 569.759C232.342 574.441 231.589 582.425 231.23 588.419C230.751 595.587 233.074 602.66 237.709 608.149C239.762 610.71 242.489 612.647 245.584 613.741C246.244 613.95 246.93 614.126 247.632 614.277C259.578 616.868 271.876 611.501 278.564 601.285L280.035 599.045C280.035 599.045 321.376 614.226 322.019 614.017L329.46 599.78Z" fill="#263238"/>
<path d="M251.294 588.369C251.405 588.425 251.52 588.475 251.636 588.519L252.673 588.929L256.678 590.475L271.567 596.085C277.887 598.443 285.461 601.252 293.963 604.345C302.465 607.438 311.879 610.824 321.944 614.226L322.12 614.293L322.212 614.118L327.152 604.687L329.66 599.88L329.752 599.697L329.577 599.588L281.381 568.99L266.902 559.861L262.973 557.403L261.944 556.776C261.71 556.634 261.585 556.576 261.585 556.576L261.919 556.818L262.922 557.479L266.81 559.987L281.256 569.258L329.376 599.972L329.292 599.671C328.498 601.201 327.62 602.832 326.784 604.478L321.852 613.909L322.128 613.8C312.096 610.406 302.649 607.028 294.139 603.96L271.709 595.801L256.736 590.3L252.707 588.829L251.653 588.461L251.294 588.369Z" fill="#455A64"/>
<path d="M257.848 441.191C258.926 438.273 261.309 437.011 264.327 436.284C265.845 435.93 267.426 435.949 268.935 436.338C270.444 436.726 271.838 437.473 272.996 438.516C274.526 439.912 275.646 441.86 277.536 442.696C280.654 444.109 284.642 442.044 287.568 443.774C288.447 444.292 289.119 445.098 289.471 446.056C289.823 447.014 289.832 448.063 289.497 449.027C289.162 449.991 288.503 450.808 287.633 451.341C286.764 451.874 285.736 452.089 284.725 451.95C286.757 452.903 287.133 455.963 285.737 457.719C284.341 459.474 281.758 459.951 279.592 459.341C277.458 458.605 275.565 457.302 274.117 455.57C272.595 453.898 271.257 452.101 269.602 450.554C268.013 448.94 265.905 447.939 263.65 447.729C260.615 447.612 257.798 449.66 256.218 452.243C254.638 454.826 254.027 457.894 253.584 460.904C253.141 463.914 252.807 466.973 251.645 469.782C251.511 470.117 251.31 470.476 250.968 470.551C250.458 470.66 250.09 470.1 249.889 469.623C247.602 464.254 246.392 458.488 246.328 452.653C246.286 449.309 246.671 446.107 248.769 443.457C250.867 440.806 255.708 439.16 257.823 441.149" fill="#263238"/>
<path d="M250.725 454.676L246.077 488.433C245.891 489.797 245.984 491.183 246.35 492.51C246.717 493.836 247.35 495.073 248.21 496.147C249.071 497.221 250.14 498.108 251.355 498.756C252.569 499.403 253.902 499.796 255.273 499.912C257.869 500.137 260.452 499.356 262.487 497.73C264.523 496.104 265.855 493.757 266.208 491.175C266.551 488.667 266.843 486.519 266.902 486.26C266.902 486.26 275.605 486.636 277.394 478.217C278.23 474.146 279.358 465.619 280.269 457.894C280.729 453.897 279.669 449.873 277.3 446.621C274.93 443.368 271.425 441.126 267.479 440.338L266.643 440.179C257.739 438.909 251.72 445.764 250.725 454.676Z" fill="#FFBE9D"/>
<path d="M266.893 486.143C262.98 485.425 259.369 483.559 256.519 480.784C256.519 480.784 257.906 487.372 266.475 488.308L266.893 486.143Z" fill="#EB996E"/>
<path d="M276.633 463.061C276.574 463.375 276.393 463.654 276.131 463.837C275.868 464.02 275.544 464.093 275.228 464.039C275.073 464.021 274.923 463.973 274.786 463.896C274.65 463.819 274.531 463.715 274.435 463.591C274.34 463.467 274.271 463.325 274.232 463.174C274.193 463.022 274.185 462.864 274.208 462.71C274.266 462.393 274.445 462.112 274.708 461.928C274.971 461.743 275.296 461.67 275.613 461.723C275.769 461.742 275.919 461.791 276.056 461.869C276.192 461.947 276.311 462.051 276.406 462.176C276.502 462.301 276.571 462.443 276.61 462.595C276.648 462.747 276.656 462.906 276.633 463.061Z" fill="#263238"/>
<path d="M277.586 461.673C277.402 461.807 276.625 460.946 275.329 460.687C274.033 460.427 272.946 460.896 272.821 460.687C272.695 460.478 272.98 460.352 273.456 460.135C274.091 459.852 274.8 459.779 275.479 459.926C276.154 460.055 276.77 460.398 277.235 460.904C277.594 461.305 277.67 461.623 277.586 461.673Z" fill="#263238"/>
<path d="M263.825 460.954C263.768 461.27 263.589 461.551 263.326 461.736C263.063 461.92 262.738 461.994 262.421 461.94C262.265 461.921 262.115 461.871 261.979 461.793C261.843 461.715 261.723 461.61 261.628 461.486C261.532 461.362 261.462 461.22 261.422 461.068C261.381 460.916 261.372 460.758 261.393 460.603C261.456 460.29 261.636 460.013 261.898 459.829C262.159 459.646 262.481 459.569 262.797 459.616C262.953 459.635 263.104 459.684 263.241 459.762C263.377 459.84 263.497 459.944 263.593 460.069C263.689 460.193 263.759 460.336 263.799 460.488C263.839 460.64 263.848 460.798 263.825 460.954Z" fill="#263238"/>
<path d="M264.787 459.374C264.603 459.499 263.825 458.638 262.53 458.379C261.234 458.12 260.147 458.588 260.022 458.379C259.896 458.17 260.18 458.045 260.657 457.827C261.293 457.549 262 457.476 262.68 457.618C263.355 457.755 263.971 458.097 264.444 458.596C264.795 459.048 264.87 459.315 264.787 459.374Z" fill="#263238"/>
<path d="M267.571 469.916C268.297 469.835 269.03 469.849 269.753 469.958C270.095 469.958 270.421 469.958 270.522 469.765C270.628 469.434 270.628 469.077 270.522 468.746C270.371 467.91 270.212 466.973 270.045 466.02C269.402 462.158 269.009 459.014 269.159 458.989C269.31 458.964 269.995 462.074 270.605 465.937C270.756 466.89 270.906 467.792 271.04 468.662C271.171 469.104 271.138 469.579 270.948 470C270.877 470.105 270.783 470.193 270.673 470.257C270.563 470.321 270.44 470.358 270.313 470.367C270.121 470.394 269.927 470.394 269.736 470.367C268.998 470.308 268.271 470.156 267.571 469.916Z" fill="#263238"/>
<path d="M263.575 470.066C263.792 470.066 263.508 471.504 264.511 472.742C265.514 473.979 267.019 474.129 267.019 474.33C267.019 474.531 266.634 474.531 265.999 474.422C265.171 474.269 264.423 473.832 263.884 473.185C263.373 472.558 263.125 471.758 263.19 470.953C263.257 470.351 263.483 470.033 263.575 470.066Z" fill="#263238"/>
<path d="M266.133 454.35C265.94 454.684 264.678 454.258 263.115 454.132C261.551 454.007 260.247 454.182 260.105 453.823C260.047 453.656 260.331 453.371 260.891 453.129C261.634 452.836 262.436 452.721 263.232 452.795C264.032 452.856 264.806 453.108 265.489 453.53C265.999 453.865 266.208 454.199 266.133 454.35Z" fill="#263238"/>
<path d="M277.853 457.827C277.569 458.078 276.742 457.593 275.663 457.359C274.585 457.125 273.64 457.167 273.498 456.816C273.431 456.649 273.632 456.381 274.091 456.181C274.69 455.945 275.348 455.901 275.972 456.055C276.603 456.188 277.174 456.519 277.603 457C277.912 457.376 277.987 457.702 277.853 457.827Z" fill="#263238"/>
<path d="M250.165 461.063C250.031 460.971 244.706 458.187 243.736 463.997C242.767 469.807 248.802 469.581 248.836 469.414C248.869 469.247 250.165 461.063 250.165 461.063Z" fill="#FFBE9D"/>
<path d="M247.431 466.915C247.431 466.915 247.323 466.973 247.139 467.023C246.881 467.085 246.609 467.046 246.378 466.915C246.04 466.616 245.788 466.232 245.65 465.802C245.511 465.372 245.491 464.913 245.592 464.474C245.659 463.972 245.839 463.491 246.119 463.069C246.198 462.896 246.318 462.744 246.467 462.626C246.617 462.508 246.793 462.428 246.98 462.392C247.102 462.382 247.225 462.414 247.325 462.485C247.426 462.555 247.499 462.658 247.532 462.776C247.582 462.944 247.532 463.061 247.532 463.069C247.532 463.077 247.674 462.994 247.666 462.751C247.657 462.603 247.598 462.461 247.498 462.35C247.431 462.275 247.348 462.215 247.256 462.173C247.164 462.131 247.064 462.109 246.963 462.108C246.718 462.115 246.479 462.185 246.268 462.31C246.057 462.436 245.882 462.614 245.759 462.827C245.427 463.289 245.212 463.826 245.132 464.39C244.974 465.569 245.392 466.764 246.194 467.14C246.343 467.212 246.506 467.249 246.671 467.249C246.836 467.249 246.999 467.212 247.147 467.14C247.398 467.057 247.448 466.931 247.431 466.915Z" fill="#EB996E"/>
<path d="M282.36 456.54C280.395 456.646 278.433 456.284 276.636 455.485C274.838 454.686 273.256 453.472 272.018 451.942C270.346 449.785 269.234 446.968 266.818 445.664C265.986 445.254 265.081 445.014 264.156 444.956C263.23 444.899 262.302 445.026 261.426 445.329C259.682 445.953 258.083 446.926 256.728 448.188C257.497 452.803 255.449 457.384 253.451 461.564C253.278 462.057 252.946 462.478 252.506 462.76C251.72 463.153 250.784 462.534 250.307 461.79C249.639 460.543 249.349 459.128 249.471 457.719C249.489 454.507 250.143 451.33 251.394 448.372C252.665 445.405 254.778 442.877 257.472 441.099C260.927 438.989 265.066 438.303 269.017 439.185C272.946 440.098 276.487 442.225 279.141 445.262C280.434 446.609 281.373 448.254 281.875 450.053" fill="#263238"/>
<path d="M48.3965 592.683C48.4331 592.56 48.4836 592.442 48.547 592.332L49.0151 591.32C49.5916 590.012 50.0586 588.659 50.4113 587.274C51.3309 583.679 51.6485 578.186 50.2859 571.666C49.5527 568.109 48.5865 564.604 47.3933 561.174C46.1644 557.454 44.7432 553.508 43.5811 549.236C42.2691 544.78 41.635 540.153 41.7001 535.509C41.8757 530.651 43.3136 525.803 44.8936 520.979C46.4737 516.155 48.1039 511.423 48.5888 506.675C49.1367 502.106 48.2205 497.481 45.9721 493.466C43.8737 489.604 41.2487 486.31 39.2841 482.891C37.4427 479.724 36.0845 476.301 35.2546 472.733C34.0704 467.561 33.9849 462.199 35.0038 456.992C35.3785 455.088 35.9385 453.226 36.6758 451.432C36.6562 451.56 36.6254 451.686 36.5838 451.808L36.2494 452.87C34.2824 459.29 34.0717 466.12 35.6391 472.65C36.4769 476.177 37.8379 479.558 39.677 482.682C41.6416 486.026 44.2834 489.37 46.4152 493.24C48.6985 497.335 49.6317 502.045 49.082 506.7C48.5888 511.532 46.9418 516.289 45.3702 521.113C43.7985 525.936 42.3689 530.727 42.1934 535.5C42.1206 540.097 42.7377 544.68 44.0242 549.094C45.1695 553.341 46.5824 557.286 47.7862 561.023C48.9693 564.473 49.9217 567.998 50.637 571.574C51.9662 578.145 51.5816 583.696 50.637 587.299C50.2685 588.688 49.7703 590.04 49.1489 591.337C48.9315 591.755 48.756 592.081 48.6306 592.332C48.564 592.456 48.4856 592.573 48.3965 592.683Z" fill="#263238"/>
<path d="M41.9509 486.26C41.9509 486.26 37.9465 473.469 45.1277 465.978C45.1834 465.918 45.2546 465.875 45.3336 465.852C45.4126 465.83 45.4962 465.83 45.575 465.853C45.6539 465.876 45.7249 465.919 45.7803 465.98C45.8356 466.041 45.8731 466.115 45.8885 466.196C46.2731 468.311 46.7496 474.748 41.9509 486.26Z" fill="#CEAB5E"/>
<path d="M44.3502 470.242C44.3368 471.035 44.2444 471.825 44.0744 472.6C43.8152 474.272 43.5059 476.136 43.1631 478.243C42.8204 480.349 42.5278 482.264 42.2686 483.886C42.201 484.678 42.0582 485.462 41.8422 486.227C41.7746 485.432 41.7999 484.632 41.9175 483.844C42.0512 482.381 42.3104 480.374 42.6699 478.167C43.0294 475.96 43.4139 473.987 43.7316 472.541C43.8488 471.754 44.0564 470.982 44.3502 470.242Z" fill="#263238"/>
<path d="M46.6493 516.439C46.6493 516.439 49.0988 503.256 58.9469 500.012C59.0245 499.985 59.1081 499.98 59.1884 499.998C59.2687 500.015 59.3424 500.055 59.4014 500.112C59.4604 500.17 59.5023 500.242 59.5224 500.322C59.5425 500.402 59.5401 500.485 59.5153 500.564C58.88 502.587 56.28 508.506 46.6493 516.439Z" fill="#381E3E"/>
<path d="M56.2633 503.398C55.881 504.093 55.4301 504.749 54.9174 505.354C53.9309 506.675 52.7605 508.213 51.4731 509.919L48.012 514.492C47.5799 515.157 47.0874 515.781 46.5406 516.356C46.8515 515.621 47.2471 514.926 47.7194 514.283C48.5554 513.054 49.684 511.398 51.0634 509.618C52.4428 507.837 53.6885 506.274 54.6331 505.137C55.1076 504.496 55.6547 503.913 56.2633 503.398Z" fill="#263238"/>
<path d="M43.9907 549.503C43.9907 549.503 42.5027 536.177 50.9797 530.192C51.0465 530.144 51.1253 530.115 51.2074 530.109C51.2895 530.103 51.3716 530.12 51.4445 530.159C51.5174 530.197 51.5783 530.254 51.6202 530.325C51.6622 530.396 51.6835 530.477 51.6819 530.56C51.6569 532.7 50.8961 539.112 43.9907 549.503Z" fill="#381E3E"/>
<path d="M49.3998 534.229C49.2408 535.008 48.9998 535.767 48.6808 536.495C48.1123 538.042 47.4519 539.839 46.7078 541.862L44.76 547.229C44.5528 547.993 44.2728 548.735 43.924 549.445C44.0124 548.653 44.1891 547.873 44.4506 547.121C44.8603 545.708 45.4956 543.777 46.2731 541.687C47.0506 539.597 47.8113 537.716 48.3882 536.37C48.6433 535.62 48.9827 534.902 49.3998 534.229Z" fill="#263238"/>
<path d="M51.4061 582.776C51.4061 582.776 50.3945 569.4 59.0806 563.732C59.1485 563.685 59.2281 563.658 59.3104 563.654C59.3927 563.65 59.4745 563.669 59.5466 563.709C59.6187 563.749 59.6782 563.809 59.7185 563.88C59.7587 563.952 59.7781 564.034 59.7745 564.116C59.6658 566.248 58.6793 572.627 51.4061 582.776Z" fill="#381E3E"/>
<path d="M57.3584 567.728C57.1578 568.502 56.8777 569.253 56.5224 569.969C55.8954 571.49 55.1681 573.313 54.3572 575.252L52.2087 580.552C51.9896 581.29 51.7042 582.006 51.356 582.692C51.4683 581.905 51.6732 581.133 51.9662 580.393C52.4177 578.997 53.1283 577.1 53.981 575.035C54.8337 572.97 55.653 571.114 56.28 569.793C56.5625 569.067 56.9242 568.375 57.3584 567.728Z" fill="#263238"/>
<path d="M36.1993 475.024C36.1993 475.024 24.3197 468.821 24.0856 458.446C24.082 458.364 24.1014 458.282 24.1416 458.21C24.1819 458.138 24.2414 458.079 24.3135 458.039C24.3856 457.999 24.4674 457.98 24.5497 457.984C24.632 457.988 24.7116 458.015 24.7795 458.062C26.5435 459.282 31.4341 463.487 36.1993 475.024Z" fill="#381E3E"/>
<path d="M26.5519 462.008C27.1072 462.574 27.603 463.196 28.0316 463.863L31.3756 468.495L34.7196 473.118C35.229 473.725 35.6823 474.377 36.0739 475.066C35.4453 474.562 34.8834 473.981 34.4019 473.335C33.4572 472.215 32.2116 470.61 30.9074 468.796C29.6033 466.982 28.4663 465.301 27.6721 464.064C27.2215 463.424 26.8456 462.734 26.5519 462.008Z" fill="#263238"/>
<path d="M48.9566 502.52C48.9566 502.52 36.7259 497.053 35.8565 486.711C35.8495 486.63 35.8652 486.548 35.9016 486.475C35.9381 486.402 35.994 486.341 36.0631 486.298C36.1323 486.255 36.212 486.231 36.2935 486.23C36.3751 486.23 36.4553 486.251 36.5253 486.293C38.3645 487.372 43.5059 491.276 48.9566 502.52Z" fill="#381E3E"/>
<path d="M38.54 490.097C39.127 490.631 39.6592 491.222 40.1284 491.861L43.7567 496.284L47.3933 500.689C47.936 501.251 48.4232 501.864 48.8479 502.52C48.2104 502.029 47.63 501.468 47.1174 500.848C46.1058 499.778 44.7682 498.257 43.3554 496.526C41.9426 494.795 40.7053 493.182 39.8442 492.003C39.3388 491.419 38.9013 490.78 38.54 490.097Z" fill="#263238"/>
<path d="M41.9175 533.151C41.9175 533.151 33.5157 522.701 37.4616 513.087C37.4916 513.011 37.542 512.945 37.6073 512.896C37.6726 512.847 37.7501 512.817 37.8315 512.809C37.9128 512.801 37.9947 512.816 38.0681 512.852C38.1415 512.888 38.2035 512.943 38.2474 513.012C39.376 514.86 42.1599 520.67 41.9175 533.151Z" fill="#CEAB5E"/>
<path d="M38.2892 517.359C38.5704 518.1 38.7749 518.867 38.8995 519.65C39.2506 521.263 39.6603 523.153 40.1201 525.243C40.5799 527.333 40.9561 529.214 41.349 530.819C41.5726 531.581 41.7265 532.361 41.8088 533.151C41.4376 532.442 41.1567 531.69 40.9728 530.911C40.5548 529.498 40.0616 527.567 39.5934 525.343C39.1252 523.119 38.7574 521.163 38.5233 519.725C38.359 518.947 38.2805 518.154 38.2892 517.359Z" fill="#263238"/>
<path d="M50.2441 569.216C50.2441 569.216 38.097 563.548 37.4115 553.182C37.4062 553.101 37.423 553.021 37.4602 552.949C37.4973 552.877 37.5533 552.817 37.6222 552.775C37.691 552.733 37.7701 552.71 37.8508 552.71C37.9316 552.709 38.0109 552.731 38.0803 552.772C39.9027 553.917 44.9773 557.905 50.2441 569.216Z" fill="#CEAB5E"/>
<path d="M40.0282 556.634C40.6086 557.176 41.1324 557.775 41.5915 558.423C42.6114 559.719 43.8153 561.232 45.1445 562.904L48.7059 567.377C49.2414 567.962 49.7226 568.594 50.1438 569.266C49.5218 568.778 48.9605 568.216 48.4718 567.594C47.4853 566.516 46.1728 564.969 44.7934 563.214C43.414 561.458 42.16 559.836 41.324 558.641C40.8215 558.02 40.3871 557.348 40.0282 556.634Z" fill="#263238"/>
<path d="M74.4295 516.506C74.4412 516.606 74.4412 516.707 74.4295 516.807C74.4295 517.041 74.4295 517.317 74.4295 517.643C74.4295 518.479 74.3459 519.541 74.2874 520.895C74.1286 523.754 73.9112 527.734 73.6521 532.507C72.8161 537.356 70.3081 542.732 66.9641 547.948C64.5313 551.794 61.9481 555.297 59.7828 558.549C57.781 561.388 55.9793 564.363 54.3906 567.452C53.3519 569.548 52.5122 571.737 51.8826 573.99C51.6652 574.784 51.5064 575.411 51.4145 575.837C51.3775 576.057 51.3187 576.273 51.2389 576.481C51.2416 576.259 51.2668 576.038 51.3141 575.821C51.3726 575.386 51.5064 574.75 51.6903 573.94C52.2577 571.635 53.0588 569.394 54.0813 567.252C55.6351 564.125 57.4149 561.116 59.4066 558.248C61.5886 554.971 64.13 551.468 66.5544 547.647C69.8984 542.447 72.3061 537.156 73.2424 532.382C73.5768 527.625 73.8527 523.646 74.0784 520.787C74.1871 519.432 74.2791 518.346 74.3376 517.543C74.3376 517.209 74.4045 516.924 74.4295 516.707C74.4223 516.64 74.4223 516.573 74.4295 516.506Z" fill="#263238"/>
<path d="M67.2399 546.995C67.2399 546.995 72.3813 534.614 65.9107 526.505C65.8605 526.44 65.7933 526.39 65.7164 526.361C65.6396 526.332 65.5562 526.325 65.4755 526.34C65.3949 526.356 65.3202 526.394 65.2597 526.449C65.1993 526.505 65.1555 526.576 65.1332 526.655C64.5229 528.729 63.4612 535.124 67.2399 546.995Z" fill="#CEAB5E"/>
<path d="M66.2618 530.827C66.4835 531.59 66.6209 532.375 66.6715 533.168C66.8554 534.623 67.056 536.637 67.2149 538.869C67.3737 541.102 67.4489 543.125 67.4489 544.588C67.5005 545.382 67.4527 546.18 67.3068 546.962C67.1615 546.185 67.0915 545.395 67.0978 544.604C66.9891 542.932 66.8554 541.035 66.7133 538.903C66.5711 536.771 66.429 534.84 66.3203 533.201C66.2228 532.414 66.2032 531.619 66.2618 530.827Z" fill="#263238"/>
<g opacity="0.3">
<path d="M67.2399 546.995C67.2399 546.995 72.3813 534.614 65.9107 526.505C65.8605 526.44 65.7933 526.39 65.7164 526.361C65.6396 526.332 65.5562 526.325 65.4755 526.34C65.3949 526.356 65.3202 526.394 65.2597 526.449C65.1993 526.505 65.1555 526.576 65.1332 526.655C64.5229 528.729 63.4612 535.124 67.2399 546.995Z" fill="black"/>
</g>
<path d="M51.2724 576.824C51.2724 576.824 55.3939 564.075 48.2879 556.517C48.2328 556.457 48.1622 556.413 48.0838 556.391C48.0054 556.368 47.9223 556.368 47.8436 556.389C47.7649 556.411 47.6937 556.454 47.6379 556.513C47.582 556.573 47.5437 556.646 47.5271 556.726C47.1175 558.833 46.5824 565.262 51.2724 576.824Z" fill="#CEAB5E"/>
<path d="M49.0236 560.781C49.3076 561.525 49.5067 562.299 49.6171 563.088C49.9181 564.518 50.2859 566.508 50.6287 568.723C50.9714 570.938 51.2055 572.945 51.3226 574.408C51.4362 575.197 51.453 575.997 51.3727 576.79C51.1691 576.024 51.0348 575.24 50.9714 574.45C50.729 572.778 50.4448 570.913 50.1354 568.798C49.8261 566.683 49.5252 564.777 49.2994 563.147C49.1299 562.369 49.0375 561.577 49.0236 560.781Z" fill="#263238"/>
<g opacity="0.3">
<path d="M51.2724 576.824C51.2724 576.824 55.3939 564.075 48.2879 556.517C48.2328 556.457 48.1622 556.413 48.0838 556.391C48.0054 556.368 47.9223 556.368 47.8436 556.389C47.7649 556.411 47.6937 556.454 47.6379 556.513C47.582 556.573 47.5437 556.646 47.5271 556.726C47.1175 558.833 46.5824 565.262 51.2724 576.824Z" fill="black"/>
</g>
<path d="M73.744 531.872C73.744 531.872 84.7291 524.181 83.6172 513.865C83.61 513.783 83.5803 513.705 83.5312 513.639C83.4822 513.573 83.4158 513.522 83.3395 513.492C83.2632 513.461 83.18 513.453 83.0991 513.467C83.0182 513.481 82.9429 513.518 82.8815 513.572C81.2931 515.06 76.9793 519.817 73.744 531.872Z" fill="#381E3E"/>
<g opacity="0.3">
<path d="M73.744 531.872C73.744 531.872 84.7291 524.181 83.6172 513.865C83.61 513.783 83.5803 513.705 83.5312 513.639C83.4822 513.573 83.4158 513.522 83.3395 513.492C83.2632 513.461 83.18 513.453 83.0991 513.467C83.0182 513.481 82.9429 513.518 82.8815 513.572C81.2931 515.06 76.9793 519.817 73.744 531.872Z" fill="black"/>
</g>
<path d="M81.6359 517.719C81.4141 518.48 81.1084 519.215 80.7247 519.909C80.0977 521.238 79.1865 523.044 78.1247 525.017C77.063 526.99 76.0431 528.737 75.2489 529.974C74.8692 530.673 74.3999 531.32 73.8528 531.897C74.1543 531.164 74.5209 530.459 74.9479 529.79L77.6817 524.774L80.407 519.758C80.7454 519.038 81.1572 518.354 81.6359 517.719Z" fill="#263238"/>
<path d="M55.6948 564.183C55.6948 564.183 68.912 562.119 72.4901 552.371C72.5196 552.294 72.5272 552.21 72.5119 552.129C72.4966 552.048 72.4591 551.973 72.4035 551.913C72.348 551.852 72.2766 551.808 72.1973 551.785C72.1181 551.763 72.0342 551.763 71.955 551.786C69.8901 552.371 63.896 554.787 55.6948 564.183Z" fill="#CEAB5E"/>
<g opacity="0.3">
<path d="M55.6948 564.183C55.6948 564.183 68.912 562.119 72.4901 552.371C72.5196 552.294 72.5272 552.21 72.5119 552.129C72.4966 552.048 72.4591 551.973 72.4035 551.913C72.348 551.852 72.2766 551.808 72.1973 551.785C72.1181 551.763 72.0342 551.763 71.955 551.786C69.8901 552.371 63.896 554.787 55.6948 564.183Z" fill="black"/>
</g>
<path d="M69.0123 554.954C68.4783 555.536 67.8842 556.06 67.24 556.517C66.0947 557.437 64.4812 558.658 62.6587 559.953C60.8362 561.249 59.1475 562.378 57.9019 563.147C57.247 563.601 56.5396 563.974 55.7952 564.259C56.3864 563.731 57.0244 563.258 57.7012 562.846L62.3745 559.552L67.031 556.208C67.6462 555.723 68.3102 555.302 69.0123 554.954Z" fill="#263238"/>
<path d="M43.0629 588.561L39.2006 614.561H63.2774L60.1507 588.561H43.0629Z" fill="#455A64"/>
<path d="M61.1205 596.612C61.1205 596.754 56.7733 596.863 51.4062 596.863C46.039 596.863 41.7002 596.754 41.7002 596.612C44.9292 596.364 48.1687 596.281 51.4062 596.361C54.6464 596.281 57.8887 596.364 61.1205 596.612Z" fill="#263238"/>
<path d="M61.597 598.66C61.597 598.794 57.1076 598.911 51.565 598.911C46.0223 598.911 41.533 598.794 41.533 598.66C41.533 598.526 46.0223 598.409 51.565 598.409C57.1076 598.409 61.597 598.543 61.597 598.66Z" fill="#263238"/>
</svg>
