 <svg width="360" height="740" viewBox="0 0 360 740" fill="none" xmlns="http://www.w3.org/2000/svg">
<rect width="360" height="740" fill="white"/>
<path d="M521.527 169.076C508.878 138 482.793 114.414 450.786 106.088C440.448 103.371 429.768 102.254 419.104 102.774C382.703 104.636 347.867 126.42 329.791 158.645C319.159 177.594 313.433 200.466 296.749 214.169C275.032 232.004 243.615 227.567 216.206 222.233C188.797 216.9 157.353 212.542 135.713 230.472C122.167 241.704 115.586 259.73 113.765 277.452C108.945 324.284 134.628 371.03 172.327 398.321C230.615 440.499 318.475 441.882 384.327 418.331C477.435 384.993 552.312 286.457 526.099 182.857C524.894 178.16 523.366 173.555 521.527 169.076Z" fill="#EBEBEB"/>
<path d="M61 80C61 118.108 30.1077 149 -8 149C-46.1076 149 -77 118.108 -77 80C-77 41.8924 -46.1076 11 -8 11C30.1077 11 61 41.8924 61 80Z" fill="#D7D2D8" fill-opacity="0.44"/>
<path d="M128 -1C128 37.1077 97.1077 68 59 68C20.8924 68 -10 37.1077 -10 -1C-10 -39.1076 20.8924 -70 59 -70C97.1077 -70 128 -39.1076 128 -1Z" fill="#D7D2D8" fill-opacity="0.44"/>
<path d="M298.92 310.599H101.655V322.823H298.92V310.599Z" fill="#455A64"/>
<path d="M293.468 130.109H112.868V312.191H293.468V130.109Z" fill="#455A64"/>
<path d="M287.844 135.834H117.432V309.303H287.844V135.834Z" fill="#E0E0E0"/>
<path d="M290.194 133.363H205.061V311.8H290.194V133.363Z" fill="#455A64"/>
<path d="M288.049 135.442H207.223V308.912H288.049V135.442Z" fill="#FAFAFA"/>
<path d="M223.154 242.043C223.069 241.956 234.581 230.09 248.871 215.534C263.161 200.979 274.827 189.26 274.913 189.356C274.998 189.452 263.486 201.31 249.187 215.856C234.889 230.403 223.24 242.13 223.154 242.043Z" fill="#263238"/>
<path d="M230.111 224.643C230.026 224.556 241.547 212.69 255.837 198.143C270.127 183.597 281.801 171.869 281.87 171.93C281.938 171.991 270.443 183.91 256.161 198.465C241.88 213.02 230.197 224.73 230.111 224.643Z" fill="#263238"/>
<path d="M290.194 178.751H205.821V181.152H290.194V178.751Z" fill="#455A64"/>
<path d="M290.194 221.842H205.821V224.243H290.194V221.842Z" fill="#455A64"/>
<path d="M290.194 264.942H205.821V267.343H290.194V264.942Z" fill="#455A64"/>
<path d="M234.282 133.363H232.479V308.912H234.282V133.363Z" fill="#455A64"/>
<path d="M262.349 133.363H260.546V308.912H262.349V133.363Z" fill="#455A64"/>
<path d="M118.782 133.363H33.6489V311.8H118.782V133.363Z" fill="#455A64"/>
<path d="M116.628 135.442H35.8026V308.912H116.628V135.442Z" fill="#FAFAFA"/>
<path d="M51.7422 242.043C51.6567 241.956 63.1691 230.09 77.4591 215.534C91.7491 200.979 103.415 189.26 103.501 189.356C103.586 189.452 92.0653 201.31 77.7753 215.856C63.4853 230.403 51.8276 242.13 51.7422 242.043Z" fill="#263238"/>
<path d="M58.7333 224.643C58.6479 224.556 70.1602 212.69 84.4502 198.143C98.7403 183.597 110.406 171.869 110.492 171.956C110.577 172.043 99.065 183.91 84.7665 198.465C70.4679 213.02 58.7846 224.73 58.7333 224.643Z" fill="#263238"/>
<path d="M118.774 178.751H34.401V181.152H118.774V178.751Z" fill="#455A64"/>
<path d="M118.774 221.842H34.401V224.243H118.774V221.842Z" fill="#455A64"/>
<path d="M118.774 264.942H34.401V267.343H118.774V264.942Z" fill="#455A64"/>
<path d="M62.8614 133.363H61.058V308.912H62.8614V133.363Z" fill="#455A64"/>
<path d="M90.9372 133.363H89.1339V308.912H90.9372V133.363Z" fill="#455A64"/>
<path d="M215.889 181.683C213.514 180.282 210.326 181.97 207.83 180.813C206.309 180.117 205.403 178.542 204.172 177.402C203.207 176.524 202.054 175.885 200.806 175.537C199.557 175.188 198.246 175.139 196.976 175.393C194.557 176.002 192.899 176.863 192.036 179.238C190.326 177.629 186.48 179.369 184.805 181.535C183.13 183.701 182.84 186.276 182.874 189.034C182.946 193.79 183.931 198.486 185.771 202.859C185.942 203.25 186.233 203.729 186.626 203.615C186.899 203.555 187.053 203.259 187.164 202.989C187.962 200.646 188.475 198.212 188.694 195.742C188.913 193.265 189.622 190.859 190.779 188.669C192.053 186.563 194.292 184.884 196.719 184.971C198.527 185.136 200.219 185.947 201.497 187.259C202.822 188.495 203.899 189.983 205.121 191.322C206.29 192.726 207.811 193.782 209.522 194.376C210.381 194.654 211.301 194.676 212.172 194.438C213.043 194.201 213.829 193.714 214.437 193.036C215.548 191.601 215.24 189.113 213.582 188.338C214.394 188.456 215.222 188.282 215.922 187.847C216.622 187.411 217.151 186.74 217.418 185.951C217.685 185.161 217.673 184.301 217.385 183.519C217.097 182.737 216.55 182.081 215.838 181.665L215.889 181.683Z" fill="#263238"/>
<path d="M186.386 190.652L182.754 218.188C182.608 219.298 182.685 220.426 182.98 221.505C183.275 222.584 183.782 223.59 184.471 224.463C185.16 225.336 186.017 226.058 186.988 226.584C187.959 227.11 189.025 227.429 190.121 227.523C192.199 227.696 194.262 227.05 195.886 225.72C197.51 224.389 198.57 222.475 198.847 220.372C199.121 218.301 199.352 216.57 199.386 216.361C199.386 216.361 206.36 216.639 207.77 209.775C208.454 206.452 209.317 199.5 210.018 193.202C210.39 189.939 209.54 186.653 207.638 184C205.735 181.348 202.92 179.523 199.753 178.89L199.104 178.76C191.959 177.785 187.156 183.388 186.386 190.652Z" fill="#FFBE9D"/>
<path d="M199.42 216.3C196.283 215.723 193.385 214.209 191.096 211.95C191.096 211.95 192.224 217.318 199.095 218.04L199.42 216.3Z" fill="#EB996E"/>
<path d="M207.317 197.482C207.267 197.739 207.122 197.966 206.912 198.116C206.702 198.267 206.443 198.33 206.189 198.291C206.061 198.28 205.937 198.243 205.824 198.182C205.711 198.121 205.611 198.037 205.531 197.935C205.451 197.833 205.392 197.716 205.359 197.59C205.325 197.464 205.316 197.333 205.334 197.204C205.38 196.947 205.523 196.718 205.732 196.567C205.942 196.416 206.201 196.354 206.454 196.394C206.582 196.405 206.706 196.442 206.82 196.503C206.934 196.564 207.034 196.648 207.114 196.75C207.195 196.852 207.255 196.969 207.29 197.095C207.324 197.221 207.334 197.352 207.317 197.482Z" fill="#263238"/>
<path d="M207.915 196.29C207.77 196.394 207.146 195.698 206.103 195.49C205.061 195.281 204.198 195.664 204.112 195.49C204.027 195.316 204.232 195.22 204.616 195.037C205.127 194.809 205.694 194.749 206.24 194.863C206.782 194.966 207.276 195.244 207.65 195.655C207.924 195.994 207.984 196.29 207.915 196.29Z" fill="#263238"/>
<path d="M197.078 195.42C197.03 195.676 196.887 195.903 196.678 196.054C196.47 196.205 196.212 196.267 195.959 196.229C195.831 196.219 195.707 196.181 195.594 196.12C195.48 196.059 195.381 195.975 195.301 195.873C195.221 195.771 195.162 195.654 195.128 195.528C195.094 195.402 195.086 195.271 195.104 195.142C195.152 194.886 195.295 194.659 195.504 194.508C195.713 194.357 195.97 194.294 196.224 194.333C196.351 194.343 196.475 194.38 196.589 194.441C196.702 194.503 196.801 194.587 196.881 194.689C196.961 194.79 197.02 194.908 197.054 195.034C197.088 195.159 197.096 195.291 197.078 195.42Z" fill="#263238"/>
<path d="M197.659 194.446C197.514 194.55 196.89 193.854 195.847 193.645C194.805 193.436 193.942 193.819 193.856 193.645C193.771 193.471 193.976 193.376 194.36 193.193C194.871 192.965 195.438 192.904 195.984 193.019C196.526 193.122 197.02 193.399 197.394 193.81C197.668 194.141 197.728 194.402 197.659 194.446Z" fill="#263238"/>
<path d="M199.916 203.041C200.497 202.967 201.086 202.967 201.668 203.041C201.933 203.041 202.198 203.041 202.275 202.885C202.368 202.602 202.368 202.297 202.275 202.015C202.146 201.31 202.018 200.57 201.881 199.796C201.489 197.908 201.249 195.991 201.164 194.063C201.696 195.931 202.081 197.84 202.317 199.77C202.446 200.544 202.557 201.284 202.668 201.989C202.776 202.347 202.754 202.732 202.608 203.076C202.551 203.164 202.475 203.238 202.386 203.292C202.298 203.346 202.198 203.379 202.095 203.389C201.939 203.412 201.781 203.412 201.625 203.389C201.043 203.35 200.468 203.233 199.916 203.041Z" fill="#263238"/>
<path d="M196.719 203.163C196.89 203.163 196.668 204.338 197.48 205.347C198.292 206.356 199.514 206.469 199.488 206.634C199.463 206.8 199.181 206.8 198.634 206.713C197.964 206.596 197.357 206.237 196.924 205.703C196.511 205.198 196.309 204.549 196.36 203.894C196.463 203.407 196.642 203.146 196.719 203.163Z" fill="#263238"/>
<path d="M198.728 190.348C198.565 190.618 197.557 190.278 196.309 190.183C195.061 190.087 194.01 190.226 193.899 189.939C193.848 189.8 194.07 189.565 194.523 189.365C195.119 189.122 195.763 189.026 196.403 189.086C197.041 189.139 197.658 189.342 198.206 189.678C198.617 189.948 198.796 190.2 198.728 190.348Z" fill="#263238"/>
<path d="M208.121 193.149C207.89 193.358 207.266 192.958 206.411 192.775C205.557 192.592 204.787 192.619 204.702 192.34C204.651 192.201 204.813 191.983 205.18 191.818C205.658 191.622 206.185 191.586 206.685 191.714C207.189 191.818 207.647 192.083 207.992 192.471C208.172 192.81 208.223 193.054 208.121 193.149Z" fill="#263238"/>
<path d="M185.95 195.864C185.848 195.785 181.575 193.532 180.822 198.274C180.07 203.015 184.891 202.806 184.925 202.676C184.959 202.545 185.95 195.864 185.95 195.864Z" fill="#FFBE9D"/>
<path d="M183.78 200.64C183.78 200.64 183.686 200.684 183.54 200.727C183.334 200.775 183.118 200.744 182.934 200.64C182.665 200.396 182.465 200.084 182.354 199.735C182.243 199.387 182.225 199.014 182.301 198.656C182.355 198.247 182.499 197.855 182.72 197.508C182.788 197.368 182.888 197.247 183.011 197.155C183.135 197.062 183.278 197.002 183.429 196.977C183.526 196.969 183.623 196.995 183.704 197.05C183.785 197.105 183.845 197.187 183.874 197.282C183.874 197.43 183.874 197.517 183.874 197.525C183.874 197.534 183.985 197.465 183.976 197.264C183.973 197.142 183.927 197.025 183.848 196.934C183.731 196.818 183.576 196.75 183.412 196.742C183.216 196.749 183.025 196.806 182.857 196.91C182.689 197.014 182.551 197.16 182.455 197.334C182.188 197.712 182.017 198.151 181.959 198.613C181.867 199.03 181.899 199.465 182.051 199.864C182.204 200.262 182.469 200.605 182.814 200.849C182.932 200.909 183.062 200.94 183.194 200.94C183.326 200.94 183.456 200.909 183.575 200.849C183.754 200.753 183.797 200.64 183.78 200.64Z" fill="#EB996E"/>
<path d="M211.719 192.053C210.144 192.147 208.571 191.858 207.128 191.211C205.685 190.564 204.414 189.576 203.42 188.33C202.052 186.59 201.181 184.284 199.241 183.231C197.906 182.571 196.369 182.478 194.967 182.97C193.568 183.481 192.288 184.281 191.207 185.319C191.839 189.078 190.207 192.81 188.643 196.264C188.508 196.664 188.246 197.007 187.899 197.238C187.267 197.56 186.515 197.064 186.13 196.455C185.599 195.439 185.37 194.287 185.472 193.141C185.474 190.52 185.988 187.927 186.985 185.511C187.994 183.09 189.679 181.024 191.831 179.569C194.583 177.868 197.874 177.314 201.018 178.02C204.168 178.751 207.01 180.478 209.138 182.953C210.181 184.043 210.937 185.383 211.334 186.851" fill="#263238"/>
<path d="M217.505 183.727C217.492 183.867 217.451 184.004 217.385 184.127C217.201 184.504 216.901 184.81 216.53 184.997C215.955 185.272 215.309 185.354 214.684 185.232C214.298 185.18 213.919 185.081 213.556 184.936C213.136 184.771 212.765 184.499 212.479 184.145C212.322 183.945 212.211 183.71 212.156 183.46C212.102 183.21 212.104 182.95 212.163 182.701C212.249 182.431 212.408 182.193 212.624 182.014C212.839 181.835 213.1 181.723 213.377 181.691C213.662 181.643 213.955 181.663 214.231 181.752C214.517 181.848 214.768 182.03 214.949 182.274C215.129 182.521 215.255 182.804 215.32 183.103C215.384 183.403 215.386 183.714 215.325 184.014C215.259 184.336 215.13 184.64 214.946 184.911C214.763 185.181 214.529 185.412 214.257 185.589C213.703 185.967 213.06 186.186 212.394 186.224C211.014 186.257 209.663 185.819 208.556 184.98C207.452 184.173 206.44 183.242 205.539 182.205C204.711 181.258 203.805 180.385 202.83 179.595C201.948 178.88 200.911 178.39 199.805 178.168C198.835 178.007 197.843 178.066 196.899 178.342C195.527 178.754 194.282 179.518 193.283 180.56C192.925 180.926 192.668 181.239 192.497 181.43C192.326 181.622 192.249 181.752 192.241 181.752C192.232 181.752 192.241 181.752 192.292 181.657C192.344 181.569 192.401 181.485 192.463 181.404C192.69 181.078 192.942 180.77 193.215 180.482C194.204 179.396 195.457 178.595 196.847 178.159C197.817 177.865 198.84 177.797 199.839 177.959C200.977 178.176 202.047 178.668 202.958 179.395C203.944 180.187 204.864 181.06 205.71 182.005C206.594 183.033 207.592 183.952 208.685 184.745C209.762 185.554 211.073 185.976 212.411 185.946C213.035 185.905 213.638 185.701 214.163 185.354C214.658 185.022 215.007 184.507 215.137 183.919C215.201 183.642 215.205 183.355 215.149 183.077C215.093 182.8 214.978 182.537 214.813 182.309C214.651 182.101 214.436 181.942 214.192 181.85C213.948 181.758 213.684 181.736 213.428 181.787C213.187 181.815 212.959 181.911 212.77 182.065C212.581 182.219 212.439 182.424 212.36 182.657C212.307 182.881 212.306 183.114 212.355 183.338C212.403 183.563 212.502 183.773 212.642 183.953C212.901 184.29 213.243 184.551 213.633 184.71C213.988 184.853 214.358 184.955 214.736 185.015C215.333 185.14 215.954 185.073 216.513 184.823C216.872 184.66 217.17 184.386 217.368 184.04C217.422 183.94 217.468 183.835 217.505 183.727Z" fill="#455A64"/>
<path d="M183.198 185.441C183.626 185.697 184.075 185.916 184.54 186.094C185.052 186.25 185.59 186.3 186.121 186.241C186.775 186.171 187.415 186.001 188.019 185.737C189.103 185.239 190.001 184.4 190.583 183.344C190.805 182.893 190.999 182.428 191.164 181.952C191.175 182.091 191.158 182.23 191.113 182.361C191.027 182.73 190.898 183.086 190.728 183.423C190.155 184.553 189.216 185.447 188.07 185.954C187.442 186.227 186.776 186.397 186.096 186.459C185.538 186.509 184.975 186.438 184.446 186.25C184.092 186.129 183.76 185.95 183.463 185.719C183.362 185.64 183.273 185.546 183.198 185.441Z" fill="#455A64"/>
<path d="M182.745 188.886C182.745 188.843 183.275 189.078 184.156 189.199C185.304 189.369 186.476 189.222 187.549 188.773C188.622 188.325 189.558 187.592 190.258 186.65C190.796 185.928 191.002 185.398 191.044 185.415C191.02 185.545 190.977 185.671 190.916 185.789C190.764 186.12 190.575 186.433 190.352 186.72C189.667 187.719 188.715 188.498 187.609 188.965C186.496 189.425 185.278 189.555 184.096 189.339C183.743 189.272 183.397 189.173 183.062 189.043C182.865 188.973 182.737 188.904 182.745 188.886Z" fill="#455A64"/>
<path d="M193.335 198.256C193.319 198.255 193.304 198.251 193.29 198.244C193.276 198.237 193.263 198.227 193.253 198.215C193.242 198.203 193.234 198.188 193.229 198.173C193.224 198.158 193.223 198.142 193.224 198.126C193.221 198.11 193.222 198.093 193.227 198.077C193.231 198.061 193.239 198.047 193.25 198.034C193.26 198.022 193.273 198.012 193.288 198.005C193.303 197.998 193.319 197.995 193.335 197.995C193.351 197.995 193.368 197.999 193.383 198.005C193.398 198.012 193.412 198.022 193.423 198.034C193.434 198.046 193.443 198.061 193.448 198.077C193.454 198.092 193.456 198.109 193.455 198.126C193.455 198.159 193.442 198.191 193.42 198.215C193.398 198.24 193.367 198.254 193.335 198.256Z" fill="#EB996E"/>
<path d="M195.412 198.187C195.394 198.186 195.377 198.181 195.361 198.173C195.345 198.165 195.331 198.153 195.32 198.14C195.309 198.126 195.3 198.11 195.296 198.092C195.291 198.075 195.29 198.057 195.292 198.039C195.289 198.003 195.301 197.968 195.323 197.941C195.345 197.913 195.377 197.895 195.412 197.891C195.446 197.897 195.476 197.915 195.498 197.942C195.52 197.97 195.532 198.004 195.532 198.039C195.534 198.057 195.533 198.075 195.528 198.092C195.523 198.11 195.515 198.126 195.503 198.14C195.492 198.153 195.478 198.165 195.462 198.173C195.447 198.181 195.429 198.186 195.412 198.187Z" fill="#EB996E"/>
<path d="M196.754 198.422C196.694 198.422 196.642 198.326 196.651 198.222C196.659 198.117 196.719 198.03 196.779 198.039C196.839 198.047 196.891 198.134 196.882 198.239C196.873 198.343 196.822 198.431 196.754 198.422Z" fill="#EB996E"/>
<path d="M194.07 199.718C194.001 199.718 193.959 199.657 193.967 199.622C193.976 199.587 194.036 199.553 194.095 199.57C194.155 199.587 194.206 199.622 194.198 199.666C194.189 199.709 194.129 199.77 194.07 199.718Z" fill="#EB996E"/>
<path d="M195.976 199.648C195.959 199.646 195.943 199.641 195.929 199.632C195.914 199.623 195.902 199.612 195.892 199.598C195.882 199.584 195.876 199.568 195.872 199.551C195.869 199.534 195.869 199.517 195.873 199.5C195.875 199.467 195.89 199.436 195.914 199.414C195.937 199.391 195.969 199.378 196.002 199.379C196.033 199.387 196.061 199.406 196.08 199.433C196.099 199.46 196.107 199.493 196.104 199.527C196.104 199.543 196.101 199.56 196.094 199.575C196.088 199.591 196.078 199.605 196.066 199.616C196.054 199.627 196.04 199.636 196.024 199.642C196.009 199.647 195.992 199.65 195.976 199.648Z" fill="#EB996E"/>
<path d="M205.676 200.397C205.659 200.396 205.643 200.391 205.628 200.383C205.613 200.376 205.599 200.365 205.588 200.352C205.577 200.339 205.568 200.324 205.563 200.308C205.558 200.292 205.555 200.275 205.557 200.257C205.552 200.239 205.551 200.22 205.554 200.202C205.558 200.183 205.566 200.166 205.577 200.151C205.588 200.136 205.602 200.124 205.619 200.116C205.635 200.107 205.654 200.103 205.672 200.103C205.691 200.103 205.709 200.107 205.725 200.116C205.742 200.124 205.756 200.136 205.767 200.151C205.779 200.166 205.786 200.183 205.79 200.202C205.793 200.22 205.792 200.239 205.788 200.257C205.79 200.291 205.78 200.324 205.759 200.35C205.739 200.375 205.709 200.392 205.676 200.397Z" fill="#EB996E"/>
<path d="M207.052 200.536C206.984 200.536 206.941 200.457 206.95 200.379C206.958 200.301 207.018 200.231 207.078 200.24C207.095 200.243 207.111 200.249 207.126 200.259C207.14 200.269 207.153 200.281 207.162 200.296C207.172 200.311 207.178 200.327 207.182 200.344C207.185 200.362 207.184 200.379 207.181 200.397C207.172 200.484 207.112 200.545 207.052 200.536Z" fill="#EB996E"/>
<path d="M204.471 200.188C204.457 200.189 204.442 200.187 204.428 200.183C204.414 200.178 204.401 200.171 204.39 200.161C204.379 200.151 204.37 200.139 204.363 200.126C204.356 200.113 204.353 200.098 204.351 200.083C204.348 200.059 204.352 200.034 204.363 200.012C204.374 199.989 204.391 199.971 204.412 199.959C204.434 199.947 204.458 199.942 204.482 199.945C204.507 199.947 204.529 199.957 204.548 199.973C204.567 199.989 204.58 200.011 204.586 200.035C204.592 200.059 204.591 200.084 204.583 200.108C204.574 200.131 204.559 200.151 204.539 200.165C204.519 200.18 204.496 200.188 204.471 200.188Z" fill="#EB996E"/>
<path d="M205.206 201.771C205.174 201.774 205.141 201.764 205.116 201.742C205.09 201.721 205.074 201.691 205.069 201.658C205.064 201.643 205.062 201.626 205.063 201.61C205.064 201.594 205.068 201.578 205.075 201.563C205.082 201.549 205.092 201.536 205.105 201.525C205.117 201.514 205.131 201.506 205.146 201.501C205.179 201.496 205.213 201.504 205.24 201.524C205.267 201.543 205.286 201.573 205.292 201.606C205.297 201.622 205.299 201.64 205.298 201.657C205.296 201.675 205.291 201.692 205.283 201.707C205.275 201.722 205.264 201.736 205.251 201.747C205.238 201.758 205.223 201.766 205.206 201.771Z" fill="#EB996E"/>
<path d="M206.411 201.762C206.398 201.757 206.386 201.75 206.376 201.74C206.365 201.73 206.357 201.719 206.352 201.706C206.346 201.693 206.343 201.679 206.343 201.664C206.343 201.65 206.346 201.636 206.351 201.623C206.371 201.605 206.397 201.596 206.424 201.596C206.45 201.596 206.476 201.605 206.496 201.623C206.524 201.635 206.545 201.657 206.556 201.684C206.567 201.712 206.567 201.743 206.556 201.771C206.546 201.78 206.534 201.787 206.522 201.792C206.509 201.796 206.495 201.798 206.482 201.797C206.468 201.796 206.455 201.793 206.443 201.787C206.431 201.781 206.42 201.772 206.411 201.762Z" fill="#EB996E"/>
<path d="M181.677 201.554C181.506 201.878 181.396 202.232 181.352 202.598C181.319 202.986 181.429 203.374 181.66 203.685C181.797 203.872 181.977 204.023 182.184 204.125C182.391 204.226 182.619 204.275 182.848 204.268C183.075 204.25 183.294 204.172 183.482 204.043C183.671 203.913 183.824 203.736 183.925 203.528C184.053 203.163 184.053 202.763 183.925 202.397C183.83 202.038 183.651 201.706 183.404 201.432C183.404 201.432 183.857 201.641 184.079 202.345C184.231 202.754 184.231 203.206 184.079 203.615C183.963 203.862 183.785 204.073 183.563 204.226C183.34 204.379 183.082 204.469 182.814 204.485C182.548 204.494 182.284 204.436 182.045 204.316C181.807 204.197 181.601 204.019 181.446 203.798C181.194 203.441 181.084 202.999 181.139 202.563C181.175 202.277 181.274 202.003 181.429 201.762C181.583 201.614 181.669 201.51 181.677 201.554Z" fill="#263238"/>
<path d="M181.848 200.753C181.848 200.753 182.01 200.849 182.045 201.127C182.064 201.292 182.024 201.459 181.934 201.597C181.876 201.685 181.8 201.758 181.712 201.812C181.623 201.866 181.524 201.9 181.421 201.91C181.316 201.915 181.211 201.894 181.116 201.848C181.02 201.803 180.937 201.735 180.874 201.649C180.821 201.582 180.786 201.502 180.771 201.417C180.756 201.332 180.762 201.244 180.788 201.162C180.882 200.875 181.096 200.84 181.096 200.866C181.096 200.892 180.976 200.988 180.951 201.197C180.939 201.254 180.941 201.312 180.956 201.368C180.971 201.424 180.998 201.475 181.036 201.519C181.082 201.571 181.139 201.612 181.203 201.639C181.266 201.666 181.335 201.678 181.404 201.675C181.541 201.657 181.667 201.586 181.754 201.475C181.829 201.378 181.874 201.26 181.882 201.136C181.891 200.918 181.805 200.779 181.848 200.753Z" fill="#263238"/>
<path d="M201.386 380.469L204.975 398.8L211.924 412.459C212.037 412.691 212.103 412.944 212.117 413.203C212.132 413.461 212.095 413.72 212.009 413.964C211.922 414.208 211.789 414.431 211.616 414.621C211.442 414.811 211.233 414.963 211.001 415.069C210.727 415.189 210.43 415.242 210.133 415.222C209.836 415.202 209.547 415.111 209.291 414.956C205.967 412.92 193.771 405.334 193.6 403.985C193.378 402.41 187.788 382.47 187.788 382.47L201.386 380.469Z" fill="#381E3E"/>
<g opacity="0.6">
<path d="M211.001 415.095L193.326 402.75L193.497 403.524C193.642 404.19 194.015 404.782 194.548 405.194C195.993 406.299 200.018 409.257 209.232 414.991C209.494 415.157 209.794 415.254 210.103 415.272C210.412 415.29 210.721 415.229 211.001 415.095Z" fill="white"/>
</g>
<g opacity="0.6">
<path d="M195.711 396.033C195.969 396.147 196.176 396.354 196.293 396.614C196.41 396.875 196.428 397.17 196.343 397.443C196.238 397.707 196.038 397.92 195.784 398.04C195.53 398.159 195.241 398.176 194.976 398.087C194.704 397.964 194.487 397.743 194.365 397.467C194.244 397.19 194.227 396.878 194.318 396.59C194.453 396.324 194.685 396.122 194.964 396.026C195.243 395.93 195.547 395.949 195.813 396.077" fill="white"/>
</g>
<path d="M205.155 408.057C205.417 407.368 205.856 406.762 206.426 406.303C206.995 405.844 207.675 405.549 208.394 405.447C208.394 405.395 208.138 405.308 207.71 405.342C207.143 405.402 206.606 405.629 206.163 405.995C205.717 406.353 205.384 406.837 205.206 407.387C205.078 407.778 205.112 408.057 205.155 408.057Z" fill="#263238"/>
<path d="M206.967 410.206C207.069 410.267 207.514 409.544 208.385 409.066C208.941 408.82 209.512 408.611 210.095 408.44C209.78 408.328 209.444 408.294 209.114 408.341C208.784 408.387 208.47 408.514 208.197 408.709C207.197 409.257 206.864 410.18 206.967 410.206Z" fill="#263238"/>
<path d="M202.095 405.464C202.737 404.775 203.428 404.135 204.163 403.55C204.986 403.073 205.843 402.66 206.727 402.315C205.747 402.338 204.793 402.647 203.979 403.205C203.166 403.763 202.527 404.547 202.138 405.464H202.095Z" fill="#263238"/>
<path d="M200.548 399.992C200.617 400.088 201.514 399.444 202.796 399.122C204.078 398.8 205.163 398.861 205.172 398.739C204.368 398.443 203.488 398.443 202.685 398.739C201.85 398.889 201.094 399.332 200.548 399.992Z" fill="#263238"/>
<path d="M199.36 394.65C200.085 394.217 200.864 393.886 201.676 393.667C202.51 393.571 203.353 393.594 204.18 393.737C204.18 393.693 203.958 393.502 203.488 393.354C202.873 393.176 202.225 393.146 201.596 393.267C200.967 393.388 200.374 393.656 199.864 394.05C199.488 394.337 199.326 394.65 199.36 394.65Z" fill="#263238"/>
<path d="M201.463 392.64C201.467 392.402 201.424 392.165 201.334 391.944C201.133 391.324 200.813 390.751 200.394 390.256C200.123 389.868 199.732 389.584 199.283 389.447C199.131 389.414 198.972 389.431 198.829 389.495C198.687 389.559 198.567 389.667 198.488 389.804C198.349 390.071 198.313 390.381 198.386 390.674C198.56 391.277 198.935 391.799 199.447 392.15C199.959 392.501 200.575 392.659 201.189 392.597C201.796 392.523 202.367 392.268 202.831 391.864C203.295 391.46 203.631 390.925 203.796 390.326C203.833 390.179 203.84 390.025 203.815 389.875C203.79 389.725 203.734 389.582 203.651 389.456C203.55 389.331 203.413 389.242 203.259 389.203C203.105 389.163 202.942 389.176 202.796 389.239C202.378 389.429 202.018 389.729 201.753 390.109C201.35 390.61 201.04 391.182 200.839 391.796C200.745 392.016 200.698 392.253 200.702 392.492C201.013 391.698 201.44 390.956 201.967 390.291C202.212 389.965 202.532 389.705 202.899 389.534C202.977 389.502 203.064 389.496 203.147 389.516C203.23 389.536 203.304 389.582 203.36 389.647C203.456 389.832 203.478 390.047 203.42 390.248C203.261 390.759 202.962 391.213 202.557 391.557C202.153 391.901 201.66 392.12 201.138 392.188C200.617 392.24 200.095 392.11 199.656 391.819C199.218 391.528 198.891 391.093 198.728 390.587C198.657 390.387 198.657 390.169 198.728 389.969C198.771 389.894 198.836 389.834 198.914 389.798C198.992 389.762 199.08 389.752 199.164 389.769C199.544 389.884 199.881 390.115 200.129 390.43C200.696 391.083 201.148 391.831 201.463 392.64Z" fill="#263238"/>
<g opacity="0.3">
<path d="M188.822 386.176L202.087 384.036L201.582 381.496L188.472 384.897L188.822 386.176Z" fill="black"/>
</g>
<path d="M227.103 374.309L224.009 388.56C224.009 388.56 237.239 396.529 236.923 399.226L209.505 394.154L213.428 371.734L227.103 374.309Z" fill="#381E3E"/>
<g opacity="0.6">
<path d="M215.744 385.811C215.466 385.845 215.21 385.981 215.024 386.195C214.838 386.408 214.736 386.683 214.736 386.968C214.757 387.252 214.886 387.518 215.094 387.709C215.302 387.9 215.575 388.002 215.855 387.994C216.15 387.96 216.421 387.815 216.617 387.589C216.813 387.362 216.919 387.07 216.915 386.768C216.863 386.473 216.7 386.21 216.461 386.034C216.221 385.859 215.925 385.785 215.633 385.828" fill="white"/>
</g>
<g opacity="0.6">
<path d="M209.505 394.189L209.984 391.944L236.094 397.643C236.094 397.643 237.213 398.417 236.948 399.261L209.505 394.189Z" fill="white"/>
</g>
<path d="M224.479 388.56C224.479 388.69 223.769 388.63 223.034 388.951C222.299 389.273 221.838 389.769 221.727 389.691C221.616 389.613 221.958 388.864 222.855 388.499C223.752 388.134 224.539 388.412 224.479 388.56Z" fill="#263238"/>
<path d="M227.103 390.3C227.103 390.439 226.487 390.561 225.932 391.057C225.376 391.553 225.137 392.136 225 392.101C224.863 392.066 224.923 391.283 225.624 390.683C226.325 390.082 227.154 390.143 227.103 390.3Z" fill="#263238"/>
<path d="M228.145 394.076C228.017 394.076 227.957 393.371 228.427 392.684C228.897 391.997 229.59 391.814 229.624 391.944C229.658 392.075 229.205 392.397 228.82 392.962C228.436 393.528 228.282 394.093 228.145 394.076Z" fill="#263238"/>
<path d="M224.821 385.193C224.744 385.315 224.163 385.011 223.402 384.924C222.641 384.837 222 384.967 221.949 384.836C221.898 384.706 222.556 384.323 223.453 384.445C224.351 384.567 224.906 385.08 224.821 385.193Z" fill="#263238"/>
<g opacity="0.3">
<path d="M226.47 377.137L225.923 379.686L212.471 377.067L212.864 374.753L226.47 377.137Z" fill="black"/>
</g>
<path d="M225.393 382.305C224.92 382.343 224.445 382.253 224.017 382.044C223.538 381.862 223.082 381.622 222.658 381.33C222.418 381.146 222.189 380.945 221.975 380.73C221.835 380.614 221.713 380.476 221.616 380.321C221.547 380.208 221.517 380.076 221.53 379.944C221.542 379.812 221.596 379.688 221.684 379.59C221.769 379.507 221.872 379.445 221.985 379.409C222.098 379.373 222.217 379.363 222.334 379.382C222.506 379.414 222.673 379.473 222.829 379.556C223.11 379.682 223.379 379.833 223.633 380.008C224.058 380.304 224.433 380.668 224.744 381.087C225.274 381.809 225.402 382.357 225.351 382.374C225.299 382.392 225.051 381.922 224.496 381.304C224.174 380.948 223.806 380.638 223.402 380.382C223.165 380.231 222.916 380.1 222.658 379.991C222.376 379.851 222.137 379.808 222.034 379.921C221.932 380.034 221.992 379.991 222.034 380.086C222.108 380.198 222.197 380.297 222.299 380.382C222.505 380.58 222.722 380.766 222.949 380.939C223.337 381.234 223.752 381.491 224.188 381.705C224.605 381.872 225.008 382.073 225.393 382.305Z" fill="#263238"/>
<path d="M225.18 382.47C224.992 382.023 224.95 381.525 225.06 381.052C225.127 380.53 225.284 380.023 225.522 379.555C225.662 379.277 225.831 379.014 226.026 378.772C226.131 378.6 226.278 378.458 226.454 378.362C226.629 378.266 226.827 378.218 227.026 378.224C227.148 378.249 227.26 378.309 227.349 378.397C227.439 378.485 227.501 378.597 227.53 378.72C227.566 378.898 227.584 379.079 227.581 379.26C227.571 379.58 227.513 379.896 227.41 380.199C227.238 380.711 226.945 381.171 226.556 381.539C225.889 382.165 225.308 382.218 225.299 382.174C225.291 382.131 225.787 381.922 226.316 381.304C226.624 380.946 226.851 380.525 226.983 380.069C227.063 379.804 227.103 379.528 227.103 379.251C227.103 378.946 227.051 378.694 226.932 378.703C226.812 378.712 226.53 378.851 226.368 379.068C226.192 379.286 226.035 379.519 225.898 379.764C225.66 380.184 225.487 380.639 225.385 381.113C225.205 381.922 225.257 382.47 225.18 382.47Z" fill="#263238"/>
<path d="M193.044 283.473L237.145 292.564C239.227 292.997 241.194 293.877 242.914 295.146C244.635 296.415 246.069 298.043 247.121 299.922C248.173 301.801 248.818 303.887 249.014 306.041C249.21 308.194 248.951 310.365 248.256 312.409L230.974 377.92L208.838 375.814L222.223 314.14L175.216 302.83L193.044 283.473Z" fill="#263238"/>
<path d="M159.208 293.73C157.727 295.934 156.768 298.457 156.406 301.102C156.044 303.746 156.29 306.44 157.123 308.972C157.182 309.15 157.25 309.324 157.328 309.494C157.806 310.478 172.028 320.091 172.028 320.091L184.429 385.95L204.437 380.73L199.557 320.796C198.935 313.151 195.821 305.936 190.711 300.299L184.369 293.304L161.131 290.885L159.208 293.73Z" fill="#263238"/>
<path d="M228.598 301.012C228.194 301.722 227.749 302.408 227.265 303.065C226.198 304.707 225.25 306.425 224.428 308.207C223.457 310.36 222.665 312.592 222.06 314.88L221.889 315.506V314.862C221.845 314.44 221.845 314.014 221.889 313.592C222.002 314.001 222.071 314.421 222.094 314.845H221.889C222.363 312.502 223.106 310.225 224.103 308.059C224.929 306.256 225.922 304.537 227.068 302.926C227.513 302.308 227.923 301.83 228.171 301.508C228.419 301.186 228.581 300.995 228.598 301.012Z" fill="#455A64"/>
<path d="M223.034 302.108C222.925 302.775 222.776 303.434 222.59 304.083C222.228 305.659 221.991 307.262 221.881 308.877C221.787 310.498 221.818 312.124 221.975 313.74C222.074 314.408 222.131 315.083 222.146 315.758C221.916 315.119 221.767 314.452 221.701 313.775C221.478 312.147 221.418 310.5 221.522 308.859C221.641 307.218 221.927 305.594 222.376 304.013C222.513 303.352 222.734 302.711 223.034 302.108Z" fill="#455A64"/>
<path d="M200.882 337.117C200.842 336.972 200.819 336.823 200.813 336.673C200.813 336.334 200.736 335.916 200.685 335.394C200.582 334.237 200.437 332.654 200.266 330.714C199.884 325.565 199.188 320.445 198.181 315.384C197.598 312.616 196.634 309.944 195.318 307.45C194.175 305.445 192.857 303.549 191.378 301.786C190.147 300.255 189.113 299.037 188.42 298.184L187.626 297.193C187.446 296.958 187.352 296.836 187.369 296.827C187.485 296.921 187.591 297.026 187.685 297.14L188.54 298.08C189.267 298.907 190.335 300.09 191.6 301.612C193.119 303.362 194.47 305.255 195.634 307.267C196.988 309.785 197.975 312.49 198.565 315.297C199.583 320.376 200.245 325.522 200.548 330.696C200.711 332.671 200.779 334.281 200.839 335.386C200.839 335.908 200.882 336.334 200.899 336.665C200.913 336.815 200.907 336.968 200.882 337.117Z" fill="#455A64"/>
<path d="M184.429 385.95C184.4 385.887 184.379 385.819 184.369 385.75C184.369 385.602 184.292 385.411 184.233 385.167L183.771 382.914L182.164 374.588C180.831 367.532 179.011 357.832 177.036 347.113C175.062 336.395 173.242 326.677 171.908 319.621C171.25 316.141 170.72 313.288 170.353 311.287C170.165 310.33 170.019 309.547 169.917 309.025C169.814 308.503 169.746 308.242 169.746 308.242C170.083 309.224 170.334 310.234 170.498 311.26C170.917 313.218 171.489 316.054 172.207 319.569C173.583 326.59 175.43 336.299 177.421 347.044C179.412 357.788 181.173 367.48 182.472 374.544C183.096 378.024 183.609 380.878 183.968 382.879L184.352 385.158C184.352 385.393 184.421 385.593 184.446 385.75C184.446 385.817 184.441 385.884 184.429 385.95Z" fill="#455A64"/>
<path d="M203.898 248.299C203.898 249.082 208.779 284.064 212.753 286.483C216.727 288.902 245.905 285.326 245.905 285.326L243.897 272.137L221.522 271.345L218.847 241.982C218.673 240.083 218.059 238.252 217.056 236.64C216.054 235.028 214.69 233.681 213.078 232.708L203.898 248.299Z" fill="#381E3E"/>
<path d="M163.857 218.197C170.081 216.712 176.493 216.216 182.865 216.726C186.609 221.598 194.121 224.487 199.104 221.076L214.146 233.509L199.617 273.294L200.523 285.03L185.01 294.035L161.08 290.894L159.02 237.763L163.857 218.197Z" fill="#381E3E"/>
<path d="M181.31 218.197C181.31 218.031 181.361 217.875 181.395 217.718C181.378 217.518 181.343 217.32 181.293 217.126L181.31 218.197Z" fill="#381E3E"/>
<path d="M209.027 244.14C209.129 244.14 207.839 248.864 206.146 254.58C204.454 260.296 203.001 265.02 202.899 264.95C202.796 264.881 204.087 260.226 205.779 254.467C207.471 248.708 208.924 244.14 209.027 244.14Z" fill="#263238"/>
<path d="M216.069 279.349C215.878 278.857 215.807 278.326 215.864 277.8C215.901 276.51 216.3 275.258 217.015 274.193C217.73 273.127 218.731 272.293 219.898 271.789C220.363 271.553 220.874 271.425 221.394 271.415C221.394 271.484 220.838 271.615 220.009 272.041C218.933 272.587 218.012 273.405 217.334 274.416C216.656 275.427 216.244 276.598 216.137 277.818C216.043 278.749 216.137 279.34 216.069 279.349Z" fill="#263238"/>
<g opacity="0.2">
<path d="M213.539 287.449C215.279 287.078 216.912 286.302 218.309 285.182C219.705 284.062 220.828 282.629 221.59 280.993C221.887 280.143 222.32 279.35 222.872 278.644C223.781 277.863 224.902 277.381 226.086 277.261L241.341 274.129C241.299 273.416 241.256 272.754 241.205 272.041L226.735 271.58L215.838 275.93L213.539 286.77" fill="black"/>
</g>
<g opacity="0.3">
<path d="M159.208 241.695L163.934 238.964L159.644 252.979L159.208 241.695Z" fill="black"/>
</g>
<path d="M250.179 257.877C249.939 256.52 251.264 255.346 252.589 255.058C253.914 254.771 255.29 255.058 256.64 254.928C260.383 254.58 263.323 251.239 267.05 250.708C268.625 250.531 270.217 250.841 271.617 251.598C273.016 252.356 274.159 253.525 274.896 254.954C275.59 256.406 275.877 258.024 275.726 259.631C275.576 261.238 274.993 262.771 274.041 264.063C273.055 265.327 271.776 266.321 270.318 266.954C268.86 267.588 267.269 267.841 265.691 267.691C264.178 267.543 262.623 267.056 261.178 267.508C260.323 267.867 259.505 268.31 258.734 268.831C257.735 269.421 256.57 269.651 255.426 269.483C254.861 269.387 254.332 269.139 253.893 268.764C253.454 268.389 253.122 267.902 252.931 267.352" fill="#263238"/>
<path d="M171.481 257.338C165.789 254.589 160.781 253.397 154.49 253.858C152.258 254.027 150.043 254.379 147.867 254.911C137.397 257.521 125.996 268.074 127.799 282.037C128.987 291.207 136.833 308.668 154.131 309.938C159.044 310.252 163.949 309.219 168.336 306.945C171.47 305.344 174.515 303.567 177.455 301.621C180.419 299.681 183.9 298.721 187.421 298.872C192.625 299.098 200.129 298.054 205.642 295.078C215.898 289.58 217.607 281.768 215.454 273.137C213.744 266.229 211.967 257.477 202.334 253.223C197.078 250.891 189.942 250.682 180.968 256.651C179.543 257.494 177.947 257.995 176.303 258.114C174.658 258.233 173.009 257.968 171.481 257.338Z" fill="#263238"/>
<path d="M168.755 260.783C166.447 260.534 164.206 259.846 162.148 258.756C156.793 255.978 150.654 255.191 144.79 256.529C134.32 259.087 125.337 270.17 127.115 283.882C128.252 292.729 132.081 308.737 148.73 310.469C153.94 310.962 159.182 309.955 163.857 307.563C167.055 305.95 170.162 304.158 173.165 302.195C175.999 300.349 179.324 299.438 182.686 299.585C187.882 299.82 195.959 299.481 201.155 295.835C209.351 290.093 212.129 282.785 209.616 274.651C207.556 267.961 206.428 259.174 197.933 254.702C192.865 252.031 185.686 253.275 176.686 259.156C174.293 260.579 171.502 261.152 168.755 260.783Z" fill="#455A64"/>
<path d="M184.82 281.321C184.905 275.474 180.317 270.665 174.573 270.579C168.829 270.493 164.104 275.164 164.02 281.01C163.936 286.857 168.524 291.667 174.268 291.752C180.012 291.838 184.736 287.168 184.82 281.321Z" fill="#263238"/>
<path d="M163.567 278.775L262.358 255.52C262.984 255.372 263.633 255.352 264.267 255.46C264.901 255.569 265.508 255.805 266.052 256.153C266.596 256.502 267.067 256.957 267.438 257.491C267.809 258.026 268.072 258.63 268.212 259.269C268.493 260.551 268.262 261.893 267.572 263.002C266.881 264.112 265.787 264.896 264.529 265.185L166.028 287.805C163.857 284.917 162.892 281.933 163.567 278.775Z" fill="#455A64"/>
<path d="M171.763 291.19C171.509 291.187 171.258 291.14 171.019 291.05C170.355 290.866 169.715 290.6 169.114 290.259C167.08 289.141 165.502 287.326 164.66 285.136C163.818 282.945 163.767 280.522 164.515 278.296C164.725 277.629 165.012 276.989 165.37 276.391C165.489 276.165 165.641 275.959 165.823 275.782C165.408 276.624 165.054 277.497 164.763 278.392C164.104 280.561 164.188 282.893 165 285.007C165.812 287.122 167.304 288.893 169.233 290.032C170.048 290.48 170.893 290.867 171.763 291.19Z" fill="#263238"/>
<path d="M269.272 263.898C269.272 264.011 246.333 269.379 217.992 275.886C189.651 282.394 166.652 287.64 166.635 287.492C166.618 287.344 189.566 282.02 217.915 275.503C246.264 268.987 269.246 263.793 269.272 263.898Z" fill="#263238"/>
<path d="M224.727 264.046C224.727 264.159 211.274 267.439 194.642 271.38C178.011 275.321 164.498 278.444 164.473 278.34C164.447 278.235 177.917 274.955 194.557 271.006C211.197 267.056 224.701 263.941 224.727 264.046Z" fill="#263238"/>
<path d="M184.463 283.081C183.895 281.672 183.443 280.217 183.113 278.731C182.664 277.275 182.338 275.781 182.139 274.268C182.71 275.676 183.162 277.131 183.489 278.618C183.943 280.074 184.269 281.567 184.463 283.081Z" fill="#263238"/>
<path d="M177.532 284.786C176.966 283.376 176.515 281.922 176.182 280.436C175.733 278.98 175.407 277.487 175.207 275.973C176.229 278.838 177.007 281.786 177.532 284.786Z" fill="#263238"/>
<path d="M170.515 286.483C169.489 283.614 168.711 280.659 168.19 277.652C169.213 280.522 169.991 283.477 170.515 286.483Z" fill="#263238"/>
<path d="M191.343 281.663C190.772 280.255 190.32 278.8 189.993 277.313C189.545 275.856 189.219 274.363 189.019 272.85C189.592 274.257 190.044 275.713 190.369 277.2C190.818 278.657 191.144 280.15 191.343 281.663Z" fill="#263238"/>
<path d="M198.223 280.245C197.201 277.375 196.423 274.421 195.899 271.415C196.925 274.284 197.703 277.238 198.223 280.245Z" fill="#263238"/>
<path d="M205.069 278.514C204.493 277.107 204.041 275.652 203.719 274.164C203.264 272.705 202.936 271.209 202.736 269.692C203.307 271.1 203.758 272.556 204.087 274.042C204.536 275.502 204.865 276.998 205.069 278.514Z" fill="#263238"/>
<path d="M211.915 276.826C211.337 275.42 210.885 273.964 210.565 272.476C210.111 271.02 209.782 269.527 209.582 268.013C210.154 269.421 210.606 270.876 210.932 272.363C211.382 273.82 211.71 275.313 211.915 276.826Z" fill="#263238"/>
<path d="M218.761 275.173C218.191 273.765 217.739 272.309 217.411 270.823C216.962 269.366 216.636 267.873 216.436 266.36C217.004 267.769 217.455 269.224 217.787 270.71C218.236 272.167 218.562 273.66 218.761 275.173Z" fill="#263238"/>
<path d="M226.146 273.442C225.575 272.033 225.123 270.578 224.795 269.092C224.346 267.634 224.017 266.142 223.812 264.629C224.389 266.035 224.84 267.491 225.163 268.979C225.617 270.434 225.946 271.928 226.146 273.442Z" fill="#263238"/>
<path d="M233.53 271.71C232.955 270.304 232.503 268.848 232.179 267.36C231.725 265.904 231.397 264.411 231.197 262.897C231.768 264.305 232.22 265.761 232.547 267.247C232.996 268.704 233.325 270.197 233.53 271.71Z" fill="#263238"/>
<path d="M240.906 269.979C240.34 268.569 239.888 267.114 239.555 265.629C239.106 264.172 238.78 262.679 238.581 261.166C239.153 262.574 239.604 264.029 239.931 265.516C240.38 266.973 240.706 268.466 240.906 269.979Z" fill="#263238"/>
<path d="M248.29 268.248C247.72 266.839 247.268 265.384 246.94 263.898C246.49 262.441 246.165 260.948 245.965 259.435C246.537 260.843 246.989 262.298 247.316 263.785C247.765 265.241 248.091 266.734 248.29 268.248Z" fill="#263238"/>
<path d="M255.674 266.516C255.104 265.108 254.652 263.653 254.324 262.166C253.875 260.71 253.549 259.217 253.349 257.703C253.921 259.111 254.373 260.567 254.7 262.053C255.15 263.51 255.476 265.003 255.674 266.516Z" fill="#263238"/>
<path d="M263.058 264.785C262.488 263.377 262.036 261.921 261.708 260.435C261.254 258.98 260.928 257.486 260.734 255.972C261.301 257.382 261.753 258.837 262.084 260.322C262.534 261.779 262.86 263.272 263.058 264.785Z" fill="#263238"/>
<path d="M256.238 252.944C256.265 253.144 256.234 253.348 256.147 253.529C256.06 253.71 255.923 253.861 255.752 253.963C255.581 254.065 255.384 254.112 255.186 254.1C254.988 254.087 254.798 254.015 254.641 253.893C254.484 253.771 254.365 253.603 254.301 253.412C254.237 253.222 254.231 253.016 254.282 252.821C254.333 252.626 254.44 252.451 254.589 252.318C254.738 252.185 254.922 252.1 255.119 252.074C255.38 252.04 255.645 252.112 255.855 252.275C256.064 252.438 256.202 252.678 256.238 252.944Z" fill="#263238"/>
<path d="M259.375 251.831C259.402 252.031 259.37 252.234 259.284 252.415C259.197 252.597 259.059 252.748 258.888 252.849C258.717 252.951 258.52 252.999 258.322 252.986C258.125 252.974 257.935 252.902 257.778 252.779C257.62 252.657 257.502 252.49 257.438 252.299C257.374 252.108 257.367 251.902 257.418 251.707C257.47 251.512 257.576 251.337 257.725 251.205C257.874 251.072 258.059 250.987 258.255 250.961C258.517 250.926 258.781 250.998 258.991 251.161C259.201 251.324 259.339 251.565 259.375 251.831Z" fill="#263238"/>
<path d="M262.819 250.622C262.846 250.821 262.815 251.025 262.728 251.206C262.641 251.387 262.504 251.539 262.333 251.64C262.161 251.742 261.964 251.789 261.767 251.777C261.569 251.764 261.379 251.692 261.222 251.57C261.064 251.448 260.946 251.28 260.882 251.09C260.818 250.899 260.811 250.693 260.863 250.498C260.914 250.303 261.021 250.128 261.17 249.995C261.319 249.862 261.503 249.778 261.7 249.752C261.961 249.717 262.226 249.789 262.435 249.952C262.645 250.115 262.783 250.356 262.819 250.622Z" fill="#263238"/>
<path d="M256.161 255.868C256.059 255.868 255.777 255.302 255.52 254.528C255.264 253.754 255.144 253.101 255.247 253.066C255.349 253.031 255.631 253.632 255.888 254.406C256.144 255.18 256.264 255.833 256.161 255.868Z" fill="#263238"/>
<path d="M259.443 255.119C259.341 255.119 259.05 254.563 258.802 253.788C258.554 253.014 258.418 252.362 258.52 252.327C258.623 252.292 258.913 252.892 259.17 253.658C259.426 254.423 259.58 255.085 259.443 255.119Z" fill="#263238"/>
<path d="M262.836 253.788C262.734 253.788 262.452 253.223 262.195 252.449C261.939 251.674 261.819 251.022 261.922 250.987C262.024 250.952 262.306 251.552 262.563 252.327C262.819 253.101 262.939 253.754 262.836 253.788Z" fill="#263238"/>
<path d="M265.46 269.37C265.491 269.114 265.616 268.88 265.81 268.713C266.003 268.547 266.251 268.461 266.504 268.472C266.757 268.482 266.996 268.59 267.175 268.772C267.354 268.955 267.459 269.199 267.469 269.457C267.437 269.713 267.312 269.947 267.119 270.114C266.926 270.28 266.678 270.366 266.425 270.355C266.172 270.344 265.932 270.237 265.754 270.054C265.575 269.872 265.47 269.628 265.46 269.37Z" fill="#263238"/>
<path d="M262.187 269.953C262.217 269.697 262.341 269.463 262.534 269.296C262.727 269.129 262.974 269.042 263.226 269.052C263.479 269.062 263.719 269.168 263.898 269.349C264.078 269.531 264.184 269.774 264.195 270.031C264.202 270.173 264.179 270.315 264.129 270.447C264.078 270.58 264.002 270.7 263.903 270.801C263.805 270.902 263.687 270.981 263.557 271.033C263.428 271.085 263.289 271.109 263.149 271.104C263.01 271.098 262.873 271.063 262.747 271.001C262.622 270.939 262.51 270.851 262.42 270.743C262.329 270.635 262.262 270.509 262.222 270.373C262.182 270.237 262.17 270.094 262.187 269.953Z" fill="#263238"/>
<path d="M258.597 270.571C258.606 270.371 258.672 270.178 258.787 270.016C258.903 269.854 259.063 269.73 259.247 269.66C259.431 269.59 259.632 269.577 259.823 269.623C260.015 269.668 260.189 269.77 260.324 269.916C260.459 270.062 260.548 270.245 260.582 270.442C260.615 270.639 260.59 270.842 260.511 271.025C260.432 271.208 260.301 271.364 260.135 271.471C259.97 271.579 259.777 271.635 259.58 271.632C259.446 271.63 259.315 271.6 259.192 271.545C259.07 271.491 258.96 271.411 258.868 271.312C258.777 271.213 258.706 271.097 258.659 270.969C258.612 270.842 258.591 270.706 258.597 270.571Z" fill="#263238"/>
<path d="M266.007 266.508C266.11 266.508 266.298 267.125 266.426 267.934C266.554 268.744 266.571 269.405 266.426 269.422C266.281 269.44 266.135 268.796 266.007 267.995C265.886 267.507 265.886 266.996 266.007 266.508Z" fill="#263238"/>
<path d="M262.657 266.69C262.759 266.69 262.947 267.317 263.076 268.117C263.204 268.918 263.212 269.588 263.076 269.605C262.939 269.622 262.785 268.987 262.657 268.178C262.529 267.369 262.546 266.708 262.657 266.69Z" fill="#263238"/>
<path d="M259.084 267.447C259.195 267.447 259.383 268.065 259.503 268.874C259.623 269.683 259.648 270.344 259.503 270.353C259.358 270.362 259.204 269.735 259.084 268.935C258.965 268.135 258.982 267.465 259.084 267.447Z" fill="#263238"/>
<path d="M172.797 260.67C172.797 260.67 172.686 260.835 172.464 261.14L171.489 262.41C170.635 263.576 169.37 265.211 167.849 267.221C166.121 269.663 164.157 271.921 161.986 273.964C159.205 276.352 155.986 278.153 152.516 279.262C148.849 280.515 145.157 280.854 141.892 281.428C140.341 281.683 138.81 282.053 137.311 282.533C136.011 282.96 134.766 283.544 133.602 284.273C131.902 285.318 130.491 286.785 129.5 288.536C129.244 289.021 129.029 289.528 128.859 290.05C128.756 290.407 128.688 290.589 128.688 290.589C128.688 290.589 128.688 290.398 128.816 290.033C128.972 289.503 129.172 288.988 129.414 288.493C130.393 286.709 131.806 285.211 133.517 284.143C134.684 283.39 135.938 282.788 137.252 282.35C138.756 281.853 140.296 281.474 141.858 281.219C145.14 280.628 148.807 280.289 152.448 279.036C155.889 277.943 159.084 276.169 161.849 273.816C164.022 271.792 165.991 269.554 167.729 267.134L171.421 262.367C171.848 261.836 172.182 261.41 172.438 261.079C172.695 260.748 172.797 260.67 172.797 260.67Z" fill="#CEAB5E"/>
<path d="M164.618 259.913C164.618 259.913 164.481 259.991 164.216 260.113C163.83 260.292 163.453 260.493 163.088 260.713C161.753 261.549 160.546 262.581 159.507 263.776C158.148 265.255 156.806 267.256 155.234 269.361C154.394 270.479 153.471 271.529 152.473 272.502C151.378 273.528 150.157 274.405 148.841 275.112C146.286 276.452 143.516 277.312 140.662 277.652C138.342 277.929 136.003 278.008 133.67 277.887C131.679 277.792 130.072 277.644 128.97 277.539L127.696 277.409C127.406 277.409 127.252 277.339 127.252 277.339H127.696L128.978 277.426C130.081 277.504 131.688 277.635 133.679 277.705C136.002 277.801 138.329 277.705 140.636 277.417C143.46 277.07 146.201 276.213 148.73 274.886C150.032 274.178 151.239 273.301 152.319 272.276C153.313 271.316 154.231 270.278 155.063 269.17C156.678 267.064 158.037 265.081 159.422 263.611C160.464 262.453 161.671 261.462 163.003 260.67C163.514 260.362 164.055 260.108 164.618 259.913Z" fill="#CEAB5E"/>
<path d="M144.328 264.75C143.834 265.168 143.277 265.503 142.679 265.742C141.055 266.428 139.258 266.569 137.551 266.142C136.965 266.038 136.415 265.783 135.952 265.403C135.822 265.289 135.73 265.135 135.692 264.965C135.654 264.794 135.67 264.615 135.739 264.455C135.909 264.162 136.15 263.919 136.44 263.75C138.839 262 141.747 261.12 144.696 261.253C145.513 261.287 146.322 261.424 147.106 261.662C147.924 261.909 148.664 262.371 149.251 263.002C149.842 263.649 150.169 264.501 150.166 265.385C150.149 265.813 150.04 266.232 149.846 266.613C149.653 266.993 149.38 267.326 149.046 267.587C147.766 268.482 146.306 269.077 144.773 269.327C142.255 269.94 139.669 270.215 137.081 270.144C135.341 270.083 133.617 269.791 131.953 269.274C131.34 269.087 130.743 268.851 130.166 268.57L130.628 268.726C130.936 268.848 131.389 269.005 131.978 269.187C133.649 269.664 135.372 269.927 137.106 269.97C139.682 270.013 142.253 269.72 144.756 269.1C146.246 268.863 147.667 268.296 148.918 267.439C149.225 267.198 149.477 266.892 149.656 266.542C149.835 266.192 149.936 265.806 149.952 265.412C149.952 264.586 149.647 263.791 149.097 263.184C148.534 262.586 147.827 262.149 147.046 261.914C146.286 261.678 145.499 261.543 144.704 261.514C143.193 261.439 141.68 261.633 140.234 262.088C138.926 262.5 137.691 263.123 136.576 263.933C136.311 264.085 136.086 264.3 135.918 264.559C135.866 264.687 135.856 264.828 135.888 264.963C135.92 265.097 135.994 265.218 136.098 265.307C136.541 265.659 137.059 265.901 137.611 266.012C139.295 266.45 141.072 266.334 142.687 265.681C143.126 265.503 143.549 265.287 143.952 265.037C144.072 264.935 144.198 264.839 144.328 264.75Z" fill="#CEAB5E"/>
<path d="M210.394 282.316H209.539C208.724 282.344 207.912 282.44 207.112 282.603C205.846 282.853 204.606 283.229 203.411 283.725C201.829 284.384 200.3 285.169 198.839 286.074C197.206 287.057 195.497 288.266 193.634 289.554C191.678 290.946 189.634 292.204 187.515 293.321C185.146 294.535 182.585 295.313 179.951 295.618C177.124 295.908 174.273 295.837 171.464 295.409C165.686 294.591 160.353 292.912 155.405 292.129C153.062 291.72 150.687 291.534 148.311 291.572C146.239 291.617 144.182 291.936 142.192 292.521C139.293 293.338 136.646 294.892 134.5 297.036C133.937 297.637 133.423 298.283 132.961 298.967C132.653 299.446 132.483 299.69 132.483 299.69C132.483 299.69 132.628 299.428 132.918 298.941C133.365 298.242 133.871 297.584 134.431 296.975C136.563 294.791 139.212 293.203 142.123 292.364C144.123 291.76 146.192 291.426 148.277 291.372C150.667 291.33 153.056 291.513 155.413 291.92C160.405 292.686 165.721 294.365 171.472 295.174C174.259 295.603 177.087 295.673 179.891 295.383C182.504 295.088 185.045 294.322 187.395 293.121C189.509 292.013 191.55 290.766 193.506 289.389C195.36 288.127 197.087 286.918 198.736 285.909C200.206 285.003 201.747 284.223 203.343 283.577C204.547 283.088 205.795 282.72 207.069 282.481C207.876 282.332 208.694 282.251 209.514 282.237L210.394 282.316Z" fill="#CEAB5E"/>
<path d="M143.286 305.832C143.413 305.818 143.542 305.818 143.67 305.832L144.781 305.901L148.849 306.206L151.661 306.423C152.728 306.552 153.801 306.604 154.875 306.58C155.444 306.551 156.002 306.406 156.516 306.154C156.775 306.023 157.005 305.838 157.19 305.612C157.375 305.386 157.513 305.123 157.593 304.84C157.698 304.218 157.606 303.578 157.331 303.012C157.056 302.446 156.612 301.983 156.063 301.691C154.933 301.112 153.701 300.772 152.439 300.69C151.259 300.557 150.07 300.513 148.884 300.56C146.873 300.644 144.882 300.995 142.961 301.603C141.661 302.006 140.399 302.527 139.192 303.161C138.756 303.37 138.44 303.561 138.217 303.692C138.107 303.762 137.99 303.82 137.867 303.866C137.971 303.787 138.08 303.715 138.192 303.648C138.405 303.509 138.722 303.3 139.149 303.074C140.349 302.409 141.608 301.861 142.909 301.438C144.847 300.803 146.859 300.434 148.892 300.342C150.09 300.284 151.29 300.325 152.482 300.464C153.777 300.545 155.042 300.894 156.2 301.49C156.794 301.806 157.274 302.308 157.566 302.922C157.859 303.536 157.949 304.23 157.823 304.901C157.736 305.214 157.585 305.505 157.381 305.755C157.176 306.006 156.922 306.209 156.635 306.354C156.101 306.616 155.519 306.764 154.926 306.789C153.841 306.811 152.756 306.756 151.678 306.623L148.875 306.371L144.807 305.988L143.704 305.875L143.286 305.832Z" fill="#CEAB5E"/>
<path d="M207.445 288.823C207.399 288.896 207.344 288.963 207.283 289.023L206.796 289.58C206.582 289.824 206.317 290.111 205.984 290.45C205.651 290.789 205.3 291.146 204.856 291.52C203.854 292.419 202.792 293.245 201.676 293.991C200.314 294.905 198.885 295.714 197.403 296.41C195.908 297.091 194.365 297.658 192.788 298.106C191.5 298.463 190.189 298.731 188.865 298.907C188.301 299.002 187.788 299.028 187.335 299.063C186.882 299.098 186.48 299.124 186.181 299.133H185.446C185.361 299.146 185.275 299.146 185.19 299.133H185.446L186.173 299.081C186.489 299.081 186.882 299.037 187.326 298.976C187.771 298.915 188.284 298.889 188.848 298.785C190.16 298.574 191.459 298.284 192.737 297.915C194.296 297.453 195.823 296.886 197.309 296.218C198.785 295.523 200.213 294.727 201.582 293.834C202.697 293.094 203.764 292.284 204.779 291.407C205.223 291.05 205.582 290.685 205.924 290.372C206.266 290.059 206.531 289.789 206.779 289.563L207.3 289.041C207.445 288.875 207.445 288.814 207.445 288.823Z" fill="#CEAB5E"/>
<path d="M205.796 263.863C205.796 263.863 205.702 263.985 205.505 264.193C205.219 264.506 204.911 264.797 204.582 265.063C203.37 266.036 201.998 266.784 200.531 267.273C198.358 267.987 196.088 268.351 193.805 268.352C191.021 268.302 188.242 268.095 185.48 267.734C182.731 267.373 179.952 267.312 177.19 267.552C174.937 267.796 172.752 268.481 170.755 269.57C169.413 270.313 168.228 271.319 167.267 272.528C166.601 273.398 166.353 273.955 166.319 273.937L166.524 273.537C166.724 273.165 166.95 272.807 167.199 272.467C168.145 271.226 169.329 270.193 170.678 269.431C172.683 268.304 174.888 267.592 177.165 267.334C179.943 267.079 182.74 267.135 185.506 267.499C188.259 267.861 191.029 268.073 193.805 268.135C196.068 268.142 198.319 267.799 200.48 267.117C201.936 266.648 203.303 265.93 204.522 264.994C205.386 264.307 205.779 263.837 205.796 263.863Z" fill="#CEAB5E"/>
<path d="M191.292 258.121C191.327 258.231 191.37 258.339 191.42 258.443C191.51 258.577 191.626 258.691 191.761 258.777C191.897 258.862 192.049 258.917 192.207 258.939C192.451 258.995 192.707 258.973 192.938 258.875C193.169 258.776 193.365 258.607 193.497 258.391C193.652 258.09 193.727 257.754 193.715 257.416C193.703 257.077 193.604 256.747 193.429 256.459C192.967 255.769 192.289 255.257 191.506 255.006C190.634 254.631 189.69 254.461 188.745 254.51C188.246 254.555 187.768 254.736 187.361 255.032C186.943 255.354 186.619 255.783 186.421 256.277C186.214 256.797 186.133 257.361 186.187 257.92C186.241 258.479 186.426 259.017 186.728 259.487C187.336 260.435 188.239 261.149 189.292 261.514C190.288 261.839 191.336 261.963 192.378 261.879C194.163 261.765 195.907 261.286 197.506 260.47C198.585 259.923 199.591 259.236 200.497 258.425C200.813 258.138 201.052 257.903 201.215 257.747C201.29 257.658 201.373 257.577 201.463 257.503C201.403 257.602 201.332 257.693 201.249 257.773C201.095 257.956 200.864 258.191 200.557 258.495C199.666 259.339 198.665 260.053 197.583 260.618C195.972 261.463 194.21 261.966 192.403 262.097C191.33 262.188 190.25 262.064 189.224 261.731C188.107 261.364 187.148 260.618 186.506 259.617C186.183 259.115 185.986 258.541 185.931 257.943C185.876 257.346 185.965 256.744 186.19 256.19C186.403 255.657 186.754 255.194 187.207 254.85C187.648 254.532 188.164 254.34 188.703 254.293C189.679 254.247 190.652 254.428 191.549 254.824C192.37 255.092 193.075 255.638 193.548 256.372C193.729 256.689 193.825 257.05 193.825 257.416C193.825 257.783 193.729 258.143 193.548 258.46C193.401 258.693 193.186 258.874 192.934 258.977C192.681 259.08 192.403 259.1 192.138 259.034C191.963 259.01 191.795 258.946 191.647 258.847C191.499 258.747 191.375 258.615 191.284 258.46C191.257 258.348 191.26 258.231 191.292 258.121Z" fill="#CEAB5E"/>
<path d="M164.917 286.613H164.541L163.464 286.526C162.994 286.526 162.421 286.439 161.755 286.422C161.088 286.405 160.336 286.344 159.499 286.352C157.789 286.352 155.832 286.396 153.627 286.579C148.84 287.011 144.124 288.043 139.585 289.65C137.491 290.407 135.645 291.172 134.132 291.903C133.363 292.242 132.696 292.608 132.098 292.912C131.5 293.217 131.004 293.486 130.594 293.721L129.645 294.243C129.538 294.313 129.423 294.368 129.303 294.409C129.303 294.409 129.406 294.33 129.619 294.2L130.551 293.643C130.953 293.391 131.448 293.104 132.038 292.773C132.628 292.442 133.294 292.086 134.064 291.729C135.838 290.868 137.655 290.101 139.508 289.432C141.785 288.619 144.108 287.948 146.465 287.423C148.823 286.919 151.209 286.558 153.61 286.344C155.568 286.18 157.534 286.122 159.499 286.17C160.353 286.17 161.097 286.239 161.763 286.274C162.43 286.309 163.003 286.361 163.473 286.422L164.541 286.544L164.917 286.613Z" fill="#CEAB5E"/>
<path d="M198.309 281.646C198.147 281.747 197.975 281.832 197.796 281.898C197.463 282.055 196.941 282.255 196.369 282.49C194.775 283.094 193.149 283.606 191.497 284.021C189.847 284.432 188.175 284.746 186.489 284.96C185.839 285.039 185.309 285.091 184.95 285.108C184.76 285.124 184.568 285.124 184.378 285.108C184.562 285.054 184.751 285.019 184.942 285.004L186.463 284.778C187.745 284.578 189.514 284.256 191.446 283.777C193.378 283.299 195.078 282.742 196.309 282.316L197.762 281.802C197.937 281.726 198.121 281.673 198.309 281.646Z" fill="#CEAB5E"/>
<path d="M172.814 232.16C171.957 230.845 171.224 229.449 170.626 227.993C169.894 226.604 169.293 225.147 168.831 223.643C169.692 224.958 170.428 226.353 171.028 227.81C171.755 229.2 172.353 230.657 172.814 232.16Z" fill="#CEAB5E"/>
<path d="M175.19 247.898C174.372 248.64 173.457 249.263 172.472 249.752C171.563 250.379 170.57 250.871 169.524 251.213C171.258 249.854 173.164 248.739 175.19 247.898Z" fill="#CEAB5E"/>
<path d="M186.378 243.862C185.735 242.545 185.231 241.163 184.874 239.738C184.373 238.361 184.015 236.936 183.805 235.484C184.439 236.803 184.94 238.185 185.301 239.607C185.797 240.986 186.157 242.411 186.378 243.862Z" fill="#CEAB5E"/>
<path d="M198.172 232.004C197.031 231.762 195.951 231.282 195.001 230.594C193.969 230.039 193.063 229.268 192.343 228.332C193.337 228.909 194.301 229.536 195.232 230.211C196.242 230.756 197.224 231.354 198.172 232.004Z" fill="#CEAB5E"/>
<path d="M202.967 242.47C202.221 243.095 201.389 243.605 200.497 243.983C199.666 244.49 198.764 244.862 197.822 245.088C199.39 243.957 201.119 243.076 202.95 242.478L202.967 242.47Z" fill="#CEAB5E"/>
<path d="M214.505 242.287C213.822 241.284 213.263 240.2 212.838 239.059C212.28 237.982 211.86 236.836 211.59 235.649C212.268 236.654 212.824 237.737 213.248 238.876C213.801 239.957 214.223 241.102 214.505 242.287Z" fill="#CEAB5E"/>
<path d="M214.77 257.503C214.466 256.61 214.305 255.673 214.291 254.728C214.149 253.794 214.149 252.843 214.291 251.909C214.6 252.801 214.761 253.739 214.77 254.684C214.912 255.618 214.912 256.569 214.77 257.503Z" fill="#CEAB5E"/>
<path d="M226.299 278.644C225.813 279.778 225.262 280.882 224.65 281.95C224.168 283.087 223.626 284.197 223.026 285.274C223.558 282.821 224.683 280.542 226.299 278.644Z" fill="#CEAB5E"/>
<path d="M240.35 281.785C240.239 281.846 239.188 280.045 237.675 277.896C236.162 275.747 234.786 274.181 234.88 274.094C237.242 276.212 239.111 278.84 240.35 281.785Z" fill="#CEAB5E"/>
<path d="M246.025 285.761C245.753 285.154 245.55 284.518 245.418 283.864C245.111 282.664 244.734 281.002 244.427 279.149C244.119 277.296 243.914 275.59 243.82 274.364C243.731 273.701 243.713 273.03 243.769 272.363C243.933 273.007 244.042 273.665 244.094 274.329C244.256 275.547 244.495 277.226 244.803 279.079C245.111 280.932 245.444 282.559 245.658 283.795C245.836 284.438 245.959 285.096 246.025 285.761Z" fill="#263238"/>
<path d="M245.563 262.41C245.563 264.481 246.222 270.083 246.222 270.083L243.88 273.268L245.504 283.986L256.161 272.345C256.895 271.562 257.378 270.57 257.546 269.501C258.118 265.96 259.358 257.895 258.982 257.425C258.383 256.703 257.324 257.651 256.939 259.435C256.734 260.366 255.059 265.646 255.059 265.646C255.059 265.646 254.059 258.286 253.392 257.451C252.341 256.137 251.794 258.373 251.888 259.957C251.999 261.932 252.016 264.307 252.016 265.629C252.019 265.65 252.018 265.671 252.013 265.691C252.008 265.711 251.999 265.73 251.986 265.746C251.974 265.763 251.959 265.777 251.941 265.787C251.923 265.798 251.904 265.805 251.884 265.807C251.843 265.813 251.802 265.802 251.769 265.777C251.736 265.752 251.714 265.714 251.709 265.673C251.025 263.28 249.298 257.721 248.29 258.217C247.281 258.713 247.726 261.07 247.982 262.184C249.033 266.812 248.367 266.847 248.367 266.847L246.675 261.54C246.637 261.414 246.552 261.308 246.439 261.245C246.326 261.181 246.192 261.166 246.068 261.201C245.521 261.392 245.555 261.949 245.563 262.41Z" fill="#FFBE9D"/>
<path d="M251.614 265.264C251.815 265.542 251.957 265.858 252.033 266.195C252.296 266.989 252.395 267.83 252.324 268.665C252.249 269.518 251.891 270.32 251.307 270.936C250.837 271.388 250.452 271.493 250.452 271.449C250.452 271.406 250.76 271.206 251.127 270.745C251.61 270.138 251.908 269.399 251.982 268.622C252.039 267.832 251.982 267.037 251.811 266.264C251.64 265.664 251.555 265.29 251.614 265.264Z" fill="#EB996E"/>
<path d="M254.777 264.481C254.828 264.481 255.008 264.811 255.196 265.411C255.46 266.203 255.562 267.041 255.495 267.874C255.419 268.728 255.057 269.53 254.469 270.144C254.008 270.605 253.615 270.701 253.615 270.658C253.615 270.614 253.922 270.423 254.298 269.953C254.778 269.344 255.075 268.607 255.153 267.83C255.213 267.042 255.152 266.25 254.973 265.481C254.859 265.16 254.793 264.822 254.777 264.481Z" fill="#EB996E"/>
<path d="M151.328 310.443C151.328 310.443 151.123 310.443 150.721 310.443C150.15 310.44 149.58 310.408 149.012 310.347C146.88 310.116 144.793 309.571 142.815 308.729C139.869 307.487 137.179 305.693 134.884 303.439C132.054 300.691 129.846 297.348 128.414 293.643C127.684 291.727 127.165 289.734 126.867 287.701C126.601 285.808 126.509 283.895 126.594 281.985C126.749 278.749 127.371 275.554 128.44 272.502C129.153 270.447 130.097 268.482 131.252 266.647C131.558 266.146 131.889 265.661 132.243 265.194C132.362 265.024 132.491 264.862 132.628 264.707C132.535 264.891 132.429 265.068 132.312 265.237C132.089 265.577 131.748 266.055 131.38 266.725C130.282 268.58 129.383 270.548 128.696 272.598C127.689 275.631 127.114 278.795 126.987 281.994C126.912 283.881 127.01 285.771 127.278 287.64C128.138 293.568 130.914 299.035 135.166 303.178C137.425 305.409 140.063 307.204 142.952 308.477C144.902 309.344 146.962 309.93 149.072 310.217C150.49 310.391 151.328 310.39 151.328 310.443Z" fill="#263238"/>
<path d="M166.421 272.154C166.421 272.154 170.609 274.373 171.763 274.486C172.917 274.599 176.977 274.486 176.977 274.486C176.977 274.486 177.498 275.625 174.985 276.304L172.045 277.061C171.9 277.095 171.766 277.168 171.656 277.272C171.547 277.375 171.466 277.506 171.422 277.651C171.378 277.796 171.372 277.951 171.405 278.099C171.438 278.247 171.508 278.384 171.609 278.496C172.96 280.071 175.344 282.794 175.677 282.846C176.011 282.899 178.241 280.776 178.626 280.332C179.207 279.68 181.062 280.115 179.72 282.185C178.549 284.021 175.994 286.457 175.173 285.717C174.549 285.152 172.105 282.986 172.105 282.986C172.105 282.986 176.096 287.892 176.378 289.424C176.66 290.955 175.019 291.164 174.028 290.076C173.541 289.545 169.267 284.482 169.267 284.482C169.267 284.482 175.019 292.503 172.934 292.651C171.72 292.738 168.054 286.866 168.054 286.866L169.943 291.364C170.07 291.564 170.113 291.808 170.063 292.042C170.014 292.275 169.875 292.479 169.678 292.608C169.48 292.737 169.241 292.781 169.012 292.731C168.782 292.68 168.582 292.539 168.455 292.338C167.618 291.271 166.858 290.143 166.182 288.962C165.524 287.875 159.345 279.514 159.345 279.514L166.421 272.154Z" fill="#FFBE9D"/>
<path d="M133.294 266.421L158.08 280.828L167.755 270.753L143.26 250.969L163.712 239.146L163.644 218.379L133.688 234.787C131.323 236.08 129.278 237.902 127.706 240.115C126.134 242.329 125.075 244.877 124.611 247.568C123.973 251.238 124.464 255.02 126.019 258.395C127.573 261.769 130.114 264.573 133.294 266.421Z" fill="#381E3E"/>
<path d="M137.858 246.794C140.079 247.744 142.084 249.151 143.747 250.926C142.724 250.299 141.737 249.613 140.79 248.873C139.775 248.236 138.797 247.542 137.858 246.794Z" fill="#263238"/>
<path d="M141.636 243.27C142.561 244.29 143.245 245.511 143.634 246.841C144.024 248.171 144.109 249.575 143.884 250.943C143.78 249.598 143.572 248.262 143.26 246.95C142.821 245.679 142.278 244.448 141.636 243.27Z" fill="#263238"/>
<path d="M155.618 236.032C155.499 235.971 156.302 234.213 157.054 231.951C157.806 229.689 158.225 227.801 158.353 227.828C158.105 230.747 157.167 233.561 155.618 236.032Z" fill="#CEAB5E"/>
<path d="M150.473 240.399C149.494 239.693 148.604 238.866 147.824 237.937C146.937 237.112 146.156 236.177 145.499 235.153C146.475 235.861 147.362 236.688 148.14 237.615C149.025 238.444 149.809 239.379 150.473 240.399Z" fill="#CEAB5E"/>
<path d="M133.141 248.081C133.353 246.976 133.653 245.891 134.038 244.836C134.281 243.737 134.613 242.661 135.029 241.617C135.048 242.76 134.856 243.895 134.465 244.967C134.215 246.079 133.766 247.134 133.141 248.081Z" fill="#CEAB5E"/>
<path d="M136.457 259.513C135.461 259.139 134.52 258.626 133.662 257.99C132.724 257.48 131.861 256.839 131.098 256.085C132.096 256.455 133.037 256.968 133.893 257.608C134.831 258.118 135.694 258.759 136.457 259.513Z" fill="#CEAB5E"/>
<path d="M146.909 265.533C146.159 263.323 146.18 260.917 146.969 258.721C147.097 258.721 146.815 260.252 146.807 262.123C146.798 263.993 147.037 265.507 146.909 265.533Z" fill="#CEAB5E"/>
<path d="M163.003 275.582C161.489 275.243 160.01 274.763 158.584 274.146C157.106 273.662 155.675 273.038 154.311 272.285C155.826 272.615 157.306 273.095 158.729 273.72C160.211 274.194 161.643 274.818 163.003 275.582Z" fill="#CEAB5E"/>
<path d="M334.227 300.107H65.5707C64.9586 300.107 64.3717 299.86 63.9389 299.419C63.5062 298.979 63.2631 298.381 63.2631 297.758C63.2631 297.135 63.5062 296.538 63.9389 296.097C64.3717 295.657 64.9586 295.409 65.5707 295.409H334.227C334.839 295.409 335.426 295.657 335.858 296.097C336.291 296.538 336.534 297.135 336.534 297.758C336.534 298.381 336.291 298.979 335.858 299.419C335.426 299.86 334.839 300.107 334.227 300.107Z" fill="#263238"/>
<path d="M332.586 414.556C332.586 413.285 332.235 370.76 331.68 300.107L331.842 300.272L68.0406 300.333L68.2629 300.107C68.5193 340.249 68.7671 378.955 68.9979 414.547L68.7842 414.338L332.603 414.556L68.7842 414.764H68.562V414.556C68.3312 378.955 68.0748 340.258 67.8099 300.107V299.881H68.0492L331.851 299.942H332.004V300.107C332.363 370.76 332.577 413.294 332.586 414.556Z" fill="#263238"/>
<path d="M83.1255 414.556C82.9973 414.556 82.8948 388.56 82.8948 356.509C82.8948 324.458 82.9973 298.471 83.1255 298.471C83.2537 298.471 83.3478 324.45 83.3478 356.509C83.3478 388.569 83.2452 414.556 83.1255 414.556Z" fill="#263238"/>
<path d="M98.048 414.556C97.9284 414.556 97.8258 388.56 97.8258 356.509C97.8258 324.458 97.9284 298.471 98.048 298.471C98.1677 298.471 98.2702 324.45 98.2702 356.509C98.2702 388.569 98.2019 414.556 98.048 414.556Z" fill="#263238"/>
<path d="M113.03 414.556C112.911 414.556 112.808 388.56 112.808 356.509C112.808 324.458 112.911 298.471 113.03 298.471C113.15 298.471 113.253 324.45 113.253 356.509C113.253 388.569 113.159 414.556 113.03 414.556Z" fill="#263238"/>
<path d="M127.961 414.556C127.842 414.556 127.739 388.56 127.739 356.509C127.739 324.458 127.842 298.471 127.961 298.471C128.081 298.471 128.184 324.45 128.184 356.509C128.184 388.569 128.107 414.556 127.961 414.556Z" fill="#263238"/>
<path d="M142.944 414.556C142.815 414.556 142.721 388.56 142.721 356.509C142.721 324.458 142.815 298.471 142.944 298.471C143.072 298.471 143.166 324.45 143.166 356.509C143.166 388.569 143.063 414.556 142.944 414.556Z" fill="#263238"/>
<path d="M157.875 414.556C157.746 414.556 157.652 388.56 157.652 356.509C157.652 324.458 157.746 298.471 157.875 298.471C158.003 298.471 158.097 324.45 158.097 356.509C158.097 388.569 158.02 414.556 157.875 414.556Z" fill="#263238"/>
<path d="M172.848 414.556C172.729 414.556 172.626 388.56 172.626 356.509C172.626 324.458 172.729 298.471 172.848 298.471C172.968 298.471 173.071 324.45 173.071 356.509C173.071 388.569 172.977 414.556 172.848 414.556Z" fill="#263238"/>
<path d="M187.788 414.556C187.668 414.556 187.566 388.56 187.566 356.509C187.566 324.458 187.668 298.471 187.788 298.471C187.908 298.471 188.01 324.45 188.01 356.509C188.01 388.569 187.933 414.556 187.788 414.556Z" fill="#263238"/>
<path d="M202.762 414.556C202.642 414.556 202.54 388.56 202.54 356.509C202.54 324.458 202.642 298.471 202.762 298.471C202.881 298.471 202.984 324.45 202.984 356.509C202.984 388.569 202.881 414.556 202.762 414.556Z" fill="#263238"/>
<path d="M217.701 414.556C217.573 414.556 217.479 388.56 217.479 356.509C217.479 324.458 217.573 298.471 217.701 298.471C217.83 298.471 217.924 324.45 217.924 356.509C217.924 388.569 217.838 414.556 217.701 414.556Z" fill="#263238"/>
<path d="M232.675 414.556C232.547 414.556 232.453 388.56 232.453 356.509C232.453 324.458 232.547 298.471 232.675 298.471C232.803 298.471 232.897 324.45 232.897 356.509C232.897 388.569 232.795 414.556 232.675 414.556Z" fill="#263238"/>
<path d="M247.615 414.556C247.495 414.556 247.392 388.56 247.392 356.509C247.392 324.458 247.495 298.471 247.615 298.471C247.734 298.471 247.837 324.45 247.837 356.509C247.837 388.569 247.751 414.556 247.615 414.556Z" fill="#263238"/>
<path d="M262.58 414.556C262.46 414.556 262.358 388.56 262.358 356.509C262.358 324.458 262.46 298.471 262.58 298.471C262.7 298.471 262.802 324.45 262.802 356.509C262.802 388.569 262.708 414.556 262.58 414.556Z" fill="#263238"/>
<path d="M277.528 414.556C277.408 414.556 277.306 388.56 277.306 356.509C277.306 324.458 277.408 298.471 277.528 298.471C277.648 298.471 277.75 324.45 277.75 356.509C277.75 388.569 277.656 414.556 277.528 414.556Z" fill="#263238"/>
<path d="M292.493 414.556C292.365 414.556 292.271 388.56 292.271 356.509C292.271 324.458 292.365 298.471 292.493 298.471C292.621 298.471 292.715 324.45 292.715 356.509C292.715 388.569 292.613 414.556 292.493 414.556Z" fill="#263238"/>
<path d="M307.441 414.556C307.313 414.556 307.219 388.56 307.219 356.509C307.219 324.458 307.313 298.471 307.441 298.471C307.57 298.471 307.664 324.45 307.664 356.509C307.664 388.569 307.57 414.556 307.441 414.556Z" fill="#263238"/>
<path d="M322.398 414.556C322.278 414.556 322.176 388.56 322.176 356.509C322.176 324.458 322.278 298.471 322.398 298.471C322.518 298.471 322.62 324.45 322.62 356.509C322.62 388.569 322.526 414.556 322.398 414.556Z" fill="#263238"/>
<path d="M83.8178 354.23C81.1035 352.493 78.0329 351.415 74.8438 351.08C73.3711 350.793 71.846 351.078 70.5705 351.881C70.3226 352.072 70.0748 352.351 70.1346 352.664C70.2014 352.891 70.3513 353.084 70.5534 353.203C72.4578 354.588 74.6983 355.416 77.032 355.597C79.3658 355.778 81.7036 355.305 83.7922 354.23" fill="#381E3E"/>
<path d="M83.587 353.969C81.5063 352.408 79.567 350.661 77.7924 348.749C76.0096 346.836 74.7564 344.477 74.1601 341.911C74.0413 341.53 74.0051 341.127 74.0538 340.731C74.1025 340.334 74.2349 339.953 74.4421 339.614C79.0658 343.294 82.6982 348.044 83.587 353.943" fill="#381E3E"/>
<path d="M83.775 354.195C83.3429 351.627 83.3776 348.999 83.8776 346.443C84.3918 343.868 85.8415 341.584 87.9372 340.049C88.7321 341.954 88.3902 344.138 87.8261 346.139C86.9537 349.215 85.5971 352.126 83.8092 354.761" fill="#381E3E"/>
<path d="M88.3048 362.46C85.585 362.901 83.0689 364.197 81.1085 366.166C79.0389 368.074 77.5999 370.587 76.989 373.361C79.6812 373.187 81.9717 371.256 83.6298 369.081C85.2878 366.906 86.4416 364.531 88.2621 362.495" fill="#CEAB5E"/>
<path d="M89.2876 363.774C88.2065 360.975 87.8279 357.946 88.1861 354.962C88.5442 351.977 89.6278 349.13 91.3388 346.678C92.1583 349.52 92.3991 352.502 92.0464 355.441C91.6936 358.381 90.7549 361.216 89.2876 363.774Z" fill="#381E3E"/>
<path d="M95.2703 371.03C92.7565 370.869 90.2518 371.466 88.0692 372.745C85.8865 374.025 84.1224 375.931 82.9973 378.224C82.8434 378.538 82.7067 378.929 82.9118 379.208C83.0227 379.318 83.1591 379.398 83.3085 379.441C83.4579 379.483 83.6154 379.487 83.7665 379.451C86.1852 379.295 88.3304 377.807 90.0996 376.119C91.8687 374.431 93.4071 372.482 95.3643 371.03" fill="#381E3E"/>
<path d="M95.0823 370.638C93.7931 366.416 93.713 361.907 94.8515 357.64C95.3045 355.961 96.0566 354.204 97.5779 353.421C97.6386 353.379 97.7072 353.35 97.7792 353.337C97.8513 353.324 97.9254 353.325 97.9967 353.343C98.1207 353.409 98.2153 353.521 98.2616 353.656C98.7722 354.828 98.9924 356.109 98.9026 357.388C98.8136 358.66 98.622 359.923 98.33 361.164C97.8514 363.469 97.595 365.949 96.3557 367.941C96.0608 368.42 95.7953 368.917 95.5609 369.429C95.3301 369.933 95.3216 370.107 95.1079 370.516" fill="#381E3E"/>
<path d="M110.928 373.039C110.397 370.666 110.38 368.204 110.879 365.824C111.378 363.444 112.38 361.204 113.817 359.258C114.022 358.989 114.295 358.693 114.671 358.719C115.184 358.771 115.321 359.476 115.295 360.006C115.089 364.685 113.587 369.21 110.962 373.056" fill="#381E3E"/>
<path d="M112.355 374.04C115.127 374.703 118.007 374.747 120.797 374.169C123.587 373.59 126.221 372.404 128.517 370.69C125.812 369.305 122.719 368.918 119.765 369.594C116.857 370.14 114.233 371.715 112.355 374.04Z" fill="#CEAB5E"/>
<path d="M113.56 371.012C115.163 368.498 117.328 366.405 119.876 364.904C122.425 363.402 125.286 362.535 128.226 362.373C127.831 363.559 127.202 364.65 126.378 365.579C125.553 366.508 124.551 367.256 123.432 367.776C121.19 368.802 118.82 369.508 116.389 369.872C115.458 370.055 114.167 370.264 113.56 371.012Z" fill="#381E3E"/>
<path d="M111.227 356.37C112.149 353.527 112.779 350.593 113.107 347.618C113.424 344.625 112.827 341.605 111.398 338.97C109.952 341.678 109.173 344.704 109.129 347.786C109.084 350.868 109.775 353.915 111.141 356.666" fill="#381E3E"/>
<path d="M120.782 351.402C124.107 345.269 130.876 340.362 137.73 339.675C135.089 346.374 127.876 351.55 120.782 351.402Z" fill="#CEAB5E"/>
<path d="M118.697 352.612C123.645 353.377 127.867 356.596 132.491 358.545C133.461 359.02 134.536 359.23 135.611 359.154C136.108 359.145 136.592 358.982 136.996 358.686C137.4 358.39 137.706 357.975 137.873 357.497C138.039 357.02 138.058 356.501 137.927 356.012C137.796 355.523 137.522 355.086 137.14 354.76C136.486 354.143 135.716 353.666 134.876 353.36C129.852 351.362 124.331 351.057 119.124 352.49" fill="#381E3E"/>
<path d="M115.834 356.144C116.953 356.474 117.338 357.057 118.227 357.832C121.251 360.461 124.831 362.343 128.688 363.33C129.081 363.426 129.611 363.469 129.807 363.104C130.004 362.738 129.756 362.39 129.534 362.103C127.849 360.104 125.668 358.602 123.218 357.753C120.808 356.84 118.714 355.744 115.834 356.013" fill="#381E3E"/>
<path d="M112.577 334.803C114.61 336.7 117.009 338.144 119.621 339.043C122.234 339.941 125.001 340.275 127.748 340.023C128 340.025 128.246 339.935 128.44 339.771C128.825 339.344 128.363 338.692 127.919 338.335C123.457 334.794 118.056 333.333 112.577 334.768" fill="#381E3E"/>
<path d="M116.432 333.367C119.12 331.356 122.236 330.021 125.528 329.469C128.819 328.917 132.192 329.165 135.371 330.192C132.894 332.531 129.714 333.95 126.346 334.22C123.017 334.527 119.66 334.233 116.432 333.35" fill="#381E3E"/>
<path d="M114.911 323.562C114.475 319.03 114.757 315.454 114.449 310.895C114.449 310.53 114.346 310.095 114.013 309.964C113.543 309.781 113.158 310.364 113.005 310.834C112.357 312.947 112.192 315.182 112.521 317.369C112.849 319.557 113.664 321.639 114.902 323.458" fill="#381E3E"/>
<path d="M114.586 324.067C117.497 322.154 120.007 319.673 121.97 316.768C123.423 314.732 124.654 312.305 124.32 309.808C123.294 309.835 122.287 310.09 121.367 310.554C120.448 311.019 119.638 311.681 118.996 312.496C117.728 314.137 116.805 316.026 116.287 318.047C115.697 320.048 115.287 322.092 114.577 324.058" fill="#381E3E"/>
<path d="M121.833 322.014C128.476 319.516 134.627 315.831 139.995 311.13C137.824 310.26 135.337 310.773 133.158 311.669C128.237 313.569 124.169 317.236 121.722 321.979" fill="#CEAB5E"/>
<path d="M116.628 326.546C119.971 327.016 123.362 327.016 126.705 326.546C129.948 325.86 133.103 324.794 136.106 323.371C136.369 323.288 136.593 323.112 136.739 322.875C136.786 322.73 136.79 322.575 136.75 322.428C136.711 322.281 136.629 322.149 136.517 322.048C136.279 321.864 136.005 321.734 135.713 321.666C132.337 320.841 128.796 321.059 125.543 322.292C122.428 323.37 119.434 324.782 116.611 326.503" fill="#381E3E"/>
<path d="M97.4924 334.951C96.4124 332.603 95.8391 330.048 95.8111 327.456C95.7831 324.864 96.301 322.296 97.33 319.926C98.7146 322.083 98.8855 324.832 98.6291 327.399C98.3727 329.965 97.6121 332.619 97.5608 335.185" fill="#381E3E"/>
<path d="M88.3561 330.27C85.4929 330.234 82.6538 330.805 80.0197 331.948C77.3857 333.091 75.0145 334.78 73.0576 336.908C75.9426 337.258 78.8639 336.705 81.4333 335.325C83.9824 333.946 86.3878 332.308 88.6125 330.435" fill="#CEAB5E"/>
<path d="M82.211 328.173C79.4248 327.938 76.7326 327.59 74.0489 328.426C72.6935 328.815 71.4363 329.496 70.3627 330.424C69.2891 331.352 68.4243 332.504 67.827 333.802C70.4742 334.025 73.1314 333.517 75.519 332.332C77.8825 331.155 80.1366 329.763 82.2537 328.173" fill="#381E3E"/>
<path d="M91.3047 328.269C88.792 326.59 86.1767 324.885 83.2879 324.189C80.3991 323.493 76.9719 324.015 74.9378 326.259C77.3052 327.669 80.1769 327.834 82.9204 327.834C85.6639 327.834 89.0313 327.834 91.6209 328.704" fill="#381E3E"/>
<path d="M91.3217 328.399C87.0484 324.11 85.3989 316.393 87.1253 310.53C90.5149 315.812 91.9982 322.128 91.3217 328.399Z" fill="#381E3E"/>
<path d="M103.176 316.237C104.031 314.323 104.552 312.313 105.278 310.356C105.942 308.375 106.962 306.537 108.287 304.936C109.631 303.33 111.539 302.324 113.603 302.134C112.942 305.092 111.682 307.877 109.905 310.311C108.127 312.745 105.87 314.775 103.279 316.272" fill="#381E3E"/>
<path d="M100.997 318.777C99.6548 316.898 98.1078 314.349 96.2874 312.94C95.4087 312.193 94.3808 311.651 93.2753 311.351C92.1697 311.05 91.0131 310.999 89.8859 311.2C91.0356 313.249 92.6381 314.997 94.5666 316.306C96.4951 317.615 98.6965 318.449 100.997 318.743" fill="#381E3E"/>
<path d="M101.467 316.394C100.506 314.162 99.7948 311.827 99.3471 309.434C98.9051 307.011 99.2848 304.508 100.424 302.334C102.783 306.867 103.535 311.739 101.586 316.472" fill="#381E3E"/>
<path d="M103.176 302.308C104.509 297.81 108.552 294.478 112.919 292.982C113.46 292.754 114.046 292.665 114.628 292.721C114.919 292.754 115.194 292.873 115.418 293.063C115.643 293.253 115.808 293.506 115.893 293.791C116.047 294.557 115.432 295.235 114.842 295.748C111.428 298.714 107.46 300.945 103.176 302.308Z" fill="#381E3E"/>
<path d="M103.176 298.628C103.22 295.721 103.648 292.832 104.449 290.041C104.861 288.647 105.543 287.35 106.457 286.229C107.37 285.108 108.495 284.186 109.765 283.516C110.201 286.439 108.911 289.354 107.407 291.877C105.902 294.4 103.988 296.775 103.133 299.585" fill="#381E3E"/>
<path d="M103.176 300.629C102.073 297.349 101.954 293.182 100.031 290.328C98.6804 288.336 96.5267 286.97 95.3643 284.856C94.6586 286.884 94.7567 289.112 95.6378 291.068C96.5126 293.009 97.7194 294.776 99.2018 296.288C100.629 297.836 101.851 299.002 103.176 300.638" fill="#CEAB5E"/>
<path d="M103.176 397.156C103.082 397.156 103.014 375.284 103.005 348.323C102.997 321.361 103.065 299.481 103.15 299.481C103.236 299.481 103.313 321.344 103.313 348.323C103.313 375.301 103.244 397.156 103.176 397.156Z" fill="#263238"/>
<path d="M121.927 331.653C121.653 331.784 121.366 331.889 121.073 331.967L118.851 332.723C116.979 333.376 114.406 334.316 111.612 335.481C108.817 336.647 106.236 337.674 104.774 338.961C104.18 339.465 103.709 340.102 103.398 340.823C103.185 341.336 103.142 341.693 103.116 341.641C103.103 341.566 103.103 341.49 103.116 341.415C103.148 341.198 103.203 340.985 103.279 340.78C103.557 340.015 104.018 339.334 104.62 338.796C105.518 338.027 106.519 337.394 107.595 336.917C108.791 336.351 110.107 335.76 111.509 335.177C114.312 334.002 116.91 333.089 118.799 332.497C119.748 332.193 120.509 331.975 121.056 331.827C121.341 331.746 121.633 331.687 121.927 331.653Z" fill="#263238"/>
<path d="M128.081 316.272C128.012 316.36 127.935 316.442 127.85 316.515L127.166 317.177L124.602 319.552L116.056 327.321C112.714 330.348 109.825 333.237 107.825 335.42C106.825 336.508 106.031 337.413 105.492 338.03C105.244 338.326 105.039 338.561 104.868 338.753C104.697 338.944 104.646 339.005 104.637 338.996C104.689 338.896 104.752 338.802 104.825 338.718C104.954 338.535 105.142 338.274 105.398 337.952C105.911 337.3 106.68 336.369 107.663 335.264C110.247 332.386 112.98 329.65 115.851 327.068C119.21 324.05 122.261 321.335 124.483 319.378L127.115 317.072L127.842 316.463C127.914 316.39 127.994 316.325 128.081 316.272Z" fill="#263238"/>
<path d="M112.415 330.4C112.329 330.4 113.03 328.713 113.723 326.642C114.415 324.571 114.757 322.814 114.842 322.823C114.768 324.166 114.479 325.489 113.988 326.738C113.693 327.627 113.347 328.499 112.953 329.348C112.827 329.724 112.645 330.079 112.415 330.4Z" fill="#263238"/>
<path d="M103.176 343.633C102.986 343.448 102.814 343.244 102.663 343.024L101.338 341.284C100.227 339.823 98.6976 337.804 96.9797 335.603C95.2618 333.402 93.6807 331.427 92.5354 330L91.1936 328.26C91.0173 328.061 90.8599 327.846 90.7235 327.616C90.9303 327.782 91.1168 327.971 91.279 328.182C91.6295 328.565 92.1337 329.122 92.7063 329.818C93.8943 331.21 95.5011 333.167 97.2275 335.377C98.954 337.587 100.45 339.622 101.501 341.11C102.031 341.858 102.458 342.467 102.74 342.894C102.909 343.125 103.055 343.373 103.176 343.633Z" fill="#263238"/>
<path d="M99.0565 338.257C98.2337 337.317 97.6472 336.189 97.3472 334.968C97.028 333.895 96.8978 332.773 96.9626 331.653H97.0993C97.0395 331.914 96.9882 332.045 96.9626 332.036C96.9346 331.904 96.9346 331.768 96.9626 331.636H97.0993C97.1677 332.729 97.3511 333.811 97.6463 334.864C98.0357 336.028 98.507 337.162 99.0565 338.257Z" fill="#263238"/>
<path d="M93.7747 331.444C93.4015 331.162 92.997 330.926 92.5696 330.74C91.4876 330.407 90.3479 330.315 89.2278 330.47C88.0924 330.558 86.9661 330.741 85.8604 331.018C85.4074 331.165 84.9447 331.278 84.4759 331.357C84.8889 331.108 85.335 330.92 85.8006 330.801C86.9127 330.454 88.0594 330.235 89.2193 330.148C90.3725 329.998 91.5443 330.129 92.638 330.531C93.1061 330.698 93.5061 331.02 93.7747 331.444Z" fill="#263238"/>
<path d="M92.4841 329.8C92.4841 329.852 91.7833 329.513 90.638 329.113C89.1511 328.598 87.6061 328.276 86.0399 328.156C84.4723 328.038 82.8964 328.117 81.3478 328.391C80.1598 328.608 79.4419 328.835 79.4248 328.782C79.5776 328.691 79.7413 328.621 79.912 328.573C80.3675 328.41 80.8328 328.276 81.3051 328.173C84.4415 327.473 87.7108 327.728 90.7064 328.904C91.1571 329.079 91.5967 329.283 92.0226 329.513C92.1892 329.586 92.3447 329.682 92.4841 329.8Z" fill="#263238"/>
<path d="M103.176 322.823C102.628 321.271 102.18 319.684 101.834 318.073C101.385 316.484 101.034 314.869 100.783 313.235C101.336 314.79 101.787 316.379 102.133 317.994C102.582 319.579 102.93 321.192 103.176 322.823Z" fill="#263238"/>
<path d="M103.219 322.823C102.788 321.841 102.291 320.89 101.732 319.978C101.095 319.121 100.357 318.346 99.5351 317.672C99.8508 317.748 100.144 317.901 100.39 318.116C101.012 318.591 101.549 319.171 101.979 319.83C102.642 320.7 103.069 321.732 103.219 322.823Z" fill="#263238"/>
<path d="M103.176 385.498C103.176 385.498 103.073 384.967 102.834 384.045C102.478 382.739 101.997 381.471 101.398 380.26C99.324 376.302 96.7621 372.63 93.7746 369.333C92.0653 367.358 90.4243 365.488 89.0227 363.704C87.7574 362.135 86.6144 360.469 85.604 358.719C84.9343 357.537 84.3625 356.3 83.8947 355.021C83.7408 354.56 83.6212 354.204 83.5614 353.96C83.5203 353.838 83.4889 353.713 83.4673 353.586C83.4673 353.586 83.6554 354.082 84.0058 354.969C84.5151 356.225 85.115 357.44 85.8006 358.606C86.8199 360.328 87.9625 361.971 89.2193 363.521C90.6295 365.261 92.279 367.149 93.9797 369.124C96.9868 372.434 99.5372 376.145 101.561 380.156C102.148 381.387 102.604 382.679 102.92 384.01C103.014 384.488 103.082 384.88 103.108 385.106C103.138 385.235 103.161 385.366 103.176 385.498Z" fill="#263238"/>
<path d="M120.115 365.992C119.841 366.181 119.556 366.353 119.261 366.505C118.456 366.964 117.685 367.482 116.953 368.054C115.877 368.912 114.865 369.851 113.928 370.864C112.868 372.004 111.774 373.335 110.654 374.753C108.415 377.607 106.33 380.138 105.082 382.148C104.574 382.935 104.107 383.748 103.68 384.584C103.373 385.176 103.21 385.506 103.193 385.498C103.176 385.489 103.193 385.402 103.27 385.237C103.347 385.071 103.424 384.836 103.569 384.532C103.958 383.673 104.398 382.84 104.885 382.035C106.581 379.436 108.424 376.941 110.406 374.562C111.526 373.135 112.629 371.804 113.714 370.664C114.67 369.647 115.708 368.713 116.816 367.871C117.568 367.31 118.366 366.815 119.201 366.392C119.492 366.244 119.731 366.149 119.893 366.079C119.963 366.04 120.038 366.01 120.115 365.992Z" fill="#263238"/>
<path d="M120.449 372.317C119.831 372.463 119.202 372.556 118.569 372.596C117.061 372.746 115.571 373.038 114.116 373.466C112.676 373.941 111.327 374.662 110.124 375.597C109.201 376.319 108.774 376.919 108.731 376.885C108.689 376.85 108.8 376.711 109.005 376.441C109.3 376.071 109.629 375.73 109.988 375.423C111.179 374.415 112.548 373.647 114.022 373.161C115.496 372.715 117.016 372.443 118.551 372.352C119.182 372.287 119.816 372.275 120.449 372.317Z" fill="#263238"/>
<path d="M109.278 376.215C109.176 376.162 110.022 374.84 110.68 373.074C111.338 371.308 111.441 369.716 111.535 369.733C111.597 370.072 111.597 370.42 111.535 370.76C111.448 371.585 111.264 372.397 110.988 373.178C110.706 373.956 110.342 374.7 109.902 375.397C109.552 375.927 109.312 376.241 109.278 376.215Z" fill="#263238"/>
<path d="M125.611 349.01L125.312 349.166L124.457 349.575C124.073 349.749 123.602 349.958 123.073 350.245C122.543 350.532 121.927 350.811 121.278 351.202L120.252 351.802C119.902 352.011 119.551 352.255 119.175 352.49C118.415 352.96 117.663 353.534 116.851 354.117C115.136 355.444 113.519 356.898 112.013 358.467C110.526 360.054 109.157 361.752 107.919 363.547C107.364 364.417 106.825 365.174 106.398 365.957C106.176 366.349 105.945 366.714 105.749 367.088C105.552 367.462 105.381 367.81 105.202 368.15C104.843 368.82 104.578 369.455 104.347 370.012C104.116 370.568 103.894 371.038 103.74 371.438L103.373 372.352C103.339 372.464 103.287 372.57 103.219 372.665C103.239 372.549 103.27 372.435 103.313 372.326L103.629 371.395C103.766 370.986 103.945 370.525 104.193 369.933C104.441 369.342 104.68 368.724 105.048 368.045L105.586 366.967C105.774 366.592 105.996 366.227 106.219 365.827C106.646 365.035 107.176 364.235 107.723 363.382C108.953 361.562 110.325 359.846 111.825 358.249C113.344 356.672 114.982 355.218 116.722 353.899C117.577 353.308 118.312 352.742 119.081 352.281C119.457 352.046 119.816 351.802 120.175 351.594L121.218 351.019C121.876 350.637 122.5 350.358 123.047 350.097C123.594 349.836 124.064 349.627 124.457 349.471L125.363 349.123C125.442 349.078 125.525 349.04 125.611 349.01Z" fill="#263238"/>
<path d="M112.184 358.162C112.316 357.723 112.575 357.335 112.928 357.049C113.754 356.317 114.807 355.904 115.902 355.883C116.975 355.878 118.039 356.091 119.03 356.509C119.45 356.641 119.848 356.838 120.209 357.092C119.781 357.005 119.361 356.879 118.953 356.718C117.975 356.371 116.946 356.195 115.91 356.196C114.88 356.223 113.885 356.579 113.064 357.214C112.75 357.51 112.456 357.826 112.184 358.162Z" fill="#263238"/>
<path d="M110.176 360.268C110.58 359.379 110.867 358.44 111.03 357.475C111.09 356.496 111.027 355.514 110.842 354.552C111.021 354.792 111.141 355.073 111.193 355.37C111.551 356.779 111.38 358.274 110.714 359.563C110.441 360.041 110.21 360.294 110.176 360.268Z" fill="#263238"/>
<path d="M88.3219 388.63C88.7834 396.982 91.2534 405.482 95.0567 414.077H111.603C115.235 405.569 117.534 397.086 117.945 388.63H88.3219Z" fill="#455A64"/>
<path d="M115.269 402.15C115.269 402.237 109.817 402.306 103.099 402.306C96.3814 402.306 90.9286 402.237 90.9286 402.15C90.9286 402.063 96.3814 401.993 103.099 401.993C109.817 401.993 115.269 402.063 115.269 402.15Z" fill="#FAFAFA"/>
<path d="M114.893 405.177C114.893 405.264 109.765 405.334 103.492 405.334C97.2189 405.334 92.0653 405.264 92.0653 405.177C92.0653 405.09 97.1933 405.021 103.475 405.021C109.757 405.021 114.893 405.09 114.893 405.177Z" fill="#FAFAFA"/>
<path d="M185.737 168.015C185.648 168.555 185.404 169.056 185.036 169.454C184.668 169.853 184.192 170.132 183.668 170.255C183.144 170.378 182.596 170.34 182.093 170.146C181.59 169.952 181.155 169.611 180.843 169.166C180.531 168.72 180.356 168.19 180.34 167.643C180.323 167.096 180.467 166.556 180.752 166.092C181.037 165.628 181.451 165.261 181.941 165.036C182.431 164.812 182.976 164.74 183.506 164.831C184.217 164.952 184.851 165.356 185.269 165.953C185.687 166.55 185.855 167.292 185.737 168.015Z" fill="#381E3E"/>
<path d="M185.498 167.041C185.352 167.119 183.985 164.561 182.934 161.177C181.882 157.793 180.993 155.087 181.13 155.026C181.267 154.965 182.421 157.636 183.498 160.985C184.574 164.335 185.643 166.962 185.498 167.041Z" fill="#381E3E"/>
<path d="M186.523 152.868C186.66 152.938 185.856 154.269 184.19 154.982C182.523 155.696 181.028 155.409 181.07 155.252C181.113 155.095 182.455 155.095 183.951 154.382C185.446 153.669 186.386 152.79 186.523 152.868Z" fill="#381E3E"/>
<path d="M187.258 155.635C187.412 155.696 186.66 157.044 184.985 157.636C183.31 158.228 181.899 157.636 181.985 157.514C182.07 157.392 183.318 157.601 184.788 157.062C186.258 156.522 187.121 155.522 187.258 155.635Z" fill="#381E3E"/>
<path d="M162.233 150.18C161.803 150.328 161.338 150.342 160.9 150.221C160.461 150.1 160.067 149.85 159.768 149.501C159.469 149.153 159.278 148.722 159.22 148.263C159.161 147.804 159.238 147.338 159.44 146.923C159.642 146.508 159.96 146.164 160.354 145.933C160.748 145.703 161.2 145.596 161.654 145.627C162.108 145.658 162.542 145.825 162.902 146.108C163.263 146.39 163.532 146.775 163.678 147.213C163.775 147.505 163.814 147.813 163.794 148.119C163.773 148.426 163.694 148.726 163.56 149.001C163.425 149.277 163.239 149.523 163.012 149.725C162.784 149.927 162.52 150.082 162.233 150.18Z" fill="#381E3E"/>
<path d="M162.849 149.623C162.669 149.501 163.951 147.387 166.003 145.195C168.054 143.002 169.737 141.332 169.9 141.463C170.062 141.593 168.618 143.577 166.584 145.743C164.55 147.909 163.003 149.754 162.849 149.623Z" fill="#381E3E"/>
<path d="M174.242 147.631C174.182 147.814 172.344 147.248 170.823 145.447C170.155 144.696 169.706 143.772 169.524 142.776C169.404 141.993 169.626 141.515 169.72 141.541C169.814 141.567 169.84 142.002 170.071 142.637C170.385 143.477 170.846 144.252 171.43 144.925C172.789 146.543 174.361 147.405 174.242 147.631Z" fill="#381E3E"/>
<path d="M166.567 156.366C166.136 156.513 165.672 156.528 165.233 156.407C164.794 156.286 164.4 156.036 164.101 155.687C163.802 155.338 163.611 154.907 163.553 154.448C163.494 153.989 163.571 153.523 163.773 153.109C163.975 152.694 164.293 152.349 164.687 152.119C165.081 151.888 165.534 151.782 165.987 151.813C166.441 151.844 166.875 152.011 167.235 152.293C167.596 152.576 167.866 152.961 168.011 153.399C168.108 153.69 168.147 153.998 168.127 154.305C168.106 154.612 168.027 154.912 167.893 155.187C167.759 155.463 167.573 155.708 167.345 155.911C167.117 156.113 166.853 156.268 166.567 156.366Z" fill="#381E3E"/>
<path d="M167.191 155.8C167.003 155.67 168.293 153.556 170.336 151.363C172.378 149.171 174.079 147.5 174.242 147.631C174.404 147.761 172.96 149.754 170.925 151.92C168.891 154.086 167.37 155.922 167.191 155.8Z" fill="#381E3E"/>
<path d="M173.259 148.84C173.259 149.049 171.421 148.623 169.943 146.987C168.464 145.351 168.165 143.507 168.37 143.507C168.575 143.507 169.225 145.003 170.532 146.456C171.84 147.909 173.301 148.614 173.259 148.84Z" fill="#381E3E"/>
<path d="M173.891 206.138L168.652 196.751C171.884 191.408 173.036 185.028 171.882 178.864C170.727 172.701 167.35 167.2 162.413 163.442C157.476 159.685 151.337 157.943 145.203 158.559C139.069 159.175 133.383 162.104 129.263 166.771C125.142 171.438 122.886 177.505 122.937 183.78C122.988 190.054 125.342 196.082 129.538 200.679C133.733 205.276 139.466 208.109 145.61 208.622C151.753 209.135 157.863 207.29 162.738 203.45L173.891 206.138Z" fill="white"/>
<path d="M173.891 206.138L162.704 203.572L162.533 203.528L162.644 203.389L162.798 203.546C159.36 206.286 155.269 208.048 150.943 208.653C149.644 208.839 148.331 208.906 147.02 208.853C146.354 208.853 145.661 208.801 144.978 208.74L142.884 208.426C136.655 207.186 131.126 203.573 127.423 198.326C125.359 195.426 123.931 192.109 123.235 188.599C122.517 184.888 122.616 181.061 123.526 177.394C124.449 173.556 126.263 169.999 128.816 167.023C131.402 163.964 134.67 161.577 138.346 160.063C141.874 158.642 145.671 158.047 149.456 158.323C153.03 158.571 156.506 159.62 159.635 161.394C165.262 164.577 169.465 169.847 171.37 176.106C172.138 178.763 172.498 181.524 172.438 184.293C172.31 188.711 171.033 193.016 168.737 196.768V196.655L173.865 206.104L168.541 196.768V196.708V196.655C170.78 192.923 172.013 188.656 172.113 184.284C172.155 181.552 171.789 178.83 171.028 176.21C169.118 170.057 164.965 164.882 159.422 161.751C156.341 160.02 152.924 158.999 149.413 158.758C145.699 158.5 141.975 159.095 138.516 160.498C134.894 161.973 131.671 164.309 129.115 167.31C126.61 170.232 124.823 173.718 123.902 177.481C123.01 181.085 122.908 184.845 123.603 188.495C124.28 191.947 125.679 195.211 127.705 198.065C131.338 203.24 136.772 206.811 142.901 208.052L144.961 208.383C145.644 208.435 146.32 208.461 146.978 208.496C148.271 208.555 149.567 208.494 150.849 208.313C155.13 207.742 159.186 206.031 162.61 203.354L163.293 202.815L162.763 203.511L162.704 203.337L173.891 206.138Z" fill="#263238"/>
<path d="M152.354 188.686C152.439 187.573 152.49 185.624 152.618 183.405C152.832 179.925 152.687 177.08 152.413 177.089C152.354 176.802 150.336 177.228 147.952 176.828C146.944 176.672 145.971 176.333 145.08 175.828C144.782 175.645 144.496 175.442 144.226 175.219C144.226 175.027 144.14 174.923 144.089 174.923C143.85 174.923 143.585 177.707 143.371 181.195C143.284 182.545 143.284 183.9 143.371 185.25C142.934 184.762 142.338 184.453 141.694 184.379C141.05 184.306 140.401 184.473 139.869 184.849C139.337 185.226 138.957 185.786 138.8 186.426C138.643 187.066 138.72 187.743 139.016 188.33C139.312 188.917 139.807 189.374 140.41 189.617C141.013 189.86 141.681 189.872 142.292 189.651C142.903 189.43 143.414 188.99 143.73 188.414C144.046 187.839 144.147 187.165 144.012 186.52C144.097 185.406 144.14 183.457 144.277 181.239C144.345 180.169 144.371 179.151 144.379 178.264C145.447 179.151 146.75 179.694 148.123 179.821C149.449 180.011 150.801 179.825 152.029 179.281C151.918 180.369 151.807 181.796 151.713 183.362C151.625 184.712 151.625 186.066 151.713 187.416C151.537 187.228 151.339 187.065 151.123 186.929C150.598 186.605 149.979 186.475 149.371 186.562C148.762 186.648 148.202 186.946 147.785 187.404C147.367 187.863 147.118 188.454 147.079 189.078C147.04 189.702 147.214 190.32 147.571 190.829C147.928 191.337 148.447 191.704 149.039 191.869C149.632 192.033 150.262 191.984 150.823 191.73C151.384 191.476 151.842 191.033 152.12 190.475C152.397 189.917 152.476 189.279 152.345 188.669L152.354 188.686ZM148.217 178.89C146.907 178.671 145.617 178.339 144.362 177.898C144.362 177.115 144.362 176.445 144.285 175.941C144.408 176.093 144.542 176.236 144.687 176.367C145.579 177.111 146.656 177.59 147.798 177.75C149.326 178.067 150.913 177.878 152.328 177.211C152.19 177.753 152.099 178.306 152.054 178.864C150.779 178.999 149.494 179.008 148.217 178.89Z" fill="#381E3E"/>
</svg>
