<svg width="360" height="740" viewBox="0 0 360 740" fill="none" xmlns="http://www.w3.org/2000/svg">
    <defs>
        <filter id="filter0_f_209_1572" x="-555" y="-367" width="1533" height="1474" filterUnits="userSpaceOnUse" color-interpolation-filters="sRGB">
            <feFlood flood-opacity="0" result="BackgroundImageFix"/>
            <feBlend mode="normal" in="SourceGraphic" in2="BackgroundImageFix" result="shape"/>
            <feGaussianBlur stdDeviation="150" result="effect1_foregroundBlur_209_1572"/>
        </filter>
        <filter id="filter1_f_209_1572" x="-92" y="-314" width="931" height="728" filterUnits="userSpaceOnUse" color-interpolation-filters="sRGB">
            <feFlood flood-opacity="0" result="BackgroundImageFix"/>
            <feBlend mode="normal" in="SourceGraphic" in2="BackgroundImageFix" result="shape"/>
            <feGaussianBlur stdDeviation="120" result="effect1_foregroundBlur_209_1572"/>
        </filter>
        <radialGradient id="paint0_angular_209_1572" cx="0" cy="0" r="1" gradientUnits="userSpaceOnUse" gradientTransform="translate(211.5 370) rotate(90) scale(437 466.5)">
            <stop offset="0.15625" stop-color="#8E6677"/>
            <stop offset="0.412399" stop-color="#5D3067"/>
            <stop offset="0.536458" stop-color="#FBDC99"/>
            <stop offset="0.885417" stop-color="#B88193"/>
        </radialGradient>
        <radialGradient id="paint1_angular_209_1572" cx="0" cy="0" r="1" gradientUnits="userSpaceOnUse" gradientTransform="translate(211.5 370) rotate(90) scale(437 466.5)">
            <stop offset="0.15625" stop-color="#8E6677"/>
            <stop offset="0.412399" stop-color="#5D3067"/>
            <stop offset="0.78125" stop-color="#FBDC99"/>
            <stop offset="0.885417" stop-color="#B88193"/>
        </radialGradient>
        <radialGradient id="paint2_angular_209_1572" cx="0" cy="0" r="1" gradientUnits="userSpaceOnUse" gradientTransform="translate(559.585 246.031) rotate(99.8093) scale(211.108 525.964)">
            <stop offset="0.119792" stop-color="#381E3E"/>
            <stop offset="0.484375" stop-color="#C8C3E1"/>
            <stop offset="0.713542" stop-color="#6B5FB0"/>
        </radialGradient>
        <radialGradient id="paint3_angular_209_1572" cx="0" cy="0" r="1" gradientUnits="userSpaceOnUse" gradientTransform="translate(399.501 455.499) rotate(94.2367) scale(515.039 563.148)">
            <stop offset="0.341049" stop-color="#6B5FB0"/>
            <stop offset="0.816224" stop-color="#C8C3E1"/>
            <stop offset="1" stop-color="#381E3E"/>
        </radialGradient>
    </defs>
    <g filter="url(#filter0_f_209_1572)">
<path d="M678 153.781C678 250.522 266.592 807 10.4822 807C-245.627 807 -255 454.273 -255 357.532C-255 260.791 -183.936 -67 72.1739 -67C328.283 -67 678 57.0399 678 153.781Z" fill="url(#paint0_angular_209_1572)"/>
<path d="M678 153.781C678 250.522 266.592 807 10.4822 807C-245.627 807 -255 454.273 -255 357.532C-255 260.791 -183.936 -67 72.1739 -67C328.283 -67 678 57.0399 678 153.781Z" fill="url(#paint1_angular_209_1572)"/>
</g>
<path d="M916.606 816C916.606 906.299 525.5 361 252.5 377C12.5 510 -316 57.2988 -316 -32.9998C-316 -130.5 153.034 -78.4999 374.5 -78.4999C595.966 -78.4999 916.606 725.702 916.606 816Z" fill="url(#paint2_angular_209_1572)" fill-opacity="0.1"/>
<path d="M618.5 -104.915C662.008 55.4951 176.445 781.107 -85.5003 577.085C-347.445 373.064 -275.5 -221.878 -275.5 -309.415C-275.5 -396.952 -11.0956 -517.415 151 -517.415C313.096 -517.415 618.5 -192.452 618.5 -104.915Z" fill="url(#paint3_angular_209_1572)" fill-opacity="0.15"/>
<g filter="url(#filter1_f_209_1572)">
<ellipse cx="373.5" cy="50" rx="225.5" ry="124" fill="#9087C4"/>
</g>

</svg>
