<svg width="360" height="740" viewBox="0 0 360 740" fill="none" xmlns="http://www.w3.org/2000/svg">
<circle cx="-8" cy="80" r="69" fill="#D7D2D8" fill-opacity="0.44"/>
<circle cx="59" cy="-1" r="69" fill="#D7D2D8" fill-opacity="0.44"/>
<path d="M359.76 481.5C359.76 575.104 359.76 673.5 359.76 741C261.76 741 388.166 741 301.76 741C270.511 741 247.76 741 212.297 741C164.706 741 44.2604 741 0.251094 741C0.251053 696 0.25109 581.503 0.25109 529.239C0.25109 471.5 -0.31388 424.46 0.251117 377C0.846287 327.006 0.25109 294 0.25109 250.5C55.7547 162.325 164.932 112 279.76 112C307.482 112 334.314 116.628 359.76 125.284C359.76 279.5 359.76 316.623 359.76 481.5Z" fill="#EDEBF5"/>
</svg>
