<svg width="360" height="740" viewBox="0 0 360 740" fill="none" xmlns="http://www.w3.org/2000/svg">
    <defs>
        <filter id="filter0_f_218_48" x="-555" y="-614" width="1533" height="1474" filterUnits="userSpaceOnUse" color-interpolation-filters="sRGB">
            <feFlood flood-opacity="0" result="BackgroundImageFix"/>
            <feBlend mode="normal" in="SourceGraphic" in2="BackgroundImageFix" result="shape"/>
            <feGaussianBlur stdDeviation="150" result="effect1_foregroundBlur_218_48"/>
        </filter>
        <filter id="filter1_f_218_48" x="-92" y="-561" width="931" height="728" filterUnits="userSpaceOnUse" color-interpolation-filters="sRGB">
            <feFlood flood-opacity="0" result="BackgroundImageFix"/>
            <feBlend mode="normal" in="SourceGraphic" in2="BackgroundImageFix" result="shape"/>
            <feGaussianBlur stdDeviation="120" result="effect1_foregroundBlur_218_48"/>
        </filter>
        <radialGradient id="paint0_angular_218_48" cx="0" cy="0" r="1" gradientUnits="userSpaceOnUse" gradientTransform="translate(211.5 123) rotate(90) scale(437 466.5)">
            <stop offset="0.15625" stop-color="#8E6677"/>
            <stop offset="0.412399" stop-color="#5D3067"/>
            <stop offset="0.536458" stop-color="#FBDC99"/>
            <stop offset="0.885417" stop-color="#B88193"/>
        </radialGradient>
        <radialGradient id="paint1_angular_218_48" cx="0" cy="0" r="1" gradientUnits="userSpaceOnUse" gradientTransform="translate(211.5 123) rotate(90) scale(437 466.5)">
            <stop offset="0.15625" stop-color="#8E6677"/>
            <stop offset="0.412399" stop-color="#5D3067"/>
            <stop offset="0.78125" stop-color="#FBDC99"/>
            <stop offset="0.885417" stop-color="#B88193"/>
        </radialGradient>
        <radialGradient id="paint2_angular_218_48" cx="0" cy="0" r="1" gradientUnits="userSpaceOnUse" gradientTransform="translate(559.585 -0.968987) rotate(99.8093) scale(211.108 525.964)">
            <stop offset="0.119792" stop-color="#381E3E"/>
            <stop offset="0.484375" stop-color="#C8C3E1"/>
            <stop offset="0.713542" stop-color="#6B5FB0"/>
        </radialGradient>
        <radialGradient id="paint3_angular_218_48" cx="0" cy="0" r="1" gradientUnits="userSpaceOnUse" gradientTransform="translate(399.501 208.499) rotate(94.2367) scale(515.039 563.148)">
            <stop offset="0.341049" stop-color="#6B5FB0"/>
            <stop offset="0.816224" stop-color="#C8C3E1"/>
            <stop offset="1" stop-color="#381E3E"/>
        </radialGradient>
    </defs>
    <g filter="url(#filter0_f_218_48)">
<path d="M678 -93.2192C678 3.52173 266.592 560 10.4822 560C-245.627 560 -255 207.273 -255 110.532C-255 13.7907 -183.936 -314 72.1739 -314C328.283 -314 678 -189.96 678 -93.2192Z" fill="url(#paint0_angular_218_48)"/>
<path d="M678 -93.2192C678 3.52173 266.592 560 10.4822 560C-245.627 560 -255 207.273 -255 110.532C-255 13.7907 -183.936 -314 72.1739 -314C328.283 -314 678 -189.96 678 -93.2192Z" fill="url(#paint1_angular_218_48)"/>
</g>
<path d="M916.606 569C916.606 659.299 525.5 114 252.5 130C12.5 263 -316 -189.701 -316 -280C-316 -377.5 153.034 -325.5 374.5 -325.5C595.966 -325.5 916.606 478.702 916.606 569Z" fill="url(#paint2_angular_218_48)" fill-opacity="0.1"/>
<path d="M618.5 -351.915C662.008 -191.505 176.445 534.107 -85.5004 330.085C-347.446 126.064 -275.5 -468.878 -275.5 -556.415C-275.5 -643.952 -11.0956 -764.415 151 -764.415C313.096 -764.415 618.5 -439.452 618.5 -351.915Z" fill="url(#paint3_angular_218_48)" fill-opacity="0.15"/>
<g filter="url(#filter1_f_218_48)">
<ellipse cx="373.5" cy="-197" rx="225.5" ry="124" fill="#9087C4"/>
</g>
<path d="M179.838 224.919C216.346 224.919 245.943 195.123 245.943 158.368C245.943 121.613 216.346 91.8169 179.838 91.8169C143.329 91.8169 113.732 121.613 113.732 158.368C113.732 195.123 143.329 224.919 179.838 224.919Z" fill="#381E3E"/>
<g opacity="0.3">
<path d="M155.342 188.39C155.69 185.497 157.966 182.558 156.654 179.941C155.198 177.022 150.96 177.494 147.982 176.188C143.823 174.358 142.53 169.189 139.814 165.542C137.374 162.262 131.687 158.686 127.35 159.67C124.215 160.385 123.139 162.255 122.811 164.558L122.417 164.492C121.256 164.367 119.892 164.308 119.255 163.344C118.514 162.222 119.255 160.563 118.481 159.46C118.004 158.959 117.445 158.542 116.828 158.227C116.264 157.834 115.785 157.079 116.126 156.469C116.467 155.859 117.143 155.852 117.51 155.387C117.655 155.199 117.734 154.968 117.734 154.731C117.734 154.493 117.655 154.263 117.51 154.075C116.317 152.664 114.991 155.544 114.329 156.22C114.16 156.397 113.983 156.566 113.798 156.725C113.791 156.847 113.791 156.97 113.798 157.092C113.798 157.486 113.798 157.886 113.798 158.286C113.798 158.686 113.798 159.08 113.798 159.48C113.798 159.88 113.798 160.136 113.798 160.444C113.798 160.753 113.798 161.1 113.798 161.415C114.51 161.679 115.194 162.015 115.838 162.419C117.15 163.16 118.553 164.144 118.639 165.627C118.616 165.869 118.664 166.113 118.777 166.329C118.938 166.504 119.157 166.615 119.393 166.644C120.496 166.904 121.62 167.06 122.752 167.109C122.752 168.421 122.863 169.832 122.844 171.15C122.811 173.066 122.188 174.955 122.391 176.851C122.699 179.527 124.562 181.725 126.183 183.877C132.349 192.116 135.675 201.589 139.303 211.258C139.959 211.79 140.93 212.498 141.618 212.99C142.163 213.384 142.661 213.725 143.219 214.099C143.777 214.473 144.275 214.794 144.846 215.148C145.24 215.404 145.325 215.47 145.738 215.712C145.686 215.594 145.784 215.791 145.738 215.712C144.282 212.524 144.282 208.103 147.404 206.528C148.036 206.303 148.632 205.989 149.176 205.597C150.566 204.285 149.425 201.563 150.816 200.244C151.603 199.509 152.823 199.588 153.794 199.122C155.545 198.315 156.11 196.078 155.972 194.156C155.834 192.234 155.126 190.306 155.342 188.39Z" fill="black"/>
</g>
<g opacity="0.3">
<path d="M117.825 139.676C119.059 138.619 121.191 138.495 122.142 139.813C122.798 140.751 122.667 142.044 122.489 143.192C122.247 144.74 122.011 146.288 121.755 147.836C121.641 148.296 121.664 148.779 121.82 149.227C122.28 150.211 123.893 150.021 124.51 149.142C125.127 148.263 125.061 147.062 124.897 145.993C124.733 144.924 124.51 143.789 124.897 142.785C125.947 140.292 129.66 140.673 131.811 139.052C133.123 138.049 133.746 136.363 134.54 134.887C135.334 133.411 136.666 131.935 138.338 132.013C138.903 132.013 139.46 132.243 140.024 132.223C141.677 132.171 142.648 129.75 141.468 128.583C141.194 128.361 140.947 128.108 140.733 127.828C140.617 127.536 140.606 127.213 140.702 126.914C140.798 126.615 140.994 126.359 141.258 126.188C141.789 125.861 142.393 125.667 143.016 125.624C144.426 125.388 145.837 125.171 147.247 124.968C148.808 124.725 150.802 123.918 150.586 122.344C150.396 120.993 148.565 120.376 148.297 119.064C148.273 118.731 148.214 118.401 148.119 118.08C147.686 117.227 146.401 117.568 145.574 118.028C145.468 117.73 145.296 117.462 145.069 117.243C144.843 117.023 144.568 116.859 144.268 116.763C143.968 116.668 143.649 116.642 143.338 116.69C143.026 116.737 142.729 116.856 142.471 117.037C141.632 117.693 141.527 118.939 141.238 119.976C140.543 122.488 138.548 124.391 136.646 126.155C136.069 126.818 135.281 127.263 134.416 127.415C133.55 127.454 132.638 126.523 133.038 125.762C133.307 125.237 134.061 124.935 133.989 124.345C133.884 123.617 132.605 123.689 132.356 122.967C132.861 120.894 135.236 120.041 137.053 118.933C139.282 117.573 140.977 115.489 141.855 113.029C141.95 112.842 142.004 112.637 142.014 112.428C142.024 112.219 141.99 112.01 141.914 111.815C141.645 111.297 140.943 111.212 140.346 111.212C138.942 111.212 137.197 111.382 136.685 112.688C136.416 113.39 136.613 114.183 136.443 114.912C135.957 117.089 132.972 117.332 131.155 118.624C130.514 119.209 129.827 119.742 129.102 120.219C128.21 120.537 127.267 120.688 126.321 120.665C126.157 120.665 125.73 120.665 125.56 120.665C124.982 121.465 124.53 122.193 123.998 123.02C123.467 123.846 122.929 124.778 122.43 125.644C120.105 129.705 118.222 134.005 116.815 138.468C116.303 140.036 115.857 141.748 115.464 143.329C115.07 144.91 114.808 146.478 114.526 148.131C115.082 146.795 115.482 145.4 115.72 143.972C116.087 142.385 116.599 140.712 117.825 139.676Z" fill="black"/>
</g>
<g opacity="0.3">
<path d="M173.375 109.775C173.999 108.955 173.815 107.807 174.222 106.83C174.878 105.255 176.983 104.691 177.712 103.143C177.987 102.546 178.059 101.831 178.545 101.372C179.03 100.912 179.555 100.932 179.988 100.598C180.965 99.8498 180.559 98.1507 179.522 97.4947C176.931 95.8351 172.162 97.7506 169.925 99.3709C167.045 101.457 164.224 103.963 160.393 103.72C159.337 103.648 158.241 103.359 157.251 103.72C156.26 104.081 155.65 105.583 156.503 106.206C156.975 106.554 157.651 106.462 158.182 106.705C159.173 107.164 159.271 108.594 158.786 109.572C158.3 110.549 157.435 111.277 156.864 112.196C156.312 113.105 156.064 114.167 156.155 115.226C156.164 115.598 156.248 115.964 156.402 116.303C156.557 116.641 156.779 116.944 157.054 117.194C158.241 118.146 160.059 117.332 161.069 116.191C162.079 115.049 162.774 113.567 164.08 112.786C164.755 112.429 165.48 112.176 166.232 112.038L171.224 110.851C172.042 110.746 172.8 110.367 173.375 109.775Z" fill="black"/>
</g>
<g opacity="0.3">
<path d="M245.922 158.221C245.922 157.269 245.883 156.325 245.837 155.387C245.791 154.449 245.745 153.497 245.653 152.566C245.581 151.812 245.516 151.057 245.411 150.316C245.306 149.575 245.201 148.63 245.076 147.856C244.716 145.613 244.23 143.392 243.62 141.204C243.371 140.345 242.964 139.426 242.675 138.58C242.387 137.734 242.105 136.894 241.79 136.054C241.455 135.398 241.101 134.815 240.714 134.204C237.04 128.392 231.707 123.833 227.666 118.27C226.354 116.46 225.324 114.99 222.995 114.61C219.545 114.072 217.793 116.04 215.346 112.766C214.69 111.887 213.542 111.074 212.565 111.592L213.352 113.685C213.417 113.831 213.444 113.991 213.431 114.151C213.378 114.643 212.65 114.774 212.23 114.505C211.856 114.17 211.544 113.77 211.312 113.324C211.025 112.954 210.664 112.647 210.251 112.424C209.839 112.201 209.385 112.066 208.918 112.028C208.451 111.99 207.982 112.049 207.539 112.202C207.096 112.355 206.69 112.599 206.346 112.917C206.315 112.585 206.197 112.266 206.004 111.995C205.81 111.723 205.548 111.507 205.244 111.369C205.194 111.685 205.077 111.986 204.903 112.253C204.728 112.521 204.499 112.748 204.23 112.921C203.961 113.094 203.659 113.208 203.343 113.256C203.027 113.304 202.705 113.285 202.397 113.199C202.2 112.543 203.341 112.445 203.742 111.887C204.142 111.33 203.663 110.661 203.197 110.234C201.931 109.135 200.321 108.511 198.645 108.47C197.588 108.47 196.447 108.647 195.529 108.102C194.997 107.787 194.617 107.263 194.072 106.961C192.911 106.305 191.448 106.908 190.287 107.558C188.686 108.443 187.007 109.565 186.469 111.31C185.931 113.055 187.165 115.404 188.982 115.18C189.431 115.038 189.903 114.985 190.372 115.023C190.679 115.16 190.937 115.385 191.114 115.671C191.291 115.956 191.377 116.288 191.363 116.624C191.322 117.294 191.427 117.966 191.671 118.592C191.986 119.182 192.937 119.471 193.298 118.92C194.157 118.1 194.053 116.729 193.836 115.568C193.62 114.406 193.383 113.101 194.072 112.15C194.761 111.199 196.762 111.494 196.624 112.675C196.545 113.331 195.758 113.868 195.791 114.564C195.824 115.259 196.69 115.653 197.398 115.62C198.107 115.587 198.835 115.338 199.524 115.522C200.212 115.705 200.777 116.597 200.278 117.109C199.405 118.093 197.149 116.407 196.703 117.634C196.572 117.942 196.703 118.29 196.703 118.638C196.617 119.661 195.332 120.035 194.308 120.16C193.293 120.37 192.24 120.295 191.265 119.943C190.333 119.504 189.697 118.277 190.228 117.404C190.086 117.331 189.93 117.288 189.77 117.279C189.61 117.269 189.45 117.292 189.3 117.347C189.15 117.401 189.013 117.487 188.897 117.597C188.781 117.708 188.689 117.841 188.627 117.988C188.407 118.598 188.366 119.258 188.509 119.891C187.427 119.648 186.449 120.547 185.833 121.478C185.216 122.41 184.613 123.446 183.557 123.794C182.5 124.141 181.024 123.676 180.467 124.64C179.745 125.893 181.838 127.48 181.123 128.727C180.703 129.429 179.699 129.383 178.905 129.626C176.8 130.223 176.072 133.299 177.502 134.939C178.932 136.579 181.798 136.487 183.314 134.939C184.377 133.863 184.803 132.348 185.564 131.049C186.325 129.75 187.775 128.589 189.218 129.009C189.774 129.218 190.283 129.537 190.713 129.947L192.813 131.718C193.265 132.092 193.757 132.564 193.711 133.148C193.672 133.621 193.305 133.988 193.147 134.428C192.708 135.694 194.538 136.894 195.693 136.205C196.847 135.516 196.965 133.745 196.178 132.656C195.096 131.154 192.636 130.4 192.701 128.537C193.954 127.513 195.929 128.589 196.637 130.045C197.346 131.502 197.392 133.201 198.008 134.696C198.625 136.192 200.35 137.53 201.793 136.802C201.413 135.49 201.052 134.218 200.672 132.932C201.597 132.243 202.64 134.244 203.748 133.916C204.404 133.706 204.503 132.742 204.207 132.092C203.912 131.443 203.401 130.905 203.276 130.203C203.066 128.924 204.489 127.782 205.775 127.992C206.405 128.15 206.973 128.491 207.409 128.972C207.844 129.453 208.127 130.053 208.222 130.695C208.274 131.205 208.386 131.707 208.557 132.191C209.042 133.194 210.282 133.503 211.312 133.916C212.342 134.329 213.411 135.366 212.985 136.396C212.781 136.842 212.329 137.268 212.48 137.708C212.63 138.147 213.247 138.291 213.247 138.731C213.247 139.02 212.932 139.223 212.657 139.334C211.968 139.616 211.213 139.715 210.544 140.036C210.199 140.17 209.899 140.401 209.683 140.701C209.466 141.002 209.341 141.359 209.324 141.729C209.403 142.778 210.636 143.277 211.233 144.149C211.83 145.022 211.719 146.072 212.073 147.016C212.494 147.847 213.026 148.617 213.654 149.306C215.386 151.667 215.799 154.711 216.645 157.512C217.019 158.778 217.708 160.189 219.007 160.431C219.728 160.488 220.452 160.348 221.099 160.025C222.969 159.283 224.917 158.483 226.223 156.968C227.528 155.452 227.981 152.966 226.629 151.47C226.473 151.253 226.237 151.107 225.973 151.064C225.62 151.084 225.28 151.202 224.989 151.405C224.491 151.583 223.952 151.615 223.435 151.499C222.918 151.383 222.445 151.123 222.07 150.749C221.328 149.995 220.74 149.104 220.338 148.125L218.79 145.002C219.133 144.782 219.54 144.684 219.945 144.722C220.35 144.76 220.731 144.932 221.027 145.212C221.6 145.786 222.112 146.417 222.556 147.095C224.11 149.063 226.675 149.896 229.155 150.191C229.79 150.224 230.416 150.355 231.012 150.578C232.868 151.424 233.399 154.153 235.354 154.737C235.917 154.828 236.473 154.953 237.021 155.111C237.385 155.34 237.697 155.642 237.937 156C238.176 156.357 238.338 156.76 238.411 157.184C238.838 158.726 238.982 160.346 239.631 161.809C240.281 163.272 241.599 164.597 243.167 164.623C243.658 164.616 244.143 164.512 244.594 164.316C245.044 164.12 245.451 163.836 245.791 163.482C245.87 162.039 245.968 160.543 245.968 159.08C245.942 158.824 245.942 158.522 245.922 158.221Z" fill="black"/>
</g>
<g opacity="0.3">
<path d="M219.171 185.654C218.187 185.845 217.99 186.429 217.452 187.157C216.757 188.101 215.76 189.053 215.123 189.991C214.054 191.578 215.018 194.058 213.608 195.396C213.291 195.629 212.987 195.879 212.696 196.144C212.441 196.497 212.334 196.937 212.397 197.368C212.461 197.799 212.691 198.189 213.037 198.453C213.401 198.696 213.826 198.83 214.264 198.838C214.701 198.846 215.131 198.728 215.504 198.499C216.24 198.016 216.777 197.282 217.012 196.433C217.107 195.812 217.37 195.228 217.773 194.747C218.587 194.038 219.84 194.563 220.909 194.412C225.422 193.776 223.481 184.802 219.171 185.654Z" fill="black"/>
</g>
<g opacity="0.3">
<path d="M220.706 173.171C223.33 170.914 224.366 165.817 221.126 164.643C219.899 164.197 218.502 164.558 217.268 164.085C215.681 163.469 214.94 161.691 214.369 160.084C212.86 155.881 211.353 151.674 209.849 147.462C208.944 144.93 207.566 141.991 204.903 141.617C203.387 141.407 201.925 142.129 200.422 142.398C195.26 143.343 186.574 130.839 182.645 139.256C182.094 136.966 178.381 137.826 177.193 139.859C176.006 141.893 175.75 144.576 173.867 145.986C172.431 147.062 170.325 147.128 169.157 148.486C168.331 149.443 168.186 150.788 168.081 152.048C167.885 154.455 167.688 156.856 167.485 159.264C167.327 161.199 167.196 163.272 168.141 164.964C169.085 166.657 171.611 167.588 173.047 166.276C173.703 165.673 173.985 164.761 174.523 164.046C174.971 163.478 175.573 163.051 176.258 162.818C176.942 162.586 177.68 162.556 178.381 162.734C179.536 163.132 180.554 163.848 181.32 164.8C188.044 172.016 190.451 182.348 190.746 192.221C190.805 194.032 190.805 195.888 191.468 197.568C192.249 199.536 193.889 201.136 194.374 203.196C194.748 204.784 194.374 206.522 195.076 208.004C196.329 210.727 200.508 210.838 202.784 208.89C205.06 206.942 205.847 203.793 206.313 200.828C206.779 197.863 207.068 194.747 208.727 192.254C209.757 190.699 211.266 189.459 212.007 187.747C213.011 185.353 212.27 182.499 213.201 180.085C214.434 176.858 218.095 175.428 220.706 173.171Z" fill="black"/>
</g>
<path d="M91.2954 223.418C87.6974 223.711 84.0962 222.892 80.9783 221.073C77.8604 219.254 75.3759 216.521 73.8606 213.245C72.3452 209.969 71.8719 206.306 72.5047 202.752C73.1375 199.198 74.8458 195.924 77.3989 193.372C79.952 190.82 83.2269 189.113 86.7811 188.481C90.3354 187.85 93.9978 188.325 97.2736 189.841C100.549 191.358 103.281 193.844 105.099 196.962C106.917 200.081 107.734 203.683 107.44 207.28C107.095 211.446 105.283 215.355 102.327 218.31C99.3704 221.265 95.4613 223.075 91.2954 223.418Z" fill="#FAFAFA"/>
<path d="M91.2954 223.418L91.5775 223.366L92.4106 223.247C92.8526 223.182 93.2906 223.093 93.7226 222.979C94.3254 222.843 94.9191 222.67 95.5004 222.46C99.2483 221.141 102.444 218.599 104.573 215.244C105.276 214.15 105.857 212.982 106.305 211.761C106.529 211.115 106.72 210.458 106.875 209.793C106.948 209.445 107.033 209.104 107.092 208.75C107.151 208.396 107.184 208.035 107.23 207.667C107.276 207.302 107.296 206.934 107.289 206.565C107.289 206.198 107.289 205.824 107.289 205.444C107.249 204.696 107.184 203.928 107.079 203.161C107 202.774 106.928 202.393 106.849 202.006C106.803 201.816 106.777 201.619 106.725 201.429L106.541 200.858C106.423 200.478 106.298 200.091 106.173 199.704L105.681 198.588L105.432 198.024C105.34 197.841 105.229 197.663 105.124 197.48L104.468 196.397L103.72 195.374L103.346 194.856L102.913 194.377C101.764 193.054 100.419 191.914 98.9247 190.999L97.757 190.343C97.3568 190.139 96.937 189.975 96.5237 189.785C96.3138 189.7 96.1104 189.595 95.8677 189.516L95.2117 189.313C94.7815 189.159 94.3436 189.027 93.8997 188.919C92.0752 188.498 90.1989 188.345 88.3303 188.466C84.76 188.779 81.37 190.173 78.6122 192.462C75.8544 194.751 73.8599 197.827 72.8946 201.278C72.4833 202.825 72.2803 204.42 72.2911 206.021C72.2755 206.407 72.2931 206.793 72.3436 207.175L72.442 208.317C72.5797 209.052 72.7044 209.793 72.8946 210.495C73.6223 213.116 74.942 215.535 76.7519 217.567C78.2517 219.235 80.0492 220.61 82.0524 221.621L83.3644 222.204C83.7842 222.388 84.2172 222.493 84.6173 222.637C85.3528 222.876 86.1049 223.06 86.8674 223.188C87.9241 223.374 88.9959 223.46 90.0687 223.444H91.1904H90.9084L90.0687 223.484C88.9912 223.525 87.9122 223.459 86.8477 223.287C86.0764 223.169 85.3154 222.991 84.5714 222.755C84.1647 222.624 83.7252 222.519 83.2988 222.336L81.9868 221.758C79.7261 220.65 77.7246 219.078 76.1127 217.144C74.5009 215.21 73.3149 212.958 72.6322 210.534C72.4354 209.819 72.3108 209.071 72.1599 208.323L72.0615 207.169C72.0124 206.78 71.9926 206.387 72.0024 205.995C71.9633 203.421 72.4914 200.87 73.5492 198.523C74.607 196.176 76.1685 194.091 78.1229 192.415C81.0024 189.913 84.6065 188.396 88.409 188.086C90.3131 187.959 92.2254 188.116 94.0834 188.552C94.5382 188.662 94.987 188.796 95.4282 188.952L96.0842 189.162C96.3072 189.24 96.5106 189.345 96.7402 189.437C97.16 189.627 97.5864 189.798 97.9997 190.008L99.1805 190.664C100.704 191.603 102.076 192.768 103.248 194.121L103.681 194.607L104.068 195.131L104.822 196.174C105.032 196.548 105.249 196.916 105.478 197.283C105.577 197.467 105.695 197.644 105.786 197.834L106.042 198.411C106.206 198.792 106.37 199.172 106.541 199.553C106.711 199.933 106.784 200.333 106.908 200.72L107.092 201.304C107.144 201.495 107.177 201.698 107.217 201.895L107.453 203.069C107.551 203.85 107.617 204.63 107.656 205.391C107.656 205.778 107.656 206.159 107.623 206.533C107.625 206.908 107.603 207.282 107.558 207.654C107.505 208.022 107.459 208.389 107.413 208.75C107.367 209.111 107.262 209.458 107.19 209.806C107.028 210.489 106.831 211.163 106.6 211.827C106.135 213.063 105.539 214.246 104.822 215.356C103.586 217.266 101.999 218.924 100.145 220.243C98.746 221.227 97.2128 222.005 95.5922 222.552C95.0017 222.754 94.3992 222.918 93.7882 223.044C93.3561 223.15 92.918 223.228 92.4762 223.28L91.6431 223.366C91.5295 223.396 91.4129 223.413 91.2954 223.418Z" fill="#263238"/>
<path d="M251.131 166.572C251.104 165.275 251.153 163.979 251.275 162.688C251.284 161.391 251.376 160.096 251.551 158.811C251.717 160.103 251.739 161.41 251.617 162.708C251.605 164.01 251.442 165.307 251.131 166.572Z" fill="#CEAB5E"/>
<path d="M247.812 181.725C248.06 180.454 248.385 179.199 248.783 177.966C249.077 176.704 249.445 175.46 249.885 174.24C249.778 175.538 249.52 176.819 249.117 178.058C248.82 179.325 248.382 180.555 247.812 181.725Z" fill="#CEAB5E"/>
<path d="M241.291 195.816C241.806 194.628 242.396 193.473 243.056 192.359C243.613 191.19 244.24 190.055 244.932 188.961C244.051 191.408 242.825 193.716 241.291 195.816Z" fill="#CEAB5E"/>
<path d="M231.897 208.136C232.657 207.087 233.481 206.085 234.364 205.138C235.156 204.111 236.013 203.136 236.929 202.219C236.283 203.349 235.508 204.402 234.62 205.354C233.821 206.382 232.908 207.315 231.897 208.136Z" fill="#CEAB5E"/>
<path d="M220.083 218.186C221.044 217.318 222.061 216.514 223.126 215.778C224.125 214.949 225.172 214.18 226.262 213.476C225.389 214.442 224.407 215.305 223.336 216.047C222.333 216.877 221.242 217.594 220.083 218.186Z" fill="#CEAB5E"/>
<path d="M206.379 225.461C207.508 224.824 208.676 224.259 209.875 223.768C211.027 223.171 212.215 222.645 213.431 222.194C212.367 222.946 211.223 223.577 210.02 224.076C208.862 224.674 207.641 225.139 206.379 225.461Z" fill="#CEAB5E"/>
<path d="M191.435 229.6C192.675 229.226 193.937 228.928 195.214 228.708C196.466 228.37 197.739 228.114 199.025 227.94C196.588 228.854 194.031 229.413 191.435 229.6Z" fill="#CEAB5E"/>
<path d="M175.96 230.433C177.25 230.299 178.55 230.277 179.844 230.368C181.138 230.277 182.437 230.299 183.727 230.433C181.151 230.801 178.536 230.801 175.96 230.433Z" fill="#CEAB5E"/>
<path d="M160.629 227.96C161.914 228.137 163.187 228.393 164.441 228.727C165.717 228.951 166.978 229.248 168.219 229.62C166.919 229.581 165.627 229.394 164.369 229.062C163.085 228.836 161.831 228.466 160.629 227.96Z" fill="#CEAB5E"/>
<path d="M146.224 222.194C147.437 222.646 148.623 223.172 149.773 223.768C150.973 224.258 152.141 224.823 153.269 225.461C150.778 224.703 148.407 223.599 146.224 222.181V222.194Z" fill="#CEAB5E"/>
<path d="M133.399 213.482C134.486 214.186 135.531 214.952 136.528 215.778C137.593 216.514 138.61 217.318 139.572 218.186C138.402 217.599 137.302 216.884 136.292 216.054C135.233 215.309 134.263 214.446 133.399 213.482Z" fill="#CEAB5E"/>
<path d="M122.726 202.219C123.638 203.14 124.494 204.115 125.291 205.138C126.172 206.087 126.996 207.088 127.757 208.136C126.746 207.319 125.832 206.388 125.035 205.361C124.148 204.405 123.373 203.351 122.726 202.219Z" fill="#CEAB5E"/>
<path d="M114.716 188.935C115.414 190.029 116.043 191.166 116.599 192.339C117.256 193.462 117.845 194.623 118.363 195.816C117.553 194.804 116.86 193.704 116.297 192.536C115.637 191.398 115.107 190.19 114.716 188.935Z" fill="#CEAB5E"/>
<path d="M109.77 174.24C110.209 175.459 110.575 176.703 110.865 177.966C111.267 179.198 111.593 180.453 111.843 181.725C111.267 180.557 110.826 179.326 110.531 178.058C110.129 176.819 109.874 175.538 109.77 174.24Z" fill="#CEAB5E"/>
<path d="M108.103 158.818C108.274 160.103 108.367 161.398 108.379 162.695C108.506 163.985 108.552 165.282 108.517 166.578C108.215 165.312 108.055 164.016 108.038 162.714C107.911 161.417 107.933 160.11 108.103 158.818Z" fill="#CEAB5E"/>
<path d="M109.763 143.395C109.658 144.687 109.471 145.971 109.206 147.239C109.057 148.527 108.827 149.805 108.517 151.064C108.487 149.762 108.606 148.461 108.871 147.187C109.025 145.893 109.325 144.621 109.763 143.395Z" fill="#CEAB5E"/>
<path d="M114.716 128.694C114.333 129.933 113.873 131.147 113.338 132.328C112.913 133.552 112.413 134.748 111.843 135.91C112.09 134.631 112.486 133.385 113.023 132.197C113.453 130.969 114.021 129.794 114.716 128.694Z" fill="#CEAB5E"/>
<path d="M122.726 115.41C122.078 116.533 121.366 117.617 120.594 118.657C119.915 119.76 119.17 120.82 118.363 121.832C118.889 120.639 119.549 119.51 120.331 118.467C121.012 117.361 121.815 116.336 122.726 115.41Z" fill="#CEAB5E"/>
<path d="M133.392 104.153C132.522 105.115 131.595 106.024 130.617 106.875C129.719 107.811 128.762 108.688 127.751 109.499C128.516 108.449 129.396 107.488 130.375 106.633C131.282 105.693 132.294 104.861 133.392 104.153Z" fill="#CEAB5E"/>
<path d="M146.224 95.448C145.172 96.2004 144.076 96.8904 142.944 97.5144C141.864 98.2357 140.742 98.8928 139.585 99.4824C140.555 98.6136 141.622 97.8607 142.766 97.2389C143.847 96.5123 145.007 95.9115 146.224 95.448Z" fill="#CEAB5E"/>
<path d="M160.623 89.6948C159.431 90.203 158.211 90.6411 156.969 91.0068C155.761 91.4707 154.525 91.8585 153.269 92.1679C154.405 91.5356 155.609 91.0338 156.857 90.6723C158.071 90.2027 159.334 89.8747 160.623 89.6948Z" fill="#CEAB5E"/>
<path d="M175.96 87.1955C174.685 87.4351 173.397 87.5972 172.103 87.681C170.823 87.8752 169.533 87.9913 168.239 88.0286C170.761 87.3894 173.36 87.1089 175.96 87.1955Z" fill="#CEAB5E"/>
<path d="M191.428 88.0286C190.132 87.9874 188.84 87.8691 187.558 87.6744C186.264 87.594 184.976 87.434 183.701 87.1955C185.001 87.0936 186.308 87.1421 187.597 87.3398C188.897 87.4195 190.183 87.6506 191.428 88.0286Z" fill="#CEAB5E"/>
<path d="M206.379 92.168C205.122 91.851 203.887 91.4567 202.679 90.9872C201.433 90.6256 200.21 90.1874 199.018 89.6752C200.306 89.8589 201.569 90.1867 202.784 90.6526C204.036 91.0178 205.243 91.5263 206.379 92.168Z" fill="#CEAB5E"/>
<path d="M220.076 99.443C218.917 98.8568 217.795 98.1995 216.717 97.475C215.583 96.8554 214.488 96.1675 213.437 95.4152C214.658 95.869 215.822 96.4611 216.908 97.1798C218.048 97.8086 219.111 98.5682 220.076 99.443Z" fill="#CEAB5E"/>
<path d="M231.891 109.486C230.883 108.671 229.925 107.794 229.024 106.862C228.046 106.015 227.122 105.108 226.256 104.146C227.347 104.853 228.355 105.68 229.26 106.613C230.243 107.468 231.125 108.432 231.891 109.486Z" fill="#CEAB5E"/>
<path d="M241.291 121.826C240.478 120.817 239.731 119.756 239.054 118.651C238.275 117.603 237.563 116.508 236.922 115.371C237.841 116.294 238.651 117.32 239.336 118.428C240.114 119.483 240.77 120.623 241.291 121.826Z" fill="#CEAB5E"/>
<path d="M247.812 135.903C247.239 134.739 246.738 133.54 246.309 132.315C245.781 131.133 245.321 129.922 244.932 128.688C245.63 129.787 246.2 130.962 246.631 132.191C247.162 133.38 247.558 134.626 247.812 135.903Z" fill="#CEAB5E"/>
<path d="M251.131 151.051C250.836 149.79 250.617 148.513 250.475 147.226C250.209 145.958 250.023 144.674 249.917 143.382C250.357 144.609 250.658 145.88 250.816 147.174C251.07 148.449 251.176 149.75 251.131 151.051Z" fill="#CEAB5E"/>
<path d="M96.3334 189.398C96.2482 189.359 98.8656 183.415 102.185 176.12C105.504 168.826 108.26 162.941 108.345 163C108.43 163.059 105.813 168.983 102.493 176.278C99.1739 183.573 96.4187 189.437 96.3334 189.398Z" fill="#CEAB5E"/>
<path d="M91.4988 206.139C92.3309 205.773 93.0371 205.171 93.5293 204.407C94.0216 203.643 94.2782 202.751 94.2671 201.842C94.3021 201.25 94.2162 200.657 94.0144 200.1C93.8127 199.542 93.4994 199.032 93.0937 198.599C92.6879 198.167 92.1983 197.822 91.6547 197.585C91.1111 197.348 90.525 197.225 89.932 197.222C89.3391 197.219 88.7518 197.337 88.2061 197.569C87.6604 197.801 87.1677 198.142 86.7581 198.571C86.3485 198.999 86.0306 199.507 85.8238 200.063C85.617 200.619 85.5257 201.211 85.5554 201.803C85.5388 202.719 85.7933 203.619 86.2871 204.391C86.7808 205.162 87.4917 205.77 88.3303 206.139C81.626 207.149 81.9277 214.437 81.9277 214.437L97.7898 214.51C97.7898 214.51 98.1506 207.143 91.4988 206.139Z" fill="#381E3E"/>
<path d="M268.338 242.031C265.057 243.542 261.392 244.009 257.838 243.37C254.283 242.731 251.01 241.017 248.461 238.458C245.912 235.899 244.21 232.619 243.585 229.062C242.96 225.505 243.442 221.842 244.965 218.567C246.489 215.293 248.981 212.565 252.105 210.752C255.229 208.939 258.834 208.129 262.433 208.431C266.032 208.732 269.451 210.132 272.23 212.439C275.008 214.747 277.011 217.852 277.968 221.334C279.072 225.366 278.71 229.658 276.947 233.448C275.183 237.238 272.133 240.279 268.338 242.031Z" fill="#FAFAFA"/>
<path d="M268.338 242.031C268.412 241.971 268.494 241.92 268.581 241.88L269.322 241.487C269.721 241.271 270.109 241.034 270.483 240.778C271.004 240.443 271.504 240.074 271.979 239.676C273.284 238.596 274.432 237.34 275.39 235.943C277.379 232.985 278.447 229.504 278.46 225.939C278.451 225.246 278.403 224.554 278.316 223.866C278.263 223.519 278.23 223.165 278.165 222.81C278.099 222.456 278.001 222.108 277.916 221.754C277.836 221.395 277.731 221.042 277.601 220.698L277.24 219.635C276.945 218.94 276.617 218.245 276.256 217.556L275.646 216.552C275.541 216.388 275.442 216.218 275.331 216.054L274.964 215.581C274.721 215.26 274.472 214.925 274.222 214.623L273.376 213.744L272.95 213.298C272.799 213.154 272.635 213.029 272.477 212.892L271.52 212.091L270.47 211.383L269.932 211.029L269.368 210.727C267.831 209.882 266.174 209.278 264.454 208.936L263.142 208.706C262.696 208.654 262.237 208.641 261.791 208.601L261.135 208.562H260.479C260.02 208.595 259.561 208.562 259.102 208.647C257.245 208.873 255.432 209.373 253.722 210.13C250.457 211.634 247.729 214.101 245.907 217.201C244.085 220.3 243.255 223.883 243.528 227.468C243.672 229.063 244.027 230.631 244.584 232.132C244.706 232.499 244.855 232.857 245.03 233.201L245.509 234.231C245.903 234.887 246.264 235.543 246.683 236.127C248.267 238.34 250.339 240.158 252.738 241.441C254.718 242.5 256.878 243.179 259.108 243.442L260.532 243.54C260.991 243.54 261.437 243.54 261.844 243.54C262.618 243.511 263.39 243.428 264.153 243.291C265.22 243.091 266.266 242.79 267.275 242.392L268.062 242.103C268.15 242.064 268.243 242.035 268.338 242.018C268.338 242.018 268.253 242.064 268.076 242.136L267.302 242.458C266.303 242.87 265.266 243.18 264.205 243.382C263.444 243.545 262.672 243.652 261.896 243.704C261.463 243.704 261.017 243.77 260.584 243.743L259.134 243.651C256.632 243.386 254.214 242.595 252.038 241.332C249.862 240.068 247.977 238.359 246.506 236.317C246.073 235.714 245.706 235.051 245.306 234.395L244.814 233.346C244.634 232.997 244.481 232.635 244.355 232.263C243.783 230.738 243.417 229.143 243.266 227.52C242.976 223.878 243.806 220.235 245.644 217.078C247.482 213.92 250.241 211.4 253.552 209.854C255.299 209.088 257.149 208.58 259.042 208.346C259.502 208.273 259.974 208.293 260.44 208.26H261.135C261.371 208.26 261.601 208.26 261.83 208.3C262.29 208.332 262.755 208.346 263.208 208.405L264.559 208.641C266.31 209 267.996 209.624 269.558 210.491L270.135 210.799L270.673 211.16L271.743 211.888L272.72 212.708C272.878 212.846 273.048 212.977 273.199 213.121L273.632 213.574L274.491 214.473L275.246 215.45L275.613 215.929C275.731 216.093 275.83 216.27 275.934 216.441L276.558 217.464C276.918 218.166 277.246 218.874 277.542 219.576C277.666 219.944 277.784 220.304 277.909 220.659C278.038 221.01 278.143 221.369 278.224 221.734C278.309 222.102 278.388 222.456 278.467 222.817C278.545 223.178 278.572 223.532 278.618 223.886C278.705 224.583 278.751 225.284 278.755 225.985C278.745 227.31 278.591 228.63 278.296 229.921C277.393 233.816 275.193 237.288 272.058 239.768C271.575 240.163 271.067 240.524 270.536 240.85C270.156 241.093 269.762 241.313 269.355 241.506L268.6 241.874L268.338 242.031Z" fill="#263238"/>
<path d="M262.604 225.579C263.435 225.211 264.14 224.608 264.632 223.845C265.124 223.081 265.381 222.19 265.373 221.282C265.408 220.69 265.323 220.097 265.121 219.539C264.92 218.982 264.607 218.471 264.202 218.038C263.796 217.606 263.307 217.26 262.764 217.023C262.22 216.786 261.634 216.662 261.041 216.659C260.448 216.655 259.861 216.773 259.315 217.005C258.769 217.236 258.276 217.576 257.866 218.005C257.456 218.433 257.138 218.941 256.931 219.496C256.724 220.052 256.632 220.644 256.661 221.236C256.641 222.153 256.895 223.056 257.389 223.829C257.883 224.602 258.595 225.211 259.436 225.579C252.712 226.589 253.033 233.864 253.033 233.864L268.889 233.936C268.889 233.936 269.25 226.582 262.604 225.579Z" fill="#381E3E"/>
<path d="M247.018 215.24C246.959 215.312 244.099 213.148 240.629 210.399C237.158 207.65 234.397 205.361 234.456 205.289C234.515 205.216 237.375 207.381 240.839 210.13C244.302 212.879 247.077 215.168 247.018 215.24Z" fill="#CEAB5E"/>
<path d="M98.8932 101.949C95.2955 102.242 91.6945 101.424 88.5767 99.6046C85.4589 97.7857 82.9743 95.0538 81.4587 91.7777C79.9431 88.5017 79.4694 84.8395 80.1015 81.2856C80.7337 77.7318 82.4413 74.4576 84.9937 71.9052C87.5461 69.3528 90.8203 67.6452 94.3741 67.013C97.928 66.3809 101.59 66.8546 104.866 68.3702C108.142 69.8858 110.874 72.3704 112.693 75.4882C114.512 78.6061 115.33 82.207 115.037 85.8047C114.693 89.9712 112.881 93.8804 109.925 96.8366C106.969 99.7928 103.06 101.604 98.8932 101.949Z" fill="#FAFAFA"/>
<path d="M98.8932 101.949C98.9853 101.922 99.0798 101.905 99.1753 101.896L100.008 101.772C100.451 101.711 100.889 101.621 101.32 101.503C101.924 101.37 102.518 101.197 103.098 100.985C105.574 100.108 107.826 98.6954 109.694 96.8482C111.561 95.0011 112.998 92.7647 113.902 90.2984C114.131 89.6541 114.322 88.997 114.473 88.3304C114.545 87.9893 114.637 87.6744 114.69 87.2874L114.827 86.2115C114.872 85.8459 114.894 85.4778 114.893 85.1094V83.9877C114.854 83.2333 114.788 82.4658 114.69 81.6982L114.453 80.5437C114.414 80.3534 114.381 80.1566 114.329 79.9664L114.145 79.3957C114.027 79.0152 113.902 78.6347 113.778 78.2477L113.325 77.08L113.076 76.5158C112.984 76.3322 112.873 76.155 112.774 75.9779L112.118 74.889C111.869 74.5544 111.626 74.233 111.377 73.8656L110.996 73.3474L110.563 72.875C109.414 71.5497 108.069 70.4082 106.575 69.4901L105.407 68.8341C105.007 68.6307 104.587 68.4602 104.174 68.2765C103.964 68.1846 103.761 68.0862 103.518 68.0075L102.862 67.7976C102.422 67.673 101.996 67.4958 101.55 67.404C99.7273 66.9849 97.8532 66.8346 95.9871 66.9579C92.3075 67.2849 88.8239 68.7605 86.029 71.176C83.4243 73.4459 81.537 76.4252 80.5973 79.7499C80.1861 81.2992 79.9831 82.8964 79.9938 84.4994C79.9818 84.885 79.9994 85.271 80.0463 85.6539L80.1447 86.7888C80.289 87.5301 80.4071 88.2648 80.5973 88.9667C81.3248 91.5895 82.647 94.0094 84.4612 96.0384C85.9597 97.7085 87.7574 99.0836 89.7617 100.092L91.0737 100.683C91.4935 100.867 91.9265 100.972 92.3266 101.109C93.0624 101.348 93.8144 101.535 94.5767 101.667C95.6338 101.849 96.7053 101.935 97.778 101.923H98.6177C98.7114 101.913 98.806 101.913 98.8997 101.923C98.8059 101.932 98.7115 101.932 98.6177 101.923L97.778 101.962C95.9178 102.036 94.0587 101.792 92.2807 101.24C91.874 101.103 91.4345 100.998 91.0081 100.821L89.6961 100.237C87.4347 99.1313 85.4324 97.5606 83.8203 95.6274C82.2082 93.6943 81.0227 91.4424 80.3415 89.0192C80.1447 88.3042 80.0201 87.5563 79.8757 86.8019L79.7708 85.6474C79.7215 85.258 79.7018 84.8655 79.7117 84.4731C79.6979 82.8441 79.9009 81.2205 80.3153 79.645C81.2918 76.1201 83.3238 72.9786 86.1383 70.6426C88.9528 68.3066 92.4148 66.888 96.0593 66.5774C97.9608 66.452 99.8705 66.6067 101.727 67.0366C102.193 67.1285 102.626 67.3056 103.039 67.4368L103.695 67.6467C103.912 67.732 104.121 67.8304 104.351 67.9222C104.771 68.1125 105.204 68.2896 105.611 68.493L106.778 69.208C108.3 70.1441 109.67 71.3078 110.839 72.6586L111.278 73.144L111.659 73.6688L112.413 74.7184C112.63 75.0858 112.84 75.4597 113.069 75.8205C113.174 76.0107 113.286 76.1878 113.378 76.3715L113.633 76.9488L114.132 78.0902C114.257 78.4838 114.381 78.8774 114.499 79.2645L114.683 79.8418C114.736 80.0386 114.768 80.2354 114.808 80.4322L115.044 81.6064C115.142 82.387 115.208 83.1677 115.247 83.9352C115.247 84.3157 115.247 84.6962 115.247 85.0766C115.252 85.4495 115.23 85.8221 115.182 86.1918C115.136 86.5592 115.083 86.9266 115.037 87.2874C114.991 87.6482 114.886 87.9958 114.814 88.3501C114.653 89.0335 114.456 89.7079 114.224 90.3706C113.762 91.6083 113.166 92.7917 112.446 93.8998C111.206 95.821 109.607 97.4849 107.736 98.8002C106.324 99.788 104.778 100.568 103.144 101.116C102.555 101.319 101.952 101.481 101.34 101.601C100.899 101.715 100.449 101.794 99.9953 101.837L99.1621 101.929C99.0732 101.943 98.9832 101.95 98.8932 101.949Z" fill="#263238"/>
<path d="M99.1031 84.6175C99.9332 84.2491 100.638 83.6462 101.129 82.8828C101.621 82.1193 101.879 81.2288 101.871 80.3207C101.914 79.7238 101.834 79.1246 101.635 78.5601C101.437 77.9955 101.125 77.4778 100.718 77.0389C100.311 76.6 99.8188 76.2494 99.271 76.0087C98.7232 75.768 98.1317 75.6424 97.5334 75.6397C96.935 75.637 96.3425 75.7572 95.7925 75.993C95.2425 76.2287 94.7468 76.5749 94.3361 77.0101C93.9255 77.4453 93.6086 77.9602 93.4051 78.5229C93.2016 79.0856 93.1159 79.6841 93.1532 80.2813C93.1366 81.1972 93.3912 82.0975 93.8849 82.869C94.3787 83.6406 95.0895 84.2489 95.9281 84.6175C89.2238 85.6277 89.5321 92.9159 89.5321 92.9159L105.388 92.988C105.388 92.988 105.768 85.608 99.1031 84.6175Z" fill="#381E3E"/>
<path d="M126.196 111.192C126.13 111.264 122.26 108.194 117.602 104.337C112.945 100.479 109.166 97.2913 109.225 97.2191C109.284 97.147 113.128 100.217 117.819 104.074C122.509 107.932 126.255 111.126 126.196 111.192Z" fill="#CEAB5E"/>
<path d="M213.398 80.36C210.802 80.5729 208.204 79.9839 205.953 78.6725C203.703 77.3611 201.91 75.3905 200.816 73.0271C199.721 70.6636 199.379 68.0213 199.835 65.457C200.29 62.8927 201.522 60.5301 203.364 58.6885C205.206 56.8468 207.568 55.6149 210.132 55.1592C212.697 54.7034 215.339 55.0458 217.702 56.1401C220.066 57.2344 222.036 59.0278 223.348 61.278C224.659 63.5283 225.248 66.1268 225.035 68.7226C224.786 71.7257 223.48 74.5433 221.35 76.6741C219.219 78.805 216.401 80.111 213.398 80.36Z" fill="#FAFAFA"/>
<path d="M213.398 80.36C213.464 80.3383 213.532 80.325 213.601 80.3206L214.198 80.2222C214.521 80.1774 214.841 80.1116 215.156 80.0254C215.589 79.9452 216.016 79.8378 216.435 79.704C218.214 79.0655 219.831 78.0451 221.173 76.7145C222.515 75.384 223.549 73.7756 224.202 72.0025C224.536 71.0431 224.756 70.048 224.858 69.0374C225.088 66.8027 224.709 64.5475 223.763 62.5102C223.513 61.9687 223.23 61.4429 222.917 60.9358L222.379 60.2011L222.11 59.8272L221.801 59.4861C220.973 58.5356 220.004 57.7171 218.928 57.0589C217.815 56.3771 216.605 55.8684 215.34 55.5501C214.029 55.2454 212.681 55.137 211.338 55.2286C209.005 55.4181 206.772 56.2555 204.889 57.6464C203.007 59.0373 201.551 60.9264 200.685 63.1007C199.818 65.275 199.577 67.648 199.987 69.9523C200.397 72.2565 201.443 74.4003 203.007 76.1419C204.078 77.3359 205.362 78.3212 206.792 79.048L207.73 79.4744C208.038 79.6056 208.347 79.6777 208.635 79.7827C209.165 79.9564 209.706 80.0901 210.256 80.1829C211.016 80.3184 211.786 80.3843 212.558 80.3797H213.162H213.372H213.168H212.558C211.216 80.4351 209.875 80.2643 208.589 79.8745C208.294 79.7761 207.979 79.704 207.665 79.5728L206.707 79.1529C205.221 78.4328 203.886 77.4378 202.771 76.2206C201.427 74.7407 200.446 72.9688 199.904 71.0448C199.406 69.2208 199.315 67.3094 199.637 65.4463C199.96 63.5832 200.689 61.8139 201.772 60.2638C202.855 58.7138 204.266 57.421 205.904 56.4772C207.543 55.5333 209.369 54.9615 211.253 54.8022C212.631 54.7117 214.014 54.8245 215.359 55.1368C216.685 55.4727 217.949 56.015 219.105 56.744C220.206 57.4233 221.197 58.2661 222.044 59.2433L222.359 59.5976L222.641 59.9781L223.185 60.739C223.506 61.2592 223.795 61.7981 224.051 62.3528C225.449 65.4127 225.59 68.8986 224.445 72.0616C223.785 73.8674 222.726 75.5012 221.347 76.8413C219.968 78.1815 218.305 79.1936 216.481 79.8024C216.052 79.948 215.614 80.0663 215.169 80.1566C214.849 80.2309 214.525 80.2857 214.198 80.3206L213.595 80.3797C213.529 80.3831 213.462 80.3765 213.398 80.36Z" fill="#263238"/>
<path d="M213.542 67.896C214.137 67.6284 214.64 67.1926 214.99 66.6424C215.339 66.0921 215.52 65.4516 215.51 64.7997C215.54 64.3702 215.482 63.9391 215.338 63.533C215.195 63.127 214.97 62.7547 214.677 62.4391C214.384 62.1234 214.03 61.8712 213.636 61.698C213.242 61.5248 212.816 61.4343 212.386 61.432C211.955 61.4298 211.529 61.5159 211.133 61.685C210.737 61.854 210.38 62.1025 210.083 62.4151C209.787 62.7276 209.558 63.0976 209.411 63.5021C209.263 63.9066 209.2 64.3371 209.226 64.7669C209.215 65.4317 209.402 66.0846 209.765 66.6421C210.127 67.1995 210.647 67.6362 211.259 67.896C206.425 68.6242 206.667 73.8787 206.667 73.8787L218.102 73.9378C218.102 73.9378 218.338 68.6438 213.542 67.896Z" fill="#381E3E"/>
<path d="M209.022 79.9729C208.387 81.8773 207.642 83.7434 206.792 85.562C206.044 87.4264 205.19 89.2465 204.234 91.0134C204.877 89.1102 205.626 87.2443 206.477 85.4243C207.226 83.5622 208.076 81.7424 209.022 79.9729Z" fill="#CEAB5E"/>
<path d="M274.964 153.602C271.631 153.875 268.294 153.117 265.406 151.433C262.517 149.748 260.214 147.218 258.81 144.183C257.405 141.148 256.966 137.755 257.552 134.463C258.137 131.17 259.719 128.137 262.084 125.772C264.448 123.407 267.482 121.826 270.774 121.24C274.067 120.655 277.459 121.094 280.494 122.498C283.529 123.903 286.06 126.205 287.744 129.094C289.429 131.983 290.186 135.319 289.914 138.652C289.595 142.51 287.917 146.13 285.18 148.868C282.442 151.606 278.822 153.283 274.964 153.602Z" fill="#FAFAFA"/>
<path d="M274.963 153.602C275.047 153.578 275.133 153.561 275.219 153.55L275.987 153.438C276.405 153.383 276.819 153.299 277.227 153.189C277.785 153.064 278.335 152.904 278.873 152.71C280.352 152.183 281.749 151.452 283.026 150.539C284.902 149.206 286.471 147.487 287.627 145.496C288.782 143.506 289.497 141.29 289.723 139C290.022 136.123 289.537 133.22 288.32 130.596L288.083 130.072C287.998 129.901 287.9 129.737 287.801 129.573L287.224 128.569L286.535 127.592L286.188 127.113L285.787 126.674C284.724 125.445 283.476 124.39 282.088 123.544C280.668 122.654 279.119 121.99 277.496 121.576C275.809 121.186 274.074 121.044 272.346 121.157C269.041 121.445 265.902 122.736 263.349 124.855C260.796 126.974 258.951 129.821 258.058 133.017C257.676 134.448 257.486 135.924 257.494 137.406C257.482 137.763 257.5 138.121 257.547 138.475C257.547 138.829 257.606 139.177 257.632 139.525C257.77 140.181 257.875 140.896 258.052 141.545C258.723 143.978 259.946 146.223 261.627 148.105C263.014 149.651 264.678 150.924 266.534 151.857L267.741 152.402C268.135 152.572 268.535 152.671 268.902 152.802C269.584 153.021 270.282 153.192 270.988 153.314C271.967 153.487 272.959 153.568 273.953 153.556H274.727L273.953 153.589C272.955 153.633 271.955 153.573 270.968 153.412C270.254 153.301 269.548 153.139 268.856 152.927C268.482 152.795 268.075 152.704 267.682 152.533L266.449 152.002C264.561 151.069 262.865 149.789 261.45 148.23C259.73 146.332 258.472 144.062 257.776 141.598C257.599 140.942 257.481 140.246 257.343 139.544C257.311 139.197 257.278 138.836 257.245 138.475C257.204 138.113 257.187 137.75 257.192 137.386C257.183 135.877 257.37 134.373 257.75 132.912C258.654 129.648 260.535 126.739 263.138 124.574C265.742 122.408 268.946 121.09 272.32 120.796C274.081 120.681 275.849 120.825 277.568 121.222C279.231 121.634 280.822 122.298 282.284 123.19C283.696 124.058 284.966 125.138 286.05 126.391L286.457 126.844L286.811 127.33L287.513 128.3C287.71 128.642 287.906 128.989 288.103 129.324C288.195 129.494 288.3 129.665 288.385 129.835L288.621 130.373C289.858 133.049 290.343 136.011 290.025 138.941C289.686 142.057 288.461 145.011 286.495 147.452C284.529 149.894 281.904 151.721 278.932 152.717C278.389 152.908 277.832 153.059 277.266 153.169C276.856 153.27 276.44 153.343 276.02 153.386L275.246 153.471L274.963 153.602Z" fill="#263238"/>
<path d="M275.147 137.596C275.918 137.257 276.573 136.699 277.029 135.991C277.485 135.283 277.723 134.456 277.712 133.614C277.746 133.065 277.668 132.515 277.481 131.998C277.295 131.48 277.005 131.006 276.63 130.604C276.254 130.203 275.8 129.882 275.296 129.662C274.792 129.442 274.249 129.327 273.699 129.324C273.149 129.321 272.604 129.431 272.098 129.646C271.592 129.861 271.135 130.178 270.755 130.576C270.375 130.974 270.081 131.445 269.89 131.96C269.699 132.476 269.615 133.025 269.643 133.575C269.626 134.424 269.862 135.259 270.319 135.975C270.777 136.691 271.437 137.255 272.215 137.596C266.003 138.534 266.311 145.284 266.311 145.284L280.999 145.35C280.999 145.35 281.307 138.527 275.147 137.596Z" fill="#381E3E"/>
<path d="M257.789 141.329C256.513 141.835 255.197 142.232 253.853 142.516C252.548 142.912 251.211 143.199 249.858 143.375C251.134 142.869 252.451 142.472 253.794 142.188C255.1 141.792 256.436 141.505 257.789 141.329Z" fill="#CEAB5E"/>

</svg>
